<?xml version="1.0" encoding="utf-8" standalone="no"?>
<!DOCTYPE svg PUBLIC "-//W3C//DTD SVG 1.1//EN"
  "http://www.w3.org/Graphics/SVG/1.1/DTD/svg11.dtd">
<!-- Created with matplotlib (http://matplotlib.org/) -->
<svg height="396pt" version="1.1" viewBox="0 0 576 396" width="576pt" xmlns="http://www.w3.org/2000/svg" xmlns:xlink="http://www.w3.org/1999/xlink">
 <defs>
  <style type="text/css">
*{stroke-linecap:butt;stroke-linejoin:round;stroke-miterlimit:100000;}
  </style>
 </defs>
 <g id="figure_1">
  <g id="patch_1">
   <path d="M 0 396 
L 576 396 
L 576 0 
L 0 0 
z
" style="fill:#ffffff;"/>
  </g>
  <g id="axes_1">
   <g id="patch_2">
    <path d="M 72 346.5 
L 518.4 346.5 
L 518.4 39.6 
L 72 39.6 
z
" style="fill:#ffffff;"/>
   </g>
   <g id="matplotlib.axis_1">
    <g id="xtick_1">
     <g id="line2d_1">
      <defs>
       <path d="M 0 0 
L 0 5 
" id="m883e434974" style="stroke:#262626;"/>
      </defs>
      <g>
       <use style="fill:#262626;stroke:#262626;" x="76.4198019802" xlink:href="#m883e434974" y="346.5"/>
      </g>
     </g>
     <g id="text_1">
      <!-- 0 -->
      <defs>
       <path d="M 4.15625 35.296875 
Q 4.15625 48 6.765625 55.734375 
Q 9.375 63.484375 14.515625 67.671875 
Q 19.671875 71.875 27.484375 71.875 
Q 33.25 71.875 37.59375 69.546875 
Q 41.9375 67.234375 44.765625 62.859375 
Q 47.609375 58.5 49.21875 52.21875 
Q 50.828125 45.953125 50.828125 35.296875 
Q 50.828125 22.703125 48.234375 14.96875 
Q 45.65625 7.234375 40.5 3 
Q 35.359375 -1.21875 27.484375 -1.21875 
Q 17.140625 -1.21875 11.234375 6.203125 
Q 4.15625 15.140625 4.15625 35.296875 
M 13.1875 35.296875 
Q 13.1875 17.671875 17.3125 11.828125 
Q 21.4375 6 27.484375 6 
Q 33.546875 6 37.671875 11.859375 
Q 41.796875 17.71875 41.796875 35.296875 
Q 41.796875 52.984375 37.671875 58.78125 
Q 33.546875 64.59375 27.390625 64.59375 
Q 21.34375 64.59375 17.71875 59.46875 
Q 13.1875 52.9375 13.1875 35.296875 
" id="ArialMT-30"/>
      </defs>
      <g style="fill:#262626;" transform="translate(73.6393332302 360.6578125)scale(0.1 -0.1)">
       <use xlink:href="#ArialMT-30"/>
      </g>
     </g>
    </g>
    <g id="xtick_2">
     <g id="line2d_2">
      <g>
       <use style="fill:#262626;stroke:#262626;" x="164.815841584" xlink:href="#m883e434974" y="346.5"/>
      </g>
     </g>
     <g id="text_2">
      <!-- 200 -->
      <defs>
       <path d="M 50.34375 8.453125 
L 50.34375 0 
L 3.03125 0 
Q 2.9375 3.171875 4.046875 6.109375 
Q 5.859375 10.9375 9.828125 15.625 
Q 13.8125 20.3125 21.34375 26.46875 
Q 33.015625 36.03125 37.109375 41.625 
Q 41.21875 47.21875 41.21875 52.203125 
Q 41.21875 57.421875 37.46875 61 
Q 33.734375 64.59375 27.734375 64.59375 
Q 21.390625 64.59375 17.578125 60.78125 
Q 13.765625 56.984375 13.71875 50.25 
L 4.6875 51.171875 
Q 5.609375 61.28125 11.65625 66.578125 
Q 17.71875 71.875 27.9375 71.875 
Q 38.234375 71.875 44.234375 66.15625 
Q 50.25 60.453125 50.25 52 
Q 50.25 47.703125 48.484375 43.546875 
Q 46.734375 39.40625 42.65625 34.8125 
Q 38.578125 30.21875 29.109375 22.21875 
Q 21.1875 15.578125 18.9375 13.203125 
Q 16.703125 10.84375 15.234375 8.453125 
z
" id="ArialMT-32"/>
      </defs>
      <g style="fill:#262626;" transform="translate(156.474435334 360.6578125)scale(0.1 -0.1)">
       <use xlink:href="#ArialMT-32"/>
       <use x="55.615234375" xlink:href="#ArialMT-30"/>
       <use x="111.23046875" xlink:href="#ArialMT-30"/>
      </g>
     </g>
    </g>
    <g id="xtick_3">
     <g id="line2d_3">
      <g>
       <use style="fill:#262626;stroke:#262626;" x="253.211881188" xlink:href="#m883e434974" y="346.5"/>
      </g>
     </g>
     <g id="text_3">
      <!-- 400 -->
      <defs>
       <path d="M 32.328125 0 
L 32.328125 17.140625 
L 1.265625 17.140625 
L 1.265625 25.203125 
L 33.9375 71.578125 
L 41.109375 71.578125 
L 41.109375 25.203125 
L 50.78125 25.203125 
L 50.78125 17.140625 
L 41.109375 17.140625 
L 41.109375 0 
z
M 32.328125 25.203125 
L 32.328125 57.46875 
L 9.90625 25.203125 
z
" id="ArialMT-34"/>
      </defs>
      <g style="fill:#262626;" transform="translate(244.870474938 360.6578125)scale(0.1 -0.1)">
       <use xlink:href="#ArialMT-34"/>
       <use x="55.615234375" xlink:href="#ArialMT-30"/>
       <use x="111.23046875" xlink:href="#ArialMT-30"/>
      </g>
     </g>
    </g>
    <g id="xtick_4">
     <g id="line2d_4">
      <g>
       <use style="fill:#262626;stroke:#262626;" x="341.607920792" xlink:href="#m883e434974" y="346.5"/>
      </g>
     </g>
     <g id="text_4">
      <!-- 600 -->
      <defs>
       <path d="M 49.75 54.046875 
L 41.015625 53.375 
Q 39.84375 58.546875 37.703125 60.890625 
Q 34.125 64.65625 28.90625 64.65625 
Q 24.703125 64.65625 21.53125 62.3125 
Q 17.390625 59.28125 14.984375 53.46875 
Q 12.59375 47.65625 12.5 36.921875 
Q 15.671875 41.75 20.265625 44.09375 
Q 24.859375 46.4375 29.890625 46.4375 
Q 38.671875 46.4375 44.84375 39.96875 
Q 51.03125 33.5 51.03125 23.25 
Q 51.03125 16.5 48.125 10.71875 
Q 45.21875 4.9375 40.140625 1.859375 
Q 35.0625 -1.21875 28.609375 -1.21875 
Q 17.625 -1.21875 10.6875 6.859375 
Q 3.765625 14.9375 3.765625 33.5 
Q 3.765625 54.25 11.421875 63.671875 
Q 18.109375 71.875 29.4375 71.875 
Q 37.890625 71.875 43.28125 67.140625 
Q 48.6875 62.40625 49.75 54.046875 
M 13.875 23.1875 
Q 13.875 18.65625 15.796875 14.5 
Q 17.71875 10.359375 21.1875 8.171875 
Q 24.65625 6 28.46875 6 
Q 34.03125 6 38.03125 10.484375 
Q 42.046875 14.984375 42.046875 22.703125 
Q 42.046875 30.125 38.078125 34.390625 
Q 34.125 38.671875 28.125 38.671875 
Q 22.171875 38.671875 18.015625 34.390625 
Q 13.875 30.125 13.875 23.1875 
" id="ArialMT-36"/>
      </defs>
      <g style="fill:#262626;" transform="translate(333.266514542 360.6578125)scale(0.1 -0.1)">
       <use xlink:href="#ArialMT-36"/>
       <use x="55.615234375" xlink:href="#ArialMT-30"/>
       <use x="111.23046875" xlink:href="#ArialMT-30"/>
      </g>
     </g>
    </g>
    <g id="xtick_5">
     <g id="line2d_5">
      <g>
       <use style="fill:#262626;stroke:#262626;" x="430.003960396" xlink:href="#m883e434974" y="346.5"/>
      </g>
     </g>
     <g id="text_5">
      <!-- 800 -->
      <defs>
       <path d="M 17.671875 38.8125 
Q 12.203125 40.828125 9.5625 44.53125 
Q 6.9375 48.25 6.9375 53.421875 
Q 6.9375 61.234375 12.546875 66.546875 
Q 18.171875 71.875 27.484375 71.875 
Q 36.859375 71.875 42.578125 66.421875 
Q 48.296875 60.984375 48.296875 53.171875 
Q 48.296875 48.1875 45.671875 44.5 
Q 43.0625 40.828125 37.75 38.8125 
Q 44.34375 36.671875 47.78125 31.875 
Q 51.21875 27.09375 51.21875 20.453125 
Q 51.21875 11.28125 44.71875 5.03125 
Q 38.234375 -1.21875 27.640625 -1.21875 
Q 17.046875 -1.21875 10.546875 5.046875 
Q 4.046875 11.328125 4.046875 20.703125 
Q 4.046875 27.6875 7.59375 32.390625 
Q 11.140625 37.109375 17.671875 38.8125 
M 15.921875 53.71875 
Q 15.921875 48.640625 19.1875 45.40625 
Q 22.46875 42.1875 27.6875 42.1875 
Q 32.765625 42.1875 36.015625 45.375 
Q 39.265625 48.578125 39.265625 53.21875 
Q 39.265625 58.0625 35.90625 61.359375 
Q 32.5625 64.65625 27.59375 64.65625 
Q 22.5625 64.65625 19.234375 61.421875 
Q 15.921875 58.203125 15.921875 53.71875 
M 13.09375 20.65625 
Q 13.09375 16.890625 14.875 13.375 
Q 16.65625 9.859375 20.171875 7.921875 
Q 23.6875 6 27.734375 6 
Q 34.03125 6 38.125 10.046875 
Q 42.234375 14.109375 42.234375 20.359375 
Q 42.234375 26.703125 38.015625 30.859375 
Q 33.796875 35.015625 27.4375 35.015625 
Q 21.234375 35.015625 17.15625 30.90625 
Q 13.09375 26.8125 13.09375 20.65625 
" id="ArialMT-38"/>
      </defs>
      <g style="fill:#262626;" transform="translate(421.662554146 360.6578125)scale(0.1 -0.1)">
       <use xlink:href="#ArialMT-38"/>
       <use x="55.615234375" xlink:href="#ArialMT-30"/>
       <use x="111.23046875" xlink:href="#ArialMT-30"/>
      </g>
     </g>
    </g>
    <g id="xtick_6">
     <g id="line2d_6">
      <g>
       <use style="fill:#262626;stroke:#262626;" x="518.4" xlink:href="#m883e434974" y="346.5"/>
      </g>
     </g>
     <g id="text_6">
      <!-- 1000 -->
      <defs>
       <path d="M 37.25 0 
L 28.46875 0 
L 28.46875 56 
Q 25.296875 52.984375 20.140625 49.953125 
Q 14.984375 46.921875 10.890625 45.40625 
L 10.890625 53.90625 
Q 18.265625 57.375 23.78125 62.296875 
Q 29.296875 67.234375 31.59375 71.875 
L 37.25 71.875 
z
" id="ArialMT-31"/>
      </defs>
      <g style="fill:#262626;" transform="translate(507.278125 360.6578125)scale(0.1 -0.1)">
       <use xlink:href="#ArialMT-31"/>
       <use x="55.615234375" xlink:href="#ArialMT-30"/>
       <use x="111.23046875" xlink:href="#ArialMT-30"/>
       <use x="166.845703125" xlink:href="#ArialMT-30"/>
      </g>
     </g>
    </g>
    <g id="text_7">
     <!-- barcode, rank-ordered -->
     <defs>
      <path d="M 40.4375 19 
L 49.078125 17.875 
Q 47.65625 8.9375 41.8125 3.875 
Q 35.984375 -1.171875 27.484375 -1.171875 
Q 16.84375 -1.171875 10.375 5.78125 
Q 3.90625 12.75 3.90625 25.734375 
Q 3.90625 34.125 6.6875 40.421875 
Q 9.46875 46.734375 15.15625 49.875 
Q 20.84375 53.03125 27.546875 53.03125 
Q 35.984375 53.03125 41.359375 48.75 
Q 46.734375 44.484375 48.25 36.625 
L 39.703125 35.296875 
Q 38.484375 40.53125 35.375 43.15625 
Q 32.28125 45.796875 27.875 45.796875 
Q 21.234375 45.796875 17.078125 41.03125 
Q 12.9375 36.28125 12.9375 25.984375 
Q 12.9375 15.53125 16.9375 10.796875 
Q 20.953125 6.0625 27.390625 6.0625 
Q 32.5625 6.0625 36.03125 9.234375 
Q 39.5 12.40625 40.4375 19 
" id="ArialMT-63"/>
      <path d="M 14.703125 0 
L 6.546875 0 
L 6.546875 71.578125 
L 15.328125 71.578125 
L 15.328125 46.046875 
Q 20.90625 53.03125 29.546875 53.03125 
Q 34.328125 53.03125 38.59375 51.09375 
Q 42.875 49.171875 45.625 45.671875 
Q 48.390625 42.1875 49.953125 37.25 
Q 51.515625 32.328125 51.515625 26.703125 
Q 51.515625 13.375 44.921875 6.09375 
Q 38.328125 -1.171875 29.109375 -1.171875 
Q 19.921875 -1.171875 14.703125 6.5 
z
M 14.59375 26.3125 
Q 14.59375 17 17.140625 12.84375 
Q 21.296875 6.0625 28.375 6.0625 
Q 34.125 6.0625 38.328125 11.0625 
Q 42.53125 16.0625 42.53125 25.984375 
Q 42.53125 36.140625 38.5 40.96875 
Q 34.46875 45.796875 28.765625 45.796875 
Q 23 45.796875 18.796875 40.796875 
Q 14.59375 35.796875 14.59375 26.3125 
" id="ArialMT-62"/>
      <path d="M 40.4375 6.390625 
Q 35.546875 2.25 31.03125 0.53125 
Q 26.515625 -1.171875 21.34375 -1.171875 
Q 12.796875 -1.171875 8.203125 3 
Q 3.609375 7.171875 3.609375 13.671875 
Q 3.609375 17.484375 5.34375 20.625 
Q 7.078125 23.78125 9.890625 25.6875 
Q 12.703125 27.59375 16.21875 28.5625 
Q 18.796875 29.25 24.03125 29.890625 
Q 34.671875 31.15625 39.703125 32.90625 
Q 39.75 34.71875 39.75 35.203125 
Q 39.75 40.578125 37.25 42.78125 
Q 33.890625 45.75 27.25 45.75 
Q 21.046875 45.75 18.09375 43.578125 
Q 15.140625 41.40625 13.71875 35.890625 
L 5.125 37.0625 
Q 6.296875 42.578125 8.984375 45.96875 
Q 11.671875 49.359375 16.75 51.1875 
Q 21.828125 53.03125 28.515625 53.03125 
Q 35.15625 53.03125 39.296875 51.46875 
Q 43.453125 49.90625 45.40625 47.53125 
Q 47.359375 45.171875 48.140625 41.546875 
Q 48.578125 39.3125 48.578125 33.453125 
L 48.578125 21.734375 
Q 48.578125 9.46875 49.140625 6.21875 
Q 49.703125 2.984375 51.375 0 
L 42.1875 0 
Q 40.828125 2.734375 40.4375 6.390625 
M 39.703125 26.03125 
Q 34.90625 24.078125 25.34375 22.703125 
Q 19.921875 21.921875 17.671875 20.9375 
Q 15.4375 19.96875 14.203125 18.09375 
Q 12.984375 16.21875 12.984375 13.921875 
Q 12.984375 10.40625 15.640625 8.0625 
Q 18.3125 5.71875 23.4375 5.71875 
Q 28.515625 5.71875 32.46875 7.9375 
Q 36.421875 10.15625 38.28125 14.015625 
Q 39.703125 17 39.703125 22.796875 
z
" id="ArialMT-61"/>
      <path d="M 42.09375 16.703125 
L 51.171875 15.578125 
Q 49.03125 7.625 43.21875 3.21875 
Q 37.40625 -1.171875 28.375 -1.171875 
Q 17 -1.171875 10.328125 5.828125 
Q 3.65625 12.84375 3.65625 25.484375 
Q 3.65625 38.578125 10.390625 45.796875 
Q 17.140625 53.03125 27.875 53.03125 
Q 38.28125 53.03125 44.875 45.953125 
Q 51.46875 38.875 51.46875 26.03125 
Q 51.46875 25.25 51.421875 23.6875 
L 12.75 23.6875 
Q 13.234375 15.140625 17.578125 10.59375 
Q 21.921875 6.0625 28.421875 6.0625 
Q 33.25 6.0625 36.671875 8.59375 
Q 40.09375 11.140625 42.09375 16.703125 
M 13.234375 30.90625 
L 42.1875 30.90625 
Q 41.609375 37.453125 38.875 40.71875 
Q 34.671875 45.796875 27.984375 45.796875 
Q 21.921875 45.796875 17.796875 41.75 
Q 13.671875 37.703125 13.234375 30.90625 
" id="ArialMT-65"/>
      <path d="M 40.234375 0 
L 40.234375 6.546875 
Q 35.296875 -1.171875 25.734375 -1.171875 
Q 19.53125 -1.171875 14.328125 2.25 
Q 9.125 5.671875 6.265625 11.796875 
Q 3.421875 17.921875 3.421875 25.875 
Q 3.421875 33.640625 6 39.96875 
Q 8.59375 46.296875 13.765625 49.65625 
Q 18.953125 53.03125 25.34375 53.03125 
Q 30.03125 53.03125 33.6875 51.046875 
Q 37.359375 49.078125 39.65625 45.90625 
L 39.65625 71.578125 
L 48.390625 71.578125 
L 48.390625 0 
z
M 12.453125 25.875 
Q 12.453125 15.921875 16.640625 10.984375 
Q 20.84375 6.0625 26.5625 6.0625 
Q 32.328125 6.0625 36.34375 10.765625 
Q 40.375 15.484375 40.375 25.140625 
Q 40.375 35.796875 36.265625 40.765625 
Q 32.171875 45.75 26.171875 45.75 
Q 20.3125 45.75 16.375 40.96875 
Q 12.453125 36.1875 12.453125 25.875 
" id="ArialMT-64"/>
      <path d="M 3.171875 21.484375 
L 3.171875 30.328125 
L 30.171875 30.328125 
L 30.171875 21.484375 
z
" id="ArialMT-2d"/>
      <path d="M 8.890625 0 
L 8.890625 10.015625 
L 18.890625 10.015625 
L 18.890625 0 
Q 18.890625 -5.515625 16.9375 -8.90625 
Q 14.984375 -12.3125 10.75 -14.15625 
L 8.296875 -10.40625 
Q 11.078125 -9.1875 12.390625 -6.8125 
Q 13.71875 -4.4375 13.875 0 
z
" id="ArialMT-2c"/>
      <path d="M 6.5 0 
L 6.5 51.859375 
L 14.40625 51.859375 
L 14.40625 44 
Q 17.4375 49.515625 20 51.265625 
Q 22.5625 53.03125 25.640625 53.03125 
Q 30.078125 53.03125 34.671875 50.203125 
L 31.640625 42.046875 
Q 28.421875 43.953125 25.203125 43.953125 
Q 22.3125 43.953125 20.015625 42.21875 
Q 17.71875 40.484375 16.75 37.40625 
Q 15.28125 32.71875 15.28125 27.15625 
L 15.28125 0 
z
" id="ArialMT-72"/>
      <path d="M 6.640625 0 
L 6.640625 71.578125 
L 15.4375 71.578125 
L 15.4375 30.765625 
L 36.234375 51.859375 
L 47.609375 51.859375 
L 27.78125 32.625 
L 49.609375 0 
L 38.765625 0 
L 21.625 26.515625 
L 15.4375 20.5625 
L 15.4375 0 
z
" id="ArialMT-6b"/>
      <path d="M 3.328125 25.921875 
Q 3.328125 40.328125 11.328125 47.265625 
Q 18.015625 53.03125 27.640625 53.03125 
Q 38.328125 53.03125 45.109375 46.015625 
Q 51.90625 39.015625 51.90625 26.65625 
Q 51.90625 16.65625 48.90625 10.90625 
Q 45.90625 5.171875 40.15625 2 
Q 34.421875 -1.171875 27.640625 -1.171875 
Q 16.75 -1.171875 10.03125 5.8125 
Q 3.328125 12.796875 3.328125 25.921875 
M 12.359375 25.921875 
Q 12.359375 15.96875 16.703125 11.015625 
Q 21.046875 6.0625 27.640625 6.0625 
Q 34.1875 6.0625 38.53125 11.03125 
Q 42.875 16.015625 42.875 26.21875 
Q 42.875 35.84375 38.5 40.796875 
Q 34.125 45.75 27.640625 45.75 
Q 21.046875 45.75 16.703125 40.8125 
Q 12.359375 35.890625 12.359375 25.921875 
" id="ArialMT-6f"/>
      <path d="M 6.59375 0 
L 6.59375 51.859375 
L 14.5 51.859375 
L 14.5 44.484375 
Q 20.21875 53.03125 31 53.03125 
Q 35.6875 53.03125 39.625 51.34375 
Q 43.5625 49.65625 45.515625 46.921875 
Q 47.46875 44.1875 48.25 40.4375 
Q 48.734375 37.984375 48.734375 31.890625 
L 48.734375 0 
L 39.9375 0 
L 39.9375 31.546875 
Q 39.9375 36.921875 38.90625 39.578125 
Q 37.890625 42.234375 35.28125 43.8125 
Q 32.671875 45.40625 29.15625 45.40625 
Q 23.53125 45.40625 19.453125 41.84375 
Q 15.375 38.28125 15.375 28.328125 
L 15.375 0 
z
" id="ArialMT-6e"/>
      <path id="ArialMT-20"/>
     </defs>
     <g style="fill:#262626;" transform="translate(240.785234375 375.51890625)scale(0.11 -0.11)">
      <use xlink:href="#ArialMT-62"/>
      <use x="55.615234375" xlink:href="#ArialMT-61"/>
      <use x="111.23046875" xlink:href="#ArialMT-72"/>
      <use x="144.53125" xlink:href="#ArialMT-63"/>
      <use x="194.53125" xlink:href="#ArialMT-6f"/>
      <use x="250.146484375" xlink:href="#ArialMT-64"/>
      <use x="305.76171875" xlink:href="#ArialMT-65"/>
      <use x="361.376953125" xlink:href="#ArialMT-2c"/>
      <use x="389.16015625" xlink:href="#ArialMT-20"/>
      <use x="416.943359375" xlink:href="#ArialMT-72"/>
      <use x="450.244140625" xlink:href="#ArialMT-61"/>
      <use x="505.859375" xlink:href="#ArialMT-6e"/>
      <use x="561.474609375" xlink:href="#ArialMT-6b"/>
      <use x="611.474609375" xlink:href="#ArialMT-2d"/>
      <use x="644.775390625" xlink:href="#ArialMT-6f"/>
      <use x="700.390625" xlink:href="#ArialMT-72"/>
      <use x="733.69140625" xlink:href="#ArialMT-64"/>
      <use x="789.306640625" xlink:href="#ArialMT-65"/>
      <use x="844.921875" xlink:href="#ArialMT-72"/>
      <use x="878.22265625" xlink:href="#ArialMT-65"/>
      <use x="933.837890625" xlink:href="#ArialMT-64"/>
     </g>
    </g>
   </g>
   <g id="matplotlib.axis_2">
    <g id="ytick_1">
     <g id="line2d_7">
      <defs>
       <path d="M 0 0 
L -5 0 
" id="mb86eda5204" style="stroke:#262626;"/>
      </defs>
      <g>
       <use style="fill:#262626;stroke:#262626;" x="72.0" xlink:href="#mb86eda5204" y="346.5"/>
      </g>
     </g>
     <g id="text_8">
      <!-- 1 -->
      <g style="fill:#262626;" transform="translate(59.4390625 349.08515625)scale(0.1 -0.1)">
       <use xlink:href="#ArialMT-31"/>
      </g>
     </g>
    </g>
    <g id="ytick_2">
     <g id="line2d_8">
      <g>
       <use style="fill:#262626;stroke:#262626;" x="72.0" xlink:href="#mb86eda5204" y="262.253008469"/>
      </g>
     </g>
     <g id="text_9">
      <!-- 10 -->
      <g style="fill:#262626;" transform="translate(53.878125 264.838164719)scale(0.1 -0.1)">
       <use xlink:href="#ArialMT-31"/>
       <use x="55.615234375" xlink:href="#ArialMT-30"/>
      </g>
     </g>
    </g>
    <g id="ytick_3">
     <g id="line2d_9">
      <g>
       <use style="fill:#262626;stroke:#262626;" x="72.0" xlink:href="#mb86eda5204" y="178.006016937"/>
      </g>
     </g>
     <g id="text_10">
      <!-- 100 -->
      <g style="fill:#262626;" transform="translate(48.3171875 180.591173187)scale(0.1 -0.1)">
       <use xlink:href="#ArialMT-31"/>
       <use x="55.615234375" xlink:href="#ArialMT-30"/>
       <use x="111.23046875" xlink:href="#ArialMT-30"/>
      </g>
     </g>
    </g>
    <g id="ytick_4">
     <g id="line2d_10">
      <g>
       <use style="fill:#262626;stroke:#262626;" x="72.0" xlink:href="#mb86eda5204" y="93.7590254059"/>
      </g>
     </g>
     <g id="text_11">
      <!-- 1000 -->
      <g style="fill:#262626;" transform="translate(42.75625 96.3441816559)scale(0.1 -0.1)">
       <use xlink:href="#ArialMT-31"/>
       <use x="55.615234375" xlink:href="#ArialMT-30"/>
       <use x="111.23046875" xlink:href="#ArialMT-30"/>
       <use x="166.845703125" xlink:href="#ArialMT-30"/>
      </g>
     </g>
    </g>
    <g id="text_12">
     <!-- log10 abundance (# molecules) -->
     <defs>
      <path d="M 4.984375 -4.296875 
L 13.53125 -5.5625 
Q 14.0625 -9.515625 16.5 -11.328125 
Q 19.78125 -13.765625 25.4375 -13.765625 
Q 31.546875 -13.765625 34.859375 -11.328125 
Q 38.1875 -8.890625 39.359375 -4.5 
Q 40.046875 -1.8125 39.984375 6.78125 
Q 34.234375 0 25.640625 0 
Q 14.9375 0 9.078125 7.71875 
Q 3.21875 15.4375 3.21875 26.21875 
Q 3.21875 33.640625 5.90625 39.90625 
Q 8.59375 46.1875 13.6875 49.609375 
Q 18.796875 53.03125 25.6875 53.03125 
Q 34.859375 53.03125 40.828125 45.609375 
L 40.828125 51.859375 
L 48.921875 51.859375 
L 48.921875 7.03125 
Q 48.921875 -5.078125 46.453125 -10.125 
Q 44 -15.1875 38.640625 -18.109375 
Q 33.296875 -21.046875 25.484375 -21.046875 
Q 16.21875 -21.046875 10.5 -16.875 
Q 4.78125 -12.703125 4.984375 -4.296875 
M 12.25 26.859375 
Q 12.25 16.65625 16.296875 11.96875 
Q 20.359375 7.28125 26.46875 7.28125 
Q 32.515625 7.28125 36.609375 11.9375 
Q 40.71875 16.609375 40.71875 26.5625 
Q 40.71875 36.078125 36.5 40.90625 
Q 32.28125 45.75 26.3125 45.75 
Q 20.453125 45.75 16.34375 40.984375 
Q 12.25 36.234375 12.25 26.859375 
" id="ArialMT-67"/>
      <path d="M 40.578125 0 
L 40.578125 7.625 
Q 34.515625 -1.171875 24.125 -1.171875 
Q 19.53125 -1.171875 15.546875 0.578125 
Q 11.578125 2.34375 9.640625 5 
Q 7.71875 7.671875 6.9375 11.53125 
Q 6.390625 14.109375 6.390625 19.734375 
L 6.390625 51.859375 
L 15.1875 51.859375 
L 15.1875 23.09375 
Q 15.1875 16.21875 15.71875 13.8125 
Q 16.546875 10.359375 19.234375 8.375 
Q 21.921875 6.390625 25.875 6.390625 
Q 29.828125 6.390625 33.296875 8.421875 
Q 36.765625 10.453125 38.203125 13.9375 
Q 39.65625 17.4375 39.65625 24.078125 
L 39.65625 51.859375 
L 48.4375 51.859375 
L 48.4375 0 
z
" id="ArialMT-75"/>
      <path d="M 23.390625 -21.046875 
Q 16.109375 -11.859375 11.078125 0.4375 
Q 6.0625 12.75 6.0625 25.921875 
Q 6.0625 37.546875 9.8125 48.1875 
Q 14.203125 60.546875 23.390625 72.796875 
L 29.6875 72.796875 
Q 23.78125 62.640625 21.875 58.296875 
Q 18.890625 51.5625 17.1875 44.234375 
Q 15.09375 35.109375 15.09375 25.875 
Q 15.09375 2.390625 29.6875 -21.046875 
z
" id="ArialMT-28"/>
      <path d="M 3.078125 15.484375 
L 11.765625 16.84375 
Q 12.5 11.625 15.84375 8.84375 
Q 19.1875 6.0625 25.203125 6.0625 
Q 31.25 6.0625 34.171875 8.515625 
Q 37.109375 10.984375 37.109375 14.3125 
Q 37.109375 17.28125 34.515625 19 
Q 32.71875 20.171875 25.53125 21.96875 
Q 15.875 24.421875 12.140625 26.203125 
Q 8.40625 27.984375 6.46875 31.125 
Q 4.546875 34.28125 4.546875 38.09375 
Q 4.546875 41.546875 6.125 44.5 
Q 7.71875 47.46875 10.453125 49.421875 
Q 12.5 50.921875 16.03125 51.96875 
Q 19.578125 53.03125 23.640625 53.03125 
Q 29.734375 53.03125 34.34375 51.265625 
Q 38.96875 49.515625 41.15625 46.5 
Q 43.359375 43.5 44.1875 38.484375 
L 35.59375 37.3125 
Q 35.015625 41.3125 32.203125 43.546875 
Q 29.390625 45.796875 24.265625 45.796875 
Q 18.21875 45.796875 15.625 43.796875 
Q 13.03125 41.796875 13.03125 39.109375 
Q 13.03125 37.40625 14.109375 36.03125 
Q 15.1875 34.625 17.484375 33.6875 
Q 18.796875 33.203125 25.25 31.453125 
Q 34.578125 28.953125 38.25 27.359375 
Q 41.9375 25.78125 44.03125 22.75 
Q 46.140625 19.734375 46.140625 15.234375 
Q 46.140625 10.84375 43.578125 6.953125 
Q 41.015625 3.078125 36.171875 0.953125 
Q 31.34375 -1.171875 25.25 -1.171875 
Q 15.140625 -1.171875 9.84375 3.03125 
Q 4.546875 7.234375 3.078125 15.484375 
" id="ArialMT-73"/>
      <path d="M 6.390625 0 
L 6.390625 71.578125 
L 15.1875 71.578125 
L 15.1875 0 
z
" id="ArialMT-6c"/>
      <path d="M 12.359375 -21.046875 
L 6.0625 -21.046875 
Q 20.65625 2.390625 20.65625 25.875 
Q 20.65625 35.0625 18.5625 44.09375 
Q 16.890625 51.421875 13.921875 58.15625 
Q 12.015625 62.546875 6.0625 72.796875 
L 12.359375 72.796875 
Q 21.53125 60.546875 25.921875 48.1875 
Q 29.6875 37.546875 29.6875 25.921875 
Q 29.6875 12.75 24.625 0.4375 
Q 19.578125 -11.859375 12.359375 -21.046875 
" id="ArialMT-29"/>
      <path d="M 6.59375 0 
L 6.59375 51.859375 
L 14.453125 51.859375 
L 14.453125 44.578125 
Q 16.890625 48.390625 20.9375 50.703125 
Q 25 53.03125 30.171875 53.03125 
Q 35.9375 53.03125 39.625 50.640625 
Q 43.3125 48.25 44.828125 43.953125 
Q 50.984375 53.03125 60.84375 53.03125 
Q 68.5625 53.03125 72.703125 48.75 
Q 76.859375 44.484375 76.859375 35.59375 
L 76.859375 0 
L 68.109375 0 
L 68.109375 32.671875 
Q 68.109375 37.9375 67.25 40.25 
Q 66.40625 42.578125 64.15625 43.984375 
Q 61.921875 45.40625 58.890625 45.40625 
Q 53.421875 45.40625 49.796875 41.765625 
Q 46.1875 38.140625 46.1875 30.125 
L 46.1875 0 
L 37.40625 0 
L 37.40625 33.6875 
Q 37.40625 39.546875 35.25 42.46875 
Q 33.109375 45.40625 28.21875 45.40625 
Q 24.515625 45.40625 21.359375 43.453125 
Q 18.21875 41.5 16.796875 37.734375 
Q 15.375 33.984375 15.375 26.90625 
L 15.375 0 
z
" id="ArialMT-6d"/>
      <path d="M 5.03125 -1.21875 
L 9.28125 19.578125 
L 1.03125 19.578125 
L 1.03125 26.859375 
L 10.75 26.859375 
L 14.359375 44.578125 
L 1.03125 44.578125 
L 1.03125 51.859375 
L 15.828125 51.859375 
L 20.0625 72.796875 
L 27.390625 72.796875 
L 23.140625 51.859375 
L 38.53125 51.859375 
L 42.78125 72.796875 
L 50.140625 72.796875 
L 45.90625 51.859375 
L 54.34375 51.859375 
L 54.34375 44.578125 
L 44.4375 44.578125 
L 40.765625 26.859375 
L 54.34375 26.859375 
L 54.34375 19.578125 
L 39.3125 19.578125 
L 35.0625 -1.21875 
L 27.734375 -1.21875 
L 31.9375 19.578125 
L 16.609375 19.578125 
L 12.359375 -1.21875 
z
M 18.0625 26.859375 
L 33.40625 26.859375 
L 37.0625 44.578125 
L 21.6875 44.578125 
z
" id="ArialMT-23"/>
     </defs>
     <g style="fill:#262626;" transform="translate(35.44109375 269.78875)rotate(-90.0)scale(0.11 -0.11)">
      <use xlink:href="#ArialMT-6c"/>
      <use x="22.216796875" xlink:href="#ArialMT-6f"/>
      <use x="77.83203125" xlink:href="#ArialMT-67"/>
      <use x="133.447265625" xlink:href="#ArialMT-31"/>
      <use x="189.0625" xlink:href="#ArialMT-30"/>
      <use x="244.677734375" xlink:href="#ArialMT-20"/>
      <use x="272.4609375" xlink:href="#ArialMT-61"/>
      <use x="328.076171875" xlink:href="#ArialMT-62"/>
      <use x="383.69140625" xlink:href="#ArialMT-75"/>
      <use x="439.306640625" xlink:href="#ArialMT-6e"/>
      <use x="494.921875" xlink:href="#ArialMT-64"/>
      <use x="550.537109375" xlink:href="#ArialMT-61"/>
      <use x="606.15234375" xlink:href="#ArialMT-6e"/>
      <use x="661.767578125" xlink:href="#ArialMT-63"/>
      <use x="711.767578125" xlink:href="#ArialMT-65"/>
      <use x="767.3828125" xlink:href="#ArialMT-20"/>
      <use x="795.166015625" xlink:href="#ArialMT-28"/>
      <use x="828.466796875" xlink:href="#ArialMT-23"/>
      <use x="884.08203125" xlink:href="#ArialMT-20"/>
      <use x="911.865234375" xlink:href="#ArialMT-6d"/>
      <use x="995.166015625" xlink:href="#ArialMT-6f"/>
      <use x="1050.78125" xlink:href="#ArialMT-6c"/>
      <use x="1072.99804688" xlink:href="#ArialMT-65"/>
      <use x="1128.61328125" xlink:href="#ArialMT-63"/>
      <use x="1178.61328125" xlink:href="#ArialMT-75"/>
      <use x="1234.22851562" xlink:href="#ArialMT-6c"/>
      <use x="1256.4453125" xlink:href="#ArialMT-65"/>
      <use x="1312.06054688" xlink:href="#ArialMT-73"/>
      <use x="1362.06054688" xlink:href="#ArialMT-29"/>
     </g>
    </g>
   </g>
   <g id="line2d_11">
    <path clip-path="url(#pb7b4d4a42c)" d="M 76.419802 42.863901 
L 76.861782 59.537946 
L 77.303762 71.66831 
L 77.745743 72.293761 
L 78.187723 72.293761 
L 78.629703 73.76786 
L 79.955644 75.592209 
L 80.397624 75.681394 
L 80.839604 75.905312 
L 81.723564 80.980759 
L 82.165545 82.535687 
L 82.607525 83.187606 
L 83.049505 88.108508 
L 85.259406 90.605956 
L 86.143366 90.841682 
L 86.585347 91.351983 
L 87.027327 91.627082 
L 87.469307 92.535714 
L 87.911287 92.998634 
L 88.353267 93.034487 
L 88.795248 93.431206 
L 90.121188 95.597251 
L 91.005149 96.178949 
L 91.447129 97.654632 
L 92.331089 98.228895 
L 93.65703 98.686511 
L 94.54099 102.429978 
L 95.866931 103.32184 
L 96.308911 103.993199 
L 96.750891 104.87488 
L 97.192871 105.023915 
L 97.634851 105.374042 
L 98.518812 106.966192 
L 98.960792 107.229606 
L 99.402772 107.655053 
L 99.844752 109.408107 
L 100.728713 109.576845 
L 101.170693 110.259689 
L 102.054653 112.266631 
L 102.496634 112.693852 
L 102.938614 112.816837 
L 103.380594 114.006286 
L 103.822574 114.325834 
L 104.264554 114.908149 
L 105.590495 115.301572 
L 106.032475 115.699272 
L 106.474455 115.699272 
L 106.916436 116.034023 
L 107.358416 116.034023 
L 107.800396 116.987954 
L 108.242376 118.539123 
L 108.684356 118.755834 
L 109.568317 120.234338 
L 110.010297 120.309856 
L 110.894257 121.618083 
L 111.336238 121.775114 
L 112.662178 123.548448 
L 113.104158 123.548448 
L 113.546139 126.114078 
L 113.988119 126.649522 
L 114.430099 126.920211 
L 114.872079 127.375858 
L 115.75604 128.777869 
L 116.19802 129.160993 
L 116.64 129.257404 
L 117.965941 131.139205 
L 118.407921 131.139205 
L 119.733861 132.379595 
L 120.175842 132.484884 
L 120.617822 132.909098 
L 121.943762 133.230517 
L 122.385743 134.212072 
L 122.827723 136.257897 
L 123.269703 136.492437 
L 123.711683 138.301108 
L 124.153663 138.673824 
L 124.595644 140.465203 
L 125.037624 141.529657 
L 125.479604 141.529657 
L 126.363564 142.765392 
L 126.805545 144.189229 
L 127.247525 146.127132 
L 127.689505 146.589303 
L 128.131485 147.214754 
L 128.573465 147.214754 
L 129.015446 147.372802 
L 129.457426 147.69096 
L 129.899406 148.173446 
L 130.341386 148.335699 
L 130.783366 149.999077 
L 131.667327 150.341023 
L 132.551287 152.100401 
L 132.993267 152.100401 
L 133.435248 152.828544 
L 133.877228 153.198123 
L 134.319208 154.329801 
L 134.761188 154.329801 
L 135.203168 154.714942 
L 135.645149 156.70391 
L 136.087129 157.115015 
L 136.529109 161.502061 
L 136.971089 161.502061 
L 137.413069 162.927748 
L 139.18099 164.919423 
L 140.506931 168.9739 
L 140.948911 169.5501 
L 141.390891 170.431782 
L 141.832871 170.431782 
L 142.274851 171.641413 
L 142.716832 172.261563 
L 143.158812 173.859547 
L 143.600792 174.187692 
L 144.042772 174.852947 
L 144.926733 176.924519 
L 145.368713 176.924519 
L 145.810693 177.281478 
L 146.252673 177.281478 
L 146.694653 179.499612 
L 147.136634 181.056784 
L 148.020594 181.860948 
L 148.462574 182.683185 
L 148.904554 183.95226 
L 149.346535 188.047113 
L 149.788515 191.056041 
L 150.230495 192.658692 
L 151.114455 194.910972 
L 151.556436 202.64235 
L 151.998416 202.64235 
L 152.440396 203.366888 
L 152.882376 206.417655 
L 153.766337 208.044056 
L 154.208317 209.746131 
L 154.650297 209.746131 
L 155.092277 211.531265 
L 155.534257 214.383723 
L 155.976238 216.416913 
L 156.418218 216.416913 
L 156.860198 217.477509 
L 157.302178 217.477509 
L 157.744158 220.857264 
L 158.628119 223.297368 
L 159.070099 223.297368 
L 159.512079 224.58129 
L 159.954059 224.58129 
L 160.83802 227.292752 
L 161.28 227.292752 
L 161.72198 230.221355 
L 162.16396 230.221355 
L 163.047921 233.404928 
L 163.489901 236.892137 
L 163.931881 236.892137 
L 164.373861 238.768856 
L 164.815842 242.83838 
L 165.257822 242.83838 
L 166.583762 249.942161 
L 167.025743 252.653624 
L 167.467723 252.653624 
L 167.909703 258.765799 
L 168.351683 258.765799 
L 169.235644 266.107939 
L 169.677624 266.107939 
L 170.119604 270.417386 
L 171.445545 270.417386 
L 171.887525 275.303033 
L 174.097426 275.303033 
L 174.539406 280.943098 
L 178.075248 280.943098 
L 178.517228 287.61388 
L 182.93703 287.61388 
L 183.37901 295.778257 
L 194.428515 295.778257 
L 194.870495 306.30397 
L 225.809109 306.30397 
L 226.251089 321.139129 
L 311.111287 321.139129 
L 311.553267 346.5 
L 518.84198 346.5 
L 518.84198 346.5 
" style="fill:none;opacity:0.5;stroke:#2c5ebf;stroke-linecap:round;"/>
   </g>
   <g id="line2d_12">
    <path clip-path="url(#pb7b4d4a42c)" d="M 76.419802 40.306224 
L 76.861782 44.095188 
L 77.303762 45.155508 
L 77.745743 56.061182 
L 78.187723 56.786504 
L 78.629703 62.747636 
L 79.071683 62.920481 
L 79.513663 64.186406 
L 79.955644 71.349631 
L 80.397624 72.070601 
L 80.839604 74.495365 
L 81.281584 74.799181 
L 81.723564 78.463329 
L 82.165545 79.439718 
L 82.607525 81.161824 
L 83.049505 83.823455 
L 83.491485 83.907212 
L 83.933465 86.996888 
L 84.375446 89.15804 
L 84.817426 93.979215 
L 85.259406 94.274877 
L 85.701386 105.173559 
L 86.143366 105.374042 
L 86.585347 105.424335 
L 87.027327 105.6262 
L 87.469307 110.259689 
L 87.911287 117.474411 
L 89.237228 119.78448 
L 90.121188 122.250289 
L 90.563168 122.330089 
L 91.447129 122.812575 
L 91.889109 122.893611 
L 92.331089 124.894365 
L 92.773069 127.467673 
L 93.21505 127.559718 
L 93.65703 131.343038 
L 94.09901 131.961442 
L 94.54099 135.107236 
L 94.98297 136.492437 
L 95.42495 141.260626 
L 95.866931 143.899994 
L 96.308911 144.334708 
L 96.750891 151.563648 
L 97.192871 151.920607 
L 97.634851 161.971144 
L 98.076832 164.411248 
L 98.518812 177.641954 
L 98.960792 177.641954 
L 99.844752 185.715879 
L 100.286733 194.334771 
L 100.728713 194.334771 
L 101.170693 202.64235 
L 101.612673 204.106065 
L 102.054653 210.627812 
L 102.496634 214.383723 
L 102.938614 220.857264 
L 103.380594 224.58129 
L 104.264554 242.83838 
L 105.148515 247.41785 
L 106.032475 247.41785 
L 106.474455 249.942161 
L 106.916436 249.942161 
L 107.358416 252.653624 
L 108.242376 252.653624 
L 108.684356 255.582227 
L 110.010297 255.582227 
L 110.452277 258.765799 
L 112.220198 258.765799 
L 112.662178 262.253008 
L 114.430099 262.253008 
L 114.872079 266.107939 
L 117.52396 266.107939 
L 117.965941 270.417386 
L 118.407921 270.417386 
L 118.849901 275.303033 
L 122.827723 275.303033 
L 123.269703 280.943098 
L 129.899406 280.943098 
L 130.341386 287.61388 
L 138.29703 287.61388 
L 138.73901 295.778257 
L 151.114455 295.778257 
L 151.556436 306.30397 
L 172.329505 306.30397 
L 172.771485 321.139129 
L 216.969505 321.139129 
L 217.411485 346.5 
L 350.005545 346.5 
L 350.005545 346.5 
" style="fill:none;opacity:0.5;stroke:#ff1313;stroke-linecap:round;"/>
   </g>
   <g id="line2d_13">
    <path clip-path="url(#pb7b4d4a42c)" d="M 76.419802 29.644937 
L 76.861782 31.213142 
L 77.745743 40.810541 
L 78.187723 52.946227 
L 78.629703 54.740357 
L 79.071683 61.378407 
L 79.513663 61.818957 
L 80.397624 67.853409 
L 80.839604 68.179282 
L 81.281584 69.025498 
L 81.723564 70.140323 
L 82.165545 72.847358 
L 83.049505 73.937741 
L 83.491485 76.425583 
L 83.933465 77.913483 
L 84.817426 84.641255 
L 86.143366 86.996888 
L 86.585347 88.391771 
L 87.027327 89.190319 
L 87.469307 93.503802 
L 88.353267 94.052907 
L 88.795248 96.257212 
L 89.237228 99.192344 
L 89.679208 105.073728 
L 90.121188 105.173559 
L 90.563168 108.085505 
L 91.005149 108.74083 
L 91.447129 111.545662 
L 91.889109 111.605203 
L 92.331089 111.844341 
L 92.773069 113.879245 
L 93.21505 119.266542 
L 94.09901 122.974828 
L 94.54099 125.849266 
L 94.98297 126.649522 
L 96.308911 133.338287 
L 97.192871 149.324624 
L 97.634851 150.169651 
L 98.076832 153.384322 
L 98.518812 154.521865 
L 98.960792 156.500076 
L 99.402772 161.038915 
L 100.286733 164.919423 
L 100.728713 165.176182 
L 101.170693 166.755766 
L 101.612673 166.755766 
L 102.054653 167.571889 
L 102.496634 173.534318 
L 102.938614 176.571009 
L 103.380594 176.924519 
L 103.822574 178.006017 
L 104.264554 184.823444 
L 104.706535 193.767504 
L 105.148515 196.696107 
L 105.590495 197.936497 
L 106.032475 222.056978 
L 106.474455 252.653624 
L 106.916436 255.582227 
L 107.358416 255.582227 
L 108.242376 262.253008 
L 108.684356 266.107939 
L 109.126337 266.107939 
L 109.568317 270.417386 
L 110.452277 270.417386 
L 110.894257 275.303033 
L 115.314059 275.303033 
L 115.75604 280.943098 
L 118.407921 280.943098 
L 118.849901 287.61388 
L 124.595644 287.61388 
L 125.037624 295.778257 
L 132.993267 295.778257 
L 133.435248 306.30397 
L 155.976238 306.30397 
L 156.418218 321.139129 
L 201.942178 321.139129 
L 202.384158 346.5 
L 375.640396 346.5 
L 375.640396 346.5 
" style="fill:none;opacity:0.5;stroke:#ff1313;stroke-linecap:round;"/>
   </g>
   <g id="line2d_14">
    <path clip-path="url(#pb7b4d4a42c)" d="M 76.419802 34.690421 
L 76.861782 40.570337 
L 77.303762 42.044699 
L 77.745743 44.43572 
L 78.187723 48.406988 
L 79.071683 52.994227 
L 79.513663 54.451816 
L 79.955644 55.324355 
L 80.397624 61.167611 
L 81.281584 65.413305 
L 81.723564 66.963146 
L 82.165545 76.040323 
L 82.607525 81.058249 
L 83.049505 81.317739 
L 83.491485 81.789511 
L 83.933465 81.974633 
L 84.817426 87.61028 
L 85.259406 88.171266 
L 85.701386 90.639538 
L 86.143366 94.052907 
L 86.585347 95.828822 
L 87.027327 99.576362 
L 88.353267 102.106801 
L 88.795248 103.896533 
L 89.237228 109.576845 
L 89.679208 110.374746 
L 90.121188 115.367556 
L 91.005149 122.410062 
L 91.889109 137.566876 
L 92.773069 140.073884 
L 93.21505 140.728428 
L 93.65703 144.334708 
L 94.09901 145.36959 
L 94.54099 148.826821 
L 94.98297 151.034655 
L 95.42495 155.695912 
L 95.866931 157.322313 
L 96.308911 160.809522 
L 96.750891 162.44632 
L 97.192871 163.415595 
L 97.634851 165.95745 
L 98.076832 176.220882 
L 98.518812 190.025325 
L 98.960792 190.537054 
L 99.402772 193.767504 
L 99.844752 206.417655 
L 100.286733 213.407985 
L 100.728713 215.386196 
L 101.170693 249.942161 
L 102.054653 255.582227 
L 102.496634 266.107939 
L 102.938614 270.417386 
L 104.264554 270.417386 
L 104.706535 275.303033 
L 109.126337 275.303033 
L 109.568317 280.943098 
L 113.546139 280.943098 
L 113.988119 287.61388 
L 120.617822 287.61388 
L 121.059802 295.778257 
L 131.667327 295.778257 
L 132.109307 306.30397 
L 151.556436 306.30397 
L 151.998416 321.139129 
L 203.268119 321.139129 
L 203.710099 346.5 
L 327.022574 346.5 
L 327.022574 346.5 
" style="fill:none;opacity:0.5;stroke:#ff1313;stroke-linecap:round;"/>
   </g>
   <g id="line2d_15">
    <path clip-path="url(#pb7b4d4a42c)" d="M 76.419802 33.09474 
L 76.861782 35.716769 
L 77.303762 37.79663 
L 78.187723 52.600097 
L 78.629703 55.132895 
L 79.071683 55.298769 
L 79.513663 63.300455 
L 80.397624 64.927579 
L 80.839604 65.497706 
L 81.281584 68.453077 
L 81.723564 70.23638 
L 82.165545 71.349631 
L 83.049505 72.050381 
L 83.491485 72.703027 
L 83.933465 75.525463 
L 84.375446 76.562531 
L 84.817426 78.247187 
L 85.259406 78.777807 
L 85.701386 78.972683 
L 86.143366 79.340898 
L 86.585347 79.912792 
L 87.469307 82.751705 
L 87.911287 88.80484 
L 88.353267 92.324018 
L 88.795248 98.187576 
L 89.237228 100.356704 
L 89.679208 101.514086 
L 90.121188 105.12361 
L 90.563168 107.49493 
L 91.005149 107.977416 
L 91.447129 110.66398 
L 91.889109 112.327358 
L 92.331089 118.46717 
L 92.773069 119.859074 
L 93.21505 139.430845 
L 93.65703 147.531535 
L 94.09901 148.173446 
L 94.54099 159.906069 
L 94.98297 167.571889 
L 95.42495 168.689167 
L 95.866931 171.031599 
L 96.308911 174.852947 
L 96.750891 185.715879 
L 97.192871 186.170394 
L 97.634851 191.056041 
L 98.076832 201.234945 
L 98.518812 219.695643 
L 98.960792 231.778527 
L 99.844752 240.747068 
L 100.286733 245.056514 
L 101.170693 245.056514 
L 101.612673 247.41785 
L 102.054653 247.41785 
L 102.496634 249.942161 
L 103.380594 249.942161 
L 103.822574 252.653624 
L 104.706535 252.653624 
L 105.148515 255.582227 
L 105.590495 255.582227 
L 106.032475 258.765799 
L 106.916436 258.765799 
L 107.358416 262.253008 
L 109.568317 262.253008 
L 110.010297 266.107939 
L 113.104158 266.107939 
L 113.546139 270.417386 
L 114.430099 270.417386 
L 114.872079 275.303033 
L 118.849901 275.303033 
L 119.291881 280.943098 
L 125.921584 280.943098 
L 126.363564 287.61388 
L 138.73901 287.61388 
L 139.18099 295.778257 
L 161.28 295.778257 
L 161.72198 306.30397 
L 186.472871 306.30397 
L 186.914851 321.139129 
L 232.438812 321.139129 
L 232.880792 346.5 
L 367.684752 346.5 
L 367.684752 346.5 
" style="fill:none;opacity:0.5;stroke:#ff1313;stroke-linecap:round;"/>
   </g>
   <g id="line2d_16">
    <path clip-path="url(#pb7b4d4a42c)" d="M 76.419802 35.211073 
L 76.861782 35.881884 
L 77.303762 44.981463 
L 77.745743 45.020068 
L 78.187723 50.175708 
L 79.071683 54.639737 
L 79.513663 64.894318 
L 79.955644 66.647882 
L 80.397624 69.081371 
L 80.839604 69.212076 
L 81.281584 70.662051 
L 81.723564 72.971526 
L 82.165545 73.096116 
L 82.607525 76.493993 
L 83.049505 76.631198 
L 83.491485 80.468314 
L 83.933465 80.74927 
L 84.375446 84.442175 
L 84.817426 91.592582 
L 85.259406 93.106298 
L 85.701386 93.795632 
L 86.585347 97.899642 
L 87.469307 106.341631 
L 87.911287 108.302645 
L 88.795248 108.74083 
L 89.237228 108.851201 
L 89.679208 113.815889 
L 90.121188 116.236353 
L 90.563168 116.576077 
L 91.447129 124.131204 
L 91.889109 124.980152 
L 92.773069 131.24098 
L 93.21505 131.961442 
L 93.65703 137.32537 
L 94.54099 138.177708 
L 94.98297 139.686706 
L 95.866931 155.300362 
L 96.308911 155.695912 
L 96.750891 155.895302 
L 97.192871 156.297372 
L 98.076832 162.20796 
L 98.518812 163.66198 
L 99.402772 172.261563 
L 99.844752 183.101338 
L 100.728713 185.715879 
L 101.170693 189.520655 
L 102.054653 205.630786 
L 102.496634 207.221819 
L 102.938614 220.857264 
L 103.380594 228.72776 
L 103.822574 249.942161 
L 104.264554 249.942161 
L 105.148515 255.582227 
L 105.590495 262.253008 
L 106.032475 262.253008 
L 106.474455 266.107939 
L 107.358416 266.107939 
L 107.800396 270.417386 
L 108.684356 270.417386 
L 109.126337 275.303033 
L 110.010297 275.303033 
L 110.452277 280.943098 
L 111.778218 280.943098 
L 112.220198 287.61388 
L 115.314059 287.61388 
L 115.75604 295.778257 
L 124.153663 295.778257 
L 124.595644 306.30397 
L 138.73901 306.30397 
L 139.18099 321.139129 
L 173.655446 321.139129 
L 174.097426 346.5 
L 314.647129 346.5 
L 314.647129 346.5 
" style="fill:none;opacity:0.5;stroke:#ff1313;stroke-linecap:round;"/>
   </g>
   <g id="line2d_17">
    <path clip-path="url(#pb7b4d4a42c)" d="M 76.456976 -1 
L 76.861782 15.531526 
L 77.303762 23.215998 
L 77.745743 32.962541 
L 78.187723 39.875822 
L 78.629703 44.388234 
L 79.071683 51.54629 
L 79.513663 53.587395 
L 79.955644 58.08803 
L 80.397624 69.663786 
L 80.839604 71.688319 
L 81.281584 75.927779 
L 81.723564 76.791924 
L 82.165545 99.921128 
L 82.607525 106.861355 
L 83.049505 110.722103 
L 83.491485 111.904371 
L 83.933465 117.195644 
L 84.375446 118.109513 
L 84.817426 131.961442 
L 85.701386 133.230517 
L 86.143366 159.024388 
L 86.585347 223.297368 
L 87.027327 224.58129 
L 87.469307 230.221355 
L 87.911287 231.778527 
L 88.795248 238.768856 
L 89.679208 242.83838 
L 90.563168 242.83838 
L 91.005149 245.056514 
L 91.447129 245.056514 
L 91.889109 247.41785 
L 92.331089 247.41785 
L 92.773069 249.942161 
L 93.21505 249.942161 
L 93.65703 252.653624 
L 94.09901 252.653624 
L 94.54099 255.582227 
L 96.308911 255.582227 
L 96.750891 258.765799 
L 97.634851 258.765799 
L 98.076832 262.253008 
L 98.960792 262.253008 
L 99.402772 266.107939 
L 99.844752 266.107939 
L 100.286733 270.417386 
L 101.612673 270.417386 
L 102.054653 275.303033 
L 104.264554 275.303033 
L 104.706535 280.943098 
L 106.474455 280.943098 
L 106.916436 287.61388 
L 113.988119 287.61388 
L 114.430099 295.778257 
L 122.827723 295.778257 
L 123.269703 306.30397 
L 135.203168 306.30397 
L 135.645149 321.139129 
L 160.39604 321.139129 
L 160.83802 346.5 
L 240.836436 346.5 
L 240.836436 346.5 
" style="fill:none;opacity:0.5;stroke:#ff1313;stroke-linecap:round;"/>
   </g>
   <g id="line2d_18">
    <path clip-path="url(#pb7b4d4a42c)" d="M 76.419802 39.6 
L 76.861782 49.998257 
L 77.303762 55.723244 
L 77.745743 59.42325 
L 78.187723 59.869714 
L 78.629703 61.834243 
L 79.071683 62.716297 
L 79.513663 66.456549 
L 80.397624 75.237629 
L 80.839604 77.301708 
L 81.281584 77.301708 
L 81.723564 77.582795 
L 82.165545 78.511535 
L 82.607525 80.595754 
L 83.049505 83.573327 
L 83.491485 83.573327 
L 83.933465 85.129294 
L 84.375446 85.158206 
L 84.817426 85.711918 
L 85.259406 87.517613 
L 85.701386 87.765249 
L 86.143366 90.505393 
L 87.027327 90.977068 
L 87.469307 91.904266 
L 88.353267 92.606552 
L 89.679208 93.576541 
L 90.563168 95.712853 
L 91.447129 102.990725 
L 91.889109 104.138678 
L 92.331089 104.529475 
L 92.773069 105.727552 
L 93.21505 105.829185 
L 93.65703 106.444987 
L 94.54099 106.861355 
L 94.98297 107.708583 
L 95.42495 109.859816 
L 95.866931 109.97362 
L 96.308911 111.190436 
L 96.750891 111.190436 
L 97.192871 113.188292 
L 98.076832 115.899755 
L 98.960792 116.850146 
L 99.402772 116.850146 
L 100.286733 117.057053 
L 100.728713 117.825884 
L 101.170693 117.896585 
L 101.612673 119.78448 
L 102.054653 120.689797 
L 102.496634 120.996616 
L 102.938614 121.150996 
L 104.264554 124.468423 
L 104.706535 125.152331 
L 105.148515 126.829759 
L 105.590495 126.920211 
L 106.032475 127.744506 
L 106.474455 127.930233 
L 106.916436 128.682712 
L 107.358416 128.682712 
L 107.800396 130.734913 
L 108.242376 131.037712 
L 108.684356 131.650934 
L 109.126337 131.961442 
L 109.568317 132.484884 
L 110.010297 134.212072 
L 110.452277 135.448651 
L 110.894257 135.793282 
L 111.336238 135.908884 
L 111.778218 138.177708 
L 112.220198 139.050377 
L 112.662178 139.430845 
L 113.104158 140.728428 
L 114.430099 141.936949 
L 114.872079 142.073726 
L 115.314059 142.626009 
L 115.75604 143.899994 
L 116.19802 144.044326 
L 116.64 144.480768 
L 117.08198 145.519848 
L 117.52396 147.531535 
L 119.291881 158.591389 
L 119.733861 158.591389 
L 120.175842 161.038915 
L 121.059802 162.44632 
L 121.943762 166.221625 
L 122.385743 166.755766 
L 122.827723 168.126263 
L 123.269703 170.431782 
L 123.711683 171.335235 
L 124.153663 171.641413 
L 124.595644 174.187692 
L 125.037624 175.530522 
L 125.479604 175.874074 
L 126.363564 177.281478 
L 126.805545 178.373739 
L 127.247525 179.882736 
L 127.689505 181.860948 
L 128.131485 182.683185 
L 128.573465 189.520655 
L 129.015446 191.056041 
L 129.457426 191.056041 
L 129.899406 191.582496 
L 130.341386 195.496393 
L 130.783366 200.551038 
L 131.225347 201.234945 
L 132.109307 204.106065 
L 132.551287 207.221819 
L 133.435248 208.885197 
L 133.877228 213.407985 
L 134.319208 214.383723 
L 134.761188 220.857264 
L 135.203168 222.056978 
L 135.645149 228.72776 
L 136.087129 230.221355 
L 136.529109 230.221355 
L 136.971089 231.778527 
L 137.413069 240.747068 
L 137.85505 255.582227 
L 138.29703 262.253008 
L 138.73901 262.253008 
L 139.18099 266.107939 
L 141.390891 266.107939 
L 141.832871 275.303033 
L 142.716832 275.303033 
L 143.158812 280.943098 
L 144.484752 280.943098 
L 144.926733 287.61388 
L 151.998416 287.61388 
L 152.440396 295.778257 
L 162.16396 295.778257 
L 162.605941 306.30397 
L 180.727129 306.30397 
L 181.169109 321.139129 
L 243.488317 321.139129 
L 243.930297 346.5 
L 481.715644 346.5 
L 481.715644 346.5 
" style="fill:none;opacity:0.5;stroke:#f7b02a;stroke-linecap:round;"/>
   </g>
   <g id="line2d_19">
    <path clip-path="url(#pb7b4d4a42c)" d="M 76.532624 -1 
L 76.861782 27.621349 
L 77.303762 31.706411 
L 77.745743 32.699565 
L 78.187723 37.883924 
L 78.629703 41.14776 
L 79.071683 41.383053 
L 79.513663 42.519583 
L 79.955644 47.745647 
L 80.397624 47.766459 
L 80.839604 51.350601 
L 81.281584 51.835983 
L 81.723564 53.066345 
L 82.165545 54.816004 
L 82.607525 56.100376 
L 83.049505 61.257803 
L 83.491485 76.334568 
L 83.933465 76.699994 
L 84.375446 88.868805 
L 84.817426 95.945159 
L 85.259406 108.851201 
L 85.701386 113.752642 
L 86.143366 143.899994 
L 86.585347 158.591389 
L 87.027327 196.696107 
L 88.353267 230.221355 
L 88.795248 233.404928 
L 89.237228 233.404928 
L 89.679208 242.83838 
L 90.121188 245.056514 
L 90.563168 249.942161 
L 91.005149 249.942161 
L 91.447129 252.653624 
L 91.889109 252.653624 
L 92.331089 255.582227 
L 93.21505 255.582227 
L 93.65703 258.765799 
L 94.09901 258.765799 
L 94.54099 262.253008 
L 95.866931 262.253008 
L 96.308911 266.107939 
L 98.076832 266.107939 
L 98.518812 270.417386 
L 101.612673 270.417386 
L 102.054653 275.303033 
L 106.474455 275.303033 
L 106.916436 280.943098 
L 111.778218 280.943098 
L 112.220198 287.61388 
L 114.872079 287.61388 
L 115.314059 295.778257 
L 121.943762 295.778257 
L 122.385743 306.30397 
L 138.73901 306.30397 
L 139.18099 321.139129 
L 169.677624 321.139129 
L 170.119604 346.5 
L 277.962772 346.5 
L 277.962772 346.5 
" style="fill:none;opacity:0.5;stroke:#f7b02a;stroke-linecap:round;"/>
   </g>
   <g id="line2d_20">
    <path clip-path="url(#pb7b4d4a42c)" d="M 76.419802 12.59463 
L 76.861782 43.294299 
L 77.303762 44.99111 
L 77.745743 50.320523 
L 78.629703 63.12581 
L 79.071683 64.861086 
L 79.513663 70.487314 
L 79.955644 77.724152 
L 80.397624 78.997116 
L 80.839604 79.439718 
L 81.281584 80.544725 
L 81.723564 82.267445 
L 82.165545 83.40752 
L 82.607525 83.435102 
L 83.049505 84.047235 
L 83.491485 90.875482 
L 83.933465 90.909312 
L 84.375446 91.215206 
L 84.817426 91.765411 
L 85.259406 91.939062 
L 86.143366 95.635745 
L 86.585347 95.674279 
L 87.469307 96.611483 
L 87.911287 96.730339 
L 88.353267 98.146304 
L 88.795248 99.149923 
L 89.237228 101.019949 
L 89.679208 101.24373 
L 90.121188 101.650016 
L 90.563168 101.832047 
L 91.447129 104.431384 
L 91.889109 104.87488 
L 92.331089 105.023915 
L 92.773069 106.290062 
L 93.21505 109.633264 
L 93.65703 109.97362 
L 94.09901 110.490165 
L 94.54099 112.206005 
L 94.98297 113.250569 
L 95.42495 115.104332 
L 95.866931 116.034023 
L 96.308911 117.684889 
L 96.750891 117.684889 
L 97.192871 118.109513 
L 97.634851 119.193146 
L 98.076832 119.933819 
L 98.960792 122.490211 
L 99.402772 122.812575 
L 99.844752 124.383827 
L 100.286733 124.723393 
L 100.728713 124.723393 
L 101.170693 124.980152 
L 102.054653 125.06614 
L 102.496634 125.06614 
L 103.380594 126.649522 
L 104.264554 127.651996 
L 104.706535 127.744506 
L 105.148515 130.136731 
L 106.032475 130.4346 
L 106.474455 131.037712 
L 106.916436 132.590477 
L 107.358416 132.696376 
L 107.800396 133.015924 
L 108.242376 135.908884 
L 108.684356 136.492437 
L 109.126337 136.610272 
L 110.010297 137.445924 
L 110.452277 137.566876 
L 110.894257 137.809987 
L 111.336238 139.303582 
L 111.778218 139.686706 
L 112.220198 140.728428 
L 112.662178 143.186755 
L 113.104158 144.044326 
L 113.988119 144.334708 
L 114.872079 144.92248 
L 115.75604 145.219945 
L 116.19802 145.670727 
L 116.64 146.900692 
L 117.08198 147.69096 
L 117.52396 148.992004 
L 117.965941 149.829295 
L 118.407921 149.999077 
L 118.849901 151.386466 
L 120.175842 153.012867 
L 120.617822 153.948673 
L 121.059802 153.948673 
L 121.501782 154.329801 
L 121.943762 154.521865 
L 123.269703 157.322313 
L 123.711683 157.322313 
L 124.153663 157.740466 
L 124.595644 159.462573 
L 125.037624 159.683649 
L 125.479604 160.355007 
L 125.921584 160.809522 
L 126.363564 161.971144 
L 126.805545 162.20796 
L 127.689505 163.66198 
L 128.131485 163.66198 
L 129.015446 164.159783 
L 129.457426 164.159783 
L 129.899406 164.919423 
L 130.341386 165.95745 
L 130.783366 165.95745 
L 131.225347 166.755766 
L 131.667327 167.025789 
L 132.109307 167.025789 
L 132.993267 167.571889 
L 133.877228 168.689167 
L 134.319208 169.84164 
L 135.203168 171.031599 
L 135.645149 171.950174 
L 136.971089 172.892406 
L 137.413069 175.530522 
L 137.85505 176.924519 
L 138.29703 178.745194 
L 138.73901 178.745194 
L 139.18099 179.120459 
L 139.62297 179.120459 
L 140.06495 180.269914 
L 140.506931 184.823444 
L 140.948911 185.715879 
L 141.390891 186.170394 
L 142.274851 186.170394 
L 142.716832 189.022851 
L 143.158812 190.025325 
L 143.600792 190.537054 
L 144.042772 192.658692 
L 145.368713 194.334771 
L 145.810693 195.496393 
L 147.578614 197.936497 
L 148.462574 200.551038 
L 148.904554 200.551038 
L 149.788515 204.860484 
L 150.230495 205.630786 
L 150.672475 205.630786 
L 151.114455 207.221819 
L 151.556436 208.044056 
L 151.998416 209.746131 
L 152.440396 213.407985 
L 152.882376 215.386196 
L 153.324356 218.569769 
L 154.208317 220.857264 
L 154.650297 220.857264 
L 155.092277 222.056978 
L 155.534257 224.58129 
L 155.976238 224.58129 
L 156.418218 225.911909 
L 156.860198 225.911909 
L 158.186139 230.221355 
L 158.628119 235.107002 
L 159.070099 235.107002 
L 159.512079 236.892137 
L 159.954059 236.892137 
L 160.39604 238.768856 
L 160.83802 245.056514 
L 161.28 245.056514 
L 161.72198 247.41785 
L 162.16396 247.41785 
L 162.605941 255.582227 
L 163.047921 255.582227 
L 163.489901 266.107939 
L 163.931881 266.107939 
L 164.373861 270.417386 
L 165.257822 270.417386 
L 165.699802 275.303033 
L 166.583762 275.303033 
L 167.025743 280.943098 
L 168.793663 280.943098 
L 169.235644 287.61388 
L 176.307327 287.61388 
L 176.749307 295.778257 
L 181.611089 295.778257 
L 182.053069 306.30397 
L 200.174257 306.30397 
L 200.616238 321.139129 
L 254.095842 321.139129 
L 254.537822 346.5 
L 509.118416 346.5 
L 509.118416 346.5 
" style="fill:none;opacity:0.5;stroke:#f7b02a;stroke-linecap:round;"/>
   </g>
   <g id="line2d_21">
    <path clip-path="url(#pb7b4d4a42c)" d="M 76.419802 19.241537 
L 76.861782 22.104962 
L 77.303762 25.835072 
L 78.187723 30.81147 
L 78.629703 36.757328 
L 79.071683 38.051156 
L 79.955644 44.426218 
L 80.397624 45.909522 
L 80.839604 48.017134 
L 81.281584 51.327647 
L 82.165545 55.555438 
L 82.607525 55.684451 
L 83.049505 59.725097 
L 83.491485 59.884207 
L 83.933465 63.046701 
L 84.375446 67.673615 
L 85.259406 70.063659 
L 86.143366 71.171587 
L 87.027327 71.588379 
L 87.469307 73.033768 
L 87.911287 73.514509 
L 88.795248 75.127523 
L 89.237228 77.535797 
L 89.679208 78.923867 
L 90.563168 80.240034 
L 91.005149 80.315969 
L 91.447129 81.161824 
L 91.889109 81.213722 
L 92.331089 81.526665 
L 92.773069 81.657852 
L 93.21505 81.921645 
L 94.09901 83.490329 
L 94.54099 84.612749 
L 94.98297 85.042695 
L 95.866931 87.983313 
L 96.308911 88.202685 
L 97.634851 90.943175 
L 98.076832 91.73078 
L 98.518812 92.008753 
L 98.960792 92.008753 
L 99.402772 92.500346 
L 99.844752 93.685922 
L 100.728713 93.722456 
L 101.170693 93.979215 
L 101.612673 95.252621 
L 102.054653 95.252621 
L 102.496634 95.367137 
L 102.938614 96.493011 
L 103.822574 96.809792 
L 104.264554 97.613956 
L 104.706535 98.728398 
L 105.590495 98.938554 
L 106.032475 98.98073 
L 106.474455 99.234814 
L 107.358416 99.362521 
L 108.684356 100.753207 
L 109.126337 100.797529 
L 109.568317 102.33735 
L 110.010297 102.662579 
L 110.894257 103.993199 
L 111.336238 104.041628 
L 111.778218 104.235987 
L 112.220198 104.974169 
L 112.662178 105.023915 
L 113.546139 105.880108 
L 113.988119 105.982167 
L 114.430099 106.756818 
L 115.314059 106.913736 
L 115.75604 107.335505 
L 116.19802 108.085505 
L 117.08198 110.317172 
L 117.52396 110.897026 
L 117.965941 111.964499 
L 118.407921 112.145479 
L 118.849901 112.693852 
L 119.291881 112.755293 
L 119.733861 113.12612 
L 120.175842 114.19768 
L 120.617822 114.325834 
L 121.059802 114.908149 
L 121.943762 115.367556 
L 122.385743 115.632688 
L 122.827723 116.034023 
L 123.269703 116.101342 
L 123.711683 116.507879 
L 124.153663 117.334762 
L 124.595644 117.614595 
L 125.037624 118.539123 
L 125.921584 118.755834 
L 126.805545 118.901025 
L 127.247525 119.119897 
L 127.689505 119.193146 
L 128.131485 119.635748 
L 128.573465 119.78448 
L 129.015446 121.228431 
L 129.457426 121.53982 
L 129.899406 123.880314 
L 131.667327 124.468423 
L 132.109307 124.553216 
L 132.551287 125.325324 
L 132.993267 126.739529 
L 133.435248 126.829759 
L 134.319208 127.467673 
L 134.761188 128.682712 
L 135.645149 129.160993 
L 136.529109 129.257404 
L 136.971089 129.35407 
L 137.413069 129.64561 
L 137.85505 130.136731 
L 138.73901 130.634535 
L 139.18099 132.696376 
L 139.62297 133.554785 
L 140.06495 133.881953 
L 140.506931 134.656917 
L 140.948911 137.93215 
L 141.390891 138.798912 
L 141.832871 140.073884 
L 142.274851 140.203859 
L 142.716832 142.487154 
L 143.158812 143.613028 
L 143.600792 143.75623 
L 144.042772 145.219945 
L 144.484752 151.034655 
L 145.368713 152.281083 
L 146.252673 152.645145 
L 146.694653 154.909043 
L 147.136634 156.095785 
L 147.578614 156.297372 
L 148.020594 157.322313 
L 148.462574 157.951349 
L 149.346535 158.807248 
L 149.788515 160.355007 
L 150.230495 163.170858 
L 151.556436 167.848026 
L 151.998416 167.848026 
L 152.440396 178.745194 
L 152.882376 179.120459 
L 153.324356 179.882736 
L 153.766337 179.882736 
L 154.208317 185.266941 
L 154.650297 187.568832 
L 155.092277 187.568832 
L 155.534257 188.53173 
L 156.418218 196.091333 
L 156.860198 206.417655 
L 157.302178 206.417655 
L 157.744158 220.857264 
L 158.186139 222.056978 
L 158.628119 227.292752 
L 160.39604 233.404928 
L 161.72198 238.768856 
L 162.16396 238.768856 
L 163.047921 242.83838 
L 164.815842 242.83838 
L 165.257822 245.056514 
L 166.583762 245.056514 
L 167.025743 247.41785 
L 169.677624 247.41785 
L 170.119604 249.942161 
L 171.887525 249.942161 
L 172.329505 252.653624 
L 175.865347 252.653624 
L 176.307327 255.582227 
L 178.517228 255.582227 
L 178.959208 258.765799 
L 186.030891 258.765799 
L 186.472871 262.253008 
L 191.776634 262.253008 
L 192.218614 266.107939 
L 201.942178 266.107939 
L 202.384158 270.417386 
L 213.433663 270.417386 
L 213.875644 275.303033 
L 228.90297 275.303033 
L 229.34495 280.943098 
L 250.56 280.943098 
L 251.00198 287.61388 
L 281.498614 287.61388 
L 281.940594 295.778257 
L 335.420198 295.778257 
L 335.862178 306.30397 
L 413.208713 306.30397 
L 413.650693 321.139129 
L 518.84198 321.139129 
L 518.84198 321.139129 
" style="fill:none;opacity:0.5;stroke:#f7b02a;stroke-linecap:round;"/>
   </g>
   <g id="line2d_22">
    <path clip-path="url(#pb7b4d4a42c)" d="M 76.419802 38.89898 
L 76.861782 43.193113 
L 77.303762 52.08111 
L 78.187723 56.574014 
L 79.071683 57.608135 
L 79.513663 59.552308 
L 79.955644 64.910945 
L 80.397624 65.379599 
L 80.839604 65.413305 
L 81.281584 75.370194 
L 81.723564 76.153214 
L 82.165545 77.51232 
L 82.607525 80.544725 
L 83.049505 81.579083 
L 83.491485 81.657852 
L 84.375446 82.347711 
L 84.817426 84.669784 
L 85.259406 86.065998 
L 85.701386 86.573551 
L 86.143366 87.271643 
L 86.585347 87.61028 
L 87.027327 88.42338 
L 87.469307 88.868805 
L 87.911287 92.008753 
L 88.353267 92.359216 
L 88.795248 93.942424 
L 89.237228 94.423609 
L 89.679208 95.751469 
L 90.121188 96.296406 
L 90.563168 97.330484 
L 91.005149 97.53274 
L 91.447129 99.065229 
L 92.773069 99.533494 
L 93.21505 100.753207 
L 93.65703 101.109297 
L 94.54099 102.429978 
L 94.98297 103.752011 
L 95.42495 104.284738 
L 95.866931 104.62783 
L 96.308911 105.12361 
L 96.750891 105.323818 
L 97.192871 106.238566 
L 97.634851 106.496774 
L 98.076832 106.548636 
L 98.518812 106.966192 
L 98.960792 107.124013 
L 99.402772 108.630791 
L 99.844752 112.878485 
L 100.286733 113.002093 
L 101.170693 116.034023 
L 101.612673 116.507879 
L 102.054653 118.46717 
L 102.496634 118.828357 
L 102.938614 118.973837 
L 103.822574 120.234338 
L 104.264554 120.91967 
L 104.706535 121.932821 
L 105.148515 122.250289 
L 105.590495 124.131204 
L 106.032475 125.412128 
L 106.474455 125.412128 
L 106.916436 125.849266 
L 107.358416 126.025594 
L 108.242376 127.010888 
L 108.684356 127.837252 
L 109.126337 128.116907 
L 109.568317 128.210602 
L 110.010297 129.64561 
L 110.452277 129.64561 
L 110.894257 131.037712 
L 111.336238 131.754144 
L 111.778218 133.991662 
L 112.220198 135.220688 
L 112.662178 136.024852 
L 113.546139 136.257897 
L 113.988119 137.32537 
L 114.430099 143.328295 
L 114.872079 143.470385 
L 115.314059 144.044326 
L 116.19802 146.280541 
L 116.64 146.434596 
L 117.52396 148.498675 
L 117.965941 151.034655 
L 118.407921 152.281083 
L 118.849901 154.138741 
L 120.175842 156.908885 
L 120.617822 156.908885 
L 121.059802 161.502061 
L 121.501782 167.29782 
L 121.943762 167.848026 
L 122.385743 169.84164 
L 122.827723 174.518808 
L 123.269703 175.190166 
L 123.711683 184.823444 
L 124.153663 188.53173 
L 124.595644 190.537054 
L 125.037624 195.496393 
L 125.921584 213.407985 
L 126.363564 223.297368 
L 127.247525 252.653624 
L 128.131485 258.765799 
L 128.573465 262.253008 
L 129.015446 262.253008 
L 129.899406 270.417386 
L 130.783366 270.417386 
L 131.225347 275.303033 
L 131.667327 275.303033 
L 132.109307 280.943098 
L 134.319208 280.943098 
L 134.761188 287.61388 
L 139.18099 287.61388 
L 139.62297 295.778257 
L 147.578614 295.778257 
L 148.020594 306.30397 
L 167.909703 306.30397 
L 168.351683 321.139129 
L 235.090693 321.139129 
L 235.532673 346.5 
L 485.693465 346.5 
L 485.693465 346.5 
" style="fill:none;opacity:0.5;stroke:#f7b02a;stroke-linecap:round;"/>
   </g>
   <g id="line2d_23">
    <path clip-path="url(#pb7b4d4a42c)" d="M 76.419802 51.385058 
L 76.861782 60.483425 
L 77.745743 62.43545 
L 78.187723 69.872698 
L 78.629703 75.325952 
L 79.071683 76.175834 
L 79.513663 77.441981 
L 79.955644 79.365578 
L 80.397624 80.265329 
L 80.839604 82.56262 
L 81.281584 91.147008 
L 81.723564 93.178251 
L 82.165545 96.296406 
L 82.607525 96.889418 
L 83.049505 97.858693 
L 83.491485 101.468887 
L 83.933465 101.514086 
L 84.375446 103.32184 
L 84.817426 103.65598 
L 85.259406 104.333555 
L 85.701386 107.229606 
L 86.143366 107.6016 
L 86.585347 107.655053 
L 87.027327 111.724577 
L 87.469307 113.94271 
L 87.911287 114.973427 
L 88.353267 115.367556 
L 88.795248 117.825884 
L 89.237228 118.252157 
L 89.679208 122.091211 
L 90.121188 124.723393 
L 90.563168 126.025594 
L 91.005149 126.202776 
L 91.447129 127.010888 
L 91.889109 127.559718 
L 92.331089 128.777869 
L 92.773069 129.64561 
L 93.21505 130.136731 
L 93.65703 130.235751 
L 94.09901 131.548014 
L 94.54099 131.754144 
L 94.98297 132.696376 
L 95.42495 133.991662 
L 95.866931 136.257897 
L 96.308911 137.93215 
L 97.634851 140.203859 
L 98.076832 140.334298 
L 98.518812 142.765392 
L 98.960792 143.186755 
L 99.402772 144.480768 
L 99.844752 144.627414 
L 100.286733 144.627414 
L 100.728713 146.589303 
L 101.170693 147.057386 
L 101.612673 148.335699 
L 102.054653 148.498675 
L 102.938614 150.860011 
L 103.822574 155.695912 
L 104.264554 156.70391 
L 104.706535 157.115015 
L 105.148515 157.322313 
L 105.590495 158.376796 
L 106.032475 158.376796 
L 106.474455 159.024388 
L 106.916436 159.462573 
L 107.358416 159.462573 
L 107.800396 160.809522 
L 108.242376 161.038915 
L 108.684356 162.20796 
L 109.126337 162.686242 
L 110.010297 163.170858 
L 110.452277 164.159783 
L 110.894257 164.159783 
L 111.336238 164.411248 
L 112.220198 165.95745 
L 112.662178 167.571889 
L 113.104158 168.126263 
L 113.988119 168.689167 
L 114.430099 169.84164 
L 114.872079 170.135521 
L 115.314059 170.135521 
L 115.75604 170.431782 
L 116.19802 170.431782 
L 116.64 170.730461 
L 117.08198 170.730461 
L 117.52396 171.950174 
L 117.965941 172.261563 
L 118.407921 172.892406 
L 118.849901 172.892406 
L 119.291881 173.534318 
L 119.733861 173.859547 
L 120.175842 175.190166 
L 120.617822 175.530522 
L 121.059802 176.924519 
L 122.827723 179.882736 
L 123.711683 180.661234 
L 124.153663 180.661234 
L 124.595644 181.056784 
L 125.037624 182.269757 
L 126.363564 183.524325 
L 126.805545 185.266941 
L 127.247525 189.520655 
L 127.689505 189.520655 
L 128.131485 190.025325 
L 129.015446 190.025325 
L 130.341386 191.582496 
L 130.783366 195.496393 
L 131.225347 195.496393 
L 131.667327 196.696107 
L 132.109307 196.696107 
L 132.551287 199.220418 
L 132.993267 205.630786 
L 133.435248 207.221819 
L 133.877228 208.044056 
L 134.319208 208.044056 
L 134.761188 208.885197 
L 135.203168 210.627812 
L 135.645149 210.627812 
L 136.087129 211.531265 
L 136.529109 214.383723 
L 136.971089 214.383723 
L 137.413069 215.386196 
L 138.73901 222.056978 
L 139.18099 235.107002 
L 139.62297 236.892137 
L 140.06495 236.892137 
L 140.948911 240.747068 
L 141.832871 252.653624 
L 142.274851 255.582227 
L 142.716832 266.107939 
L 143.158812 270.417386 
L 144.484752 270.417386 
L 145.368713 280.943098 
L 146.252673 280.943098 
L 146.694653 287.61388 
L 149.788515 287.61388 
L 150.230495 295.778257 
L 159.954059 295.778257 
L 160.39604 306.30397 
L 176.307327 306.30397 
L 176.749307 321.139129 
L 211.665743 321.139129 
L 212.107723 346.5 
L 407.02099 346.5 
L 407.02099 346.5 
" style="fill:none;opacity:0.5;stroke:#f7b02a;stroke-linecap:round;"/>
   </g>
   <g id="line2d_24">
    <path clip-path="url(#pb7b4d4a42c)" d="M 133.435248 346.5 
L 133.435248 39.6 
" style="fill:none;stroke:#2c5ebf;stroke-linecap:round;stroke-width:2.0;"/>
   </g>
   <g id="line2d_25">
    <path clip-path="url(#pb7b4d4a42c)" d="M 91.152475 346.5 
L 91.152475 39.6 
" style="fill:none;stroke:#ff1313;stroke-linecap:round;stroke-width:2.0;"/>
   </g>
   <g id="line2d_26">
    <path clip-path="url(#pb7b4d4a42c)" d="M 111.630891 346.5 
L 111.630891 39.6 
" style="fill:none;stroke:#f7b02a;stroke-linecap:round;stroke-width:2.0;"/>
   </g>
   <g id="patch_3">
    <path d="M 72 39.6 
L 518.4 39.6 
" style="fill:none;stroke:#262626;stroke-linecap:square;stroke-linejoin:miter;stroke-width:1.25;"/>
   </g>
   <g id="patch_4">
    <path d="M 518.4 346.5 
L 518.4 39.6 
" style="fill:none;stroke:#262626;stroke-linecap:square;stroke-linejoin:miter;stroke-width:1.25;"/>
   </g>
   <g id="patch_5">
    <path d="M 72 346.5 
L 518.4 346.5 
" style="fill:none;stroke:#262626;stroke-linecap:square;stroke-linejoin:miter;stroke-width:1.25;"/>
   </g>
   <g id="patch_6">
    <path d="M 72 346.5 
L 72 39.6 
" style="fill:none;stroke:#262626;stroke-linecap:square;stroke-linejoin:miter;stroke-width:1.25;"/>
   </g>
   <g id="text_13">
    <!-- B6 4wks BCG -->
    <defs>
     <path d="M 58.796875 25.09375 
L 68.265625 22.703125 
Q 65.28125 11.03125 57.546875 4.90625 
Q 49.8125 -1.21875 38.625 -1.21875 
Q 27.046875 -1.21875 19.796875 3.484375 
Q 12.546875 8.203125 8.765625 17.140625 
Q 4.984375 26.078125 4.984375 36.328125 
Q 4.984375 47.515625 9.25 55.828125 
Q 13.53125 64.15625 21.40625 68.46875 
Q 29.296875 72.796875 38.765625 72.796875 
Q 49.515625 72.796875 56.828125 67.328125 
Q 64.15625 61.859375 67.046875 51.953125 
L 57.71875 49.75 
Q 55.21875 57.5625 50.484375 61.125 
Q 45.75 64.703125 38.578125 64.703125 
Q 30.328125 64.703125 24.78125 60.734375 
Q 19.234375 56.78125 16.984375 50.109375 
Q 14.75 43.453125 14.75 36.375 
Q 14.75 27.25 17.40625 20.4375 
Q 20.0625 13.625 25.671875 10.25 
Q 31.296875 6.890625 37.84375 6.890625 
Q 45.796875 6.890625 51.3125 11.46875 
Q 56.84375 16.0625 58.796875 25.09375 
" id="ArialMT-43"/>
     <path d="M 7.328125 0 
L 7.328125 71.578125 
L 34.1875 71.578125 
Q 42.390625 71.578125 47.34375 69.40625 
Q 52.296875 67.234375 55.09375 62.71875 
Q 57.90625 58.203125 57.90625 53.265625 
Q 57.90625 48.6875 55.421875 44.625 
Q 52.9375 40.578125 47.90625 38.09375 
Q 54.390625 36.1875 57.875 31.59375 
Q 61.375 27 61.375 20.75 
Q 61.375 15.71875 59.25 11.390625 
Q 57.125 7.078125 54 4.734375 
Q 50.875 2.390625 46.15625 1.1875 
Q 41.453125 0 34.625 0 
z
M 16.796875 41.5 
L 32.28125 41.5 
Q 38.578125 41.5 41.3125 42.328125 
Q 44.921875 43.40625 46.75 45.890625 
Q 48.578125 48.390625 48.578125 52.15625 
Q 48.578125 55.71875 46.875 58.421875 
Q 45.171875 61.140625 41.984375 62.140625 
Q 38.8125 63.140625 31.109375 63.140625 
L 16.796875 63.140625 
z
M 16.796875 8.453125 
L 34.625 8.453125 
Q 39.203125 8.453125 41.0625 8.796875 
Q 44.34375 9.375 46.53125 10.734375 
Q 48.734375 12.109375 50.140625 14.71875 
Q 51.5625 17.328125 51.5625 20.75 
Q 51.5625 24.75 49.515625 27.703125 
Q 47.46875 30.671875 43.828125 31.859375 
Q 40.1875 33.0625 33.34375 33.0625 
L 16.796875 33.0625 
z
" id="ArialMT-42"/>
     <path d="M 41.21875 28.078125 
L 41.21875 36.46875 
L 71.53125 36.53125 
L 71.53125 9.96875 
Q 64.546875 4.390625 57.125 1.578125 
Q 49.703125 -1.21875 41.890625 -1.21875 
Q 31.34375 -1.21875 22.71875 3.296875 
Q 14.109375 7.8125 9.71875 16.359375 
Q 5.328125 24.90625 5.328125 35.453125 
Q 5.328125 45.90625 9.6875 54.953125 
Q 14.0625 64.015625 22.265625 68.40625 
Q 30.46875 72.796875 41.15625 72.796875 
Q 48.921875 72.796875 55.1875 70.28125 
Q 61.46875 67.78125 65.03125 63.28125 
Q 68.609375 58.796875 70.453125 51.5625 
L 61.921875 49.21875 
Q 60.296875 54.6875 57.90625 57.8125 
Q 55.515625 60.9375 51.0625 62.8125 
Q 46.625 64.703125 41.21875 64.703125 
Q 34.71875 64.703125 29.984375 62.71875 
Q 25.25 60.75 22.34375 57.515625 
Q 19.4375 54.296875 17.828125 50.4375 
Q 15.09375 43.796875 15.09375 36.03125 
Q 15.09375 26.46875 18.390625 20.015625 
Q 21.6875 13.578125 27.984375 10.453125 
Q 34.28125 7.328125 41.359375 7.328125 
Q 47.515625 7.328125 53.375 9.6875 
Q 59.234375 12.0625 62.25 14.75 
L 62.25 28.078125 
z
" id="ArialMT-47"/>
     <path d="M 16.15625 0 
L 0.296875 51.859375 
L 9.375 51.859375 
L 17.625 21.921875 
L 20.703125 10.796875 
Q 20.90625 11.625 23.390625 21.484375 
L 31.640625 51.859375 
L 40.671875 51.859375 
L 48.4375 21.78125 
L 51.03125 11.859375 
L 54 21.875 
L 62.890625 51.859375 
L 71.4375 51.859375 
L 55.21875 0 
L 46.09375 0 
L 37.84375 31.0625 
L 35.84375 39.890625 
L 25.34375 0 
z
" id="ArialMT-77"/>
    </defs>
    <g style="fill:#262626;" transform="translate(257.855625 34.6)scale(0.12 -0.12)">
     <use xlink:href="#ArialMT-42"/>
     <use x="66.69921875" xlink:href="#ArialMT-36"/>
     <use x="122.314453125" xlink:href="#ArialMT-20"/>
     <use x="150.09765625" xlink:href="#ArialMT-34"/>
     <use x="205.712890625" xlink:href="#ArialMT-77"/>
     <use x="277.9296875" xlink:href="#ArialMT-6b"/>
     <use x="327.9296875" xlink:href="#ArialMT-73"/>
     <use x="377.9296875" xlink:href="#ArialMT-20"/>
     <use x="405.712890625" xlink:href="#ArialMT-42"/>
     <use x="472.412109375" xlink:href="#ArialMT-43"/>
     <use x="544.62890625" xlink:href="#ArialMT-47"/>
    </g>
   </g>
   <g id="legend_1">
    <g id="line2d_27">
     <path d="M 340.50625 52.379687 
L 360.50625 52.379687 
" style="fill:none;stroke:#2c5ebf;stroke-linecap:round;stroke-width:2.0;"/>
    </g>
    <g id="line2d_28"/>
    <g id="text_14">
     <!-- Lung (n=1): 129 barcodes -->
     <defs>
      <path d="M 9.03125 41.84375 
L 9.03125 51.859375 
L 19.046875 51.859375 
L 19.046875 41.84375 
z
M 9.03125 0 
L 9.03125 10.015625 
L 19.046875 10.015625 
L 19.046875 0 
z
" id="ArialMT-3a"/>
      <path d="M 7.328125 0 
L 7.328125 71.578125 
L 16.796875 71.578125 
L 16.796875 8.453125 
L 52.046875 8.453125 
L 52.046875 0 
z
" id="ArialMT-4c"/>
      <path d="M 52.828125 42.09375 
L 5.5625 42.09375 
L 5.5625 50.296875 
L 52.828125 50.296875 
z
M 52.828125 20.359375 
L 5.5625 20.359375 
L 5.5625 28.5625 
L 52.828125 28.5625 
z
" id="ArialMT-3d"/>
      <path d="M 5.46875 16.546875 
L 13.921875 17.328125 
Q 14.984375 11.375 18.015625 8.6875 
Q 21.046875 6 25.78125 6 
Q 29.828125 6 32.875 7.859375 
Q 35.9375 9.71875 37.890625 12.8125 
Q 39.84375 15.921875 41.15625 21.1875 
Q 42.484375 26.46875 42.484375 31.9375 
Q 42.484375 32.515625 42.4375 33.6875 
Q 39.796875 29.5 35.234375 26.875 
Q 30.671875 24.265625 25.34375 24.265625 
Q 16.453125 24.265625 10.296875 30.703125 
Q 4.15625 37.15625 4.15625 47.703125 
Q 4.15625 58.59375 10.578125 65.234375 
Q 17 71.875 26.65625 71.875 
Q 33.640625 71.875 39.421875 68.109375 
Q 45.21875 64.359375 48.21875 57.390625 
Q 51.21875 50.4375 51.21875 37.25 
Q 51.21875 23.53125 48.234375 15.40625 
Q 45.265625 7.28125 39.375 3.03125 
Q 33.5 -1.21875 25.59375 -1.21875 
Q 17.1875 -1.21875 11.859375 3.4375 
Q 6.546875 8.109375 5.46875 16.546875 
M 41.453125 48.140625 
Q 41.453125 55.71875 37.421875 60.15625 
Q 33.40625 64.59375 27.734375 64.59375 
Q 21.875 64.59375 17.53125 59.8125 
Q 13.1875 55.03125 13.1875 47.40625 
Q 13.1875 40.578125 17.3125 36.296875 
Q 21.4375 32.03125 27.484375 32.03125 
Q 33.59375 32.03125 37.515625 36.296875 
Q 41.453125 40.578125 41.453125 48.140625 
" id="ArialMT-39"/>
     </defs>
     <g style="fill:#262626;" transform="translate(368.50625 55.8796875)scale(0.1 -0.1)">
      <use xlink:href="#ArialMT-4c"/>
      <use x="55.615234375" xlink:href="#ArialMT-75"/>
      <use x="111.23046875" xlink:href="#ArialMT-6e"/>
      <use x="166.845703125" xlink:href="#ArialMT-67"/>
      <use x="222.4609375" xlink:href="#ArialMT-20"/>
      <use x="250.244140625" xlink:href="#ArialMT-28"/>
      <use x="283.544921875" xlink:href="#ArialMT-6e"/>
      <use x="339.16015625" xlink:href="#ArialMT-3d"/>
      <use x="397.55859375" xlink:href="#ArialMT-31"/>
      <use x="453.173828125" xlink:href="#ArialMT-29"/>
      <use x="486.474609375" xlink:href="#ArialMT-3a"/>
      <use x="514.2578125" xlink:href="#ArialMT-20"/>
      <use x="542.041015625" xlink:href="#ArialMT-31"/>
      <use x="597.65625" xlink:href="#ArialMT-32"/>
      <use x="653.271484375" xlink:href="#ArialMT-39"/>
      <use x="708.88671875" xlink:href="#ArialMT-20"/>
      <use x="736.669921875" xlink:href="#ArialMT-62"/>
      <use x="792.28515625" xlink:href="#ArialMT-61"/>
      <use x="847.900390625" xlink:href="#ArialMT-72"/>
      <use x="881.201171875" xlink:href="#ArialMT-63"/>
      <use x="931.201171875" xlink:href="#ArialMT-6f"/>
      <use x="986.81640625" xlink:href="#ArialMT-64"/>
      <use x="1042.43164062" xlink:href="#ArialMT-65"/>
      <use x="1098.046875" xlink:href="#ArialMT-73"/>
     </g>
    </g>
    <g id="line2d_29">
     <path d="M 340.50625 66.764062 
L 360.50625 66.764062 
" style="fill:none;stroke:#ff1313;stroke-linecap:round;stroke-width:2.0;"/>
    </g>
    <g id="line2d_30"/>
    <g id="text_15">
     <!-- Spleen (n=6): 33 barcodes -->
     <defs>
      <path d="M 4.5 23 
L 13.421875 23.78125 
Q 14.0625 18.40625 16.375 14.96875 
Q 18.703125 11.53125 23.578125 9.40625 
Q 28.46875 7.28125 34.578125 7.28125 
Q 39.984375 7.28125 44.140625 8.890625 
Q 48.296875 10.5 50.3125 13.296875 
Q 52.34375 16.109375 52.34375 19.4375 
Q 52.34375 22.796875 50.390625 25.3125 
Q 48.4375 27.828125 43.953125 29.546875 
Q 41.0625 30.671875 31.203125 33.03125 
Q 21.34375 35.40625 17.390625 37.5 
Q 12.25 40.1875 9.734375 44.15625 
Q 7.234375 48.140625 7.234375 53.078125 
Q 7.234375 58.5 10.296875 63.203125 
Q 13.375 67.921875 19.28125 70.359375 
Q 25.203125 72.796875 32.421875 72.796875 
Q 40.375 72.796875 46.453125 70.234375 
Q 52.546875 67.671875 55.8125 62.6875 
Q 59.078125 57.71875 59.328125 51.421875 
L 50.25 50.734375 
Q 49.515625 57.515625 45.28125 60.984375 
Q 41.0625 64.453125 32.8125 64.453125 
Q 24.21875 64.453125 20.28125 61.296875 
Q 16.359375 58.15625 16.359375 53.71875 
Q 16.359375 49.859375 19.140625 47.359375 
Q 21.875 44.875 33.421875 42.265625 
Q 44.96875 39.65625 49.265625 37.703125 
Q 55.515625 34.8125 58.484375 30.390625 
Q 61.46875 25.984375 61.46875 20.21875 
Q 61.46875 14.5 58.203125 9.4375 
Q 54.9375 4.390625 48.796875 1.578125 
Q 42.671875 -1.21875 35.015625 -1.21875 
Q 25.296875 -1.21875 18.71875 1.609375 
Q 12.15625 4.4375 8.421875 10.125 
Q 4.6875 15.828125 4.5 23 
" id="ArialMT-53"/>
      <path d="M 4.203125 18.890625 
L 12.984375 20.0625 
Q 14.5 12.59375 18.140625 9.296875 
Q 21.78125 6 27 6 
Q 33.203125 6 37.46875 10.296875 
Q 41.75 14.59375 41.75 20.953125 
Q 41.75 27 37.796875 30.921875 
Q 33.84375 34.859375 27.734375 34.859375 
Q 25.25 34.859375 21.53125 33.890625 
L 22.515625 41.609375 
Q 23.390625 41.5 23.921875 41.5 
Q 29.546875 41.5 34.03125 44.421875 
Q 38.53125 47.359375 38.53125 53.46875 
Q 38.53125 58.296875 35.25 61.46875 
Q 31.984375 64.65625 26.8125 64.65625 
Q 21.6875 64.65625 18.265625 61.421875 
Q 14.84375 58.203125 13.875 51.765625 
L 5.078125 53.328125 
Q 6.6875 62.15625 12.390625 67.015625 
Q 18.109375 71.875 26.609375 71.875 
Q 32.46875 71.875 37.390625 69.359375 
Q 42.328125 66.84375 44.9375 62.5 
Q 47.5625 58.15625 47.5625 53.265625 
Q 47.5625 48.640625 45.0625 44.828125 
Q 42.578125 41.015625 37.703125 38.765625 
Q 44.046875 37.3125 47.5625 32.6875 
Q 51.078125 28.078125 51.078125 21.140625 
Q 51.078125 11.765625 44.234375 5.25 
Q 37.40625 -1.265625 26.953125 -1.265625 
Q 17.53125 -1.265625 11.296875 4.34375 
Q 5.078125 9.96875 4.203125 18.890625 
" id="ArialMT-33"/>
      <path d="M 6.59375 -19.875 
L 6.59375 51.859375 
L 14.59375 51.859375 
L 14.59375 45.125 
Q 17.4375 49.078125 21 51.046875 
Q 24.5625 53.03125 29.640625 53.03125 
Q 36.28125 53.03125 41.359375 49.609375 
Q 46.4375 46.1875 49.015625 39.953125 
Q 51.609375 33.734375 51.609375 26.3125 
Q 51.609375 18.359375 48.75 11.984375 
Q 45.90625 5.609375 40.453125 2.21875 
Q 35.015625 -1.171875 29 -1.171875 
Q 24.609375 -1.171875 21.109375 0.6875 
Q 17.625 2.546875 15.375 5.375 
L 15.375 -19.875 
z
M 14.546875 25.640625 
Q 14.546875 15.625 18.59375 10.84375 
Q 22.65625 6.0625 28.421875 6.0625 
Q 34.28125 6.0625 38.453125 11.015625 
Q 42.625 15.96875 42.625 26.375 
Q 42.625 36.28125 38.546875 41.203125 
Q 34.46875 46.140625 28.8125 46.140625 
Q 23.1875 46.140625 18.859375 40.890625 
Q 14.546875 35.640625 14.546875 25.640625 
" id="ArialMT-70"/>
     </defs>
     <g style="fill:#262626;" transform="translate(368.50625 70.2640625)scale(0.1 -0.1)">
      <use xlink:href="#ArialMT-53"/>
      <use x="66.69921875" xlink:href="#ArialMT-70"/>
      <use x="122.314453125" xlink:href="#ArialMT-6c"/>
      <use x="144.53125" xlink:href="#ArialMT-65"/>
      <use x="200.146484375" xlink:href="#ArialMT-65"/>
      <use x="255.76171875" xlink:href="#ArialMT-6e"/>
      <use x="311.376953125" xlink:href="#ArialMT-20"/>
      <use x="339.16015625" xlink:href="#ArialMT-28"/>
      <use x="372.4609375" xlink:href="#ArialMT-6e"/>
      <use x="428.076171875" xlink:href="#ArialMT-3d"/>
      <use x="486.474609375" xlink:href="#ArialMT-36"/>
      <use x="542.08984375" xlink:href="#ArialMT-29"/>
      <use x="575.390625" xlink:href="#ArialMT-3a"/>
      <use x="603.173828125" xlink:href="#ArialMT-20"/>
      <use x="630.95703125" xlink:href="#ArialMT-33"/>
      <use x="686.572265625" xlink:href="#ArialMT-33"/>
      <use x="742.1875" xlink:href="#ArialMT-20"/>
      <use x="769.970703125" xlink:href="#ArialMT-62"/>
      <use x="825.5859375" xlink:href="#ArialMT-61"/>
      <use x="881.201171875" xlink:href="#ArialMT-72"/>
      <use x="914.501953125" xlink:href="#ArialMT-63"/>
      <use x="964.501953125" xlink:href="#ArialMT-6f"/>
      <use x="1020.1171875" xlink:href="#ArialMT-64"/>
      <use x="1075.73242188" xlink:href="#ArialMT-65"/>
      <use x="1131.34765625" xlink:href="#ArialMT-73"/>
     </g>
    </g>
    <g id="line2d_31">
     <path d="M 340.50625 81.148437 
L 360.50625 81.148437 
" style="fill:none;stroke:#f7b02a;stroke-linecap:round;stroke-width:2.0;"/>
    </g>
    <g id="line2d_32"/>
    <g id="text_16">
     <!-- Thoracic LN (n=6): 79 barcodes -->
     <defs>
      <path d="M 6.640625 61.46875 
L 6.640625 71.578125 
L 15.4375 71.578125 
L 15.4375 61.46875 
z
M 6.640625 0 
L 6.640625 51.859375 
L 15.4375 51.859375 
L 15.4375 0 
z
" id="ArialMT-69"/>
      <path d="M 6.59375 0 
L 6.59375 71.578125 
L 15.375 71.578125 
L 15.375 45.90625 
Q 21.53125 53.03125 30.90625 53.03125 
Q 36.671875 53.03125 40.921875 50.75 
Q 45.171875 48.484375 47 44.484375 
Q 48.828125 40.484375 48.828125 32.859375 
L 48.828125 0 
L 40.046875 0 
L 40.046875 32.859375 
Q 40.046875 39.453125 37.1875 42.453125 
Q 34.328125 45.453125 29.109375 45.453125 
Q 25.203125 45.453125 21.75 43.421875 
Q 18.3125 41.40625 16.84375 37.9375 
Q 15.375 34.46875 15.375 28.375 
L 15.375 0 
z
" id="ArialMT-68"/>
      <path d="M 7.625 0 
L 7.625 71.578125 
L 17.328125 71.578125 
L 54.9375 15.375 
L 54.9375 71.578125 
L 64.015625 71.578125 
L 64.015625 0 
L 54.296875 0 
L 16.703125 56.25 
L 16.703125 0 
z
" id="ArialMT-4e"/>
      <path d="M 25.921875 0 
L 25.921875 63.140625 
L 2.34375 63.140625 
L 2.34375 71.578125 
L 59.078125 71.578125 
L 59.078125 63.140625 
L 35.40625 63.140625 
L 35.40625 0 
z
" id="ArialMT-54"/>
      <path d="M 4.734375 62.203125 
L 4.734375 70.65625 
L 51.078125 70.65625 
L 51.078125 63.8125 
Q 44.234375 56.546875 37.515625 44.484375 
Q 30.8125 32.421875 27.15625 19.671875 
Q 24.515625 10.6875 23.78125 0 
L 14.75 0 
Q 14.890625 8.453125 18.0625 20.40625 
Q 21.234375 32.375 27.171875 43.484375 
Q 33.109375 54.59375 39.796875 62.203125 
z
" id="ArialMT-37"/>
     </defs>
     <g style="fill:#262626;" transform="translate(368.50625 84.6484375)scale(0.1 -0.1)">
      <use xlink:href="#ArialMT-54"/>
      <use x="61.083984375" xlink:href="#ArialMT-68"/>
      <use x="116.69921875" xlink:href="#ArialMT-6f"/>
      <use x="172.314453125" xlink:href="#ArialMT-72"/>
      <use x="205.615234375" xlink:href="#ArialMT-61"/>
      <use x="261.23046875" xlink:href="#ArialMT-63"/>
      <use x="311.23046875" xlink:href="#ArialMT-69"/>
      <use x="333.447265625" xlink:href="#ArialMT-63"/>
      <use x="383.447265625" xlink:href="#ArialMT-20"/>
      <use x="411.23046875" xlink:href="#ArialMT-4c"/>
      <use x="466.845703125" xlink:href="#ArialMT-4e"/>
      <use x="539.0625" xlink:href="#ArialMT-20"/>
      <use x="566.845703125" xlink:href="#ArialMT-28"/>
      <use x="600.146484375" xlink:href="#ArialMT-6e"/>
      <use x="655.76171875" xlink:href="#ArialMT-3d"/>
      <use x="714.16015625" xlink:href="#ArialMT-36"/>
      <use x="769.775390625" xlink:href="#ArialMT-29"/>
      <use x="803.076171875" xlink:href="#ArialMT-3a"/>
      <use x="830.859375" xlink:href="#ArialMT-20"/>
      <use x="858.642578125" xlink:href="#ArialMT-37"/>
      <use x="914.2578125" xlink:href="#ArialMT-39"/>
      <use x="969.873046875" xlink:href="#ArialMT-20"/>
      <use x="997.65625" xlink:href="#ArialMT-62"/>
      <use x="1053.27148438" xlink:href="#ArialMT-61"/>
      <use x="1108.88671875" xlink:href="#ArialMT-72"/>
      <use x="1142.1875" xlink:href="#ArialMT-63"/>
      <use x="1192.1875" xlink:href="#ArialMT-6f"/>
      <use x="1247.80273438" xlink:href="#ArialMT-64"/>
      <use x="1303.41796875" xlink:href="#ArialMT-65"/>
      <use x="1359.03320312" xlink:href="#ArialMT-73"/>
     </g>
    </g>
   </g>
  </g>
 </g>
 <defs>
  <clipPath id="pb7b4d4a42c">
   <rect height="306.9" width="446.4" x="72.0" y="39.6"/>
  </clipPath>
 </defs>
</svg>
