<?xml version="1.0" encoding="utf-8" standalone="no"?>
<!DOCTYPE svg PUBLIC "-//W3C//DTD SVG 1.1//EN"
  "http://www.w3.org/Graphics/SVG/1.1/DTD/svg11.dtd">
<!-- Created with matplotlib (http://matplotlib.org/) -->
<svg height="396pt" version="1.1" viewBox="0 0 576 396" width="576pt" xmlns="http://www.w3.org/2000/svg" xmlns:xlink="http://www.w3.org/1999/xlink">
 <defs>
  <style type="text/css">
*{stroke-linecap:butt;stroke-linejoin:round;stroke-miterlimit:100000;}
  </style>
 </defs>
 <g id="figure_1">
  <g id="patch_1">
   <path d="M 0 396 
L 576 396 
L 576 0 
L 0 0 
z
" style="fill:#ffffff;"/>
  </g>
  <g id="axes_1">
   <g id="patch_2">
    <path d="M 72 346.5 
L 518.4 346.5 
L 518.4 39.6 
L 72 39.6 
z
" style="fill:#ffffff;"/>
   </g>
   <g id="matplotlib.axis_1">
    <g id="xtick_1">
     <g id="line2d_1">
      <defs>
       <path d="M 0 0 
L 0 5 
" id="m1c13a359f7" style="stroke:#262626;"/>
      </defs>
      <g>
       <use style="fill:#262626;stroke:#262626;" x="74.4487109161" xlink:href="#m1c13a359f7" y="346.5"/>
      </g>
     </g>
     <g id="text_1">
      <!-- 0 -->
      <defs>
       <path d="M 4.15625 35.296875 
Q 4.15625 48 6.765625 55.734375 
Q 9.375 63.484375 14.515625 67.671875 
Q 19.671875 71.875 27.484375 71.875 
Q 33.25 71.875 37.59375 69.546875 
Q 41.9375 67.234375 44.765625 62.859375 
Q 47.609375 58.5 49.21875 52.21875 
Q 50.828125 45.953125 50.828125 35.296875 
Q 50.828125 22.703125 48.234375 14.96875 
Q 45.65625 7.234375 40.5 3 
Q 35.359375 -1.21875 27.484375 -1.21875 
Q 17.140625 -1.21875 11.234375 6.203125 
Q 4.15625 15.140625 4.15625 35.296875 
M 13.1875 35.296875 
Q 13.1875 17.671875 17.3125 11.828125 
Q 21.4375 6 27.484375 6 
Q 33.546875 6 37.671875 11.859375 
Q 41.796875 17.71875 41.796875 35.296875 
Q 41.796875 52.984375 37.671875 58.78125 
Q 33.546875 64.59375 27.390625 64.59375 
Q 21.34375 64.59375 17.71875 59.46875 
Q 13.1875 52.9375 13.1875 35.296875 
" id="ArialMT-30"/>
      </defs>
      <g style="fill:#262626;" transform="translate(71.6682421661 360.6578125)scale(0.1 -0.1)">
       <use xlink:href="#ArialMT-30"/>
      </g>
     </g>
    </g>
    <g id="xtick_2">
     <g id="line2d_2">
      <g>
       <use style="fill:#262626;stroke:#262626;" x="196.88425672" xlink:href="#m1c13a359f7" y="346.5"/>
      </g>
     </g>
     <g id="text_2">
      <!-- 500 -->
      <defs>
       <path d="M 4.15625 18.75 
L 13.375 19.53125 
Q 14.40625 12.796875 18.140625 9.390625 
Q 21.875 6 27.15625 6 
Q 33.5 6 37.890625 10.78125 
Q 42.28125 15.578125 42.28125 23.484375 
Q 42.28125 31 38.0625 35.34375 
Q 33.84375 39.703125 27 39.703125 
Q 22.75 39.703125 19.328125 37.765625 
Q 15.921875 35.84375 13.96875 32.765625 
L 5.71875 33.84375 
L 12.640625 70.609375 
L 48.25 70.609375 
L 48.25 62.203125 
L 19.671875 62.203125 
L 15.828125 42.96875 
Q 22.265625 47.46875 29.34375 47.46875 
Q 38.71875 47.46875 45.15625 40.96875 
Q 51.609375 34.46875 51.609375 24.265625 
Q 51.609375 14.546875 45.953125 7.46875 
Q 39.0625 -1.21875 27.15625 -1.21875 
Q 17.390625 -1.21875 11.203125 4.25 
Q 5.03125 9.71875 4.15625 18.75 
" id="ArialMT-35"/>
      </defs>
      <g style="fill:#262626;" transform="translate(188.54285047 360.6578125)scale(0.1 -0.1)">
       <use xlink:href="#ArialMT-35"/>
       <use x="55.615234375" xlink:href="#ArialMT-30"/>
       <use x="111.23046875" xlink:href="#ArialMT-30"/>
      </g>
     </g>
    </g>
    <g id="xtick_3">
     <g id="line2d_3">
      <g>
       <use style="fill:#262626;stroke:#262626;" x="319.319802523" xlink:href="#m1c13a359f7" y="346.5"/>
      </g>
     </g>
     <g id="text_3">
      <!-- 1000 -->
      <defs>
       <path d="M 37.25 0 
L 28.46875 0 
L 28.46875 56 
Q 25.296875 52.984375 20.140625 49.953125 
Q 14.984375 46.921875 10.890625 45.40625 
L 10.890625 53.90625 
Q 18.265625 57.375 23.78125 62.296875 
Q 29.296875 67.234375 31.59375 71.875 
L 37.25 71.875 
z
" id="ArialMT-31"/>
      </defs>
      <g style="fill:#262626;" transform="translate(308.197927523 360.6578125)scale(0.1 -0.1)">
       <use xlink:href="#ArialMT-31"/>
       <use x="55.615234375" xlink:href="#ArialMT-30"/>
       <use x="111.23046875" xlink:href="#ArialMT-30"/>
       <use x="166.845703125" xlink:href="#ArialMT-30"/>
      </g>
     </g>
    </g>
    <g id="xtick_4">
     <g id="line2d_4">
      <g>
       <use style="fill:#262626;stroke:#262626;" x="441.755348327" xlink:href="#m1c13a359f7" y="346.5"/>
      </g>
     </g>
     <g id="text_4">
      <!-- 1500 -->
      <g style="fill:#262626;" transform="translate(430.633473327 360.6578125)scale(0.1 -0.1)">
       <use xlink:href="#ArialMT-31"/>
       <use x="55.615234375" xlink:href="#ArialMT-35"/>
       <use x="111.23046875" xlink:href="#ArialMT-30"/>
       <use x="166.845703125" xlink:href="#ArialMT-30"/>
      </g>
     </g>
    </g>
    <g id="text_5">
     <!-- barcode, rank-ordered -->
     <defs>
      <path d="M 40.4375 19 
L 49.078125 17.875 
Q 47.65625 8.9375 41.8125 3.875 
Q 35.984375 -1.171875 27.484375 -1.171875 
Q 16.84375 -1.171875 10.375 5.78125 
Q 3.90625 12.75 3.90625 25.734375 
Q 3.90625 34.125 6.6875 40.421875 
Q 9.46875 46.734375 15.15625 49.875 
Q 20.84375 53.03125 27.546875 53.03125 
Q 35.984375 53.03125 41.359375 48.75 
Q 46.734375 44.484375 48.25 36.625 
L 39.703125 35.296875 
Q 38.484375 40.53125 35.375 43.15625 
Q 32.28125 45.796875 27.875 45.796875 
Q 21.234375 45.796875 17.078125 41.03125 
Q 12.9375 36.28125 12.9375 25.984375 
Q 12.9375 15.53125 16.9375 10.796875 
Q 20.953125 6.0625 27.390625 6.0625 
Q 32.5625 6.0625 36.03125 9.234375 
Q 39.5 12.40625 40.4375 19 
" id="ArialMT-63"/>
      <path d="M 14.703125 0 
L 6.546875 0 
L 6.546875 71.578125 
L 15.328125 71.578125 
L 15.328125 46.046875 
Q 20.90625 53.03125 29.546875 53.03125 
Q 34.328125 53.03125 38.59375 51.09375 
Q 42.875 49.171875 45.625 45.671875 
Q 48.390625 42.1875 49.953125 37.25 
Q 51.515625 32.328125 51.515625 26.703125 
Q 51.515625 13.375 44.921875 6.09375 
Q 38.328125 -1.171875 29.109375 -1.171875 
Q 19.921875 -1.171875 14.703125 6.5 
z
M 14.59375 26.3125 
Q 14.59375 17 17.140625 12.84375 
Q 21.296875 6.0625 28.375 6.0625 
Q 34.125 6.0625 38.328125 11.0625 
Q 42.53125 16.0625 42.53125 25.984375 
Q 42.53125 36.140625 38.5 40.96875 
Q 34.46875 45.796875 28.765625 45.796875 
Q 23 45.796875 18.796875 40.796875 
Q 14.59375 35.796875 14.59375 26.3125 
" id="ArialMT-62"/>
      <path d="M 40.4375 6.390625 
Q 35.546875 2.25 31.03125 0.53125 
Q 26.515625 -1.171875 21.34375 -1.171875 
Q 12.796875 -1.171875 8.203125 3 
Q 3.609375 7.171875 3.609375 13.671875 
Q 3.609375 17.484375 5.34375 20.625 
Q 7.078125 23.78125 9.890625 25.6875 
Q 12.703125 27.59375 16.21875 28.5625 
Q 18.796875 29.25 24.03125 29.890625 
Q 34.671875 31.15625 39.703125 32.90625 
Q 39.75 34.71875 39.75 35.203125 
Q 39.75 40.578125 37.25 42.78125 
Q 33.890625 45.75 27.25 45.75 
Q 21.046875 45.75 18.09375 43.578125 
Q 15.140625 41.40625 13.71875 35.890625 
L 5.125 37.0625 
Q 6.296875 42.578125 8.984375 45.96875 
Q 11.671875 49.359375 16.75 51.1875 
Q 21.828125 53.03125 28.515625 53.03125 
Q 35.15625 53.03125 39.296875 51.46875 
Q 43.453125 49.90625 45.40625 47.53125 
Q 47.359375 45.171875 48.140625 41.546875 
Q 48.578125 39.3125 48.578125 33.453125 
L 48.578125 21.734375 
Q 48.578125 9.46875 49.140625 6.21875 
Q 49.703125 2.984375 51.375 0 
L 42.1875 0 
Q 40.828125 2.734375 40.4375 6.390625 
M 39.703125 26.03125 
Q 34.90625 24.078125 25.34375 22.703125 
Q 19.921875 21.921875 17.671875 20.9375 
Q 15.4375 19.96875 14.203125 18.09375 
Q 12.984375 16.21875 12.984375 13.921875 
Q 12.984375 10.40625 15.640625 8.0625 
Q 18.3125 5.71875 23.4375 5.71875 
Q 28.515625 5.71875 32.46875 7.9375 
Q 36.421875 10.15625 38.28125 14.015625 
Q 39.703125 17 39.703125 22.796875 
z
" id="ArialMT-61"/>
      <path d="M 42.09375 16.703125 
L 51.171875 15.578125 
Q 49.03125 7.625 43.21875 3.21875 
Q 37.40625 -1.171875 28.375 -1.171875 
Q 17 -1.171875 10.328125 5.828125 
Q 3.65625 12.84375 3.65625 25.484375 
Q 3.65625 38.578125 10.390625 45.796875 
Q 17.140625 53.03125 27.875 53.03125 
Q 38.28125 53.03125 44.875 45.953125 
Q 51.46875 38.875 51.46875 26.03125 
Q 51.46875 25.25 51.421875 23.6875 
L 12.75 23.6875 
Q 13.234375 15.140625 17.578125 10.59375 
Q 21.921875 6.0625 28.421875 6.0625 
Q 33.25 6.0625 36.671875 8.59375 
Q 40.09375 11.140625 42.09375 16.703125 
M 13.234375 30.90625 
L 42.1875 30.90625 
Q 41.609375 37.453125 38.875 40.71875 
Q 34.671875 45.796875 27.984375 45.796875 
Q 21.921875 45.796875 17.796875 41.75 
Q 13.671875 37.703125 13.234375 30.90625 
" id="ArialMT-65"/>
      <path d="M 40.234375 0 
L 40.234375 6.546875 
Q 35.296875 -1.171875 25.734375 -1.171875 
Q 19.53125 -1.171875 14.328125 2.25 
Q 9.125 5.671875 6.265625 11.796875 
Q 3.421875 17.921875 3.421875 25.875 
Q 3.421875 33.640625 6 39.96875 
Q 8.59375 46.296875 13.765625 49.65625 
Q 18.953125 53.03125 25.34375 53.03125 
Q 30.03125 53.03125 33.6875 51.046875 
Q 37.359375 49.078125 39.65625 45.90625 
L 39.65625 71.578125 
L 48.390625 71.578125 
L 48.390625 0 
z
M 12.453125 25.875 
Q 12.453125 15.921875 16.640625 10.984375 
Q 20.84375 6.0625 26.5625 6.0625 
Q 32.328125 6.0625 36.34375 10.765625 
Q 40.375 15.484375 40.375 25.140625 
Q 40.375 35.796875 36.265625 40.765625 
Q 32.171875 45.75 26.171875 45.75 
Q 20.3125 45.75 16.375 40.96875 
Q 12.453125 36.1875 12.453125 25.875 
" id="ArialMT-64"/>
      <path d="M 3.171875 21.484375 
L 3.171875 30.328125 
L 30.171875 30.328125 
L 30.171875 21.484375 
z
" id="ArialMT-2d"/>
      <path d="M 8.890625 0 
L 8.890625 10.015625 
L 18.890625 10.015625 
L 18.890625 0 
Q 18.890625 -5.515625 16.9375 -8.90625 
Q 14.984375 -12.3125 10.75 -14.15625 
L 8.296875 -10.40625 
Q 11.078125 -9.1875 12.390625 -6.8125 
Q 13.71875 -4.4375 13.875 0 
z
" id="ArialMT-2c"/>
      <path d="M 6.5 0 
L 6.5 51.859375 
L 14.40625 51.859375 
L 14.40625 44 
Q 17.4375 49.515625 20 51.265625 
Q 22.5625 53.03125 25.640625 53.03125 
Q 30.078125 53.03125 34.671875 50.203125 
L 31.640625 42.046875 
Q 28.421875 43.953125 25.203125 43.953125 
Q 22.3125 43.953125 20.015625 42.21875 
Q 17.71875 40.484375 16.75 37.40625 
Q 15.28125 32.71875 15.28125 27.15625 
L 15.28125 0 
z
" id="ArialMT-72"/>
      <path d="M 6.640625 0 
L 6.640625 71.578125 
L 15.4375 71.578125 
L 15.4375 30.765625 
L 36.234375 51.859375 
L 47.609375 51.859375 
L 27.78125 32.625 
L 49.609375 0 
L 38.765625 0 
L 21.625 26.515625 
L 15.4375 20.5625 
L 15.4375 0 
z
" id="ArialMT-6b"/>
      <path d="M 3.328125 25.921875 
Q 3.328125 40.328125 11.328125 47.265625 
Q 18.015625 53.03125 27.640625 53.03125 
Q 38.328125 53.03125 45.109375 46.015625 
Q 51.90625 39.015625 51.90625 26.65625 
Q 51.90625 16.65625 48.90625 10.90625 
Q 45.90625 5.171875 40.15625 2 
Q 34.421875 -1.171875 27.640625 -1.171875 
Q 16.75 -1.171875 10.03125 5.8125 
Q 3.328125 12.796875 3.328125 25.921875 
M 12.359375 25.921875 
Q 12.359375 15.96875 16.703125 11.015625 
Q 21.046875 6.0625 27.640625 6.0625 
Q 34.1875 6.0625 38.53125 11.03125 
Q 42.875 16.015625 42.875 26.21875 
Q 42.875 35.84375 38.5 40.796875 
Q 34.125 45.75 27.640625 45.75 
Q 21.046875 45.75 16.703125 40.8125 
Q 12.359375 35.890625 12.359375 25.921875 
" id="ArialMT-6f"/>
      <path d="M 6.59375 0 
L 6.59375 51.859375 
L 14.5 51.859375 
L 14.5 44.484375 
Q 20.21875 53.03125 31 53.03125 
Q 35.6875 53.03125 39.625 51.34375 
Q 43.5625 49.65625 45.515625 46.921875 
Q 47.46875 44.1875 48.25 40.4375 
Q 48.734375 37.984375 48.734375 31.890625 
L 48.734375 0 
L 39.9375 0 
L 39.9375 31.546875 
Q 39.9375 36.921875 38.90625 39.578125 
Q 37.890625 42.234375 35.28125 43.8125 
Q 32.671875 45.40625 29.15625 45.40625 
Q 23.53125 45.40625 19.453125 41.84375 
Q 15.375 38.28125 15.375 28.328125 
L 15.375 0 
z
" id="ArialMT-6e"/>
      <path id="ArialMT-20"/>
     </defs>
     <g style="fill:#262626;" transform="translate(240.785234375 375.51890625)scale(0.11 -0.11)">
      <use xlink:href="#ArialMT-62"/>
      <use x="55.615234375" xlink:href="#ArialMT-61"/>
      <use x="111.23046875" xlink:href="#ArialMT-72"/>
      <use x="144.53125" xlink:href="#ArialMT-63"/>
      <use x="194.53125" xlink:href="#ArialMT-6f"/>
      <use x="250.146484375" xlink:href="#ArialMT-64"/>
      <use x="305.76171875" xlink:href="#ArialMT-65"/>
      <use x="361.376953125" xlink:href="#ArialMT-2c"/>
      <use x="389.16015625" xlink:href="#ArialMT-20"/>
      <use x="416.943359375" xlink:href="#ArialMT-72"/>
      <use x="450.244140625" xlink:href="#ArialMT-61"/>
      <use x="505.859375" xlink:href="#ArialMT-6e"/>
      <use x="561.474609375" xlink:href="#ArialMT-6b"/>
      <use x="611.474609375" xlink:href="#ArialMT-2d"/>
      <use x="644.775390625" xlink:href="#ArialMT-6f"/>
      <use x="700.390625" xlink:href="#ArialMT-72"/>
      <use x="733.69140625" xlink:href="#ArialMT-64"/>
      <use x="789.306640625" xlink:href="#ArialMT-65"/>
      <use x="844.921875" xlink:href="#ArialMT-72"/>
      <use x="878.22265625" xlink:href="#ArialMT-65"/>
      <use x="933.837890625" xlink:href="#ArialMT-64"/>
     </g>
    </g>
   </g>
   <g id="matplotlib.axis_2">
    <g id="ytick_1">
     <g id="line2d_5">
      <defs>
       <path d="M 0 0 
L -5 0 
" id="m74238de63e" style="stroke:#262626;"/>
      </defs>
      <g>
       <use style="fill:#262626;stroke:#262626;" x="72.0" xlink:href="#m74238de63e" y="346.5"/>
      </g>
     </g>
     <g id="text_6">
      <!-- 1 -->
      <g style="fill:#262626;" transform="translate(59.4390625 349.08515625)scale(0.1 -0.1)">
       <use xlink:href="#ArialMT-31"/>
      </g>
     </g>
    </g>
    <g id="ytick_2">
     <g id="line2d_6">
      <g>
       <use style="fill:#262626;stroke:#262626;" x="72.0" xlink:href="#m74238de63e" y="261.448902654"/>
      </g>
     </g>
     <g id="text_7">
      <!-- 10 -->
      <g style="fill:#262626;" transform="translate(53.878125 264.034058904)scale(0.1 -0.1)">
       <use xlink:href="#ArialMT-31"/>
       <use x="55.615234375" xlink:href="#ArialMT-30"/>
      </g>
     </g>
    </g>
    <g id="ytick_3">
     <g id="line2d_7">
      <g>
       <use style="fill:#262626;stroke:#262626;" x="72.0" xlink:href="#m74238de63e" y="176.397805307"/>
      </g>
     </g>
     <g id="text_8">
      <!-- 100 -->
      <g style="fill:#262626;" transform="translate(48.3171875 178.982961557)scale(0.1 -0.1)">
       <use xlink:href="#ArialMT-31"/>
       <use x="55.615234375" xlink:href="#ArialMT-30"/>
       <use x="111.23046875" xlink:href="#ArialMT-30"/>
      </g>
     </g>
    </g>
    <g id="ytick_4">
     <g id="line2d_8">
      <g>
       <use style="fill:#262626;stroke:#262626;" x="72.0" xlink:href="#m74238de63e" y="91.346707961"/>
      </g>
     </g>
     <g id="text_9">
      <!-- 1000 -->
      <g style="fill:#262626;" transform="translate(42.75625 93.931864211)scale(0.1 -0.1)">
       <use xlink:href="#ArialMT-31"/>
       <use x="55.615234375" xlink:href="#ArialMT-30"/>
       <use x="111.23046875" xlink:href="#ArialMT-30"/>
       <use x="166.845703125" xlink:href="#ArialMT-30"/>
      </g>
     </g>
    </g>
    <g id="text_10">
     <!-- log10 abundance (# molecules) -->
     <defs>
      <path d="M 4.984375 -4.296875 
L 13.53125 -5.5625 
Q 14.0625 -9.515625 16.5 -11.328125 
Q 19.78125 -13.765625 25.4375 -13.765625 
Q 31.546875 -13.765625 34.859375 -11.328125 
Q 38.1875 -8.890625 39.359375 -4.5 
Q 40.046875 -1.8125 39.984375 6.78125 
Q 34.234375 0 25.640625 0 
Q 14.9375 0 9.078125 7.71875 
Q 3.21875 15.4375 3.21875 26.21875 
Q 3.21875 33.640625 5.90625 39.90625 
Q 8.59375 46.1875 13.6875 49.609375 
Q 18.796875 53.03125 25.6875 53.03125 
Q 34.859375 53.03125 40.828125 45.609375 
L 40.828125 51.859375 
L 48.921875 51.859375 
L 48.921875 7.03125 
Q 48.921875 -5.078125 46.453125 -10.125 
Q 44 -15.1875 38.640625 -18.109375 
Q 33.296875 -21.046875 25.484375 -21.046875 
Q 16.21875 -21.046875 10.5 -16.875 
Q 4.78125 -12.703125 4.984375 -4.296875 
M 12.25 26.859375 
Q 12.25 16.65625 16.296875 11.96875 
Q 20.359375 7.28125 26.46875 7.28125 
Q 32.515625 7.28125 36.609375 11.9375 
Q 40.71875 16.609375 40.71875 26.5625 
Q 40.71875 36.078125 36.5 40.90625 
Q 32.28125 45.75 26.3125 45.75 
Q 20.453125 45.75 16.34375 40.984375 
Q 12.25 36.234375 12.25 26.859375 
" id="ArialMT-67"/>
      <path d="M 40.578125 0 
L 40.578125 7.625 
Q 34.515625 -1.171875 24.125 -1.171875 
Q 19.53125 -1.171875 15.546875 0.578125 
Q 11.578125 2.34375 9.640625 5 
Q 7.71875 7.671875 6.9375 11.53125 
Q 6.390625 14.109375 6.390625 19.734375 
L 6.390625 51.859375 
L 15.1875 51.859375 
L 15.1875 23.09375 
Q 15.1875 16.21875 15.71875 13.8125 
Q 16.546875 10.359375 19.234375 8.375 
Q 21.921875 6.390625 25.875 6.390625 
Q 29.828125 6.390625 33.296875 8.421875 
Q 36.765625 10.453125 38.203125 13.9375 
Q 39.65625 17.4375 39.65625 24.078125 
L 39.65625 51.859375 
L 48.4375 51.859375 
L 48.4375 0 
z
" id="ArialMT-75"/>
      <path d="M 23.390625 -21.046875 
Q 16.109375 -11.859375 11.078125 0.4375 
Q 6.0625 12.75 6.0625 25.921875 
Q 6.0625 37.546875 9.8125 48.1875 
Q 14.203125 60.546875 23.390625 72.796875 
L 29.6875 72.796875 
Q 23.78125 62.640625 21.875 58.296875 
Q 18.890625 51.5625 17.1875 44.234375 
Q 15.09375 35.109375 15.09375 25.875 
Q 15.09375 2.390625 29.6875 -21.046875 
z
" id="ArialMT-28"/>
      <path d="M 3.078125 15.484375 
L 11.765625 16.84375 
Q 12.5 11.625 15.84375 8.84375 
Q 19.1875 6.0625 25.203125 6.0625 
Q 31.25 6.0625 34.171875 8.515625 
Q 37.109375 10.984375 37.109375 14.3125 
Q 37.109375 17.28125 34.515625 19 
Q 32.71875 20.171875 25.53125 21.96875 
Q 15.875 24.421875 12.140625 26.203125 
Q 8.40625 27.984375 6.46875 31.125 
Q 4.546875 34.28125 4.546875 38.09375 
Q 4.546875 41.546875 6.125 44.5 
Q 7.71875 47.46875 10.453125 49.421875 
Q 12.5 50.921875 16.03125 51.96875 
Q 19.578125 53.03125 23.640625 53.03125 
Q 29.734375 53.03125 34.34375 51.265625 
Q 38.96875 49.515625 41.15625 46.5 
Q 43.359375 43.5 44.1875 38.484375 
L 35.59375 37.3125 
Q 35.015625 41.3125 32.203125 43.546875 
Q 29.390625 45.796875 24.265625 45.796875 
Q 18.21875 45.796875 15.625 43.796875 
Q 13.03125 41.796875 13.03125 39.109375 
Q 13.03125 37.40625 14.109375 36.03125 
Q 15.1875 34.625 17.484375 33.6875 
Q 18.796875 33.203125 25.25 31.453125 
Q 34.578125 28.953125 38.25 27.359375 
Q 41.9375 25.78125 44.03125 22.75 
Q 46.140625 19.734375 46.140625 15.234375 
Q 46.140625 10.84375 43.578125 6.953125 
Q 41.015625 3.078125 36.171875 0.953125 
Q 31.34375 -1.171875 25.25 -1.171875 
Q 15.140625 -1.171875 9.84375 3.03125 
Q 4.546875 7.234375 3.078125 15.484375 
" id="ArialMT-73"/>
      <path d="M 6.390625 0 
L 6.390625 71.578125 
L 15.1875 71.578125 
L 15.1875 0 
z
" id="ArialMT-6c"/>
      <path d="M 12.359375 -21.046875 
L 6.0625 -21.046875 
Q 20.65625 2.390625 20.65625 25.875 
Q 20.65625 35.0625 18.5625 44.09375 
Q 16.890625 51.421875 13.921875 58.15625 
Q 12.015625 62.546875 6.0625 72.796875 
L 12.359375 72.796875 
Q 21.53125 60.546875 25.921875 48.1875 
Q 29.6875 37.546875 29.6875 25.921875 
Q 29.6875 12.75 24.625 0.4375 
Q 19.578125 -11.859375 12.359375 -21.046875 
" id="ArialMT-29"/>
      <path d="M 6.59375 0 
L 6.59375 51.859375 
L 14.453125 51.859375 
L 14.453125 44.578125 
Q 16.890625 48.390625 20.9375 50.703125 
Q 25 53.03125 30.171875 53.03125 
Q 35.9375 53.03125 39.625 50.640625 
Q 43.3125 48.25 44.828125 43.953125 
Q 50.984375 53.03125 60.84375 53.03125 
Q 68.5625 53.03125 72.703125 48.75 
Q 76.859375 44.484375 76.859375 35.59375 
L 76.859375 0 
L 68.109375 0 
L 68.109375 32.671875 
Q 68.109375 37.9375 67.25 40.25 
Q 66.40625 42.578125 64.15625 43.984375 
Q 61.921875 45.40625 58.890625 45.40625 
Q 53.421875 45.40625 49.796875 41.765625 
Q 46.1875 38.140625 46.1875 30.125 
L 46.1875 0 
L 37.40625 0 
L 37.40625 33.6875 
Q 37.40625 39.546875 35.25 42.46875 
Q 33.109375 45.40625 28.21875 45.40625 
Q 24.515625 45.40625 21.359375 43.453125 
Q 18.21875 41.5 16.796875 37.734375 
Q 15.375 33.984375 15.375 26.90625 
L 15.375 0 
z
" id="ArialMT-6d"/>
      <path d="M 5.03125 -1.21875 
L 9.28125 19.578125 
L 1.03125 19.578125 
L 1.03125 26.859375 
L 10.75 26.859375 
L 14.359375 44.578125 
L 1.03125 44.578125 
L 1.03125 51.859375 
L 15.828125 51.859375 
L 20.0625 72.796875 
L 27.390625 72.796875 
L 23.140625 51.859375 
L 38.53125 51.859375 
L 42.78125 72.796875 
L 50.140625 72.796875 
L 45.90625 51.859375 
L 54.34375 51.859375 
L 54.34375 44.578125 
L 44.4375 44.578125 
L 40.765625 26.859375 
L 54.34375 26.859375 
L 54.34375 19.578125 
L 39.3125 19.578125 
L 35.0625 -1.21875 
L 27.734375 -1.21875 
L 31.9375 19.578125 
L 16.609375 19.578125 
L 12.359375 -1.21875 
z
M 18.0625 26.859375 
L 33.40625 26.859375 
L 37.0625 44.578125 
L 21.6875 44.578125 
z
" id="ArialMT-23"/>
     </defs>
     <g style="fill:#262626;" transform="translate(35.44109375 269.78875)rotate(-90.0)scale(0.11 -0.11)">
      <use xlink:href="#ArialMT-6c"/>
      <use x="22.216796875" xlink:href="#ArialMT-6f"/>
      <use x="77.83203125" xlink:href="#ArialMT-67"/>
      <use x="133.447265625" xlink:href="#ArialMT-31"/>
      <use x="189.0625" xlink:href="#ArialMT-30"/>
      <use x="244.677734375" xlink:href="#ArialMT-20"/>
      <use x="272.4609375" xlink:href="#ArialMT-61"/>
      <use x="328.076171875" xlink:href="#ArialMT-62"/>
      <use x="383.69140625" xlink:href="#ArialMT-75"/>
      <use x="439.306640625" xlink:href="#ArialMT-6e"/>
      <use x="494.921875" xlink:href="#ArialMT-64"/>
      <use x="550.537109375" xlink:href="#ArialMT-61"/>
      <use x="606.15234375" xlink:href="#ArialMT-6e"/>
      <use x="661.767578125" xlink:href="#ArialMT-63"/>
      <use x="711.767578125" xlink:href="#ArialMT-65"/>
      <use x="767.3828125" xlink:href="#ArialMT-20"/>
      <use x="795.166015625" xlink:href="#ArialMT-28"/>
      <use x="828.466796875" xlink:href="#ArialMT-23"/>
      <use x="884.08203125" xlink:href="#ArialMT-20"/>
      <use x="911.865234375" xlink:href="#ArialMT-6d"/>
      <use x="995.166015625" xlink:href="#ArialMT-6f"/>
      <use x="1050.78125" xlink:href="#ArialMT-6c"/>
      <use x="1072.99804688" xlink:href="#ArialMT-65"/>
      <use x="1128.61328125" xlink:href="#ArialMT-63"/>
      <use x="1178.61328125" xlink:href="#ArialMT-75"/>
      <use x="1234.22851562" xlink:href="#ArialMT-6c"/>
      <use x="1256.4453125" xlink:href="#ArialMT-65"/>
      <use x="1312.06054688" xlink:href="#ArialMT-73"/>
      <use x="1362.06054688" xlink:href="#ArialMT-29"/>
     </g>
    </g>
   </g>
   <g id="line2d_9">
    <path clip-path="url(#pc6ec77ea5b)" d="M 74.448711 81.260042 
L 74.938453 90.183235 
L 75.428195 90.398613 
L 76.162809 95.320607 
L 76.40768 100.241135 
L 76.652551 100.429591 
L 76.897422 102.971249 
L 77.632035 103.634962 
L 77.876906 106.029141 
L 78.611519 106.694694 
L 78.856391 107.831314 
L 79.101262 108.121019 
L 79.346133 108.885062 
L 79.591004 109.004023 
L 80.080746 110.276801 
L 80.570488 110.46226 
L 81.06023 111.787221 
L 81.549973 112.631909 
L 81.794844 113.228218 
L 82.039715 114.727721 
L 82.284586 115.077177 
L 82.529457 115.077177 
L 82.774328 115.572037 
L 83.26407 115.786166 
L 83.508941 116.001544 
L 83.753812 116.001544 
L 83.998683 116.949639 
L 84.243555 117.320871 
L 84.488426 117.470415 
L 84.733297 117.470415 
L 85.712781 118.074718 
L 86.202523 119.70972 
L 86.447394 119.789412 
L 86.692265 120.029524 
L 86.937137 120.514484 
L 87.182008 120.677563 
L 87.67175 121.337173 
L 87.916621 121.420459 
L 88.651234 122.263811 
L 89.140976 122.865828 
L 89.385848 122.865828 
L 89.630719 123.389769 
L 90.120461 123.47782 
L 90.365332 123.654553 
L 90.855074 123.743238 
L 92.07943 124.189885 
L 92.324301 124.460488 
L 92.814043 125.563174 
L 93.303785 125.563174 
L 93.548656 126.221944 
L 94.038398 126.221944 
L 94.283269 127.086574 
L 94.773012 127.575816 
L 95.017883 127.575816 
L 95.262754 128.777132 
L 95.752496 129.083667 
L 95.997367 130.124221 
L 96.242238 130.124221 
L 96.487109 130.335896 
L 96.73198 131.086461 
L 96.976851 131.41286 
L 97.466594 131.632072 
L 97.711465 132.074439 
L 97.956336 132.074439 
L 98.201207 132.297626 
L 98.690949 132.297626 
L 99.425562 132.522169 
L 99.670433 133.665827 
L 99.915304 133.665827 
L 100.160176 134.133393 
L 100.405047 134.133393 
L 101.384531 135.207573 
L 101.629402 135.572688 
L 101.874273 136.189351 
L 102.119144 136.189351 
L 102.364015 137.583373 
L 102.853758 137.842583 
L 103.098629 137.842583 
L 103.3435 138.366524 
L 103.588371 138.498679 
L 103.833242 138.498679 
L 104.078113 138.764415 
L 104.567855 140.680108 
L 104.812726 140.820821 
L 105.057597 141.821117 
L 106.037082 142.849257 
L 106.281953 142.849257 
L 106.526824 143.298803 
L 107.016566 143.601569 
L 107.261437 143.601569 
L 107.506308 144.214649 
L 107.751179 144.214649 
L 107.99605 144.369522 
L 108.485793 146.608827 
L 108.975535 147.611709 
L 109.220406 147.611709 
L 109.465277 147.781536 
L 109.710148 147.781536 
L 109.955019 148.817227 
L 110.19989 148.992701 
L 110.444761 150.06342 
L 110.689632 150.24493 
L 111.424246 151.541106 
L 112.158859 153.080379 
L 112.40373 153.277378 
L 112.648601 153.674557 
L 112.893472 153.674557 
L 113.138343 155.516683 
L 113.383214 155.938828 
L 113.628086 155.938828 
L 114.117828 157.015791 
L 114.852441 157.015791 
L 115.342183 157.455525 
L 115.587054 157.455525 
L 115.831925 157.677371 
L 116.076796 157.677371 
L 116.321668 157.900557 
L 116.566539 157.900557 
L 116.81141 158.1251 
L 117.546023 159.501802 
L 118.035765 161.17562 
L 119.01525 162.167282 
L 119.260121 162.928902 
L 119.504992 163.186305 
L 119.749863 164.500936 
L 119.994734 164.769571 
L 120.484476 166.423753 
L 121.219089 167.27948 
L 121.463961 167.27948 
L 122.198574 169.972453 
L 122.443445 169.972453 
L 123.178058 171.557985 
L 123.422929 173.214641 
L 123.6678 173.555078 
L 123.912671 174.245514 
L 124.157543 174.245514 
L 124.402414 174.595632 
L 124.647285 174.595632 
L 125.137027 175.305985 
L 125.381898 176.030268 
L 125.626769 176.397805 
L 125.87164 177.144037 
L 126.116511 178.292437 
L 126.606253 178.292437 
L 126.851125 179.47769 
L 127.095996 179.88138 
L 127.340867 180.702241 
L 127.585738 182.400803 
L 127.830609 185.104734 
L 128.07548 185.575278 
L 128.320351 186.53474 
L 128.565222 186.53474 
L 128.810093 187.519791 
L 129.789578 189.572387 
L 130.034449 189.572387 
L 130.27932 191.190334 
L 130.524191 191.745792 
L 131.013933 191.745792 
L 131.258804 192.30973 
L 131.993417 195.266285 
L 132.728031 197.160917 
L 133.217773 197.160917 
L 133.707515 198.480243 
L 133.952386 198.480243 
L 134.197257 199.15801 
L 134.442128 199.15801 
L 135.176742 202.746969 
L 135.666484 204.286242 
L 136.156226 204.286242 
L 136.401097 206.722546 
L 136.645968 207.571715 
L 137.625453 207.571715 
L 137.870324 208.440867 
L 138.360066 208.440867 
L 138.849808 210.24304 
L 139.094679 210.24304 
L 139.33955 211.178209 
L 139.829292 211.178209 
L 140.074163 212.137672 
L 140.319035 212.137672 
L 140.563906 213.122723 
L 141.54339 213.122723 
L 141.788261 214.134765 
L 142.278003 214.134765 
L 142.522874 215.175318 
L 143.012617 215.175318 
L 143.257488 216.246038 
L 143.74723 216.246038 
L 143.992101 217.348723 
L 144.481843 217.348723 
L 144.726714 218.485343 
L 145.216456 218.485343 
L 145.461327 219.658051 
L 146.440812 219.658051 
L 146.685683 220.869216 
L 147.175425 220.869216 
L 147.420296 222.121446 
L 148.889523 222.121446 
L 149.134394 223.417621 
L 150.358749 223.417621 
L 150.60362 224.760941 
L 151.827976 224.760941 
L 152.072847 226.154964 
L 155.501042 226.154964 
L 155.745913 227.603668 
L 157.460011 227.603668 
L 157.704882 229.111519 
L 159.663851 229.111519 
L 159.908722 230.683553 
L 163.092046 230.683553 
L 163.336917 232.325478 
L 166.030499 232.325478 
L 166.27537 234.043798 
L 170.193308 234.043798 
L 170.438179 235.845971 
L 173.376632 235.845971 
L 173.621503 237.740603 
L 178.518925 237.740603 
L 178.763796 239.737696 
L 182.926604 239.737696 
L 183.171476 241.848969 
L 187.824026 241.848969 
L 188.068897 244.088274 
L 195.659901 244.088274 
L 195.904772 246.472148 
L 202.761163 246.472148 
L 203.006034 249.020553 
L 210.352167 249.020553 
L 210.597038 251.757896 
L 220.14701 251.757896 
L 220.391882 254.714451 
L 232.390565 254.714451 
L 232.635436 257.928409 
L 242.675151 257.928409 
L 242.920022 261.448903 
L 253.939221 261.448903 
L 254.184092 265.340627 
L 265.693033 265.340627 
L 265.937905 269.691206 
L 281.609654 269.691206 
L 281.854526 274.623484 
L 300.464728 274.623484 
L 300.7096 280.317382 
L 318.095447 280.317382 
L 318.340318 287.051834 
L 339.644103 287.051834 
L 339.888974 295.294137 
L 361.682501 295.294137 
L 361.927372 305.920314 
L 392.536259 305.920314 
L 392.78113 320.897069 
L 419.472079 320.897069 
L 419.71695 346.5 
L 514.237191 346.5 
L 514.237191 346.5 
" style="fill:none;opacity:0.5;stroke:#2c5ebf;stroke-linecap:round;stroke-width:2.0;"/>
   </g>
   <g id="line2d_10">
    <path clip-path="url(#pc6ec77ea5b)" d="M 74.448711 76.493283 
L 74.693582 82.026932 
L 74.938453 86.799655 
L 75.428195 92.73931 
L 75.673066 94.789714 
L 75.917937 99.635211 
L 76.162809 100.053636 
L 76.40768 100.241135 
L 76.652551 101.435073 
L 77.142293 101.629736 
L 77.387164 102.418812 
L 77.632035 102.518643 
L 77.876906 104.786074 
L 78.611519 106.471508 
L 78.856391 108.413014 
L 79.101262 108.589326 
L 79.346133 109.786748 
L 79.835875 114.038573 
L 81.06023 118.611717 
L 81.549973 120.10991 
L 82.039715 120.352122 
L 83.019199 122.093593 
L 83.26407 122.606619 
L 83.753812 124.279866 
L 84.243555 124.551132 
L 85.223039 125.191942 
L 85.46791 125.284401 
L 85.957652 126.221944 
L 86.202523 126.221944 
L 86.447394 126.412343 
L 86.692265 126.892678 
L 86.937137 126.892678 
L 87.182008 127.477448 
L 87.67175 127.773342 
L 88.161492 129.60028 
L 88.406363 130.124221 
L 88.896105 130.229907 
L 89.630719 130.655701 
L 89.87559 131.086461 
L 90.610203 131.522303 
L 90.855074 131.742168 
L 91.344816 132.975392 
L 91.589687 133.089572 
L 92.07943 133.665827 
L 92.814043 134.015946 
L 93.303785 135.450581 
L 94.038398 136.189351 
L 94.283269 136.816483 
L 95.017883 137.197938 
L 95.507625 137.842583 
L 95.752496 137.972873 
L 96.487109 138.898004 
L 96.73198 139.301694 
L 96.976851 139.301694 
L 97.466594 141.532543 
L 97.956336 142.552571 
L 99.425562 144.369522 
L 99.915304 144.369522 
L 100.649918 145.153781 
L 100.894789 145.312651 
L 101.13966 145.312651 
L 101.384531 145.472207 
L 102.119144 146.280494 
L 102.364015 146.280494 
L 102.853758 147.106865 
L 103.098629 147.106865 
L 103.3435 147.44266 
L 103.833242 147.44266 
L 104.322984 148.123549 
L 104.812726 148.123549 
L 105.057597 148.817227 
L 105.302468 148.817227 
L 105.792211 149.169012 
L 106.037082 149.169012 
L 106.281953 149.34617 
L 106.526824 149.34617 
L 107.016566 149.703054 
L 107.506308 150.24493 
L 108.240922 150.794874 
L 108.730664 152.110843 
L 108.975535 152.302725 
L 109.465277 152.884425 
L 109.710148 153.080379 
L 109.955019 155.516683 
L 110.19989 155.727153 
L 110.689632 155.727153 
L 111.179375 156.58123 
L 111.424246 157.455525 
L 111.669117 157.677371 
L 111.913988 157.677371 
L 112.158859 158.351017 
L 112.40373 158.351017 
L 112.893472 159.037177 
L 113.138343 159.268759 
L 113.383214 160.448962 
L 113.628086 160.931809 
L 113.872957 160.931809 
L 114.117828 161.42105 
L 114.362699 162.928902 
L 114.852441 162.928902 
L 115.097312 163.186305 
L 115.587054 163.969456 
L 115.831925 163.969456 
L 116.321668 164.769571 
L 116.566539 164.769571 
L 116.81141 166.423753 
L 117.056281 166.423753 
L 117.301152 167.27948 
L 117.546023 167.569185 
L 117.790894 168.155502 
L 118.280636 168.751277 
L 118.525507 169.356819 
L 119.01525 169.972453 
L 119.260121 171.235387 
L 119.504992 171.557985 
L 119.994734 171.557985 
L 120.239605 172.211758 
L 120.729347 172.877312 
L 120.974218 172.877312 
L 121.219089 173.555078 
L 121.708832 175.305985 
L 121.953703 175.305985 
L 122.198574 175.666351 
L 122.443445 175.666351 
L 122.688316 176.397805 
L 122.933187 176.769037 
L 123.178058 176.769037 
L 123.422929 177.522884 
L 123.6678 177.905656 
L 123.912671 179.88138 
L 124.157543 180.702241 
L 124.402414 182.837935 
L 124.647285 182.837935 
L 124.892156 183.280302 
L 125.137027 184.181255 
L 125.381898 184.640108 
L 125.626769 185.575278 
L 125.87164 186.051894 
L 126.116511 187.023982 
L 126.606253 189.572387 
L 127.095996 191.745792 
L 127.340867 191.745792 
L 127.585738 192.30973 
L 127.830609 192.30973 
L 128.810093 194.655738 
L 129.054964 195.887093 
L 129.299835 197.81469 
L 129.544707 198.480243 
L 129.789578 198.480243 
L 130.034449 199.848445 
L 130.27932 199.848445 
L 130.524191 200.552033 
L 130.769062 200.552033 
L 131.258804 206.722546 
L 131.503675 207.571715 
L 131.748546 210.24304 
L 131.993417 211.178209 
L 132.238289 216.246038 
L 132.48316 216.246038 
L 132.728031 217.348723 
L 133.462644 217.348723 
L 133.952386 219.658051 
L 134.197257 219.658051 
L 134.686999 222.121446 
L 134.931871 224.760941 
L 135.176742 226.154964 
L 135.421613 226.154964 
L 136.401097 232.325478 
L 137.13571 232.325478 
L 137.380581 234.043798 
L 137.870324 234.043798 
L 138.115195 235.845971 
L 139.094679 235.845971 
L 139.33955 237.740603 
L 140.074163 237.740603 
L 140.319035 239.737696 
L 141.54339 239.737696 
L 141.788261 241.848969 
L 142.522874 241.848969 
L 142.767745 244.088274 
L 145.216456 244.088274 
L 145.461327 246.472148 
L 147.420296 246.472148 
L 147.665167 249.020553 
L 149.869007 249.020553 
L 150.113878 251.757896 
L 152.562589 251.757896 
L 152.80746 254.714451 
L 156.480527 254.714451 
L 156.725398 257.928409 
L 162.112562 257.928409 
L 162.357433 261.448903 
L 173.131761 261.448903 
L 173.376632 265.340627 
L 181.457378 265.340627 
L 181.702249 269.691206 
L 191.007351 269.691206 
L 191.252222 274.623484 
L 204.965003 274.623484 
L 205.209874 280.317382 
L 219.902139 280.317382 
L 220.14701 287.051834 
L 242.43028 287.051834 
L 242.675151 295.294137 
L 275.487877 295.294137 
L 275.732748 305.920314 
L 312.218541 305.920314 
L 312.463412 320.897069 
L 358.988919 320.897069 
L 359.23379 346.5 
L 459.875809 346.5 
L 459.875809 346.5 
" style="fill:none;opacity:0.5;stroke:#2c5ebf;stroke-linecap:round;stroke-width:2.0;"/>
   </g>
   <g id="line2d_11">
    <path clip-path="url(#pc6ec77ea5b)" d="M 74.448711 104.732965 
L 75.183324 111.150357 
L 75.428195 111.340266 
L 75.673066 112.045074 
L 75.917937 113.161484 
L 76.162809 115.714652 
L 76.40768 115.786166 
L 76.652551 116.218185 
L 77.142293 117.922713 
L 77.387164 118.534523 
L 77.632035 120.514484 
L 77.876906 120.841364 
L 78.121777 120.923538 
L 78.366648 122.178604 
L 78.611519 125.099715 
L 78.856391 125.099715 
L 79.591004 126.507911 
L 79.835875 126.603728 
L 80.325617 128.171591 
L 80.570488 128.171591 
L 81.06023 128.473121 
L 81.305101 129.186413 
L 81.549973 130.442191 
L 82.039715 130.442191 
L 82.529457 131.086461 
L 82.774328 131.19494 
L 83.019199 131.742168 
L 83.508941 132.074439 
L 83.753812 132.748085 
L 84.243555 133.089572 
L 84.733297 133.665827 
L 84.978168 134.015946 
L 85.46791 134.966152 
L 86.202523 135.328877 
L 86.447394 135.6952 
L 86.692265 135.6952 
L 87.67175 136.189351 
L 87.916621 137.070348 
L 88.406363 137.712751 
L 88.896105 138.764415 
L 89.140976 138.898004 
L 89.630719 139.301694 
L 89.87559 139.437243 
L 90.855074 140.539929 
L 91.099945 140.539929 
L 91.344816 141.103867 
L 91.834558 143.298803 
L 93.058914 144.060422 
L 93.303785 144.060422 
L 93.548656 144.214649 
L 94.52814 145.312651 
L 95.017883 145.632456 
L 95.262754 145.955054 
L 95.507625 145.955054 
L 95.997367 146.444296 
L 96.242238 146.608827 
L 96.487109 147.106865 
L 96.976851 147.106865 
L 97.466594 147.44266 
L 97.711465 147.781536 
L 97.956336 147.781536 
L 98.201207 149.34617 
L 98.690949 150.06342 
L 98.93582 150.06342 
L 99.425562 151.919952 
L 99.915304 152.302725 
L 100.160176 152.689506 
L 100.405047 152.689506 
L 100.649918 152.884425 
L 101.13966 152.884425 
L 101.629402 153.277378 
L 102.119144 153.874759 
L 102.364015 154.076052 
L 103.098629 154.076052 
L 103.3435 154.278448 
L 103.588371 154.686599 
L 104.078113 154.686599 
L 104.567855 155.099309 
L 104.812726 155.099309 
L 105.057597 155.516683 
L 105.302468 155.516683 
L 106.037082 156.151723 
L 106.281953 157.677371 
L 106.526824 157.900557 
L 106.771695 158.807038 
L 107.751179 160.448962 
L 108.485793 160.448962 
L 108.730664 160.931809 
L 109.220406 160.931809 
L 109.710148 161.42105 
L 109.955019 161.42105 
L 110.19989 161.668123 
L 110.689632 161.668123 
L 110.934504 162.167282 
L 111.179375 163.186305 
L 111.424246 163.186305 
L 111.669117 163.445515 
L 112.158859 164.500936 
L 112.40373 166.423753 
L 112.648601 166.992029 
L 112.893472 167.27948 
L 113.138343 167.86118 
L 113.383214 167.86118 
L 114.362699 170.284162 
L 115.097312 170.284162 
L 115.831925 172.211758 
L 116.076796 174.245514 
L 116.566539 174.245514 
L 116.81141 174.595632 
L 117.056281 174.595632 
L 117.790894 176.397805 
L 118.035765 176.769037 
L 118.280636 176.769037 
L 118.525507 177.144037 
L 118.770378 177.144037 
L 119.01525 178.683311 
L 119.504992 179.47769 
L 119.749863 179.47769 
L 119.994734 180.702241 
L 120.239605 180.702241 
L 120.484476 181.541759 
L 120.729347 181.541759 
L 120.974218 181.968784 
L 121.219089 181.968784 
L 121.463961 182.400803 
L 121.708832 182.400803 
L 121.953703 184.181255 
L 122.198574 184.640108 
L 122.443445 184.640108 
L 122.688316 185.575278 
L 122.933187 187.519791 
L 123.178058 188.531833 
L 123.422929 190.103867 
L 123.6678 190.103867 
L 123.912671 191.190334 
L 124.157543 192.882411 
L 124.402414 192.882411 
L 124.647285 193.464112 
L 124.892156 193.464112 
L 125.137027 194.05512 
L 125.381898 194.05512 
L 125.626769 195.887093 
L 125.87164 195.887093 
L 126.116511 196.518514 
L 126.361382 196.518514 
L 126.606253 197.81469 
L 127.340867 199.848445 
L 127.585738 202.746969 
L 128.07548 202.746969 
L 128.565222 204.286242 
L 128.810093 204.286242 
L 129.054964 206.722546 
L 130.034449 206.722546 
L 130.27932 207.571715 
L 130.769062 207.571715 
L 131.013933 208.440867 
L 131.258804 208.440867 
L 131.748546 210.24304 
L 131.993417 210.24304 
L 132.728031 213.122723 
L 132.972902 215.175318 
L 133.217773 215.175318 
L 133.462644 216.246038 
L 134.197257 216.246038 
L 134.686999 218.485343 
L 135.666484 218.485343 
L 135.911355 219.658051 
L 136.645968 219.658051 
L 136.890839 220.869216 
L 139.094679 220.869216 
L 139.33955 222.121446 
L 139.584421 222.121446 
L 139.829292 223.417621 
L 141.053648 223.417621 
L 141.298519 224.760941 
L 141.788261 224.760941 
L 142.033132 226.154964 
L 143.74723 226.154964 
L 143.992101 227.603668 
L 145.95107 227.603668 
L 146.195941 229.111519 
L 147.910038 229.111519 
L 148.154909 230.683553 
L 148.644652 230.683553 
L 148.889523 232.325478 
L 149.624136 232.325478 
L 149.869007 234.043798 
L 152.072847 234.043798 
L 152.317718 235.845971 
L 154.276687 235.845971 
L 154.521558 237.740603 
L 156.970269 237.740603 
L 157.21514 239.737696 
L 160.643335 239.737696 
L 160.888206 241.848969 
L 164.316402 241.848969 
L 164.561273 244.088274 
L 169.703566 244.088274 
L 169.948437 246.472148 
L 175.09073 246.472148 
L 175.335601 249.020553 
L 179.74328 249.020553 
L 179.988151 251.757896 
L 187.334284 251.757896 
L 187.579155 254.714451 
L 192.966319 254.714451 
L 193.21119 257.928409 
L 203.250905 257.928409 
L 203.495776 261.448903 
L 215.49446 261.448903 
L 215.739331 265.340627 
L 229.941854 265.340627 
L 230.186725 269.691206 
L 245.858475 269.691206 
L 246.103346 274.623484 
L 264.468678 274.623484 
L 264.713549 280.317382 
L 284.548108 280.317382 
L 284.792979 287.051834 
L 308.545474 287.051834 
L 308.790346 295.294137 
L 333.522326 295.294137 
L 333.767197 305.920314 
L 358.744048 305.920314 
L 358.988919 320.897069 
L 393.760614 320.897069 
L 394.005485 346.5 
L 483.138563 346.5 
L 483.138563 346.5 
" style="fill:none;opacity:0.5;stroke:#2c5ebf;stroke-linecap:round;stroke-width:2.0;"/>
   </g>
   <g id="line2d_12">
    <path clip-path="url(#pc6ec77ea5b)" d="M 74.448711 79.077001 
L 74.693582 88.129671 
L 75.183324 97.963149 
L 75.428195 98.229205 
L 75.917937 101.972885 
L 76.40768 102.819763 
L 76.652551 102.971249 
L 76.897422 105.483529 
L 77.387164 105.755328 
L 77.876906 107.088545 
L 78.121777 109.303111 
L 78.366648 109.36322 
L 78.611519 110.710997 
L 78.856391 110.835996 
L 79.101262 111.658967 
L 79.835875 112.763593 
L 80.325617 113.631173 
L 80.570488 115.00702 
L 80.815359 115.077177 
L 81.06023 117.246326 
L 81.305101 117.320871 
L 81.549973 118.150956 
L 82.039715 118.303905 
L 82.529457 118.76659 
L 82.774328 118.76659 
L 83.019199 119.313819 
L 83.26407 119.55085 
L 83.508941 119.949313 
L 83.998683 120.190471 
L 84.733297 120.595933 
L 84.978168 121.503933 
L 85.223039 121.503933 
L 85.46791 121.755493 
L 85.712781 121.839728 
L 85.957652 122.093593 
L 86.202523 122.865828 
L 87.182008 123.301928 
L 87.426879 123.566081 
L 87.67175 124.010578 
L 87.916621 124.189885 
L 88.161492 124.551132 
L 88.406363 124.551132 
L 89.385848 126.989499 
L 89.630719 127.379341 
L 90.855074 127.971929 
L 91.344816 128.473121 
L 91.589687 130.762921 
L 91.834558 131.303739 
L 92.324301 131.632072 
L 92.569172 132.297626 
L 93.793527 133.318996 
L 94.038398 133.318996 
L 94.283269 133.549855 
L 94.52814 133.549855 
L 95.262754 133.898871 
L 95.507625 134.369415 
L 95.752496 134.487993 
L 95.997367 134.846031 
L 96.976851 135.328877 
L 97.221722 135.818119 
L 97.466594 135.941449 
L 98.201207 136.690202 
L 98.446078 136.690202 
L 98.690949 137.197938 
L 99.180691 137.454448 
L 99.425562 138.366524 
L 100.649918 139.573292 
L 101.874273 142.111963 
L 102.364015 142.849257 
L 102.608886 142.998499 
L 103.098629 142.998499 
L 104.078113 144.214649 
L 104.322984 144.838076 
L 104.567855 144.838076 
L 104.812726 145.472207 
L 105.057597 145.472207 
L 105.302468 145.955054 
L 105.54734 146.940105 
L 106.037082 147.274381 
L 106.771695 148.123549 
L 107.016566 148.123549 
L 107.506308 148.46876 
L 107.751179 149.34617 
L 108.240922 150.06342 
L 108.730664 151.541106 
L 108.975535 151.541106 
L 110.19989 152.495609 
L 110.444761 153.080379 
L 110.689632 153.277378 
L 110.934504 153.277378 
L 111.913988 154.686599 
L 112.158859 155.727153 
L 112.40373 155.727153 
L 112.648601 156.797872 
L 113.138343 157.235004 
L 113.383214 157.235004 
L 113.628086 157.677371 
L 113.872957 158.578323 
L 114.117828 158.807038 
L 114.362699 159.501802 
L 114.60757 160.689596 
L 115.587054 162.67328 
L 115.831925 163.969456 
L 116.076796 164.23424 
L 116.321668 164.769571 
L 116.566539 166.14286 
L 116.81141 166.14286 
L 117.301152 168.751277 
L 117.546023 169.052807 
L 117.790894 169.663353 
L 118.035765 169.972453 
L 118.280636 170.915583 
L 118.525507 170.915583 
L 118.770378 173.555078 
L 119.01525 174.595632 
L 119.260121 174.949101 
L 119.504992 174.949101 
L 119.749863 175.305985 
L 119.994734 176.397805 
L 120.729347 177.522884 
L 120.974218 177.522884 
L 121.219089 177.905656 
L 121.463961 177.905656 
L 121.953703 178.683311 
L 122.198574 178.683311 
L 122.688316 179.47769 
L 123.178058 181.541759 
L 123.422929 181.968784 
L 123.6678 182.837935 
L 124.157543 185.104734 
L 124.647285 185.104734 
L 125.137027 187.519791 
L 125.381898 188.022346 
L 125.626769 190.103867 
L 125.87164 190.103867 
L 126.116511 190.643106 
L 126.361382 192.30973 
L 126.606253 192.30973 
L 127.585738 194.655738 
L 127.830609 195.887093 
L 128.07548 195.887093 
L 128.320351 197.160917 
L 128.565222 197.160917 
L 129.054964 198.480243 
L 129.299835 198.480243 
L 129.789578 199.848445 
L 130.034449 199.848445 
L 130.27932 200.552033 
L 130.524191 200.552033 
L 130.769062 201.269283 
L 131.013933 201.269283 
L 131.503675 202.746969 
L 131.993417 202.746969 
L 132.238289 203.508588 
L 132.972902 203.508588 
L 133.217773 204.286242 
L 133.462644 204.286242 
L 133.707515 205.080622 
L 133.952386 205.080622 
L 134.197257 205.892462 
L 134.442128 205.892462 
L 134.686999 206.722546 
L 135.176742 206.722546 
L 135.421613 207.571715 
L 135.666484 207.571715 
L 135.911355 208.440867 
L 136.645968 208.440867 
L 136.890839 209.330963 
L 137.380581 209.330963 
L 137.625453 210.24304 
L 138.849808 210.24304 
L 139.094679 211.178209 
L 140.808777 211.178209 
L 141.053648 212.137672 
L 143.257488 212.137672 
L 143.502359 213.122723 
L 143.992101 213.122723 
L 144.236972 214.134765 
L 144.971585 214.134765 
L 145.216456 215.175318 
L 146.930554 215.175318 
L 147.175425 216.246038 
L 148.399781 216.246038 
L 148.644652 217.348723 
L 149.624136 217.348723 
L 149.869007 218.485343 
L 150.60362 218.485343 
L 150.848491 219.658051 
L 151.827976 219.658051 
L 152.072847 220.869216 
L 155.0113 220.869216 
L 155.256171 222.121446 
L 157.704882 222.121446 
L 157.949753 223.417621 
L 159.174109 223.417621 
L 159.41898 224.760941 
L 162.847175 224.760941 
L 163.092046 226.154964 
L 164.806144 226.154964 
L 165.051015 227.603668 
L 167.009984 227.603668 
L 167.254855 229.111519 
L 170.68305 229.111519 
L 170.927921 230.683553 
L 173.131761 230.683553 
L 173.376632 232.325478 
L 175.825343 232.325478 
L 176.070214 234.043798 
L 179.74328 234.043798 
L 179.988151 235.845971 
L 184.395831 235.845971 
L 184.640702 237.740603 
L 189.293253 237.740603 
L 189.538124 239.737696 
L 194.680417 239.737696 
L 194.925288 241.848969 
L 200.067581 241.848969 
L 200.312452 244.088274 
L 206.923971 244.088274 
L 207.168843 246.472148 
L 213.29062 246.472148 
L 213.535491 249.020553 
L 218.677784 249.020553 
L 218.922655 251.757896 
L 227.248272 251.757896 
L 227.493143 254.714451 
L 236.798245 254.714451 
L 237.043116 257.928409 
L 246.348217 257.928409 
L 246.593088 261.448903 
L 258.836643 261.448903 
L 259.081514 265.340627 
L 271.325069 265.340627 
L 271.56994 269.691206 
L 289.200658 269.691206 
L 289.445529 274.623484 
L 305.117279 274.623484 
L 305.36215 280.317382 
L 316.871092 280.317382 
L 317.115963 287.051834 
L 336.70565 287.051834 
L 336.950521 295.294137 
L 357.519693 295.294137 
L 357.764564 305.920314 
L 374.90554 305.920314 
L 375.150411 320.897069 
L 395.229841 320.897069 
L 395.474712 346.5 
L 493.66802 346.5 
L 493.66802 346.5 
" style="fill:none;opacity:0.5;stroke:#2c5ebf;stroke-linecap:round;stroke-width:2.0;"/>
   </g>
   <g id="line2d_13">
    <path clip-path="url(#pc6ec77ea5b)" d="M 74.448711 66.603255 
L 74.693582 80.234327 
L 74.938453 89.544535 
L 75.183324 91.089048 
L 75.673066 95.984665 
L 75.917937 96.874761 
L 76.162809 97.219569 
L 76.40768 97.349706 
L 76.652551 98.229205 
L 76.897422 101.241431 
L 77.142293 101.580974 
L 77.876906 106.694694 
L 78.121777 109.423428 
L 78.366648 109.604641 
L 78.611519 109.604641 
L 78.856391 109.908653 
L 79.591004 110.338517 
L 79.835875 111.276855 
L 80.080746 111.467417 
L 80.570488 112.43526 
L 81.06023 112.500693 
L 81.305101 112.829611 
L 81.549973 114.727721 
L 81.794844 115.00702 
L 82.039715 116.218185 
L 82.529457 116.875839 
L 82.774328 117.097685 
L 83.26407 117.17193 
L 83.508941 117.620566 
L 83.753812 119.078299 
L 83.998683 119.70972 
L 84.243555 121.254075 
L 84.488426 123.832136 
L 84.733297 124.733089 
L 85.223039 125.007716 
L 85.46791 125.099715 
L 85.712781 126.221944 
L 85.957652 128.271827 
L 86.202523 128.473121 
L 86.447394 129.083667 
L 86.692265 129.392767 
L 87.182008 129.704475 
L 87.426879 129.913752 
L 87.67175 129.913752 
L 88.406363 130.442191 
L 88.651234 130.548792 
L 88.896105 130.870453 
L 89.385848 131.96335 
L 89.630719 132.074439 
L 90.365332 133.089572 
L 90.855074 133.089572 
L 91.099945 133.204106 
L 91.589687 134.251216 
L 92.07943 134.966152 
L 92.324301 134.966152 
L 92.569172 135.328877 
L 93.303785 135.572688 
L 93.548656 135.572688 
L 94.52814 136.564351 
L 94.773012 136.564351 
L 95.262754 136.816483 
L 95.507625 136.816483 
L 95.752496 136.943198 
L 95.997367 136.943198 
L 96.242238 137.32597 
L 96.487109 137.32597 
L 97.221722 137.972873 
L 97.711465 140.539929 
L 98.201207 141.389098 
L 98.446078 141.389098 
L 98.690949 141.966253 
L 99.425562 142.405117 
L 99.670433 142.405117 
L 99.915304 142.552571 
L 100.160176 142.552571 
L 100.405047 143.148345 
L 100.649918 143.298803 
L 100.894789 145.312651 
L 101.13966 145.472207 
L 101.384531 146.444296 
L 101.629402 146.444296 
L 101.874273 146.608827 
L 102.119144 146.608827 
L 102.364015 147.44266 
L 102.608886 147.781536 
L 102.853758 148.817227 
L 103.098629 149.34617 
L 103.3435 149.34617 
L 104.078113 150.24493 
L 104.322984 150.24493 
L 104.567855 150.427336 
L 104.812726 150.427336 
L 105.057597 150.610648 
L 105.54734 151.166105 
L 105.792211 151.166105 
L 106.037082 151.35313 
L 106.281953 151.730043 
L 106.771695 151.730043 
L 107.016566 152.884425 
L 107.261437 152.884425 
L 107.506308 153.277378 
L 107.751179 153.277378 
L 108.485793 154.892378 
L 108.730664 154.892378 
L 108.975535 155.099309 
L 109.220406 156.151723 
L 109.465277 156.58123 
L 109.710148 156.58123 
L 109.955019 157.235004 
L 110.19989 157.235004 
L 110.444761 157.677371 
L 110.934504 158.807038 
L 111.913988 159.736325 
L 112.158859 159.736325 
L 113.138343 160.689596 
L 113.383214 161.17562 
L 113.628086 161.17562 
L 114.60757 162.167282 
L 115.831925 164.500936 
L 116.81141 165.587403 
L 117.056281 165.587403 
L 117.301152 166.14286 
L 117.546023 166.14286 
L 118.035765 167.27948 
L 118.525507 167.27948 
L 118.770378 167.569185 
L 119.01525 168.155502 
L 119.260121 169.052807 
L 119.504992 169.052807 
L 119.749863 170.284162 
L 120.239605 170.915583 
L 120.484476 170.915583 
L 120.729347 171.883425 
L 120.974218 172.211758 
L 121.219089 172.877312 
L 121.463961 172.877312 
L 121.708832 173.214641 
L 121.953703 173.214641 
L 122.198574 173.555078 
L 122.443445 174.245514 
L 122.688316 174.245514 
L 122.933187 174.595632 
L 123.422929 176.030268 
L 123.912671 176.030268 
L 124.402414 176.769037 
L 124.647285 176.769037 
L 124.892156 177.144037 
L 125.137027 178.292437 
L 125.626769 179.078365 
L 126.116511 179.078365 
L 126.606253 179.88138 
L 126.851125 179.88138 
L 127.095996 181.541759 
L 127.340867 181.541759 
L 127.585738 181.968784 
L 127.830609 184.181255 
L 128.07548 184.640108 
L 128.320351 185.575278 
L 128.565222 186.051894 
L 129.054964 186.051894 
L 129.299835 186.53474 
L 129.789578 188.531833 
L 130.034449 191.745792 
L 130.27932 191.745792 
L 130.524191 192.30973 
L 130.769062 192.30973 
L 131.258804 193.464112 
L 131.503675 193.464112 
L 132.48316 199.848445 
L 132.972902 201.269283 
L 133.217773 201.269283 
L 133.952386 203.508588 
L 134.442128 203.508588 
L 134.686999 204.286242 
L 134.931871 204.286242 
L 135.421613 205.892462 
L 136.156226 205.892462 
L 136.401097 206.722546 
L 136.890839 206.722546 
L 137.13571 207.571715 
L 137.625453 207.571715 
L 137.870324 208.440867 
L 138.360066 208.440867 
L 138.604937 209.330963 
L 138.849808 209.330963 
L 139.094679 210.24304 
L 139.584421 210.24304 
L 139.829292 211.178209 
L 140.808777 211.178209 
L 141.053648 212.137672 
L 142.033132 212.137672 
L 142.278003 213.122723 
L 143.257488 213.122723 
L 143.502359 214.134765 
L 143.992101 214.134765 
L 144.236972 215.175318 
L 144.481843 215.175318 
L 144.726714 216.246038 
L 145.216456 216.246038 
L 145.461327 217.348723 
L 146.195941 217.348723 
L 146.685683 219.658051 
L 148.399781 219.658051 
L 148.644652 220.869216 
L 148.889523 220.869216 
L 149.134394 222.121446 
L 151.338234 222.121446 
L 151.583105 223.417621 
L 153.052331 223.417621 
L 153.297202 224.760941 
L 155.501042 224.760941 
L 155.745913 226.154964 
L 156.970269 226.154964 
L 157.21514 227.603668 
L 159.174109 227.603668 
L 159.41898 229.111519 
L 162.357433 229.111519 
L 162.602304 230.683553 
L 164.806144 230.683553 
L 165.051015 232.325478 
L 167.499726 232.325478 
L 167.744597 234.043798 
L 171.907405 234.043798 
L 172.152276 235.845971 
L 175.09073 235.845971 
L 175.335601 237.740603 
L 178.518925 237.740603 
L 178.763796 239.737696 
L 182.926604 239.737696 
L 183.171476 241.848969 
L 188.068897 241.848969 
L 188.313769 244.088274 
L 193.456061 244.088274 
L 193.700933 246.472148 
L 198.843225 246.472148 
L 199.088097 249.020553 
L 208.393198 249.020553 
L 208.638069 251.757896 
L 218.188042 251.757896 
L 218.432913 254.714451 
L 227.248272 254.714451 
L 227.493143 257.928409 
L 237.777729 257.928409 
L 238.0226 261.448903 
L 249.28667 261.448903 
L 249.531541 265.340627 
L 259.816127 265.340627 
L 260.060998 269.691206 
L 278.671201 269.691206 
L 278.916072 274.623484 
L 297.526275 274.623484 
L 297.771146 280.317382 
L 318.095447 280.317382 
L 318.340318 287.051834 
L 342.827427 287.051834 
L 343.072298 295.294137 
L 364.376083 295.294137 
L 364.620954 305.920314 
L 391.311903 305.920314 
L 391.556775 320.897069 
L 423.390016 320.897069 
L 423.634888 346.5 
L 518.155129 346.5 
L 518.155129 346.5 
" style="fill:none;opacity:0.5;stroke:#2c5ebf;stroke-linecap:round;stroke-width:2.0;"/>
   </g>
   <g id="line2d_14">
    <path clip-path="url(#pc6ec77ea5b)" d="M 125.969589 346.5 
L 125.969589 39.6 
" style="fill:none;stroke:#2c5ebf;stroke-linecap:round;stroke-width:3.0;"/>
   </g>
   <g id="line2d_15">
    <path clip-path="url(#pc6ec77ea5b)" d="M 74.448711 39.6 
L 74.938453 57.10469 
L 75.183324 60.341246 
L 75.917937 63.227398 
L 76.162809 63.748628 
L 76.40768 64.741719 
L 76.897422 78.576952 
L 77.142293 85.358488 
L 77.387164 86.99613 
L 77.632035 90.290767 
L 77.876906 91.01576 
L 78.121777 91.272907 
L 78.366648 92.09294 
L 78.856391 95.568232 
L 79.346133 96.363511 
L 79.591004 96.575673 
L 79.835875 99.727786 
L 80.325617 99.820593 
L 80.570488 100.90498 
L 80.815359 101.000796 
L 81.794844 104.786074 
L 82.039715 105.267522 
L 82.284586 106.029141 
L 82.529457 106.029141 
L 82.774328 106.304999 
L 83.26407 108.766483 
L 83.508941 109.243099 
L 83.753812 110.773443 
L 83.998683 111.467417 
L 84.243555 111.531157 
L 84.488426 112.239652 
L 85.46791 119.70972 
L 85.712781 119.789412 
L 86.202523 126.412343 
L 86.447394 126.507911 
L 86.692265 126.989499 
L 86.937137 127.086574 
L 87.916621 134.966152 
L 88.161492 135.086665 
L 88.651234 136.313928 
L 88.896105 140.820821 
L 89.140976 141.246207 
L 89.385848 146.444296 
L 89.630719 147.781536 
L 89.87559 151.730043 
L 90.365332 152.689506 
L 90.855074 153.674557 
L 91.589687 159.736325 
L 92.324301 163.969456 
L 92.814043 164.500936 
L 93.058914 166.992029 
L 93.548656 166.992029 
L 93.793527 167.569185 
L 94.038398 170.284162 
L 94.283269 170.915583 
L 94.52814 171.235387 
L 95.262754 174.949101 
L 95.507625 174.949101 
L 95.997367 179.47769 
L 96.242238 179.47769 
L 96.73198 182.837935 
L 96.976851 186.051894 
L 97.221722 187.023982 
L 97.466594 187.519791 
L 97.956336 187.519791 
L 98.446078 190.103867 
L 98.690949 190.643106 
L 98.93582 191.745792 
L 99.180691 192.30973 
L 99.670433 192.30973 
L 99.915304 193.464112 
L 100.160176 193.464112 
L 100.649918 195.887093 
L 100.894789 195.887093 
L 101.13966 197.160917 
L 101.384531 197.160917 
L 101.629402 198.480243 
L 101.874273 198.480243 
L 102.119144 199.15801 
L 102.364015 199.15801 
L 102.608886 199.848445 
L 102.853758 199.848445 
L 103.098629 200.552033 
L 103.3435 200.552033 
L 104.078113 202.746969 
L 104.322984 202.746969 
L 105.302468 205.892462 
L 105.54734 205.892462 
L 105.792211 206.722546 
L 106.771695 206.722546 
L 107.016566 207.571715 
L 107.261437 207.571715 
L 107.751179 209.330963 
L 108.240922 209.330963 
L 108.485793 210.24304 
L 108.975535 210.24304 
L 109.220406 211.178209 
L 110.934504 211.178209 
L 111.424246 213.122723 
L 112.40373 213.122723 
L 112.893472 215.175318 
L 113.872957 215.175318 
L 114.117828 216.246038 
L 114.852441 216.246038 
L 115.097312 217.348723 
L 115.587054 217.348723 
L 115.831925 218.485343 
L 116.321668 218.485343 
L 116.566539 219.658051 
L 117.056281 219.658051 
L 117.301152 220.869216 
L 117.790894 220.869216 
L 118.035765 222.121446 
L 118.770378 222.121446 
L 119.01525 223.417621 
L 119.260121 223.417621 
L 119.504992 224.760941 
L 119.749863 224.760941 
L 119.994734 226.154964 
L 121.219089 226.154964 
L 121.463961 227.603668 
L 122.198574 227.603668 
L 122.443445 229.111519 
L 122.688316 229.111519 
L 122.933187 230.683553 
L 123.422929 230.683553 
L 123.6678 232.325478 
L 124.647285 232.325478 
L 124.892156 234.043798 
L 126.361382 234.043798 
L 126.606253 235.845971 
L 128.07548 235.845971 
L 128.320351 237.740603 
L 130.524191 237.740603 
L 130.769062 239.737696 
L 132.48316 239.737696 
L 132.728031 241.848969 
L 134.931871 241.848969 
L 135.176742 244.088274 
L 136.645968 244.088274 
L 136.890839 246.472148 
L 139.33955 246.472148 
L 139.584421 249.020553 
L 140.808777 249.020553 
L 141.053648 251.757896 
L 145.461327 251.757896 
L 145.706199 254.714451 
L 147.910038 254.714451 
L 148.154909 257.928409 
L 149.869007 257.928409 
L 150.113878 261.448903 
L 153.297202 261.448903 
L 153.542074 265.340627 
L 156.725398 265.340627 
L 156.970269 269.691206 
L 161.377948 269.691206 
L 161.62282 274.623484 
L 166.030499 274.623484 
L 166.27537 280.317382 
L 171.172792 280.317382 
L 171.417663 287.051834 
L 176.315085 287.051834 
L 176.559956 295.294137 
L 182.436862 295.294137 
L 182.681733 305.920314 
L 194.680417 305.920314 
L 194.925288 320.897069 
L 211.08678 320.897069 
L 211.331651 346.5 
L 268.876358 346.5 
L 268.876358 346.5 
" style="fill:none;opacity:0.5;stroke:#ff1313;stroke-linecap:round;stroke-width:2.0;"/>
   </g>
   <g id="line2d_16">
    <path clip-path="url(#pc6ec77ea5b)" d="M 74.448711 49.035272 
L 74.693582 50.253487 
L 74.938453 61.115166 
L 75.183324 64.795681 
L 75.428195 72.626274 
L 75.917937 76.271585 
L 76.162809 77.04088 
L 76.40768 77.242036 
L 76.897422 79.183142 
L 77.142293 80.016247 
L 77.632035 80.398736 
L 77.876906 80.868576 
L 78.366648 83.401091 
L 78.856391 90.97917 
L 79.346133 94.027268 
L 79.591004 94.466764 
L 80.080746 96.110516 
L 80.325617 96.874761 
L 80.570488 98.902851 
L 81.06023 99.084584 
L 81.305101 101.096862 
L 81.794844 101.144989 
L 82.039715 102.12093 
L 82.284586 102.468694 
L 82.529457 103.225114 
L 82.774328 105.213716 
L 83.019199 105.267522 
L 83.26407 106.471508 
L 83.508941 107.032023 
L 83.998683 109.604641 
L 84.243555 110.400337 
L 84.488426 111.723039 
L 84.978168 111.915923 
L 85.223039 112.369942 
L 85.712781 113.563708 
L 85.957652 116.14583 
L 86.202523 116.290682 
L 86.447394 119.55085 
L 87.182008 122.178604 
L 87.67175 122.865828 
L 88.651234 124.279866 
L 89.385848 128.372337 
L 89.630719 128.372337 
L 89.87559 128.57418 
L 90.120461 128.981206 
L 90.365332 130.870453 
L 90.610203 131.086461 
L 90.855074 134.251216 
L 91.099945 135.086665 
L 91.344816 137.842583 
L 91.589687 138.23484 
L 91.834558 141.246207 
L 92.07943 141.821117 
L 92.569172 142.552571 
L 92.814043 143.601569 
L 93.058914 147.274381 
L 93.548656 147.611709 
L 93.793527 147.611709 
L 94.038398 147.781536 
L 94.52814 148.817227 
L 94.773012 154.076052 
L 95.017883 156.58123 
L 95.262754 156.797872 
L 95.997367 157.900557 
L 96.242238 159.972346 
L 96.487109 159.972346 
L 96.73198 162.167282 
L 96.976851 162.928902 
L 97.221722 163.186305 
L 97.466594 166.423753 
L 98.201207 168.751277 
L 98.446078 169.356819 
L 98.93582 169.972453 
L 99.180691 169.972453 
L 99.425562 173.898683 
L 99.670433 174.245514 
L 99.915304 174.949101 
L 100.160176 175.305985 
L 100.405047 177.144037 
L 100.649918 177.144037 
L 100.894789 177.522884 
L 101.13966 177.522884 
L 101.384531 177.905656 
L 101.629402 178.683311 
L 102.119144 179.47769 
L 102.364015 179.47769 
L 102.608886 180.28953 
L 102.853758 180.28953 
L 103.098629 181.119615 
L 103.3435 181.119615 
L 103.588371 184.181255 
L 103.833242 184.181255 
L 104.078113 185.575278 
L 104.322984 186.051894 
L 105.057597 186.051894 
L 105.302468 187.023982 
L 105.54734 187.023982 
L 105.792211 187.519791 
L 106.281953 189.572387 
L 106.526824 189.572387 
L 106.771695 190.103867 
L 107.016566 190.103867 
L 107.506308 191.190334 
L 107.751179 191.190334 
L 107.99605 192.30973 
L 108.240922 192.882411 
L 108.485793 192.882411 
L 109.220406 194.655738 
L 109.465277 194.655738 
L 109.710148 195.266285 
L 109.955019 197.81469 
L 110.689632 197.81469 
L 110.934504 198.480243 
L 111.179375 199.848445 
L 111.424246 199.848445 
L 111.669117 201.269283 
L 111.913988 201.269283 
L 112.40373 202.746969 
L 112.648601 202.746969 
L 112.893472 203.508588 
L 113.383214 203.508588 
L 113.628086 204.286242 
L 114.117828 204.286242 
L 114.362699 205.080622 
L 115.587054 205.080622 
L 115.831925 205.892462 
L 116.076796 205.892462 
L 116.321668 206.722546 
L 116.566539 206.722546 
L 116.81141 207.571715 
L 117.301152 207.571715 
L 117.546023 208.440867 
L 117.790894 208.440867 
L 118.035765 209.330963 
L 118.770378 209.330963 
L 119.01525 210.24304 
L 119.749863 210.24304 
L 119.994734 211.178209 
L 120.484476 211.178209 
L 120.974218 213.122723 
L 121.708832 213.122723 
L 121.953703 214.134765 
L 122.688316 214.134765 
L 122.933187 215.175318 
L 123.422929 215.175318 
L 123.6678 216.246038 
L 125.381898 216.246038 
L 125.626769 217.348723 
L 126.361382 217.348723 
L 126.606253 218.485343 
L 128.07548 218.485343 
L 128.320351 219.658051 
L 129.789578 219.658051 
L 130.034449 220.869216 
L 130.769062 220.869216 
L 131.013933 223.417621 
L 132.238289 223.417621 
L 132.48316 224.760941 
L 134.197257 224.760941 
L 134.442128 226.154964 
L 135.421613 226.154964 
L 135.666484 227.603668 
L 137.870324 227.603668 
L 138.115195 229.111519 
L 139.584421 229.111519 
L 139.829292 230.683553 
L 142.278003 230.683553 
L 142.522874 232.325478 
L 144.481843 232.325478 
L 144.726714 234.043798 
L 145.461327 234.043798 
L 145.706199 235.845971 
L 149.134394 235.845971 
L 149.379265 237.740603 
L 151.338234 237.740603 
L 151.583105 239.737696 
L 154.766429 239.737696 
L 155.0113 241.848969 
L 156.970269 241.848969 
L 157.21514 244.088274 
L 160.153593 244.088274 
L 160.398464 246.472148 
L 163.581788 246.472148 
L 163.826659 249.020553 
L 168.724081 249.020553 
L 168.968952 251.757896 
L 171.907405 251.757896 
L 172.152276 254.714451 
L 175.825343 254.714451 
L 176.070214 257.928409 
L 182.681733 257.928409 
L 182.926604 261.448903 
L 186.599671 261.448903 
L 186.844542 265.340627 
L 191.741964 265.340627 
L 191.986835 269.691206 
L 195.170159 269.691206 
L 195.41503 274.623484 
L 200.557323 274.623484 
L 200.802194 280.317382 
L 207.413714 280.317382 
L 207.658585 287.051834 
L 214.759846 287.051834 
L 215.004717 295.294137 
L 223.820077 295.294137 
L 224.064948 305.920314 
L 235.81876 305.920314 
L 236.063631 320.897069 
L 256.387932 320.897069 
L 256.632803 346.5 
L 326.176193 346.5 
L 326.176193 346.5 
" style="fill:none;opacity:0.5;stroke:#ff1313;stroke-linecap:round;stroke-width:2.0;"/>
   </g>
   <g id="line2d_17">
    <path clip-path="url(#pc6ec77ea5b)" d="M 74.448711 42.811477 
L 74.693582 48.672853 
L 75.183324 75.566144 
L 75.428195 76.100069 
L 75.673066 77.596717 
L 75.917937 78.264585 
L 76.162809 78.264585 
L 76.652551 79.396345 
L 77.632035 83.880802 
L 78.121777 89.43915 
L 78.611519 91.125747 
L 78.856391 95.775861 
L 79.346133 98.767135 
L 79.591004 102.668896 
L 79.835875 102.819763 
L 80.080746 103.123358 
L 80.325617 105.429409 
L 80.570488 105.646368 
L 81.06023 106.638771 
L 81.549973 108.825725 
L 81.794844 109.36322 
L 82.039715 109.544138 
L 82.529457 109.604641 
L 82.774328 112.43526 
L 83.019199 113.362049 
L 83.26407 115.500935 
L 83.508941 115.786166 
L 83.753812 116.582102 
L 83.998683 117.998637 
L 84.243555 118.534523 
L 84.488426 118.534523 
L 84.733297 120.352122 
L 85.223039 121.254075 
L 85.46791 122.952637 
L 85.712781 123.47782 
L 85.957652 123.47782 
L 86.202523 125.563174 
L 86.692265 125.844067 
L 86.937137 128.271827 
L 87.182008 128.57418 
L 87.426879 129.186413 
L 88.161492 129.60028 
L 88.406363 130.124221 
L 88.896105 132.185864 
L 89.87559 132.634954 
L 90.120461 132.975392 
L 90.365332 134.251216 
L 91.099945 135.941449 
L 91.344816 136.065192 
L 91.589687 136.438927 
L 91.834558 137.454448 
L 92.07943 137.972873 
L 92.324301 138.103625 
L 92.569172 138.103625 
L 92.814043 138.23484 
L 93.058914 138.23484 
L 93.793527 139.301694 
L 94.038398 139.437243 
L 94.283269 139.709844 
L 94.52814 141.389098 
L 94.773012 141.532543 
L 95.017883 141.821117 
L 95.262754 143.753887 
L 95.752496 144.214649 
L 95.997367 144.369522 
L 96.242238 144.369522 
L 96.73198 145.312651 
L 96.976851 145.312651 
L 97.221722 146.280494 
L 97.466594 151.541106 
L 98.446078 152.884425 
L 98.690949 152.884425 
L 98.93582 153.080379 
L 99.180691 153.080379 
L 99.425562 153.277378 
L 99.670433 154.892378 
L 100.160176 155.727153 
L 100.649918 157.235004 
L 100.894789 157.455525 
L 101.13966 159.268759 
L 101.629402 159.736325 
L 101.874273 160.209886 
L 102.364015 161.42105 
L 103.098629 166.14286 
L 103.3435 166.423753 
L 103.588371 167.27948 
L 104.078113 167.86118 
L 104.567855 169.356819 
L 105.54734 170.598523 
L 105.792211 172.543036 
L 106.037082 173.214641 
L 106.281953 173.214641 
L 106.526824 173.555078 
L 106.771695 174.245514 
L 107.016566 174.595632 
L 107.261437 175.666351 
L 107.751179 175.666351 
L 108.240922 176.397805 
L 108.485793 176.397805 
L 108.975535 177.144037 
L 109.220406 177.144037 
L 109.465277 178.683311 
L 109.710148 178.683311 
L 109.955019 179.078365 
L 110.444761 179.078365 
L 110.934504 179.88138 
L 111.179375 179.88138 
L 111.424246 181.119615 
L 111.913988 181.119615 
L 112.40373 181.968784 
L 112.648601 181.968784 
L 112.893472 182.837935 
L 113.138343 182.837935 
L 113.383214 183.280302 
L 113.628086 183.280302 
L 114.117828 184.181255 
L 114.60757 184.181255 
L 114.852441 184.640108 
L 115.097312 184.640108 
L 115.342183 185.104734 
L 115.831925 185.104734 
L 116.076796 186.051894 
L 116.81141 186.051894 
L 117.056281 186.53474 
L 117.301152 186.53474 
L 117.546023 187.023982 
L 117.790894 187.023982 
L 118.280636 188.022346 
L 118.770378 188.022346 
L 119.01525 189.048446 
L 119.260121 189.048446 
L 119.504992 189.572387 
L 119.749863 189.572387 
L 119.994734 190.103867 
L 120.484476 190.103867 
L 120.729347 190.643106 
L 121.708832 190.643106 
L 122.443445 192.30973 
L 122.688316 193.464112 
L 123.178058 193.464112 
L 123.6678 194.655738 
L 123.912671 196.518514 
L 124.402414 197.81469 
L 125.137027 197.81469 
L 125.381898 198.480243 
L 125.626769 198.480243 
L 125.87164 199.15801 
L 126.116511 199.15801 
L 126.361382 199.848445 
L 127.340867 199.848445 
L 127.585738 200.552033 
L 127.830609 200.552033 
L 128.07548 201.269283 
L 128.320351 201.269283 
L 128.565222 202.000737 
L 129.544707 202.000737 
L 129.789578 202.746969 
L 130.524191 202.746969 
L 131.013933 204.286242 
L 131.993417 204.286242 
L 132.238289 205.080622 
L 132.972902 205.080622 
L 133.217773 205.892462 
L 133.707515 205.892462 
L 133.952386 206.722546 
L 134.686999 206.722546 
L 134.931871 207.571715 
L 135.421613 207.571715 
L 135.666484 208.440867 
L 135.911355 208.440867 
L 136.156226 209.330963 
L 137.380581 209.330963 
L 137.625453 210.24304 
L 138.360066 210.24304 
L 138.604937 211.178209 
L 139.584421 211.178209 
L 139.829292 212.137672 
L 140.319035 212.137672 
L 140.563906 213.122723 
L 141.053648 213.122723 
L 141.298519 214.134765 
L 142.033132 214.134765 
L 142.278003 215.175318 
L 143.012617 215.175318 
L 143.257488 216.246038 
L 144.236972 216.246038 
L 144.481843 217.348723 
L 145.216456 217.348723 
L 145.461327 218.485343 
L 147.665167 218.485343 
L 147.910038 219.658051 
L 148.644652 219.658051 
L 148.889523 220.869216 
L 149.624136 220.869216 
L 149.869007 222.121446 
L 151.338234 222.121446 
L 151.583105 223.417621 
L 153.052331 223.417621 
L 153.297202 224.760941 
L 155.256171 224.760941 
L 155.501042 226.154964 
L 156.480527 226.154964 
L 156.725398 227.603668 
L 158.194624 227.603668 
L 158.439495 229.111519 
L 160.643335 229.111519 
L 160.888206 230.683553 
L 163.092046 230.683553 
L 163.336917 232.325478 
L 165.051015 232.325478 
L 165.295886 234.043798 
L 168.234339 234.043798 
L 168.47921 235.845971 
L 169.948437 235.845971 
L 170.193308 237.740603 
L 172.152276 237.740603 
L 172.397148 239.737696 
L 174.600987 239.737696 
L 174.845858 241.848969 
L 178.029183 241.848969 
L 178.274054 244.088274 
L 183.416347 244.088274 
L 183.661218 246.472148 
L 188.068897 246.472148 
L 188.313769 249.020553 
L 193.21119 249.020553 
L 193.456061 251.757896 
L 197.129128 251.757896 
L 197.373999 254.714451 
L 203.250905 254.714451 
L 203.495776 257.928409 
L 208.88294 257.928409 
L 209.127811 261.448903 
L 216.718815 261.448903 
L 216.963686 265.340627 
L 225.044432 265.340627 
L 225.289303 269.691206 
L 232.880307 269.691206 
L 233.125178 274.623484 
L 243.654635 274.623484 
L 243.899506 280.317382 
L 259.081514 280.317382 
L 259.326385 287.051834 
L 272.059682 287.051834 
L 272.304553 295.294137 
L 289.200658 295.294137 
L 289.445529 305.920314 
L 310.014701 305.920314 
L 310.259572 320.897069 
L 336.950521 320.897069 
L 337.195392 346.5 
L 423.634888 346.5 
L 423.634888 346.5 
" style="fill:none;opacity:0.5;stroke:#ff1313;stroke-linecap:round;stroke-width:2.0;"/>
   </g>
   <g id="line2d_18">
    <path clip-path="url(#pc6ec77ea5b)" d="M 74.448711 69.944601 
L 74.693582 72.249925 
L 74.938453 78.368414 
L 75.183324 78.472536 
L 75.673066 80.508751 
L 75.917937 85.139275 
L 76.162809 85.992075 
L 76.40768 86.280774 
L 76.652551 86.963311 
L 76.897422 90.14746 
L 77.387164 91.83004 
L 77.632035 93.829212 
L 77.876906 94.506979 
L 78.121777 99.267216 
L 78.366648 99.867084 
L 78.611519 102.870189 
L 78.856391 103.945361 
L 79.101262 104.206034 
L 79.591004 105.106341 
L 80.325617 111.915923 
L 80.570488 113.161484 
L 80.815359 113.698762 
L 81.305101 116.728678 
L 81.549973 117.246326 
L 81.794844 118.611717 
L 82.039715 118.76659 
L 82.284586 120.352122 
L 82.529457 120.841364 
L 82.774328 122.606619 
L 83.019199 123.214295 
L 83.508941 127.575816 
L 83.753812 128.879028 
L 84.488426 129.289446 
L 84.978168 133.782165 
L 85.223039 135.086665 
L 85.712781 135.450581 
L 85.957652 135.6952 
L 86.202523 136.438927 
L 86.692265 136.816483 
L 86.937137 137.454448 
L 87.182008 139.16664 
L 87.426879 139.573292 
L 88.161492 142.700616 
L 88.406363 142.849257 
L 88.651234 144.214649 
L 89.630719 146.774094 
L 90.120461 147.106865 
L 90.855074 148.123549 
L 91.099945 148.123549 
L 91.344816 148.46876 
L 91.589687 149.882797 
L 92.324301 151.35313 
L 92.569172 151.541106 
L 93.058914 152.110843 
L 93.303785 152.302725 
L 93.793527 153.874759 
L 94.038398 154.076052 
L 94.283269 154.076052 
L 95.017883 156.797872 
L 95.262754 158.351017 
L 95.507625 158.807038 
L 95.997367 161.42105 
L 96.242238 164.23424 
L 96.73198 164.23424 
L 96.976851 164.769571 
L 97.221722 164.769571 
L 97.466594 165.040175 
L 97.711465 165.587403 
L 97.956336 166.423753 
L 98.201207 166.706798 
L 98.93582 168.155502 
L 99.180691 168.155502 
L 99.425562 168.751277 
L 99.670433 168.751277 
L 99.915304 169.356819 
L 100.160176 169.356819 
L 100.405047 169.663353 
L 100.649918 170.598523 
L 100.894789 172.211758 
L 101.13966 172.543036 
L 101.629402 174.949101 
L 101.874273 176.397805 
L 102.119144 177.144037 
L 102.364015 177.144037 
L 102.608886 177.522884 
L 102.853758 178.292437 
L 103.098629 178.292437 
L 103.3435 179.078365 
L 103.588371 179.47769 
L 104.078113 179.47769 
L 104.322984 182.400803 
L 104.812726 183.280302 
L 105.057597 183.280302 
L 106.281953 185.575278 
L 106.526824 186.53474 
L 107.016566 186.53474 
L 107.261437 187.023982 
L 107.506308 187.023982 
L 107.751179 187.519791 
L 107.99605 187.519791 
L 108.730664 189.048446 
L 108.975535 189.048446 
L 109.465277 190.103867 
L 109.710148 190.103867 
L 110.444761 191.745792 
L 110.689632 191.745792 
L 110.934504 193.464112 
L 111.669117 195.266285 
L 112.158859 195.266285 
L 112.40373 196.518514 
L 112.893472 196.518514 
L 113.383214 197.81469 
L 114.362699 197.81469 
L 114.60757 199.15801 
L 114.852441 199.848445 
L 115.097312 199.848445 
L 115.342183 201.269283 
L 116.076796 201.269283 
L 116.321668 202.746969 
L 117.301152 202.746969 
L 117.546023 203.508588 
L 118.035765 203.508588 
L 118.280636 205.080622 
L 118.770378 205.080622 
L 119.01525 205.892462 
L 119.504992 205.892462 
L 119.749863 206.722546 
L 119.994734 206.722546 
L 120.729347 209.330963 
L 121.219089 209.330963 
L 121.463961 210.24304 
L 121.708832 210.24304 
L 121.953703 211.178209 
L 122.688316 211.178209 
L 122.933187 212.137672 
L 123.178058 212.137672 
L 123.422929 213.122723 
L 123.912671 213.122723 
L 124.157543 214.134765 
L 124.892156 214.134765 
L 125.381898 218.485343 
L 126.361382 218.485343 
L 126.606253 219.658051 
L 127.830609 219.658051 
L 128.07548 220.869216 
L 128.810093 220.869216 
L 129.054964 222.121446 
L 129.544707 222.121446 
L 129.789578 223.417621 
L 131.013933 223.417621 
L 131.258804 224.760941 
L 132.728031 224.760941 
L 132.972902 226.154964 
L 134.197257 226.154964 
L 134.442128 227.603668 
L 136.156226 227.603668 
L 136.401097 229.111519 
L 138.115195 229.111519 
L 138.360066 230.683553 
L 139.829292 230.683553 
L 140.074163 232.325478 
L 141.053648 232.325478 
L 141.298519 234.043798 
L 143.012617 234.043798 
L 143.257488 235.845971 
L 144.971585 235.845971 
L 145.216456 237.740603 
L 147.420296 237.740603 
L 147.665167 239.737696 
L 150.848491 239.737696 
L 151.093363 241.848969 
L 155.0113 241.848969 
L 155.256171 244.088274 
L 157.460011 244.088274 
L 157.704882 246.472148 
L 161.377948 246.472148 
L 161.62282 249.020553 
L 164.561273 249.020553 
L 164.806144 251.757896 
L 167.989468 251.757896 
L 168.234339 254.714451 
L 171.172792 254.714451 
L 171.417663 257.928409 
L 176.315085 257.928409 
L 176.559956 261.448903 
L 182.436862 261.448903 
L 182.681733 265.340627 
L 190.027866 265.340627 
L 190.272737 269.691206 
L 197.373999 269.691206 
L 197.61887 274.623484 
L 204.965003 274.623484 
L 205.209874 280.317382 
L 214.514975 280.317382 
L 214.759846 287.051834 
L 227.248272 287.051834 
L 227.493143 295.294137 
L 239.981569 295.294137 
L 240.22644 305.920314 
L 258.591772 305.920314 
L 258.836643 320.897069 
L 285.282721 320.897069 
L 285.527592 346.5 
L 355.560724 346.5 
L 355.560724 346.5 
" style="fill:none;opacity:0.5;stroke:#ff1313;stroke-linecap:round;stroke-width:2.0;"/>
   </g>
   <g id="line2d_19">
    <path clip-path="url(#pc6ec77ea5b)" d="M 74.448711 78.734132 
L 74.693582 83.941206 
L 75.183324 98.051622 
L 75.428195 100.053636 
L 75.917937 107.831314 
L 76.162809 109.423428 
L 76.40768 109.786748 
L 76.652551 117.395567 
L 76.897422 121.420459 
L 77.142293 122.093593 
L 77.387164 125.563174 
L 77.632035 125.563174 
L 77.876906 126.412343 
L 78.121777 126.412343 
L 78.366648 130.018837 
L 78.611519 131.96335 
L 79.101262 133.549855 
L 79.346133 134.726299 
L 79.591004 134.846031 
L 79.835875 135.328877 
L 80.080746 138.23484 
L 80.325617 138.23484 
L 80.570488 141.532543 
L 80.815359 141.676548 
L 81.06023 142.405117 
L 81.305101 142.405117 
L 81.794844 142.849257 
L 82.039715 145.793403 
L 82.284586 145.955054 
L 82.529457 146.444296 
L 82.774328 146.444296 
L 83.508941 147.44266 
L 83.753812 151.541106 
L 84.243555 153.277378 
L 84.488426 155.307407 
L 84.733297 156.365852 
L 85.223039 156.365852 
L 85.46791 156.797872 
L 85.712781 158.351017 
L 86.202523 159.037177 
L 86.447394 159.972346 
L 86.692265 161.668123 
L 87.182008 162.67328 
L 87.67175 166.423753 
L 88.161492 169.972453 
L 88.406363 169.972453 
L 88.651234 170.284162 
L 88.896105 171.883425 
L 89.140976 171.883425 
L 89.385848 173.898683 
L 89.630719 174.245514 
L 89.87559 174.245514 
L 91.099945 176.030268 
L 91.344816 176.030268 
L 92.07943 177.144037 
L 92.324301 178.292437 
L 92.569172 180.28953 
L 93.058914 180.28953 
L 93.793527 181.541759 
L 94.038398 183.280302 
L 95.017883 185.104734 
L 95.262754 185.104734 
L 95.507625 186.53474 
L 96.242238 188.022346 
L 96.73198 190.103867 
L 96.976851 191.745792 
L 97.466594 192.882411 
L 97.711465 194.655738 
L 97.956336 194.655738 
L 98.201207 195.887093 
L 98.690949 195.887093 
L 98.93582 196.518514 
L 99.180691 196.518514 
L 99.425562 197.81469 
L 99.670433 198.480243 
L 99.915304 198.480243 
L 100.160176 201.269283 
L 100.405047 202.746969 
L 100.649918 203.508588 
L 100.894789 205.080622 
L 101.13966 205.892462 
L 101.384531 205.892462 
L 101.629402 207.571715 
L 101.874273 207.571715 
L 102.608886 210.24304 
L 102.853758 210.24304 
L 103.098629 212.137672 
L 103.3435 212.137672 
L 103.833242 214.134765 
L 104.078113 214.134765 
L 104.322984 215.175318 
L 104.567855 215.175318 
L 104.812726 216.246038 
L 105.057597 216.246038 
L 105.302468 217.348723 
L 106.037082 217.348723 
L 106.526824 219.658051 
L 106.771695 219.658051 
L 107.261437 222.121446 
L 107.506308 222.121446 
L 107.751179 223.417621 
L 107.99605 223.417621 
L 108.240922 224.760941 
L 109.465277 224.760941 
L 109.710148 226.154964 
L 110.689632 226.154964 
L 110.934504 227.603668 
L 111.179375 227.603668 
L 111.424246 229.111519 
L 111.913988 229.111519 
L 112.158859 230.683553 
L 112.648601 230.683553 
L 112.893472 232.325478 
L 114.60757 232.325478 
L 114.852441 234.043798 
L 115.831925 234.043798 
L 116.076796 235.845971 
L 117.056281 235.845971 
L 117.301152 237.740603 
L 118.525507 237.740603 
L 118.770378 239.737696 
L 120.239605 239.737696 
L 120.484476 241.848969 
L 122.933187 241.848969 
L 123.178058 244.088274 
L 124.402414 244.088274 
L 124.647285 246.472148 
L 126.361382 246.472148 
L 126.606253 249.020553 
L 128.320351 249.020553 
L 128.565222 251.757896 
L 131.748546 251.757896 
L 131.993417 254.714451 
L 133.952386 254.714451 
L 134.197257 257.928409 
L 135.421613 257.928409 
L 135.666484 261.448903 
L 139.33955 261.448903 
L 139.584421 265.340627 
L 142.767745 265.340627 
L 143.012617 269.691206 
L 147.910038 269.691206 
L 148.154909 274.623484 
L 155.0113 274.623484 
L 155.256171 280.317382 
L 164.316402 280.317382 
L 164.561273 287.051834 
L 171.662534 287.051834 
L 171.907405 295.294137 
L 186.109929 295.294137 
L 186.3548 305.920314 
L 205.454745 305.920314 
L 205.699616 320.897069 
L 232.145694 320.897069 
L 232.390565 346.5 
L 284.548108 346.5 
L 284.548108 346.5 
" style="fill:none;opacity:0.5;stroke:#ff1313;stroke-linecap:round;stroke-width:2.0;"/>
   </g>
   <g id="line2d_20">
    <path clip-path="url(#pc6ec77ea5b)" d="M 74.448711 73.436135 
L 74.693582 91.606178 
L 74.938453 92.893055 
L 75.428195 98.140307 
L 75.673066 98.318318 
L 75.917937 104.839259 
L 76.40768 105.375368 
L 76.897422 108.707336 
L 77.387164 110.400337 
L 77.632035 116.218185 
L 77.876906 118.922116 
L 78.366648 121.171163 
L 78.611519 122.520618 
L 79.101262 122.69282 
L 79.346133 124.279866 
L 79.591004 124.915947 
L 79.835875 126.221944 
L 80.080746 126.412343 
L 80.325617 129.392767 
L 80.570488 130.018837 
L 80.815359 130.978299 
L 81.06023 131.086461 
L 81.549973 131.96335 
L 82.039715 134.251216 
L 82.284586 136.065192 
L 82.529457 136.438927 
L 82.774328 139.032078 
L 83.019199 139.032078 
L 83.26407 140.820821 
L 83.753812 141.532543 
L 83.998683 142.405117 
L 84.243555 142.552571 
L 84.488426 142.552571 
L 84.733297 142.700616 
L 84.978168 144.68123 
L 85.46791 154.48196 
L 85.712781 157.677371 
L 85.957652 157.677371 
L 86.202523 158.1251 
L 86.447394 160.689596 
L 86.692265 160.931809 
L 86.937137 162.419415 
L 87.182008 163.186305 
L 87.67175 171.883425 
L 87.916621 172.211758 
L 88.161492 172.877312 
L 88.406363 173.214641 
L 88.651234 173.214641 
L 89.140976 173.898683 
L 89.385848 175.666351 
L 89.630719 175.666351 
L 89.87559 176.769037 
L 90.120461 176.769037 
L 90.365332 177.144037 
L 90.610203 178.292437 
L 90.855074 178.683311 
L 91.099945 182.400803 
L 91.344816 182.400803 
L 92.07943 184.640108 
L 92.324301 184.640108 
L 92.569172 185.104734 
L 92.814043 187.023982 
L 93.058914 187.519791 
L 93.303785 188.531833 
L 93.548656 189.048446 
L 93.793527 190.643106 
L 94.038398 191.190334 
L 94.283269 191.190334 
L 95.017883 192.882411 
L 95.262754 192.882411 
L 95.997367 197.81469 
L 96.242238 197.81469 
L 96.976851 199.848445 
L 97.221722 199.848445 
L 97.466594 200.552033 
L 97.711465 202.000737 
L 98.690949 202.000737 
L 98.93582 202.746969 
L 99.670433 202.746969 
L 99.915304 203.508588 
L 100.160176 205.080622 
L 100.405047 205.080622 
L 100.649918 205.892462 
L 100.894789 205.892462 
L 101.13966 206.722546 
L 101.384531 206.722546 
L 101.874273 208.440867 
L 102.119144 208.440867 
L 102.364015 209.330963 
L 102.608886 209.330963 
L 103.098629 211.178209 
L 104.078113 211.178209 
L 104.567855 213.122723 
L 105.057597 213.122723 
L 105.302468 214.134765 
L 105.54734 214.134765 
L 105.792211 215.175318 
L 106.281953 215.175318 
L 106.526824 216.246038 
L 107.016566 216.246038 
L 107.261437 217.348723 
L 107.506308 217.348723 
L 107.99605 219.658051 
L 108.485793 219.658051 
L 108.730664 220.869216 
L 109.465277 220.869216 
L 109.710148 222.121446 
L 110.444761 222.121446 
L 110.689632 223.417621 
L 111.424246 223.417621 
L 111.669117 224.760941 
L 112.158859 224.760941 
L 112.40373 226.154964 
L 113.628086 226.154964 
L 113.872957 227.603668 
L 115.097312 227.603668 
L 115.342183 229.111519 
L 116.321668 229.111519 
L 116.566539 230.683553 
L 117.546023 230.683553 
L 117.790894 232.325478 
L 119.01525 232.325478 
L 119.504992 235.845971 
L 121.953703 235.845971 
L 122.198574 237.740603 
L 124.157543 237.740603 
L 124.402414 239.737696 
L 124.647285 239.737696 
L 124.892156 241.848969 
L 126.361382 241.848969 
L 126.606253 244.088274 
L 129.299835 244.088274 
L 129.544707 246.472148 
L 131.503675 246.472148 
L 131.748546 249.020553 
L 132.48316 249.020553 
L 132.728031 251.757896 
L 134.686999 251.757896 
L 134.931871 254.714451 
L 137.13571 254.714451 
L 137.380581 257.928409 
L 140.563906 257.928409 
L 140.808777 261.448903 
L 143.257488 261.448903 
L 143.502359 265.340627 
L 148.154909 265.340627 
L 148.399781 269.691206 
L 152.562589 269.691206 
L 152.80746 274.623484 
L 158.929238 274.623484 
L 159.174109 280.317382 
L 165.295886 280.317382 
L 165.540757 287.051834 
L 173.131761 287.051834 
L 173.376632 295.294137 
L 184.395831 295.294137 
L 184.640702 305.920314 
L 193.21119 305.920314 
L 193.456061 320.897069 
L 208.148327 320.897069 
L 208.393198 346.5 
L 253.204608 346.5 
L 253.204608 346.5 
" style="fill:none;opacity:0.5;stroke:#ff1313;stroke-linecap:round;stroke-width:2.0;"/>
   </g>
   <g id="line2d_21">
    <path clip-path="url(#pc6ec77ea5b)" d="M 94.487329 346.5 
L 94.487329 39.6 
" style="fill:none;stroke:#ff1313;stroke-linecap:round;stroke-width:3.0;"/>
   </g>
   <g id="patch_3">
    <path d="M 72 39.6 
L 518.4 39.6 
" style="fill:none;stroke:#262626;stroke-linecap:square;stroke-linejoin:miter;stroke-width:1.25;"/>
   </g>
   <g id="patch_4">
    <path d="M 518.4 346.5 
L 518.4 39.6 
" style="fill:none;stroke:#262626;stroke-linecap:square;stroke-linejoin:miter;stroke-width:1.25;"/>
   </g>
   <g id="patch_5">
    <path d="M 72 346.5 
L 518.4 346.5 
" style="fill:none;stroke:#262626;stroke-linecap:square;stroke-linejoin:miter;stroke-width:1.25;"/>
   </g>
   <g id="patch_6">
    <path d="M 72 346.5 
L 72 39.6 
" style="fill:none;stroke:#262626;stroke-linecap:square;stroke-linejoin:miter;stroke-width:1.25;"/>
   </g>
   <g id="text_11">
    <!-- B6 14 naive -->
    <defs>
     <path d="M 6.640625 61.46875 
L 6.640625 71.578125 
L 15.4375 71.578125 
L 15.4375 61.46875 
z
M 6.640625 0 
L 6.640625 51.859375 
L 15.4375 51.859375 
L 15.4375 0 
z
" id="ArialMT-69"/>
     <path d="M 7.328125 0 
L 7.328125 71.578125 
L 34.1875 71.578125 
Q 42.390625 71.578125 47.34375 69.40625 
Q 52.296875 67.234375 55.09375 62.71875 
Q 57.90625 58.203125 57.90625 53.265625 
Q 57.90625 48.6875 55.421875 44.625 
Q 52.9375 40.578125 47.90625 38.09375 
Q 54.390625 36.1875 57.875 31.59375 
Q 61.375 27 61.375 20.75 
Q 61.375 15.71875 59.25 11.390625 
Q 57.125 7.078125 54 4.734375 
Q 50.875 2.390625 46.15625 1.1875 
Q 41.453125 0 34.625 0 
z
M 16.796875 41.5 
L 32.28125 41.5 
Q 38.578125 41.5 41.3125 42.328125 
Q 44.921875 43.40625 46.75 45.890625 
Q 48.578125 48.390625 48.578125 52.15625 
Q 48.578125 55.71875 46.875 58.421875 
Q 45.171875 61.140625 41.984375 62.140625 
Q 38.8125 63.140625 31.109375 63.140625 
L 16.796875 63.140625 
z
M 16.796875 8.453125 
L 34.625 8.453125 
Q 39.203125 8.453125 41.0625 8.796875 
Q 44.34375 9.375 46.53125 10.734375 
Q 48.734375 12.109375 50.140625 14.71875 
Q 51.5625 17.328125 51.5625 20.75 
Q 51.5625 24.75 49.515625 27.703125 
Q 47.46875 30.671875 43.828125 31.859375 
Q 40.1875 33.0625 33.34375 33.0625 
L 16.796875 33.0625 
z
" id="ArialMT-42"/>
     <path d="M 32.328125 0 
L 32.328125 17.140625 
L 1.265625 17.140625 
L 1.265625 25.203125 
L 33.9375 71.578125 
L 41.109375 71.578125 
L 41.109375 25.203125 
L 50.78125 25.203125 
L 50.78125 17.140625 
L 41.109375 17.140625 
L 41.109375 0 
z
M 32.328125 25.203125 
L 32.328125 57.46875 
L 9.90625 25.203125 
z
" id="ArialMT-34"/>
     <path d="M 21 0 
L 1.265625 51.859375 
L 10.546875 51.859375 
L 21.6875 20.796875 
Q 23.484375 15.765625 25 10.359375 
Q 26.171875 14.453125 28.265625 20.21875 
L 39.796875 51.859375 
L 48.828125 51.859375 
L 29.203125 0 
z
" id="ArialMT-76"/>
     <path d="M 49.75 54.046875 
L 41.015625 53.375 
Q 39.84375 58.546875 37.703125 60.890625 
Q 34.125 64.65625 28.90625 64.65625 
Q 24.703125 64.65625 21.53125 62.3125 
Q 17.390625 59.28125 14.984375 53.46875 
Q 12.59375 47.65625 12.5 36.921875 
Q 15.671875 41.75 20.265625 44.09375 
Q 24.859375 46.4375 29.890625 46.4375 
Q 38.671875 46.4375 44.84375 39.96875 
Q 51.03125 33.5 51.03125 23.25 
Q 51.03125 16.5 48.125 10.71875 
Q 45.21875 4.9375 40.140625 1.859375 
Q 35.0625 -1.21875 28.609375 -1.21875 
Q 17.625 -1.21875 10.6875 6.859375 
Q 3.765625 14.9375 3.765625 33.5 
Q 3.765625 54.25 11.421875 63.671875 
Q 18.109375 71.875 29.4375 71.875 
Q 37.890625 71.875 43.28125 67.140625 
Q 48.6875 62.40625 49.75 54.046875 
M 13.875 23.1875 
Q 13.875 18.65625 15.796875 14.5 
Q 17.71875 10.359375 21.1875 8.171875 
Q 24.65625 6 28.46875 6 
Q 34.03125 6 38.03125 10.484375 
Q 42.046875 14.984375 42.046875 22.703125 
Q 42.046875 30.125 38.078125 34.390625 
Q 34.125 38.671875 28.125 38.671875 
Q 22.171875 38.671875 18.015625 34.390625 
Q 13.875 30.125 13.875 23.1875 
" id="ArialMT-36"/>
    </defs>
    <g style="fill:#262626;" transform="translate(263.5115625 34.6)scale(0.12 -0.12)">
     <use xlink:href="#ArialMT-42"/>
     <use x="66.69921875" xlink:href="#ArialMT-36"/>
     <use x="122.314453125" xlink:href="#ArialMT-20"/>
     <use x="150.09765625" xlink:href="#ArialMT-31"/>
     <use x="205.712890625" xlink:href="#ArialMT-34"/>
     <use x="261.328125" xlink:href="#ArialMT-20"/>
     <use x="289.111328125" xlink:href="#ArialMT-6e"/>
     <use x="344.7265625" xlink:href="#ArialMT-61"/>
     <use x="400.341796875" xlink:href="#ArialMT-69"/>
     <use x="422.55859375" xlink:href="#ArialMT-76"/>
     <use x="472.55859375" xlink:href="#ArialMT-65"/>
    </g>
   </g>
   <g id="legend_1">
    <g id="line2d_22">
     <path d="M 363.273438 52.379687 
L 383.273438 52.379687 
" style="fill:none;stroke:#2c5ebf;stroke-linecap:round;stroke-width:3.0;"/>
    </g>
    <g id="line2d_23"/>
    <g id="text_12">
     <!-- Lung (n=5): 210 barcodes -->
     <defs>
      <path d="M 9.03125 41.84375 
L 9.03125 51.859375 
L 19.046875 51.859375 
L 19.046875 41.84375 
z
M 9.03125 0 
L 9.03125 10.015625 
L 19.046875 10.015625 
L 19.046875 0 
z
" id="ArialMT-3a"/>
      <path d="M 7.328125 0 
L 7.328125 71.578125 
L 16.796875 71.578125 
L 16.796875 8.453125 
L 52.046875 8.453125 
L 52.046875 0 
z
" id="ArialMT-4c"/>
      <path d="M 52.828125 42.09375 
L 5.5625 42.09375 
L 5.5625 50.296875 
L 52.828125 50.296875 
z
M 52.828125 20.359375 
L 5.5625 20.359375 
L 5.5625 28.5625 
L 52.828125 28.5625 
z
" id="ArialMT-3d"/>
      <path d="M 50.34375 8.453125 
L 50.34375 0 
L 3.03125 0 
Q 2.9375 3.171875 4.046875 6.109375 
Q 5.859375 10.9375 9.828125 15.625 
Q 13.8125 20.3125 21.34375 26.46875 
Q 33.015625 36.03125 37.109375 41.625 
Q 41.21875 47.21875 41.21875 52.203125 
Q 41.21875 57.421875 37.46875 61 
Q 33.734375 64.59375 27.734375 64.59375 
Q 21.390625 64.59375 17.578125 60.78125 
Q 13.765625 56.984375 13.71875 50.25 
L 4.6875 51.171875 
Q 5.609375 61.28125 11.65625 66.578125 
Q 17.71875 71.875 27.9375 71.875 
Q 38.234375 71.875 44.234375 66.15625 
Q 50.25 60.453125 50.25 52 
Q 50.25 47.703125 48.484375 43.546875 
Q 46.734375 39.40625 42.65625 34.8125 
Q 38.578125 30.21875 29.109375 22.21875 
Q 21.1875 15.578125 18.9375 13.203125 
Q 16.703125 10.84375 15.234375 8.453125 
z
" id="ArialMT-32"/>
     </defs>
     <g style="fill:#262626;" transform="translate(391.2734375 55.8796875)scale(0.1 -0.1)">
      <use xlink:href="#ArialMT-4c"/>
      <use x="55.615234375" xlink:href="#ArialMT-75"/>
      <use x="111.23046875" xlink:href="#ArialMT-6e"/>
      <use x="166.845703125" xlink:href="#ArialMT-67"/>
      <use x="222.4609375" xlink:href="#ArialMT-20"/>
      <use x="250.244140625" xlink:href="#ArialMT-28"/>
      <use x="283.544921875" xlink:href="#ArialMT-6e"/>
      <use x="339.16015625" xlink:href="#ArialMT-3d"/>
      <use x="397.55859375" xlink:href="#ArialMT-35"/>
      <use x="453.173828125" xlink:href="#ArialMT-29"/>
      <use x="486.474609375" xlink:href="#ArialMT-3a"/>
      <use x="514.2578125" xlink:href="#ArialMT-20"/>
      <use x="542.041015625" xlink:href="#ArialMT-32"/>
      <use x="597.65625" xlink:href="#ArialMT-31"/>
      <use x="653.271484375" xlink:href="#ArialMT-30"/>
      <use x="708.88671875" xlink:href="#ArialMT-20"/>
      <use x="736.669921875" xlink:href="#ArialMT-62"/>
      <use x="792.28515625" xlink:href="#ArialMT-61"/>
      <use x="847.900390625" xlink:href="#ArialMT-72"/>
      <use x="881.201171875" xlink:href="#ArialMT-63"/>
      <use x="931.201171875" xlink:href="#ArialMT-6f"/>
      <use x="986.81640625" xlink:href="#ArialMT-64"/>
      <use x="1042.43164062" xlink:href="#ArialMT-65"/>
      <use x="1098.046875" xlink:href="#ArialMT-73"/>
     </g>
    </g>
    <g id="line2d_24">
     <path d="M 363.273438 66.764062 
L 383.273438 66.764062 
" style="fill:none;stroke:#ff1313;stroke-linecap:round;stroke-width:3.0;"/>
    </g>
    <g id="line2d_25"/>
    <g id="text_13">
     <!-- Spleen (n=6): 81 barcodes -->
     <defs>
      <path d="M 17.671875 38.8125 
Q 12.203125 40.828125 9.5625 44.53125 
Q 6.9375 48.25 6.9375 53.421875 
Q 6.9375 61.234375 12.546875 66.546875 
Q 18.171875 71.875 27.484375 71.875 
Q 36.859375 71.875 42.578125 66.421875 
Q 48.296875 60.984375 48.296875 53.171875 
Q 48.296875 48.1875 45.671875 44.5 
Q 43.0625 40.828125 37.75 38.8125 
Q 44.34375 36.671875 47.78125 31.875 
Q 51.21875 27.09375 51.21875 20.453125 
Q 51.21875 11.28125 44.71875 5.03125 
Q 38.234375 -1.21875 27.640625 -1.21875 
Q 17.046875 -1.21875 10.546875 5.046875 
Q 4.046875 11.328125 4.046875 20.703125 
Q 4.046875 27.6875 7.59375 32.390625 
Q 11.140625 37.109375 17.671875 38.8125 
M 15.921875 53.71875 
Q 15.921875 48.640625 19.1875 45.40625 
Q 22.46875 42.1875 27.6875 42.1875 
Q 32.765625 42.1875 36.015625 45.375 
Q 39.265625 48.578125 39.265625 53.21875 
Q 39.265625 58.0625 35.90625 61.359375 
Q 32.5625 64.65625 27.59375 64.65625 
Q 22.5625 64.65625 19.234375 61.421875 
Q 15.921875 58.203125 15.921875 53.71875 
M 13.09375 20.65625 
Q 13.09375 16.890625 14.875 13.375 
Q 16.65625 9.859375 20.171875 7.921875 
Q 23.6875 6 27.734375 6 
Q 34.03125 6 38.125 10.046875 
Q 42.234375 14.109375 42.234375 20.359375 
Q 42.234375 26.703125 38.015625 30.859375 
Q 33.796875 35.015625 27.4375 35.015625 
Q 21.234375 35.015625 17.15625 30.90625 
Q 13.09375 26.8125 13.09375 20.65625 
" id="ArialMT-38"/>
      <path d="M 4.5 23 
L 13.421875 23.78125 
Q 14.0625 18.40625 16.375 14.96875 
Q 18.703125 11.53125 23.578125 9.40625 
Q 28.46875 7.28125 34.578125 7.28125 
Q 39.984375 7.28125 44.140625 8.890625 
Q 48.296875 10.5 50.3125 13.296875 
Q 52.34375 16.109375 52.34375 19.4375 
Q 52.34375 22.796875 50.390625 25.3125 
Q 48.4375 27.828125 43.953125 29.546875 
Q 41.0625 30.671875 31.203125 33.03125 
Q 21.34375 35.40625 17.390625 37.5 
Q 12.25 40.1875 9.734375 44.15625 
Q 7.234375 48.140625 7.234375 53.078125 
Q 7.234375 58.5 10.296875 63.203125 
Q 13.375 67.921875 19.28125 70.359375 
Q 25.203125 72.796875 32.421875 72.796875 
Q 40.375 72.796875 46.453125 70.234375 
Q 52.546875 67.671875 55.8125 62.6875 
Q 59.078125 57.71875 59.328125 51.421875 
L 50.25 50.734375 
Q 49.515625 57.515625 45.28125 60.984375 
Q 41.0625 64.453125 32.8125 64.453125 
Q 24.21875 64.453125 20.28125 61.296875 
Q 16.359375 58.15625 16.359375 53.71875 
Q 16.359375 49.859375 19.140625 47.359375 
Q 21.875 44.875 33.421875 42.265625 
Q 44.96875 39.65625 49.265625 37.703125 
Q 55.515625 34.8125 58.484375 30.390625 
Q 61.46875 25.984375 61.46875 20.21875 
Q 61.46875 14.5 58.203125 9.4375 
Q 54.9375 4.390625 48.796875 1.578125 
Q 42.671875 -1.21875 35.015625 -1.21875 
Q 25.296875 -1.21875 18.71875 1.609375 
Q 12.15625 4.4375 8.421875 10.125 
Q 4.6875 15.828125 4.5 23 
" id="ArialMT-53"/>
      <path d="M 6.59375 -19.875 
L 6.59375 51.859375 
L 14.59375 51.859375 
L 14.59375 45.125 
Q 17.4375 49.078125 21 51.046875 
Q 24.5625 53.03125 29.640625 53.03125 
Q 36.28125 53.03125 41.359375 49.609375 
Q 46.4375 46.1875 49.015625 39.953125 
Q 51.609375 33.734375 51.609375 26.3125 
Q 51.609375 18.359375 48.75 11.984375 
Q 45.90625 5.609375 40.453125 2.21875 
Q 35.015625 -1.171875 29 -1.171875 
Q 24.609375 -1.171875 21.109375 0.6875 
Q 17.625 2.546875 15.375 5.375 
L 15.375 -19.875 
z
M 14.546875 25.640625 
Q 14.546875 15.625 18.59375 10.84375 
Q 22.65625 6.0625 28.421875 6.0625 
Q 34.28125 6.0625 38.453125 11.015625 
Q 42.625 15.96875 42.625 26.375 
Q 42.625 36.28125 38.546875 41.203125 
Q 34.46875 46.140625 28.8125 46.140625 
Q 23.1875 46.140625 18.859375 40.890625 
Q 14.546875 35.640625 14.546875 25.640625 
" id="ArialMT-70"/>
     </defs>
     <g style="fill:#262626;" transform="translate(391.2734375 70.2640625)scale(0.1 -0.1)">
      <use xlink:href="#ArialMT-53"/>
      <use x="66.69921875" xlink:href="#ArialMT-70"/>
      <use x="122.314453125" xlink:href="#ArialMT-6c"/>
      <use x="144.53125" xlink:href="#ArialMT-65"/>
      <use x="200.146484375" xlink:href="#ArialMT-65"/>
      <use x="255.76171875" xlink:href="#ArialMT-6e"/>
      <use x="311.376953125" xlink:href="#ArialMT-20"/>
      <use x="339.16015625" xlink:href="#ArialMT-28"/>
      <use x="372.4609375" xlink:href="#ArialMT-6e"/>
      <use x="428.076171875" xlink:href="#ArialMT-3d"/>
      <use x="486.474609375" xlink:href="#ArialMT-36"/>
      <use x="542.08984375" xlink:href="#ArialMT-29"/>
      <use x="575.390625" xlink:href="#ArialMT-3a"/>
      <use x="603.173828125" xlink:href="#ArialMT-20"/>
      <use x="630.95703125" xlink:href="#ArialMT-38"/>
      <use x="686.572265625" xlink:href="#ArialMT-31"/>
      <use x="742.1875" xlink:href="#ArialMT-20"/>
      <use x="769.970703125" xlink:href="#ArialMT-62"/>
      <use x="825.5859375" xlink:href="#ArialMT-61"/>
      <use x="881.201171875" xlink:href="#ArialMT-72"/>
      <use x="914.501953125" xlink:href="#ArialMT-63"/>
      <use x="964.501953125" xlink:href="#ArialMT-6f"/>
      <use x="1020.1171875" xlink:href="#ArialMT-64"/>
      <use x="1075.73242188" xlink:href="#ArialMT-65"/>
      <use x="1131.34765625" xlink:href="#ArialMT-73"/>
     </g>
    </g>
   </g>
  </g>
 </g>
 <defs>
  <clipPath id="pc6ec77ea5b">
   <rect height="306.9" width="446.4" x="72.0" y="39.6"/>
  </clipPath>
 </defs>
</svg>
