<?xml version="1.0" encoding="utf-8" standalone="no"?>
<!DOCTYPE svg PUBLIC "-//W3C//DTD SVG 1.1//EN"
  "http://www.w3.org/Graphics/SVG/1.1/DTD/svg11.dtd">
<!-- Created with matplotlib (http://matplotlib.org/) -->
<svg height="105pt" version="1.1" viewBox="0 0 393 105" width="393pt" xmlns="http://www.w3.org/2000/svg" xmlns:xlink="http://www.w3.org/1999/xlink">
 <defs>
  <style type="text/css">
*{stroke-linecap:butt;stroke-linejoin:round;stroke-miterlimit:100000;}
  </style>
 </defs>
 <g id="figure_1">
  <g id="patch_1">
   <path d="M 0 105.84 
L 393.12 105.84 
L 393.12 0 
L 0 0 
L 0 105.84 
z
" style="fill:none;"/>
  </g>
  <g id="axes_1">
   <g id="patch_2">
    <path d="M 49.14 75.033 
L 353.808 75.033 
L 353.808 28.161 
L 49.14 28.161 
L 49.14 75.033 
z
" style="fill:none;"/>
   </g>
   <g id="matplotlib.axis_1">
    <g id="ytick_1">
     <g id="line2d_1">
      <defs>
       <path d="M 0 0 
L 0 0 
" id="m80f5ceb37e" style="stroke:#262626;"/>
      </defs>
      <g>
       <use style="fill:#262626;stroke:#262626;" x="49.14" xlink:href="#m80f5ceb37e" y="63.315"/>
      </g>
     </g>
     <g id="text_1">
      <!-- * ACC01B -->
      <defs>
       <path d="M -0.140625 0 
L 27.34375 71.578125 
L 37.546875 71.578125 
L 66.84375 0 
L 56.0625 0 
L 47.703125 21.6875 
L 17.78125 21.6875 
L 9.90625 0 
z
M 20.515625 29.390625 
L 44.78125 29.390625 
L 37.3125 49.21875 
Q 33.890625 58.25 32.234375 64.0625 
Q 30.859375 57.171875 28.375 50.390625 
z
" id="ArialMT-41"/>
       <path d="M 58.796875 25.09375 
L 68.265625 22.703125 
Q 65.28125 11.03125 57.546875 4.90625 
Q 49.8125 -1.21875 38.625 -1.21875 
Q 27.046875 -1.21875 19.796875 3.484375 
Q 12.546875 8.203125 8.765625 17.140625 
Q 4.984375 26.078125 4.984375 36.328125 
Q 4.984375 47.515625 9.25 55.828125 
Q 13.53125 64.15625 21.40625 68.46875 
Q 29.296875 72.796875 38.765625 72.796875 
Q 49.515625 72.796875 56.828125 67.328125 
Q 64.15625 61.859375 67.046875 51.953125 
L 57.71875 49.75 
Q 55.21875 57.5625 50.484375 61.125 
Q 45.75 64.703125 38.578125 64.703125 
Q 30.328125 64.703125 24.78125 60.734375 
Q 19.234375 56.78125 16.984375 50.109375 
Q 14.75 43.453125 14.75 36.375 
Q 14.75 27.25 17.40625 20.4375 
Q 20.0625 13.625 25.671875 10.25 
Q 31.296875 6.890625 37.84375 6.890625 
Q 45.796875 6.890625 51.3125 11.46875 
Q 56.84375 16.0625 58.796875 25.09375 
" id="ArialMT-43"/>
       <path d="M 7.328125 0 
L 7.328125 71.578125 
L 34.1875 71.578125 
Q 42.390625 71.578125 47.34375 69.40625 
Q 52.296875 67.234375 55.09375 62.71875 
Q 57.90625 58.203125 57.90625 53.265625 
Q 57.90625 48.6875 55.421875 44.625 
Q 52.9375 40.578125 47.90625 38.09375 
Q 54.390625 36.1875 57.875 31.59375 
Q 61.375 27 61.375 20.75 
Q 61.375 15.71875 59.25 11.390625 
Q 57.125 7.078125 54 4.734375 
Q 50.875 2.390625 46.15625 1.1875 
Q 41.453125 0 34.625 0 
z
M 16.796875 41.5 
L 32.28125 41.5 
Q 38.578125 41.5 41.3125 42.328125 
Q 44.921875 43.40625 46.75 45.890625 
Q 48.578125 48.390625 48.578125 52.15625 
Q 48.578125 55.71875 46.875 58.421875 
Q 45.171875 61.140625 41.984375 62.140625 
Q 38.8125 63.140625 31.109375 63.140625 
L 16.796875 63.140625 
z
M 16.796875 8.453125 
L 34.625 8.453125 
Q 39.203125 8.453125 41.0625 8.796875 
Q 44.34375 9.375 46.53125 10.734375 
Q 48.734375 12.109375 50.140625 14.71875 
Q 51.5625 17.328125 51.5625 20.75 
Q 51.5625 24.75 49.515625 27.703125 
Q 47.46875 30.671875 43.828125 31.859375 
Q 40.1875 33.0625 33.34375 33.0625 
L 16.796875 33.0625 
z
" id="ArialMT-42"/>
       <path d="M 3.125 58.453125 
L 5.375 65.375 
Q 13.140625 62.640625 16.65625 60.640625 
Q 15.71875 69.484375 15.671875 72.796875 
L 22.75 72.796875 
Q 22.609375 67.96875 21.625 60.6875 
Q 26.65625 63.234375 33.15625 65.375 
L 35.40625 58.453125 
Q 29.203125 56.390625 23.25 55.71875 
Q 26.21875 53.125 31.640625 46.484375 
L 25.78125 42.328125 
Q 22.953125 46.1875 19.09375 52.828125 
Q 15.484375 45.953125 12.75 42.328125 
L 6.984375 46.484375 
Q 12.640625 53.46875 15.09375 55.71875 
Q 8.796875 56.9375 3.125 58.453125 
" id="ArialMT-2a"/>
       <path d="M 4.15625 35.296875 
Q 4.15625 48 6.765625 55.734375 
Q 9.375 63.484375 14.515625 67.671875 
Q 19.671875 71.875 27.484375 71.875 
Q 33.25 71.875 37.59375 69.546875 
Q 41.9375 67.234375 44.765625 62.859375 
Q 47.609375 58.5 49.21875 52.21875 
Q 50.828125 45.953125 50.828125 35.296875 
Q 50.828125 22.703125 48.234375 14.96875 
Q 45.65625 7.234375 40.5 3 
Q 35.359375 -1.21875 27.484375 -1.21875 
Q 17.140625 -1.21875 11.234375 6.203125 
Q 4.15625 15.140625 4.15625 35.296875 
M 13.1875 35.296875 
Q 13.1875 17.671875 17.3125 11.828125 
Q 21.4375 6 27.484375 6 
Q 33.546875 6 37.671875 11.859375 
Q 41.796875 17.71875 41.796875 35.296875 
Q 41.796875 52.984375 37.671875 58.78125 
Q 33.546875 64.59375 27.390625 64.59375 
Q 21.34375 64.59375 17.71875 59.46875 
Q 13.1875 52.9375 13.1875 35.296875 
" id="ArialMT-30"/>
       <path d="M 37.25 0 
L 28.46875 0 
L 28.46875 56 
Q 25.296875 52.984375 20.140625 49.953125 
Q 14.984375 46.921875 10.890625 45.40625 
L 10.890625 53.90625 
Q 18.265625 57.375 23.78125 62.296875 
Q 29.296875 67.234375 31.59375 71.875 
L 37.25 71.875 
z
" id="ArialMT-31"/>
       <path id="ArialMT-20"/>
      </defs>
      <g style="fill:#4ebb19;" transform="translate(-37.6028 67.78215)scale(0.1728 -0.1728)">
       <use xlink:href="#ArialMT-2a"/>
       <use x="38.916015625" xlink:href="#ArialMT-20"/>
       <use x="66.62109375" xlink:href="#ArialMT-41"/>
       <use x="133.3203125" xlink:href="#ArialMT-43"/>
       <use x="205.537109375" xlink:href="#ArialMT-43"/>
       <use x="277.75390625" xlink:href="#ArialMT-30"/>
       <use x="333.369140625" xlink:href="#ArialMT-31"/>
       <use x="388.984375" xlink:href="#ArialMT-42"/>
      </g>
     </g>
    </g>
    <g id="ytick_2">
     <g id="line2d_2">
      <g>
       <use style="fill:#262626;stroke:#262626;" x="49.14" xlink:href="#m80f5ceb37e" y="39.879"/>
      </g>
     </g>
     <g id="text_2">
      <!-- * ACC01A -->
      <g style="fill:#4ebb19;" transform="translate(-37.6028 44.34615)scale(0.1728 -0.1728)">
       <use xlink:href="#ArialMT-2a"/>
       <use x="38.916015625" xlink:href="#ArialMT-20"/>
       <use x="66.62109375" xlink:href="#ArialMT-41"/>
       <use x="133.3203125" xlink:href="#ArialMT-43"/>
       <use x="205.537109375" xlink:href="#ArialMT-43"/>
       <use x="277.75390625" xlink:href="#ArialMT-30"/>
       <use x="333.369140625" xlink:href="#ArialMT-31"/>
       <use x="388.984375" xlink:href="#ArialMT-41"/>
      </g>
     </g>
    </g>
   </g>
   <g id="QuadMesh_1">
    <path clip-path="url(#p7e087e6b56)" d="M 49.14 75.033 
L 72.576 75.033 
L 72.576 51.597 
L 49.14 51.597 
L 49.14 75.033 
" style="fill:#fff3d4;stroke:#ffffff;"/>
    <path clip-path="url(#p7e087e6b56)" d="M 72.576 75.033 
L 96.012 75.033 
L 96.012 51.597 
L 72.576 51.597 
L 72.576 75.033 
" style="fill:#fff3d4;stroke:#ffffff;"/>
    <path clip-path="url(#p7e087e6b56)" d="M 96.012 75.033 
L 119.448 75.033 
L 119.448 51.597 
L 96.012 51.597 
L 96.012 75.033 
" style="fill:#fff3d4;stroke:#ffffff;"/>
    <path clip-path="url(#p7e087e6b56)" d="M 119.448 75.033 
L 142.884 75.033 
L 142.884 51.597 
L 119.448 51.597 
L 119.448 75.033 
" style="fill:#fff3d4;stroke:#ffffff;"/>
    <path clip-path="url(#p7e087e6b56)" d="M 142.884 75.033 
L 166.32 75.033 
L 166.32 51.597 
L 142.884 51.597 
L 142.884 75.033 
" style="fill:#fff3d4;stroke:#ffffff;"/>
    <path clip-path="url(#p7e087e6b56)" d="M 166.32 75.033 
L 189.756 75.033 
L 189.756 51.597 
L 166.32 51.597 
L 166.32 75.033 
" style="fill:#bef0dd;stroke:#ffffff;"/>
    <path clip-path="url(#p7e087e6b56)" d="M 189.756 75.033 
L 213.192 75.033 
L 213.192 51.597 
L 189.756 51.597 
L 189.756 75.033 
" style="fill:#fff3d4;stroke:#ffffff;"/>
    <path clip-path="url(#p7e087e6b56)" d="M 213.192 75.033 
L 236.628 75.033 
L 236.628 51.597 
L 213.192 51.597 
L 213.192 75.033 
" style="fill:#fff3d4;stroke:#ffffff;"/>
    <path clip-path="url(#p7e087e6b56)" d="M 236.628 75.033 
L 260.064 75.033 
L 260.064 51.597 
L 236.628 51.597 
L 236.628 75.033 
" style="fill:#fff3d4;stroke:#ffffff;"/>
    <path clip-path="url(#p7e087e6b56)" d="M 260.064 75.033 
L 283.5 75.033 
L 283.5 51.597 
L 260.064 51.597 
L 260.064 75.033 
" style="fill:#fff3d4;stroke:#ffffff;"/>
    <path clip-path="url(#p7e087e6b56)" d="M 283.5 75.033 
L 306.936 75.033 
L 306.936 51.597 
L 283.5 51.597 
L 283.5 75.033 
" style="fill:#fff3d4;stroke:#ffffff;"/>
    <path clip-path="url(#p7e087e6b56)" d="M 306.936 75.033 
L 330.372 75.033 
L 330.372 51.597 
L 306.936 51.597 
L 306.936 75.033 
" style="fill:#fff3d4;stroke:#ffffff;"/>
    <path clip-path="url(#p7e087e6b56)" d="M 330.372 75.033 
L 353.808 75.033 
L 353.808 51.597 
L 330.372 51.597 
L 330.372 75.033 
" style="fill:#fff3d4;stroke:#ffffff;"/>
    <path clip-path="url(#p7e087e6b56)" d="M 49.14 51.597 
L 72.576 51.597 
L 72.576 28.161 
L 49.14 28.161 
L 49.14 51.597 
" style="fill:#fff3d4;stroke:#ffffff;"/>
    <path clip-path="url(#p7e087e6b56)" d="M 72.576 51.597 
L 96.012 51.597 
L 96.012 28.161 
L 72.576 28.161 
L 72.576 51.597 
" style="fill:#fff3d4;stroke:#ffffff;"/>
    <path clip-path="url(#p7e087e6b56)" d="M 96.012 51.597 
L 119.448 51.597 
L 119.448 28.161 
L 96.012 28.161 
L 96.012 51.597 
" style="fill:#fff3d4;stroke:#ffffff;"/>
    <path clip-path="url(#p7e087e6b56)" d="M 119.448 51.597 
L 142.884 51.597 
L 142.884 28.161 
L 119.448 28.161 
L 119.448 51.597 
" style="fill:#fff3d4;stroke:#ffffff;"/>
    <path clip-path="url(#p7e087e6b56)" d="M 142.884 51.597 
L 166.32 51.597 
L 166.32 28.161 
L 142.884 28.161 
L 142.884 51.597 
" style="fill:#fff3d4;stroke:#ffffff;"/>
    <path clip-path="url(#p7e087e6b56)" d="M 166.32 51.597 
L 189.756 51.597 
L 189.756 28.161 
L 166.32 28.161 
L 166.32 51.597 
" style="fill:#bef0dd;stroke:#ffffff;"/>
    <path clip-path="url(#p7e087e6b56)" d="M 189.756 51.597 
L 213.192 51.597 
L 213.192 28.161 
L 189.756 28.161 
L 189.756 51.597 
" style="fill:#fff3d4;stroke:#ffffff;"/>
    <path clip-path="url(#p7e087e6b56)" d="M 213.192 51.597 
L 236.628 51.597 
L 236.628 28.161 
L 213.192 28.161 
L 213.192 51.597 
" style="fill:#fff3d4;stroke:#ffffff;"/>
    <path clip-path="url(#p7e087e6b56)" d="M 236.628 51.597 
L 260.064 51.597 
L 260.064 28.161 
L 236.628 28.161 
L 236.628 51.597 
" style="fill:#fff3d4;stroke:#ffffff;"/>
    <path clip-path="url(#p7e087e6b56)" d="M 260.064 51.597 
L 283.5 51.597 
L 283.5 28.161 
L 260.064 28.161 
L 260.064 51.597 
" style="fill:#fff3d4;stroke:#ffffff;"/>
    <path clip-path="url(#p7e087e6b56)" d="M 283.5 51.597 
L 306.936 51.597 
L 306.936 28.161 
L 283.5 28.161 
L 283.5 51.597 
" style="fill:#fff3d4;stroke:#ffffff;"/>
    <path clip-path="url(#p7e087e6b56)" d="M 306.936 51.597 
L 330.372 51.597 
L 330.372 28.161 
L 306.936 28.161 
L 306.936 51.597 
" style="fill:#fff3d4;stroke:#ffffff;"/>
    <path clip-path="url(#p7e087e6b56)" d="M 330.372 51.597 
L 353.808 51.597 
L 353.808 28.161 
L 330.372 28.161 
L 330.372 51.597 
" style="fill:#fff3d4;stroke:#ffffff;"/>
   </g>
  </g>
 </g>
 <defs>
  <clipPath id="p7e087e6b56">
   <rect height="46.872" width="304.668" x="49.14" y="28.161"/>
  </clipPath>
 </defs>
</svg>
