<?xml version="1.0" encoding="utf-8" standalone="no"?>
<!DOCTYPE svg PUBLIC "-//W3C//DTD SVG 1.1//EN"
  "http://www.w3.org/Graphics/SVG/1.1/DTD/svg11.dtd">
<!-- Created with matplotlib (http://matplotlib.org/) -->
<svg height="55pt" version="1.1" viewBox="0 0 151 55" width="151pt" xmlns="http://www.w3.org/2000/svg" xmlns:xlink="http://www.w3.org/1999/xlink">
 <defs>
  <style type="text/css">
*{stroke-linecap:butt;stroke-linejoin:round;stroke-miterlimit:100000;}
  </style>
 </defs>
 <g id="figure_1">
  <g id="patch_1">
   <path d="M 0 55.44 
L 151.2 55.44 
L 151.2 0 
L 0 0 
L 0 55.44 
z
" style="fill:none;"/>
  </g>
  <g id="axes_1">
   <g id="patch_2">
    <path d="M 18.9 38.745 
L 136.08 38.745 
L 136.08 15.309 
L 18.9 15.309 
L 18.9 38.745 
z
" style="fill:none;"/>
   </g>
   <g id="matplotlib.axis_1">
    <g id="ytick_1">
     <g id="line2d_1">
      <defs>
       <path d="M 0 0 
L 0 0 
" id="mdfcb83ca44" style="stroke:#262626;"/>
      </defs>
      <g>
       <use style="fill:#262626;stroke:#262626;" x="18.9" xlink:href="#mdfcb83ca44" y="27.027"/>
      </g>
     </g>
     <g id="text_1">
      <!-- LLL01 -->
      <defs>
       <path d="M 4.15625 35.296875 
Q 4.15625 48 6.765625 55.734375 
Q 9.375 63.484375 14.515625 67.671875 
Q 19.671875 71.875 27.484375 71.875 
Q 33.25 71.875 37.59375 69.546875 
Q 41.9375 67.234375 44.765625 62.859375 
Q 47.609375 58.5 49.21875 52.21875 
Q 50.828125 45.953125 50.828125 35.296875 
Q 50.828125 22.703125 48.234375 14.96875 
Q 45.65625 7.234375 40.5 3 
Q 35.359375 -1.21875 27.484375 -1.21875 
Q 17.140625 -1.21875 11.234375 6.203125 
Q 4.15625 15.140625 4.15625 35.296875 
M 13.1875 35.296875 
Q 13.1875 17.671875 17.3125 11.828125 
Q 21.4375 6 27.484375 6 
Q 33.546875 6 37.671875 11.859375 
Q 41.796875 17.71875 41.796875 35.296875 
Q 41.796875 52.984375 37.671875 58.78125 
Q 33.546875 64.59375 27.390625 64.59375 
Q 21.34375 64.59375 17.71875 59.46875 
Q 13.1875 52.9375 13.1875 35.296875 
" id="ArialMT-30"/>
       <path d="M 37.25 0 
L 28.46875 0 
L 28.46875 56 
Q 25.296875 52.984375 20.140625 49.953125 
Q 14.984375 46.921875 10.890625 45.40625 
L 10.890625 53.90625 
Q 18.265625 57.375 23.78125 62.296875 
Q 29.296875 67.234375 31.59375 71.875 
L 37.25 71.875 
z
" id="ArialMT-31"/>
       <path d="M 7.328125 0 
L 7.328125 71.578125 
L 16.796875 71.578125 
L 16.796875 8.453125 
L 52.046875 8.453125 
L 52.046875 0 
z
" id="ArialMT-4c"/>
      </defs>
      <g style="fill:#7f37b6;" transform="translate(-37.1465 31.49415)scale(0.1728 -0.1728)">
       <use xlink:href="#ArialMT-4c"/>
       <use x="55.615234375" xlink:href="#ArialMT-4c"/>
       <use x="111.23046875" xlink:href="#ArialMT-4c"/>
       <use x="166.845703125" xlink:href="#ArialMT-30"/>
       <use x="222.4609375" xlink:href="#ArialMT-31"/>
      </g>
     </g>
    </g>
   </g>
   <g id="QuadMesh_1">
    <path clip-path="url(#p8bee675b57)" d="M 18.9 38.745 
L 42.336 38.745 
L 42.336 15.309 
L 18.9 15.309 
L 18.9 38.745 
" style="fill:#fff3d4;stroke:#ffffff;"/>
    <path clip-path="url(#p8bee675b57)" d="M 42.336 38.745 
L 65.772 38.745 
L 65.772 15.309 
L 42.336 15.309 
L 42.336 38.745 
" style="fill:#fff3d4;stroke:#ffffff;"/>
    <path clip-path="url(#p8bee675b57)" d="M 65.772 38.745 
L 89.208 38.745 
L 89.208 15.309 
L 65.772 15.309 
L 65.772 38.745 
" style="fill:#fff3d4;stroke:#ffffff;"/>
    <path clip-path="url(#p8bee675b57)" d="M 89.208 38.745 
L 112.644 38.745 
L 112.644 15.309 
L 89.208 15.309 
L 89.208 38.745 
" style="fill:#fff3d4;stroke:#ffffff;"/>
    <path clip-path="url(#p8bee675b57)" d="M 112.644 38.745 
L 136.08 38.745 
L 136.08 15.309 
L 112.644 15.309 
L 112.644 38.745 
" style="fill:#fff3d4;stroke:#ffffff;"/>
   </g>
  </g>
 </g>
 <defs>
  <clipPath id="p8bee675b57">
   <rect height="23.436" width="117.18" x="18.9" y="15.309"/>
  </clipPath>
 </defs>
</svg>
