<?xml version="1.0" encoding="utf-8" standalone="no"?>
<!DOCTYPE svg PUBLIC "-//W3C//DTD SVG 1.1//EN"
  "http://www.w3.org/Graphics/SVG/1.1/DTD/svg11.dtd">
<!-- Created with matplotlib (http://matplotlib.org/) -->
<svg height="55pt" version="1.1" viewBox="0 0 514 55" width="514pt" xmlns="http://www.w3.org/2000/svg" xmlns:xlink="http://www.w3.org/1999/xlink">
 <defs>
  <style type="text/css">
*{stroke-linecap:butt;stroke-linejoin:round;stroke-miterlimit:100000;}
  </style>
 </defs>
 <g id="figure_1">
  <g id="patch_1">
   <path d="M 0 55.44 
L 514.08 55.44 
L 514.08 0 
L 0 0 
L 0 55.44 
z
" style="fill:none;"/>
  </g>
  <g id="axes_1">
   <g id="patch_2">
    <path d="M 64.26 38.745 
L 462.672 38.745 
L 462.672 15.309 
L 64.26 15.309 
L 64.26 38.745 
z
" style="fill:none;"/>
   </g>
   <g id="QuadMesh_1">
    <path clip-path="url(#pfbd6800815)" d="M 64.26 38.745 
L 87.696 38.745 
L 87.696 15.309 
L 64.26 15.309 
L 64.26 38.745 
" style="fill:#fff3d4;stroke:#ffffff;"/>
    <path clip-path="url(#pfbd6800815)" d="M 87.696 38.745 
L 111.132 38.745 
L 111.132 15.309 
L 87.696 15.309 
L 87.696 38.745 
" style="fill:#fff3d4;stroke:#ffffff;"/>
    <path clip-path="url(#pfbd6800815)" d="M 111.132 38.745 
L 134.568 38.745 
L 134.568 15.309 
L 111.132 15.309 
L 111.132 38.745 
" style="fill:#1d2f5f;stroke:#ffffff;"/>
    <path clip-path="url(#pfbd6800815)" d="M 134.568 38.745 
L 158.004 38.745 
L 158.004 15.309 
L 134.568 15.309 
L 134.568 38.745 
" style="fill:#fff3d4;stroke:#ffffff;"/>
    <path clip-path="url(#pfbd6800815)" d="M 158.004 38.745 
L 181.44 38.745 
L 181.44 15.309 
L 158.004 15.309 
L 158.004 38.745 
" style="fill:#fff3d4;stroke:#ffffff;"/>
    <path clip-path="url(#pfbd6800815)" d="M 181.44 38.745 
L 204.876 38.745 
L 204.876 15.309 
L 181.44 15.309 
L 181.44 38.745 
" style="fill:#fff3d4;stroke:#ffffff;"/>
    <path clip-path="url(#pfbd6800815)" d="M 204.876 38.745 
L 228.312 38.745 
L 228.312 15.309 
L 204.876 15.309 
L 204.876 38.745 
" style="fill:#fff3d4;stroke:#ffffff;"/>
    <path clip-path="url(#pfbd6800815)" d="M 228.312 38.745 
L 251.748 38.745 
L 251.748 15.309 
L 228.312 15.309 
L 228.312 38.745 
" style="fill:#fff3d4;stroke:#ffffff;"/>
    <path clip-path="url(#pfbd6800815)" d="M 251.748 38.745 
L 275.184 38.745 
L 275.184 15.309 
L 251.748 15.309 
L 251.748 38.745 
" style="fill:#fff3d4;stroke:#ffffff;"/>
    <path clip-path="url(#pfbd6800815)" d="M 275.184 38.745 
L 298.62 38.745 
L 298.62 15.309 
L 275.184 15.309 
L 275.184 38.745 
" style="fill:#fff3d4;stroke:#ffffff;"/>
    <path clip-path="url(#pfbd6800815)" d="M 298.62 38.745 
L 322.056 38.745 
L 322.056 15.309 
L 298.62 15.309 
L 298.62 38.745 
" style="fill:#fff3d4;stroke:#ffffff;"/>
    <path clip-path="url(#pfbd6800815)" d="M 322.056 38.745 
L 345.492 38.745 
L 345.492 15.309 
L 322.056 15.309 
L 322.056 38.745 
" style="fill:#fff3d4;stroke:#ffffff;"/>
    <path clip-path="url(#pfbd6800815)" d="M 345.492 38.745 
L 368.928 38.745 
L 368.928 15.309 
L 345.492 15.309 
L 345.492 38.745 
" style="fill:#fff3d4;stroke:#ffffff;"/>
    <path clip-path="url(#pfbd6800815)" d="M 368.928 38.745 
L 392.364 38.745 
L 392.364 15.309 
L 368.928 15.309 
L 368.928 38.745 
" style="fill:#fff3d4;stroke:#ffffff;"/>
    <path clip-path="url(#pfbd6800815)" d="M 392.364 38.745 
L 415.8 38.745 
L 415.8 15.309 
L 392.364 15.309 
L 392.364 38.745 
" style="fill:#fff3d4;stroke:#ffffff;"/>
    <path clip-path="url(#pfbd6800815)" d="M 415.8 38.745 
L 439.236 38.745 
L 439.236 15.309 
L 415.8 15.309 
L 415.8 38.745 
" style="fill:#fff3d4;stroke:#ffffff;"/>
    <path clip-path="url(#pfbd6800815)" d="M 439.236 38.745 
L 462.672 38.745 
L 462.672 15.309 
L 439.236 15.309 
L 439.236 38.745 
" style="fill:#fff3d4;stroke:#ffffff;"/>
   </g>
  </g>
 </g>
 <defs>
  <clipPath id="pfbd6800815">
   <rect height="23.436" width="398.412" x="64.26" y="15.309"/>
  </clipPath>
 </defs>
</svg>
