<?xml version="1.0" encoding="utf-8" standalone="no"?>
<!DOCTYPE svg PUBLIC "-//W3C//DTD SVG 1.1//EN"
  "http://www.w3.org/Graphics/SVG/1.1/DTD/svg11.dtd">
<!-- Created with matplotlib (http://matplotlib.org/) -->
<svg height="360pt" version="1.1" viewBox="0 0 576 360" width="576pt" xmlns="http://www.w3.org/2000/svg" xmlns:xlink="http://www.w3.org/1999/xlink">
 <defs>
  <style type="text/css">
*{stroke-linecap:butt;stroke-linejoin:round;stroke-miterlimit:100000;}
  </style>
 </defs>
 <g id="figure_1">
  <g id="patch_1">
   <path d="M 0 360 
L 576 360 
L 576 0 
L 0 0 
z
" style="fill:#ffffff;"/>
  </g>
  <g id="axes_1">
   <g id="patch_2">
    <path d="M 72 315 
L 518.4 315 
L 518.4 36 
L 72 36 
z
" style="fill:#ffffff;"/>
   </g>
   <g id="matplotlib.axis_1">
    <g id="xtick_1">
     <g id="line2d_1">
      <defs>
       <path d="M 0 0 
L 0 0 
" id="md33533e17d" style="stroke:#262626;"/>
      </defs>
      <g>
       <use style="fill:#262626;stroke:#262626;" x="77.693877551" xlink:href="#md33533e17d" y="315.0"/>
      </g>
     </g>
     <g id="line2d_2">
      <g>
       <use style="fill:#262626;stroke:#262626;" x="77.693877551" xlink:href="#md33533e17d" y="36.0"/>
      </g>
     </g>
     <g id="text_1">
      <!-- 0 -->
      <defs>
       <path d="M 4.15625 35.296875 
Q 4.15625 48 6.765625 55.734375 
Q 9.375 63.484375 14.515625 67.671875 
Q 19.671875 71.875 27.484375 71.875 
Q 33.25 71.875 37.59375 69.546875 
Q 41.9375 67.234375 44.765625 62.859375 
Q 47.609375 58.5 49.21875 52.21875 
Q 50.828125 45.953125 50.828125 35.296875 
Q 50.828125 22.703125 48.234375 14.96875 
Q 45.65625 7.234375 40.5 3 
Q 35.359375 -1.21875 27.484375 -1.21875 
Q 17.140625 -1.21875 11.234375 6.203125 
Q 4.15625 15.140625 4.15625 35.296875 
M 13.1875 35.296875 
Q 13.1875 17.671875 17.3125 11.828125 
Q 21.4375 6 27.484375 6 
Q 33.546875 6 37.671875 11.859375 
Q 41.796875 17.71875 41.796875 35.296875 
Q 41.796875 52.984375 37.671875 58.78125 
Q 33.546875 64.59375 27.390625 64.59375 
Q 21.34375 64.59375 17.71875 59.46875 
Q 13.1875 52.9375 13.1875 35.296875 
" id="ArialMT-30"/>
      </defs>
      <g style="fill:#262626;" transform="translate(74.913408801 329.1578125)scale(0.1 -0.1)">
       <use xlink:href="#ArialMT-30"/>
      </g>
     </g>
    </g>
    <g id="xtick_2">
     <g id="line2d_3">
      <g>
       <use style="fill:#262626;stroke:#262626;" x="134.632653061" xlink:href="#md33533e17d" y="315.0"/>
      </g>
     </g>
     <g id="line2d_4">
      <g>
       <use style="fill:#262626;stroke:#262626;" x="134.632653061" xlink:href="#md33533e17d" y="36.0"/>
      </g>
     </g>
     <g id="text_2">
      <!-- 100 -->
      <defs>
       <path d="M 37.25 0 
L 28.46875 0 
L 28.46875 56 
Q 25.296875 52.984375 20.140625 49.953125 
Q 14.984375 46.921875 10.890625 45.40625 
L 10.890625 53.90625 
Q 18.265625 57.375 23.78125 62.296875 
Q 29.296875 67.234375 31.59375 71.875 
L 37.25 71.875 
z
" id="ArialMT-31"/>
      </defs>
      <g style="fill:#262626;" transform="translate(126.291246811 329.1578125)scale(0.1 -0.1)">
       <use xlink:href="#ArialMT-31"/>
       <use x="55.615234375" xlink:href="#ArialMT-30"/>
       <use x="111.23046875" xlink:href="#ArialMT-30"/>
      </g>
     </g>
    </g>
    <g id="xtick_3">
     <g id="line2d_5">
      <g>
       <use style="fill:#262626;stroke:#262626;" x="191.571428571" xlink:href="#md33533e17d" y="315.0"/>
      </g>
     </g>
     <g id="line2d_6">
      <g>
       <use style="fill:#262626;stroke:#262626;" x="191.571428571" xlink:href="#md33533e17d" y="36.0"/>
      </g>
     </g>
     <g id="text_3">
      <!-- 200 -->
      <defs>
       <path d="M 50.34375 8.453125 
L 50.34375 0 
L 3.03125 0 
Q 2.9375 3.171875 4.046875 6.109375 
Q 5.859375 10.9375 9.828125 15.625 
Q 13.8125 20.3125 21.34375 26.46875 
Q 33.015625 36.03125 37.109375 41.625 
Q 41.21875 47.21875 41.21875 52.203125 
Q 41.21875 57.421875 37.46875 61 
Q 33.734375 64.59375 27.734375 64.59375 
Q 21.390625 64.59375 17.578125 60.78125 
Q 13.765625 56.984375 13.71875 50.25 
L 4.6875 51.171875 
Q 5.609375 61.28125 11.65625 66.578125 
Q 17.71875 71.875 27.9375 71.875 
Q 38.234375 71.875 44.234375 66.15625 
Q 50.25 60.453125 50.25 52 
Q 50.25 47.703125 48.484375 43.546875 
Q 46.734375 39.40625 42.65625 34.8125 
Q 38.578125 30.21875 29.109375 22.21875 
Q 21.1875 15.578125 18.9375 13.203125 
Q 16.703125 10.84375 15.234375 8.453125 
z
" id="ArialMT-32"/>
      </defs>
      <g style="fill:#262626;" transform="translate(183.230022321 329.1578125)scale(0.1 -0.1)">
       <use xlink:href="#ArialMT-32"/>
       <use x="55.615234375" xlink:href="#ArialMT-30"/>
       <use x="111.23046875" xlink:href="#ArialMT-30"/>
      </g>
     </g>
    </g>
    <g id="xtick_4">
     <g id="line2d_7">
      <g>
       <use style="fill:#262626;stroke:#262626;" x="248.510204082" xlink:href="#md33533e17d" y="315.0"/>
      </g>
     </g>
     <g id="line2d_8">
      <g>
       <use style="fill:#262626;stroke:#262626;" x="248.510204082" xlink:href="#md33533e17d" y="36.0"/>
      </g>
     </g>
     <g id="text_4">
      <!-- 300 -->
      <defs>
       <path d="M 4.203125 18.890625 
L 12.984375 20.0625 
Q 14.5 12.59375 18.140625 9.296875 
Q 21.78125 6 27 6 
Q 33.203125 6 37.46875 10.296875 
Q 41.75 14.59375 41.75 20.953125 
Q 41.75 27 37.796875 30.921875 
Q 33.84375 34.859375 27.734375 34.859375 
Q 25.25 34.859375 21.53125 33.890625 
L 22.515625 41.609375 
Q 23.390625 41.5 23.921875 41.5 
Q 29.546875 41.5 34.03125 44.421875 
Q 38.53125 47.359375 38.53125 53.46875 
Q 38.53125 58.296875 35.25 61.46875 
Q 31.984375 64.65625 26.8125 64.65625 
Q 21.6875 64.65625 18.265625 61.421875 
Q 14.84375 58.203125 13.875 51.765625 
L 5.078125 53.328125 
Q 6.6875 62.15625 12.390625 67.015625 
Q 18.109375 71.875 26.609375 71.875 
Q 32.46875 71.875 37.390625 69.359375 
Q 42.328125 66.84375 44.9375 62.5 
Q 47.5625 58.15625 47.5625 53.265625 
Q 47.5625 48.640625 45.0625 44.828125 
Q 42.578125 41.015625 37.703125 38.765625 
Q 44.046875 37.3125 47.5625 32.6875 
Q 51.078125 28.078125 51.078125 21.140625 
Q 51.078125 11.765625 44.234375 5.25 
Q 37.40625 -1.265625 26.953125 -1.265625 
Q 17.53125 -1.265625 11.296875 4.34375 
Q 5.078125 9.96875 4.203125 18.890625 
" id="ArialMT-33"/>
      </defs>
      <g style="fill:#262626;" transform="translate(240.168797832 329.1578125)scale(0.1 -0.1)">
       <use xlink:href="#ArialMT-33"/>
       <use x="55.615234375" xlink:href="#ArialMT-30"/>
       <use x="111.23046875" xlink:href="#ArialMT-30"/>
      </g>
     </g>
    </g>
    <g id="xtick_5">
     <g id="line2d_9">
      <g>
       <use style="fill:#262626;stroke:#262626;" x="305.448979592" xlink:href="#md33533e17d" y="315.0"/>
      </g>
     </g>
     <g id="line2d_10">
      <g>
       <use style="fill:#262626;stroke:#262626;" x="305.448979592" xlink:href="#md33533e17d" y="36.0"/>
      </g>
     </g>
     <g id="text_5">
      <!-- 400 -->
      <defs>
       <path d="M 32.328125 0 
L 32.328125 17.140625 
L 1.265625 17.140625 
L 1.265625 25.203125 
L 33.9375 71.578125 
L 41.109375 71.578125 
L 41.109375 25.203125 
L 50.78125 25.203125 
L 50.78125 17.140625 
L 41.109375 17.140625 
L 41.109375 0 
z
M 32.328125 25.203125 
L 32.328125 57.46875 
L 9.90625 25.203125 
z
" id="ArialMT-34"/>
      </defs>
      <g style="fill:#262626;" transform="translate(297.107573342 329.1578125)scale(0.1 -0.1)">
       <use xlink:href="#ArialMT-34"/>
       <use x="55.615234375" xlink:href="#ArialMT-30"/>
       <use x="111.23046875" xlink:href="#ArialMT-30"/>
      </g>
     </g>
    </g>
    <g id="xtick_6">
     <g id="line2d_11">
      <g>
       <use style="fill:#262626;stroke:#262626;" x="362.387755102" xlink:href="#md33533e17d" y="315.0"/>
      </g>
     </g>
     <g id="line2d_12">
      <g>
       <use style="fill:#262626;stroke:#262626;" x="362.387755102" xlink:href="#md33533e17d" y="36.0"/>
      </g>
     </g>
     <g id="text_6">
      <!-- 500 -->
      <defs>
       <path d="M 4.15625 18.75 
L 13.375 19.53125 
Q 14.40625 12.796875 18.140625 9.390625 
Q 21.875 6 27.15625 6 
Q 33.5 6 37.890625 10.78125 
Q 42.28125 15.578125 42.28125 23.484375 
Q 42.28125 31 38.0625 35.34375 
Q 33.84375 39.703125 27 39.703125 
Q 22.75 39.703125 19.328125 37.765625 
Q 15.921875 35.84375 13.96875 32.765625 
L 5.71875 33.84375 
L 12.640625 70.609375 
L 48.25 70.609375 
L 48.25 62.203125 
L 19.671875 62.203125 
L 15.828125 42.96875 
Q 22.265625 47.46875 29.34375 47.46875 
Q 38.71875 47.46875 45.15625 40.96875 
Q 51.609375 34.46875 51.609375 24.265625 
Q 51.609375 14.546875 45.953125 7.46875 
Q 39.0625 -1.21875 27.15625 -1.21875 
Q 17.390625 -1.21875 11.203125 4.25 
Q 5.03125 9.71875 4.15625 18.75 
" id="ArialMT-35"/>
      </defs>
      <g style="fill:#262626;" transform="translate(354.046348852 329.1578125)scale(0.1 -0.1)">
       <use xlink:href="#ArialMT-35"/>
       <use x="55.615234375" xlink:href="#ArialMT-30"/>
       <use x="111.23046875" xlink:href="#ArialMT-30"/>
      </g>
     </g>
    </g>
    <g id="xtick_7">
     <g id="line2d_13">
      <g>
       <use style="fill:#262626;stroke:#262626;" x="419.326530612" xlink:href="#md33533e17d" y="315.0"/>
      </g>
     </g>
     <g id="line2d_14">
      <g>
       <use style="fill:#262626;stroke:#262626;" x="419.326530612" xlink:href="#md33533e17d" y="36.0"/>
      </g>
     </g>
     <g id="text_7">
      <!-- 600 -->
      <defs>
       <path d="M 49.75 54.046875 
L 41.015625 53.375 
Q 39.84375 58.546875 37.703125 60.890625 
Q 34.125 64.65625 28.90625 64.65625 
Q 24.703125 64.65625 21.53125 62.3125 
Q 17.390625 59.28125 14.984375 53.46875 
Q 12.59375 47.65625 12.5 36.921875 
Q 15.671875 41.75 20.265625 44.09375 
Q 24.859375 46.4375 29.890625 46.4375 
Q 38.671875 46.4375 44.84375 39.96875 
Q 51.03125 33.5 51.03125 23.25 
Q 51.03125 16.5 48.125 10.71875 
Q 45.21875 4.9375 40.140625 1.859375 
Q 35.0625 -1.21875 28.609375 -1.21875 
Q 17.625 -1.21875 10.6875 6.859375 
Q 3.765625 14.9375 3.765625 33.5 
Q 3.765625 54.25 11.421875 63.671875 
Q 18.109375 71.875 29.4375 71.875 
Q 37.890625 71.875 43.28125 67.140625 
Q 48.6875 62.40625 49.75 54.046875 
M 13.875 23.1875 
Q 13.875 18.65625 15.796875 14.5 
Q 17.71875 10.359375 21.1875 8.171875 
Q 24.65625 6 28.46875 6 
Q 34.03125 6 38.03125 10.484375 
Q 42.046875 14.984375 42.046875 22.703125 
Q 42.046875 30.125 38.078125 34.390625 
Q 34.125 38.671875 28.125 38.671875 
Q 22.171875 38.671875 18.015625 34.390625 
Q 13.875 30.125 13.875 23.1875 
" id="ArialMT-36"/>
      </defs>
      <g style="fill:#262626;" transform="translate(410.985124362 329.1578125)scale(0.1 -0.1)">
       <use xlink:href="#ArialMT-36"/>
       <use x="55.615234375" xlink:href="#ArialMT-30"/>
       <use x="111.23046875" xlink:href="#ArialMT-30"/>
      </g>
     </g>
    </g>
    <g id="xtick_8">
     <g id="line2d_15">
      <g>
       <use style="fill:#262626;stroke:#262626;" x="476.265306122" xlink:href="#md33533e17d" y="315.0"/>
      </g>
     </g>
     <g id="line2d_16">
      <g>
       <use style="fill:#262626;stroke:#262626;" x="476.265306122" xlink:href="#md33533e17d" y="36.0"/>
      </g>
     </g>
     <g id="text_8">
      <!-- 700 -->
      <defs>
       <path d="M 4.734375 62.203125 
L 4.734375 70.65625 
L 51.078125 70.65625 
L 51.078125 63.8125 
Q 44.234375 56.546875 37.515625 44.484375 
Q 30.8125 32.421875 27.15625 19.671875 
Q 24.515625 10.6875 23.78125 0 
L 14.75 0 
Q 14.890625 8.453125 18.0625 20.40625 
Q 21.234375 32.375 27.171875 43.484375 
Q 33.109375 54.59375 39.796875 62.203125 
z
" id="ArialMT-37"/>
      </defs>
      <g style="fill:#262626;" transform="translate(467.923899872 329.1578125)scale(0.1 -0.1)">
       <use xlink:href="#ArialMT-37"/>
       <use x="55.615234375" xlink:href="#ArialMT-30"/>
       <use x="111.23046875" xlink:href="#ArialMT-30"/>
      </g>
     </g>
    </g>
    <g id="text_9">
     <!-- barcode, rank-ordered -->
     <defs>
      <path d="M 40.4375 19 
L 49.078125 17.875 
Q 47.65625 8.9375 41.8125 3.875 
Q 35.984375 -1.171875 27.484375 -1.171875 
Q 16.84375 -1.171875 10.375 5.78125 
Q 3.90625 12.75 3.90625 25.734375 
Q 3.90625 34.125 6.6875 40.421875 
Q 9.46875 46.734375 15.15625 49.875 
Q 20.84375 53.03125 27.546875 53.03125 
Q 35.984375 53.03125 41.359375 48.75 
Q 46.734375 44.484375 48.25 36.625 
L 39.703125 35.296875 
Q 38.484375 40.53125 35.375 43.15625 
Q 32.28125 45.796875 27.875 45.796875 
Q 21.234375 45.796875 17.078125 41.03125 
Q 12.9375 36.28125 12.9375 25.984375 
Q 12.9375 15.53125 16.9375 10.796875 
Q 20.953125 6.0625 27.390625 6.0625 
Q 32.5625 6.0625 36.03125 9.234375 
Q 39.5 12.40625 40.4375 19 
" id="ArialMT-63"/>
      <path d="M 14.703125 0 
L 6.546875 0 
L 6.546875 71.578125 
L 15.328125 71.578125 
L 15.328125 46.046875 
Q 20.90625 53.03125 29.546875 53.03125 
Q 34.328125 53.03125 38.59375 51.09375 
Q 42.875 49.171875 45.625 45.671875 
Q 48.390625 42.1875 49.953125 37.25 
Q 51.515625 32.328125 51.515625 26.703125 
Q 51.515625 13.375 44.921875 6.09375 
Q 38.328125 -1.171875 29.109375 -1.171875 
Q 19.921875 -1.171875 14.703125 6.5 
z
M 14.59375 26.3125 
Q 14.59375 17 17.140625 12.84375 
Q 21.296875 6.0625 28.375 6.0625 
Q 34.125 6.0625 38.328125 11.0625 
Q 42.53125 16.0625 42.53125 25.984375 
Q 42.53125 36.140625 38.5 40.96875 
Q 34.46875 45.796875 28.765625 45.796875 
Q 23 45.796875 18.796875 40.796875 
Q 14.59375 35.796875 14.59375 26.3125 
" id="ArialMT-62"/>
      <path d="M 40.4375 6.390625 
Q 35.546875 2.25 31.03125 0.53125 
Q 26.515625 -1.171875 21.34375 -1.171875 
Q 12.796875 -1.171875 8.203125 3 
Q 3.609375 7.171875 3.609375 13.671875 
Q 3.609375 17.484375 5.34375 20.625 
Q 7.078125 23.78125 9.890625 25.6875 
Q 12.703125 27.59375 16.21875 28.5625 
Q 18.796875 29.25 24.03125 29.890625 
Q 34.671875 31.15625 39.703125 32.90625 
Q 39.75 34.71875 39.75 35.203125 
Q 39.75 40.578125 37.25 42.78125 
Q 33.890625 45.75 27.25 45.75 
Q 21.046875 45.75 18.09375 43.578125 
Q 15.140625 41.40625 13.71875 35.890625 
L 5.125 37.0625 
Q 6.296875 42.578125 8.984375 45.96875 
Q 11.671875 49.359375 16.75 51.1875 
Q 21.828125 53.03125 28.515625 53.03125 
Q 35.15625 53.03125 39.296875 51.46875 
Q 43.453125 49.90625 45.40625 47.53125 
Q 47.359375 45.171875 48.140625 41.546875 
Q 48.578125 39.3125 48.578125 33.453125 
L 48.578125 21.734375 
Q 48.578125 9.46875 49.140625 6.21875 
Q 49.703125 2.984375 51.375 0 
L 42.1875 0 
Q 40.828125 2.734375 40.4375 6.390625 
M 39.703125 26.03125 
Q 34.90625 24.078125 25.34375 22.703125 
Q 19.921875 21.921875 17.671875 20.9375 
Q 15.4375 19.96875 14.203125 18.09375 
Q 12.984375 16.21875 12.984375 13.921875 
Q 12.984375 10.40625 15.640625 8.0625 
Q 18.3125 5.71875 23.4375 5.71875 
Q 28.515625 5.71875 32.46875 7.9375 
Q 36.421875 10.15625 38.28125 14.015625 
Q 39.703125 17 39.703125 22.796875 
z
" id="ArialMT-61"/>
      <path d="M 42.09375 16.703125 
L 51.171875 15.578125 
Q 49.03125 7.625 43.21875 3.21875 
Q 37.40625 -1.171875 28.375 -1.171875 
Q 17 -1.171875 10.328125 5.828125 
Q 3.65625 12.84375 3.65625 25.484375 
Q 3.65625 38.578125 10.390625 45.796875 
Q 17.140625 53.03125 27.875 53.03125 
Q 38.28125 53.03125 44.875 45.953125 
Q 51.46875 38.875 51.46875 26.03125 
Q 51.46875 25.25 51.421875 23.6875 
L 12.75 23.6875 
Q 13.234375 15.140625 17.578125 10.59375 
Q 21.921875 6.0625 28.421875 6.0625 
Q 33.25 6.0625 36.671875 8.59375 
Q 40.09375 11.140625 42.09375 16.703125 
M 13.234375 30.90625 
L 42.1875 30.90625 
Q 41.609375 37.453125 38.875 40.71875 
Q 34.671875 45.796875 27.984375 45.796875 
Q 21.921875 45.796875 17.796875 41.75 
Q 13.671875 37.703125 13.234375 30.90625 
" id="ArialMT-65"/>
      <path d="M 40.234375 0 
L 40.234375 6.546875 
Q 35.296875 -1.171875 25.734375 -1.171875 
Q 19.53125 -1.171875 14.328125 2.25 
Q 9.125 5.671875 6.265625 11.796875 
Q 3.421875 17.921875 3.421875 25.875 
Q 3.421875 33.640625 6 39.96875 
Q 8.59375 46.296875 13.765625 49.65625 
Q 18.953125 53.03125 25.34375 53.03125 
Q 30.03125 53.03125 33.6875 51.046875 
Q 37.359375 49.078125 39.65625 45.90625 
L 39.65625 71.578125 
L 48.390625 71.578125 
L 48.390625 0 
z
M 12.453125 25.875 
Q 12.453125 15.921875 16.640625 10.984375 
Q 20.84375 6.0625 26.5625 6.0625 
Q 32.328125 6.0625 36.34375 10.765625 
Q 40.375 15.484375 40.375 25.140625 
Q 40.375 35.796875 36.265625 40.765625 
Q 32.171875 45.75 26.171875 45.75 
Q 20.3125 45.75 16.375 40.96875 
Q 12.453125 36.1875 12.453125 25.875 
" id="ArialMT-64"/>
      <path d="M 3.171875 21.484375 
L 3.171875 30.328125 
L 30.171875 30.328125 
L 30.171875 21.484375 
z
" id="ArialMT-2d"/>
      <path d="M 8.890625 0 
L 8.890625 10.015625 
L 18.890625 10.015625 
L 18.890625 0 
Q 18.890625 -5.515625 16.9375 -8.90625 
Q 14.984375 -12.3125 10.75 -14.15625 
L 8.296875 -10.40625 
Q 11.078125 -9.1875 12.390625 -6.8125 
Q 13.71875 -4.4375 13.875 0 
z
" id="ArialMT-2c"/>
      <path d="M 6.5 0 
L 6.5 51.859375 
L 14.40625 51.859375 
L 14.40625 44 
Q 17.4375 49.515625 20 51.265625 
Q 22.5625 53.03125 25.640625 53.03125 
Q 30.078125 53.03125 34.671875 50.203125 
L 31.640625 42.046875 
Q 28.421875 43.953125 25.203125 43.953125 
Q 22.3125 43.953125 20.015625 42.21875 
Q 17.71875 40.484375 16.75 37.40625 
Q 15.28125 32.71875 15.28125 27.15625 
L 15.28125 0 
z
" id="ArialMT-72"/>
      <path d="M 6.640625 0 
L 6.640625 71.578125 
L 15.4375 71.578125 
L 15.4375 30.765625 
L 36.234375 51.859375 
L 47.609375 51.859375 
L 27.78125 32.625 
L 49.609375 0 
L 38.765625 0 
L 21.625 26.515625 
L 15.4375 20.5625 
L 15.4375 0 
z
" id="ArialMT-6b"/>
      <path d="M 3.328125 25.921875 
Q 3.328125 40.328125 11.328125 47.265625 
Q 18.015625 53.03125 27.640625 53.03125 
Q 38.328125 53.03125 45.109375 46.015625 
Q 51.90625 39.015625 51.90625 26.65625 
Q 51.90625 16.65625 48.90625 10.90625 
Q 45.90625 5.171875 40.15625 2 
Q 34.421875 -1.171875 27.640625 -1.171875 
Q 16.75 -1.171875 10.03125 5.8125 
Q 3.328125 12.796875 3.328125 25.921875 
M 12.359375 25.921875 
Q 12.359375 15.96875 16.703125 11.015625 
Q 21.046875 6.0625 27.640625 6.0625 
Q 34.1875 6.0625 38.53125 11.03125 
Q 42.875 16.015625 42.875 26.21875 
Q 42.875 35.84375 38.5 40.796875 
Q 34.125 45.75 27.640625 45.75 
Q 21.046875 45.75 16.703125 40.8125 
Q 12.359375 35.890625 12.359375 25.921875 
" id="ArialMT-6f"/>
      <path d="M 6.59375 0 
L 6.59375 51.859375 
L 14.5 51.859375 
L 14.5 44.484375 
Q 20.21875 53.03125 31 53.03125 
Q 35.6875 53.03125 39.625 51.34375 
Q 43.5625 49.65625 45.515625 46.921875 
Q 47.46875 44.1875 48.25 40.4375 
Q 48.734375 37.984375 48.734375 31.890625 
L 48.734375 0 
L 39.9375 0 
L 39.9375 31.546875 
Q 39.9375 36.921875 38.90625 39.578125 
Q 37.890625 42.234375 35.28125 43.8125 
Q 32.671875 45.40625 29.15625 45.40625 
Q 23.53125 45.40625 19.453125 41.84375 
Q 15.375 38.28125 15.375 28.328125 
L 15.375 0 
z
" id="ArialMT-6e"/>
      <path id="ArialMT-20"/>
     </defs>
     <g style="fill:#262626;" transform="translate(240.785234375 344.01890625)scale(0.11 -0.11)">
      <use xlink:href="#ArialMT-62"/>
      <use x="55.615234375" xlink:href="#ArialMT-61"/>
      <use x="111.23046875" xlink:href="#ArialMT-72"/>
      <use x="144.53125" xlink:href="#ArialMT-63"/>
      <use x="194.53125" xlink:href="#ArialMT-6f"/>
      <use x="250.146484375" xlink:href="#ArialMT-64"/>
      <use x="305.76171875" xlink:href="#ArialMT-65"/>
      <use x="361.376953125" xlink:href="#ArialMT-2c"/>
      <use x="389.16015625" xlink:href="#ArialMT-20"/>
      <use x="416.943359375" xlink:href="#ArialMT-72"/>
      <use x="450.244140625" xlink:href="#ArialMT-61"/>
      <use x="505.859375" xlink:href="#ArialMT-6e"/>
      <use x="561.474609375" xlink:href="#ArialMT-6b"/>
      <use x="611.474609375" xlink:href="#ArialMT-2d"/>
      <use x="644.775390625" xlink:href="#ArialMT-6f"/>
      <use x="700.390625" xlink:href="#ArialMT-72"/>
      <use x="733.69140625" xlink:href="#ArialMT-64"/>
      <use x="789.306640625" xlink:href="#ArialMT-65"/>
      <use x="844.921875" xlink:href="#ArialMT-72"/>
      <use x="878.22265625" xlink:href="#ArialMT-65"/>
      <use x="933.837890625" xlink:href="#ArialMT-64"/>
     </g>
    </g>
   </g>
   <g id="matplotlib.axis_2">
    <g id="ytick_1">
     <g id="line2d_17">
      <g>
       <use style="fill:#262626;stroke:#262626;" x="72.0" xlink:href="#md33533e17d" y="315.0"/>
      </g>
     </g>
     <g id="line2d_18">
      <g>
       <use style="fill:#262626;stroke:#262626;" x="518.4" xlink:href="#md33533e17d" y="315.0"/>
      </g>
     </g>
     <g id="text_10">
      <!-- 0.0 -->
      <defs>
       <path d="M 9.078125 0 
L 9.078125 10.015625 
L 19.09375 10.015625 
L 19.09375 0 
z
" id="ArialMT-2e"/>
      </defs>
      <g style="fill:#262626;" transform="translate(51.1 317.58515625)scale(0.1 -0.1)">
       <use xlink:href="#ArialMT-30"/>
       <use x="55.615234375" xlink:href="#ArialMT-2e"/>
       <use x="83.3984375" xlink:href="#ArialMT-30"/>
      </g>
     </g>
    </g>
    <g id="ytick_2">
     <g id="line2d_19">
      <g>
       <use style="fill:#262626;stroke:#262626;" x="72.0" xlink:href="#md33533e17d" y="277.214955721"/>
      </g>
     </g>
     <g id="line2d_20">
      <g>
       <use style="fill:#262626;stroke:#262626;" x="518.4" xlink:href="#md33533e17d" y="277.214955721"/>
      </g>
     </g>
     <g id="text_11">
      <!-- 0.5 -->
      <g style="fill:#262626;" transform="translate(51.1 279.800111971)scale(0.1 -0.1)">
       <use xlink:href="#ArialMT-30"/>
       <use x="55.615234375" xlink:href="#ArialMT-2e"/>
       <use x="83.3984375" xlink:href="#ArialMT-35"/>
      </g>
     </g>
    </g>
    <g id="ytick_3">
     <g id="line2d_21">
      <g>
       <use style="fill:#262626;stroke:#262626;" x="72.0" xlink:href="#md33533e17d" y="239.429911441"/>
      </g>
     </g>
     <g id="line2d_22">
      <g>
       <use style="fill:#262626;stroke:#262626;" x="518.4" xlink:href="#md33533e17d" y="239.429911441"/>
      </g>
     </g>
     <g id="text_12">
      <!-- 1.0 -->
      <g style="fill:#262626;" transform="translate(51.1 242.015067691)scale(0.1 -0.1)">
       <use xlink:href="#ArialMT-31"/>
       <use x="55.615234375" xlink:href="#ArialMT-2e"/>
       <use x="83.3984375" xlink:href="#ArialMT-30"/>
      </g>
     </g>
    </g>
    <g id="ytick_4">
     <g id="line2d_23">
      <g>
       <use style="fill:#262626;stroke:#262626;" x="72.0" xlink:href="#md33533e17d" y="201.644867162"/>
      </g>
     </g>
     <g id="line2d_24">
      <g>
       <use style="fill:#262626;stroke:#262626;" x="518.4" xlink:href="#md33533e17d" y="201.644867162"/>
      </g>
     </g>
     <g id="text_13">
      <!-- 1.5 -->
      <g style="fill:#262626;" transform="translate(51.1 204.230023412)scale(0.1 -0.1)">
       <use xlink:href="#ArialMT-31"/>
       <use x="55.615234375" xlink:href="#ArialMT-2e"/>
       <use x="83.3984375" xlink:href="#ArialMT-35"/>
      </g>
     </g>
    </g>
    <g id="ytick_5">
     <g id="line2d_25">
      <g>
       <use style="fill:#262626;stroke:#262626;" x="72.0" xlink:href="#md33533e17d" y="163.859822883"/>
      </g>
     </g>
     <g id="line2d_26">
      <g>
       <use style="fill:#262626;stroke:#262626;" x="518.4" xlink:href="#md33533e17d" y="163.859822883"/>
      </g>
     </g>
     <g id="text_14">
      <!-- 2.0 -->
      <g style="fill:#262626;" transform="translate(51.1 166.444979133)scale(0.1 -0.1)">
       <use xlink:href="#ArialMT-32"/>
       <use x="55.615234375" xlink:href="#ArialMT-2e"/>
       <use x="83.3984375" xlink:href="#ArialMT-30"/>
      </g>
     </g>
    </g>
    <g id="ytick_6">
     <g id="line2d_27">
      <g>
       <use style="fill:#262626;stroke:#262626;" x="72.0" xlink:href="#md33533e17d" y="126.074778604"/>
      </g>
     </g>
     <g id="line2d_28">
      <g>
       <use style="fill:#262626;stroke:#262626;" x="518.4" xlink:href="#md33533e17d" y="126.074778604"/>
      </g>
     </g>
     <g id="text_15">
      <!-- 2.5 -->
      <g style="fill:#262626;" transform="translate(51.1 128.659934854)scale(0.1 -0.1)">
       <use xlink:href="#ArialMT-32"/>
       <use x="55.615234375" xlink:href="#ArialMT-2e"/>
       <use x="83.3984375" xlink:href="#ArialMT-35"/>
      </g>
     </g>
    </g>
    <g id="ytick_7">
     <g id="line2d_29">
      <g>
       <use style="fill:#262626;stroke:#262626;" x="72.0" xlink:href="#md33533e17d" y="88.2897343244"/>
      </g>
     </g>
     <g id="line2d_30">
      <g>
       <use style="fill:#262626;stroke:#262626;" x="518.4" xlink:href="#md33533e17d" y="88.2897343244"/>
      </g>
     </g>
     <g id="text_16">
      <!-- 3.0 -->
      <g style="fill:#262626;" transform="translate(51.1 90.8748905744)scale(0.1 -0.1)">
       <use xlink:href="#ArialMT-33"/>
       <use x="55.615234375" xlink:href="#ArialMT-2e"/>
       <use x="83.3984375" xlink:href="#ArialMT-30"/>
      </g>
     </g>
    </g>
    <g id="ytick_8">
     <g id="line2d_31">
      <g>
       <use style="fill:#262626;stroke:#262626;" x="72.0" xlink:href="#md33533e17d" y="50.5046900451"/>
      </g>
     </g>
     <g id="line2d_32">
      <g>
       <use style="fill:#262626;stroke:#262626;" x="518.4" xlink:href="#md33533e17d" y="50.5046900451"/>
      </g>
     </g>
     <g id="text_17">
      <!-- 3.5 -->
      <g style="fill:#262626;" transform="translate(51.1 53.0898462951)scale(0.1 -0.1)">
       <use xlink:href="#ArialMT-33"/>
       <use x="55.615234375" xlink:href="#ArialMT-2e"/>
       <use x="83.3984375" xlink:href="#ArialMT-35"/>
      </g>
     </g>
    </g>
    <g id="text_18">
     <!-- log10 abundance (# molecules) -->
     <defs>
      <path d="M 4.984375 -4.296875 
L 13.53125 -5.5625 
Q 14.0625 -9.515625 16.5 -11.328125 
Q 19.78125 -13.765625 25.4375 -13.765625 
Q 31.546875 -13.765625 34.859375 -11.328125 
Q 38.1875 -8.890625 39.359375 -4.5 
Q 40.046875 -1.8125 39.984375 6.78125 
Q 34.234375 0 25.640625 0 
Q 14.9375 0 9.078125 7.71875 
Q 3.21875 15.4375 3.21875 26.21875 
Q 3.21875 33.640625 5.90625 39.90625 
Q 8.59375 46.1875 13.6875 49.609375 
Q 18.796875 53.03125 25.6875 53.03125 
Q 34.859375 53.03125 40.828125 45.609375 
L 40.828125 51.859375 
L 48.921875 51.859375 
L 48.921875 7.03125 
Q 48.921875 -5.078125 46.453125 -10.125 
Q 44 -15.1875 38.640625 -18.109375 
Q 33.296875 -21.046875 25.484375 -21.046875 
Q 16.21875 -21.046875 10.5 -16.875 
Q 4.78125 -12.703125 4.984375 -4.296875 
M 12.25 26.859375 
Q 12.25 16.65625 16.296875 11.96875 
Q 20.359375 7.28125 26.46875 7.28125 
Q 32.515625 7.28125 36.609375 11.9375 
Q 40.71875 16.609375 40.71875 26.5625 
Q 40.71875 36.078125 36.5 40.90625 
Q 32.28125 45.75 26.3125 45.75 
Q 20.453125 45.75 16.34375 40.984375 
Q 12.25 36.234375 12.25 26.859375 
" id="ArialMT-67"/>
      <path d="M 40.578125 0 
L 40.578125 7.625 
Q 34.515625 -1.171875 24.125 -1.171875 
Q 19.53125 -1.171875 15.546875 0.578125 
Q 11.578125 2.34375 9.640625 5 
Q 7.71875 7.671875 6.9375 11.53125 
Q 6.390625 14.109375 6.390625 19.734375 
L 6.390625 51.859375 
L 15.1875 51.859375 
L 15.1875 23.09375 
Q 15.1875 16.21875 15.71875 13.8125 
Q 16.546875 10.359375 19.234375 8.375 
Q 21.921875 6.390625 25.875 6.390625 
Q 29.828125 6.390625 33.296875 8.421875 
Q 36.765625 10.453125 38.203125 13.9375 
Q 39.65625 17.4375 39.65625 24.078125 
L 39.65625 51.859375 
L 48.4375 51.859375 
L 48.4375 0 
z
" id="ArialMT-75"/>
      <path d="M 23.390625 -21.046875 
Q 16.109375 -11.859375 11.078125 0.4375 
Q 6.0625 12.75 6.0625 25.921875 
Q 6.0625 37.546875 9.8125 48.1875 
Q 14.203125 60.546875 23.390625 72.796875 
L 29.6875 72.796875 
Q 23.78125 62.640625 21.875 58.296875 
Q 18.890625 51.5625 17.1875 44.234375 
Q 15.09375 35.109375 15.09375 25.875 
Q 15.09375 2.390625 29.6875 -21.046875 
z
" id="ArialMT-28"/>
      <path d="M 3.078125 15.484375 
L 11.765625 16.84375 
Q 12.5 11.625 15.84375 8.84375 
Q 19.1875 6.0625 25.203125 6.0625 
Q 31.25 6.0625 34.171875 8.515625 
Q 37.109375 10.984375 37.109375 14.3125 
Q 37.109375 17.28125 34.515625 19 
Q 32.71875 20.171875 25.53125 21.96875 
Q 15.875 24.421875 12.140625 26.203125 
Q 8.40625 27.984375 6.46875 31.125 
Q 4.546875 34.28125 4.546875 38.09375 
Q 4.546875 41.546875 6.125 44.5 
Q 7.71875 47.46875 10.453125 49.421875 
Q 12.5 50.921875 16.03125 51.96875 
Q 19.578125 53.03125 23.640625 53.03125 
Q 29.734375 53.03125 34.34375 51.265625 
Q 38.96875 49.515625 41.15625 46.5 
Q 43.359375 43.5 44.1875 38.484375 
L 35.59375 37.3125 
Q 35.015625 41.3125 32.203125 43.546875 
Q 29.390625 45.796875 24.265625 45.796875 
Q 18.21875 45.796875 15.625 43.796875 
Q 13.03125 41.796875 13.03125 39.109375 
Q 13.03125 37.40625 14.109375 36.03125 
Q 15.1875 34.625 17.484375 33.6875 
Q 18.796875 33.203125 25.25 31.453125 
Q 34.578125 28.953125 38.25 27.359375 
Q 41.9375 25.78125 44.03125 22.75 
Q 46.140625 19.734375 46.140625 15.234375 
Q 46.140625 10.84375 43.578125 6.953125 
Q 41.015625 3.078125 36.171875 0.953125 
Q 31.34375 -1.171875 25.25 -1.171875 
Q 15.140625 -1.171875 9.84375 3.03125 
Q 4.546875 7.234375 3.078125 15.484375 
" id="ArialMT-73"/>
      <path d="M 6.390625 0 
L 6.390625 71.578125 
L 15.1875 71.578125 
L 15.1875 0 
z
" id="ArialMT-6c"/>
      <path d="M 12.359375 -21.046875 
L 6.0625 -21.046875 
Q 20.65625 2.390625 20.65625 25.875 
Q 20.65625 35.0625 18.5625 44.09375 
Q 16.890625 51.421875 13.921875 58.15625 
Q 12.015625 62.546875 6.0625 72.796875 
L 12.359375 72.796875 
Q 21.53125 60.546875 25.921875 48.1875 
Q 29.6875 37.546875 29.6875 25.921875 
Q 29.6875 12.75 24.625 0.4375 
Q 19.578125 -11.859375 12.359375 -21.046875 
" id="ArialMT-29"/>
      <path d="M 6.59375 0 
L 6.59375 51.859375 
L 14.453125 51.859375 
L 14.453125 44.578125 
Q 16.890625 48.390625 20.9375 50.703125 
Q 25 53.03125 30.171875 53.03125 
Q 35.9375 53.03125 39.625 50.640625 
Q 43.3125 48.25 44.828125 43.953125 
Q 50.984375 53.03125 60.84375 53.03125 
Q 68.5625 53.03125 72.703125 48.75 
Q 76.859375 44.484375 76.859375 35.59375 
L 76.859375 0 
L 68.109375 0 
L 68.109375 32.671875 
Q 68.109375 37.9375 67.25 40.25 
Q 66.40625 42.578125 64.15625 43.984375 
Q 61.921875 45.40625 58.890625 45.40625 
Q 53.421875 45.40625 49.796875 41.765625 
Q 46.1875 38.140625 46.1875 30.125 
L 46.1875 0 
L 37.40625 0 
L 37.40625 33.6875 
Q 37.40625 39.546875 35.25 42.46875 
Q 33.109375 45.40625 28.21875 45.40625 
Q 24.515625 45.40625 21.359375 43.453125 
Q 18.21875 41.5 16.796875 37.734375 
Q 15.375 33.984375 15.375 26.90625 
L 15.375 0 
z
" id="ArialMT-6d"/>
      <path d="M 5.03125 -1.21875 
L 9.28125 19.578125 
L 1.03125 19.578125 
L 1.03125 26.859375 
L 10.75 26.859375 
L 14.359375 44.578125 
L 1.03125 44.578125 
L 1.03125 51.859375 
L 15.828125 51.859375 
L 20.0625 72.796875 
L 27.390625 72.796875 
L 23.140625 51.859375 
L 38.53125 51.859375 
L 42.78125 72.796875 
L 50.140625 72.796875 
L 45.90625 51.859375 
L 54.34375 51.859375 
L 54.34375 44.578125 
L 44.4375 44.578125 
L 40.765625 26.859375 
L 54.34375 26.859375 
L 54.34375 19.578125 
L 39.3125 19.578125 
L 35.0625 -1.21875 
L 27.734375 -1.21875 
L 31.9375 19.578125 
L 16.609375 19.578125 
L 12.359375 -1.21875 
z
M 18.0625 26.859375 
L 33.40625 26.859375 
L 37.0625 44.578125 
L 21.6875 44.578125 
z
" id="ArialMT-23"/>
     </defs>
     <g style="fill:#262626;" transform="translate(43.78484375 252.23875)rotate(-90.0)scale(0.11 -0.11)">
      <use xlink:href="#ArialMT-6c"/>
      <use x="22.216796875" xlink:href="#ArialMT-6f"/>
      <use x="77.83203125" xlink:href="#ArialMT-67"/>
      <use x="133.447265625" xlink:href="#ArialMT-31"/>
      <use x="189.0625" xlink:href="#ArialMT-30"/>
      <use x="244.677734375" xlink:href="#ArialMT-20"/>
      <use x="272.4609375" xlink:href="#ArialMT-61"/>
      <use x="328.076171875" xlink:href="#ArialMT-62"/>
      <use x="383.69140625" xlink:href="#ArialMT-75"/>
      <use x="439.306640625" xlink:href="#ArialMT-6e"/>
      <use x="494.921875" xlink:href="#ArialMT-64"/>
      <use x="550.537109375" xlink:href="#ArialMT-61"/>
      <use x="606.15234375" xlink:href="#ArialMT-6e"/>
      <use x="661.767578125" xlink:href="#ArialMT-63"/>
      <use x="711.767578125" xlink:href="#ArialMT-65"/>
      <use x="767.3828125" xlink:href="#ArialMT-20"/>
      <use x="795.166015625" xlink:href="#ArialMT-28"/>
      <use x="828.466796875" xlink:href="#ArialMT-23"/>
      <use x="884.08203125" xlink:href="#ArialMT-20"/>
      <use x="911.865234375" xlink:href="#ArialMT-6d"/>
      <use x="995.166015625" xlink:href="#ArialMT-6f"/>
      <use x="1050.78125" xlink:href="#ArialMT-6c"/>
      <use x="1072.99804688" xlink:href="#ArialMT-65"/>
      <use x="1128.61328125" xlink:href="#ArialMT-63"/>
      <use x="1178.61328125" xlink:href="#ArialMT-75"/>
      <use x="1234.22851562" xlink:href="#ArialMT-6c"/>
      <use x="1256.4453125" xlink:href="#ArialMT-65"/>
      <use x="1312.06054688" xlink:href="#ArialMT-73"/>
      <use x="1362.06054688" xlink:href="#ArialMT-29"/>
     </g>
    </g>
   </g>
   <g id="line2d_33">
    <path clip-path="url(#p1b67f858e0)" d="M 77.693878 40.449011 
L 78.263265 46.764446 
L 78.832653 52.146236 
L 79.402041 60.69808 
L 79.971429 62.130596 
L 81.110204 74.96063 
L 81.679592 75.937082 
L 82.24898 78.005696 
L 83.957143 78.58659 
L 85.095918 81.925321 
L 85.665306 83.080869 
L 86.234694 84.746616 
L 86.804082 85.733524 
L 87.373469 86.0692 
L 87.942857 88.224161 
L 88.512245 89.019828 
L 89.081633 91.38498 
L 90.220408 98.171905 
L 90.789796 100.089594 
L 91.359184 100.754559 
L 91.928571 101.97658 
L 93.067347 105.219374 
L 93.636735 105.773774 
L 94.206122 110.068488 
L 95.344898 111.903198 
L 95.914286 112.999573 
L 96.483673 113.069328 
L 97.053061 114.716026 
L 97.622449 115.159542 
L 98.191837 116.760819 
L 98.761224 117.391986 
L 99.330612 118.280149 
L 99.9 118.362096 
L 101.608163 121.819994 
L 102.746939 123.312054 
L 103.316327 123.503423 
L 103.885714 123.889541 
L 104.455102 125.176752 
L 105.02449 125.277891 
L 105.593878 125.99473 
L 106.163265 126.516516 
L 106.732653 127.477161 
L 107.871429 127.913309 
L 108.440816 128.578595 
L 109.010204 128.803389 
L 109.579592 129.372201 
L 112.995918 130.659412 
L 113.565306 130.659412 
L 114.134694 133.656444 
L 114.704082 134.990761 
L 115.842857 135.67883 
L 116.412245 136.381633 
L 116.981633 138.737419 
L 117.55102 139.044147 
L 118.120408 139.198593 
L 118.689796 139.509682 
L 119.259184 140.140849 
L 120.967347 147.624054 
L 122.106122 148.847289 
L 122.67551 150.772121 
L 123.244898 151.892355 
L 124.383673 152.351379 
L 124.953061 152.816914 
L 125.522449 153.768276 
L 126.091837 154.254502 
L 126.661224 154.997621 
L 127.230612 158.150732 
L 128.938776 158.988727 
L 129.508163 159.559518 
L 130.077551 161.333987 
L 130.646939 161.947456 
L 131.216327 161.947456 
L 131.785714 162.572612 
L 132.355102 163.533256 
L 132.92449 164.859484 
L 133.493878 165.199587 
L 134.063265 165.199587 
L 134.632653 165.890553 
L 135.202041 166.955068 
L 135.771429 167.684425 
L 136.340816 167.684425 
L 136.910204 168.809781 
L 137.479592 169.193641 
L 138.04898 169.975099 
L 138.618367 169.975099 
L 139.757143 170.775618 
L 140.326531 172.86675 
L 140.895918 172.86675 
L 141.465306 173.741993 
L 142.034694 174.188526 
L 142.604082 177.003365 
L 143.742857 179.023675 
L 144.312245 179.548801 
L 144.881633 179.548801 
L 145.45102 181.176557 
L 146.589796 181.176557 
L 148.297959 182.889276 
L 150.006122 186.608686 
L 150.57551 186.608686 
L 151.144898 187.271733 
L 151.714286 187.271733 
L 152.283673 187.948451 
L 152.853061 189.345243 
L 153.991837 189.345243 
L 154.561224 192.330907 
L 155.130612 192.330907 
L 155.7 196.490857 
L 156.269388 198.314641 
L 156.838776 201.255683 
L 157.408163 201.255683 
L 159.116327 204.486454 
L 159.685714 206.831714 
L 160.255102 210.697314 
L 160.82449 213.552999 
L 161.963265 213.552999 
L 163.671429 218.364477 
L 164.240816 224.004546 
L 164.810204 224.004546 
L 165.94898 236.301863 
L 166.518367 239.429911 
L 167.087755 239.429911 
L 167.657143 242.887809 
L 169.934694 242.887809 
L 171.073469 251.135866 
L 172.781633 251.135866 
L 173.35102 256.195041 
L 173.920408 256.195041 
L 174.489796 262.178775 
L 178.47551 262.178775 
L 179.044898 269.502273 
L 189.293878 269.502273 
L 189.863265 278.943905 
L 211.5 278.943905 
L 212.069388 292.251137 
L 270.716327 292.251137 
L 271.285714 315 
L 517.830612 315 
L 517.830612 315 
" style="fill:none;stroke:#ff0000;stroke-linecap:round;stroke-width:3.0;"/>
   </g>
   <g id="line2d_34">
    <path clip-path="url(#p1b67f858e0)" d="M 77.693878 103.784449 
L 79.971429 103.918409 
L 82.24898 104.321261 
L 84.526531 104.995962 
L 86.804082 105.947557 
L 89.081633 107.183369 
L 91.359184 108.71328 
L 93.636735 110.550149 
L 95.914286 112.710378 
L 98.191837 115.21472 
L 100.469388 118.089408 
L 102.746939 121.367776 
L 105.02449 125.092618 
L 107.302041 129.319748 
L 109.579592 134.123554 
L 111.857143 139.606046 
L 113.565306 144.248359 
L 115.273469 149.438492 
L 116.981633 155.296365 
L 118.689796 161.997427 
L 120.397959 169.814192 
L 121.536735 175.859376 
L 122.67551 182.817631 
L 123.814286 191.048421 
L 124.953061 201.199986 
L 126.091837 214.639877 
L 126.661224 223.554972 
L 127.230612 235.201366 
L 127.8 252.340715 
L 128.369388 287.109793 
L 128.938776 315 
L 155.130612 315 
L 155.7 324.913352 
L 156.269388 277.212326 
L 156.838776 258.526098 
L 157.408163 246.70494 
L 157.977551 238.059266 
L 159.116327 225.670576 
L 160.255102 216.861261 
L 161.393878 210.110563 
L 162.532653 204.717082 
L 163.671429 200.299009 
L 164.810204 196.625597 
L 165.94898 193.547 
L 167.087755 190.96075 
L 168.226531 188.794071 
L 169.365306 186.993836 
L 170.504082 185.520528 
L 171.642857 184.344451 
L 172.781633 183.44326 
L 173.920408 182.800333 
L 175.059184 182.403671 
L 176.197959 182.245176 
L 177.336735 182.320191 
L 178.47551 182.627257 
L 179.614286 183.168043 
L 180.753061 183.947453 
L 181.891837 184.973922 
L 183.030612 186.259921 
L 184.169388 187.822767 
L 185.308163 189.685834 
L 186.446939 191.880361 
L 187.585714 194.448203 
L 188.72449 197.446097 
L 189.863265 200.952535 
L 191.002041 205.079364 
L 192.140816 209.992587 
L 193.279592 215.952761 
L 194.418367 223.402305 
L 195.557143 233.185444 
L 196.126531 239.471215 
L 196.695918 247.25298 
L 197.265306 257.450182 
L 197.834694 272.251856 
L 198.404082 299.696543 
L 198.973469 315 
L 237.122449 315 
L 237.278566 361 
M 238.065269 361 
L 238.261224 297.101751 
L 238.830612 274.47427 
L 239.4 261.271644 
L 239.969388 251.94647 
L 241.108163 238.926973 
L 242.246939 229.854585 
L 243.385714 222.985507 
L 244.52449 217.543433 
L 245.663265 213.114999 
L 246.802041 209.454349 
L 247.940816 206.40389 
L 249.079592 203.85711 
L 250.218367 201.739234 
L 251.357143 199.996361 
L 252.495918 198.589007 
L 253.634694 197.488086 
L 254.773469 196.672338 
L 255.912245 196.126654 
L 257.05102 195.840989 
L 258.189796 195.809685 
L 259.328571 196.031113 
L 260.467347 196.507565 
L 261.606122 197.245402 
L 262.744898 198.255462 
L 263.883673 199.553793 
L 265.022449 201.162827 
L 266.161224 203.11317 
L 267.3 205.446377 
L 268.438776 208.219282 
L 269.577551 211.511012 
L 270.716327 215.434893 
L 271.855102 220.159871 
L 272.993878 225.952332 
L 274.132653 233.267065 
L 275.271429 242.97853 
L 275.840816 249.275766 
L 276.410204 257.133539 
L 276.979592 267.541623 
L 277.54898 282.923052 
L 278.118367 312.852868 
L 278.687755 315 
L 317.406122 315 
L 317.97551 312.852868 
L 318.544898 282.923052 
L 319.114286 267.541623 
L 319.683673 257.133539 
L 320.253061 249.275766 
L 321.391837 237.739151 
L 322.530612 229.379098 
L 323.669388 222.900297 
L 324.808163 217.683592 
L 325.946939 213.385028 
L 327.085714 209.7942 
L 328.22449 206.773552 
L 329.363265 204.228787 
L 330.502041 202.093035 
L 331.640816 200.317778 
L 332.779592 198.867359 
L 333.918367 197.715534 
L 335.057143 196.843245 
L 336.195918 196.237162 
L 337.334694 195.888757 
L 338.473469 195.793736 
L 339.612245 195.95177 
L 340.75102 196.366475 
L 341.889796 197.045639 
L 343.028571 198.001731 
L 344.167347 199.25277 
L 345.306122 200.823672 
L 346.444898 202.748326 
L 347.583673 205.072802 
L 348.722449 207.860417 
L 349.861224 211.200062 
L 351 215.220575 
L 352.138776 220.117269 
L 353.277551 226.205406 
L 354.416327 234.041932 
L 355.555102 244.757047 
L 356.12449 251.94647 
L 356.693878 261.271644 
L 357.263265 274.47427 
L 357.832653 297.101751 
L 358.028609 361 
M 358.815312 361 
L 358.971429 315 
L 397.120408 315 
L 397.689796 299.696543 
L 398.259184 272.251856 
L 398.828571 257.450182 
L 399.397959 247.25298 
L 400.536735 233.185444 
L 401.67551 223.402305 
L 402.814286 215.952761 
L 403.953061 209.992587 
L 405.091837 205.079364 
L 406.230612 200.952535 
L 407.369388 197.446097 
L 408.508163 194.448203 
L 409.646939 191.880361 
L 410.785714 189.685834 
L 411.92449 187.822767 
L 413.063265 186.259921 
L 414.202041 184.973922 
L 415.340816 183.947453 
L 416.479592 183.168043 
L 417.618367 182.627257 
L 418.757143 182.320191 
L 419.895918 182.245176 
L 421.034694 182.403671 
L 422.173469 182.800333 
L 423.312245 183.44326 
L 424.45102 184.344451 
L 425.589796 185.520528 
L 426.728571 186.993836 
L 427.867347 188.794071 
L 429.006122 190.96075 
L 430.144898 193.547 
L 431.283673 196.625597 
L 432.422449 200.299009 
L 433.561224 204.717082 
L 434.7 210.110563 
L 435.838776 216.861261 
L 436.977551 225.670576 
L 437.546939 231.258818 
L 438.116327 238.059266 
L 438.685714 246.70494 
L 439.255102 258.526098 
L 439.82449 277.212326 
L 440.393878 324.913352 
L 440.963265 315 
L 467.155102 315 
L 467.72449 287.109793 
L 468.293878 252.340715 
L 468.863265 235.201366 
L 469.432653 223.554972 
L 470.571429 207.368729 
L 471.710204 195.824364 
L 472.84898 186.743023 
L 473.987755 179.206275 
L 475.695918 169.814192 
L 477.404082 161.997427 
L 479.112245 155.296365 
L 480.820408 149.438492 
L 482.528571 144.248359 
L 484.806122 138.164797 
L 487.083673 132.863548 
L 489.361224 128.212194 
L 491.638776 124.116763 
L 493.916327 120.508189 
L 496.193878 117.334334 
L 498.471429 114.555046 
L 500.74898 112.138954 
L 503.026531 110.061325 
L 505.304082 108.302583 
L 507.581633 106.847277 
L 509.859184 105.683341 
L 512.136735 104.801562 
L 514.414286 104.195212 
L 516.691837 103.859782 
L 517.830612 103.792817 
L 517.830612 103.792817 
" style="fill:none;opacity:0.8;stroke:#4c72b0;stroke-linecap:round;stroke-width:2.0;"/>
   </g>
   <g id="line2d_35">
    <path clip-path="url(#p1b67f858e0)" d="M 106.163265 315 
L 106.163265 36 
" style="fill:none;stroke:#008000;stroke-linecap:round;stroke-width:2.0;"/>
   </g>
   <g id="patch_3">
    <path d="M 72 36 
L 518.4 36 
" style="fill:none;stroke:#262626;stroke-linecap:square;stroke-linejoin:miter;stroke-width:1.25;"/>
   </g>
   <g id="patch_4">
    <path d="M 518.4 315 
L 518.4 36 
" style="fill:none;stroke:#262626;stroke-linecap:square;stroke-linejoin:miter;stroke-width:1.25;"/>
   </g>
   <g id="patch_5">
    <path d="M 72 315 
L 518.4 315 
" style="fill:none;stroke:#262626;stroke-linecap:square;stroke-linejoin:miter;stroke-width:1.25;"/>
   </g>
   <g id="patch_6">
    <path d="M 72 315 
L 72 36 
" style="fill:none;stroke:#262626;stroke-linecap:square;stroke-linejoin:miter;stroke-width:1.25;"/>
   </g>
   <g id="text_19">
    <!-- B6 4wks naive Thoracic LN 4: 50 barcodes -->
    <defs>
     <path d="M 6.59375 0 
L 6.59375 71.578125 
L 15.375 71.578125 
L 15.375 45.90625 
Q 21.53125 53.03125 30.90625 53.03125 
Q 36.671875 53.03125 40.921875 50.75 
Q 45.171875 48.484375 47 44.484375 
Q 48.828125 40.484375 48.828125 32.859375 
L 48.828125 0 
L 40.046875 0 
L 40.046875 32.859375 
Q 40.046875 39.453125 37.1875 42.453125 
Q 34.328125 45.453125 29.109375 45.453125 
Q 25.203125 45.453125 21.75 43.421875 
Q 18.3125 41.40625 16.84375 37.9375 
Q 15.375 34.46875 15.375 28.375 
L 15.375 0 
z
" id="ArialMT-68"/>
     <path d="M 9.03125 41.84375 
L 9.03125 51.859375 
L 19.046875 51.859375 
L 19.046875 41.84375 
z
M 9.03125 0 
L 9.03125 10.015625 
L 19.046875 10.015625 
L 19.046875 0 
z
" id="ArialMT-3a"/>
     <path d="M 6.640625 61.46875 
L 6.640625 71.578125 
L 15.4375 71.578125 
L 15.4375 61.46875 
z
M 6.640625 0 
L 6.640625 51.859375 
L 15.4375 51.859375 
L 15.4375 0 
z
" id="ArialMT-69"/>
     <path d="M 7.328125 0 
L 7.328125 71.578125 
L 34.1875 71.578125 
Q 42.390625 71.578125 47.34375 69.40625 
Q 52.296875 67.234375 55.09375 62.71875 
Q 57.90625 58.203125 57.90625 53.265625 
Q 57.90625 48.6875 55.421875 44.625 
Q 52.9375 40.578125 47.90625 38.09375 
Q 54.390625 36.1875 57.875 31.59375 
Q 61.375 27 61.375 20.75 
Q 61.375 15.71875 59.25 11.390625 
Q 57.125 7.078125 54 4.734375 
Q 50.875 2.390625 46.15625 1.1875 
Q 41.453125 0 34.625 0 
z
M 16.796875 41.5 
L 32.28125 41.5 
Q 38.578125 41.5 41.3125 42.328125 
Q 44.921875 43.40625 46.75 45.890625 
Q 48.578125 48.390625 48.578125 52.15625 
Q 48.578125 55.71875 46.875 58.421875 
Q 45.171875 61.140625 41.984375 62.140625 
Q 38.8125 63.140625 31.109375 63.140625 
L 16.796875 63.140625 
z
M 16.796875 8.453125 
L 34.625 8.453125 
Q 39.203125 8.453125 41.0625 8.796875 
Q 44.34375 9.375 46.53125 10.734375 
Q 48.734375 12.109375 50.140625 14.71875 
Q 51.5625 17.328125 51.5625 20.75 
Q 51.5625 24.75 49.515625 27.703125 
Q 47.46875 30.671875 43.828125 31.859375 
Q 40.1875 33.0625 33.34375 33.0625 
L 16.796875 33.0625 
z
" id="ArialMT-42"/>
     <path d="M 25.921875 0 
L 25.921875 63.140625 
L 2.34375 63.140625 
L 2.34375 71.578125 
L 59.078125 71.578125 
L 59.078125 63.140625 
L 35.40625 63.140625 
L 35.40625 0 
z
" id="ArialMT-54"/>
     <path d="M 7.328125 0 
L 7.328125 71.578125 
L 16.796875 71.578125 
L 16.796875 8.453125 
L 52.046875 8.453125 
L 52.046875 0 
z
" id="ArialMT-4c"/>
     <path d="M 7.625 0 
L 7.625 71.578125 
L 17.328125 71.578125 
L 54.9375 15.375 
L 54.9375 71.578125 
L 64.015625 71.578125 
L 64.015625 0 
L 54.296875 0 
L 16.703125 56.25 
L 16.703125 0 
z
" id="ArialMT-4e"/>
     <path d="M 21 0 
L 1.265625 51.859375 
L 10.546875 51.859375 
L 21.6875 20.796875 
Q 23.484375 15.765625 25 10.359375 
Q 26.171875 14.453125 28.265625 20.21875 
L 39.796875 51.859375 
L 48.828125 51.859375 
L 29.203125 0 
z
" id="ArialMT-76"/>
     <path d="M 16.15625 0 
L 0.296875 51.859375 
L 9.375 51.859375 
L 17.625 21.921875 
L 20.703125 10.796875 
Q 20.90625 11.625 23.390625 21.484375 
L 31.640625 51.859375 
L 40.671875 51.859375 
L 48.4375 21.78125 
L 51.03125 11.859375 
L 54 21.875 
L 62.890625 51.859375 
L 71.4375 51.859375 
L 55.21875 0 
L 46.09375 0 
L 37.84375 31.0625 
L 35.84375 39.890625 
L 25.34375 0 
z
" id="ArialMT-77"/>
    </defs>
    <g style="fill:#262626;" transform="translate(181.149375 31.0)scale(0.12 -0.12)">
     <use xlink:href="#ArialMT-42"/>
     <use x="66.69921875" xlink:href="#ArialMT-36"/>
     <use x="122.314453125" xlink:href="#ArialMT-20"/>
     <use x="150.09765625" xlink:href="#ArialMT-34"/>
     <use x="205.712890625" xlink:href="#ArialMT-77"/>
     <use x="277.9296875" xlink:href="#ArialMT-6b"/>
     <use x="327.9296875" xlink:href="#ArialMT-73"/>
     <use x="377.9296875" xlink:href="#ArialMT-20"/>
     <use x="405.712890625" xlink:href="#ArialMT-6e"/>
     <use x="461.328125" xlink:href="#ArialMT-61"/>
     <use x="516.943359375" xlink:href="#ArialMT-69"/>
     <use x="539.16015625" xlink:href="#ArialMT-76"/>
     <use x="589.16015625" xlink:href="#ArialMT-65"/>
     <use x="644.775390625" xlink:href="#ArialMT-20"/>
     <use x="672.54296875" xlink:href="#ArialMT-54"/>
     <use x="733.626953125" xlink:href="#ArialMT-68"/>
     <use x="789.2421875" xlink:href="#ArialMT-6f"/>
     <use x="844.857421875" xlink:href="#ArialMT-72"/>
     <use x="878.158203125" xlink:href="#ArialMT-61"/>
     <use x="933.7734375" xlink:href="#ArialMT-63"/>
     <use x="983.7734375" xlink:href="#ArialMT-69"/>
     <use x="1005.99023438" xlink:href="#ArialMT-63"/>
     <use x="1055.99023438" xlink:href="#ArialMT-20"/>
     <use x="1083.7734375" xlink:href="#ArialMT-4c"/>
     <use x="1139.38867188" xlink:href="#ArialMT-4e"/>
     <use x="1211.60546875" xlink:href="#ArialMT-20"/>
     <use x="1239.38867188" xlink:href="#ArialMT-34"/>
     <use x="1295.00390625" xlink:href="#ArialMT-3a"/>
     <use x="1322.78710938" xlink:href="#ArialMT-20"/>
     <use x="1350.5703125" xlink:href="#ArialMT-35"/>
     <use x="1406.18554688" xlink:href="#ArialMT-30"/>
     <use x="1461.80078125" xlink:href="#ArialMT-20"/>
     <use x="1489.58398438" xlink:href="#ArialMT-62"/>
     <use x="1545.19921875" xlink:href="#ArialMT-61"/>
     <use x="1600.81445312" xlink:href="#ArialMT-72"/>
     <use x="1634.11523438" xlink:href="#ArialMT-63"/>
     <use x="1684.11523438" xlink:href="#ArialMT-6f"/>
     <use x="1739.73046875" xlink:href="#ArialMT-64"/>
     <use x="1795.34570312" xlink:href="#ArialMT-65"/>
     <use x="1850.9609375" xlink:href="#ArialMT-73"/>
    </g>
   </g>
   <g id="legend_1">
    <g id="line2d_36">
     <path d="M 379.675 48.657813 
L 399.675 48.657813 
" style="fill:none;stroke:#ff0000;stroke-linecap:round;stroke-width:3.0;"/>
    </g>
    <g id="line2d_37"/>
    <g id="text_20">
     <!-- raw values -->
     <g style="fill:#262626;" transform="translate(407.675 52.1578125)scale(0.1 -0.1)">
      <use xlink:href="#ArialMT-72"/>
      <use x="33.30078125" xlink:href="#ArialMT-61"/>
      <use x="88.916015625" xlink:href="#ArialMT-77"/>
      <use x="161.1328125" xlink:href="#ArialMT-20"/>
      <use x="188.916015625" xlink:href="#ArialMT-76"/>
      <use x="238.916015625" xlink:href="#ArialMT-61"/>
      <use x="294.53125" xlink:href="#ArialMT-6c"/>
      <use x="316.748046875" xlink:href="#ArialMT-75"/>
      <use x="372.36328125" xlink:href="#ArialMT-65"/>
      <use x="427.978515625" xlink:href="#ArialMT-73"/>
     </g>
    </g>
    <g id="line2d_38">
     <path d="M 379.675 62.803125 
L 399.675 62.803125 
" style="fill:none;opacity:0.8;stroke:#4c72b0;stroke-linecap:round;stroke-width:2.0;"/>
    </g>
    <g id="line2d_39"/>
    <g id="text_21">
     <!-- inversed FFT -->
     <defs>
      <path d="M 8.203125 0 
L 8.203125 71.578125 
L 56.5 71.578125 
L 56.5 63.140625 
L 17.671875 63.140625 
L 17.671875 40.96875 
L 51.265625 40.96875 
L 51.265625 32.515625 
L 17.671875 32.515625 
L 17.671875 0 
z
" id="ArialMT-46"/>
     </defs>
     <g style="fill:#262626;" transform="translate(407.675 66.303125)scale(0.1 -0.1)">
      <use xlink:href="#ArialMT-69"/>
      <use x="22.216796875" xlink:href="#ArialMT-6e"/>
      <use x="77.83203125" xlink:href="#ArialMT-76"/>
      <use x="127.83203125" xlink:href="#ArialMT-65"/>
      <use x="183.447265625" xlink:href="#ArialMT-72"/>
      <use x="216.748046875" xlink:href="#ArialMT-73"/>
      <use x="266.748046875" xlink:href="#ArialMT-65"/>
      <use x="322.36328125" xlink:href="#ArialMT-64"/>
      <use x="377.978515625" xlink:href="#ArialMT-20"/>
      <use x="405.76171875" xlink:href="#ArialMT-46"/>
      <use x="466.845703125" xlink:href="#ArialMT-46"/>
      <use x="527.9296875" xlink:href="#ArialMT-54"/>
     </g>
    </g>
    <g id="line2d_40">
     <path d="M 379.675 76.948438 
L 399.675 76.948438 
" style="fill:none;stroke:#008000;stroke-linecap:round;stroke-width:2.0;"/>
    </g>
    <g id="line2d_41"/>
    <g id="text_22">
     <!-- threshold: 50 barcodes -->
     <defs>
      <path d="M 25.78125 7.859375 
L 27.046875 0.09375 
Q 23.34375 -0.6875 20.40625 -0.6875 
Q 15.625 -0.6875 12.984375 0.828125 
Q 10.359375 2.34375 9.28125 4.8125 
Q 8.203125 7.28125 8.203125 15.1875 
L 8.203125 45.015625 
L 1.765625 45.015625 
L 1.765625 51.859375 
L 8.203125 51.859375 
L 8.203125 64.703125 
L 16.9375 69.96875 
L 16.9375 51.859375 
L 25.78125 51.859375 
L 25.78125 45.015625 
L 16.9375 45.015625 
L 16.9375 14.703125 
Q 16.9375 10.9375 17.40625 9.859375 
Q 17.875 8.796875 18.921875 8.15625 
Q 19.96875 7.515625 21.921875 7.515625 
Q 23.390625 7.515625 25.78125 7.859375 
" id="ArialMT-74"/>
     </defs>
     <g style="fill:#262626;" transform="translate(407.675 80.4484375)scale(0.1 -0.1)">
      <use xlink:href="#ArialMT-74"/>
      <use x="27.783203125" xlink:href="#ArialMT-68"/>
      <use x="83.3984375" xlink:href="#ArialMT-72"/>
      <use x="116.69921875" xlink:href="#ArialMT-65"/>
      <use x="172.314453125" xlink:href="#ArialMT-73"/>
      <use x="222.314453125" xlink:href="#ArialMT-68"/>
      <use x="277.9296875" xlink:href="#ArialMT-6f"/>
      <use x="333.544921875" xlink:href="#ArialMT-6c"/>
      <use x="355.76171875" xlink:href="#ArialMT-64"/>
      <use x="411.376953125" xlink:href="#ArialMT-3a"/>
      <use x="439.16015625" xlink:href="#ArialMT-20"/>
      <use x="466.943359375" xlink:href="#ArialMT-35"/>
      <use x="522.55859375" xlink:href="#ArialMT-30"/>
      <use x="578.173828125" xlink:href="#ArialMT-20"/>
      <use x="605.95703125" xlink:href="#ArialMT-62"/>
      <use x="661.572265625" xlink:href="#ArialMT-61"/>
      <use x="717.1875" xlink:href="#ArialMT-72"/>
      <use x="750.48828125" xlink:href="#ArialMT-63"/>
      <use x="800.48828125" xlink:href="#ArialMT-6f"/>
      <use x="856.103515625" xlink:href="#ArialMT-64"/>
      <use x="911.71875" xlink:href="#ArialMT-65"/>
      <use x="967.333984375" xlink:href="#ArialMT-73"/>
     </g>
    </g>
   </g>
  </g>
 </g>
 <defs>
  <clipPath id="p1b67f858e0">
   <rect height="279.0" width="446.4" x="72.0" y="36.0"/>
  </clipPath>
 </defs>
</svg>
