<?xml version="1.0" encoding="utf-8" standalone="no"?>
<!DOCTYPE svg PUBLIC "-//W3C//DTD SVG 1.1//EN"
  "http://www.w3.org/Graphics/SVG/1.1/DTD/svg11.dtd">
<!-- Created with matplotlib (http://matplotlib.org/) -->
<svg height="360pt" version="1.1" viewBox="0 0 576 360" width="576pt" xmlns="http://www.w3.org/2000/svg" xmlns:xlink="http://www.w3.org/1999/xlink">
 <defs>
  <style type="text/css">
*{stroke-linecap:butt;stroke-linejoin:round;stroke-miterlimit:100000;}
  </style>
 </defs>
 <g id="figure_1">
  <g id="patch_1">
   <path d="M 0 360 
L 576 360 
L 576 0 
L 0 0 
z
" style="fill:#ffffff;"/>
  </g>
  <g id="axes_1">
   <g id="patch_2">
    <path d="M 72 315 
L 518.4 315 
L 518.4 36 
L 72 36 
z
" style="fill:#ffffff;"/>
   </g>
   <g id="matplotlib.axis_1">
    <g id="xtick_1">
     <g id="line2d_1">
      <defs>
       <path d="M 0 0 
L 0 0 
" id="m545c611244" style="stroke:#262626;"/>
      </defs>
      <g>
       <use style="fill:#262626;stroke:#262626;" x="74.8164037855" xlink:href="#m545c611244" y="315.0"/>
      </g>
     </g>
     <g id="line2d_2">
      <g>
       <use style="fill:#262626;stroke:#262626;" x="74.8164037855" xlink:href="#m545c611244" y="36.0"/>
      </g>
     </g>
     <g id="text_1">
      <!-- 0 -->
      <defs>
       <path d="M 4.15625 35.296875 
Q 4.15625 48 6.765625 55.734375 
Q 9.375 63.484375 14.515625 67.671875 
Q 19.671875 71.875 27.484375 71.875 
Q 33.25 71.875 37.59375 69.546875 
Q 41.9375 67.234375 44.765625 62.859375 
Q 47.609375 58.5 49.21875 52.21875 
Q 50.828125 45.953125 50.828125 35.296875 
Q 50.828125 22.703125 48.234375 14.96875 
Q 45.65625 7.234375 40.5 3 
Q 35.359375 -1.21875 27.484375 -1.21875 
Q 17.140625 -1.21875 11.234375 6.203125 
Q 4.15625 15.140625 4.15625 35.296875 
M 13.1875 35.296875 
Q 13.1875 17.671875 17.3125 11.828125 
Q 21.4375 6 27.484375 6 
Q 33.546875 6 37.671875 11.859375 
Q 41.796875 17.71875 41.796875 35.296875 
Q 41.796875 52.984375 37.671875 58.78125 
Q 33.546875 64.59375 27.390625 64.59375 
Q 21.34375 64.59375 17.71875 59.46875 
Q 13.1875 52.9375 13.1875 35.296875 
" id="ArialMT-30"/>
      </defs>
      <g style="fill:#262626;" transform="translate(72.0359350355 329.1578125)scale(0.1 -0.1)">
       <use xlink:href="#ArialMT-30"/>
      </g>
     </g>
    </g>
    <g id="xtick_2">
     <g id="line2d_3">
      <g>
       <use style="fill:#262626;stroke:#262626;" x="131.144479495" xlink:href="#m545c611244" y="315.0"/>
      </g>
     </g>
     <g id="line2d_4">
      <g>
       <use style="fill:#262626;stroke:#262626;" x="131.144479495" xlink:href="#m545c611244" y="36.0"/>
      </g>
     </g>
     <g id="text_2">
      <!-- 200 -->
      <defs>
       <path d="M 50.34375 8.453125 
L 50.34375 0 
L 3.03125 0 
Q 2.9375 3.171875 4.046875 6.109375 
Q 5.859375 10.9375 9.828125 15.625 
Q 13.8125 20.3125 21.34375 26.46875 
Q 33.015625 36.03125 37.109375 41.625 
Q 41.21875 47.21875 41.21875 52.203125 
Q 41.21875 57.421875 37.46875 61 
Q 33.734375 64.59375 27.734375 64.59375 
Q 21.390625 64.59375 17.578125 60.78125 
Q 13.765625 56.984375 13.71875 50.25 
L 4.6875 51.171875 
Q 5.609375 61.28125 11.65625 66.578125 
Q 17.71875 71.875 27.9375 71.875 
Q 38.234375 71.875 44.234375 66.15625 
Q 50.25 60.453125 50.25 52 
Q 50.25 47.703125 48.484375 43.546875 
Q 46.734375 39.40625 42.65625 34.8125 
Q 38.578125 30.21875 29.109375 22.21875 
Q 21.1875 15.578125 18.9375 13.203125 
Q 16.703125 10.84375 15.234375 8.453125 
z
" id="ArialMT-32"/>
      </defs>
      <g style="fill:#262626;" transform="translate(122.803073245 329.1578125)scale(0.1 -0.1)">
       <use xlink:href="#ArialMT-32"/>
       <use x="55.615234375" xlink:href="#ArialMT-30"/>
       <use x="111.23046875" xlink:href="#ArialMT-30"/>
      </g>
     </g>
    </g>
    <g id="xtick_3">
     <g id="line2d_5">
      <g>
       <use style="fill:#262626;stroke:#262626;" x="187.472555205" xlink:href="#m545c611244" y="315.0"/>
      </g>
     </g>
     <g id="line2d_6">
      <g>
       <use style="fill:#262626;stroke:#262626;" x="187.472555205" xlink:href="#m545c611244" y="36.0"/>
      </g>
     </g>
     <g id="text_3">
      <!-- 400 -->
      <defs>
       <path d="M 32.328125 0 
L 32.328125 17.140625 
L 1.265625 17.140625 
L 1.265625 25.203125 
L 33.9375 71.578125 
L 41.109375 71.578125 
L 41.109375 25.203125 
L 50.78125 25.203125 
L 50.78125 17.140625 
L 41.109375 17.140625 
L 41.109375 0 
z
M 32.328125 25.203125 
L 32.328125 57.46875 
L 9.90625 25.203125 
z
" id="ArialMT-34"/>
      </defs>
      <g style="fill:#262626;" transform="translate(179.131148955 329.1578125)scale(0.1 -0.1)">
       <use xlink:href="#ArialMT-34"/>
       <use x="55.615234375" xlink:href="#ArialMT-30"/>
       <use x="111.23046875" xlink:href="#ArialMT-30"/>
      </g>
     </g>
    </g>
    <g id="xtick_4">
     <g id="line2d_7">
      <g>
       <use style="fill:#262626;stroke:#262626;" x="243.800630915" xlink:href="#m545c611244" y="315.0"/>
      </g>
     </g>
     <g id="line2d_8">
      <g>
       <use style="fill:#262626;stroke:#262626;" x="243.800630915" xlink:href="#m545c611244" y="36.0"/>
      </g>
     </g>
     <g id="text_4">
      <!-- 600 -->
      <defs>
       <path d="M 49.75 54.046875 
L 41.015625 53.375 
Q 39.84375 58.546875 37.703125 60.890625 
Q 34.125 64.65625 28.90625 64.65625 
Q 24.703125 64.65625 21.53125 62.3125 
Q 17.390625 59.28125 14.984375 53.46875 
Q 12.59375 47.65625 12.5 36.921875 
Q 15.671875 41.75 20.265625 44.09375 
Q 24.859375 46.4375 29.890625 46.4375 
Q 38.671875 46.4375 44.84375 39.96875 
Q 51.03125 33.5 51.03125 23.25 
Q 51.03125 16.5 48.125 10.71875 
Q 45.21875 4.9375 40.140625 1.859375 
Q 35.0625 -1.21875 28.609375 -1.21875 
Q 17.625 -1.21875 10.6875 6.859375 
Q 3.765625 14.9375 3.765625 33.5 
Q 3.765625 54.25 11.421875 63.671875 
Q 18.109375 71.875 29.4375 71.875 
Q 37.890625 71.875 43.28125 67.140625 
Q 48.6875 62.40625 49.75 54.046875 
M 13.875 23.1875 
Q 13.875 18.65625 15.796875 14.5 
Q 17.71875 10.359375 21.1875 8.171875 
Q 24.65625 6 28.46875 6 
Q 34.03125 6 38.03125 10.484375 
Q 42.046875 14.984375 42.046875 22.703125 
Q 42.046875 30.125 38.078125 34.390625 
Q 34.125 38.671875 28.125 38.671875 
Q 22.171875 38.671875 18.015625 34.390625 
Q 13.875 30.125 13.875 23.1875 
" id="ArialMT-36"/>
      </defs>
      <g style="fill:#262626;" transform="translate(235.459224665 329.1578125)scale(0.1 -0.1)">
       <use xlink:href="#ArialMT-36"/>
       <use x="55.615234375" xlink:href="#ArialMT-30"/>
       <use x="111.23046875" xlink:href="#ArialMT-30"/>
      </g>
     </g>
    </g>
    <g id="xtick_5">
     <g id="line2d_9">
      <g>
       <use style="fill:#262626;stroke:#262626;" x="300.128706625" xlink:href="#m545c611244" y="315.0"/>
      </g>
     </g>
     <g id="line2d_10">
      <g>
       <use style="fill:#262626;stroke:#262626;" x="300.128706625" xlink:href="#m545c611244" y="36.0"/>
      </g>
     </g>
     <g id="text_5">
      <!-- 800 -->
      <defs>
       <path d="M 17.671875 38.8125 
Q 12.203125 40.828125 9.5625 44.53125 
Q 6.9375 48.25 6.9375 53.421875 
Q 6.9375 61.234375 12.546875 66.546875 
Q 18.171875 71.875 27.484375 71.875 
Q 36.859375 71.875 42.578125 66.421875 
Q 48.296875 60.984375 48.296875 53.171875 
Q 48.296875 48.1875 45.671875 44.5 
Q 43.0625 40.828125 37.75 38.8125 
Q 44.34375 36.671875 47.78125 31.875 
Q 51.21875 27.09375 51.21875 20.453125 
Q 51.21875 11.28125 44.71875 5.03125 
Q 38.234375 -1.21875 27.640625 -1.21875 
Q 17.046875 -1.21875 10.546875 5.046875 
Q 4.046875 11.328125 4.046875 20.703125 
Q 4.046875 27.6875 7.59375 32.390625 
Q 11.140625 37.109375 17.671875 38.8125 
M 15.921875 53.71875 
Q 15.921875 48.640625 19.1875 45.40625 
Q 22.46875 42.1875 27.6875 42.1875 
Q 32.765625 42.1875 36.015625 45.375 
Q 39.265625 48.578125 39.265625 53.21875 
Q 39.265625 58.0625 35.90625 61.359375 
Q 32.5625 64.65625 27.59375 64.65625 
Q 22.5625 64.65625 19.234375 61.421875 
Q 15.921875 58.203125 15.921875 53.71875 
M 13.09375 20.65625 
Q 13.09375 16.890625 14.875 13.375 
Q 16.65625 9.859375 20.171875 7.921875 
Q 23.6875 6 27.734375 6 
Q 34.03125 6 38.125 10.046875 
Q 42.234375 14.109375 42.234375 20.359375 
Q 42.234375 26.703125 38.015625 30.859375 
Q 33.796875 35.015625 27.4375 35.015625 
Q 21.234375 35.015625 17.15625 30.90625 
Q 13.09375 26.8125 13.09375 20.65625 
" id="ArialMT-38"/>
      </defs>
      <g style="fill:#262626;" transform="translate(291.787300375 329.1578125)scale(0.1 -0.1)">
       <use xlink:href="#ArialMT-38"/>
       <use x="55.615234375" xlink:href="#ArialMT-30"/>
       <use x="111.23046875" xlink:href="#ArialMT-30"/>
      </g>
     </g>
    </g>
    <g id="xtick_6">
     <g id="line2d_11">
      <g>
       <use style="fill:#262626;stroke:#262626;" x="356.456782334" xlink:href="#m545c611244" y="315.0"/>
      </g>
     </g>
     <g id="line2d_12">
      <g>
       <use style="fill:#262626;stroke:#262626;" x="356.456782334" xlink:href="#m545c611244" y="36.0"/>
      </g>
     </g>
     <g id="text_6">
      <!-- 1000 -->
      <defs>
       <path d="M 37.25 0 
L 28.46875 0 
L 28.46875 56 
Q 25.296875 52.984375 20.140625 49.953125 
Q 14.984375 46.921875 10.890625 45.40625 
L 10.890625 53.90625 
Q 18.265625 57.375 23.78125 62.296875 
Q 29.296875 67.234375 31.59375 71.875 
L 37.25 71.875 
z
" id="ArialMT-31"/>
      </defs>
      <g style="fill:#262626;" transform="translate(345.334907334 329.1578125)scale(0.1 -0.1)">
       <use xlink:href="#ArialMT-31"/>
       <use x="55.615234375" xlink:href="#ArialMT-30"/>
       <use x="111.23046875" xlink:href="#ArialMT-30"/>
       <use x="166.845703125" xlink:href="#ArialMT-30"/>
      </g>
     </g>
    </g>
    <g id="xtick_7">
     <g id="line2d_13">
      <g>
       <use style="fill:#262626;stroke:#262626;" x="412.784858044" xlink:href="#m545c611244" y="315.0"/>
      </g>
     </g>
     <g id="line2d_14">
      <g>
       <use style="fill:#262626;stroke:#262626;" x="412.784858044" xlink:href="#m545c611244" y="36.0"/>
      </g>
     </g>
     <g id="text_7">
      <!-- 1200 -->
      <g style="fill:#262626;" transform="translate(401.662983044 329.1578125)scale(0.1 -0.1)">
       <use xlink:href="#ArialMT-31"/>
       <use x="55.615234375" xlink:href="#ArialMT-32"/>
       <use x="111.23046875" xlink:href="#ArialMT-30"/>
       <use x="166.845703125" xlink:href="#ArialMT-30"/>
      </g>
     </g>
    </g>
    <g id="xtick_8">
     <g id="line2d_15">
      <g>
       <use style="fill:#262626;stroke:#262626;" x="469.112933754" xlink:href="#m545c611244" y="315.0"/>
      </g>
     </g>
     <g id="line2d_16">
      <g>
       <use style="fill:#262626;stroke:#262626;" x="469.112933754" xlink:href="#m545c611244" y="36.0"/>
      </g>
     </g>
     <g id="text_8">
      <!-- 1400 -->
      <g style="fill:#262626;" transform="translate(457.991058754 329.1578125)scale(0.1 -0.1)">
       <use xlink:href="#ArialMT-31"/>
       <use x="55.615234375" xlink:href="#ArialMT-34"/>
       <use x="111.23046875" xlink:href="#ArialMT-30"/>
       <use x="166.845703125" xlink:href="#ArialMT-30"/>
      </g>
     </g>
    </g>
    <g id="text_9">
     <!-- barcode, rank-ordered -->
     <defs>
      <path d="M 40.4375 19 
L 49.078125 17.875 
Q 47.65625 8.9375 41.8125 3.875 
Q 35.984375 -1.171875 27.484375 -1.171875 
Q 16.84375 -1.171875 10.375 5.78125 
Q 3.90625 12.75 3.90625 25.734375 
Q 3.90625 34.125 6.6875 40.421875 
Q 9.46875 46.734375 15.15625 49.875 
Q 20.84375 53.03125 27.546875 53.03125 
Q 35.984375 53.03125 41.359375 48.75 
Q 46.734375 44.484375 48.25 36.625 
L 39.703125 35.296875 
Q 38.484375 40.53125 35.375 43.15625 
Q 32.28125 45.796875 27.875 45.796875 
Q 21.234375 45.796875 17.078125 41.03125 
Q 12.9375 36.28125 12.9375 25.984375 
Q 12.9375 15.53125 16.9375 10.796875 
Q 20.953125 6.0625 27.390625 6.0625 
Q 32.5625 6.0625 36.03125 9.234375 
Q 39.5 12.40625 40.4375 19 
" id="ArialMT-63"/>
      <path d="M 14.703125 0 
L 6.546875 0 
L 6.546875 71.578125 
L 15.328125 71.578125 
L 15.328125 46.046875 
Q 20.90625 53.03125 29.546875 53.03125 
Q 34.328125 53.03125 38.59375 51.09375 
Q 42.875 49.171875 45.625 45.671875 
Q 48.390625 42.1875 49.953125 37.25 
Q 51.515625 32.328125 51.515625 26.703125 
Q 51.515625 13.375 44.921875 6.09375 
Q 38.328125 -1.171875 29.109375 -1.171875 
Q 19.921875 -1.171875 14.703125 6.5 
z
M 14.59375 26.3125 
Q 14.59375 17 17.140625 12.84375 
Q 21.296875 6.0625 28.375 6.0625 
Q 34.125 6.0625 38.328125 11.0625 
Q 42.53125 16.0625 42.53125 25.984375 
Q 42.53125 36.140625 38.5 40.96875 
Q 34.46875 45.796875 28.765625 45.796875 
Q 23 45.796875 18.796875 40.796875 
Q 14.59375 35.796875 14.59375 26.3125 
" id="ArialMT-62"/>
      <path d="M 40.4375 6.390625 
Q 35.546875 2.25 31.03125 0.53125 
Q 26.515625 -1.171875 21.34375 -1.171875 
Q 12.796875 -1.171875 8.203125 3 
Q 3.609375 7.171875 3.609375 13.671875 
Q 3.609375 17.484375 5.34375 20.625 
Q 7.078125 23.78125 9.890625 25.6875 
Q 12.703125 27.59375 16.21875 28.5625 
Q 18.796875 29.25 24.03125 29.890625 
Q 34.671875 31.15625 39.703125 32.90625 
Q 39.75 34.71875 39.75 35.203125 
Q 39.75 40.578125 37.25 42.78125 
Q 33.890625 45.75 27.25 45.75 
Q 21.046875 45.75 18.09375 43.578125 
Q 15.140625 41.40625 13.71875 35.890625 
L 5.125 37.0625 
Q 6.296875 42.578125 8.984375 45.96875 
Q 11.671875 49.359375 16.75 51.1875 
Q 21.828125 53.03125 28.515625 53.03125 
Q 35.15625 53.03125 39.296875 51.46875 
Q 43.453125 49.90625 45.40625 47.53125 
Q 47.359375 45.171875 48.140625 41.546875 
Q 48.578125 39.3125 48.578125 33.453125 
L 48.578125 21.734375 
Q 48.578125 9.46875 49.140625 6.21875 
Q 49.703125 2.984375 51.375 0 
L 42.1875 0 
Q 40.828125 2.734375 40.4375 6.390625 
M 39.703125 26.03125 
Q 34.90625 24.078125 25.34375 22.703125 
Q 19.921875 21.921875 17.671875 20.9375 
Q 15.4375 19.96875 14.203125 18.09375 
Q 12.984375 16.21875 12.984375 13.921875 
Q 12.984375 10.40625 15.640625 8.0625 
Q 18.3125 5.71875 23.4375 5.71875 
Q 28.515625 5.71875 32.46875 7.9375 
Q 36.421875 10.15625 38.28125 14.015625 
Q 39.703125 17 39.703125 22.796875 
z
" id="ArialMT-61"/>
      <path d="M 42.09375 16.703125 
L 51.171875 15.578125 
Q 49.03125 7.625 43.21875 3.21875 
Q 37.40625 -1.171875 28.375 -1.171875 
Q 17 -1.171875 10.328125 5.828125 
Q 3.65625 12.84375 3.65625 25.484375 
Q 3.65625 38.578125 10.390625 45.796875 
Q 17.140625 53.03125 27.875 53.03125 
Q 38.28125 53.03125 44.875 45.953125 
Q 51.46875 38.875 51.46875 26.03125 
Q 51.46875 25.25 51.421875 23.6875 
L 12.75 23.6875 
Q 13.234375 15.140625 17.578125 10.59375 
Q 21.921875 6.0625 28.421875 6.0625 
Q 33.25 6.0625 36.671875 8.59375 
Q 40.09375 11.140625 42.09375 16.703125 
M 13.234375 30.90625 
L 42.1875 30.90625 
Q 41.609375 37.453125 38.875 40.71875 
Q 34.671875 45.796875 27.984375 45.796875 
Q 21.921875 45.796875 17.796875 41.75 
Q 13.671875 37.703125 13.234375 30.90625 
" id="ArialMT-65"/>
      <path d="M 40.234375 0 
L 40.234375 6.546875 
Q 35.296875 -1.171875 25.734375 -1.171875 
Q 19.53125 -1.171875 14.328125 2.25 
Q 9.125 5.671875 6.265625 11.796875 
Q 3.421875 17.921875 3.421875 25.875 
Q 3.421875 33.640625 6 39.96875 
Q 8.59375 46.296875 13.765625 49.65625 
Q 18.953125 53.03125 25.34375 53.03125 
Q 30.03125 53.03125 33.6875 51.046875 
Q 37.359375 49.078125 39.65625 45.90625 
L 39.65625 71.578125 
L 48.390625 71.578125 
L 48.390625 0 
z
M 12.453125 25.875 
Q 12.453125 15.921875 16.640625 10.984375 
Q 20.84375 6.0625 26.5625 6.0625 
Q 32.328125 6.0625 36.34375 10.765625 
Q 40.375 15.484375 40.375 25.140625 
Q 40.375 35.796875 36.265625 40.765625 
Q 32.171875 45.75 26.171875 45.75 
Q 20.3125 45.75 16.375 40.96875 
Q 12.453125 36.1875 12.453125 25.875 
" id="ArialMT-64"/>
      <path d="M 3.171875 21.484375 
L 3.171875 30.328125 
L 30.171875 30.328125 
L 30.171875 21.484375 
z
" id="ArialMT-2d"/>
      <path d="M 8.890625 0 
L 8.890625 10.015625 
L 18.890625 10.015625 
L 18.890625 0 
Q 18.890625 -5.515625 16.9375 -8.90625 
Q 14.984375 -12.3125 10.75 -14.15625 
L 8.296875 -10.40625 
Q 11.078125 -9.1875 12.390625 -6.8125 
Q 13.71875 -4.4375 13.875 0 
z
" id="ArialMT-2c"/>
      <path d="M 6.5 0 
L 6.5 51.859375 
L 14.40625 51.859375 
L 14.40625 44 
Q 17.4375 49.515625 20 51.265625 
Q 22.5625 53.03125 25.640625 53.03125 
Q 30.078125 53.03125 34.671875 50.203125 
L 31.640625 42.046875 
Q 28.421875 43.953125 25.203125 43.953125 
Q 22.3125 43.953125 20.015625 42.21875 
Q 17.71875 40.484375 16.75 37.40625 
Q 15.28125 32.71875 15.28125 27.15625 
L 15.28125 0 
z
" id="ArialMT-72"/>
      <path d="M 6.640625 0 
L 6.640625 71.578125 
L 15.4375 71.578125 
L 15.4375 30.765625 
L 36.234375 51.859375 
L 47.609375 51.859375 
L 27.78125 32.625 
L 49.609375 0 
L 38.765625 0 
L 21.625 26.515625 
L 15.4375 20.5625 
L 15.4375 0 
z
" id="ArialMT-6b"/>
      <path d="M 3.328125 25.921875 
Q 3.328125 40.328125 11.328125 47.265625 
Q 18.015625 53.03125 27.640625 53.03125 
Q 38.328125 53.03125 45.109375 46.015625 
Q 51.90625 39.015625 51.90625 26.65625 
Q 51.90625 16.65625 48.90625 10.90625 
Q 45.90625 5.171875 40.15625 2 
Q 34.421875 -1.171875 27.640625 -1.171875 
Q 16.75 -1.171875 10.03125 5.8125 
Q 3.328125 12.796875 3.328125 25.921875 
M 12.359375 25.921875 
Q 12.359375 15.96875 16.703125 11.015625 
Q 21.046875 6.0625 27.640625 6.0625 
Q 34.1875 6.0625 38.53125 11.03125 
Q 42.875 16.015625 42.875 26.21875 
Q 42.875 35.84375 38.5 40.796875 
Q 34.125 45.75 27.640625 45.75 
Q 21.046875 45.75 16.703125 40.8125 
Q 12.359375 35.890625 12.359375 25.921875 
" id="ArialMT-6f"/>
      <path d="M 6.59375 0 
L 6.59375 51.859375 
L 14.5 51.859375 
L 14.5 44.484375 
Q 20.21875 53.03125 31 53.03125 
Q 35.6875 53.03125 39.625 51.34375 
Q 43.5625 49.65625 45.515625 46.921875 
Q 47.46875 44.1875 48.25 40.4375 
Q 48.734375 37.984375 48.734375 31.890625 
L 48.734375 0 
L 39.9375 0 
L 39.9375 31.546875 
Q 39.9375 36.921875 38.90625 39.578125 
Q 37.890625 42.234375 35.28125 43.8125 
Q 32.671875 45.40625 29.15625 45.40625 
Q 23.53125 45.40625 19.453125 41.84375 
Q 15.375 38.28125 15.375 28.328125 
L 15.375 0 
z
" id="ArialMT-6e"/>
      <path id="ArialMT-20"/>
     </defs>
     <g style="fill:#262626;" transform="translate(240.785234375 344.01890625)scale(0.11 -0.11)">
      <use xlink:href="#ArialMT-62"/>
      <use x="55.615234375" xlink:href="#ArialMT-61"/>
      <use x="111.23046875" xlink:href="#ArialMT-72"/>
      <use x="144.53125" xlink:href="#ArialMT-63"/>
      <use x="194.53125" xlink:href="#ArialMT-6f"/>
      <use x="250.146484375" xlink:href="#ArialMT-64"/>
      <use x="305.76171875" xlink:href="#ArialMT-65"/>
      <use x="361.376953125" xlink:href="#ArialMT-2c"/>
      <use x="389.16015625" xlink:href="#ArialMT-20"/>
      <use x="416.943359375" xlink:href="#ArialMT-72"/>
      <use x="450.244140625" xlink:href="#ArialMT-61"/>
      <use x="505.859375" xlink:href="#ArialMT-6e"/>
      <use x="561.474609375" xlink:href="#ArialMT-6b"/>
      <use x="611.474609375" xlink:href="#ArialMT-2d"/>
      <use x="644.775390625" xlink:href="#ArialMT-6f"/>
      <use x="700.390625" xlink:href="#ArialMT-72"/>
      <use x="733.69140625" xlink:href="#ArialMT-64"/>
      <use x="789.306640625" xlink:href="#ArialMT-65"/>
      <use x="844.921875" xlink:href="#ArialMT-72"/>
      <use x="878.22265625" xlink:href="#ArialMT-65"/>
      <use x="933.837890625" xlink:href="#ArialMT-64"/>
     </g>
    </g>
   </g>
   <g id="matplotlib.axis_2">
    <g id="ytick_1">
     <g id="line2d_17">
      <g>
       <use style="fill:#262626;stroke:#262626;" x="72.0" xlink:href="#m545c611244" y="315.0"/>
      </g>
     </g>
     <g id="line2d_18">
      <g>
       <use style="fill:#262626;stroke:#262626;" x="518.4" xlink:href="#m545c611244" y="315.0"/>
      </g>
     </g>
     <g id="text_10">
      <!-- 0 -->
      <g style="fill:#262626;" transform="translate(59.4390625 317.58515625)scale(0.1 -0.1)">
       <use xlink:href="#ArialMT-30"/>
      </g>
     </g>
    </g>
    <g id="ytick_2">
     <g id="line2d_19">
      <g>
       <use style="fill:#262626;stroke:#262626;" x="72.0" xlink:href="#m545c611244" y="258.747609934"/>
      </g>
     </g>
     <g id="line2d_20">
      <g>
       <use style="fill:#262626;stroke:#262626;" x="518.4" xlink:href="#m545c611244" y="258.747609934"/>
      </g>
     </g>
     <g id="text_11">
      <!-- 1 -->
      <g style="fill:#262626;" transform="translate(59.4390625 261.332766184)scale(0.1 -0.1)">
       <use xlink:href="#ArialMT-31"/>
      </g>
     </g>
    </g>
    <g id="ytick_3">
     <g id="line2d_21">
      <g>
       <use style="fill:#262626;stroke:#262626;" x="72.0" xlink:href="#m545c611244" y="202.495219868"/>
      </g>
     </g>
     <g id="line2d_22">
      <g>
       <use style="fill:#262626;stroke:#262626;" x="518.4" xlink:href="#m545c611244" y="202.495219868"/>
      </g>
     </g>
     <g id="text_12">
      <!-- 2 -->
      <g style="fill:#262626;" transform="translate(59.4390625 205.080376118)scale(0.1 -0.1)">
       <use xlink:href="#ArialMT-32"/>
      </g>
     </g>
    </g>
    <g id="ytick_4">
     <g id="line2d_23">
      <g>
       <use style="fill:#262626;stroke:#262626;" x="72.0" xlink:href="#m545c611244" y="146.242829802"/>
      </g>
     </g>
     <g id="line2d_24">
      <g>
       <use style="fill:#262626;stroke:#262626;" x="518.4" xlink:href="#m545c611244" y="146.242829802"/>
      </g>
     </g>
     <g id="text_13">
      <!-- 3 -->
      <defs>
       <path d="M 4.203125 18.890625 
L 12.984375 20.0625 
Q 14.5 12.59375 18.140625 9.296875 
Q 21.78125 6 27 6 
Q 33.203125 6 37.46875 10.296875 
Q 41.75 14.59375 41.75 20.953125 
Q 41.75 27 37.796875 30.921875 
Q 33.84375 34.859375 27.734375 34.859375 
Q 25.25 34.859375 21.53125 33.890625 
L 22.515625 41.609375 
Q 23.390625 41.5 23.921875 41.5 
Q 29.546875 41.5 34.03125 44.421875 
Q 38.53125 47.359375 38.53125 53.46875 
Q 38.53125 58.296875 35.25 61.46875 
Q 31.984375 64.65625 26.8125 64.65625 
Q 21.6875 64.65625 18.265625 61.421875 
Q 14.84375 58.203125 13.875 51.765625 
L 5.078125 53.328125 
Q 6.6875 62.15625 12.390625 67.015625 
Q 18.109375 71.875 26.609375 71.875 
Q 32.46875 71.875 37.390625 69.359375 
Q 42.328125 66.84375 44.9375 62.5 
Q 47.5625 58.15625 47.5625 53.265625 
Q 47.5625 48.640625 45.0625 44.828125 
Q 42.578125 41.015625 37.703125 38.765625 
Q 44.046875 37.3125 47.5625 32.6875 
Q 51.078125 28.078125 51.078125 21.140625 
Q 51.078125 11.765625 44.234375 5.25 
Q 37.40625 -1.265625 26.953125 -1.265625 
Q 17.53125 -1.265625 11.296875 4.34375 
Q 5.078125 9.96875 4.203125 18.890625 
" id="ArialMT-33"/>
      </defs>
      <g style="fill:#262626;" transform="translate(59.4390625 148.827986052)scale(0.1 -0.1)">
       <use xlink:href="#ArialMT-33"/>
      </g>
     </g>
    </g>
    <g id="ytick_5">
     <g id="line2d_25">
      <g>
       <use style="fill:#262626;stroke:#262626;" x="72.0" xlink:href="#m545c611244" y="89.9904397355"/>
      </g>
     </g>
     <g id="line2d_26">
      <g>
       <use style="fill:#262626;stroke:#262626;" x="518.4" xlink:href="#m545c611244" y="89.9904397355"/>
      </g>
     </g>
     <g id="text_14">
      <!-- 4 -->
      <g style="fill:#262626;" transform="translate(59.4390625 92.5755959855)scale(0.1 -0.1)">
       <use xlink:href="#ArialMT-34"/>
      </g>
     </g>
    </g>
    <g id="text_15">
     <!-- log10 abundance (# molecules) -->
     <defs>
      <path d="M 4.984375 -4.296875 
L 13.53125 -5.5625 
Q 14.0625 -9.515625 16.5 -11.328125 
Q 19.78125 -13.765625 25.4375 -13.765625 
Q 31.546875 -13.765625 34.859375 -11.328125 
Q 38.1875 -8.890625 39.359375 -4.5 
Q 40.046875 -1.8125 39.984375 6.78125 
Q 34.234375 0 25.640625 0 
Q 14.9375 0 9.078125 7.71875 
Q 3.21875 15.4375 3.21875 26.21875 
Q 3.21875 33.640625 5.90625 39.90625 
Q 8.59375 46.1875 13.6875 49.609375 
Q 18.796875 53.03125 25.6875 53.03125 
Q 34.859375 53.03125 40.828125 45.609375 
L 40.828125 51.859375 
L 48.921875 51.859375 
L 48.921875 7.03125 
Q 48.921875 -5.078125 46.453125 -10.125 
Q 44 -15.1875 38.640625 -18.109375 
Q 33.296875 -21.046875 25.484375 -21.046875 
Q 16.21875 -21.046875 10.5 -16.875 
Q 4.78125 -12.703125 4.984375 -4.296875 
M 12.25 26.859375 
Q 12.25 16.65625 16.296875 11.96875 
Q 20.359375 7.28125 26.46875 7.28125 
Q 32.515625 7.28125 36.609375 11.9375 
Q 40.71875 16.609375 40.71875 26.5625 
Q 40.71875 36.078125 36.5 40.90625 
Q 32.28125 45.75 26.3125 45.75 
Q 20.453125 45.75 16.34375 40.984375 
Q 12.25 36.234375 12.25 26.859375 
" id="ArialMT-67"/>
      <path d="M 40.578125 0 
L 40.578125 7.625 
Q 34.515625 -1.171875 24.125 -1.171875 
Q 19.53125 -1.171875 15.546875 0.578125 
Q 11.578125 2.34375 9.640625 5 
Q 7.71875 7.671875 6.9375 11.53125 
Q 6.390625 14.109375 6.390625 19.734375 
L 6.390625 51.859375 
L 15.1875 51.859375 
L 15.1875 23.09375 
Q 15.1875 16.21875 15.71875 13.8125 
Q 16.546875 10.359375 19.234375 8.375 
Q 21.921875 6.390625 25.875 6.390625 
Q 29.828125 6.390625 33.296875 8.421875 
Q 36.765625 10.453125 38.203125 13.9375 
Q 39.65625 17.4375 39.65625 24.078125 
L 39.65625 51.859375 
L 48.4375 51.859375 
L 48.4375 0 
z
" id="ArialMT-75"/>
      <path d="M 23.390625 -21.046875 
Q 16.109375 -11.859375 11.078125 0.4375 
Q 6.0625 12.75 6.0625 25.921875 
Q 6.0625 37.546875 9.8125 48.1875 
Q 14.203125 60.546875 23.390625 72.796875 
L 29.6875 72.796875 
Q 23.78125 62.640625 21.875 58.296875 
Q 18.890625 51.5625 17.1875 44.234375 
Q 15.09375 35.109375 15.09375 25.875 
Q 15.09375 2.390625 29.6875 -21.046875 
z
" id="ArialMT-28"/>
      <path d="M 3.078125 15.484375 
L 11.765625 16.84375 
Q 12.5 11.625 15.84375 8.84375 
Q 19.1875 6.0625 25.203125 6.0625 
Q 31.25 6.0625 34.171875 8.515625 
Q 37.109375 10.984375 37.109375 14.3125 
Q 37.109375 17.28125 34.515625 19 
Q 32.71875 20.171875 25.53125 21.96875 
Q 15.875 24.421875 12.140625 26.203125 
Q 8.40625 27.984375 6.46875 31.125 
Q 4.546875 34.28125 4.546875 38.09375 
Q 4.546875 41.546875 6.125 44.5 
Q 7.71875 47.46875 10.453125 49.421875 
Q 12.5 50.921875 16.03125 51.96875 
Q 19.578125 53.03125 23.640625 53.03125 
Q 29.734375 53.03125 34.34375 51.265625 
Q 38.96875 49.515625 41.15625 46.5 
Q 43.359375 43.5 44.1875 38.484375 
L 35.59375 37.3125 
Q 35.015625 41.3125 32.203125 43.546875 
Q 29.390625 45.796875 24.265625 45.796875 
Q 18.21875 45.796875 15.625 43.796875 
Q 13.03125 41.796875 13.03125 39.109375 
Q 13.03125 37.40625 14.109375 36.03125 
Q 15.1875 34.625 17.484375 33.6875 
Q 18.796875 33.203125 25.25 31.453125 
Q 34.578125 28.953125 38.25 27.359375 
Q 41.9375 25.78125 44.03125 22.75 
Q 46.140625 19.734375 46.140625 15.234375 
Q 46.140625 10.84375 43.578125 6.953125 
Q 41.015625 3.078125 36.171875 0.953125 
Q 31.34375 -1.171875 25.25 -1.171875 
Q 15.140625 -1.171875 9.84375 3.03125 
Q 4.546875 7.234375 3.078125 15.484375 
" id="ArialMT-73"/>
      <path d="M 6.390625 0 
L 6.390625 71.578125 
L 15.1875 71.578125 
L 15.1875 0 
z
" id="ArialMT-6c"/>
      <path d="M 12.359375 -21.046875 
L 6.0625 -21.046875 
Q 20.65625 2.390625 20.65625 25.875 
Q 20.65625 35.0625 18.5625 44.09375 
Q 16.890625 51.421875 13.921875 58.15625 
Q 12.015625 62.546875 6.0625 72.796875 
L 12.359375 72.796875 
Q 21.53125 60.546875 25.921875 48.1875 
Q 29.6875 37.546875 29.6875 25.921875 
Q 29.6875 12.75 24.625 0.4375 
Q 19.578125 -11.859375 12.359375 -21.046875 
" id="ArialMT-29"/>
      <path d="M 6.59375 0 
L 6.59375 51.859375 
L 14.453125 51.859375 
L 14.453125 44.578125 
Q 16.890625 48.390625 20.9375 50.703125 
Q 25 53.03125 30.171875 53.03125 
Q 35.9375 53.03125 39.625 50.640625 
Q 43.3125 48.25 44.828125 43.953125 
Q 50.984375 53.03125 60.84375 53.03125 
Q 68.5625 53.03125 72.703125 48.75 
Q 76.859375 44.484375 76.859375 35.59375 
L 76.859375 0 
L 68.109375 0 
L 68.109375 32.671875 
Q 68.109375 37.9375 67.25 40.25 
Q 66.40625 42.578125 64.15625 43.984375 
Q 61.921875 45.40625 58.890625 45.40625 
Q 53.421875 45.40625 49.796875 41.765625 
Q 46.1875 38.140625 46.1875 30.125 
L 46.1875 0 
L 37.40625 0 
L 37.40625 33.6875 
Q 37.40625 39.546875 35.25 42.46875 
Q 33.109375 45.40625 28.21875 45.40625 
Q 24.515625 45.40625 21.359375 43.453125 
Q 18.21875 41.5 16.796875 37.734375 
Q 15.375 33.984375 15.375 26.90625 
L 15.375 0 
z
" id="ArialMT-6d"/>
      <path d="M 5.03125 -1.21875 
L 9.28125 19.578125 
L 1.03125 19.578125 
L 1.03125 26.859375 
L 10.75 26.859375 
L 14.359375 44.578125 
L 1.03125 44.578125 
L 1.03125 51.859375 
L 15.828125 51.859375 
L 20.0625 72.796875 
L 27.390625 72.796875 
L 23.140625 51.859375 
L 38.53125 51.859375 
L 42.78125 72.796875 
L 50.140625 72.796875 
L 45.90625 51.859375 
L 54.34375 51.859375 
L 54.34375 44.578125 
L 44.4375 44.578125 
L 40.765625 26.859375 
L 54.34375 26.859375 
L 54.34375 19.578125 
L 39.3125 19.578125 
L 35.0625 -1.21875 
L 27.734375 -1.21875 
L 31.9375 19.578125 
L 16.609375 19.578125 
L 12.359375 -1.21875 
z
M 18.0625 26.859375 
L 33.40625 26.859375 
L 37.0625 44.578125 
L 21.6875 44.578125 
z
" id="ArialMT-23"/>
     </defs>
     <g style="fill:#262626;" transform="translate(52.12390625 252.23875)rotate(-90.0)scale(0.11 -0.11)">
      <use xlink:href="#ArialMT-6c"/>
      <use x="22.216796875" xlink:href="#ArialMT-6f"/>
      <use x="77.83203125" xlink:href="#ArialMT-67"/>
      <use x="133.447265625" xlink:href="#ArialMT-31"/>
      <use x="189.0625" xlink:href="#ArialMT-30"/>
      <use x="244.677734375" xlink:href="#ArialMT-20"/>
      <use x="272.4609375" xlink:href="#ArialMT-61"/>
      <use x="328.076171875" xlink:href="#ArialMT-62"/>
      <use x="383.69140625" xlink:href="#ArialMT-75"/>
      <use x="439.306640625" xlink:href="#ArialMT-6e"/>
      <use x="494.921875" xlink:href="#ArialMT-64"/>
      <use x="550.537109375" xlink:href="#ArialMT-61"/>
      <use x="606.15234375" xlink:href="#ArialMT-6e"/>
      <use x="661.767578125" xlink:href="#ArialMT-63"/>
      <use x="711.767578125" xlink:href="#ArialMT-65"/>
      <use x="767.3828125" xlink:href="#ArialMT-20"/>
      <use x="795.166015625" xlink:href="#ArialMT-28"/>
      <use x="828.466796875" xlink:href="#ArialMT-23"/>
      <use x="884.08203125" xlink:href="#ArialMT-20"/>
      <use x="911.865234375" xlink:href="#ArialMT-6d"/>
      <use x="995.166015625" xlink:href="#ArialMT-6f"/>
      <use x="1050.78125" xlink:href="#ArialMT-6c"/>
      <use x="1072.99804688" xlink:href="#ArialMT-65"/>
      <use x="1128.61328125" xlink:href="#ArialMT-63"/>
      <use x="1178.61328125" xlink:href="#ArialMT-75"/>
      <use x="1234.22851562" xlink:href="#ArialMT-6c"/>
      <use x="1256.4453125" xlink:href="#ArialMT-65"/>
      <use x="1312.06054688" xlink:href="#ArialMT-73"/>
      <use x="1362.06054688" xlink:href="#ArialMT-29"/>
     </g>
    </g>
   </g>
   <g id="line2d_27">
    <path clip-path="url(#p7ae872d253)" d="M 74.816404 40.946295 
L 75.098044 44.432976 
L 75.379685 45.902027 
L 75.661325 57.002997 
L 76.506246 62.673038 
L 76.787886 63.775593 
L 77.069527 66.737567 
L 77.351167 67.231045 
L 77.632808 69.479354 
L 77.914448 70.57227 
L 78.196088 70.598766 
L 78.759369 73.501775 
L 79.041009 73.774474 
L 79.32265 74.498334 
L 79.60429 76.10354 
L 79.885931 79.246029 
L 80.167571 79.316948 
L 80.730852 80.53195 
L 81.012492 80.675021 
L 81.575773 86.472169 
L 81.857413 86.652638 
L 82.139054 89.856442 
L 82.420694 89.907518 
L 82.702334 94.319811 
L 82.983975 95.481591 
L 83.547256 104.462766 
L 83.828896 104.640118 
L 84.110536 106.045929 
L 84.673817 111.142885 
L 84.955457 112.0841 
L 85.518738 112.522538 
L 85.800379 112.763353 
L 86.363659 138.677116 
L 86.6453 167.37786 
L 86.92694 183.681397 
L 87.20858 185.197833 
L 87.490221 198.245523 
L 88.053502 200.166782 
L 88.335142 202.740751 
L 88.616782 202.988774 
L 88.898423 204.799239 
L 89.180063 205.069188 
L 89.461703 206.465574 
L 89.743344 208.565156 
L 90.024984 208.565156 
L 90.306625 209.523322 
L 90.588265 209.523322 
L 90.869905 210.862293 
L 91.151546 211.560344 
L 91.714826 214.57093 
L 91.996467 214.974742 
L 92.278107 215.802961 
L 93.404669 215.802961 
L 94.53123 217.54871 
L 94.812871 217.54871 
L 95.376151 218.470711 
L 95.657792 218.470711 
L 95.939432 218.945096 
L 96.221073 218.945096 
L 96.502713 219.428877 
L 96.784353 219.428877 
L 97.065994 220.426162 
L 97.347634 220.940499 
L 97.910915 220.940499 
L 98.474196 222.002845 
L 98.755836 222.002845 
L 99.037476 222.551859 
L 99.600757 222.551859 
L 99.882397 223.113495 
L 100.727319 223.113495 
L 101.008959 223.688348 
L 101.85388 223.688348 
L 102.135521 224.277053 
L 102.417161 224.277053 
L 102.698801 224.880296 
L 102.980442 224.880296 
L 103.262082 226.133397 
L 103.543722 226.133397 
L 103.825363 226.784905 
L 104.388644 226.784905 
L 104.670284 227.454265 
L 105.515205 227.454265 
L 105.796845 228.142482 
L 107.486688 228.142482 
L 107.768328 228.850651 
L 109.45817 228.850651 
L 109.739811 229.579962 
L 110.021451 229.579962 
L 110.303091 230.331716 
L 111.148013 230.331716 
L 111.429653 231.10734 
L 112.274574 231.10734 
L 112.556215 231.908399 
L 113.964416 231.908399 
L 114.246057 232.736617 
L 116.78082 232.736617 
L 117.062461 233.593902 
L 117.625741 233.593902 
L 117.907382 234.482367 
L 119.315584 234.482367 
L 119.597224 235.404367 
L 121.850347 235.404367 
L 122.131987 236.362533 
L 123.82183 236.362533 
L 124.10347 237.359819 
L 126.074953 237.359819 
L 126.356593 238.399555 
L 127.764795 238.399555 
L 128.046435 239.485516 
L 130.862839 239.485516 
L 131.144479 240.622004 
L 132.271041 240.622004 
L 132.552681 241.813953 
L 136.214006 241.813953 
L 136.495647 243.067054 
L 139.593691 243.067054 
L 139.875331 244.387921 
L 142.410095 244.387921 
L 142.691735 245.784307 
L 146.07142 245.784307 
L 146.35306 247.265373 
L 150.296025 247.265373 
L 150.577666 248.842056 
L 157.900315 248.842056 
L 158.181956 250.527559 
L 165.222965 250.527559 
L 165.504606 252.338024 
L 170.292492 252.338024 
L 170.574132 254.293476 
L 174.235457 254.293476 
L 174.517098 256.419172 
L 179.304984 256.419172 
L 179.586625 258.74761 
L 187.754196 258.74761 
L 188.035836 261.321578 
L 195.640126 261.321578 
L 195.921767 264.19903 
L 203.526057 264.19903 
L 203.807697 267.461215 
L 214.510032 267.461215 
L 214.791672 271.227132 
L 228.31041 271.227132 
L 228.59205 275.681267 
L 242.95571 275.681267 
L 243.23735 281.132687 
L 258.445931 281.132687 
L 258.727571 288.160789 
L 287.173249 288.160789 
L 287.45489 298.066343 
L 329.700946 298.066343 
L 329.982587 315 
L 518.11836 315 
L 518.11836 315 
" style="fill:none;stroke:#ff0000;stroke-linecap:round;stroke-width:3.0;"/>
   </g>
   <g id="line2d_28">
    <path clip-path="url(#p7ae872d253)" d="M 74.816404 77.450641 
L 75.661325 75.208858 
L 76.506246 73.654302 
L 77.069527 72.995387 
L 77.632808 72.639492 
L 78.196088 72.591025 
L 78.759369 72.857978 
L 79.32265 73.452602 
L 79.885931 74.392408 
L 80.449211 75.70168 
L 81.294132 78.434627 
L 82.139054 82.249134 
L 82.983975 87.439551 
L 83.828896 94.557685 
L 84.392177 100.918073 
L 84.955457 109.413946 
L 85.518738 121.972014 
L 85.800379 131.498317 
L 86.082019 146.586973 
L 86.363659 188.545773 
L 86.6453 315 
L 96.502713 315 
L 96.784353 200.181019 
L 97.065994 167.231585 
L 97.629274 146.571844 
L 98.192555 137.0907 
L 98.755836 131.625251 
L 99.319117 128.384834 
L 99.882397 126.657469 
L 100.164038 126.247301 
L 100.445678 126.103811 
L 100.727319 126.210053 
L 101.008959 126.554853 
L 101.57224 127.938872 
L 102.135521 130.254865 
L 102.698801 133.570081 
L 103.262082 138.039613 
L 103.825363 143.963327 
L 104.388644 151.937822 
L 104.951924 163.342372 
L 105.233565 171.410443 
L 105.515205 182.725766 
L 105.796845 202.260571 
L 106.078486 315 
L 111.148013 315 
L 111.429653 212.693888 
L 111.711293 192.018822 
L 112.274574 173.222847 
L 112.837855 162.945265 
L 113.401136 156.220275 
L 113.964416 151.588523 
L 114.527697 148.424249 
L 115.090978 146.410986 
L 115.654259 145.379403 
L 115.935899 145.20298 
L 116.217539 145.245535 
L 116.49918 145.505971 
L 116.78082 145.986591 
L 117.344101 147.636073 
L 117.907382 150.295152 
L 118.470662 154.168379 
L 119.033943 159.654332 
L 119.597224 167.601788 
L 120.160505 180.272986 
L 120.442145 190.586721 
L 120.723785 208.68541 
L 121.005426 315 
L 138.74877 315 
L 139.03041 250.460874 
L 139.31205 212.773674 
L 139.875331 188.596213 
L 140.438612 176.023602 
L 141.001893 167.505526 
L 141.846814 158.598515 
L 142.691735 152.531129 
L 143.536656 148.451018 
L 144.099937 146.639518 
L 144.663218 145.487761 
L 145.226498 144.972876 
L 145.508139 144.954106 
L 145.789779 145.097509 
L 146.07142 145.407504 
L 146.6347 146.554951 
L 147.197981 148.477458 
L 147.761262 151.312995 
L 148.324543 155.298321 
L 148.887823 160.867114 
L 149.451104 168.924414 
L 150.014385 181.896327 
L 150.296025 192.657288 
L 150.577666 212.337403 
L 150.859306 315 
L 159.871798 315 
L 160.153438 218.626931 
L 160.435079 201.147586 
L 160.99836 185.187518 
L 161.56164 177.101106 
L 162.124921 172.516449 
L 162.688202 170.164726 
L 162.969842 169.664919 
L 163.251483 169.580907 
L 163.533123 169.90867 
L 163.814763 170.66063 
L 164.096404 171.867591 
L 164.659685 175.897975 
L 165.222965 182.987069 
L 165.504606 188.437153 
L 165.786246 196.21025 
L 166.067886 208.744995 
L 166.349527 238.765765 
L 166.631167 315 
L 175.643659 315 
L 175.9253 227.404187 
L 176.20694 200.043518 
L 176.770221 179.361561 
L 177.333502 168.725068 
L 177.896782 161.862026 
L 178.460063 157.101547 
L 179.023344 153.753251 
L 179.586625 151.470427 
L 180.149905 150.060969 
L 180.713186 149.415256 
L 180.994826 149.358958 
L 181.276467 149.474693 
L 181.558107 149.76082 
L 182.121388 150.847509 
L 182.684669 152.646166 
L 183.24795 155.222329 
L 183.81123 158.695933 
L 184.374511 163.276959 
L 184.937792 169.348445 
L 185.501073 177.690975 
L 186.064353 190.283205 
L 186.345994 199.974642 
L 186.627634 215.583643 
L 187.190915 315 
L 206.624101 315 
L 206.905741 243.598273 
L 207.187382 223.962874 
L 207.750662 205.952461 
L 208.313943 196.145852 
L 208.877224 189.774749 
L 209.440505 185.433444 
L 210.003785 182.524379 
L 210.567066 180.750198 
L 210.848707 180.236651 
L 211.130347 179.955881 
L 211.411987 179.90092 
L 211.693628 180.068272 
L 211.975268 180.45761 
L 212.538549 181.916413 
L 213.10183 184.339207 
L 213.66511 187.853511 
L 214.228391 192.687648 
L 214.791672 199.254555 
L 215.354953 208.376734 
L 215.918233 222.075794 
L 216.199874 232.431652 
L 216.481514 248.652235 
L 216.763155 293.987188 
L 217.044795 315 
L 219.579558 315 
L 220.142839 241.446416 
L 220.70612 216.713869 
L 221.269401 202.912327 
L 221.832681 193.325045 
L 222.677603 183.221631 
L 223.522524 176.408341 
L 224.085804 173.229944 
L 224.649085 170.988572 
L 225.212366 169.626495 
L 225.494006 169.271239 
L 225.775647 169.137339 
L 226.057287 169.232263 
L 226.338927 169.567614 
L 226.620568 170.160079 
L 227.183849 172.21806 
L 227.747129 175.72122 
L 228.31041 181.311071 
L 228.873691 190.535058 
L 229.155331 197.791089 
L 229.436972 208.972651 
L 229.718612 231.963241 
L 230.000252 315 
L 240.420946 315 
L 240.702587 291.171839 
L 240.984227 215.105697 
L 241.265868 199.00495 
L 241.829148 183.14264 
L 242.392429 174.420728 
L 242.95571 168.837252 
L 243.518991 165.134745 
L 244.082271 162.763935 
L 244.645552 161.447331 
L 244.927192 161.135394 
L 245.208833 161.039029 
L 245.490473 161.151696 
L 245.772114 161.470198 
L 246.335394 162.727389 
L 246.898675 164.847758 
L 247.461956 167.928092 
L 248.025237 172.15339 
L 248.588517 177.866981 
L 249.151798 185.757075 
L 249.715079 197.485179 
L 249.996719 206.186804 
L 250.27836 219.231798 
L 250.56 246.632946 
L 250.84164 315 
L 256.756088 315 
L 257.037729 243.94707 
L 257.319369 222.45239 
L 257.88265 203.656399 
L 258.445931 193.655946 
L 259.009211 187.28539 
L 259.572492 183.068338 
L 260.135773 180.392597 
L 260.699054 178.96995 
L 260.980694 178.684876 
L 261.262334 178.675224 
L 261.543975 178.942246 
L 261.825615 179.49353 
L 262.388896 181.516375 
L 262.952177 184.983107 
L 263.515457 190.412717 
L 264.078738 199.029661 
L 264.360379 205.477982 
L 264.642019 214.751816 
L 264.923659 230.599598 
L 265.2053 296.921652 
L 265.48694 315 
L 279.005678 315 
L 279.287319 316.064461 
L 279.568959 271.014205 
L 280.13224 247.891859 
L 280.695521 236.209015 
L 281.540442 223.770846 
L 282.948644 206.892856 
L 284.356845 192.718345 
L 285.483407 183.515715 
L 286.609968 176.321442 
L 287.45489 172.248256 
L 288.299811 169.31357 
L 288.863091 168.002727 
L 289.426372 167.229045 
L 289.708013 167.052732 
L 289.989653 167.023551 
L 290.271293 167.148149 
L 290.552934 167.434764 
L 291.116215 168.537422 
L 291.679495 170.448018 
L 292.242776 173.354922 
L 292.806057 177.583487 
L 293.369338 183.760103 
L 293.932618 193.338194 
L 294.214259 200.564591 
L 294.495899 211.280674 
L 294.777539 231.509795 
L 295.05918 315 
L 304.916593 315 
L 305.198233 242.364582 
L 305.479874 218.337286 
L 306.043155 199.714979 
L 306.606435 190.691753 
L 307.169716 185.521673 
L 307.732997 182.677984 
L 308.014637 181.933305 
L 308.296278 181.592104 
L 308.577918 181.640385 
L 308.859558 182.078666 
L 309.141199 182.922025 
L 309.704479 185.973051 
L 310.26776 191.377028 
L 310.831041 200.698479 
L 311.112681 208.176552 
L 311.394322 219.890283 
L 311.675962 245.161519 
L 311.957603 315 
L 320.125174 315 
L 320.406814 226.116509 
L 320.688454 206.467305 
L 321.251735 188.149534 
L 321.815016 177.948392 
L 322.378297 171.121395 
L 322.941577 166.258025 
L 323.504858 162.750122 
L 324.068139 160.286404 
L 324.63142 158.694268 
L 325.1947 157.877956 
L 325.476341 157.744859 
L 325.757981 157.791742 
L 326.039621 158.01893 
L 326.602902 159.027213 
L 327.166183 160.822267 
L 327.729464 163.51071 
L 328.292744 167.285295 
L 328.856025 172.500041 
L 329.419306 179.870077 
L 329.982587 191.158295 
L 330.264227 199.801155 
L 330.545868 213.26609 
L 330.827508 245.064355 
L 331.109148 315 
L 350.260694 315 
L 350.542334 260.81937 
L 350.823975 238.634774 
L 351.387256 218.166498 
L 351.950536 206.425 
L 352.513817 198.266101 
L 353.358738 189.731721 
L 354.203659 184.075023 
L 354.76694 181.500928 
L 355.330221 179.743946 
L 355.893502 178.740613 
L 356.175142 178.511254 
L 356.456782 178.461561 
L 356.738423 178.592238 
L 357.020063 178.905686 
L 357.583344 180.099613 
L 358.146625 182.102148 
L 358.709905 185.015561 
L 359.273186 189.009158 
L 359.836467 194.369698 
L 360.399748 201.621822 
L 360.963028 211.878579 
L 361.526309 228.305367 
L 361.80795 242.438412 
L 362.37123 315 
L 365.750915 315 
L 366.314196 241.946139 
L 366.877476 218.379805 
L 367.440757 205.72389 
L 368.004038 197.257548 
L 368.567319 191.224628 
L 369.130599 186.913864 
L 369.69388 183.990822 
L 370.257161 182.307282 
L 370.538801 181.918645 
L 370.820442 181.840178 
L 371.102082 182.087928 
L 371.383722 182.688004 
L 371.665363 183.679872 
L 372.228644 187.101605 
L 372.791924 193.293975 
L 373.073565 198.107167 
L 373.355205 204.957382 
L 373.636845 215.753139 
L 373.918486 238.396541 
L 374.200126 315 
L 384.902461 315 
L 385.184101 214.543236 
L 385.465741 196.407644 
L 386.029022 179.17026 
L 386.592303 169.646652 
L 387.155584 163.389893 
L 387.718864 159.050926 
L 388.282145 156.046183 
L 388.845426 154.07894 
L 389.408707 152.987996 
L 389.690347 152.742466 
L 389.971987 152.688539 
L 390.253628 152.823461 
L 390.535268 153.147039 
L 391.098549 154.372179 
L 391.66183 156.416366 
L 392.22511 159.388646 
L 392.788391 163.486951 
L 393.351672 169.074545 
L 393.914953 176.884617 
L 394.478233 188.728537 
L 394.759874 197.745997 
L 395.041514 211.797437 
L 395.323155 246.036347 
L 395.604795 315 
L 402.645804 315 
L 402.927445 238.629932 
L 403.209085 215.943672 
L 403.772366 197.358976 
L 404.335647 188.015112 
L 404.898927 182.456862 
L 405.462208 179.19296 
L 406.025489 177.651287 
L 406.307129 177.452343 
L 406.58877 177.625025 
L 406.87041 178.17819 
L 407.15205 179.134739 
L 407.715331 182.443376 
L 408.278612 188.248469 
L 408.841893 198.459822 
L 409.123533 206.988895 
L 409.405174 221.391343 
L 409.968454 315 
L 420.670789 315 
L 421.234069 226.107139 
L 421.51571 211.60549 
L 422.078991 197.050029 
L 422.642271 189.116516 
L 423.205552 184.101132 
L 423.768833 180.771246 
L 424.332114 178.542334 
L 424.895394 177.070224 
L 425.458675 176.115313 
L 426.303596 175.243826 
L 427.711798 174.019515 
L 428.275079 173.267662 
L 429.12 171.671138 
L 429.964921 169.547918 
L 432.499685 162.549142 
L 433.344606 161.048008 
L 433.907886 160.52846 
L 434.189527 160.444587 
L 434.471167 160.493383 
L 434.752808 160.687871 
L 435.316088 161.57564 
L 435.879369 163.262235 
L 436.44265 165.982973 
L 437.005931 170.140051 
L 437.569211 176.530158 
L 438.132492 187.152541 
L 438.414132 195.869666 
L 438.695773 210.561524 
L 439.259054 315 
L 449.679748 315 
L 449.961388 218.863437 
L 450.243028 196.531493 
L 450.806309 178.120001 
L 451.36959 168.790725 
L 451.932871 163.142055 
L 452.496151 159.681827 
L 453.059432 157.818441 
L 453.341073 157.399772 
L 453.622713 157.303179 
L 453.904353 157.525837 
L 454.185994 158.073955 
L 454.467634 158.963439 
L 455.030915 161.891281 
L 455.594196 166.751651 
L 456.157476 174.592878 
L 456.439117 180.409046 
L 456.720757 188.559791 
L 457.002397 201.531572 
L 457.284038 232.546135 
L 457.565678 315 
L 464.606688 315 
L 464.888328 203.353544 
L 465.169968 184.268167 
L 465.733249 165.801949 
L 466.29653 155.22889 
L 466.859811 147.996091 
L 467.423091 142.727583 
L 467.986372 138.826581 
L 468.549653 135.987717 
L 469.112934 134.043387 
L 469.676215 132.903842 
L 469.957855 132.622511 
L 470.239495 132.531893 
L 470.521136 132.634104 
L 470.802776 132.934043 
L 471.366057 134.162734 
L 471.929338 136.331061 
L 472.492618 139.649452 
L 473.055899 144.514296 
L 473.61918 151.753592 
L 474.182461 163.533207 
L 474.464101 173.188023 
L 474.745741 189.922312 
L 475.027382 340.099901 
L 475.309022 315 
L 486.292997 315 
L 486.574637 276.830634 
L 486.856278 205.82564 
L 487.137918 190.763914 
L 487.701199 176.949853 
L 488.264479 170.431911 
L 488.82776 167.275126 
L 489.109401 166.546186 
L 489.391041 166.277726 
L 489.672681 166.423669 
L 489.954322 166.953949 
L 490.517603 169.10049 
L 491.080883 172.651236 
L 491.644164 177.597305 
L 492.489085 187.424365 
L 493.334006 197.910758 
L 493.615647 200.243402 
L 493.897287 201.216639 
L 494.178927 200.49832 
L 494.460568 198.100026 
L 495.023849 189.795463 
L 496.713691 161.55986 
L 497.558612 150.802334 
L 498.403533 142.288231 
L 499.248454 135.646453 
L 500.093375 130.593634 
L 500.938297 126.935703 
L 501.501577 125.208098 
L 502.064858 124.020313 
L 502.628139 123.357072 
L 502.909779 123.219253 
L 503.19142 123.209772 
L 503.47306 123.328298 
L 504.036341 123.948726 
L 504.599621 125.078913 
L 505.162902 126.712487 
L 506.007823 130.053824 
L 507.134385 135.734185 
L 507.979306 139.910603 
L 508.542587 141.781713 
L 508.824227 142.204965 
L 509.105868 142.189792 
L 509.387508 141.689632 
L 509.669148 140.690018 
L 510.232429 137.305102 
L 511.07735 129.775964 
L 513.612114 104.793643 
L 514.738675 95.869636 
L 515.865237 88.573052 
L 516.991798 82.777009 
L 518.11836 78.353875 
L 518.11836 78.353875 
" style="fill:none;opacity:0.8;stroke:#4c72b0;stroke-linecap:round;stroke-width:2.0;"/>
   </g>
   <g id="line2d_29">
    <path clip-path="url(#p7ae872d253)" d="M 84.110536 315 
L 84.110536 36 
" style="fill:none;stroke:#008000;stroke-linecap:round;stroke-width:2.0;"/>
   </g>
   <g id="patch_3">
    <path d="M 72 36 
L 518.4 36 
" style="fill:none;stroke:#262626;stroke-linecap:square;stroke-linejoin:miter;stroke-width:1.25;"/>
   </g>
   <g id="patch_4">
    <path d="M 518.4 315 
L 518.4 36 
" style="fill:none;stroke:#262626;stroke-linecap:square;stroke-linejoin:miter;stroke-width:1.25;"/>
   </g>
   <g id="patch_5">
    <path d="M 72 315 
L 518.4 315 
" style="fill:none;stroke:#262626;stroke-linecap:square;stroke-linejoin:miter;stroke-width:1.25;"/>
   </g>
   <g id="patch_6">
    <path d="M 72 315 
L 72 36 
" style="fill:none;stroke:#262626;stroke-linecap:square;stroke-linejoin:miter;stroke-width:1.25;"/>
   </g>
   <g id="text_16">
    <!-- B6 4wks naive Thoracic LN 3: 33 barcodes -->
    <defs>
     <path d="M 6.59375 0 
L 6.59375 71.578125 
L 15.375 71.578125 
L 15.375 45.90625 
Q 21.53125 53.03125 30.90625 53.03125 
Q 36.671875 53.03125 40.921875 50.75 
Q 45.171875 48.484375 47 44.484375 
Q 48.828125 40.484375 48.828125 32.859375 
L 48.828125 0 
L 40.046875 0 
L 40.046875 32.859375 
Q 40.046875 39.453125 37.1875 42.453125 
Q 34.328125 45.453125 29.109375 45.453125 
Q 25.203125 45.453125 21.75 43.421875 
Q 18.3125 41.40625 16.84375 37.9375 
Q 15.375 34.46875 15.375 28.375 
L 15.375 0 
z
" id="ArialMT-68"/>
     <path d="M 9.03125 41.84375 
L 9.03125 51.859375 
L 19.046875 51.859375 
L 19.046875 41.84375 
z
M 9.03125 0 
L 9.03125 10.015625 
L 19.046875 10.015625 
L 19.046875 0 
z
" id="ArialMT-3a"/>
     <path d="M 6.640625 61.46875 
L 6.640625 71.578125 
L 15.4375 71.578125 
L 15.4375 61.46875 
z
M 6.640625 0 
L 6.640625 51.859375 
L 15.4375 51.859375 
L 15.4375 0 
z
" id="ArialMT-69"/>
     <path d="M 7.328125 0 
L 7.328125 71.578125 
L 34.1875 71.578125 
Q 42.390625 71.578125 47.34375 69.40625 
Q 52.296875 67.234375 55.09375 62.71875 
Q 57.90625 58.203125 57.90625 53.265625 
Q 57.90625 48.6875 55.421875 44.625 
Q 52.9375 40.578125 47.90625 38.09375 
Q 54.390625 36.1875 57.875 31.59375 
Q 61.375 27 61.375 20.75 
Q 61.375 15.71875 59.25 11.390625 
Q 57.125 7.078125 54 4.734375 
Q 50.875 2.390625 46.15625 1.1875 
Q 41.453125 0 34.625 0 
z
M 16.796875 41.5 
L 32.28125 41.5 
Q 38.578125 41.5 41.3125 42.328125 
Q 44.921875 43.40625 46.75 45.890625 
Q 48.578125 48.390625 48.578125 52.15625 
Q 48.578125 55.71875 46.875 58.421875 
Q 45.171875 61.140625 41.984375 62.140625 
Q 38.8125 63.140625 31.109375 63.140625 
L 16.796875 63.140625 
z
M 16.796875 8.453125 
L 34.625 8.453125 
Q 39.203125 8.453125 41.0625 8.796875 
Q 44.34375 9.375 46.53125 10.734375 
Q 48.734375 12.109375 50.140625 14.71875 
Q 51.5625 17.328125 51.5625 20.75 
Q 51.5625 24.75 49.515625 27.703125 
Q 47.46875 30.671875 43.828125 31.859375 
Q 40.1875 33.0625 33.34375 33.0625 
L 16.796875 33.0625 
z
" id="ArialMT-42"/>
     <path d="M 25.921875 0 
L 25.921875 63.140625 
L 2.34375 63.140625 
L 2.34375 71.578125 
L 59.078125 71.578125 
L 59.078125 63.140625 
L 35.40625 63.140625 
L 35.40625 0 
z
" id="ArialMT-54"/>
     <path d="M 7.328125 0 
L 7.328125 71.578125 
L 16.796875 71.578125 
L 16.796875 8.453125 
L 52.046875 8.453125 
L 52.046875 0 
z
" id="ArialMT-4c"/>
     <path d="M 7.625 0 
L 7.625 71.578125 
L 17.328125 71.578125 
L 54.9375 15.375 
L 54.9375 71.578125 
L 64.015625 71.578125 
L 64.015625 0 
L 54.296875 0 
L 16.703125 56.25 
L 16.703125 0 
z
" id="ArialMT-4e"/>
     <path d="M 21 0 
L 1.265625 51.859375 
L 10.546875 51.859375 
L 21.6875 20.796875 
Q 23.484375 15.765625 25 10.359375 
Q 26.171875 14.453125 28.265625 20.21875 
L 39.796875 51.859375 
L 48.828125 51.859375 
L 29.203125 0 
z
" id="ArialMT-76"/>
     <path d="M 16.15625 0 
L 0.296875 51.859375 
L 9.375 51.859375 
L 17.625 21.921875 
L 20.703125 10.796875 
Q 20.90625 11.625 23.390625 21.484375 
L 31.640625 51.859375 
L 40.671875 51.859375 
L 48.4375 21.78125 
L 51.03125 11.859375 
L 54 21.875 
L 62.890625 51.859375 
L 71.4375 51.859375 
L 55.21875 0 
L 46.09375 0 
L 37.84375 31.0625 
L 35.84375 39.890625 
L 25.34375 0 
z
" id="ArialMT-77"/>
    </defs>
    <g style="fill:#262626;" transform="translate(181.149375 31.0)scale(0.12 -0.12)">
     <use xlink:href="#ArialMT-42"/>
     <use x="66.69921875" xlink:href="#ArialMT-36"/>
     <use x="122.314453125" xlink:href="#ArialMT-20"/>
     <use x="150.09765625" xlink:href="#ArialMT-34"/>
     <use x="205.712890625" xlink:href="#ArialMT-77"/>
     <use x="277.9296875" xlink:href="#ArialMT-6b"/>
     <use x="327.9296875" xlink:href="#ArialMT-73"/>
     <use x="377.9296875" xlink:href="#ArialMT-20"/>
     <use x="405.712890625" xlink:href="#ArialMT-6e"/>
     <use x="461.328125" xlink:href="#ArialMT-61"/>
     <use x="516.943359375" xlink:href="#ArialMT-69"/>
     <use x="539.16015625" xlink:href="#ArialMT-76"/>
     <use x="589.16015625" xlink:href="#ArialMT-65"/>
     <use x="644.775390625" xlink:href="#ArialMT-20"/>
     <use x="672.54296875" xlink:href="#ArialMT-54"/>
     <use x="733.626953125" xlink:href="#ArialMT-68"/>
     <use x="789.2421875" xlink:href="#ArialMT-6f"/>
     <use x="844.857421875" xlink:href="#ArialMT-72"/>
     <use x="878.158203125" xlink:href="#ArialMT-61"/>
     <use x="933.7734375" xlink:href="#ArialMT-63"/>
     <use x="983.7734375" xlink:href="#ArialMT-69"/>
     <use x="1005.99023438" xlink:href="#ArialMT-63"/>
     <use x="1055.99023438" xlink:href="#ArialMT-20"/>
     <use x="1083.7734375" xlink:href="#ArialMT-4c"/>
     <use x="1139.38867188" xlink:href="#ArialMT-4e"/>
     <use x="1211.60546875" xlink:href="#ArialMT-20"/>
     <use x="1239.38867188" xlink:href="#ArialMT-33"/>
     <use x="1295.00390625" xlink:href="#ArialMT-3a"/>
     <use x="1322.78710938" xlink:href="#ArialMT-20"/>
     <use x="1350.5703125" xlink:href="#ArialMT-33"/>
     <use x="1406.18554688" xlink:href="#ArialMT-33"/>
     <use x="1461.80078125" xlink:href="#ArialMT-20"/>
     <use x="1489.58398438" xlink:href="#ArialMT-62"/>
     <use x="1545.19921875" xlink:href="#ArialMT-61"/>
     <use x="1600.81445312" xlink:href="#ArialMT-72"/>
     <use x="1634.11523438" xlink:href="#ArialMT-63"/>
     <use x="1684.11523438" xlink:href="#ArialMT-6f"/>
     <use x="1739.73046875" xlink:href="#ArialMT-64"/>
     <use x="1795.34570312" xlink:href="#ArialMT-65"/>
     <use x="1850.9609375" xlink:href="#ArialMT-73"/>
    </g>
   </g>
   <g id="legend_1">
    <g id="line2d_30">
     <path d="M 379.675 48.657813 
L 399.675 48.657813 
" style="fill:none;stroke:#ff0000;stroke-linecap:round;stroke-width:3.0;"/>
    </g>
    <g id="line2d_31"/>
    <g id="text_17">
     <!-- raw values -->
     <g style="fill:#262626;" transform="translate(407.675 52.1578125)scale(0.1 -0.1)">
      <use xlink:href="#ArialMT-72"/>
      <use x="33.30078125" xlink:href="#ArialMT-61"/>
      <use x="88.916015625" xlink:href="#ArialMT-77"/>
      <use x="161.1328125" xlink:href="#ArialMT-20"/>
      <use x="188.916015625" xlink:href="#ArialMT-76"/>
      <use x="238.916015625" xlink:href="#ArialMT-61"/>
      <use x="294.53125" xlink:href="#ArialMT-6c"/>
      <use x="316.748046875" xlink:href="#ArialMT-75"/>
      <use x="372.36328125" xlink:href="#ArialMT-65"/>
      <use x="427.978515625" xlink:href="#ArialMT-73"/>
     </g>
    </g>
    <g id="line2d_32">
     <path d="M 379.675 62.803125 
L 399.675 62.803125 
" style="fill:none;opacity:0.8;stroke:#4c72b0;stroke-linecap:round;stroke-width:2.0;"/>
    </g>
    <g id="line2d_33"/>
    <g id="text_18">
     <!-- inversed FFT -->
     <defs>
      <path d="M 8.203125 0 
L 8.203125 71.578125 
L 56.5 71.578125 
L 56.5 63.140625 
L 17.671875 63.140625 
L 17.671875 40.96875 
L 51.265625 40.96875 
L 51.265625 32.515625 
L 17.671875 32.515625 
L 17.671875 0 
z
" id="ArialMT-46"/>
     </defs>
     <g style="fill:#262626;" transform="translate(407.675 66.303125)scale(0.1 -0.1)">
      <use xlink:href="#ArialMT-69"/>
      <use x="22.216796875" xlink:href="#ArialMT-6e"/>
      <use x="77.83203125" xlink:href="#ArialMT-76"/>
      <use x="127.83203125" xlink:href="#ArialMT-65"/>
      <use x="183.447265625" xlink:href="#ArialMT-72"/>
      <use x="216.748046875" xlink:href="#ArialMT-73"/>
      <use x="266.748046875" xlink:href="#ArialMT-65"/>
      <use x="322.36328125" xlink:href="#ArialMT-64"/>
      <use x="377.978515625" xlink:href="#ArialMT-20"/>
      <use x="405.76171875" xlink:href="#ArialMT-46"/>
      <use x="466.845703125" xlink:href="#ArialMT-46"/>
      <use x="527.9296875" xlink:href="#ArialMT-54"/>
     </g>
    </g>
    <g id="line2d_34">
     <path d="M 379.675 76.948438 
L 399.675 76.948438 
" style="fill:none;stroke:#008000;stroke-linecap:round;stroke-width:2.0;"/>
    </g>
    <g id="line2d_35"/>
    <g id="text_19">
     <!-- threshold: 33 barcodes -->
     <defs>
      <path d="M 25.78125 7.859375 
L 27.046875 0.09375 
Q 23.34375 -0.6875 20.40625 -0.6875 
Q 15.625 -0.6875 12.984375 0.828125 
Q 10.359375 2.34375 9.28125 4.8125 
Q 8.203125 7.28125 8.203125 15.1875 
L 8.203125 45.015625 
L 1.765625 45.015625 
L 1.765625 51.859375 
L 8.203125 51.859375 
L 8.203125 64.703125 
L 16.9375 69.96875 
L 16.9375 51.859375 
L 25.78125 51.859375 
L 25.78125 45.015625 
L 16.9375 45.015625 
L 16.9375 14.703125 
Q 16.9375 10.9375 17.40625 9.859375 
Q 17.875 8.796875 18.921875 8.15625 
Q 19.96875 7.515625 21.921875 7.515625 
Q 23.390625 7.515625 25.78125 7.859375 
" id="ArialMT-74"/>
     </defs>
     <g style="fill:#262626;" transform="translate(407.675 80.4484375)scale(0.1 -0.1)">
      <use xlink:href="#ArialMT-74"/>
      <use x="27.783203125" xlink:href="#ArialMT-68"/>
      <use x="83.3984375" xlink:href="#ArialMT-72"/>
      <use x="116.69921875" xlink:href="#ArialMT-65"/>
      <use x="172.314453125" xlink:href="#ArialMT-73"/>
      <use x="222.314453125" xlink:href="#ArialMT-68"/>
      <use x="277.9296875" xlink:href="#ArialMT-6f"/>
      <use x="333.544921875" xlink:href="#ArialMT-6c"/>
      <use x="355.76171875" xlink:href="#ArialMT-64"/>
      <use x="411.376953125" xlink:href="#ArialMT-3a"/>
      <use x="439.16015625" xlink:href="#ArialMT-20"/>
      <use x="466.943359375" xlink:href="#ArialMT-33"/>
      <use x="522.55859375" xlink:href="#ArialMT-33"/>
      <use x="578.173828125" xlink:href="#ArialMT-20"/>
      <use x="605.95703125" xlink:href="#ArialMT-62"/>
      <use x="661.572265625" xlink:href="#ArialMT-61"/>
      <use x="717.1875" xlink:href="#ArialMT-72"/>
      <use x="750.48828125" xlink:href="#ArialMT-63"/>
      <use x="800.48828125" xlink:href="#ArialMT-6f"/>
      <use x="856.103515625" xlink:href="#ArialMT-64"/>
      <use x="911.71875" xlink:href="#ArialMT-65"/>
      <use x="967.333984375" xlink:href="#ArialMT-73"/>
     </g>
    </g>
   </g>
  </g>
 </g>
 <defs>
  <clipPath id="p7ae872d253">
   <rect height="279.0" width="446.4" x="72.0" y="36.0"/>
  </clipPath>
 </defs>
</svg>
