<?xml version="1.0" encoding="utf-8" standalone="no"?>
<!DOCTYPE svg PUBLIC "-//W3C//DTD SVG 1.1//EN"
  "http://www.w3.org/Graphics/SVG/1.1/DTD/svg11.dtd">
<!-- Created with matplotlib (http://matplotlib.org/) -->
<svg height="396pt" version="1.1" viewBox="0 0 576 396" width="576pt" xmlns="http://www.w3.org/2000/svg" xmlns:xlink="http://www.w3.org/1999/xlink">
 <defs>
  <style type="text/css">
*{stroke-linecap:butt;stroke-linejoin:round;stroke-miterlimit:100000;}
  </style>
 </defs>
 <g id="figure_1">
  <g id="patch_1">
   <path d="M 0 396 
L 576 396 
L 576 0 
L 0 0 
z
" style="fill:#ffffff;"/>
  </g>
  <g id="axes_1">
   <g id="patch_2">
    <path d="M 72 346.5 
L 518.4 346.5 
L 518.4 39.6 
L 72 39.6 
z
" style="fill:#ffffff;"/>
   </g>
   <g id="matplotlib.axis_1">
    <g id="xtick_1">
     <g id="line2d_1">
      <defs>
       <path d="M 0 0 
L 0 5 
" id="ma0ac336ca6" style="stroke:#262626;"/>
      </defs>
      <g>
       <use style="fill:#262626;stroke:#262626;" x="76.8259459459" xlink:href="#ma0ac336ca6" y="346.5"/>
      </g>
     </g>
     <g id="text_1">
      <!-- 0 -->
      <defs>
       <path d="M 4.15625 35.296875 
Q 4.15625 48 6.765625 55.734375 
Q 9.375 63.484375 14.515625 67.671875 
Q 19.671875 71.875 27.484375 71.875 
Q 33.25 71.875 37.59375 69.546875 
Q 41.9375 67.234375 44.765625 62.859375 
Q 47.609375 58.5 49.21875 52.21875 
Q 50.828125 45.953125 50.828125 35.296875 
Q 50.828125 22.703125 48.234375 14.96875 
Q 45.65625 7.234375 40.5 3 
Q 35.359375 -1.21875 27.484375 -1.21875 
Q 17.140625 -1.21875 11.234375 6.203125 
Q 4.15625 15.140625 4.15625 35.296875 
M 13.1875 35.296875 
Q 13.1875 17.671875 17.3125 11.828125 
Q 21.4375 6 27.484375 6 
Q 33.546875 6 37.671875 11.859375 
Q 41.796875 17.71875 41.796875 35.296875 
Q 41.796875 52.984375 37.671875 58.78125 
Q 33.546875 64.59375 27.390625 64.59375 
Q 21.34375 64.59375 17.71875 59.46875 
Q 13.1875 52.9375 13.1875 35.296875 
" id="ArialMT-30"/>
      </defs>
      <g style="fill:#262626;" transform="translate(74.0454771959 360.6578125)scale(0.1 -0.1)">
       <use xlink:href="#ArialMT-30"/>
      </g>
     </g>
    </g>
    <g id="xtick_2">
     <g id="line2d_2">
      <g>
       <use style="fill:#262626;stroke:#262626;" x="173.344864865" xlink:href="#ma0ac336ca6" y="346.5"/>
      </g>
     </g>
     <g id="text_2">
      <!-- 200 -->
      <defs>
       <path d="M 50.34375 8.453125 
L 50.34375 0 
L 3.03125 0 
Q 2.9375 3.171875 4.046875 6.109375 
Q 5.859375 10.9375 9.828125 15.625 
Q 13.8125 20.3125 21.34375 26.46875 
Q 33.015625 36.03125 37.109375 41.625 
Q 41.21875 47.21875 41.21875 52.203125 
Q 41.21875 57.421875 37.46875 61 
Q 33.734375 64.59375 27.734375 64.59375 
Q 21.390625 64.59375 17.578125 60.78125 
Q 13.765625 56.984375 13.71875 50.25 
L 4.6875 51.171875 
Q 5.609375 61.28125 11.65625 66.578125 
Q 17.71875 71.875 27.9375 71.875 
Q 38.234375 71.875 44.234375 66.15625 
Q 50.25 60.453125 50.25 52 
Q 50.25 47.703125 48.484375 43.546875 
Q 46.734375 39.40625 42.65625 34.8125 
Q 38.578125 30.21875 29.109375 22.21875 
Q 21.1875 15.578125 18.9375 13.203125 
Q 16.703125 10.84375 15.234375 8.453125 
z
" id="ArialMT-32"/>
      </defs>
      <g style="fill:#262626;" transform="translate(165.003458615 360.6578125)scale(0.1 -0.1)">
       <use xlink:href="#ArialMT-32"/>
       <use x="55.615234375" xlink:href="#ArialMT-30"/>
       <use x="111.23046875" xlink:href="#ArialMT-30"/>
      </g>
     </g>
    </g>
    <g id="xtick_3">
     <g id="line2d_3">
      <g>
       <use style="fill:#262626;stroke:#262626;" x="269.863783784" xlink:href="#ma0ac336ca6" y="346.5"/>
      </g>
     </g>
     <g id="text_3">
      <!-- 400 -->
      <defs>
       <path d="M 32.328125 0 
L 32.328125 17.140625 
L 1.265625 17.140625 
L 1.265625 25.203125 
L 33.9375 71.578125 
L 41.109375 71.578125 
L 41.109375 25.203125 
L 50.78125 25.203125 
L 50.78125 17.140625 
L 41.109375 17.140625 
L 41.109375 0 
z
M 32.328125 25.203125 
L 32.328125 57.46875 
L 9.90625 25.203125 
z
" id="ArialMT-34"/>
      </defs>
      <g style="fill:#262626;" transform="translate(261.522377534 360.6578125)scale(0.1 -0.1)">
       <use xlink:href="#ArialMT-34"/>
       <use x="55.615234375" xlink:href="#ArialMT-30"/>
       <use x="111.23046875" xlink:href="#ArialMT-30"/>
      </g>
     </g>
    </g>
    <g id="xtick_4">
     <g id="line2d_4">
      <g>
       <use style="fill:#262626;stroke:#262626;" x="366.382702703" xlink:href="#ma0ac336ca6" y="346.5"/>
      </g>
     </g>
     <g id="text_4">
      <!-- 600 -->
      <defs>
       <path d="M 49.75 54.046875 
L 41.015625 53.375 
Q 39.84375 58.546875 37.703125 60.890625 
Q 34.125 64.65625 28.90625 64.65625 
Q 24.703125 64.65625 21.53125 62.3125 
Q 17.390625 59.28125 14.984375 53.46875 
Q 12.59375 47.65625 12.5 36.921875 
Q 15.671875 41.75 20.265625 44.09375 
Q 24.859375 46.4375 29.890625 46.4375 
Q 38.671875 46.4375 44.84375 39.96875 
Q 51.03125 33.5 51.03125 23.25 
Q 51.03125 16.5 48.125 10.71875 
Q 45.21875 4.9375 40.140625 1.859375 
Q 35.0625 -1.21875 28.609375 -1.21875 
Q 17.625 -1.21875 10.6875 6.859375 
Q 3.765625 14.9375 3.765625 33.5 
Q 3.765625 54.25 11.421875 63.671875 
Q 18.109375 71.875 29.4375 71.875 
Q 37.890625 71.875 43.28125 67.140625 
Q 48.6875 62.40625 49.75 54.046875 
M 13.875 23.1875 
Q 13.875 18.65625 15.796875 14.5 
Q 17.71875 10.359375 21.1875 8.171875 
Q 24.65625 6 28.46875 6 
Q 34.03125 6 38.03125 10.484375 
Q 42.046875 14.984375 42.046875 22.703125 
Q 42.046875 30.125 38.078125 34.390625 
Q 34.125 38.671875 28.125 38.671875 
Q 22.171875 38.671875 18.015625 34.390625 
Q 13.875 30.125 13.875 23.1875 
" id="ArialMT-36"/>
      </defs>
      <g style="fill:#262626;" transform="translate(358.041296453 360.6578125)scale(0.1 -0.1)">
       <use xlink:href="#ArialMT-36"/>
       <use x="55.615234375" xlink:href="#ArialMT-30"/>
       <use x="111.23046875" xlink:href="#ArialMT-30"/>
      </g>
     </g>
    </g>
    <g id="xtick_5">
     <g id="line2d_5">
      <g>
       <use style="fill:#262626;stroke:#262626;" x="462.901621622" xlink:href="#ma0ac336ca6" y="346.5"/>
      </g>
     </g>
     <g id="text_5">
      <!-- 800 -->
      <defs>
       <path d="M 17.671875 38.8125 
Q 12.203125 40.828125 9.5625 44.53125 
Q 6.9375 48.25 6.9375 53.421875 
Q 6.9375 61.234375 12.546875 66.546875 
Q 18.171875 71.875 27.484375 71.875 
Q 36.859375 71.875 42.578125 66.421875 
Q 48.296875 60.984375 48.296875 53.171875 
Q 48.296875 48.1875 45.671875 44.5 
Q 43.0625 40.828125 37.75 38.8125 
Q 44.34375 36.671875 47.78125 31.875 
Q 51.21875 27.09375 51.21875 20.453125 
Q 51.21875 11.28125 44.71875 5.03125 
Q 38.234375 -1.21875 27.640625 -1.21875 
Q 17.046875 -1.21875 10.546875 5.046875 
Q 4.046875 11.328125 4.046875 20.703125 
Q 4.046875 27.6875 7.59375 32.390625 
Q 11.140625 37.109375 17.671875 38.8125 
M 15.921875 53.71875 
Q 15.921875 48.640625 19.1875 45.40625 
Q 22.46875 42.1875 27.6875 42.1875 
Q 32.765625 42.1875 36.015625 45.375 
Q 39.265625 48.578125 39.265625 53.21875 
Q 39.265625 58.0625 35.90625 61.359375 
Q 32.5625 64.65625 27.59375 64.65625 
Q 22.5625 64.65625 19.234375 61.421875 
Q 15.921875 58.203125 15.921875 53.71875 
M 13.09375 20.65625 
Q 13.09375 16.890625 14.875 13.375 
Q 16.65625 9.859375 20.171875 7.921875 
Q 23.6875 6 27.734375 6 
Q 34.03125 6 38.125 10.046875 
Q 42.234375 14.109375 42.234375 20.359375 
Q 42.234375 26.703125 38.015625 30.859375 
Q 33.796875 35.015625 27.4375 35.015625 
Q 21.234375 35.015625 17.15625 30.90625 
Q 13.09375 26.8125 13.09375 20.65625 
" id="ArialMT-38"/>
      </defs>
      <g style="fill:#262626;" transform="translate(454.560215372 360.6578125)scale(0.1 -0.1)">
       <use xlink:href="#ArialMT-38"/>
       <use x="55.615234375" xlink:href="#ArialMT-30"/>
       <use x="111.23046875" xlink:href="#ArialMT-30"/>
      </g>
     </g>
    </g>
    <g id="text_6">
     <!-- barcode, rank-ordered -->
     <defs>
      <path d="M 40.4375 19 
L 49.078125 17.875 
Q 47.65625 8.9375 41.8125 3.875 
Q 35.984375 -1.171875 27.484375 -1.171875 
Q 16.84375 -1.171875 10.375 5.78125 
Q 3.90625 12.75 3.90625 25.734375 
Q 3.90625 34.125 6.6875 40.421875 
Q 9.46875 46.734375 15.15625 49.875 
Q 20.84375 53.03125 27.546875 53.03125 
Q 35.984375 53.03125 41.359375 48.75 
Q 46.734375 44.484375 48.25 36.625 
L 39.703125 35.296875 
Q 38.484375 40.53125 35.375 43.15625 
Q 32.28125 45.796875 27.875 45.796875 
Q 21.234375 45.796875 17.078125 41.03125 
Q 12.9375 36.28125 12.9375 25.984375 
Q 12.9375 15.53125 16.9375 10.796875 
Q 20.953125 6.0625 27.390625 6.0625 
Q 32.5625 6.0625 36.03125 9.234375 
Q 39.5 12.40625 40.4375 19 
" id="ArialMT-63"/>
      <path d="M 14.703125 0 
L 6.546875 0 
L 6.546875 71.578125 
L 15.328125 71.578125 
L 15.328125 46.046875 
Q 20.90625 53.03125 29.546875 53.03125 
Q 34.328125 53.03125 38.59375 51.09375 
Q 42.875 49.171875 45.625 45.671875 
Q 48.390625 42.1875 49.953125 37.25 
Q 51.515625 32.328125 51.515625 26.703125 
Q 51.515625 13.375 44.921875 6.09375 
Q 38.328125 -1.171875 29.109375 -1.171875 
Q 19.921875 -1.171875 14.703125 6.5 
z
M 14.59375 26.3125 
Q 14.59375 17 17.140625 12.84375 
Q 21.296875 6.0625 28.375 6.0625 
Q 34.125 6.0625 38.328125 11.0625 
Q 42.53125 16.0625 42.53125 25.984375 
Q 42.53125 36.140625 38.5 40.96875 
Q 34.46875 45.796875 28.765625 45.796875 
Q 23 45.796875 18.796875 40.796875 
Q 14.59375 35.796875 14.59375 26.3125 
" id="ArialMT-62"/>
      <path d="M 40.4375 6.390625 
Q 35.546875 2.25 31.03125 0.53125 
Q 26.515625 -1.171875 21.34375 -1.171875 
Q 12.796875 -1.171875 8.203125 3 
Q 3.609375 7.171875 3.609375 13.671875 
Q 3.609375 17.484375 5.34375 20.625 
Q 7.078125 23.78125 9.890625 25.6875 
Q 12.703125 27.59375 16.21875 28.5625 
Q 18.796875 29.25 24.03125 29.890625 
Q 34.671875 31.15625 39.703125 32.90625 
Q 39.75 34.71875 39.75 35.203125 
Q 39.75 40.578125 37.25 42.78125 
Q 33.890625 45.75 27.25 45.75 
Q 21.046875 45.75 18.09375 43.578125 
Q 15.140625 41.40625 13.71875 35.890625 
L 5.125 37.0625 
Q 6.296875 42.578125 8.984375 45.96875 
Q 11.671875 49.359375 16.75 51.1875 
Q 21.828125 53.03125 28.515625 53.03125 
Q 35.15625 53.03125 39.296875 51.46875 
Q 43.453125 49.90625 45.40625 47.53125 
Q 47.359375 45.171875 48.140625 41.546875 
Q 48.578125 39.3125 48.578125 33.453125 
L 48.578125 21.734375 
Q 48.578125 9.46875 49.140625 6.21875 
Q 49.703125 2.984375 51.375 0 
L 42.1875 0 
Q 40.828125 2.734375 40.4375 6.390625 
M 39.703125 26.03125 
Q 34.90625 24.078125 25.34375 22.703125 
Q 19.921875 21.921875 17.671875 20.9375 
Q 15.4375 19.96875 14.203125 18.09375 
Q 12.984375 16.21875 12.984375 13.921875 
Q 12.984375 10.40625 15.640625 8.0625 
Q 18.3125 5.71875 23.4375 5.71875 
Q 28.515625 5.71875 32.46875 7.9375 
Q 36.421875 10.15625 38.28125 14.015625 
Q 39.703125 17 39.703125 22.796875 
z
" id="ArialMT-61"/>
      <path d="M 42.09375 16.703125 
L 51.171875 15.578125 
Q 49.03125 7.625 43.21875 3.21875 
Q 37.40625 -1.171875 28.375 -1.171875 
Q 17 -1.171875 10.328125 5.828125 
Q 3.65625 12.84375 3.65625 25.484375 
Q 3.65625 38.578125 10.390625 45.796875 
Q 17.140625 53.03125 27.875 53.03125 
Q 38.28125 53.03125 44.875 45.953125 
Q 51.46875 38.875 51.46875 26.03125 
Q 51.46875 25.25 51.421875 23.6875 
L 12.75 23.6875 
Q 13.234375 15.140625 17.578125 10.59375 
Q 21.921875 6.0625 28.421875 6.0625 
Q 33.25 6.0625 36.671875 8.59375 
Q 40.09375 11.140625 42.09375 16.703125 
M 13.234375 30.90625 
L 42.1875 30.90625 
Q 41.609375 37.453125 38.875 40.71875 
Q 34.671875 45.796875 27.984375 45.796875 
Q 21.921875 45.796875 17.796875 41.75 
Q 13.671875 37.703125 13.234375 30.90625 
" id="ArialMT-65"/>
      <path d="M 40.234375 0 
L 40.234375 6.546875 
Q 35.296875 -1.171875 25.734375 -1.171875 
Q 19.53125 -1.171875 14.328125 2.25 
Q 9.125 5.671875 6.265625 11.796875 
Q 3.421875 17.921875 3.421875 25.875 
Q 3.421875 33.640625 6 39.96875 
Q 8.59375 46.296875 13.765625 49.65625 
Q 18.953125 53.03125 25.34375 53.03125 
Q 30.03125 53.03125 33.6875 51.046875 
Q 37.359375 49.078125 39.65625 45.90625 
L 39.65625 71.578125 
L 48.390625 71.578125 
L 48.390625 0 
z
M 12.453125 25.875 
Q 12.453125 15.921875 16.640625 10.984375 
Q 20.84375 6.0625 26.5625 6.0625 
Q 32.328125 6.0625 36.34375 10.765625 
Q 40.375 15.484375 40.375 25.140625 
Q 40.375 35.796875 36.265625 40.765625 
Q 32.171875 45.75 26.171875 45.75 
Q 20.3125 45.75 16.375 40.96875 
Q 12.453125 36.1875 12.453125 25.875 
" id="ArialMT-64"/>
      <path d="M 3.171875 21.484375 
L 3.171875 30.328125 
L 30.171875 30.328125 
L 30.171875 21.484375 
z
" id="ArialMT-2d"/>
      <path d="M 8.890625 0 
L 8.890625 10.015625 
L 18.890625 10.015625 
L 18.890625 0 
Q 18.890625 -5.515625 16.9375 -8.90625 
Q 14.984375 -12.3125 10.75 -14.15625 
L 8.296875 -10.40625 
Q 11.078125 -9.1875 12.390625 -6.8125 
Q 13.71875 -4.4375 13.875 0 
z
" id="ArialMT-2c"/>
      <path d="M 6.5 0 
L 6.5 51.859375 
L 14.40625 51.859375 
L 14.40625 44 
Q 17.4375 49.515625 20 51.265625 
Q 22.5625 53.03125 25.640625 53.03125 
Q 30.078125 53.03125 34.671875 50.203125 
L 31.640625 42.046875 
Q 28.421875 43.953125 25.203125 43.953125 
Q 22.3125 43.953125 20.015625 42.21875 
Q 17.71875 40.484375 16.75 37.40625 
Q 15.28125 32.71875 15.28125 27.15625 
L 15.28125 0 
z
" id="ArialMT-72"/>
      <path d="M 6.640625 0 
L 6.640625 71.578125 
L 15.4375 71.578125 
L 15.4375 30.765625 
L 36.234375 51.859375 
L 47.609375 51.859375 
L 27.78125 32.625 
L 49.609375 0 
L 38.765625 0 
L 21.625 26.515625 
L 15.4375 20.5625 
L 15.4375 0 
z
" id="ArialMT-6b"/>
      <path d="M 3.328125 25.921875 
Q 3.328125 40.328125 11.328125 47.265625 
Q 18.015625 53.03125 27.640625 53.03125 
Q 38.328125 53.03125 45.109375 46.015625 
Q 51.90625 39.015625 51.90625 26.65625 
Q 51.90625 16.65625 48.90625 10.90625 
Q 45.90625 5.171875 40.15625 2 
Q 34.421875 -1.171875 27.640625 -1.171875 
Q 16.75 -1.171875 10.03125 5.8125 
Q 3.328125 12.796875 3.328125 25.921875 
M 12.359375 25.921875 
Q 12.359375 15.96875 16.703125 11.015625 
Q 21.046875 6.0625 27.640625 6.0625 
Q 34.1875 6.0625 38.53125 11.03125 
Q 42.875 16.015625 42.875 26.21875 
Q 42.875 35.84375 38.5 40.796875 
Q 34.125 45.75 27.640625 45.75 
Q 21.046875 45.75 16.703125 40.8125 
Q 12.359375 35.890625 12.359375 25.921875 
" id="ArialMT-6f"/>
      <path d="M 6.59375 0 
L 6.59375 51.859375 
L 14.5 51.859375 
L 14.5 44.484375 
Q 20.21875 53.03125 31 53.03125 
Q 35.6875 53.03125 39.625 51.34375 
Q 43.5625 49.65625 45.515625 46.921875 
Q 47.46875 44.1875 48.25 40.4375 
Q 48.734375 37.984375 48.734375 31.890625 
L 48.734375 0 
L 39.9375 0 
L 39.9375 31.546875 
Q 39.9375 36.921875 38.90625 39.578125 
Q 37.890625 42.234375 35.28125 43.8125 
Q 32.671875 45.40625 29.15625 45.40625 
Q 23.53125 45.40625 19.453125 41.84375 
Q 15.375 38.28125 15.375 28.328125 
L 15.375 0 
z
" id="ArialMT-6e"/>
      <path id="ArialMT-20"/>
     </defs>
     <g style="fill:#262626;" transform="translate(240.785234375 375.51890625)scale(0.11 -0.11)">
      <use xlink:href="#ArialMT-62"/>
      <use x="55.615234375" xlink:href="#ArialMT-61"/>
      <use x="111.23046875" xlink:href="#ArialMT-72"/>
      <use x="144.53125" xlink:href="#ArialMT-63"/>
      <use x="194.53125" xlink:href="#ArialMT-6f"/>
      <use x="250.146484375" xlink:href="#ArialMT-64"/>
      <use x="305.76171875" xlink:href="#ArialMT-65"/>
      <use x="361.376953125" xlink:href="#ArialMT-2c"/>
      <use x="389.16015625" xlink:href="#ArialMT-20"/>
      <use x="416.943359375" xlink:href="#ArialMT-72"/>
      <use x="450.244140625" xlink:href="#ArialMT-61"/>
      <use x="505.859375" xlink:href="#ArialMT-6e"/>
      <use x="561.474609375" xlink:href="#ArialMT-6b"/>
      <use x="611.474609375" xlink:href="#ArialMT-2d"/>
      <use x="644.775390625" xlink:href="#ArialMT-6f"/>
      <use x="700.390625" xlink:href="#ArialMT-72"/>
      <use x="733.69140625" xlink:href="#ArialMT-64"/>
      <use x="789.306640625" xlink:href="#ArialMT-65"/>
      <use x="844.921875" xlink:href="#ArialMT-72"/>
      <use x="878.22265625" xlink:href="#ArialMT-65"/>
      <use x="933.837890625" xlink:href="#ArialMT-64"/>
     </g>
    </g>
   </g>
   <g id="matplotlib.axis_2">
    <g id="ytick_1">
     <g id="line2d_6">
      <defs>
       <path d="M 0 0 
L -5 0 
" id="md48ea844de" style="stroke:#262626;"/>
      </defs>
      <g>
       <use style="fill:#262626;stroke:#262626;" x="72.0" xlink:href="#md48ea844de" y="346.5"/>
      </g>
     </g>
     <g id="text_7">
      <!-- 1 -->
      <defs>
       <path d="M 37.25 0 
L 28.46875 0 
L 28.46875 56 
Q 25.296875 52.984375 20.140625 49.953125 
Q 14.984375 46.921875 10.890625 45.40625 
L 10.890625 53.90625 
Q 18.265625 57.375 23.78125 62.296875 
Q 29.296875 67.234375 31.59375 71.875 
L 37.25 71.875 
z
" id="ArialMT-31"/>
      </defs>
      <g style="fill:#262626;" transform="translate(59.4390625 349.08515625)scale(0.1 -0.1)">
       <use xlink:href="#ArialMT-31"/>
      </g>
     </g>
    </g>
    <g id="ytick_2">
     <g id="line2d_7">
      <g>
       <use style="fill:#262626;stroke:#262626;" x="72.0" xlink:href="#md48ea844de" y="283.857677171"/>
      </g>
     </g>
     <g id="text_8">
      <!-- 10 -->
      <g style="fill:#262626;" transform="translate(53.878125 286.442833421)scale(0.1 -0.1)">
       <use xlink:href="#ArialMT-31"/>
       <use x="55.615234375" xlink:href="#ArialMT-30"/>
      </g>
     </g>
    </g>
    <g id="ytick_3">
     <g id="line2d_8">
      <g>
       <use style="fill:#262626;stroke:#262626;" x="72.0" xlink:href="#md48ea844de" y="221.215354343"/>
      </g>
     </g>
     <g id="text_9">
      <!-- 100 -->
      <g style="fill:#262626;" transform="translate(48.3171875 223.800510593)scale(0.1 -0.1)">
       <use xlink:href="#ArialMT-31"/>
       <use x="55.615234375" xlink:href="#ArialMT-30"/>
       <use x="111.23046875" xlink:href="#ArialMT-30"/>
      </g>
     </g>
    </g>
    <g id="ytick_4">
     <g id="line2d_9">
      <g>
       <use style="fill:#262626;stroke:#262626;" x="72.0" xlink:href="#md48ea844de" y="158.573031514"/>
      </g>
     </g>
     <g id="text_10">
      <!-- 1000 -->
      <g style="fill:#262626;" transform="translate(42.75625 161.158187764)scale(0.1 -0.1)">
       <use xlink:href="#ArialMT-31"/>
       <use x="55.615234375" xlink:href="#ArialMT-30"/>
       <use x="111.23046875" xlink:href="#ArialMT-30"/>
       <use x="166.845703125" xlink:href="#ArialMT-30"/>
      </g>
     </g>
    </g>
    <g id="ytick_5">
     <g id="line2d_10">
      <g>
       <use style="fill:#262626;stroke:#262626;" x="72.0" xlink:href="#md48ea844de" y="95.930708686"/>
      </g>
     </g>
     <g id="text_11">
      <!-- 10000 -->
      <g style="fill:#262626;" transform="translate(37.1953125 98.515864936)scale(0.1 -0.1)">
       <use xlink:href="#ArialMT-31"/>
       <use x="55.615234375" xlink:href="#ArialMT-30"/>
       <use x="111.23046875" xlink:href="#ArialMT-30"/>
       <use x="166.845703125" xlink:href="#ArialMT-30"/>
       <use x="222.4609375" xlink:href="#ArialMT-30"/>
      </g>
     </g>
    </g>
    <g id="text_12">
     <!-- log10 abundance (# molecules) -->
     <defs>
      <path d="M 4.984375 -4.296875 
L 13.53125 -5.5625 
Q 14.0625 -9.515625 16.5 -11.328125 
Q 19.78125 -13.765625 25.4375 -13.765625 
Q 31.546875 -13.765625 34.859375 -11.328125 
Q 38.1875 -8.890625 39.359375 -4.5 
Q 40.046875 -1.8125 39.984375 6.78125 
Q 34.234375 0 25.640625 0 
Q 14.9375 0 9.078125 7.71875 
Q 3.21875 15.4375 3.21875 26.21875 
Q 3.21875 33.640625 5.90625 39.90625 
Q 8.59375 46.1875 13.6875 49.609375 
Q 18.796875 53.03125 25.6875 53.03125 
Q 34.859375 53.03125 40.828125 45.609375 
L 40.828125 51.859375 
L 48.921875 51.859375 
L 48.921875 7.03125 
Q 48.921875 -5.078125 46.453125 -10.125 
Q 44 -15.1875 38.640625 -18.109375 
Q 33.296875 -21.046875 25.484375 -21.046875 
Q 16.21875 -21.046875 10.5 -16.875 
Q 4.78125 -12.703125 4.984375 -4.296875 
M 12.25 26.859375 
Q 12.25 16.65625 16.296875 11.96875 
Q 20.359375 7.28125 26.46875 7.28125 
Q 32.515625 7.28125 36.609375 11.9375 
Q 40.71875 16.609375 40.71875 26.5625 
Q 40.71875 36.078125 36.5 40.90625 
Q 32.28125 45.75 26.3125 45.75 
Q 20.453125 45.75 16.34375 40.984375 
Q 12.25 36.234375 12.25 26.859375 
" id="ArialMT-67"/>
      <path d="M 40.578125 0 
L 40.578125 7.625 
Q 34.515625 -1.171875 24.125 -1.171875 
Q 19.53125 -1.171875 15.546875 0.578125 
Q 11.578125 2.34375 9.640625 5 
Q 7.71875 7.671875 6.9375 11.53125 
Q 6.390625 14.109375 6.390625 19.734375 
L 6.390625 51.859375 
L 15.1875 51.859375 
L 15.1875 23.09375 
Q 15.1875 16.21875 15.71875 13.8125 
Q 16.546875 10.359375 19.234375 8.375 
Q 21.921875 6.390625 25.875 6.390625 
Q 29.828125 6.390625 33.296875 8.421875 
Q 36.765625 10.453125 38.203125 13.9375 
Q 39.65625 17.4375 39.65625 24.078125 
L 39.65625 51.859375 
L 48.4375 51.859375 
L 48.4375 0 
z
" id="ArialMT-75"/>
      <path d="M 23.390625 -21.046875 
Q 16.109375 -11.859375 11.078125 0.4375 
Q 6.0625 12.75 6.0625 25.921875 
Q 6.0625 37.546875 9.8125 48.1875 
Q 14.203125 60.546875 23.390625 72.796875 
L 29.6875 72.796875 
Q 23.78125 62.640625 21.875 58.296875 
Q 18.890625 51.5625 17.1875 44.234375 
Q 15.09375 35.109375 15.09375 25.875 
Q 15.09375 2.390625 29.6875 -21.046875 
z
" id="ArialMT-28"/>
      <path d="M 3.078125 15.484375 
L 11.765625 16.84375 
Q 12.5 11.625 15.84375 8.84375 
Q 19.1875 6.0625 25.203125 6.0625 
Q 31.25 6.0625 34.171875 8.515625 
Q 37.109375 10.984375 37.109375 14.3125 
Q 37.109375 17.28125 34.515625 19 
Q 32.71875 20.171875 25.53125 21.96875 
Q 15.875 24.421875 12.140625 26.203125 
Q 8.40625 27.984375 6.46875 31.125 
Q 4.546875 34.28125 4.546875 38.09375 
Q 4.546875 41.546875 6.125 44.5 
Q 7.71875 47.46875 10.453125 49.421875 
Q 12.5 50.921875 16.03125 51.96875 
Q 19.578125 53.03125 23.640625 53.03125 
Q 29.734375 53.03125 34.34375 51.265625 
Q 38.96875 49.515625 41.15625 46.5 
Q 43.359375 43.5 44.1875 38.484375 
L 35.59375 37.3125 
Q 35.015625 41.3125 32.203125 43.546875 
Q 29.390625 45.796875 24.265625 45.796875 
Q 18.21875 45.796875 15.625 43.796875 
Q 13.03125 41.796875 13.03125 39.109375 
Q 13.03125 37.40625 14.109375 36.03125 
Q 15.1875 34.625 17.484375 33.6875 
Q 18.796875 33.203125 25.25 31.453125 
Q 34.578125 28.953125 38.25 27.359375 
Q 41.9375 25.78125 44.03125 22.75 
Q 46.140625 19.734375 46.140625 15.234375 
Q 46.140625 10.84375 43.578125 6.953125 
Q 41.015625 3.078125 36.171875 0.953125 
Q 31.34375 -1.171875 25.25 -1.171875 
Q 15.140625 -1.171875 9.84375 3.03125 
Q 4.546875 7.234375 3.078125 15.484375 
" id="ArialMT-73"/>
      <path d="M 6.390625 0 
L 6.390625 71.578125 
L 15.1875 71.578125 
L 15.1875 0 
z
" id="ArialMT-6c"/>
      <path d="M 12.359375 -21.046875 
L 6.0625 -21.046875 
Q 20.65625 2.390625 20.65625 25.875 
Q 20.65625 35.0625 18.5625 44.09375 
Q 16.890625 51.421875 13.921875 58.15625 
Q 12.015625 62.546875 6.0625 72.796875 
L 12.359375 72.796875 
Q 21.53125 60.546875 25.921875 48.1875 
Q 29.6875 37.546875 29.6875 25.921875 
Q 29.6875 12.75 24.625 0.4375 
Q 19.578125 -11.859375 12.359375 -21.046875 
" id="ArialMT-29"/>
      <path d="M 6.59375 0 
L 6.59375 51.859375 
L 14.453125 51.859375 
L 14.453125 44.578125 
Q 16.890625 48.390625 20.9375 50.703125 
Q 25 53.03125 30.171875 53.03125 
Q 35.9375 53.03125 39.625 50.640625 
Q 43.3125 48.25 44.828125 43.953125 
Q 50.984375 53.03125 60.84375 53.03125 
Q 68.5625 53.03125 72.703125 48.75 
Q 76.859375 44.484375 76.859375 35.59375 
L 76.859375 0 
L 68.109375 0 
L 68.109375 32.671875 
Q 68.109375 37.9375 67.25 40.25 
Q 66.40625 42.578125 64.15625 43.984375 
Q 61.921875 45.40625 58.890625 45.40625 
Q 53.421875 45.40625 49.796875 41.765625 
Q 46.1875 38.140625 46.1875 30.125 
L 46.1875 0 
L 37.40625 0 
L 37.40625 33.6875 
Q 37.40625 39.546875 35.25 42.46875 
Q 33.109375 45.40625 28.21875 45.40625 
Q 24.515625 45.40625 21.359375 43.453125 
Q 18.21875 41.5 16.796875 37.734375 
Q 15.375 33.984375 15.375 26.90625 
L 15.375 0 
z
" id="ArialMT-6d"/>
      <path d="M 5.03125 -1.21875 
L 9.28125 19.578125 
L 1.03125 19.578125 
L 1.03125 26.859375 
L 10.75 26.859375 
L 14.359375 44.578125 
L 1.03125 44.578125 
L 1.03125 51.859375 
L 15.828125 51.859375 
L 20.0625 72.796875 
L 27.390625 72.796875 
L 23.140625 51.859375 
L 38.53125 51.859375 
L 42.78125 72.796875 
L 50.140625 72.796875 
L 45.90625 51.859375 
L 54.34375 51.859375 
L 54.34375 44.578125 
L 44.4375 44.578125 
L 40.765625 26.859375 
L 54.34375 26.859375 
L 54.34375 19.578125 
L 39.3125 19.578125 
L 35.0625 -1.21875 
L 27.734375 -1.21875 
L 31.9375 19.578125 
L 16.609375 19.578125 
L 12.359375 -1.21875 
z
M 18.0625 26.859375 
L 33.40625 26.859375 
L 37.0625 44.578125 
L 21.6875 44.578125 
z
" id="ArialMT-23"/>
     </defs>
     <g style="fill:#262626;" transform="translate(29.88015625 269.78875)rotate(-90.0)scale(0.11 -0.11)">
      <use xlink:href="#ArialMT-6c"/>
      <use x="22.216796875" xlink:href="#ArialMT-6f"/>
      <use x="77.83203125" xlink:href="#ArialMT-67"/>
      <use x="133.447265625" xlink:href="#ArialMT-31"/>
      <use x="189.0625" xlink:href="#ArialMT-30"/>
      <use x="244.677734375" xlink:href="#ArialMT-20"/>
      <use x="272.4609375" xlink:href="#ArialMT-61"/>
      <use x="328.076171875" xlink:href="#ArialMT-62"/>
      <use x="383.69140625" xlink:href="#ArialMT-75"/>
      <use x="439.306640625" xlink:href="#ArialMT-6e"/>
      <use x="494.921875" xlink:href="#ArialMT-64"/>
      <use x="550.537109375" xlink:href="#ArialMT-61"/>
      <use x="606.15234375" xlink:href="#ArialMT-6e"/>
      <use x="661.767578125" xlink:href="#ArialMT-63"/>
      <use x="711.767578125" xlink:href="#ArialMT-65"/>
      <use x="767.3828125" xlink:href="#ArialMT-20"/>
      <use x="795.166015625" xlink:href="#ArialMT-28"/>
      <use x="828.466796875" xlink:href="#ArialMT-23"/>
      <use x="884.08203125" xlink:href="#ArialMT-20"/>
      <use x="911.865234375" xlink:href="#ArialMT-6d"/>
      <use x="995.166015625" xlink:href="#ArialMT-6f"/>
      <use x="1050.78125" xlink:href="#ArialMT-6c"/>
      <use x="1072.99804688" xlink:href="#ArialMT-65"/>
      <use x="1128.61328125" xlink:href="#ArialMT-63"/>
      <use x="1178.61328125" xlink:href="#ArialMT-75"/>
      <use x="1234.22851562" xlink:href="#ArialMT-6c"/>
      <use x="1256.4453125" xlink:href="#ArialMT-65"/>
      <use x="1312.06054688" xlink:href="#ArialMT-73"/>
      <use x="1362.06054688" xlink:href="#ArialMT-29"/>
     </g>
    </g>
   </g>
   <g id="line2d_11">
    <path clip-path="url(#p822c327c63)" d="M 113.34227 346.5 
L 113.34227 39.6 
" style="fill:none;stroke:#808080;stroke-linecap:round;stroke-width:3.0;"/>
   </g>
   <g id="line2d_12">
    <path clip-path="url(#p822c327c63)" d="M 76.825946 136.008351 
L 77.308541 142.147356 
L 78.27373 146.597607 
L 78.756324 147.578564 
L 79.238919 155.344547 
L 79.721514 156.128896 
L 81.169297 157.064918 
L 81.651892 159.011835 
L 82.134486 159.289725 
L 82.617081 161.378998 
L 83.099676 161.865905 
L 83.58227 162.834832 
L 84.064865 164.780067 
L 84.547459 165.683516 
L 85.030054 165.683516 
L 85.995243 166.218718 
L 86.477838 169.46811 
L 87.443027 169.83603 
L 88.408216 170.1673 
L 88.890811 172.334465 
L 89.373405 173.533533 
L 89.856 173.913368 
L 90.338595 175.035895 
L 90.821189 175.386935 
L 91.303784 175.589582 
L 91.786378 176.310974 
L 92.268973 179.113583 
L 92.751568 183.162961 
L 93.234162 183.500918 
L 93.716757 185.329346 
L 94.199351 185.475219 
L 94.681946 186.518835 
L 95.164541 189.149792 
L 95.647135 189.742152 
L 96.12973 190.877687 
L 96.612324 190.967031 
L 97.094919 191.692547 
L 97.577514 197.172268 
L 98.542703 198.086815 
L 99.025297 199.275005 
L 99.990486 199.519 
L 100.473081 199.889144 
L 100.955676 200.901548 
L 101.43827 201.422238 
L 101.920865 202.358136 
L 102.403459 203.610771 
L 102.886054 203.897145 
L 103.368649 205.681733 
L 103.851243 206.461305 
L 104.333838 208.090847 
L 104.816432 208.259301 
L 105.299027 210.184589 
L 105.781622 214.92791 
L 106.264216 215.144686 
L 106.746811 215.144686 
L 107.229405 215.805574 
L 107.712 217.177556 
L 108.194595 236.50792 
L 108.677189 241.183144 
L 109.159784 256.836049 
L 109.642378 265.000459 
L 110.124973 271.071127 
L 110.607568 293.561096 
L 111.090162 297.754798 
L 113.020541 297.754798 
L 113.503135 302.714895 
L 114.468324 302.714895 
L 114.950919 308.785564 
L 119.29427 308.785564 
L 119.776865 316.612016 
L 131.359135 316.612016 
L 131.84173 327.642782 
L 169.484108 327.642782 
L 169.966703 346.5 
L 317.640649 346.5 
L 317.640649 346.5 
" style="fill:none;opacity:0.4;stroke:#2c5ebf;stroke-linecap:round;stroke-width:2.0;"/>
   </g>
   <g id="line2d_13">
    <path clip-path="url(#p822c327c63)" d="M 101.920865 346.5 
L 101.920865 39.6 
" style="fill:none;stroke:#2c5ebf;stroke-dasharray:6.000000,6.000000;stroke-dashoffset:0.0;stroke-width:2.0;"/>
   </g>
   <g id="line2d_14">
    <path clip-path="url(#p822c327c63)" d="M 76.825946 153.207886 
L 77.308541 159.067186 
L 77.791135 159.401681 
L 78.27373 163.381204 
L 78.756324 166.363235 
L 79.721514 167.585731 
L 80.204108 168.589157 
L 80.686703 168.826069 
L 81.651892 171.710056 
L 82.617081 173.770308 
L 83.099676 174.395743 
L 84.064865 174.787897 
L 85.030054 175.135731 
L 85.512649 176.838224 
L 85.995243 177.267506 
L 86.477838 178.940485 
L 86.960432 181.979939 
L 88.408216 184.189694 
L 88.890811 184.540734 
L 89.373405 184.611489 
L 89.856 185.91759 
L 90.338595 186.442949 
L 91.303784 187.05605 
L 91.786378 187.05605 
L 92.268973 187.525117 
L 92.751568 188.488234 
L 93.234162 188.982888 
L 93.716757 189.233629 
L 94.199351 189.317726 
L 95.647135 190.877687 
L 96.612324 191.236837 
L 97.094919 191.236837 
L 97.577514 192.24967 
L 98.060108 192.343643 
L 98.542703 193.010704 
L 99.025297 193.010704 
L 99.507892 193.595785 
L 100.473081 195.85563 
L 102.886054 196.396507 
L 103.368649 197.060082 
L 103.851243 197.060082 
L 104.333838 197.284919 
L 104.816432 197.284919 
L 105.781622 197.85528 
L 106.746811 198.203326 
L 107.229405 198.320338 
L 107.712 199.396729 
L 108.677189 200.013653 
L 109.642378 200.264394 
L 110.124973 200.901548 
L 110.607568 200.901548 
L 111.090162 201.030789 
L 111.572757 201.686368 
L 112.055351 201.686368 
L 112.537946 202.222449 
L 113.020541 202.222449 
L 113.503135 202.769306 
L 113.98573 202.769306 
L 114.468324 203.327381 
L 114.950919 203.468707 
L 115.433514 203.468707 
L 115.916108 204.332437 
L 116.398703 204.479097 
L 116.881297 204.479097 
L 117.363892 205.224492 
L 118.329081 205.835871 
L 118.811676 205.990886 
L 119.29427 205.990886 
L 119.776865 206.303594 
L 120.259459 207.591655 
L 120.742054 207.757037 
L 121.224649 207.757037 
L 121.707243 208.090847 
L 122.189838 208.599371 
L 122.672432 209.292535 
L 123.155027 209.292535 
L 123.637622 209.645854 
L 124.602811 210.003823 
L 125.085405 210.549765 
L 126.533189 210.549765 
L 127.498378 210.91991 
L 127.980973 211.867923 
L 128.463568 212.256575 
L 128.946162 212.256575 
L 129.428757 213.050944 
L 129.911351 213.253215 
L 130.876541 214.077678 
L 131.359135 214.287758 
L 132.324324 214.287758 
L 132.806919 214.92791 
L 133.772108 215.805574 
L 134.254703 215.805574 
L 135.219892 216.255257 
L 135.702486 216.944034 
L 136.185081 217.413101 
L 137.15027 217.413101 
L 137.632865 217.650702 
L 138.115459 218.132223 
L 139.080649 218.132223 
L 139.563243 219.374686 
L 140.528432 220.411201 
L 141.011027 220.411201 
L 141.493622 220.67662 
L 142.458811 220.67662 
L 142.941405 222.044004 
L 143.906595 222.610799 
L 144.389189 224.08171 
L 144.871784 224.385682 
L 145.836973 225.636717 
L 146.319568 225.636717 
L 146.802162 225.958676 
L 147.284757 225.958676 
L 147.767351 226.284491 
L 148.249946 226.284491 
L 150.180324 227.628231 
L 150.662919 227.628231 
L 152.110703 228.681468 
L 152.593297 229.777128 
L 153.075892 230.152378 
L 153.558486 230.152378 
L 154.041081 230.532877 
L 154.523676 230.532877 
L 155.00627 230.918773 
L 155.488865 232.934896 
L 156.936649 234.220421 
L 157.419243 234.220421 
L 157.901838 235.569717 
L 158.384432 236.034774 
L 158.867027 236.034774 
L 159.349622 236.50792 
L 160.314811 236.50792 
L 160.797405 238.487354 
L 161.28 238.487354 
L 161.762595 239.005565 
L 162.245189 239.005565 
L 163.210378 241.183144 
L 164.175568 241.183144 
L 165.140757 242.340987 
L 165.623351 242.340987 
L 166.588541 243.550307 
L 167.071135 243.550307 
L 167.55373 248.264201 
L 168.036324 249.775991 
L 169.001514 249.775991 
L 169.484108 250.564603 
L 169.966703 250.564603 
L 170.931892 252.213909 
L 171.897081 252.213909 
L 172.379676 254.891993 
L 172.86227 254.891993 
L 173.344865 256.836049 
L 173.827459 257.862783 
L 174.310054 257.862783 
L 175.757838 261.198205 
L 176.723027 263.673112 
L 177.205622 263.673112 
L 177.688216 265.000459 
L 178.170811 267.866814 
L 178.653405 269.421821 
L 179.136 272.826912 
L 179.618595 272.826912 
L 180.101189 274.703878 
L 180.583784 274.703878 
L 181.548973 278.89758 
L 182.514162 278.89758 
L 182.996757 281.264743 
L 183.479351 281.264743 
L 183.961946 286.724033 
L 184.444541 293.561096 
L 185.40973 302.714895 
L 186.374919 302.714895 
L 186.857514 308.785564 
L 191.200865 308.785564 
L 191.683459 316.612016 
L 204.230919 316.612016 
L 204.713514 327.642782 
L 238.495135 327.642782 
L 238.97773 346.5 
L 475.931676 346.5 
L 475.931676 346.5 
" style="fill:none;opacity:0.4;stroke:#ff1313;stroke-linecap:round;stroke-width:2.0;"/>
   </g>
   <g id="line2d_15">
    <path clip-path="url(#p822c327c63)" d="M 154.523676 346.5 
L 154.523676 39.6 
" style="fill:none;stroke:#ff1313;stroke-dasharray:6.000000,6.000000;stroke-dashoffset:0.0;stroke-width:2.0;"/>
   </g>
   <g id="line2d_16">
    <path clip-path="url(#p822c327c63)" d="M 76.825946 143.535756 
L 77.308541 145.583204 
L 77.791135 149.889651 
L 78.27373 150.509569 
L 78.756324 152.589559 
L 79.238919 155.636034 
L 80.204108 159.122651 
L 80.686703 160.256365 
L 81.169297 162.834832 
L 81.651892 163.576692 
L 82.134486 164.677728 
L 84.064865 165.332476 
L 84.547459 166.727921 
L 85.030054 167.775845 
L 85.995243 168.044256 
L 86.960432 168.707355 
L 87.443027 170.33446 
L 88.408216 171.665999 
L 88.890811 171.887001 
L 89.373405 172.244382 
L 89.856 173.066078 
L 90.821189 174.009161 
L 91.303784 174.057184 
L 92.268973 175.742564 
L 92.751568 175.947887 
L 93.234162 177.979869 
L 94.681946 179.28779 
L 96.12973 182.56502 
L 96.612324 183.230217 
L 97.094919 183.365231 
L 97.577514 185.54845 
L 98.060108 186.901474 
L 99.025297 188.570054 
L 99.990486 188.982888 
L 100.473081 189.317726 
L 101.43827 189.402083 
L 101.920865 189.827838 
L 102.886054 190.260363 
L 103.368649 190.435316 
L 104.816432 192.15602 
L 105.299027 192.15602 
L 106.264216 192.722816 
L 106.746811 193.301672 
L 107.229405 193.497394 
L 107.712 194.908351 
L 108.194595 195.85563 
L 108.677189 196.287468 
L 109.159784 196.396507 
L 109.642378 196.948356 
L 110.607568 197.511631 
L 111.572757 197.511631 
L 112.055351 198.086815 
L 112.537946 198.913068 
L 113.98573 199.641822 
L 114.468324 200.013653 
L 115.433514 201.422238 
L 115.916108 201.686368 
L 116.398703 202.907755 
L 116.881297 202.907755 
L 117.363892 203.610771 
L 117.846486 205.528464 
L 118.329081 205.835871 
L 118.811676 205.990886 
L 119.29427 207.263877 
L 119.776865 207.92343 
L 121.224649 208.428804 
L 121.707243 208.771013 
L 122.189838 208.943745 
L 122.672432 209.468621 
L 123.155027 210.549765 
L 124.120216 210.91991 
L 125.085405 210.91991 
L 125.568 211.484744 
L 126.050595 212.850167 
L 126.533189 212.850167 
L 127.015784 214.077678 
L 127.498378 214.499473 
L 127.980973 214.499473 
L 128.463568 214.712848 
L 128.946162 217.177556 
L 129.428757 218.376218 
L 129.911351 218.62242 
L 130.393946 219.374686 
L 130.876541 223.781097 
L 131.84173 225.636717 
L 132.806919 226.284491 
L 133.772108 227.628231 
L 134.254703 227.628231 
L 134.737297 227.974799 
L 135.219892 228.681468 
L 135.702486 229.041807 
L 136.185081 229.777128 
L 136.667676 230.152378 
L 137.632865 232.519541 
L 138.598054 233.356691 
L 139.080649 233.356691 
L 139.563243 233.785128 
L 140.045838 234.662792 
L 140.528432 234.662792 
L 141.011027 240.622192 
L 141.493622 242.938928 
L 141.976216 243.550307 
L 143.424 247.538686 
L 143.906595 250.564603 
L 144.389189 251.37676 
L 144.871784 251.37676 
L 145.354378 255.846659 
L 145.836973 255.846659 
L 146.802162 260.040362 
L 147.284757 263.673112 
L 147.767351 266.395904 
L 148.249946 267.866814 
L 148.732541 276.720001 
L 149.69773 276.720001 
L 150.180324 289.928345 
L 150.662919 289.928345 
L 151.145514 293.561096 
L 151.628108 302.714895 
L 154.523676 302.714895 
L 155.00627 308.785564 
L 161.762595 308.785564 
L 162.245189 316.612016 
L 176.240432 316.612016 
L 176.723027 327.642782 
L 226.43027 327.642782 
L 226.912865 346.5 
L 457.593081 346.5 
L 457.593081 346.5 
" style="fill:none;opacity:0.4;stroke:#f7b02a;stroke-linecap:round;stroke-width:2.0;"/>
   </g>
   <g id="line2d_17">
    <path clip-path="url(#p822c327c63)" d="M 127.498378 346.5 
L 127.498378 39.6 
" style="fill:none;stroke:#f7b02a;stroke-dasharray:6.000000,6.000000;stroke-dashoffset:0.0;stroke-width:2.0;"/>
   </g>
   <g id="line2d_18">
    <path clip-path="url(#p822c327c63)" d="M 76.825946 116.985464 
L 77.308541 127.548372 
L 77.791135 129.985203 
L 78.27373 136.306723 
L 78.756324 138.272122 
L 79.238919 139.770278 
L 80.204108 145.99129 
L 80.686703 147.32549 
L 81.651892 151.963628 
L 82.134486 152.655141 
L 82.617081 154.747131 
L 83.099676 157.610861 
L 83.58227 157.848232 
L 84.064865 160.227439 
L 84.547459 160.547333 
L 85.030054 164.951493 
L 85.512649 166.003372 
L 85.995243 166.110832 
L 86.477838 166.727921 
L 86.960432 167.775845 
L 87.443027 167.928898 
L 87.925622 169.105099 
L 88.408216 169.508745 
L 88.890811 169.549441 
L 89.373405 170.33446 
L 89.856 170.842192 
L 90.338595 173.675351 
L 90.821189 173.722788 
L 91.786378 175.336508 
L 92.751568 179.876671 
L 93.234162 181.218904 
L 93.716757 181.723888 
L 94.681946 182.303429 
L 95.164541 183.09587 
L 95.647135 183.500918 
L 96.12973 184.470163 
L 97.094919 185.256702 
L 97.577514 187.604087 
L 98.060108 188.244239 
L 99.025297 190.347699 
L 99.507892 192.062692 
L 99.990486 197.511631 
L 100.473081 198.793484 
L 100.955676 198.793484 
L 101.920865 205.07377 
L 102.403459 212.453003 
L 102.886054 216.255257 
L 103.368649 217.413101 
L 103.851243 225.958676 
L 104.333838 230.918773 
L 104.816432 231.310222 
L 105.299027 234.662792 
L 105.781622 236.034774 
L 106.264216 242.340987 
L 106.746811 244.175742 
L 107.229405 249.775991 
L 107.712 265.000459 
L 108.677189 274.703878 
L 109.159784 276.720001 
L 109.642378 281.264743 
L 110.124973 283.857677 
L 110.607568 283.857677 
L 111.090162 286.724033 
L 112.537946 286.724033 
L 113.020541 289.928345 
L 113.503135 289.928345 
L 113.98573 293.561096 
L 119.29427 293.561096 
L 119.776865 297.754798 
L 122.672432 297.754798 
L 123.155027 302.714895 
L 128.946162 302.714895 
L 129.428757 308.785564 
L 140.528432 308.785564 
L 141.011027 316.612016 
L 170.449297 316.612016 
L 170.931892 327.642782 
L 212.917622 327.642782 
L 213.400216 346.5 
L 355.283027 346.5 
L 355.283027 346.5 
" style="fill:none;opacity:0.4;stroke:#02b72a;stroke-linecap:round;stroke-width:2.0;"/>
   </g>
   <g id="line2d_19">
    <path clip-path="url(#p822c327c63)" d="M 99.990486 346.5 
L 99.990486 39.6 
" style="fill:none;stroke:#02b72a;stroke-dasharray:6.000000,6.000000;stroke-dashoffset:0.0;stroke-width:2.0;"/>
   </g>
   <g id="line2d_20">
    <path clip-path="url(#p822c327c63)" d="M 76.825946 61.050152 
L 77.308541 87.877361 
L 77.791135 241.183144 
L 78.27373 244.815894 
L 78.756324 248.264201 
L 79.238919 251.37676 
L 79.721514 251.37676 
L 80.204108 252.213909 
L 80.686703 255.846659 
L 81.169297 257.862783 
L 81.651892 258.929791 
L 82.134486 263.673112 
L 82.617081 266.395904 
L 83.099676 267.866814 
L 83.58227 269.421821 
L 84.064865 271.071127 
L 84.547459 271.071127 
L 85.030054 271.071127 
L 85.512649 272.826912 
L 85.995243 272.826912 
L 86.477838 274.703878 
L 86.960432 276.720001 
L 87.443027 278.89758 
L 87.925622 278.89758 
L 88.408216 281.264743 
L 88.890811 283.857677 
L 89.373405 289.928345 
L 89.856 293.561096 
L 90.338595 293.561096 
L 90.821189 293.561096 
L 91.303784 297.754798 
L 91.786378 297.754798 
L 92.268973 302.714895 
L 92.751568 302.714895 
L 93.234162 308.785564 
L 93.716757 308.785564 
L 94.199351 308.785564 
L 94.681946 308.785564 
L 95.164541 308.785564 
L 95.647135 308.785564 
L 96.12973 316.612016 
L 96.612324 316.612016 
L 97.094919 316.612016 
L 97.577514 316.612016 
L 98.060108 316.612016 
L 98.542703 316.612016 
L 99.025297 327.642782 
L 99.507892 327.642782 
L 99.990486 327.642782 
L 100.473081 327.642782 
L 100.955676 327.642782 
L 101.43827 327.642782 
L 101.920865 327.642782 
L 102.403459 327.642782 
L 102.886054 346.5 
L 103.368649 346.5 
L 103.851243 346.5 
L 104.333838 346.5 
L 104.816432 346.5 
L 105.299027 346.5 
L 105.781622 346.5 
L 106.264216 346.5 
L 106.746811 346.5 
L 107.229405 346.5 
L 107.712 346.5 
L 108.194595 346.5 
L 108.677189 346.5 
L 109.159784 346.5 
L 109.642378 346.5 
L 110.124973 346.5 
L 110.607568 346.5 
L 111.090162 346.5 
L 111.572757 346.5 
L 112.055351 346.5 
L 112.537946 346.5 
L 113.020541 346.5 
L 113.503135 346.5 
L 113.98573 346.5 
L 114.468324 346.5 
L 114.950919 346.5 
L 115.433514 346.5 
L 115.916108 346.5 
L 116.398703 346.5 
L 116.881297 346.5 
L 117.363892 346.5 
L 117.846486 346.5 
L 118.329081 346.5 
L 118.811676 346.5 
L 119.29427 346.5 
L 119.776865 346.5 
L 120.259459 346.5 
L 120.742054 346.5 
L 121.224649 346.5 
L 121.707243 346.5 
L 122.189838 346.5 
L 122.672432 346.5 
L 123.155027 346.5 
L 123.637622 346.5 
L 124.120216 346.5 
L 124.602811 346.5 
L 125.085405 346.5 
L 125.568 346.5 
L 126.050595 346.5 
L 126.533189 346.5 
L 127.015784 346.5 
L 127.498378 346.5 
L 127.980973 346.5 
L 128.463568 346.5 
L 128.946162 346.5 
L 129.428757 346.5 
L 129.911351 346.5 
L 130.393946 346.5 
L 130.876541 346.5 
L 131.359135 346.5 
L 131.84173 346.5 
L 132.324324 346.5 
L 132.806919 346.5 
L 133.289514 346.5 
L 133.772108 346.5 
L 134.254703 346.5 
" style="fill:none;opacity:0.4;stroke:#009e9e;stroke-linecap:round;stroke-width:2.0;"/>
   </g>
   <g id="line2d_21">
    <path clip-path="url(#p822c327c63)" d="M 77.308541 346.5 
L 77.308541 39.6 
" style="fill:none;stroke:#009e9e;stroke-dasharray:6.000000,6.000000;stroke-dashoffset:0.0;stroke-width:2.0;"/>
   </g>
   <g id="line2d_22">
    <path clip-path="url(#p822c327c63)" d="M 76.825946 127.574477 
L 77.308541 131.491014 
L 77.791135 131.622027 
L 78.27373 135.596054 
L 78.756324 144.442946 
L 79.238919 145.566332 
L 79.721514 147.181927 
L 80.204108 147.217747 
L 81.169297 147.760783 
L 82.134486 150.814677 
L 82.617081 151.582241 
L 83.099676 151.624354 
L 83.58227 152.524136 
L 84.547459 152.852838 
L 85.030054 153.749302 
L 85.995243 153.863466 
L 86.477838 154.86557 
L 86.960432 155.368719 
L 87.443027 157.716104 
L 87.925622 159.094904 
L 88.408216 159.457832 
L 89.373405 161.896628 
L 89.856 162.174708 
L 90.338595 162.174708 
L 90.821189 162.299217 
L 91.303784 162.676201 
L 91.786378 163.971932 
L 92.751568 165.15864 
L 93.234162 165.29762 
L 93.716757 165.931967 
L 94.199351 166.363235 
L 94.681946 166.472128 
L 95.164541 166.949103 
L 96.12973 167.321783 
L 96.612324 167.359334 
L 98.060108 168.044256 
L 99.507892 168.354291 
L 99.990486 168.707355 
L 100.473081 169.83603 
L 100.955676 170.418427 
L 102.403459 170.629484 
L 102.886054 170.75691 
L 103.368649 171.142806 
L 103.851243 171.359581 
L 104.333838 171.403145 
L 105.299027 172.289386 
L 106.264216 172.789413 
L 106.746811 173.961222 
L 107.229405 174.153486 
L 107.712 176.944911 
L 108.194595 178.540821 
L 108.677189 178.768481 
L 109.642378 179.817206 
L 110.124973 180.115839 
L 110.607568 182.895585 
L 111.090162 183.705726 
L 111.572757 183.77434 
L 112.055351 184.050537 
L 112.537946 188.002414 
L 113.020541 189.066212 
L 113.98573 189.742152 
L 114.468324 189.827838 
L 114.950919 190.877687 
L 115.433514 192.24967 
L 116.398703 192.437942 
L 116.881297 195.43054 
L 117.363892 196.070692 
L 118.329081 196.287468 
L 119.29427 198.674424 
L 119.776865 199.396729 
L 120.259459 200.517468 
L 120.742054 202.907755 
L 121.707243 210.184589 
L 122.189838 213.050944 
L 122.672432 214.077678 
L 123.155027 214.712848 
L 124.120216 220.67662 
L 124.602811 226.948065 
L 125.085405 256.836049 
L 125.568 257.862783 
L 126.050595 262.407525 
L 127.015784 265.000459 
L 127.498378 271.071127 
L 127.980973 271.071127 
L 128.463568 274.703878 
L 128.946162 276.720001 
L 129.428757 276.720001 
L 130.393946 281.264743 
L 131.359135 281.264743 
L 131.84173 283.857677 
L 132.806919 283.857677 
L 133.289514 286.724033 
L 135.219892 286.724033 
L 135.702486 289.928345 
L 138.115459 289.928345 
L 138.598054 293.561096 
L 141.493622 293.561096 
L 141.976216 297.754798 
L 149.215135 297.754798 
L 149.69773 302.714895 
L 160.797405 302.714895 
L 161.28 308.785564 
L 178.170811 308.785564 
L 178.653405 316.612016 
L 212.917622 316.612016 
L 213.400216 327.642782 
L 292.54573 327.642782 
L 293.028324 346.5 
L 517.917405 346.5 
L 517.917405 346.5 
" style="fill:none;opacity:0.4;stroke:#1d1aa9;stroke-linecap:round;stroke-width:2.0;"/>
   </g>
   <g id="line2d_23">
    <path clip-path="url(#p822c327c63)" d="M 118.811676 346.5 
L 118.811676 39.6 
" style="fill:none;stroke:#1d1aa9;stroke-dasharray:6.000000,6.000000;stroke-dashoffset:0.0;stroke-width:2.0;"/>
   </g>
   <g id="patch_3">
    <path d="M 72 39.6 
L 518.4 39.6 
" style="fill:none;stroke:#262626;stroke-linecap:square;stroke-linejoin:miter;stroke-width:1.25;"/>
   </g>
   <g id="patch_4">
    <path d="M 518.4 346.5 
L 518.4 39.6 
" style="fill:none;stroke:#262626;stroke-linecap:square;stroke-linejoin:miter;stroke-width:1.25;"/>
   </g>
   <g id="patch_5">
    <path d="M 72 346.5 
L 518.4 346.5 
" style="fill:none;stroke:#262626;stroke-linecap:square;stroke-linejoin:miter;stroke-width:1.25;"/>
   </g>
   <g id="patch_6">
    <path d="M 72 346.5 
L 72 39.6 
" style="fill:none;stroke:#262626;stroke-linecap:square;stroke-linejoin:miter;stroke-width:1.25;"/>
   </g>
   <g id="text_13">
    <!-- B6 14wks BCG Thoracic LN -->
    <defs>
     <path d="M 6.59375 0 
L 6.59375 71.578125 
L 15.375 71.578125 
L 15.375 45.90625 
Q 21.53125 53.03125 30.90625 53.03125 
Q 36.671875 53.03125 40.921875 50.75 
Q 45.171875 48.484375 47 44.484375 
Q 48.828125 40.484375 48.828125 32.859375 
L 48.828125 0 
L 40.046875 0 
L 40.046875 32.859375 
Q 40.046875 39.453125 37.1875 42.453125 
Q 34.328125 45.453125 29.109375 45.453125 
Q 25.203125 45.453125 21.75 43.421875 
Q 18.3125 41.40625 16.84375 37.9375 
Q 15.375 34.46875 15.375 28.375 
L 15.375 0 
z
" id="ArialMT-68"/>
     <path d="M 58.796875 25.09375 
L 68.265625 22.703125 
Q 65.28125 11.03125 57.546875 4.90625 
Q 49.8125 -1.21875 38.625 -1.21875 
Q 27.046875 -1.21875 19.796875 3.484375 
Q 12.546875 8.203125 8.765625 17.140625 
Q 4.984375 26.078125 4.984375 36.328125 
Q 4.984375 47.515625 9.25 55.828125 
Q 13.53125 64.15625 21.40625 68.46875 
Q 29.296875 72.796875 38.765625 72.796875 
Q 49.515625 72.796875 56.828125 67.328125 
Q 64.15625 61.859375 67.046875 51.953125 
L 57.71875 49.75 
Q 55.21875 57.5625 50.484375 61.125 
Q 45.75 64.703125 38.578125 64.703125 
Q 30.328125 64.703125 24.78125 60.734375 
Q 19.234375 56.78125 16.984375 50.109375 
Q 14.75 43.453125 14.75 36.375 
Q 14.75 27.25 17.40625 20.4375 
Q 20.0625 13.625 25.671875 10.25 
Q 31.296875 6.890625 37.84375 6.890625 
Q 45.796875 6.890625 51.3125 11.46875 
Q 56.84375 16.0625 58.796875 25.09375 
" id="ArialMT-43"/>
     <path d="M 7.328125 0 
L 7.328125 71.578125 
L 34.1875 71.578125 
Q 42.390625 71.578125 47.34375 69.40625 
Q 52.296875 67.234375 55.09375 62.71875 
Q 57.90625 58.203125 57.90625 53.265625 
Q 57.90625 48.6875 55.421875 44.625 
Q 52.9375 40.578125 47.90625 38.09375 
Q 54.390625 36.1875 57.875 31.59375 
Q 61.375 27 61.375 20.75 
Q 61.375 15.71875 59.25 11.390625 
Q 57.125 7.078125 54 4.734375 
Q 50.875 2.390625 46.15625 1.1875 
Q 41.453125 0 34.625 0 
z
M 16.796875 41.5 
L 32.28125 41.5 
Q 38.578125 41.5 41.3125 42.328125 
Q 44.921875 43.40625 46.75 45.890625 
Q 48.578125 48.390625 48.578125 52.15625 
Q 48.578125 55.71875 46.875 58.421875 
Q 45.171875 61.140625 41.984375 62.140625 
Q 38.8125 63.140625 31.109375 63.140625 
L 16.796875 63.140625 
z
M 16.796875 8.453125 
L 34.625 8.453125 
Q 39.203125 8.453125 41.0625 8.796875 
Q 44.34375 9.375 46.53125 10.734375 
Q 48.734375 12.109375 50.140625 14.71875 
Q 51.5625 17.328125 51.5625 20.75 
Q 51.5625 24.75 49.515625 27.703125 
Q 47.46875 30.671875 43.828125 31.859375 
Q 40.1875 33.0625 33.34375 33.0625 
L 16.796875 33.0625 
z
" id="ArialMT-42"/>
     <path d="M 25.921875 0 
L 25.921875 63.140625 
L 2.34375 63.140625 
L 2.34375 71.578125 
L 59.078125 71.578125 
L 59.078125 63.140625 
L 35.40625 63.140625 
L 35.40625 0 
z
" id="ArialMT-54"/>
     <path d="M 41.21875 28.078125 
L 41.21875 36.46875 
L 71.53125 36.53125 
L 71.53125 9.96875 
Q 64.546875 4.390625 57.125 1.578125 
Q 49.703125 -1.21875 41.890625 -1.21875 
Q 31.34375 -1.21875 22.71875 3.296875 
Q 14.109375 7.8125 9.71875 16.359375 
Q 5.328125 24.90625 5.328125 35.453125 
Q 5.328125 45.90625 9.6875 54.953125 
Q 14.0625 64.015625 22.265625 68.40625 
Q 30.46875 72.796875 41.15625 72.796875 
Q 48.921875 72.796875 55.1875 70.28125 
Q 61.46875 67.78125 65.03125 63.28125 
Q 68.609375 58.796875 70.453125 51.5625 
L 61.921875 49.21875 
Q 60.296875 54.6875 57.90625 57.8125 
Q 55.515625 60.9375 51.0625 62.8125 
Q 46.625 64.703125 41.21875 64.703125 
Q 34.71875 64.703125 29.984375 62.71875 
Q 25.25 60.75 22.34375 57.515625 
Q 19.4375 54.296875 17.828125 50.4375 
Q 15.09375 43.796875 15.09375 36.03125 
Q 15.09375 26.46875 18.390625 20.015625 
Q 21.6875 13.578125 27.984375 10.453125 
Q 34.28125 7.328125 41.359375 7.328125 
Q 47.515625 7.328125 53.375 9.6875 
Q 59.234375 12.0625 62.25 14.75 
L 62.25 28.078125 
z
" id="ArialMT-47"/>
     <path d="M 7.328125 0 
L 7.328125 71.578125 
L 16.796875 71.578125 
L 16.796875 8.453125 
L 52.046875 8.453125 
L 52.046875 0 
z
" id="ArialMT-4c"/>
     <path d="M 7.625 0 
L 7.625 71.578125 
L 17.328125 71.578125 
L 54.9375 15.375 
L 54.9375 71.578125 
L 64.015625 71.578125 
L 64.015625 0 
L 54.296875 0 
L 16.703125 56.25 
L 16.703125 0 
z
" id="ArialMT-4e"/>
     <path d="M 6.640625 61.46875 
L 6.640625 71.578125 
L 15.4375 71.578125 
L 15.4375 61.46875 
z
M 6.640625 0 
L 6.640625 51.859375 
L 15.4375 51.859375 
L 15.4375 0 
z
" id="ArialMT-69"/>
     <path d="M 16.15625 0 
L 0.296875 51.859375 
L 9.375 51.859375 
L 17.625 21.921875 
L 20.703125 10.796875 
Q 20.90625 11.625 23.390625 21.484375 
L 31.640625 51.859375 
L 40.671875 51.859375 
L 48.4375 21.78125 
L 51.03125 11.859375 
L 54 21.875 
L 62.890625 51.859375 
L 71.4375 51.859375 
L 55.21875 0 
L 46.09375 0 
L 37.84375 31.0625 
L 35.84375 39.890625 
L 25.34375 0 
z
" id="ArialMT-77"/>
    </defs>
    <g style="fill:#262626;" transform="translate(220.51125 34.6)scale(0.12 -0.12)">
     <use xlink:href="#ArialMT-42"/>
     <use x="66.69921875" xlink:href="#ArialMT-36"/>
     <use x="122.314453125" xlink:href="#ArialMT-20"/>
     <use x="150.09765625" xlink:href="#ArialMT-31"/>
     <use x="205.712890625" xlink:href="#ArialMT-34"/>
     <use x="261.328125" xlink:href="#ArialMT-77"/>
     <use x="333.544921875" xlink:href="#ArialMT-6b"/>
     <use x="383.544921875" xlink:href="#ArialMT-73"/>
     <use x="433.544921875" xlink:href="#ArialMT-20"/>
     <use x="461.328125" xlink:href="#ArialMT-42"/>
     <use x="528.02734375" xlink:href="#ArialMT-43"/>
     <use x="600.244140625" xlink:href="#ArialMT-47"/>
     <use x="678.02734375" xlink:href="#ArialMT-20"/>
     <use x="705.794921875" xlink:href="#ArialMT-54"/>
     <use x="766.87890625" xlink:href="#ArialMT-68"/>
     <use x="822.494140625" xlink:href="#ArialMT-6f"/>
     <use x="878.109375" xlink:href="#ArialMT-72"/>
     <use x="911.41015625" xlink:href="#ArialMT-61"/>
     <use x="967.025390625" xlink:href="#ArialMT-63"/>
     <use x="1017.02539062" xlink:href="#ArialMT-69"/>
     <use x="1039.2421875" xlink:href="#ArialMT-63"/>
     <use x="1089.2421875" xlink:href="#ArialMT-20"/>
     <use x="1117.02539062" xlink:href="#ArialMT-4c"/>
     <use x="1172.640625" xlink:href="#ArialMT-4e"/>
    </g>
   </g>
   <g id="legend_1">
    <g id="line2d_24">
     <path d="M 395.796875 52.257812 
L 415.796875 52.257812 
" style="fill:none;stroke:#808080;stroke-linecap:round;stroke-width:3.0;"/>
    </g>
    <g id="line2d_25"/>
    <g id="text_14">
     <!-- mean threshold: 75 -->
     <defs>
      <path d="M 25.78125 7.859375 
L 27.046875 0.09375 
Q 23.34375 -0.6875 20.40625 -0.6875 
Q 15.625 -0.6875 12.984375 0.828125 
Q 10.359375 2.34375 9.28125 4.8125 
Q 8.203125 7.28125 8.203125 15.1875 
L 8.203125 45.015625 
L 1.765625 45.015625 
L 1.765625 51.859375 
L 8.203125 51.859375 
L 8.203125 64.703125 
L 16.9375 69.96875 
L 16.9375 51.859375 
L 25.78125 51.859375 
L 25.78125 45.015625 
L 16.9375 45.015625 
L 16.9375 14.703125 
Q 16.9375 10.9375 17.40625 9.859375 
Q 17.875 8.796875 18.921875 8.15625 
Q 19.96875 7.515625 21.921875 7.515625 
Q 23.390625 7.515625 25.78125 7.859375 
" id="ArialMT-74"/>
      <path d="M 9.03125 41.84375 
L 9.03125 51.859375 
L 19.046875 51.859375 
L 19.046875 41.84375 
z
M 9.03125 0 
L 9.03125 10.015625 
L 19.046875 10.015625 
L 19.046875 0 
z
" id="ArialMT-3a"/>
      <path d="M 4.15625 18.75 
L 13.375 19.53125 
Q 14.40625 12.796875 18.140625 9.390625 
Q 21.875 6 27.15625 6 
Q 33.5 6 37.890625 10.78125 
Q 42.28125 15.578125 42.28125 23.484375 
Q 42.28125 31 38.0625 35.34375 
Q 33.84375 39.703125 27 39.703125 
Q 22.75 39.703125 19.328125 37.765625 
Q 15.921875 35.84375 13.96875 32.765625 
L 5.71875 33.84375 
L 12.640625 70.609375 
L 48.25 70.609375 
L 48.25 62.203125 
L 19.671875 62.203125 
L 15.828125 42.96875 
Q 22.265625 47.46875 29.34375 47.46875 
Q 38.71875 47.46875 45.15625 40.96875 
Q 51.609375 34.46875 51.609375 24.265625 
Q 51.609375 14.546875 45.953125 7.46875 
Q 39.0625 -1.21875 27.15625 -1.21875 
Q 17.390625 -1.21875 11.203125 4.25 
Q 5.03125 9.71875 4.15625 18.75 
" id="ArialMT-35"/>
      <path d="M 4.734375 62.203125 
L 4.734375 70.65625 
L 51.078125 70.65625 
L 51.078125 63.8125 
Q 44.234375 56.546875 37.515625 44.484375 
Q 30.8125 32.421875 27.15625 19.671875 
Q 24.515625 10.6875 23.78125 0 
L 14.75 0 
Q 14.890625 8.453125 18.0625 20.40625 
Q 21.234375 32.375 27.171875 43.484375 
Q 33.109375 54.59375 39.796875 62.203125 
z
" id="ArialMT-37"/>
     </defs>
     <g style="fill:#262626;" transform="translate(423.796875 55.7578125)scale(0.1 -0.1)">
      <use xlink:href="#ArialMT-6d"/>
      <use x="83.30078125" xlink:href="#ArialMT-65"/>
      <use x="138.916015625" xlink:href="#ArialMT-61"/>
      <use x="194.53125" xlink:href="#ArialMT-6e"/>
      <use x="250.146484375" xlink:href="#ArialMT-20"/>
      <use x="277.9296875" xlink:href="#ArialMT-74"/>
      <use x="305.712890625" xlink:href="#ArialMT-68"/>
      <use x="361.328125" xlink:href="#ArialMT-72"/>
      <use x="394.62890625" xlink:href="#ArialMT-65"/>
      <use x="450.244140625" xlink:href="#ArialMT-73"/>
      <use x="500.244140625" xlink:href="#ArialMT-68"/>
      <use x="555.859375" xlink:href="#ArialMT-6f"/>
      <use x="611.474609375" xlink:href="#ArialMT-6c"/>
      <use x="633.69140625" xlink:href="#ArialMT-64"/>
      <use x="689.306640625" xlink:href="#ArialMT-3a"/>
      <use x="717.08984375" xlink:href="#ArialMT-20"/>
      <use x="744.873046875" xlink:href="#ArialMT-37"/>
      <use x="800.48828125" xlink:href="#ArialMT-35"/>
     </g>
    </g>
    <g id="line2d_26">
     <path d="M 395.796875 66.403125 
L 415.796875 66.403125 
" style="fill:none;opacity:0.4;stroke:#2c5ebf;stroke-linecap:round;stroke-width:2.0;"/>
    </g>
    <g id="line2d_27"/>
    <g id="text_15">
     <!-- mouse 1: 52 -->
     <g style="fill:#262626;" transform="translate(423.796875 69.903125)scale(0.1 -0.1)">
      <use xlink:href="#ArialMT-6d"/>
      <use x="83.30078125" xlink:href="#ArialMT-6f"/>
      <use x="138.916015625" xlink:href="#ArialMT-75"/>
      <use x="194.53125" xlink:href="#ArialMT-73"/>
      <use x="244.53125" xlink:href="#ArialMT-65"/>
      <use x="300.146484375" xlink:href="#ArialMT-20"/>
      <use x="327.9296875" xlink:href="#ArialMT-31"/>
      <use x="383.544921875" xlink:href="#ArialMT-3a"/>
      <use x="411.328125" xlink:href="#ArialMT-20"/>
      <use x="439.111328125" xlink:href="#ArialMT-35"/>
      <use x="494.7265625" xlink:href="#ArialMT-32"/>
     </g>
    </g>
    <g id="line2d_28">
     <path d="M 395.796875 80.548437 
L 415.796875 80.548437 
" style="fill:none;opacity:0.4;stroke:#ff1313;stroke-linecap:round;stroke-width:2.0;"/>
    </g>
    <g id="line2d_29"/>
    <g id="text_16">
     <!-- mouse 2: 161 -->
     <g style="fill:#262626;" transform="translate(423.796875 84.0484375)scale(0.1 -0.1)">
      <use xlink:href="#ArialMT-6d"/>
      <use x="83.30078125" xlink:href="#ArialMT-6f"/>
      <use x="138.916015625" xlink:href="#ArialMT-75"/>
      <use x="194.53125" xlink:href="#ArialMT-73"/>
      <use x="244.53125" xlink:href="#ArialMT-65"/>
      <use x="300.146484375" xlink:href="#ArialMT-20"/>
      <use x="327.9296875" xlink:href="#ArialMT-32"/>
      <use x="383.544921875" xlink:href="#ArialMT-3a"/>
      <use x="411.328125" xlink:href="#ArialMT-20"/>
      <use x="439.111328125" xlink:href="#ArialMT-31"/>
      <use x="494.7265625" xlink:href="#ArialMT-36"/>
      <use x="550.341796875" xlink:href="#ArialMT-31"/>
     </g>
    </g>
    <g id="line2d_30">
     <path d="M 395.796875 94.69375 
L 415.796875 94.69375 
" style="fill:none;opacity:0.4;stroke:#f7b02a;stroke-linecap:round;stroke-width:2.0;"/>
    </g>
    <g id="line2d_31"/>
    <g id="text_17">
     <!-- mouse 3: 105 -->
     <defs>
      <path d="M 4.203125 18.890625 
L 12.984375 20.0625 
Q 14.5 12.59375 18.140625 9.296875 
Q 21.78125 6 27 6 
Q 33.203125 6 37.46875 10.296875 
Q 41.75 14.59375 41.75 20.953125 
Q 41.75 27 37.796875 30.921875 
Q 33.84375 34.859375 27.734375 34.859375 
Q 25.25 34.859375 21.53125 33.890625 
L 22.515625 41.609375 
Q 23.390625 41.5 23.921875 41.5 
Q 29.546875 41.5 34.03125 44.421875 
Q 38.53125 47.359375 38.53125 53.46875 
Q 38.53125 58.296875 35.25 61.46875 
Q 31.984375 64.65625 26.8125 64.65625 
Q 21.6875 64.65625 18.265625 61.421875 
Q 14.84375 58.203125 13.875 51.765625 
L 5.078125 53.328125 
Q 6.6875 62.15625 12.390625 67.015625 
Q 18.109375 71.875 26.609375 71.875 
Q 32.46875 71.875 37.390625 69.359375 
Q 42.328125 66.84375 44.9375 62.5 
Q 47.5625 58.15625 47.5625 53.265625 
Q 47.5625 48.640625 45.0625 44.828125 
Q 42.578125 41.015625 37.703125 38.765625 
Q 44.046875 37.3125 47.5625 32.6875 
Q 51.078125 28.078125 51.078125 21.140625 
Q 51.078125 11.765625 44.234375 5.25 
Q 37.40625 -1.265625 26.953125 -1.265625 
Q 17.53125 -1.265625 11.296875 4.34375 
Q 5.078125 9.96875 4.203125 18.890625 
" id="ArialMT-33"/>
     </defs>
     <g style="fill:#262626;" transform="translate(423.796875 98.19375)scale(0.1 -0.1)">
      <use xlink:href="#ArialMT-6d"/>
      <use x="83.30078125" xlink:href="#ArialMT-6f"/>
      <use x="138.916015625" xlink:href="#ArialMT-75"/>
      <use x="194.53125" xlink:href="#ArialMT-73"/>
      <use x="244.53125" xlink:href="#ArialMT-65"/>
      <use x="300.146484375" xlink:href="#ArialMT-20"/>
      <use x="327.9296875" xlink:href="#ArialMT-33"/>
      <use x="383.544921875" xlink:href="#ArialMT-3a"/>
      <use x="411.328125" xlink:href="#ArialMT-20"/>
      <use x="439.111328125" xlink:href="#ArialMT-31"/>
      <use x="494.7265625" xlink:href="#ArialMT-30"/>
      <use x="550.341796875" xlink:href="#ArialMT-35"/>
     </g>
    </g>
    <g id="line2d_32">
     <path d="M 395.796875 108.839063 
L 415.796875 108.839063 
" style="fill:none;opacity:0.4;stroke:#02b72a;stroke-linecap:round;stroke-width:2.0;"/>
    </g>
    <g id="line2d_33"/>
    <g id="text_18">
     <!-- mouse 4: 48 -->
     <g style="fill:#262626;" transform="translate(423.796875 112.3390625)scale(0.1 -0.1)">
      <use xlink:href="#ArialMT-6d"/>
      <use x="83.30078125" xlink:href="#ArialMT-6f"/>
      <use x="138.916015625" xlink:href="#ArialMT-75"/>
      <use x="194.53125" xlink:href="#ArialMT-73"/>
      <use x="244.53125" xlink:href="#ArialMT-65"/>
      <use x="300.146484375" xlink:href="#ArialMT-20"/>
      <use x="327.9296875" xlink:href="#ArialMT-34"/>
      <use x="383.544921875" xlink:href="#ArialMT-3a"/>
      <use x="411.328125" xlink:href="#ArialMT-20"/>
      <use x="439.111328125" xlink:href="#ArialMT-34"/>
      <use x="494.7265625" xlink:href="#ArialMT-38"/>
     </g>
    </g>
    <g id="line2d_34">
     <path d="M 395.796875 122.984375 
L 415.796875 122.984375 
" style="fill:none;opacity:0.4;stroke:#009e9e;stroke-linecap:round;stroke-width:2.0;"/>
    </g>
    <g id="line2d_35"/>
    <g id="text_19">
     <!-- mouse 5: 1 -->
     <g style="fill:#262626;" transform="translate(423.796875 126.484375)scale(0.1 -0.1)">
      <use xlink:href="#ArialMT-6d"/>
      <use x="83.30078125" xlink:href="#ArialMT-6f"/>
      <use x="138.916015625" xlink:href="#ArialMT-75"/>
      <use x="194.53125" xlink:href="#ArialMT-73"/>
      <use x="244.53125" xlink:href="#ArialMT-65"/>
      <use x="300.146484375" xlink:href="#ArialMT-20"/>
      <use x="327.9296875" xlink:href="#ArialMT-35"/>
      <use x="383.544921875" xlink:href="#ArialMT-3a"/>
      <use x="411.328125" xlink:href="#ArialMT-20"/>
      <use x="439.111328125" xlink:href="#ArialMT-31"/>
     </g>
    </g>
    <g id="line2d_36">
     <path d="M 395.796875 137.129687 
L 415.796875 137.129687 
" style="fill:none;opacity:0.4;stroke:#1d1aa9;stroke-linecap:round;stroke-width:2.0;"/>
    </g>
    <g id="line2d_37"/>
    <g id="text_20">
     <!-- mouse 6: 87 -->
     <g style="fill:#262626;" transform="translate(423.796875 140.6296875)scale(0.1 -0.1)">
      <use xlink:href="#ArialMT-6d"/>
      <use x="83.30078125" xlink:href="#ArialMT-6f"/>
      <use x="138.916015625" xlink:href="#ArialMT-75"/>
      <use x="194.53125" xlink:href="#ArialMT-73"/>
      <use x="244.53125" xlink:href="#ArialMT-65"/>
      <use x="300.146484375" xlink:href="#ArialMT-20"/>
      <use x="327.9296875" xlink:href="#ArialMT-36"/>
      <use x="383.544921875" xlink:href="#ArialMT-3a"/>
      <use x="411.328125" xlink:href="#ArialMT-20"/>
      <use x="439.111328125" xlink:href="#ArialMT-38"/>
      <use x="494.7265625" xlink:href="#ArialMT-37"/>
     </g>
    </g>
   </g>
  </g>
 </g>
 <defs>
  <clipPath id="p822c327c63">
   <rect height="306.9" width="446.4" x="72.0" y="39.6"/>
  </clipPath>
 </defs>
</svg>
