<?xml version="1.0" encoding="utf-8" standalone="no"?>
<!DOCTYPE svg PUBLIC "-//W3C//DTD SVG 1.1//EN"
  "http://www.w3.org/Graphics/SVG/1.1/DTD/svg11.dtd">
<!-- Created with matplotlib (http://matplotlib.org/) -->
<svg height="396pt" version="1.1" viewBox="0 0 576 396" width="576pt" xmlns="http://www.w3.org/2000/svg" xmlns:xlink="http://www.w3.org/1999/xlink">
 <defs>
  <style type="text/css">
*{stroke-linecap:butt;stroke-linejoin:round;stroke-miterlimit:100000;}
  </style>
 </defs>
 <g id="figure_1">
  <g id="patch_1">
   <path d="M 0 396 
L 576 396 
L 576 0 
L 0 0 
z
" style="fill:#ffffff;"/>
  </g>
  <g id="axes_1">
   <g id="patch_2">
    <path d="M 72 346.5 
L 518.4 346.5 
L 518.4 39.6 
L 72 39.6 
z
" style="fill:#ffffff;"/>
   </g>
   <g id="matplotlib.axis_1">
    <g id="xtick_1">
     <g id="line2d_1">
      <defs>
       <path d="M 0 0 
L 0 5 
" id="m98846653e7" style="stroke:#262626;"/>
      </defs>
      <g>
       <use style="fill:#262626;stroke:#262626;" x="76.0841720037" xlink:href="#m98846653e7" y="346.5"/>
      </g>
     </g>
     <g id="text_1">
      <!-- 0 -->
      <defs>
       <path d="M 4.15625 35.296875 
Q 4.15625 48 6.765625 55.734375 
Q 9.375 63.484375 14.515625 67.671875 
Q 19.671875 71.875 27.484375 71.875 
Q 33.25 71.875 37.59375 69.546875 
Q 41.9375 67.234375 44.765625 62.859375 
Q 47.609375 58.5 49.21875 52.21875 
Q 50.828125 45.953125 50.828125 35.296875 
Q 50.828125 22.703125 48.234375 14.96875 
Q 45.65625 7.234375 40.5 3 
Q 35.359375 -1.21875 27.484375 -1.21875 
Q 17.140625 -1.21875 11.234375 6.203125 
Q 4.15625 15.140625 4.15625 35.296875 
M 13.1875 35.296875 
Q 13.1875 17.671875 17.3125 11.828125 
Q 21.4375 6 27.484375 6 
Q 33.546875 6 37.671875 11.859375 
Q 41.796875 17.71875 41.796875 35.296875 
Q 41.796875 52.984375 37.671875 58.78125 
Q 33.546875 64.59375 27.390625 64.59375 
Q 21.34375 64.59375 17.71875 59.46875 
Q 13.1875 52.9375 13.1875 35.296875 
" id="ArialMT-30"/>
      </defs>
      <g style="fill:#262626;" transform="translate(73.3037032537 360.6578125)scale(0.1 -0.1)">
       <use xlink:href="#ArialMT-30"/>
      </g>
     </g>
    </g>
    <g id="xtick_2">
     <g id="line2d_2">
      <g>
       <use style="fill:#262626;stroke:#262626;" x="157.767612077" xlink:href="#m98846653e7" y="346.5"/>
      </g>
     </g>
     <g id="text_2">
      <!-- 200 -->
      <defs>
       <path d="M 50.34375 8.453125 
L 50.34375 0 
L 3.03125 0 
Q 2.9375 3.171875 4.046875 6.109375 
Q 5.859375 10.9375 9.828125 15.625 
Q 13.8125 20.3125 21.34375 26.46875 
Q 33.015625 36.03125 37.109375 41.625 
Q 41.21875 47.21875 41.21875 52.203125 
Q 41.21875 57.421875 37.46875 61 
Q 33.734375 64.59375 27.734375 64.59375 
Q 21.390625 64.59375 17.578125 60.78125 
Q 13.765625 56.984375 13.71875 50.25 
L 4.6875 51.171875 
Q 5.609375 61.28125 11.65625 66.578125 
Q 17.71875 71.875 27.9375 71.875 
Q 38.234375 71.875 44.234375 66.15625 
Q 50.25 60.453125 50.25 52 
Q 50.25 47.703125 48.484375 43.546875 
Q 46.734375 39.40625 42.65625 34.8125 
Q 38.578125 30.21875 29.109375 22.21875 
Q 21.1875 15.578125 18.9375 13.203125 
Q 16.703125 10.84375 15.234375 8.453125 
z
" id="ArialMT-32"/>
      </defs>
      <g style="fill:#262626;" transform="translate(149.426205827 360.6578125)scale(0.1 -0.1)">
       <use xlink:href="#ArialMT-32"/>
       <use x="55.615234375" xlink:href="#ArialMT-30"/>
       <use x="111.23046875" xlink:href="#ArialMT-30"/>
      </g>
     </g>
    </g>
    <g id="xtick_3">
     <g id="line2d_3">
      <g>
       <use style="fill:#262626;stroke:#262626;" x="239.45105215" xlink:href="#m98846653e7" y="346.5"/>
      </g>
     </g>
     <g id="text_3">
      <!-- 400 -->
      <defs>
       <path d="M 32.328125 0 
L 32.328125 17.140625 
L 1.265625 17.140625 
L 1.265625 25.203125 
L 33.9375 71.578125 
L 41.109375 71.578125 
L 41.109375 25.203125 
L 50.78125 25.203125 
L 50.78125 17.140625 
L 41.109375 17.140625 
L 41.109375 0 
z
M 32.328125 25.203125 
L 32.328125 57.46875 
L 9.90625 25.203125 
z
" id="ArialMT-34"/>
      </defs>
      <g style="fill:#262626;" transform="translate(231.1096459 360.6578125)scale(0.1 -0.1)">
       <use xlink:href="#ArialMT-34"/>
       <use x="55.615234375" xlink:href="#ArialMT-30"/>
       <use x="111.23046875" xlink:href="#ArialMT-30"/>
      </g>
     </g>
    </g>
    <g id="xtick_4">
     <g id="line2d_4">
      <g>
       <use style="fill:#262626;stroke:#262626;" x="321.134492223" xlink:href="#m98846653e7" y="346.5"/>
      </g>
     </g>
     <g id="text_4">
      <!-- 600 -->
      <defs>
       <path d="M 49.75 54.046875 
L 41.015625 53.375 
Q 39.84375 58.546875 37.703125 60.890625 
Q 34.125 64.65625 28.90625 64.65625 
Q 24.703125 64.65625 21.53125 62.3125 
Q 17.390625 59.28125 14.984375 53.46875 
Q 12.59375 47.65625 12.5 36.921875 
Q 15.671875 41.75 20.265625 44.09375 
Q 24.859375 46.4375 29.890625 46.4375 
Q 38.671875 46.4375 44.84375 39.96875 
Q 51.03125 33.5 51.03125 23.25 
Q 51.03125 16.5 48.125 10.71875 
Q 45.21875 4.9375 40.140625 1.859375 
Q 35.0625 -1.21875 28.609375 -1.21875 
Q 17.625 -1.21875 10.6875 6.859375 
Q 3.765625 14.9375 3.765625 33.5 
Q 3.765625 54.25 11.421875 63.671875 
Q 18.109375 71.875 29.4375 71.875 
Q 37.890625 71.875 43.28125 67.140625 
Q 48.6875 62.40625 49.75 54.046875 
M 13.875 23.1875 
Q 13.875 18.65625 15.796875 14.5 
Q 17.71875 10.359375 21.1875 8.171875 
Q 24.65625 6 28.46875 6 
Q 34.03125 6 38.03125 10.484375 
Q 42.046875 14.984375 42.046875 22.703125 
Q 42.046875 30.125 38.078125 34.390625 
Q 34.125 38.671875 28.125 38.671875 
Q 22.171875 38.671875 18.015625 34.390625 
Q 13.875 30.125 13.875 23.1875 
" id="ArialMT-36"/>
      </defs>
      <g style="fill:#262626;" transform="translate(312.793085973 360.6578125)scale(0.1 -0.1)">
       <use xlink:href="#ArialMT-36"/>
       <use x="55.615234375" xlink:href="#ArialMT-30"/>
       <use x="111.23046875" xlink:href="#ArialMT-30"/>
      </g>
     </g>
    </g>
    <g id="xtick_5">
     <g id="line2d_5">
      <g>
       <use style="fill:#262626;stroke:#262626;" x="402.817932296" xlink:href="#m98846653e7" y="346.5"/>
      </g>
     </g>
     <g id="text_5">
      <!-- 800 -->
      <defs>
       <path d="M 17.671875 38.8125 
Q 12.203125 40.828125 9.5625 44.53125 
Q 6.9375 48.25 6.9375 53.421875 
Q 6.9375 61.234375 12.546875 66.546875 
Q 18.171875 71.875 27.484375 71.875 
Q 36.859375 71.875 42.578125 66.421875 
Q 48.296875 60.984375 48.296875 53.171875 
Q 48.296875 48.1875 45.671875 44.5 
Q 43.0625 40.828125 37.75 38.8125 
Q 44.34375 36.671875 47.78125 31.875 
Q 51.21875 27.09375 51.21875 20.453125 
Q 51.21875 11.28125 44.71875 5.03125 
Q 38.234375 -1.21875 27.640625 -1.21875 
Q 17.046875 -1.21875 10.546875 5.046875 
Q 4.046875 11.328125 4.046875 20.703125 
Q 4.046875 27.6875 7.59375 32.390625 
Q 11.140625 37.109375 17.671875 38.8125 
M 15.921875 53.71875 
Q 15.921875 48.640625 19.1875 45.40625 
Q 22.46875 42.1875 27.6875 42.1875 
Q 32.765625 42.1875 36.015625 45.375 
Q 39.265625 48.578125 39.265625 53.21875 
Q 39.265625 58.0625 35.90625 61.359375 
Q 32.5625 64.65625 27.59375 64.65625 
Q 22.5625 64.65625 19.234375 61.421875 
Q 15.921875 58.203125 15.921875 53.71875 
M 13.09375 20.65625 
Q 13.09375 16.890625 14.875 13.375 
Q 16.65625 9.859375 20.171875 7.921875 
Q 23.6875 6 27.734375 6 
Q 34.03125 6 38.125 10.046875 
Q 42.234375 14.109375 42.234375 20.359375 
Q 42.234375 26.703125 38.015625 30.859375 
Q 33.796875 35.015625 27.4375 35.015625 
Q 21.234375 35.015625 17.15625 30.90625 
Q 13.09375 26.8125 13.09375 20.65625 
" id="ArialMT-38"/>
      </defs>
      <g style="fill:#262626;" transform="translate(394.476526046 360.6578125)scale(0.1 -0.1)">
       <use xlink:href="#ArialMT-38"/>
       <use x="55.615234375" xlink:href="#ArialMT-30"/>
       <use x="111.23046875" xlink:href="#ArialMT-30"/>
      </g>
     </g>
    </g>
    <g id="xtick_6">
     <g id="line2d_6">
      <g>
       <use style="fill:#262626;stroke:#262626;" x="484.50137237" xlink:href="#m98846653e7" y="346.5"/>
      </g>
     </g>
     <g id="text_6">
      <!-- 1000 -->
      <defs>
       <path d="M 37.25 0 
L 28.46875 0 
L 28.46875 56 
Q 25.296875 52.984375 20.140625 49.953125 
Q 14.984375 46.921875 10.890625 45.40625 
L 10.890625 53.90625 
Q 18.265625 57.375 23.78125 62.296875 
Q 29.296875 67.234375 31.59375 71.875 
L 37.25 71.875 
z
" id="ArialMT-31"/>
      </defs>
      <g style="fill:#262626;" transform="translate(473.37949737 360.6578125)scale(0.1 -0.1)">
       <use xlink:href="#ArialMT-31"/>
       <use x="55.615234375" xlink:href="#ArialMT-30"/>
       <use x="111.23046875" xlink:href="#ArialMT-30"/>
       <use x="166.845703125" xlink:href="#ArialMT-30"/>
      </g>
     </g>
    </g>
    <g id="text_7">
     <!-- barcode, rank-ordered -->
     <defs>
      <path d="M 40.4375 19 
L 49.078125 17.875 
Q 47.65625 8.9375 41.8125 3.875 
Q 35.984375 -1.171875 27.484375 -1.171875 
Q 16.84375 -1.171875 10.375 5.78125 
Q 3.90625 12.75 3.90625 25.734375 
Q 3.90625 34.125 6.6875 40.421875 
Q 9.46875 46.734375 15.15625 49.875 
Q 20.84375 53.03125 27.546875 53.03125 
Q 35.984375 53.03125 41.359375 48.75 
Q 46.734375 44.484375 48.25 36.625 
L 39.703125 35.296875 
Q 38.484375 40.53125 35.375 43.15625 
Q 32.28125 45.796875 27.875 45.796875 
Q 21.234375 45.796875 17.078125 41.03125 
Q 12.9375 36.28125 12.9375 25.984375 
Q 12.9375 15.53125 16.9375 10.796875 
Q 20.953125 6.0625 27.390625 6.0625 
Q 32.5625 6.0625 36.03125 9.234375 
Q 39.5 12.40625 40.4375 19 
" id="ArialMT-63"/>
      <path d="M 14.703125 0 
L 6.546875 0 
L 6.546875 71.578125 
L 15.328125 71.578125 
L 15.328125 46.046875 
Q 20.90625 53.03125 29.546875 53.03125 
Q 34.328125 53.03125 38.59375 51.09375 
Q 42.875 49.171875 45.625 45.671875 
Q 48.390625 42.1875 49.953125 37.25 
Q 51.515625 32.328125 51.515625 26.703125 
Q 51.515625 13.375 44.921875 6.09375 
Q 38.328125 -1.171875 29.109375 -1.171875 
Q 19.921875 -1.171875 14.703125 6.5 
z
M 14.59375 26.3125 
Q 14.59375 17 17.140625 12.84375 
Q 21.296875 6.0625 28.375 6.0625 
Q 34.125 6.0625 38.328125 11.0625 
Q 42.53125 16.0625 42.53125 25.984375 
Q 42.53125 36.140625 38.5 40.96875 
Q 34.46875 45.796875 28.765625 45.796875 
Q 23 45.796875 18.796875 40.796875 
Q 14.59375 35.796875 14.59375 26.3125 
" id="ArialMT-62"/>
      <path d="M 40.4375 6.390625 
Q 35.546875 2.25 31.03125 0.53125 
Q 26.515625 -1.171875 21.34375 -1.171875 
Q 12.796875 -1.171875 8.203125 3 
Q 3.609375 7.171875 3.609375 13.671875 
Q 3.609375 17.484375 5.34375 20.625 
Q 7.078125 23.78125 9.890625 25.6875 
Q 12.703125 27.59375 16.21875 28.5625 
Q 18.796875 29.25 24.03125 29.890625 
Q 34.671875 31.15625 39.703125 32.90625 
Q 39.75 34.71875 39.75 35.203125 
Q 39.75 40.578125 37.25 42.78125 
Q 33.890625 45.75 27.25 45.75 
Q 21.046875 45.75 18.09375 43.578125 
Q 15.140625 41.40625 13.71875 35.890625 
L 5.125 37.0625 
Q 6.296875 42.578125 8.984375 45.96875 
Q 11.671875 49.359375 16.75 51.1875 
Q 21.828125 53.03125 28.515625 53.03125 
Q 35.15625 53.03125 39.296875 51.46875 
Q 43.453125 49.90625 45.40625 47.53125 
Q 47.359375 45.171875 48.140625 41.546875 
Q 48.578125 39.3125 48.578125 33.453125 
L 48.578125 21.734375 
Q 48.578125 9.46875 49.140625 6.21875 
Q 49.703125 2.984375 51.375 0 
L 42.1875 0 
Q 40.828125 2.734375 40.4375 6.390625 
M 39.703125 26.03125 
Q 34.90625 24.078125 25.34375 22.703125 
Q 19.921875 21.921875 17.671875 20.9375 
Q 15.4375 19.96875 14.203125 18.09375 
Q 12.984375 16.21875 12.984375 13.921875 
Q 12.984375 10.40625 15.640625 8.0625 
Q 18.3125 5.71875 23.4375 5.71875 
Q 28.515625 5.71875 32.46875 7.9375 
Q 36.421875 10.15625 38.28125 14.015625 
Q 39.703125 17 39.703125 22.796875 
z
" id="ArialMT-61"/>
      <path d="M 42.09375 16.703125 
L 51.171875 15.578125 
Q 49.03125 7.625 43.21875 3.21875 
Q 37.40625 -1.171875 28.375 -1.171875 
Q 17 -1.171875 10.328125 5.828125 
Q 3.65625 12.84375 3.65625 25.484375 
Q 3.65625 38.578125 10.390625 45.796875 
Q 17.140625 53.03125 27.875 53.03125 
Q 38.28125 53.03125 44.875 45.953125 
Q 51.46875 38.875 51.46875 26.03125 
Q 51.46875 25.25 51.421875 23.6875 
L 12.75 23.6875 
Q 13.234375 15.140625 17.578125 10.59375 
Q 21.921875 6.0625 28.421875 6.0625 
Q 33.25 6.0625 36.671875 8.59375 
Q 40.09375 11.140625 42.09375 16.703125 
M 13.234375 30.90625 
L 42.1875 30.90625 
Q 41.609375 37.453125 38.875 40.71875 
Q 34.671875 45.796875 27.984375 45.796875 
Q 21.921875 45.796875 17.796875 41.75 
Q 13.671875 37.703125 13.234375 30.90625 
" id="ArialMT-65"/>
      <path d="M 40.234375 0 
L 40.234375 6.546875 
Q 35.296875 -1.171875 25.734375 -1.171875 
Q 19.53125 -1.171875 14.328125 2.25 
Q 9.125 5.671875 6.265625 11.796875 
Q 3.421875 17.921875 3.421875 25.875 
Q 3.421875 33.640625 6 39.96875 
Q 8.59375 46.296875 13.765625 49.65625 
Q 18.953125 53.03125 25.34375 53.03125 
Q 30.03125 53.03125 33.6875 51.046875 
Q 37.359375 49.078125 39.65625 45.90625 
L 39.65625 71.578125 
L 48.390625 71.578125 
L 48.390625 0 
z
M 12.453125 25.875 
Q 12.453125 15.921875 16.640625 10.984375 
Q 20.84375 6.0625 26.5625 6.0625 
Q 32.328125 6.0625 36.34375 10.765625 
Q 40.375 15.484375 40.375 25.140625 
Q 40.375 35.796875 36.265625 40.765625 
Q 32.171875 45.75 26.171875 45.75 
Q 20.3125 45.75 16.375 40.96875 
Q 12.453125 36.1875 12.453125 25.875 
" id="ArialMT-64"/>
      <path d="M 3.171875 21.484375 
L 3.171875 30.328125 
L 30.171875 30.328125 
L 30.171875 21.484375 
z
" id="ArialMT-2d"/>
      <path d="M 8.890625 0 
L 8.890625 10.015625 
L 18.890625 10.015625 
L 18.890625 0 
Q 18.890625 -5.515625 16.9375 -8.90625 
Q 14.984375 -12.3125 10.75 -14.15625 
L 8.296875 -10.40625 
Q 11.078125 -9.1875 12.390625 -6.8125 
Q 13.71875 -4.4375 13.875 0 
z
" id="ArialMT-2c"/>
      <path d="M 6.5 0 
L 6.5 51.859375 
L 14.40625 51.859375 
L 14.40625 44 
Q 17.4375 49.515625 20 51.265625 
Q 22.5625 53.03125 25.640625 53.03125 
Q 30.078125 53.03125 34.671875 50.203125 
L 31.640625 42.046875 
Q 28.421875 43.953125 25.203125 43.953125 
Q 22.3125 43.953125 20.015625 42.21875 
Q 17.71875 40.484375 16.75 37.40625 
Q 15.28125 32.71875 15.28125 27.15625 
L 15.28125 0 
z
" id="ArialMT-72"/>
      <path d="M 6.640625 0 
L 6.640625 71.578125 
L 15.4375 71.578125 
L 15.4375 30.765625 
L 36.234375 51.859375 
L 47.609375 51.859375 
L 27.78125 32.625 
L 49.609375 0 
L 38.765625 0 
L 21.625 26.515625 
L 15.4375 20.5625 
L 15.4375 0 
z
" id="ArialMT-6b"/>
      <path d="M 3.328125 25.921875 
Q 3.328125 40.328125 11.328125 47.265625 
Q 18.015625 53.03125 27.640625 53.03125 
Q 38.328125 53.03125 45.109375 46.015625 
Q 51.90625 39.015625 51.90625 26.65625 
Q 51.90625 16.65625 48.90625 10.90625 
Q 45.90625 5.171875 40.15625 2 
Q 34.421875 -1.171875 27.640625 -1.171875 
Q 16.75 -1.171875 10.03125 5.8125 
Q 3.328125 12.796875 3.328125 25.921875 
M 12.359375 25.921875 
Q 12.359375 15.96875 16.703125 11.015625 
Q 21.046875 6.0625 27.640625 6.0625 
Q 34.1875 6.0625 38.53125 11.03125 
Q 42.875 16.015625 42.875 26.21875 
Q 42.875 35.84375 38.5 40.796875 
Q 34.125 45.75 27.640625 45.75 
Q 21.046875 45.75 16.703125 40.8125 
Q 12.359375 35.890625 12.359375 25.921875 
" id="ArialMT-6f"/>
      <path d="M 6.59375 0 
L 6.59375 51.859375 
L 14.5 51.859375 
L 14.5 44.484375 
Q 20.21875 53.03125 31 53.03125 
Q 35.6875 53.03125 39.625 51.34375 
Q 43.5625 49.65625 45.515625 46.921875 
Q 47.46875 44.1875 48.25 40.4375 
Q 48.734375 37.984375 48.734375 31.890625 
L 48.734375 0 
L 39.9375 0 
L 39.9375 31.546875 
Q 39.9375 36.921875 38.90625 39.578125 
Q 37.890625 42.234375 35.28125 43.8125 
Q 32.671875 45.40625 29.15625 45.40625 
Q 23.53125 45.40625 19.453125 41.84375 
Q 15.375 38.28125 15.375 28.328125 
L 15.375 0 
z
" id="ArialMT-6e"/>
      <path id="ArialMT-20"/>
     </defs>
     <g style="fill:#262626;" transform="translate(240.785234375 375.51890625)scale(0.11 -0.11)">
      <use xlink:href="#ArialMT-62"/>
      <use x="55.615234375" xlink:href="#ArialMT-61"/>
      <use x="111.23046875" xlink:href="#ArialMT-72"/>
      <use x="144.53125" xlink:href="#ArialMT-63"/>
      <use x="194.53125" xlink:href="#ArialMT-6f"/>
      <use x="250.146484375" xlink:href="#ArialMT-64"/>
      <use x="305.76171875" xlink:href="#ArialMT-65"/>
      <use x="361.376953125" xlink:href="#ArialMT-2c"/>
      <use x="389.16015625" xlink:href="#ArialMT-20"/>
      <use x="416.943359375" xlink:href="#ArialMT-72"/>
      <use x="450.244140625" xlink:href="#ArialMT-61"/>
      <use x="505.859375" xlink:href="#ArialMT-6e"/>
      <use x="561.474609375" xlink:href="#ArialMT-6b"/>
      <use x="611.474609375" xlink:href="#ArialMT-2d"/>
      <use x="644.775390625" xlink:href="#ArialMT-6f"/>
      <use x="700.390625" xlink:href="#ArialMT-72"/>
      <use x="733.69140625" xlink:href="#ArialMT-64"/>
      <use x="789.306640625" xlink:href="#ArialMT-65"/>
      <use x="844.921875" xlink:href="#ArialMT-72"/>
      <use x="878.22265625" xlink:href="#ArialMT-65"/>
      <use x="933.837890625" xlink:href="#ArialMT-64"/>
     </g>
    </g>
   </g>
   <g id="matplotlib.axis_2">
    <g id="ytick_1">
     <g id="line2d_7">
      <defs>
       <path d="M 0 0 
L -5 0 
" id="mc3f7e8bf86" style="stroke:#262626;"/>
      </defs>
      <g>
       <use style="fill:#262626;stroke:#262626;" x="72.0" xlink:href="#mc3f7e8bf86" y="346.5"/>
      </g>
     </g>
     <g id="text_8">
      <!-- 1 -->
      <g style="fill:#262626;" transform="translate(59.4390625 349.08515625)scale(0.1 -0.1)">
       <use xlink:href="#ArialMT-31"/>
      </g>
     </g>
    </g>
    <g id="ytick_2">
     <g id="line2d_8">
      <g>
       <use style="fill:#262626;stroke:#262626;" x="72.0" xlink:href="#mc3f7e8bf86" y="275.158907806"/>
      </g>
     </g>
     <g id="text_9">
      <!-- 10 -->
      <g style="fill:#262626;" transform="translate(53.878125 277.744064056)scale(0.1 -0.1)">
       <use xlink:href="#ArialMT-31"/>
       <use x="55.615234375" xlink:href="#ArialMT-30"/>
      </g>
     </g>
    </g>
    <g id="ytick_3">
     <g id="line2d_9">
      <g>
       <use style="fill:#262626;stroke:#262626;" x="72.0" xlink:href="#mc3f7e8bf86" y="203.817815613"/>
      </g>
     </g>
     <g id="text_10">
      <!-- 100 -->
      <g style="fill:#262626;" transform="translate(48.3171875 206.402971863)scale(0.1 -0.1)">
       <use xlink:href="#ArialMT-31"/>
       <use x="55.615234375" xlink:href="#ArialMT-30"/>
       <use x="111.23046875" xlink:href="#ArialMT-30"/>
      </g>
     </g>
    </g>
    <g id="ytick_4">
     <g id="line2d_10">
      <g>
       <use style="fill:#262626;stroke:#262626;" x="72.0" xlink:href="#mc3f7e8bf86" y="132.476723419"/>
      </g>
     </g>
     <g id="text_11">
      <!-- 1000 -->
      <g style="fill:#262626;" transform="translate(42.75625 135.061879669)scale(0.1 -0.1)">
       <use xlink:href="#ArialMT-31"/>
       <use x="55.615234375" xlink:href="#ArialMT-30"/>
       <use x="111.23046875" xlink:href="#ArialMT-30"/>
       <use x="166.845703125" xlink:href="#ArialMT-30"/>
      </g>
     </g>
    </g>
    <g id="ytick_5">
     <g id="line2d_11">
      <g>
       <use style="fill:#262626;stroke:#262626;" x="72.0" xlink:href="#mc3f7e8bf86" y="61.1356312254"/>
      </g>
     </g>
     <g id="text_12">
      <!-- 10000 -->
      <g style="fill:#262626;" transform="translate(37.1953125 63.7207874754)scale(0.1 -0.1)">
       <use xlink:href="#ArialMT-31"/>
       <use x="55.615234375" xlink:href="#ArialMT-30"/>
       <use x="111.23046875" xlink:href="#ArialMT-30"/>
       <use x="166.845703125" xlink:href="#ArialMT-30"/>
       <use x="222.4609375" xlink:href="#ArialMT-30"/>
      </g>
     </g>
    </g>
    <g id="text_13">
     <!-- log10 abundance (# molecules) -->
     <defs>
      <path d="M 4.984375 -4.296875 
L 13.53125 -5.5625 
Q 14.0625 -9.515625 16.5 -11.328125 
Q 19.78125 -13.765625 25.4375 -13.765625 
Q 31.546875 -13.765625 34.859375 -11.328125 
Q 38.1875 -8.890625 39.359375 -4.5 
Q 40.046875 -1.8125 39.984375 6.78125 
Q 34.234375 0 25.640625 0 
Q 14.9375 0 9.078125 7.71875 
Q 3.21875 15.4375 3.21875 26.21875 
Q 3.21875 33.640625 5.90625 39.90625 
Q 8.59375 46.1875 13.6875 49.609375 
Q 18.796875 53.03125 25.6875 53.03125 
Q 34.859375 53.03125 40.828125 45.609375 
L 40.828125 51.859375 
L 48.921875 51.859375 
L 48.921875 7.03125 
Q 48.921875 -5.078125 46.453125 -10.125 
Q 44 -15.1875 38.640625 -18.109375 
Q 33.296875 -21.046875 25.484375 -21.046875 
Q 16.21875 -21.046875 10.5 -16.875 
Q 4.78125 -12.703125 4.984375 -4.296875 
M 12.25 26.859375 
Q 12.25 16.65625 16.296875 11.96875 
Q 20.359375 7.28125 26.46875 7.28125 
Q 32.515625 7.28125 36.609375 11.9375 
Q 40.71875 16.609375 40.71875 26.5625 
Q 40.71875 36.078125 36.5 40.90625 
Q 32.28125 45.75 26.3125 45.75 
Q 20.453125 45.75 16.34375 40.984375 
Q 12.25 36.234375 12.25 26.859375 
" id="ArialMT-67"/>
      <path d="M 40.578125 0 
L 40.578125 7.625 
Q 34.515625 -1.171875 24.125 -1.171875 
Q 19.53125 -1.171875 15.546875 0.578125 
Q 11.578125 2.34375 9.640625 5 
Q 7.71875 7.671875 6.9375 11.53125 
Q 6.390625 14.109375 6.390625 19.734375 
L 6.390625 51.859375 
L 15.1875 51.859375 
L 15.1875 23.09375 
Q 15.1875 16.21875 15.71875 13.8125 
Q 16.546875 10.359375 19.234375 8.375 
Q 21.921875 6.390625 25.875 6.390625 
Q 29.828125 6.390625 33.296875 8.421875 
Q 36.765625 10.453125 38.203125 13.9375 
Q 39.65625 17.4375 39.65625 24.078125 
L 39.65625 51.859375 
L 48.4375 51.859375 
L 48.4375 0 
z
" id="ArialMT-75"/>
      <path d="M 23.390625 -21.046875 
Q 16.109375 -11.859375 11.078125 0.4375 
Q 6.0625 12.75 6.0625 25.921875 
Q 6.0625 37.546875 9.8125 48.1875 
Q 14.203125 60.546875 23.390625 72.796875 
L 29.6875 72.796875 
Q 23.78125 62.640625 21.875 58.296875 
Q 18.890625 51.5625 17.1875 44.234375 
Q 15.09375 35.109375 15.09375 25.875 
Q 15.09375 2.390625 29.6875 -21.046875 
z
" id="ArialMT-28"/>
      <path d="M 3.078125 15.484375 
L 11.765625 16.84375 
Q 12.5 11.625 15.84375 8.84375 
Q 19.1875 6.0625 25.203125 6.0625 
Q 31.25 6.0625 34.171875 8.515625 
Q 37.109375 10.984375 37.109375 14.3125 
Q 37.109375 17.28125 34.515625 19 
Q 32.71875 20.171875 25.53125 21.96875 
Q 15.875 24.421875 12.140625 26.203125 
Q 8.40625 27.984375 6.46875 31.125 
Q 4.546875 34.28125 4.546875 38.09375 
Q 4.546875 41.546875 6.125 44.5 
Q 7.71875 47.46875 10.453125 49.421875 
Q 12.5 50.921875 16.03125 51.96875 
Q 19.578125 53.03125 23.640625 53.03125 
Q 29.734375 53.03125 34.34375 51.265625 
Q 38.96875 49.515625 41.15625 46.5 
Q 43.359375 43.5 44.1875 38.484375 
L 35.59375 37.3125 
Q 35.015625 41.3125 32.203125 43.546875 
Q 29.390625 45.796875 24.265625 45.796875 
Q 18.21875 45.796875 15.625 43.796875 
Q 13.03125 41.796875 13.03125 39.109375 
Q 13.03125 37.40625 14.109375 36.03125 
Q 15.1875 34.625 17.484375 33.6875 
Q 18.796875 33.203125 25.25 31.453125 
Q 34.578125 28.953125 38.25 27.359375 
Q 41.9375 25.78125 44.03125 22.75 
Q 46.140625 19.734375 46.140625 15.234375 
Q 46.140625 10.84375 43.578125 6.953125 
Q 41.015625 3.078125 36.171875 0.953125 
Q 31.34375 -1.171875 25.25 -1.171875 
Q 15.140625 -1.171875 9.84375 3.03125 
Q 4.546875 7.234375 3.078125 15.484375 
" id="ArialMT-73"/>
      <path d="M 6.390625 0 
L 6.390625 71.578125 
L 15.1875 71.578125 
L 15.1875 0 
z
" id="ArialMT-6c"/>
      <path d="M 12.359375 -21.046875 
L 6.0625 -21.046875 
Q 20.65625 2.390625 20.65625 25.875 
Q 20.65625 35.0625 18.5625 44.09375 
Q 16.890625 51.421875 13.921875 58.15625 
Q 12.015625 62.546875 6.0625 72.796875 
L 12.359375 72.796875 
Q 21.53125 60.546875 25.921875 48.1875 
Q 29.6875 37.546875 29.6875 25.921875 
Q 29.6875 12.75 24.625 0.4375 
Q 19.578125 -11.859375 12.359375 -21.046875 
" id="ArialMT-29"/>
      <path d="M 6.59375 0 
L 6.59375 51.859375 
L 14.453125 51.859375 
L 14.453125 44.578125 
Q 16.890625 48.390625 20.9375 50.703125 
Q 25 53.03125 30.171875 53.03125 
Q 35.9375 53.03125 39.625 50.640625 
Q 43.3125 48.25 44.828125 43.953125 
Q 50.984375 53.03125 60.84375 53.03125 
Q 68.5625 53.03125 72.703125 48.75 
Q 76.859375 44.484375 76.859375 35.59375 
L 76.859375 0 
L 68.109375 0 
L 68.109375 32.671875 
Q 68.109375 37.9375 67.25 40.25 
Q 66.40625 42.578125 64.15625 43.984375 
Q 61.921875 45.40625 58.890625 45.40625 
Q 53.421875 45.40625 49.796875 41.765625 
Q 46.1875 38.140625 46.1875 30.125 
L 46.1875 0 
L 37.40625 0 
L 37.40625 33.6875 
Q 37.40625 39.546875 35.25 42.46875 
Q 33.109375 45.40625 28.21875 45.40625 
Q 24.515625 45.40625 21.359375 43.453125 
Q 18.21875 41.5 16.796875 37.734375 
Q 15.375 33.984375 15.375 26.90625 
L 15.375 0 
z
" id="ArialMT-6d"/>
      <path d="M 5.03125 -1.21875 
L 9.28125 19.578125 
L 1.03125 19.578125 
L 1.03125 26.859375 
L 10.75 26.859375 
L 14.359375 44.578125 
L 1.03125 44.578125 
L 1.03125 51.859375 
L 15.828125 51.859375 
L 20.0625 72.796875 
L 27.390625 72.796875 
L 23.140625 51.859375 
L 38.53125 51.859375 
L 42.78125 72.796875 
L 50.140625 72.796875 
L 45.90625 51.859375 
L 54.34375 51.859375 
L 54.34375 44.578125 
L 44.4375 44.578125 
L 40.765625 26.859375 
L 54.34375 26.859375 
L 54.34375 19.578125 
L 39.3125 19.578125 
L 35.0625 -1.21875 
L 27.734375 -1.21875 
L 31.9375 19.578125 
L 16.609375 19.578125 
L 12.359375 -1.21875 
z
M 18.0625 26.859375 
L 33.40625 26.859375 
L 37.0625 44.578125 
L 21.6875 44.578125 
z
" id="ArialMT-23"/>
     </defs>
     <g style="fill:#262626;" transform="translate(29.88015625 269.78875)rotate(-90.0)scale(0.11 -0.11)">
      <use xlink:href="#ArialMT-6c"/>
      <use x="22.216796875" xlink:href="#ArialMT-6f"/>
      <use x="77.83203125" xlink:href="#ArialMT-67"/>
      <use x="133.447265625" xlink:href="#ArialMT-31"/>
      <use x="189.0625" xlink:href="#ArialMT-30"/>
      <use x="244.677734375" xlink:href="#ArialMT-20"/>
      <use x="272.4609375" xlink:href="#ArialMT-61"/>
      <use x="328.076171875" xlink:href="#ArialMT-62"/>
      <use x="383.69140625" xlink:href="#ArialMT-75"/>
      <use x="439.306640625" xlink:href="#ArialMT-6e"/>
      <use x="494.921875" xlink:href="#ArialMT-64"/>
      <use x="550.537109375" xlink:href="#ArialMT-61"/>
      <use x="606.15234375" xlink:href="#ArialMT-6e"/>
      <use x="661.767578125" xlink:href="#ArialMT-63"/>
      <use x="711.767578125" xlink:href="#ArialMT-65"/>
      <use x="767.3828125" xlink:href="#ArialMT-20"/>
      <use x="795.166015625" xlink:href="#ArialMT-28"/>
      <use x="828.466796875" xlink:href="#ArialMT-23"/>
      <use x="884.08203125" xlink:href="#ArialMT-20"/>
      <use x="911.865234375" xlink:href="#ArialMT-6d"/>
      <use x="995.166015625" xlink:href="#ArialMT-6f"/>
      <use x="1050.78125" xlink:href="#ArialMT-6c"/>
      <use x="1072.99804688" xlink:href="#ArialMT-65"/>
      <use x="1128.61328125" xlink:href="#ArialMT-63"/>
      <use x="1178.61328125" xlink:href="#ArialMT-75"/>
      <use x="1234.22851562" xlink:href="#ArialMT-6c"/>
      <use x="1256.4453125" xlink:href="#ArialMT-65"/>
      <use x="1312.06054688" xlink:href="#ArialMT-73"/>
      <use x="1362.06054688" xlink:href="#ArialMT-29"/>
     </g>
    </g>
   </g>
   <g id="line2d_12">
    <path clip-path="url(#p6ef4c57072)" d="M 126.183349 346.5 
L 126.183349 39.6 
" style="fill:none;stroke:#808080;stroke-linecap:round;stroke-width:3.0;"/>
   </g>
   <g id="line2d_13">
    <path clip-path="url(#p6ef4c57072)" d="M 76.084172 126.315719 
L 76.901006 130.612972 
L 77.309424 130.759188 
L 78.126258 134.459803 
L 78.534675 135.262864 
L 78.943092 138.212474 
L 79.35151 138.287132 
L 80.168344 141.102155 
L 80.985178 144.516981 
L 81.393596 144.931015 
L 81.802013 146.939878 
L 82.618847 148.149126 
L 83.027264 148.510901 
L 83.435682 150.111069 
L 84.252516 151.396393 
L 84.660933 151.68301 
L 85.06935 154.578473 
L 85.477768 154.896251 
L 85.886185 155.803769 
L 86.294602 156.001744 
L 86.703019 156.670951 
L 87.111436 156.670951 
L 87.519854 157.148147 
L 87.928271 157.913199 
L 88.745105 160.866198 
L 89.153522 161.177588 
L 89.970357 161.571279 
L 90.378774 161.970037 
L 91.604026 162.130988 
L 92.012443 163.198059 
L 92.829277 163.61846 
L 93.646112 164.044643 
L 94.462946 165.180961 
L 95.27978 167.014812 
L 95.688198 167.299498 
L 96.096615 168.465141 
L 96.913449 168.763536 
L 97.730284 169.471173 
L 98.138701 169.986709 
L 98.955535 171.47759 
L 99.363952 171.47759 
L 100.180787 172.027925 
L 100.589204 172.139175 
L 100.997621 172.701496 
L 101.406038 172.815195 
L 101.814456 173.622993 
L 102.222873 173.622993 
L 103.039707 173.975745 
L 103.448124 174.094227 
L 103.856542 174.332559 
L 104.673376 174.332559 
L 105.081793 174.452416 
L 105.49021 174.452416 
L 105.898628 174.936536 
L 106.307045 176.308243 
L 106.715462 176.308243 
L 107.123879 176.436008 
L 107.940714 178.011757 
L 108.349131 178.830739 
L 108.757548 179.248495 
L 109.165965 179.389008 
L 109.574382 179.389008 
L 109.9828 179.530161 
L 110.799634 180.536659 
L 111.208051 180.97823 
L 111.616468 180.97823 
L 112.024886 182.342007 
L 112.433303 182.653397 
L 112.84172 183.12643 
L 113.250137 183.285726 
L 113.658554 183.285726 
L 114.475389 183.931229 
L 114.883806 183.931229 
L 115.70064 185.094268 
L 116.109058 185.264039 
L 116.517475 185.952579 
L 116.925892 186.127132 
L 117.334309 186.479216 
L 117.742726 186.65677 
L 118.151144 186.65677 
L 118.559561 187.014959 
L 118.967978 187.014959 
L 119.376395 187.560129 
L 119.784812 187.560129 
L 120.19323 187.744005 
L 120.601647 188.115064 
L 121.010064 188.115064 
L 121.418481 188.68012 
L 121.826898 190.439883 
L 122.235316 191.671159 
L 122.643733 191.881214 
L 123.460567 191.881214 
L 124.277402 192.735973 
L 125.094236 192.735973 
L 125.502653 193.838689 
L 126.319488 194.291004 
L 127.136322 195.21594 
L 127.544739 195.451553 
L 128.361574 196.412345 
L 128.769991 196.657271 
L 129.178408 197.911817 
L 129.586825 198.689675 
L 130.40366 199.758161 
L 130.812077 199.758161 
L 131.220494 200.031141 
L 131.628911 200.864816 
L 132.037328 200.864816 
L 132.445746 201.147768 
L 132.854163 202.012468 
L 133.26258 202.012468 
L 133.670997 202.602639 
L 134.079414 202.901994 
L 134.487832 202.901994 
L 135.713083 203.817816 
L 136.1215 204.761535 
L 136.529918 204.761535 
L 136.938335 205.082605 
L 137.346752 206.066276 
L 138.163586 206.066276 
L 138.980421 206.739847 
L 139.388838 207.428388 
L 140.205672 207.428388 
L 140.61409 207.778482 
L 141.022507 208.490768 
L 141.430924 208.490768 
L 141.839341 209.219814 
L 142.656176 209.219814 
L 143.064593 209.590873 
L 143.47301 209.590873 
L 145.106679 211.121211 
L 145.515096 211.121211 
L 145.923513 213.146968 
L 146.33193 214.429207 
L 146.740348 214.868691 
L 147.148765 215.766813 
L 147.557182 215.766813 
L 147.965599 216.225829 
L 148.782434 216.225829 
L 149.190851 217.164781 
L 149.599268 219.644748 
L 150.007685 220.695121 
L 150.416102 220.695121 
L 150.82452 221.23397 
L 151.232937 222.909137 
L 151.641354 222.909137 
L 152.049771 223.488276 
L 152.458188 223.488276 
L 152.866606 224.078447 
L 153.275023 225.293624 
L 154.500274 227.210713 
L 154.908692 228.558014 
L 155.317109 228.558014 
L 155.725526 229.254291 
L 156.133943 229.254291 
L 157.359195 231.442238 
L 157.767612 231.442238 
L 158.584446 232.991713 
L 158.992864 232.991713 
L 159.401281 234.622776 
L 159.809698 234.622776 
L 160.218115 235.47168 
L 160.626532 235.47168 
L 161.03495 237.242621 
L 161.851784 237.242621 
L 162.260201 238.167557 
L 162.668618 240.104628 
L 163.485453 240.104628 
L 164.302287 242.17093 
L 164.710704 242.17093 
L 166.344373 246.769433 
L 166.75279 248.034223 
L 167.161208 248.034223 
L 167.978042 250.7301 
L 168.386459 255.272321 
L 168.794876 255.272321 
L 169.611711 258.71843 
L 170.020128 264.733974 
L 170.428545 264.733974 
L 170.836962 267.030065 
L 171.24538 267.030065 
L 171.653797 269.510031 
L 172.062214 269.510031 
L 172.470631 272.205908 
L 172.879048 272.205908 
L 173.287466 275.158908 
L 174.1043 275.158908 
L 174.512717 278.423297 
L 175.737969 278.423297 
L 176.146386 286.209783 
L 176.554803 286.209783 
L 177.371638 296.634716 
L 178.188472 296.634716 
L 178.596889 303.548383 
L 179.822141 303.548383 
L 180.230558 312.461649 
L 189.624154 312.461649 
L 190.032571 325.024191 
L 233.324794 325.024191 
L 233.733211 346.5 
L 460.404758 346.5 
L 460.404758 346.5 
" style="fill:none;opacity:0.4;stroke:#2c5ebf;stroke-linecap:round;stroke-width:2.0;"/>
   </g>
   <g id="line2d_14">
    <path clip-path="url(#p6ef4c57072)" d="M 143.47301 346.5 
L 143.47301 39.6 
" style="fill:none;stroke:#2c5ebf;stroke-dasharray:6.000000,6.000000;stroke-dashoffset:0.0;stroke-width:2.0;"/>
   </g>
   <g id="line2d_15">
    <path clip-path="url(#p6ef4c57072)" d="M 76.084172 51.517827 
L 76.492589 67.764022 
L 76.901006 73.585292 
L 77.717841 104.298653 
L 78.126258 108.373534 
L 78.534675 117.625468 
L 78.943092 120.163042 
L 79.35151 126.724742 
L 79.759927 142.058113 
L 80.168344 148.824391 
L 80.576761 149.622282 
L 80.985178 167.490752 
L 81.393596 175.058757 
L 81.802013 186.65677 
L 82.21043 188.490621 
L 82.618847 203.20427 
L 83.027264 203.509524 
L 83.435682 206.401232 
L 84.252516 232.991713 
L 85.06935 244.384946 
L 86.294602 248.034223 
L 86.703019 253.683099 
L 87.519854 256.947488 
L 87.928271 267.030065 
L 88.336688 267.030065 
L 88.745105 269.510031 
L 90.787191 269.510031 
L 91.195608 272.205908 
L 91.604026 272.205908 
L 92.42086 278.423297 
L 93.237694 278.423297 
L 93.646112 282.072574 
L 94.871363 282.072574 
L 95.27978 286.209783 
L 96.505032 286.209783 
L 96.913449 290.98584 
L 100.180787 290.98584 
L 100.589204 296.634716 
L 103.856542 296.634716 
L 104.264959 303.548383 
L 108.349131 303.548383 
L 108.757548 312.461649 
L 117.334309 312.461649 
L 117.742726 325.024191 
L 130.812077 325.024191 
L 131.220494 346.5 
L 181.864227 346.5 
L 181.864227 346.5 
" style="fill:none;opacity:0.4;stroke:#ff1313;stroke-linecap:round;stroke-width:2.0;"/>
   </g>
   <g id="line2d_16">
    <path clip-path="url(#p6ef4c57072)" d="M 78.126258 346.5 
L 78.126258 39.6 
" style="fill:none;stroke:#ff1313;stroke-dasharray:6.000000,6.000000;stroke-dashoffset:0.0;stroke-width:2.0;"/>
   </g>
   <g id="line2d_17">
    <path clip-path="url(#p6ef4c57072)" d="M 76.084172 121.050142 
L 76.492589 124.086819 
L 76.901006 126.957213 
L 77.309424 133.197656 
L 78.126258 133.935765 
L 78.534675 134.000787 
L 78.943092 134.360869 
L 79.35151 135.228985 
L 79.759927 136.898509 
L 80.168344 139.313029 
L 80.576761 139.39039 
L 80.985178 140.294208 
L 81.393596 142.100353 
L 81.802013 142.185006 
L 82.21043 142.611777 
L 82.618847 142.611777 
L 83.027264 143.088115 
L 83.844099 143.395098 
L 84.252516 144.516981 
L 84.660933 144.516981 
L 85.886185 145.25691 
L 86.294602 145.444687 
L 86.703019 146.547061 
L 87.111436 146.595892 
L 87.519854 147.842361 
L 87.928271 148.097787 
L 88.336688 148.771922 
L 89.153522 150.943251 
L 89.56194 153.644241 
L 89.970357 153.644241 
L 90.378774 154.076713 
L 90.787191 155.672485 
L 91.195608 155.935612 
L 91.604026 156.942733 
L 92.012443 157.011053 
L 92.42086 157.354931 
L 92.829277 158.987863 
L 93.646112 158.987863 
L 94.054529 159.13401 
L 95.27978 161.889873 
L 96.096615 162.29278 
L 96.505032 163.198059 
L 96.913449 165.270121 
L 97.321866 166.639256 
L 97.730284 167.109417 
L 98.955535 167.683193 
L 100.180787 168.763536 
L 100.589204 168.964074 
L 100.997621 169.471173 
L 101.406038 169.779464 
L 102.222873 171.152021 
L 102.63129 172.139175 
L 103.856542 174.213164 
L 104.264959 174.213164 
L 104.673376 174.332559 
L 105.49021 174.936536 
L 105.898628 175.677202 
L 106.307045 175.677202 
L 106.715462 175.928078 
L 107.123879 176.69313 
L 108.349131 177.345429 
L 109.165965 177.345429 
L 109.574382 178.011757 
L 109.9828 178.146759 
L 110.391217 178.418542 
L 111.208051 179.108616 
L 111.616468 179.248495 
L 112.024886 179.530161 
L 112.433303 179.530161 
L 112.84172 179.814411 
L 113.250137 179.95752 
L 113.658554 179.95752 
L 114.066972 181.276146 
L 114.475389 181.426185 
L 114.883806 181.880712 
L 115.292223 182.967948 
L 115.70064 182.967948 
L 116.109058 183.12643 
L 116.517475 183.12643 
L 116.925892 183.285726 
L 117.334309 184.424338 
L 117.742726 184.757493 
L 118.151144 185.606396 
L 118.967978 186.479216 
L 119.376395 188.490621 
L 119.784812 188.68012 
L 120.19323 188.68012 
L 120.601647 189.449925 
L 121.010064 189.645402 
L 121.418481 189.645402 
L 121.826898 190.439883 
L 122.643733 190.844895 
L 123.05215 191.255273 
L 123.460567 192.305646 
L 123.868984 192.735973 
L 124.277402 192.953399 
L 124.685819 193.614984 
L 125.094236 193.838689 
L 125.502653 193.838689 
L 125.91107 194.064021 
L 126.319488 194.75002 
L 126.727905 194.982104 
L 127.136322 195.688972 
L 127.953156 197.911817 
L 128.769991 198.428213 
L 129.178408 199.219312 
L 129.586825 199.219312 
L 129.995242 199.487565 
L 130.40366 199.487565 
L 132.037328 200.584425 
L 132.445746 200.584425 
L 132.854163 203.509524 
L 133.26258 204.443757 
L 134.079414 205.082605 
L 134.487832 205.734904 
L 134.896249 208.132578 
L 135.304666 209.219814 
L 135.713083 209.96643 
L 136.1215 210.346594 
L 136.529918 213.146968 
L 136.938335 213.568512 
L 137.346752 213.568512 
L 138.572004 214.868691 
L 138.980421 215.766813 
L 139.388838 215.766813 
L 139.797255 216.691748 
L 140.61409 216.691748 
L 141.022507 218.13308 
L 141.430924 218.628819 
L 141.839341 221.782357 
L 142.247758 221.782357 
L 142.656176 222.340625 
L 143.064593 222.340625 
L 143.47301 222.909137 
L 144.289844 225.293624 
L 144.698262 225.919566 
L 145.106679 227.210713 
L 145.923513 228.558014 
L 146.740348 233.796513 
L 147.148765 233.796513 
L 147.557182 236.344499 
L 148.782434 239.120957 
L 149.190851 239.120957 
L 149.599268 240.104628 
L 150.007685 240.104628 
L 150.416102 241.120556 
L 150.82452 245.554256 
L 151.232937 245.554256 
L 152.049771 248.034223 
L 152.458188 248.034223 
L 152.866606 253.683099 
L 153.275023 255.272321 
L 153.68344 258.71843 
L 154.091857 260.596765 
L 154.908692 260.596765 
L 155.317109 264.733974 
L 155.725526 267.030065 
L 156.54236 267.030065 
L 156.950778 272.205908 
L 157.359195 272.205908 
L 157.767612 275.158908 
L 158.176029 275.158908 
L 158.584446 286.209783 
L 158.992864 290.98584 
L 159.401281 290.98584 
L 159.809698 296.634716 
L 160.218115 296.634716 
L 160.626532 303.548383 
L 162.668618 303.548383 
L 163.077036 312.461649 
L 170.020128 312.461649 
L 170.428545 325.024191 
L 212.495517 325.024191 
L 212.903934 346.5 
L 416.704117 346.5 
L 416.704117 346.5 
" style="fill:none;opacity:0.4;stroke:#f7b02a;stroke-linecap:round;stroke-width:2.0;"/>
   </g>
   <g id="line2d_18">
    <path clip-path="url(#p6ef4c57072)" d="M 135.713083 346.5 
L 135.713083 39.6 
" style="fill:none;stroke:#f7b02a;stroke-dasharray:6.000000,6.000000;stroke-dashoffset:0.0;stroke-width:2.0;"/>
   </g>
   <g id="line2d_19">
    <path clip-path="url(#p6ef4c57072)" d="M 76.084172 68.639692 
L 76.492589 133.612685 
L 77.309424 144.792388 
L 77.717841 154.896251 
L 78.126258 155.476596 
L 78.534675 156.468667 
L 78.943092 156.670951 
L 79.759927 159.502421 
L 80.168344 163.114659 
L 80.576761 163.198059 
L 80.985178 163.533922 
L 81.393596 165.359538 
L 81.802013 166.360546 
L 82.21043 166.546073 
L 82.618847 166.546073 
L 83.027264 166.732719 
L 83.435682 167.683193 
L 83.844099 167.683193 
L 84.252516 168.267796 
L 84.660933 168.564287 
L 85.06935 168.663751 
L 85.477768 169.779464 
L 85.886185 170.19535 
L 86.294602 172.139175 
L 86.703019 172.250826 
L 87.111436 172.588212 
L 87.519854 175.428341 
L 88.336688 176.308243 
L 88.745105 176.952404 
L 89.970357 178.011757 
L 90.378774 178.282353 
L 91.195608 179.530161 
L 91.604026 179.530161 
L 92.42086 180.245736 
L 93.237694 180.830339 
L 94.054529 182.497311 
L 94.462946 182.653397 
L 94.871363 184.094729 
L 95.27978 186.479216 
L 95.688198 186.65677 
L 96.096615 187.377338 
L 96.505032 187.560129 
L 96.913449 187.560129 
L 97.321866 188.115064 
L 97.730284 188.115064 
L 98.547118 189.255673 
L 99.363952 189.645402 
L 99.77237 191.671159 
L 100.180787 191.881214 
L 100.589204 191.881214 
L 101.406038 192.953399 
L 102.222873 193.392882 
L 102.63129 194.519662 
L 103.039707 194.519662 
L 103.448124 194.75002 
L 103.856542 194.75002 
L 104.264959 195.21594 
L 104.673376 195.21594 
L 105.081793 195.451553 
L 105.49021 195.451553 
L 105.898628 196.169339 
L 106.307045 196.169339 
L 106.715462 196.412345 
L 108.349131 196.412345 
L 109.165965 196.904149 
L 109.574382 196.904149 
L 110.391217 197.911817 
L 110.799634 197.911817 
L 111.616468 198.428213 
L 112.024886 198.428213 
L 112.433303 198.689675 
L 112.84172 199.219312 
L 113.250137 200.031141 
L 114.066972 200.584425 
L 114.475389 202.306148 
L 114.883806 202.602639 
L 115.292223 202.602639 
L 115.70064 202.901994 
L 116.109058 203.817816 
L 116.517475 203.817816 
L 116.925892 204.129206 
L 117.742726 204.129206 
L 118.151144 204.443757 
L 118.559561 204.443757 
L 118.967978 204.761535 
L 119.376395 204.761535 
L 119.784812 205.082605 
L 120.601647 205.082605 
L 121.010064 206.066276 
L 121.418481 206.401232 
L 121.826898 206.401232 
L 122.643733 207.082205 
L 123.05215 207.082205 
L 123.460567 207.428388 
L 123.868984 207.428388 
L 124.685819 208.132578 
L 125.094236 208.132578 
L 125.91107 208.853147 
L 126.319488 208.853147 
L 126.727905 209.590873 
L 127.136322 209.96643 
L 128.361574 209.96643 
L 129.178408 210.731482 
L 129.586825 210.731482 
L 129.995242 211.121211 
L 130.40366 213.146968 
L 131.220494 213.146968 
L 131.628911 214.429207 
L 132.037328 214.429207 
L 132.445746 215.314497 
L 133.26258 216.225829 
L 134.487832 216.225829 
L 135.713083 217.645148 
L 136.1215 218.628819 
L 136.529918 219.13262 
L 136.938335 221.23397 
L 138.163586 222.909137 
L 138.572004 222.909137 
L 138.980421 223.488276 
L 139.388838 225.293624 
L 139.797255 225.919566 
L 141.430924 225.919566 
L 142.247758 227.210713 
L 142.656176 227.210713 
L 143.064593 227.87704 
L 143.47301 227.87704 
L 143.881427 229.254291 
L 145.106679 231.442238 
L 146.33193 231.442238 
L 146.740348 232.991713 
L 147.148765 233.796513 
L 147.557182 233.796513 
L 147.965599 234.622776 
L 148.782434 238.167557 
L 149.190851 238.167557 
L 150.416102 241.120556 
L 150.82452 241.120556 
L 152.049771 244.384946 
L 152.866606 244.384946 
L 153.275023 245.554256 
L 153.68344 249.352849 
L 154.091857 250.7301 
L 154.500274 250.7301 
L 155.317109 253.683099 
L 156.133943 253.683099 
L 156.54236 255.272321 
L 158.584446 255.272321 
L 158.992864 256.947488 
L 159.809698 256.947488 
L 160.626532 260.596765 
L 161.851784 260.596765 
L 162.260201 262.596365 
L 162.668618 262.596365 
L 163.077036 264.733974 
L 163.89387 264.733974 
L 164.302287 269.510031 
L 165.119122 269.510031 
L 165.935956 275.158908 
L 166.344373 278.423297 
L 167.569625 278.423297 
L 167.978042 282.072574 
L 168.794876 282.072574 
L 169.203294 290.98584 
L 169.611711 290.98584 
L 170.428545 303.548383 
L 172.470631 303.548383 
L 172.879048 312.461649 
L 182.681061 312.461649 
L 183.089478 325.024191 
L 213.312351 325.024191 
L 213.720769 346.5 
L 396.283257 346.5 
L 396.283257 346.5 
" style="fill:none;opacity:0.4;stroke:#02b72a;stroke-linecap:round;stroke-width:2.0;"/>
   </g>
   <g id="line2d_20">
    <path clip-path="url(#p6ef4c57072)" d="M 122.235316 346.5 
L 122.235316 39.6 
" style="fill:none;stroke:#02b72a;stroke-dasharray:6.000000,6.000000;stroke-dashoffset:0.0;stroke-width:2.0;"/>
   </g>
   <g id="line2d_21">
    <path clip-path="url(#p6ef4c57072)" d="M 76.084172 112.233447 
L 76.492589 114.576694 
L 76.901006 121.071577 
L 77.309424 124.063195 
L 77.717841 125.242498 
L 78.126258 129.749879 
L 78.534675 129.835114 
L 78.943092 131.410863 
L 79.35151 133.741513 
L 79.759927 133.838487 
L 80.576761 136.684832 
L 80.985178 137.952579 
L 81.393596 139.740924 
L 82.21043 140.334109 
L 82.618847 141.597235 
L 83.027264 144.15354 
L 83.435682 145.397636 
L 83.844099 145.823689 
L 85.06935 148.719542 
L 85.477768 149.622282 
L 86.294602 150.275727 
L 86.703019 150.663366 
L 87.111436 152.030487 
L 87.519854 152.323058 
L 88.336688 154.01456 
L 89.56194 154.38936 
L 89.970357 155.281937 
L 91.195608 156.535948 
L 92.012443 156.738673 
L 92.42086 157.011053 
L 93.237694 157.079524 
L 93.646112 157.148147 
L 94.871363 157.702668 
L 95.27978 158.553514 
L 95.688198 158.625484 
L 96.096615 159.06085 
L 96.505032 159.207342 
L 97.321866 159.800337 
L 97.730284 160.02567 
L 98.138701 160.788837 
L 98.547118 160.788837 
L 99.363952 161.889873 
L 99.77237 162.211778 
L 100.589204 165.092057 
L 100.997621 165.180961 
L 101.814456 166.084321 
L 102.222873 166.268197 
L 102.63129 167.779864 
L 103.039707 168.071701 
L 103.856542 169.471173 
L 104.264959 170.090854 
L 104.673376 170.405406 
L 105.081793 171.806617 
L 106.307045 172.815195 
L 107.123879 172.815195 
L 107.532296 173.043854 
L 107.940714 173.740131 
L 108.349131 173.857714 
L 108.757548 174.213164 
L 109.165965 176.181002 
L 109.9828 176.436008 
L 110.391217 176.822496 
L 111.616468 177.213866 
L 112.024886 177.477553 
L 112.433303 178.555333 
L 113.658554 178.969366 
L 114.066972 179.248495 
L 114.475389 179.389008 
L 114.883806 179.389008 
L 115.292223 179.67196 
L 115.70064 180.683151 
L 116.109058 181.276146 
L 116.517475 181.276146 
L 116.925892 182.810273 
L 117.334309 182.967948 
L 117.742726 183.445845 
L 118.151144 183.606797 
L 118.559561 184.094729 
L 118.967978 184.094729 
L 119.376395 184.424338 
L 119.784812 184.424338 
L 120.601647 185.779004 
L 121.010064 185.779004 
L 121.418481 186.127132 
L 121.826898 187.014959 
L 122.643733 189.645402 
L 123.05215 190.239344 
L 123.460567 190.439883 
L 123.868984 190.439883 
L 124.277402 190.641727 
L 124.685819 192.735973 
L 125.094236 192.953399 
L 125.91107 192.953399 
L 126.319488 193.838689 
L 126.727905 193.838689 
L 127.136322 194.75002 
L 127.544739 194.75002 
L 127.953156 194.982104 
L 128.361574 196.657271 
L 128.769991 197.656811 
L 129.178408 197.911817 
L 129.995242 200.864816 
L 130.40366 202.602639 
L 130.812077 202.602639 
L 131.220494 202.901994 
L 131.628911 204.761535 
L 132.445746 205.407038 
L 132.854163 210.346594 
L 133.26258 212.320704 
L 133.670997 212.320704 
L 134.079414 212.731082 
L 134.896249 214.429207 
L 135.304666 214.868691 
L 136.1215 214.868691 
L 136.938335 215.766813 
L 137.346752 215.766813 
L 137.755169 216.225829 
L 138.163586 219.13262 
L 138.572004 219.13262 
L 138.980421 219.644748 
L 139.388838 220.695121 
L 139.797255 225.293624 
L 140.205672 227.210713 
L 140.61409 227.87704 
L 141.430924 227.87704 
L 141.839341 229.254291 
L 142.247758 229.966576 
L 142.656176 232.991713 
L 143.064593 239.120957 
L 143.47301 242.17093 
L 143.881427 243.258165 
L 144.698262 243.258165 
L 145.106679 244.384946 
L 145.515096 244.384946 
L 145.923513 246.769433 
L 146.33193 248.034223 
L 146.740348 248.034223 
L 147.148765 249.352849 
L 147.557182 253.683099 
L 148.374016 256.947488 
L 149.190851 256.947488 
L 149.599268 258.71843 
L 150.007685 267.030065 
L 151.641354 267.030065 
L 152.049771 272.205908 
L 152.866606 272.205908 
L 153.275023 275.158908 
L 154.500274 275.158908 
L 154.908692 278.423297 
L 155.317109 278.423297 
L 155.725526 282.072574 
L 156.54236 282.072574 
L 157.359195 290.98584 
L 160.218115 290.98584 
L 160.626532 296.634716 
L 166.344373 296.634716 
L 166.75279 303.548383 
L 179.413724 303.548383 
L 179.822141 312.461649 
L 209.636597 312.461649 
L 210.045014 325.024191 
L 274.574931 325.024191 
L 274.983349 346.5 
L 517.991583 346.5 
L 517.991583 346.5 
" style="fill:none;opacity:0.4;stroke:#009e9e;stroke-linecap:round;stroke-width:2.0;"/>
   </g>
   <g id="line2d_22">
    <path clip-path="url(#p6ef4c57072)" d="M 132.037328 346.5 
L 132.037328 39.6 
" style="fill:none;stroke:#009e9e;stroke-dasharray:6.000000,6.000000;stroke-dashoffset:0.0;stroke-width:2.0;"/>
   </g>
   <g id="line2d_23">
    <path clip-path="url(#p6ef4c57072)" d="M 76.084172 138.512192 
L 76.492589 139.082098 
L 76.901006 141.431328 
L 77.309424 146.111014 
L 77.717841 146.207385 
L 78.534675 152.030487 
L 78.943092 152.55912 
L 79.35151 153.767189 
L 79.759927 155.346687 
L 80.168344 157.493558 
L 80.576761 158.12517 
L 80.985178 158.196151 
L 81.393596 158.915047 
L 81.802013 159.06085 
L 82.618847 159.06085 
L 83.027264 159.354531 
L 83.435682 159.800337 
L 83.844099 160.02567 
L 84.252516 160.101146 
L 85.06935 161.021502 
L 85.886185 161.177588 
L 86.294602 163.031483 
L 86.703019 164.130588 
L 87.111436 164.216771 
L 87.519854 165.092057 
L 87.928271 165.359538 
L 88.336688 165.449214 
L 88.745105 166.084321 
L 89.153522 166.176122 
L 89.56194 166.546073 
L 89.970357 166.546073 
L 90.378774 168.465141 
L 91.195608 168.564287 
L 91.604026 170.090854 
L 92.012443 170.090854 
L 92.42086 170.723183 
L 92.829277 170.829837 
L 93.237694 171.152021 
L 94.054529 171.47759 
L 94.462946 172.36288 
L 94.871363 172.701496 
L 95.688198 172.815195 
L 96.096615 173.158819 
L 96.505032 173.158819 
L 97.730284 173.857714 
L 98.138701 173.857714 
L 99.363952 174.452416 
L 100.180787 174.693531 
L 100.589204 174.693531 
L 100.997621 174.814795 
L 101.406038 175.552521 
L 101.814456 175.802386 
L 102.222873 175.802386 
L 102.63129 175.928078 
L 103.039707 176.181002 
L 104.264959 177.610243 
L 104.673376 177.610243 
L 105.49021 177.87734 
L 105.898628 178.146759 
L 106.307045 178.282353 
L 106.715462 178.555333 
L 107.123879 178.969366 
L 107.940714 179.248495 
L 108.757548 179.814411 
L 109.165965 180.97823 
L 109.574382 181.426185 
L 109.9828 182.187478 
L 111.616468 182.810273 
L 112.024886 182.810273 
L 112.433303 183.768588 
L 113.658554 184.757493 
L 114.066972 184.925423 
L 114.475389 185.952579 
L 115.292223 187.195619 
L 115.70064 187.377338 
L 116.109058 187.377338 
L 116.925892 187.744005 
L 117.334309 187.744005 
L 117.742726 187.928979 
L 118.151144 187.928979 
L 118.559561 188.115064 
L 118.967978 188.870786 
L 119.376395 189.062632 
L 119.784812 189.645402 
L 120.19323 189.84212 
L 120.601647 190.439883 
L 121.010064 190.439883 
L 121.826898 191.255273 
L 122.235316 191.255273 
L 123.05215 191.671159 
L 123.460567 192.735973 
L 123.868984 192.735973 
L 124.685819 193.172361 
L 125.094236 193.614984 
L 125.91107 195.688972 
L 126.319488 196.169339 
L 126.727905 196.412345 
L 127.953156 196.412345 
L 128.361574 196.657271 
L 128.769991 197.656811 
L 129.586825 198.168939 
L 129.995242 198.168939 
L 130.40366 198.428213 
L 130.812077 198.953362 
L 131.220494 198.953362 
L 132.445746 199.758161 
L 132.854163 199.758161 
L 133.26258 200.031141 
L 133.670997 200.031141 
L 134.079414 200.306548 
L 134.487832 201.433328 
L 134.896249 202.012468 
L 135.304666 202.306148 
L 135.713083 202.306148 
L 136.1215 202.602639 
L 136.938335 203.817816 
L 137.346752 204.129206 
L 137.755169 204.761535 
L 138.572004 205.407038 
L 138.980421 206.066276 
L 139.797255 206.739847 
L 140.205672 206.739847 
L 140.61409 207.778482 
L 141.022507 207.778482 
L 141.430924 208.132578 
L 141.839341 208.132578 
L 142.247758 208.490768 
L 142.656176 208.490768 
L 143.064593 208.853147 
L 143.47301 208.853147 
L 143.881427 209.590873 
L 144.289844 209.96643 
L 145.106679 209.96643 
L 146.33193 211.121211 
L 146.740348 212.731082 
L 147.148765 213.146968 
L 147.557182 215.766813 
L 147.965599 215.766813 
L 148.374016 216.225829 
L 148.782434 216.225829 
L 150.007685 217.645148 
L 150.416102 218.628819 
L 150.82452 219.13262 
L 151.232937 219.13262 
L 151.641354 219.644748 
L 152.458188 219.644748 
L 152.866606 220.165483 
L 153.68344 220.165483 
L 154.091857 221.23397 
L 154.908692 221.23397 
L 155.725526 222.340625 
L 156.133943 222.340625 
L 156.54236 223.488276 
L 156.950778 223.488276 
L 157.359195 224.078447 
L 157.767612 224.078447 
L 158.176029 224.680079 
L 158.584446 224.680079 
L 158.992864 225.293624 
L 159.809698 227.87704 
L 160.218115 227.87704 
L 160.626532 228.558014 
L 161.03495 228.558014 
L 161.443367 229.254291 
L 161.851784 230.695623 
L 162.260201 230.695623 
L 162.668618 232.20729 
L 163.485453 233.796513 
L 163.89387 233.796513 
L 164.710704 237.242621 
L 165.527539 239.120957 
L 165.935956 241.120556 
L 166.75279 241.120556 
L 167.569625 243.258165 
L 167.978042 243.258165 
L 168.386459 244.384946 
L 168.794876 248.034223 
L 169.203294 249.352849 
L 169.611711 249.352849 
L 170.020128 250.7301 
L 170.428545 250.7301 
L 171.653797 255.272321 
L 172.062214 255.272321 
L 172.879048 258.71843 
L 173.287466 258.71843 
L 173.695883 260.596765 
L 174.1043 260.596765 
L 174.512717 264.733974 
L 174.921134 264.733974 
L 176.146386 278.423297 
L 176.554803 282.072574 
L 176.96322 282.072574 
L 177.371638 286.209783 
L 178.188472 286.209783 
L 178.596889 296.634716 
L 179.005306 303.548383 
L 179.822141 303.548383 
L 180.230558 312.461649 
L 187.582068 312.461649 
L 187.990485 325.024191 
L 228.423788 325.024191 
L 228.832205 346.5 
L 464.897347 346.5 
L 464.897347 346.5 
" style="fill:none;opacity:0.4;stroke:#1d1aa9;stroke-linecap:round;stroke-width:2.0;"/>
   </g>
   <g id="line2d_24">
    <path clip-path="url(#p6ef4c57072)" d="M 145.515096 346.5 
L 145.515096 39.6 
" style="fill:none;stroke:#1d1aa9;stroke-dasharray:6.000000,6.000000;stroke-dashoffset:0.0;stroke-width:2.0;"/>
   </g>
   <g id="patch_3">
    <path d="M 72 39.6 
L 518.4 39.6 
" style="fill:none;stroke:#262626;stroke-linecap:square;stroke-linejoin:miter;stroke-width:1.25;"/>
   </g>
   <g id="patch_4">
    <path d="M 518.4 346.5 
L 518.4 39.6 
" style="fill:none;stroke:#262626;stroke-linecap:square;stroke-linejoin:miter;stroke-width:1.25;"/>
   </g>
   <g id="patch_5">
    <path d="M 72 346.5 
L 518.4 346.5 
" style="fill:none;stroke:#262626;stroke-linecap:square;stroke-linejoin:miter;stroke-width:1.25;"/>
   </g>
   <g id="patch_6">
    <path d="M 72 346.5 
L 72 39.6 
" style="fill:none;stroke:#262626;stroke-linecap:square;stroke-linejoin:miter;stroke-width:1.25;"/>
   </g>
   <g id="text_14">
    <!-- B6 14wks naive Thoracic LN -->
    <defs>
     <path d="M 6.59375 0 
L 6.59375 71.578125 
L 15.375 71.578125 
L 15.375 45.90625 
Q 21.53125 53.03125 30.90625 53.03125 
Q 36.671875 53.03125 40.921875 50.75 
Q 45.171875 48.484375 47 44.484375 
Q 48.828125 40.484375 48.828125 32.859375 
L 48.828125 0 
L 40.046875 0 
L 40.046875 32.859375 
Q 40.046875 39.453125 37.1875 42.453125 
Q 34.328125 45.453125 29.109375 45.453125 
Q 25.203125 45.453125 21.75 43.421875 
Q 18.3125 41.40625 16.84375 37.9375 
Q 15.375 34.46875 15.375 28.375 
L 15.375 0 
z
" id="ArialMT-68"/>
     <path d="M 6.640625 61.46875 
L 6.640625 71.578125 
L 15.4375 71.578125 
L 15.4375 61.46875 
z
M 6.640625 0 
L 6.640625 51.859375 
L 15.4375 51.859375 
L 15.4375 0 
z
" id="ArialMT-69"/>
     <path d="M 7.328125 0 
L 7.328125 71.578125 
L 34.1875 71.578125 
Q 42.390625 71.578125 47.34375 69.40625 
Q 52.296875 67.234375 55.09375 62.71875 
Q 57.90625 58.203125 57.90625 53.265625 
Q 57.90625 48.6875 55.421875 44.625 
Q 52.9375 40.578125 47.90625 38.09375 
Q 54.390625 36.1875 57.875 31.59375 
Q 61.375 27 61.375 20.75 
Q 61.375 15.71875 59.25 11.390625 
Q 57.125 7.078125 54 4.734375 
Q 50.875 2.390625 46.15625 1.1875 
Q 41.453125 0 34.625 0 
z
M 16.796875 41.5 
L 32.28125 41.5 
Q 38.578125 41.5 41.3125 42.328125 
Q 44.921875 43.40625 46.75 45.890625 
Q 48.578125 48.390625 48.578125 52.15625 
Q 48.578125 55.71875 46.875 58.421875 
Q 45.171875 61.140625 41.984375 62.140625 
Q 38.8125 63.140625 31.109375 63.140625 
L 16.796875 63.140625 
z
M 16.796875 8.453125 
L 34.625 8.453125 
Q 39.203125 8.453125 41.0625 8.796875 
Q 44.34375 9.375 46.53125 10.734375 
Q 48.734375 12.109375 50.140625 14.71875 
Q 51.5625 17.328125 51.5625 20.75 
Q 51.5625 24.75 49.515625 27.703125 
Q 47.46875 30.671875 43.828125 31.859375 
Q 40.1875 33.0625 33.34375 33.0625 
L 16.796875 33.0625 
z
" id="ArialMT-42"/>
     <path d="M 25.921875 0 
L 25.921875 63.140625 
L 2.34375 63.140625 
L 2.34375 71.578125 
L 59.078125 71.578125 
L 59.078125 63.140625 
L 35.40625 63.140625 
L 35.40625 0 
z
" id="ArialMT-54"/>
     <path d="M 7.328125 0 
L 7.328125 71.578125 
L 16.796875 71.578125 
L 16.796875 8.453125 
L 52.046875 8.453125 
L 52.046875 0 
z
" id="ArialMT-4c"/>
     <path d="M 7.625 0 
L 7.625 71.578125 
L 17.328125 71.578125 
L 54.9375 15.375 
L 54.9375 71.578125 
L 64.015625 71.578125 
L 64.015625 0 
L 54.296875 0 
L 16.703125 56.25 
L 16.703125 0 
z
" id="ArialMT-4e"/>
     <path d="M 21 0 
L 1.265625 51.859375 
L 10.546875 51.859375 
L 21.6875 20.796875 
Q 23.484375 15.765625 25 10.359375 
Q 26.171875 14.453125 28.265625 20.21875 
L 39.796875 51.859375 
L 48.828125 51.859375 
L 29.203125 0 
z
" id="ArialMT-76"/>
     <path d="M 16.15625 0 
L 0.296875 51.859375 
L 9.375 51.859375 
L 17.625 21.921875 
L 20.703125 10.796875 
Q 20.90625 11.625 23.390625 21.484375 
L 31.640625 51.859375 
L 40.671875 51.859375 
L 48.4375 21.78125 
L 51.03125 11.859375 
L 54 21.875 
L 62.890625 51.859375 
L 71.4375 51.859375 
L 55.21875 0 
L 46.09375 0 
L 37.84375 31.0625 
L 35.84375 39.890625 
L 25.34375 0 
z
" id="ArialMT-77"/>
    </defs>
    <g style="fill:#262626;" transform="translate(219.170625 34.6)scale(0.12 -0.12)">
     <use xlink:href="#ArialMT-42"/>
     <use x="66.69921875" xlink:href="#ArialMT-36"/>
     <use x="122.314453125" xlink:href="#ArialMT-20"/>
     <use x="150.09765625" xlink:href="#ArialMT-31"/>
     <use x="205.712890625" xlink:href="#ArialMT-34"/>
     <use x="261.328125" xlink:href="#ArialMT-77"/>
     <use x="333.544921875" xlink:href="#ArialMT-6b"/>
     <use x="383.544921875" xlink:href="#ArialMT-73"/>
     <use x="433.544921875" xlink:href="#ArialMT-20"/>
     <use x="461.328125" xlink:href="#ArialMT-6e"/>
     <use x="516.943359375" xlink:href="#ArialMT-61"/>
     <use x="572.55859375" xlink:href="#ArialMT-69"/>
     <use x="594.775390625" xlink:href="#ArialMT-76"/>
     <use x="644.775390625" xlink:href="#ArialMT-65"/>
     <use x="700.390625" xlink:href="#ArialMT-20"/>
     <use x="728.158203125" xlink:href="#ArialMT-54"/>
     <use x="789.2421875" xlink:href="#ArialMT-68"/>
     <use x="844.857421875" xlink:href="#ArialMT-6f"/>
     <use x="900.47265625" xlink:href="#ArialMT-72"/>
     <use x="933.7734375" xlink:href="#ArialMT-61"/>
     <use x="989.388671875" xlink:href="#ArialMT-63"/>
     <use x="1039.38867188" xlink:href="#ArialMT-69"/>
     <use x="1061.60546875" xlink:href="#ArialMT-63"/>
     <use x="1111.60546875" xlink:href="#ArialMT-20"/>
     <use x="1139.38867188" xlink:href="#ArialMT-4c"/>
     <use x="1195.00390625" xlink:href="#ArialMT-4e"/>
    </g>
   </g>
   <g id="legend_1">
    <g id="line2d_25">
     <path d="M 390.235937 52.257812 
L 410.235937 52.257812 
" style="fill:none;stroke:#808080;stroke-linecap:round;stroke-width:3.0;"/>
    </g>
    <g id="line2d_26"/>
    <g id="text_15">
     <!-- mean threshold: 122 -->
     <defs>
      <path d="M 25.78125 7.859375 
L 27.046875 0.09375 
Q 23.34375 -0.6875 20.40625 -0.6875 
Q 15.625 -0.6875 12.984375 0.828125 
Q 10.359375 2.34375 9.28125 4.8125 
Q 8.203125 7.28125 8.203125 15.1875 
L 8.203125 45.015625 
L 1.765625 45.015625 
L 1.765625 51.859375 
L 8.203125 51.859375 
L 8.203125 64.703125 
L 16.9375 69.96875 
L 16.9375 51.859375 
L 25.78125 51.859375 
L 25.78125 45.015625 
L 16.9375 45.015625 
L 16.9375 14.703125 
Q 16.9375 10.9375 17.40625 9.859375 
Q 17.875 8.796875 18.921875 8.15625 
Q 19.96875 7.515625 21.921875 7.515625 
Q 23.390625 7.515625 25.78125 7.859375 
" id="ArialMT-74"/>
      <path d="M 9.03125 41.84375 
L 9.03125 51.859375 
L 19.046875 51.859375 
L 19.046875 41.84375 
z
M 9.03125 0 
L 9.03125 10.015625 
L 19.046875 10.015625 
L 19.046875 0 
z
" id="ArialMT-3a"/>
     </defs>
     <g style="fill:#262626;" transform="translate(418.2359375 55.7578125)scale(0.1 -0.1)">
      <use xlink:href="#ArialMT-6d"/>
      <use x="83.30078125" xlink:href="#ArialMT-65"/>
      <use x="138.916015625" xlink:href="#ArialMT-61"/>
      <use x="194.53125" xlink:href="#ArialMT-6e"/>
      <use x="250.146484375" xlink:href="#ArialMT-20"/>
      <use x="277.9296875" xlink:href="#ArialMT-74"/>
      <use x="305.712890625" xlink:href="#ArialMT-68"/>
      <use x="361.328125" xlink:href="#ArialMT-72"/>
      <use x="394.62890625" xlink:href="#ArialMT-65"/>
      <use x="450.244140625" xlink:href="#ArialMT-73"/>
      <use x="500.244140625" xlink:href="#ArialMT-68"/>
      <use x="555.859375" xlink:href="#ArialMT-6f"/>
      <use x="611.474609375" xlink:href="#ArialMT-6c"/>
      <use x="633.69140625" xlink:href="#ArialMT-64"/>
      <use x="689.306640625" xlink:href="#ArialMT-3a"/>
      <use x="717.08984375" xlink:href="#ArialMT-20"/>
      <use x="744.873046875" xlink:href="#ArialMT-31"/>
      <use x="800.48828125" xlink:href="#ArialMT-32"/>
      <use x="856.103515625" xlink:href="#ArialMT-32"/>
     </g>
    </g>
    <g id="line2d_27">
     <path d="M 390.235937 66.403125 
L 410.235937 66.403125 
" style="fill:none;opacity:0.4;stroke:#2c5ebf;stroke-linecap:round;stroke-width:2.0;"/>
    </g>
    <g id="line2d_28"/>
    <g id="text_16">
     <!-- mouse 1: 165 -->
     <defs>
      <path d="M 4.15625 18.75 
L 13.375 19.53125 
Q 14.40625 12.796875 18.140625 9.390625 
Q 21.875 6 27.15625 6 
Q 33.5 6 37.890625 10.78125 
Q 42.28125 15.578125 42.28125 23.484375 
Q 42.28125 31 38.0625 35.34375 
Q 33.84375 39.703125 27 39.703125 
Q 22.75 39.703125 19.328125 37.765625 
Q 15.921875 35.84375 13.96875 32.765625 
L 5.71875 33.84375 
L 12.640625 70.609375 
L 48.25 70.609375 
L 48.25 62.203125 
L 19.671875 62.203125 
L 15.828125 42.96875 
Q 22.265625 47.46875 29.34375 47.46875 
Q 38.71875 47.46875 45.15625 40.96875 
Q 51.609375 34.46875 51.609375 24.265625 
Q 51.609375 14.546875 45.953125 7.46875 
Q 39.0625 -1.21875 27.15625 -1.21875 
Q 17.390625 -1.21875 11.203125 4.25 
Q 5.03125 9.71875 4.15625 18.75 
" id="ArialMT-35"/>
     </defs>
     <g style="fill:#262626;" transform="translate(418.2359375 69.903125)scale(0.1 -0.1)">
      <use xlink:href="#ArialMT-6d"/>
      <use x="83.30078125" xlink:href="#ArialMT-6f"/>
      <use x="138.916015625" xlink:href="#ArialMT-75"/>
      <use x="194.53125" xlink:href="#ArialMT-73"/>
      <use x="244.53125" xlink:href="#ArialMT-65"/>
      <use x="300.146484375" xlink:href="#ArialMT-20"/>
      <use x="327.9296875" xlink:href="#ArialMT-31"/>
      <use x="383.544921875" xlink:href="#ArialMT-3a"/>
      <use x="411.328125" xlink:href="#ArialMT-20"/>
      <use x="439.111328125" xlink:href="#ArialMT-31"/>
      <use x="494.7265625" xlink:href="#ArialMT-36"/>
      <use x="550.341796875" xlink:href="#ArialMT-35"/>
     </g>
    </g>
    <g id="line2d_29">
     <path d="M 390.235937 80.548437 
L 410.235937 80.548437 
" style="fill:none;opacity:0.4;stroke:#ff1313;stroke-linecap:round;stroke-width:2.0;"/>
    </g>
    <g id="line2d_30"/>
    <g id="text_17">
     <!-- mouse 2: 5 -->
     <g style="fill:#262626;" transform="translate(418.2359375 84.0484375)scale(0.1 -0.1)">
      <use xlink:href="#ArialMT-6d"/>
      <use x="83.30078125" xlink:href="#ArialMT-6f"/>
      <use x="138.916015625" xlink:href="#ArialMT-75"/>
      <use x="194.53125" xlink:href="#ArialMT-73"/>
      <use x="244.53125" xlink:href="#ArialMT-65"/>
      <use x="300.146484375" xlink:href="#ArialMT-20"/>
      <use x="327.9296875" xlink:href="#ArialMT-32"/>
      <use x="383.544921875" xlink:href="#ArialMT-3a"/>
      <use x="411.328125" xlink:href="#ArialMT-20"/>
      <use x="439.111328125" xlink:href="#ArialMT-35"/>
     </g>
    </g>
    <g id="line2d_31">
     <path d="M 390.235937 94.69375 
L 410.235937 94.69375 
" style="fill:none;opacity:0.4;stroke:#f7b02a;stroke-linecap:round;stroke-width:2.0;"/>
    </g>
    <g id="line2d_32"/>
    <g id="text_18">
     <!-- mouse 3: 146 -->
     <defs>
      <path d="M 4.203125 18.890625 
L 12.984375 20.0625 
Q 14.5 12.59375 18.140625 9.296875 
Q 21.78125 6 27 6 
Q 33.203125 6 37.46875 10.296875 
Q 41.75 14.59375 41.75 20.953125 
Q 41.75 27 37.796875 30.921875 
Q 33.84375 34.859375 27.734375 34.859375 
Q 25.25 34.859375 21.53125 33.890625 
L 22.515625 41.609375 
Q 23.390625 41.5 23.921875 41.5 
Q 29.546875 41.5 34.03125 44.421875 
Q 38.53125 47.359375 38.53125 53.46875 
Q 38.53125 58.296875 35.25 61.46875 
Q 31.984375 64.65625 26.8125 64.65625 
Q 21.6875 64.65625 18.265625 61.421875 
Q 14.84375 58.203125 13.875 51.765625 
L 5.078125 53.328125 
Q 6.6875 62.15625 12.390625 67.015625 
Q 18.109375 71.875 26.609375 71.875 
Q 32.46875 71.875 37.390625 69.359375 
Q 42.328125 66.84375 44.9375 62.5 
Q 47.5625 58.15625 47.5625 53.265625 
Q 47.5625 48.640625 45.0625 44.828125 
Q 42.578125 41.015625 37.703125 38.765625 
Q 44.046875 37.3125 47.5625 32.6875 
Q 51.078125 28.078125 51.078125 21.140625 
Q 51.078125 11.765625 44.234375 5.25 
Q 37.40625 -1.265625 26.953125 -1.265625 
Q 17.53125 -1.265625 11.296875 4.34375 
Q 5.078125 9.96875 4.203125 18.890625 
" id="ArialMT-33"/>
     </defs>
     <g style="fill:#262626;" transform="translate(418.2359375 98.19375)scale(0.1 -0.1)">
      <use xlink:href="#ArialMT-6d"/>
      <use x="83.30078125" xlink:href="#ArialMT-6f"/>
      <use x="138.916015625" xlink:href="#ArialMT-75"/>
      <use x="194.53125" xlink:href="#ArialMT-73"/>
      <use x="244.53125" xlink:href="#ArialMT-65"/>
      <use x="300.146484375" xlink:href="#ArialMT-20"/>
      <use x="327.9296875" xlink:href="#ArialMT-33"/>
      <use x="383.544921875" xlink:href="#ArialMT-3a"/>
      <use x="411.328125" xlink:href="#ArialMT-20"/>
      <use x="439.111328125" xlink:href="#ArialMT-31"/>
      <use x="494.7265625" xlink:href="#ArialMT-34"/>
      <use x="550.341796875" xlink:href="#ArialMT-36"/>
     </g>
    </g>
    <g id="line2d_33">
     <path d="M 390.235937 108.839063 
L 410.235937 108.839063 
" style="fill:none;opacity:0.4;stroke:#02b72a;stroke-linecap:round;stroke-width:2.0;"/>
    </g>
    <g id="line2d_34"/>
    <g id="text_19">
     <!-- mouse 4: 113 -->
     <g style="fill:#262626;" transform="translate(418.2359375 112.3390625)scale(0.1 -0.1)">
      <use xlink:href="#ArialMT-6d"/>
      <use x="83.30078125" xlink:href="#ArialMT-6f"/>
      <use x="138.916015625" xlink:href="#ArialMT-75"/>
      <use x="194.53125" xlink:href="#ArialMT-73"/>
      <use x="244.53125" xlink:href="#ArialMT-65"/>
      <use x="300.146484375" xlink:href="#ArialMT-20"/>
      <use x="327.9296875" xlink:href="#ArialMT-34"/>
      <use x="383.544921875" xlink:href="#ArialMT-3a"/>
      <use x="411.328125" xlink:href="#ArialMT-20"/>
      <use x="439.111328125" xlink:href="#ArialMT-31"/>
      <use x="494.6171875" xlink:href="#ArialMT-31"/>
      <use x="550.232421875" xlink:href="#ArialMT-33"/>
     </g>
    </g>
    <g id="line2d_35">
     <path d="M 390.235937 122.984375 
L 410.235937 122.984375 
" style="fill:none;opacity:0.4;stroke:#009e9e;stroke-linecap:round;stroke-width:2.0;"/>
    </g>
    <g id="line2d_36"/>
    <g id="text_20">
     <!-- mouse 5: 137 -->
     <defs>
      <path d="M 4.734375 62.203125 
L 4.734375 70.65625 
L 51.078125 70.65625 
L 51.078125 63.8125 
Q 44.234375 56.546875 37.515625 44.484375 
Q 30.8125 32.421875 27.15625 19.671875 
Q 24.515625 10.6875 23.78125 0 
L 14.75 0 
Q 14.890625 8.453125 18.0625 20.40625 
Q 21.234375 32.375 27.171875 43.484375 
Q 33.109375 54.59375 39.796875 62.203125 
z
" id="ArialMT-37"/>
     </defs>
     <g style="fill:#262626;" transform="translate(418.2359375 126.484375)scale(0.1 -0.1)">
      <use xlink:href="#ArialMT-6d"/>
      <use x="83.30078125" xlink:href="#ArialMT-6f"/>
      <use x="138.916015625" xlink:href="#ArialMT-75"/>
      <use x="194.53125" xlink:href="#ArialMT-73"/>
      <use x="244.53125" xlink:href="#ArialMT-65"/>
      <use x="300.146484375" xlink:href="#ArialMT-20"/>
      <use x="327.9296875" xlink:href="#ArialMT-35"/>
      <use x="383.544921875" xlink:href="#ArialMT-3a"/>
      <use x="411.328125" xlink:href="#ArialMT-20"/>
      <use x="439.111328125" xlink:href="#ArialMT-31"/>
      <use x="494.7265625" xlink:href="#ArialMT-33"/>
      <use x="550.341796875" xlink:href="#ArialMT-37"/>
     </g>
    </g>
    <g id="line2d_37">
     <path d="M 390.235937 137.129687 
L 410.235937 137.129687 
" style="fill:none;opacity:0.4;stroke:#1d1aa9;stroke-linecap:round;stroke-width:2.0;"/>
    </g>
    <g id="line2d_38"/>
    <g id="text_21">
     <!-- mouse 6: 170 -->
     <g style="fill:#262626;" transform="translate(418.2359375 140.6296875)scale(0.1 -0.1)">
      <use xlink:href="#ArialMT-6d"/>
      <use x="83.30078125" xlink:href="#ArialMT-6f"/>
      <use x="138.916015625" xlink:href="#ArialMT-75"/>
      <use x="194.53125" xlink:href="#ArialMT-73"/>
      <use x="244.53125" xlink:href="#ArialMT-65"/>
      <use x="300.146484375" xlink:href="#ArialMT-20"/>
      <use x="327.9296875" xlink:href="#ArialMT-36"/>
      <use x="383.544921875" xlink:href="#ArialMT-3a"/>
      <use x="411.328125" xlink:href="#ArialMT-20"/>
      <use x="439.111328125" xlink:href="#ArialMT-31"/>
      <use x="494.7265625" xlink:href="#ArialMT-37"/>
      <use x="550.341796875" xlink:href="#ArialMT-30"/>
     </g>
    </g>
   </g>
  </g>
 </g>
 <defs>
  <clipPath id="p6ef4c57072">
   <rect height="306.9" width="446.4" x="72.0" y="39.6"/>
  </clipPath>
 </defs>
</svg>
