<?xml version="1.0" encoding="utf-8" standalone="no"?>
<!DOCTYPE svg PUBLIC "-//W3C//DTD SVG 1.1//EN"
  "http://www.w3.org/Graphics/SVG/1.1/DTD/svg11.dtd">
<!-- Created with matplotlib (http://matplotlib.org/) -->
<svg height="396pt" version="1.1" viewBox="0 0 576 396" width="576pt" xmlns="http://www.w3.org/2000/svg" xmlns:xlink="http://www.w3.org/1999/xlink">
 <defs>
  <style type="text/css">
*{stroke-linecap:butt;stroke-linejoin:round;stroke-miterlimit:100000;}
  </style>
 </defs>
 <g id="figure_1">
  <g id="patch_1">
   <path d="M 0 396 
L 576 396 
L 576 0 
L 0 0 
z
" style="fill:#ffffff;"/>
  </g>
  <g id="axes_1">
   <g id="patch_2">
    <path d="M 72 346.5 
L 518.4 346.5 
L 518.4 39.6 
L 72 39.6 
z
" style="fill:#ffffff;"/>
   </g>
   <g id="matplotlib.axis_1">
    <g id="xtick_1">
     <g id="line2d_1">
      <defs>
       <path d="M 0 0 
L 0 5 
" id="m70b9197c91" style="stroke:#262626;"/>
      </defs>
      <g>
       <use style="fill:#262626;stroke:#262626;" x="74.2231075697" xlink:href="#m70b9197c91" y="346.5"/>
      </g>
     </g>
     <g id="text_1">
      <!-- 0 -->
      <defs>
       <path d="M 4.15625 35.296875 
Q 4.15625 48 6.765625 55.734375 
Q 9.375 63.484375 14.515625 67.671875 
Q 19.671875 71.875 27.484375 71.875 
Q 33.25 71.875 37.59375 69.546875 
Q 41.9375 67.234375 44.765625 62.859375 
Q 47.609375 58.5 49.21875 52.21875 
Q 50.828125 45.953125 50.828125 35.296875 
Q 50.828125 22.703125 48.234375 14.96875 
Q 45.65625 7.234375 40.5 3 
Q 35.359375 -1.21875 27.484375 -1.21875 
Q 17.140625 -1.21875 11.234375 6.203125 
Q 4.15625 15.140625 4.15625 35.296875 
M 13.1875 35.296875 
Q 13.1875 17.671875 17.3125 11.828125 
Q 21.4375 6 27.484375 6 
Q 33.546875 6 37.671875 11.859375 
Q 41.796875 17.71875 41.796875 35.296875 
Q 41.796875 52.984375 37.671875 58.78125 
Q 33.546875 64.59375 27.390625 64.59375 
Q 21.34375 64.59375 17.71875 59.46875 
Q 13.1875 52.9375 13.1875 35.296875 
" id="ArialMT-30"/>
      </defs>
      <g style="fill:#262626;" transform="translate(71.4426388197 360.6578125)scale(0.1 -0.1)">
       <use xlink:href="#ArialMT-30"/>
      </g>
     </g>
    </g>
    <g id="xtick_2">
     <g id="line2d_2">
      <g>
       <use style="fill:#262626;stroke:#262626;" x="185.378486056" xlink:href="#m70b9197c91" y="346.5"/>
      </g>
     </g>
     <g id="text_2">
      <!-- 500 -->
      <defs>
       <path d="M 4.15625 18.75 
L 13.375 19.53125 
Q 14.40625 12.796875 18.140625 9.390625 
Q 21.875 6 27.15625 6 
Q 33.5 6 37.890625 10.78125 
Q 42.28125 15.578125 42.28125 23.484375 
Q 42.28125 31 38.0625 35.34375 
Q 33.84375 39.703125 27 39.703125 
Q 22.75 39.703125 19.328125 37.765625 
Q 15.921875 35.84375 13.96875 32.765625 
L 5.71875 33.84375 
L 12.640625 70.609375 
L 48.25 70.609375 
L 48.25 62.203125 
L 19.671875 62.203125 
L 15.828125 42.96875 
Q 22.265625 47.46875 29.34375 47.46875 
Q 38.71875 47.46875 45.15625 40.96875 
Q 51.609375 34.46875 51.609375 24.265625 
Q 51.609375 14.546875 45.953125 7.46875 
Q 39.0625 -1.21875 27.15625 -1.21875 
Q 17.390625 -1.21875 11.203125 4.25 
Q 5.03125 9.71875 4.15625 18.75 
" id="ArialMT-35"/>
      </defs>
      <g style="fill:#262626;" transform="translate(177.037079806 360.6578125)scale(0.1 -0.1)">
       <use xlink:href="#ArialMT-35"/>
       <use x="55.615234375" xlink:href="#ArialMT-30"/>
       <use x="111.23046875" xlink:href="#ArialMT-30"/>
      </g>
     </g>
    </g>
    <g id="xtick_3">
     <g id="line2d_3">
      <g>
       <use style="fill:#262626;stroke:#262626;" x="296.533864542" xlink:href="#m70b9197c91" y="346.5"/>
      </g>
     </g>
     <g id="text_3">
      <!-- 1000 -->
      <defs>
       <path d="M 37.25 0 
L 28.46875 0 
L 28.46875 56 
Q 25.296875 52.984375 20.140625 49.953125 
Q 14.984375 46.921875 10.890625 45.40625 
L 10.890625 53.90625 
Q 18.265625 57.375 23.78125 62.296875 
Q 29.296875 67.234375 31.59375 71.875 
L 37.25 71.875 
z
" id="ArialMT-31"/>
      </defs>
      <g style="fill:#262626;" transform="translate(285.411989542 360.6578125)scale(0.1 -0.1)">
       <use xlink:href="#ArialMT-31"/>
       <use x="55.615234375" xlink:href="#ArialMT-30"/>
       <use x="111.23046875" xlink:href="#ArialMT-30"/>
       <use x="166.845703125" xlink:href="#ArialMT-30"/>
      </g>
     </g>
    </g>
    <g id="xtick_4">
     <g id="line2d_4">
      <g>
       <use style="fill:#262626;stroke:#262626;" x="407.689243028" xlink:href="#m70b9197c91" y="346.5"/>
      </g>
     </g>
     <g id="text_4">
      <!-- 1500 -->
      <g style="fill:#262626;" transform="translate(396.567368028 360.6578125)scale(0.1 -0.1)">
       <use xlink:href="#ArialMT-31"/>
       <use x="55.615234375" xlink:href="#ArialMT-35"/>
       <use x="111.23046875" xlink:href="#ArialMT-30"/>
       <use x="166.845703125" xlink:href="#ArialMT-30"/>
      </g>
     </g>
    </g>
    <g id="xtick_5">
     <g id="text_5">
      <!-- 2000 -->
      <defs>
       <path d="M 50.34375 8.453125 
L 50.34375 0 
L 3.03125 0 
Q 2.9375 3.171875 4.046875 6.109375 
Q 5.859375 10.9375 9.828125 15.625 
Q 13.8125 20.3125 21.34375 26.46875 
Q 33.015625 36.03125 37.109375 41.625 
Q 41.21875 47.21875 41.21875 52.203125 
Q 41.21875 57.421875 37.46875 61 
Q 33.734375 64.59375 27.734375 64.59375 
Q 21.390625 64.59375 17.578125 60.78125 
Q 13.765625 56.984375 13.71875 50.25 
L 4.6875 51.171875 
Q 5.609375 61.28125 11.65625 66.578125 
Q 17.71875 71.875 27.9375 71.875 
Q 38.234375 71.875 44.234375 66.15625 
Q 50.25 60.453125 50.25 52 
Q 50.25 47.703125 48.484375 43.546875 
Q 46.734375 39.40625 42.65625 34.8125 
Q 38.578125 30.21875 29.109375 22.21875 
Q 21.1875 15.578125 18.9375 13.203125 
Q 16.703125 10.84375 15.234375 8.453125 
z
" id="ArialMT-32"/>
      </defs>
      <g style="fill:#262626;" transform="translate(507.722746514 360.6578125)scale(0.1 -0.1)">
       <use xlink:href="#ArialMT-32"/>
       <use x="55.615234375" xlink:href="#ArialMT-30"/>
       <use x="111.23046875" xlink:href="#ArialMT-30"/>
       <use x="166.845703125" xlink:href="#ArialMT-30"/>
      </g>
     </g>
    </g>
    <g id="text_6">
     <!-- barcode, rank-ordered -->
     <defs>
      <path d="M 40.4375 19 
L 49.078125 17.875 
Q 47.65625 8.9375 41.8125 3.875 
Q 35.984375 -1.171875 27.484375 -1.171875 
Q 16.84375 -1.171875 10.375 5.78125 
Q 3.90625 12.75 3.90625 25.734375 
Q 3.90625 34.125 6.6875 40.421875 
Q 9.46875 46.734375 15.15625 49.875 
Q 20.84375 53.03125 27.546875 53.03125 
Q 35.984375 53.03125 41.359375 48.75 
Q 46.734375 44.484375 48.25 36.625 
L 39.703125 35.296875 
Q 38.484375 40.53125 35.375 43.15625 
Q 32.28125 45.796875 27.875 45.796875 
Q 21.234375 45.796875 17.078125 41.03125 
Q 12.9375 36.28125 12.9375 25.984375 
Q 12.9375 15.53125 16.9375 10.796875 
Q 20.953125 6.0625 27.390625 6.0625 
Q 32.5625 6.0625 36.03125 9.234375 
Q 39.5 12.40625 40.4375 19 
" id="ArialMT-63"/>
      <path d="M 14.703125 0 
L 6.546875 0 
L 6.546875 71.578125 
L 15.328125 71.578125 
L 15.328125 46.046875 
Q 20.90625 53.03125 29.546875 53.03125 
Q 34.328125 53.03125 38.59375 51.09375 
Q 42.875 49.171875 45.625 45.671875 
Q 48.390625 42.1875 49.953125 37.25 
Q 51.515625 32.328125 51.515625 26.703125 
Q 51.515625 13.375 44.921875 6.09375 
Q 38.328125 -1.171875 29.109375 -1.171875 
Q 19.921875 -1.171875 14.703125 6.5 
z
M 14.59375 26.3125 
Q 14.59375 17 17.140625 12.84375 
Q 21.296875 6.0625 28.375 6.0625 
Q 34.125 6.0625 38.328125 11.0625 
Q 42.53125 16.0625 42.53125 25.984375 
Q 42.53125 36.140625 38.5 40.96875 
Q 34.46875 45.796875 28.765625 45.796875 
Q 23 45.796875 18.796875 40.796875 
Q 14.59375 35.796875 14.59375 26.3125 
" id="ArialMT-62"/>
      <path d="M 40.4375 6.390625 
Q 35.546875 2.25 31.03125 0.53125 
Q 26.515625 -1.171875 21.34375 -1.171875 
Q 12.796875 -1.171875 8.203125 3 
Q 3.609375 7.171875 3.609375 13.671875 
Q 3.609375 17.484375 5.34375 20.625 
Q 7.078125 23.78125 9.890625 25.6875 
Q 12.703125 27.59375 16.21875 28.5625 
Q 18.796875 29.25 24.03125 29.890625 
Q 34.671875 31.15625 39.703125 32.90625 
Q 39.75 34.71875 39.75 35.203125 
Q 39.75 40.578125 37.25 42.78125 
Q 33.890625 45.75 27.25 45.75 
Q 21.046875 45.75 18.09375 43.578125 
Q 15.140625 41.40625 13.71875 35.890625 
L 5.125 37.0625 
Q 6.296875 42.578125 8.984375 45.96875 
Q 11.671875 49.359375 16.75 51.1875 
Q 21.828125 53.03125 28.515625 53.03125 
Q 35.15625 53.03125 39.296875 51.46875 
Q 43.453125 49.90625 45.40625 47.53125 
Q 47.359375 45.171875 48.140625 41.546875 
Q 48.578125 39.3125 48.578125 33.453125 
L 48.578125 21.734375 
Q 48.578125 9.46875 49.140625 6.21875 
Q 49.703125 2.984375 51.375 0 
L 42.1875 0 
Q 40.828125 2.734375 40.4375 6.390625 
M 39.703125 26.03125 
Q 34.90625 24.078125 25.34375 22.703125 
Q 19.921875 21.921875 17.671875 20.9375 
Q 15.4375 19.96875 14.203125 18.09375 
Q 12.984375 16.21875 12.984375 13.921875 
Q 12.984375 10.40625 15.640625 8.0625 
Q 18.3125 5.71875 23.4375 5.71875 
Q 28.515625 5.71875 32.46875 7.9375 
Q 36.421875 10.15625 38.28125 14.015625 
Q 39.703125 17 39.703125 22.796875 
z
" id="ArialMT-61"/>
      <path d="M 42.09375 16.703125 
L 51.171875 15.578125 
Q 49.03125 7.625 43.21875 3.21875 
Q 37.40625 -1.171875 28.375 -1.171875 
Q 17 -1.171875 10.328125 5.828125 
Q 3.65625 12.84375 3.65625 25.484375 
Q 3.65625 38.578125 10.390625 45.796875 
Q 17.140625 53.03125 27.875 53.03125 
Q 38.28125 53.03125 44.875 45.953125 
Q 51.46875 38.875 51.46875 26.03125 
Q 51.46875 25.25 51.421875 23.6875 
L 12.75 23.6875 
Q 13.234375 15.140625 17.578125 10.59375 
Q 21.921875 6.0625 28.421875 6.0625 
Q 33.25 6.0625 36.671875 8.59375 
Q 40.09375 11.140625 42.09375 16.703125 
M 13.234375 30.90625 
L 42.1875 30.90625 
Q 41.609375 37.453125 38.875 40.71875 
Q 34.671875 45.796875 27.984375 45.796875 
Q 21.921875 45.796875 17.796875 41.75 
Q 13.671875 37.703125 13.234375 30.90625 
" id="ArialMT-65"/>
      <path d="M 40.234375 0 
L 40.234375 6.546875 
Q 35.296875 -1.171875 25.734375 -1.171875 
Q 19.53125 -1.171875 14.328125 2.25 
Q 9.125 5.671875 6.265625 11.796875 
Q 3.421875 17.921875 3.421875 25.875 
Q 3.421875 33.640625 6 39.96875 
Q 8.59375 46.296875 13.765625 49.65625 
Q 18.953125 53.03125 25.34375 53.03125 
Q 30.03125 53.03125 33.6875 51.046875 
Q 37.359375 49.078125 39.65625 45.90625 
L 39.65625 71.578125 
L 48.390625 71.578125 
L 48.390625 0 
z
M 12.453125 25.875 
Q 12.453125 15.921875 16.640625 10.984375 
Q 20.84375 6.0625 26.5625 6.0625 
Q 32.328125 6.0625 36.34375 10.765625 
Q 40.375 15.484375 40.375 25.140625 
Q 40.375 35.796875 36.265625 40.765625 
Q 32.171875 45.75 26.171875 45.75 
Q 20.3125 45.75 16.375 40.96875 
Q 12.453125 36.1875 12.453125 25.875 
" id="ArialMT-64"/>
      <path d="M 3.171875 21.484375 
L 3.171875 30.328125 
L 30.171875 30.328125 
L 30.171875 21.484375 
z
" id="ArialMT-2d"/>
      <path d="M 8.890625 0 
L 8.890625 10.015625 
L 18.890625 10.015625 
L 18.890625 0 
Q 18.890625 -5.515625 16.9375 -8.90625 
Q 14.984375 -12.3125 10.75 -14.15625 
L 8.296875 -10.40625 
Q 11.078125 -9.1875 12.390625 -6.8125 
Q 13.71875 -4.4375 13.875 0 
z
" id="ArialMT-2c"/>
      <path d="M 6.5 0 
L 6.5 51.859375 
L 14.40625 51.859375 
L 14.40625 44 
Q 17.4375 49.515625 20 51.265625 
Q 22.5625 53.03125 25.640625 53.03125 
Q 30.078125 53.03125 34.671875 50.203125 
L 31.640625 42.046875 
Q 28.421875 43.953125 25.203125 43.953125 
Q 22.3125 43.953125 20.015625 42.21875 
Q 17.71875 40.484375 16.75 37.40625 
Q 15.28125 32.71875 15.28125 27.15625 
L 15.28125 0 
z
" id="ArialMT-72"/>
      <path d="M 6.640625 0 
L 6.640625 71.578125 
L 15.4375 71.578125 
L 15.4375 30.765625 
L 36.234375 51.859375 
L 47.609375 51.859375 
L 27.78125 32.625 
L 49.609375 0 
L 38.765625 0 
L 21.625 26.515625 
L 15.4375 20.5625 
L 15.4375 0 
z
" id="ArialMT-6b"/>
      <path d="M 3.328125 25.921875 
Q 3.328125 40.328125 11.328125 47.265625 
Q 18.015625 53.03125 27.640625 53.03125 
Q 38.328125 53.03125 45.109375 46.015625 
Q 51.90625 39.015625 51.90625 26.65625 
Q 51.90625 16.65625 48.90625 10.90625 
Q 45.90625 5.171875 40.15625 2 
Q 34.421875 -1.171875 27.640625 -1.171875 
Q 16.75 -1.171875 10.03125 5.8125 
Q 3.328125 12.796875 3.328125 25.921875 
M 12.359375 25.921875 
Q 12.359375 15.96875 16.703125 11.015625 
Q 21.046875 6.0625 27.640625 6.0625 
Q 34.1875 6.0625 38.53125 11.03125 
Q 42.875 16.015625 42.875 26.21875 
Q 42.875 35.84375 38.5 40.796875 
Q 34.125 45.75 27.640625 45.75 
Q 21.046875 45.75 16.703125 40.8125 
Q 12.359375 35.890625 12.359375 25.921875 
" id="ArialMT-6f"/>
      <path d="M 6.59375 0 
L 6.59375 51.859375 
L 14.5 51.859375 
L 14.5 44.484375 
Q 20.21875 53.03125 31 53.03125 
Q 35.6875 53.03125 39.625 51.34375 
Q 43.5625 49.65625 45.515625 46.921875 
Q 47.46875 44.1875 48.25 40.4375 
Q 48.734375 37.984375 48.734375 31.890625 
L 48.734375 0 
L 39.9375 0 
L 39.9375 31.546875 
Q 39.9375 36.921875 38.90625 39.578125 
Q 37.890625 42.234375 35.28125 43.8125 
Q 32.671875 45.40625 29.15625 45.40625 
Q 23.53125 45.40625 19.453125 41.84375 
Q 15.375 38.28125 15.375 28.328125 
L 15.375 0 
z
" id="ArialMT-6e"/>
      <path id="ArialMT-20"/>
     </defs>
     <g style="fill:#262626;" transform="translate(240.785234375 375.51890625)scale(0.11 -0.11)">
      <use xlink:href="#ArialMT-62"/>
      <use x="55.615234375" xlink:href="#ArialMT-61"/>
      <use x="111.23046875" xlink:href="#ArialMT-72"/>
      <use x="144.53125" xlink:href="#ArialMT-63"/>
      <use x="194.53125" xlink:href="#ArialMT-6f"/>
      <use x="250.146484375" xlink:href="#ArialMT-64"/>
      <use x="305.76171875" xlink:href="#ArialMT-65"/>
      <use x="361.376953125" xlink:href="#ArialMT-2c"/>
      <use x="389.16015625" xlink:href="#ArialMT-20"/>
      <use x="416.943359375" xlink:href="#ArialMT-72"/>
      <use x="450.244140625" xlink:href="#ArialMT-61"/>
      <use x="505.859375" xlink:href="#ArialMT-6e"/>
      <use x="561.474609375" xlink:href="#ArialMT-6b"/>
      <use x="611.474609375" xlink:href="#ArialMT-2d"/>
      <use x="644.775390625" xlink:href="#ArialMT-6f"/>
      <use x="700.390625" xlink:href="#ArialMT-72"/>
      <use x="733.69140625" xlink:href="#ArialMT-64"/>
      <use x="789.306640625" xlink:href="#ArialMT-65"/>
      <use x="844.921875" xlink:href="#ArialMT-72"/>
      <use x="878.22265625" xlink:href="#ArialMT-65"/>
      <use x="933.837890625" xlink:href="#ArialMT-64"/>
     </g>
    </g>
   </g>
   <g id="matplotlib.axis_2">
    <g id="ytick_1">
     <g id="line2d_5">
      <defs>
       <path d="M 0 0 
L -5 0 
" id="mb59947d147" style="stroke:#262626;"/>
      </defs>
      <g>
       <use style="fill:#262626;stroke:#262626;" x="72.0" xlink:href="#mb59947d147" y="346.5"/>
      </g>
     </g>
     <g id="text_7">
      <!-- 1 -->
      <g style="fill:#262626;" transform="translate(59.4390625 349.08515625)scale(0.1 -0.1)">
       <use xlink:href="#ArialMT-31"/>
      </g>
     </g>
    </g>
    <g id="ytick_2">
     <g id="line2d_6">
      <g>
       <use style="fill:#262626;stroke:#262626;" x="72.0" xlink:href="#mb59947d147" y="275.979063828"/>
      </g>
     </g>
     <g id="text_8">
      <!-- 10 -->
      <g style="fill:#262626;" transform="translate(53.878125 278.564220078)scale(0.1 -0.1)">
       <use xlink:href="#ArialMT-31"/>
       <use x="55.615234375" xlink:href="#ArialMT-30"/>
      </g>
     </g>
    </g>
    <g id="ytick_3">
     <g id="line2d_7">
      <g>
       <use style="fill:#262626;stroke:#262626;" x="72.0" xlink:href="#mb59947d147" y="205.458127656"/>
      </g>
     </g>
     <g id="text_9">
      <!-- 100 -->
      <g style="fill:#262626;" transform="translate(48.3171875 208.043283906)scale(0.1 -0.1)">
       <use xlink:href="#ArialMT-31"/>
       <use x="55.615234375" xlink:href="#ArialMT-30"/>
       <use x="111.23046875" xlink:href="#ArialMT-30"/>
      </g>
     </g>
    </g>
    <g id="ytick_4">
     <g id="line2d_8">
      <g>
       <use style="fill:#262626;stroke:#262626;" x="72.0" xlink:href="#mb59947d147" y="134.937191484"/>
      </g>
     </g>
     <g id="text_10">
      <!-- 1000 -->
      <g style="fill:#262626;" transform="translate(42.75625 137.522347734)scale(0.1 -0.1)">
       <use xlink:href="#ArialMT-31"/>
       <use x="55.615234375" xlink:href="#ArialMT-30"/>
       <use x="111.23046875" xlink:href="#ArialMT-30"/>
       <use x="166.845703125" xlink:href="#ArialMT-30"/>
      </g>
     </g>
    </g>
    <g id="ytick_5">
     <g id="line2d_9">
      <g>
       <use style="fill:#262626;stroke:#262626;" x="72.0" xlink:href="#mb59947d147" y="64.4162553116"/>
      </g>
     </g>
     <g id="text_11">
      <!-- 10000 -->
      <g style="fill:#262626;" transform="translate(37.1953125 67.0014115616)scale(0.1 -0.1)">
       <use xlink:href="#ArialMT-31"/>
       <use x="55.615234375" xlink:href="#ArialMT-30"/>
       <use x="111.23046875" xlink:href="#ArialMT-30"/>
       <use x="166.845703125" xlink:href="#ArialMT-30"/>
       <use x="222.4609375" xlink:href="#ArialMT-30"/>
      </g>
     </g>
    </g>
    <g id="text_12">
     <!-- log10 abundance (# molecules) -->
     <defs>
      <path d="M 4.984375 -4.296875 
L 13.53125 -5.5625 
Q 14.0625 -9.515625 16.5 -11.328125 
Q 19.78125 -13.765625 25.4375 -13.765625 
Q 31.546875 -13.765625 34.859375 -11.328125 
Q 38.1875 -8.890625 39.359375 -4.5 
Q 40.046875 -1.8125 39.984375 6.78125 
Q 34.234375 0 25.640625 0 
Q 14.9375 0 9.078125 7.71875 
Q 3.21875 15.4375 3.21875 26.21875 
Q 3.21875 33.640625 5.90625 39.90625 
Q 8.59375 46.1875 13.6875 49.609375 
Q 18.796875 53.03125 25.6875 53.03125 
Q 34.859375 53.03125 40.828125 45.609375 
L 40.828125 51.859375 
L 48.921875 51.859375 
L 48.921875 7.03125 
Q 48.921875 -5.078125 46.453125 -10.125 
Q 44 -15.1875 38.640625 -18.109375 
Q 33.296875 -21.046875 25.484375 -21.046875 
Q 16.21875 -21.046875 10.5 -16.875 
Q 4.78125 -12.703125 4.984375 -4.296875 
M 12.25 26.859375 
Q 12.25 16.65625 16.296875 11.96875 
Q 20.359375 7.28125 26.46875 7.28125 
Q 32.515625 7.28125 36.609375 11.9375 
Q 40.71875 16.609375 40.71875 26.5625 
Q 40.71875 36.078125 36.5 40.90625 
Q 32.28125 45.75 26.3125 45.75 
Q 20.453125 45.75 16.34375 40.984375 
Q 12.25 36.234375 12.25 26.859375 
" id="ArialMT-67"/>
      <path d="M 40.578125 0 
L 40.578125 7.625 
Q 34.515625 -1.171875 24.125 -1.171875 
Q 19.53125 -1.171875 15.546875 0.578125 
Q 11.578125 2.34375 9.640625 5 
Q 7.71875 7.671875 6.9375 11.53125 
Q 6.390625 14.109375 6.390625 19.734375 
L 6.390625 51.859375 
L 15.1875 51.859375 
L 15.1875 23.09375 
Q 15.1875 16.21875 15.71875 13.8125 
Q 16.546875 10.359375 19.234375 8.375 
Q 21.921875 6.390625 25.875 6.390625 
Q 29.828125 6.390625 33.296875 8.421875 
Q 36.765625 10.453125 38.203125 13.9375 
Q 39.65625 17.4375 39.65625 24.078125 
L 39.65625 51.859375 
L 48.4375 51.859375 
L 48.4375 0 
z
" id="ArialMT-75"/>
      <path d="M 23.390625 -21.046875 
Q 16.109375 -11.859375 11.078125 0.4375 
Q 6.0625 12.75 6.0625 25.921875 
Q 6.0625 37.546875 9.8125 48.1875 
Q 14.203125 60.546875 23.390625 72.796875 
L 29.6875 72.796875 
Q 23.78125 62.640625 21.875 58.296875 
Q 18.890625 51.5625 17.1875 44.234375 
Q 15.09375 35.109375 15.09375 25.875 
Q 15.09375 2.390625 29.6875 -21.046875 
z
" id="ArialMT-28"/>
      <path d="M 3.078125 15.484375 
L 11.765625 16.84375 
Q 12.5 11.625 15.84375 8.84375 
Q 19.1875 6.0625 25.203125 6.0625 
Q 31.25 6.0625 34.171875 8.515625 
Q 37.109375 10.984375 37.109375 14.3125 
Q 37.109375 17.28125 34.515625 19 
Q 32.71875 20.171875 25.53125 21.96875 
Q 15.875 24.421875 12.140625 26.203125 
Q 8.40625 27.984375 6.46875 31.125 
Q 4.546875 34.28125 4.546875 38.09375 
Q 4.546875 41.546875 6.125 44.5 
Q 7.71875 47.46875 10.453125 49.421875 
Q 12.5 50.921875 16.03125 51.96875 
Q 19.578125 53.03125 23.640625 53.03125 
Q 29.734375 53.03125 34.34375 51.265625 
Q 38.96875 49.515625 41.15625 46.5 
Q 43.359375 43.5 44.1875 38.484375 
L 35.59375 37.3125 
Q 35.015625 41.3125 32.203125 43.546875 
Q 29.390625 45.796875 24.265625 45.796875 
Q 18.21875 45.796875 15.625 43.796875 
Q 13.03125 41.796875 13.03125 39.109375 
Q 13.03125 37.40625 14.109375 36.03125 
Q 15.1875 34.625 17.484375 33.6875 
Q 18.796875 33.203125 25.25 31.453125 
Q 34.578125 28.953125 38.25 27.359375 
Q 41.9375 25.78125 44.03125 22.75 
Q 46.140625 19.734375 46.140625 15.234375 
Q 46.140625 10.84375 43.578125 6.953125 
Q 41.015625 3.078125 36.171875 0.953125 
Q 31.34375 -1.171875 25.25 -1.171875 
Q 15.140625 -1.171875 9.84375 3.03125 
Q 4.546875 7.234375 3.078125 15.484375 
" id="ArialMT-73"/>
      <path d="M 6.390625 0 
L 6.390625 71.578125 
L 15.1875 71.578125 
L 15.1875 0 
z
" id="ArialMT-6c"/>
      <path d="M 12.359375 -21.046875 
L 6.0625 -21.046875 
Q 20.65625 2.390625 20.65625 25.875 
Q 20.65625 35.0625 18.5625 44.09375 
Q 16.890625 51.421875 13.921875 58.15625 
Q 12.015625 62.546875 6.0625 72.796875 
L 12.359375 72.796875 
Q 21.53125 60.546875 25.921875 48.1875 
Q 29.6875 37.546875 29.6875 25.921875 
Q 29.6875 12.75 24.625 0.4375 
Q 19.578125 -11.859375 12.359375 -21.046875 
" id="ArialMT-29"/>
      <path d="M 6.59375 0 
L 6.59375 51.859375 
L 14.453125 51.859375 
L 14.453125 44.578125 
Q 16.890625 48.390625 20.9375 50.703125 
Q 25 53.03125 30.171875 53.03125 
Q 35.9375 53.03125 39.625 50.640625 
Q 43.3125 48.25 44.828125 43.953125 
Q 50.984375 53.03125 60.84375 53.03125 
Q 68.5625 53.03125 72.703125 48.75 
Q 76.859375 44.484375 76.859375 35.59375 
L 76.859375 0 
L 68.109375 0 
L 68.109375 32.671875 
Q 68.109375 37.9375 67.25 40.25 
Q 66.40625 42.578125 64.15625 43.984375 
Q 61.921875 45.40625 58.890625 45.40625 
Q 53.421875 45.40625 49.796875 41.765625 
Q 46.1875 38.140625 46.1875 30.125 
L 46.1875 0 
L 37.40625 0 
L 37.40625 33.6875 
Q 37.40625 39.546875 35.25 42.46875 
Q 33.109375 45.40625 28.21875 45.40625 
Q 24.515625 45.40625 21.359375 43.453125 
Q 18.21875 41.5 16.796875 37.734375 
Q 15.375 33.984375 15.375 26.90625 
L 15.375 0 
z
" id="ArialMT-6d"/>
      <path d="M 5.03125 -1.21875 
L 9.28125 19.578125 
L 1.03125 19.578125 
L 1.03125 26.859375 
L 10.75 26.859375 
L 14.359375 44.578125 
L 1.03125 44.578125 
L 1.03125 51.859375 
L 15.828125 51.859375 
L 20.0625 72.796875 
L 27.390625 72.796875 
L 23.140625 51.859375 
L 38.53125 51.859375 
L 42.78125 72.796875 
L 50.140625 72.796875 
L 45.90625 51.859375 
L 54.34375 51.859375 
L 54.34375 44.578125 
L 44.4375 44.578125 
L 40.765625 26.859375 
L 54.34375 26.859375 
L 54.34375 19.578125 
L 39.3125 19.578125 
L 35.0625 -1.21875 
L 27.734375 -1.21875 
L 31.9375 19.578125 
L 16.609375 19.578125 
L 12.359375 -1.21875 
z
M 18.0625 26.859375 
L 33.40625 26.859375 
L 37.0625 44.578125 
L 21.6875 44.578125 
z
" id="ArialMT-23"/>
     </defs>
     <g style="fill:#262626;" transform="translate(29.88015625 269.78875)rotate(-90.0)scale(0.11 -0.11)">
      <use xlink:href="#ArialMT-6c"/>
      <use x="22.216796875" xlink:href="#ArialMT-6f"/>
      <use x="77.83203125" xlink:href="#ArialMT-67"/>
      <use x="133.447265625" xlink:href="#ArialMT-31"/>
      <use x="189.0625" xlink:href="#ArialMT-30"/>
      <use x="244.677734375" xlink:href="#ArialMT-20"/>
      <use x="272.4609375" xlink:href="#ArialMT-61"/>
      <use x="328.076171875" xlink:href="#ArialMT-62"/>
      <use x="383.69140625" xlink:href="#ArialMT-75"/>
      <use x="439.306640625" xlink:href="#ArialMT-6e"/>
      <use x="494.921875" xlink:href="#ArialMT-64"/>
      <use x="550.537109375" xlink:href="#ArialMT-61"/>
      <use x="606.15234375" xlink:href="#ArialMT-6e"/>
      <use x="661.767578125" xlink:href="#ArialMT-63"/>
      <use x="711.767578125" xlink:href="#ArialMT-65"/>
      <use x="767.3828125" xlink:href="#ArialMT-20"/>
      <use x="795.166015625" xlink:href="#ArialMT-28"/>
      <use x="828.466796875" xlink:href="#ArialMT-23"/>
      <use x="884.08203125" xlink:href="#ArialMT-20"/>
      <use x="911.865234375" xlink:href="#ArialMT-6d"/>
      <use x="995.166015625" xlink:href="#ArialMT-6f"/>
      <use x="1050.78125" xlink:href="#ArialMT-6c"/>
      <use x="1072.99804688" xlink:href="#ArialMT-65"/>
      <use x="1128.61328125" xlink:href="#ArialMT-63"/>
      <use x="1178.61328125" xlink:href="#ArialMT-75"/>
      <use x="1234.22851562" xlink:href="#ArialMT-6c"/>
      <use x="1256.4453125" xlink:href="#ArialMT-65"/>
      <use x="1312.06054688" xlink:href="#ArialMT-73"/>
      <use x="1362.06054688" xlink:href="#ArialMT-29"/>
     </g>
    </g>
   </g>
   <g id="line2d_10">
    <path clip-path="url(#p75004bd75e)" d="M 91.933865 346.5 
L 91.933865 39.6 
" style="fill:none;stroke:#808080;stroke-linecap:round;stroke-width:3.0;"/>
   </g>
   <g id="line2d_11">
    <path clip-path="url(#p75004bd75e)" d="M 74.223108 89.602099 
L 74.445418 98.306206 
L 74.667729 103.098441 
L 74.89004 106.195619 
L 75.112351 106.569342 
L 75.334661 108.213798 
L 75.556972 108.952142 
L 76.446215 121.161205 
L 76.668526 121.161205 
L 76.890837 121.396495 
L 77.113147 122.173919 
L 77.557769 126.411012 
L 77.78008 126.411012 
L 78.00239 127.713471 
L 78.224701 127.737672 
L 78.447012 128.20117 
L 78.669323 129.71267 
L 78.891633 129.919959 
L 79.113944 132.213662 
L 79.558566 132.608488 
L 79.780876 133.384621 
L 80.447809 134.210829 
L 80.67012 134.420911 
L 80.89243 134.784439 
L 81.337052 136.572689 
L 82.003984 143.625725 
L 82.226295 143.952851 
L 82.448606 144.95573 
L 82.670916 145.040804 
L 82.893227 145.556275 
L 83.337849 145.904807 
L 83.560159 146.613998 
L 83.78247 148.414739 
L 84.004781 148.510001 
L 84.227092 149.528566 
L 84.449402 149.528566 
L 84.894024 152.314745 
L 85.116335 153.470612 
L 85.560956 154.26616 
L 85.783267 154.26616 
L 86.227888 154.439356 
L 86.450199 155.082924 
L 86.67251 155.142107 
L 86.894821 156.722414 
L 87.117131 157.48023 
L 87.561753 157.866288 
L 88.228685 160.643219 
L 88.450996 161.2157 
L 88.673307 162.619831 
L 88.895618 162.695546 
L 89.117928 163.385542 
L 89.340239 163.541009 
L 89.56255 164.170889 
L 89.784861 164.170889 
L 90.007171 165.888733 
L 90.229482 166.142198 
L 90.674104 166.915427 
L 90.896414 167.353587 
L 91.341036 169.834478 
L 91.563347 170.122959 
L 91.785657 170.219727 
L 92.007968 172.1189 
L 92.230279 172.849388 
L 92.45259 173.167868 
L 92.6749 174.25404 
L 93.341833 175.265661 
L 93.564143 175.380154 
L 93.786454 175.842455 
L 94.008765 176.908875 
L 94.231076 177.029691 
L 94.453386 177.395026 
L 94.675697 178.264812 
L 95.120319 182.157039 
L 95.787251 189.206654 
L 96.009562 189.206654 
L 96.231873 191.255414 
L 96.676494 192.433515 
L 97.121116 195.593724 
L 97.343426 196.040839 
L 97.565737 197.188046 
L 97.788048 199.117935 
L 98.010359 199.874192 
L 98.232669 200.130485 
L 98.677291 203.385956 
L 98.899602 203.673534 
L 99.344223 204.851635 
L 99.788845 207.02908 
L 100.011155 208.684989 
L 100.233466 209.373262 
L 100.455777 215.096728 
L 100.678088 216.381959 
L 100.900398 216.381959 
L 101.122709 216.822641 
L 101.567331 224.32997 
L 101.789641 224.902451 
L 102.234263 227.30579 
L 102.456574 229.913906 
L 102.901195 231.306275 
L 103.123506 235.092182 
L 103.345817 235.908946 
L 103.568127 241.327777 
L 103.790438 242.332026 
L 104.012749 247.915962 
L 104.23506 249.166211 
L 104.457371 249.166211 
L 104.679681 250.469678 
L 104.901992 257.977008 
L 105.124303 270.395128 
L 105.346614 275.979064 
L 105.568924 275.979064 
L 105.791235 279.205925 
L 106.902789 279.205925 
L 107.1251 286.902895 
L 107.569721 286.902895 
L 107.792032 291.624045 
L 108.458964 291.624045 
L 108.681275 297.207981 
L 112.238247 297.207981 
L 112.460558 304.042166 
L 117.351394 304.042166 
L 117.573705 312.852962 
L 126.688446 312.852962 
L 126.910757 325.271083 
L 158.256574 325.271083 
L 158.478884 346.5 
L 278.082072 346.5 
L 278.082072 346.5 
" style="fill:none;opacity:0.4;stroke:#2c5ebf;stroke-linecap:round;stroke-width:2.0;"/>
   </g>
   <g id="line2d_12">
    <path clip-path="url(#p75004bd75e)" d="M 95.120319 346.5 
L 95.120319 39.6 
" style="fill:none;stroke:#2c5ebf;stroke-dasharray:6.000000,6.000000;stroke-dashoffset:0.0;stroke-width:2.0;"/>
   </g>
   <g id="line2d_13">
    <path clip-path="url(#p75004bd75e)" d="M 74.223108 47.40501 
L 74.445418 79.575086 
L 74.667729 82.994584 
L 74.89004 83.825927 
L 75.334661 90.897688 
L 75.556972 91.094645 
L 75.779283 92.046005 
L 76.001594 96.420605 
L 76.223904 96.438026 
L 76.446215 99.438217 
L 76.668526 99.844517 
L 77.335458 103.414129 
L 77.557769 107.731275 
L 77.78008 120.351637 
L 78.00239 120.657526 
L 78.669323 147.570454 
L 78.891633 151.673321 
L 79.113944 176.908875 
L 79.336255 189.206654 
L 79.558566 221.103109 
L 80.225498 249.166211 
L 80.447809 251.831096 
L 80.67012 251.831096 
L 80.89243 259.72759 
L 81.114741 261.584332 
L 81.337052 265.673978 
L 81.559363 265.673978 
L 81.781673 267.943672 
L 82.003984 267.943672 
L 82.226295 270.395128 
L 82.670916 270.395128 
L 82.893227 273.060013 
L 83.115538 273.060013 
L 83.337849 275.979064 
L 84.004781 275.979064 
L 84.227092 279.205925 
L 85.116335 279.205925 
L 85.338645 282.813249 
L 86.894821 282.813249 
L 87.117131 286.902895 
L 89.340239 286.902895 
L 89.56255 291.624045 
L 92.007968 291.624045 
L 92.230279 297.207981 
L 93.564143 297.207981 
L 93.786454 304.042166 
L 97.121116 304.042166 
L 97.343426 312.852962 
L 105.568924 312.852962 
L 105.791235 325.271083 
L 121.130677 325.271083 
L 121.352988 346.5 
L 175.596813 346.5 
L 175.596813 346.5 
" style="fill:none;opacity:0.4;stroke:#ff1313;stroke-linecap:round;stroke-width:2.0;"/>
   </g>
   <g id="line2d_14">
    <path clip-path="url(#p75004bd75e)" d="M 78.669323 346.5 
L 78.669323 39.6 
" style="fill:none;stroke:#ff1313;stroke-dasharray:6.000000,6.000000;stroke-dashoffset:0.0;stroke-width:2.0;"/>
   </g>
   <g id="line2d_15">
    <path clip-path="url(#p75004bd75e)" d="M 74.223108 66.996615 
L 74.445418 92.694499 
L 74.667729 94.114855 
L 76.001594 121.514822 
L 76.223904 122.580386 
L 76.446215 122.950877 
L 76.668526 123.875849 
L 77.113147 126.272219 
L 77.335458 126.295307 
L 77.557769 126.807708 
L 77.78008 132.523453 
L 78.00239 132.551772 
L 78.224701 132.807827 
L 78.447012 133.26839 
L 78.669323 133.413748 
L 79.113944 136.508144 
L 79.336255 136.540399 
L 79.780876 137.324908 
L 80.003187 137.4244 
L 80.67012 141.015119 
L 80.89243 141.20244 
L 81.337052 141.694905 
L 81.781673 143.870741 
L 82.003984 144.24198 
L 82.226295 144.366734 
L 82.448606 145.426592 
L 82.670916 148.225098 
L 83.115538 148.942388 
L 83.78247 152.804785 
L 84.004781 153.583005 
L 84.227092 154.964902 
L 84.449402 154.964902 
L 84.671713 155.320343 
L 85.560956 158.98731 
L 85.783267 159.257152 
L 86.005578 160.572405 
L 86.227888 160.856647 
L 86.450199 160.856647 
L 86.894821 161.143552 
L 87.339442 161.143552 
L 87.784064 162.468959 
L 88.228685 163.308104 
L 88.450996 163.385542 
L 88.673307 165.38801 
L 89.117928 165.637348 
L 89.340239 166.142198 
L 89.56255 167.441977 
L 89.784861 167.530622 
L 90.007171 167.798107 
L 90.229482 170.219727 
L 90.451793 170.708204 
L 90.674104 170.806841 
L 91.118725 171.506343 
L 91.563347 171.81109 
L 91.785657 173.061339 
L 92.007968 173.382042 
L 92.230279 174.25404 
L 92.45259 176.311841 
L 92.6749 177.029691 
L 93.341833 177.517779 
L 93.786454 177.889018 
L 94.008765 178.013771 
L 94.231076 178.391109 
L 94.898008 181.171262 
L 95.120319 181.872136 
L 95.342629 182.014256 
L 95.56494 183.175603 
L 96.231873 184.537021 
L 96.454183 185.320359 
L 96.676494 185.320359 
L 97.121116 185.800163 
L 97.788048 188.144344 
L 98.010359 188.144344 
L 98.232669 188.494369 
L 98.45498 189.935899 
L 98.677291 190.120956 
L 100.011155 193.451112 
L 100.233466 193.451112 
L 100.678088 193.86781 
L 100.900398 193.86781 
L 101.34502 195.37259 
L 101.567331 195.37259 
L 101.789641 196.040839 
L 102.011952 196.266868 
L 102.234263 196.266868 
L 102.678884 196.723994 
L 103.123506 197.659238 
L 103.568127 199.117935 
L 104.457371 200.91249 
L 104.679681 201.177659 
L 105.124303 204.552835 
L 105.346614 206.076873 
L 105.568924 206.076873 
L 105.791235 206.390997 
L 106.013546 206.390997 
L 106.235857 207.353177 
L 106.458167 211.164816 
L 106.902789 212.292312 
L 107.34741 212.292312 
L 107.569721 214.680029 
L 108.014343 215.947528 
L 108.236653 217.723495 
L 108.903586 219.126497 
L 109.348207 220.596869 
L 110.015139 222.141407 
L 110.459761 224.32997 
L 110.682072 224.32997 
L 111.126693 227.937294 
L 111.349004 228.582094 
L 111.571315 228.582094 
L 112.238247 232.02694 
L 112.682869 236.748091 
L 112.905179 239.412975 
L 113.349801 241.327777 
L 113.572112 241.327777 
L 113.794422 242.332026 
L 114.016733 244.445061 
L 114.239044 244.445061 
L 114.461355 245.558887 
L 114.683665 245.558887 
L 115.350598 249.166211 
L 115.572908 253.255858 
L 115.795219 253.255858 
L 116.01753 254.750147 
L 116.239841 254.750147 
L 116.462151 256.321099 
L 116.684462 261.584332 
L 116.906773 261.584332 
L 117.129084 263.560943 
L 117.351394 263.560943 
L 117.573705 270.395128 
L 117.796016 270.395128 
L 118.018327 279.205925 
L 118.240637 279.205925 
L 118.462948 282.813249 
L 118.90757 282.813249 
L 119.12988 286.902895 
L 119.574502 286.902895 
L 119.796813 291.624045 
L 120.686056 291.624045 
L 120.908367 297.207981 
L 124.465339 297.207981 
L 124.687649 304.042166 
L 127.133068 304.042166 
L 127.355378 312.852962 
L 136.47012 312.852962 
L 136.69243 325.271083 
L 163.592032 325.271083 
L 163.814343 346.5 
L 291.865339 346.5 
L 291.865339 346.5 
" style="fill:none;opacity:0.4;stroke:#f7b02a;stroke-linecap:round;stroke-width:2.0;"/>
   </g>
   <g id="line2d_16">
    <path clip-path="url(#p75004bd75e)" d="M 91.341036 346.5 
L 91.341036 39.6 
" style="fill:none;stroke:#f7b02a;stroke-dasharray:6.000000,6.000000;stroke-dashoffset:0.0;stroke-width:2.0;"/>
   </g>
   <g id="line2d_17">
    <path clip-path="url(#p75004bd75e)" d="M 74.223108 72.560566 
L 75.112351 82.245452 
L 75.334661 87.222573 
L 75.556972 88.305603 
L 76.223904 94.883633 
L 76.446215 96.64786 
L 76.890837 101.046114 
L 77.113147 102.957976 
L 77.335458 103.065969 
L 77.557769 106.448287 
L 77.78008 106.581474 
L 78.447012 114.248989 
L 78.891633 115.570759 
L 79.113944 116.029842 
L 79.558566 116.378728 
L 79.780876 117.588625 
L 80.225498 118.595771 
L 80.447809 119.341252 
L 80.89243 122.519071 
L 81.337052 123.6208 
L 81.559363 123.684364 
L 81.781673 124.392406 
L 82.003984 124.435849 
L 82.448606 124.807618 
L 82.670916 125.028433 
L 83.115538 126.341537 
L 83.337849 127.281084 
L 83.560159 127.640981 
L 84.004781 130.102495 
L 84.227092 130.286126 
L 85.116335 133.239401 
L 85.338645 133.472085 
L 85.560956 133.472085 
L 85.783267 133.883584 
L 86.005578 134.875999 
L 86.450199 134.90658 
L 86.67251 135.121506 
L 86.894821 136.187441 
L 87.339442 136.2833 
L 87.561753 137.225739 
L 88.006375 137.490908 
L 88.673307 139.20235 
L 89.784861 139.62773 
L 90.451793 140.791836 
L 90.674104 140.828937 
L 90.896414 142.117881 
L 91.118725 142.390122 
L 91.563347 143.503948 
L 91.785657 143.544487 
L 92.007968 143.70718 
L 92.230279 144.325093 
L 92.45259 144.366734 
L 92.897211 145.08343 
L 93.119522 145.168861 
L 93.341833 145.817301 
L 93.786454 145.948653 
L 94.008765 146.301704 
L 94.453386 147.802652 
L 94.675697 148.79758 
L 94.898008 149.28296 
L 95.120319 150.176513 
L 95.342629 150.328007 
L 95.56494 150.787036 
L 95.787251 150.838466 
L 96.009562 151.148876 
L 96.231873 152.045851 
L 96.454183 152.153125 
L 96.676494 152.640566 
L 97.343426 153.247058 
L 97.565737 153.583005 
L 97.788048 153.639356 
L 98.010359 153.979658 
L 98.232669 154.671819 
L 98.45498 154.90606 
L 98.677291 155.679958 
L 99.344223 155.922069 
L 99.566534 155.982897 
L 100.455777 156.722414 
L 100.678088 157.931107 
L 100.900398 158.191763 
L 101.122709 160.150928 
L 102.011952 160.643219 
L 102.234263 160.714197 
L 102.456574 161.360508 
L 102.678884 162.544302 
L 102.901195 162.619831 
L 103.345817 163.153812 
L 103.568127 164.170889 
L 104.012749 164.571246 
L 104.457371 164.651949 
L 104.679681 164.732865 
L 104.901992 164.976905 
L 105.346614 165.637348 
L 105.568924 165.804708 
L 105.791235 167.530622 
L 106.013546 168.249173 
L 106.235857 168.523036 
L 106.458167 169.171738 
L 106.680478 171.91335 
L 107.34741 173.814938 
L 107.569721 175.726224 
L 107.792032 176.668663 
L 108.014343 176.788534 
L 108.236653 178.013771 
L 108.458964 182.881112 
L 108.903586 183.924463 
L 109.348207 184.229211 
L 109.792829 187.11765 
L 110.015139 187.286393 
L 110.459761 188.670894 
L 110.904382 189.387344 
L 111.126693 190.682933 
L 111.571315 194.290256 
L 112.015936 196.955141 
L 112.238247 196.955141 
L 112.460558 206.076873 
L 112.682869 206.390997 
L 112.905179 207.02908 
L 113.12749 207.02908 
L 113.349801 211.536055 
L 113.572112 213.462908 
L 113.794422 213.462908 
L 114.016733 214.268924 
L 114.461355 220.596869 
L 114.683665 229.240761 
L 114.905976 229.240761 
L 115.128287 241.327777 
L 115.350598 242.332026 
L 115.572908 246.714755 
L 116.684462 253.255858 
L 117.129084 256.321099 
L 117.351394 256.321099 
L 117.796016 259.72759 
L 118.685259 259.72759 
L 118.90757 261.584332 
L 119.574502 261.584332 
L 119.796813 263.560943 
L 121.130677 263.560943 
L 121.352988 265.673978 
L 122.242231 265.673978 
L 122.464542 267.943672 
L 124.243028 267.943672 
L 124.465339 270.395128 
L 125.576892 270.395128 
L 125.799203 273.060013 
L 129.356175 273.060013 
L 129.578486 275.979064 
L 132.246215 275.979064 
L 132.468526 279.205925 
L 137.359363 279.205925 
L 137.581673 282.813249 
L 143.139442 282.813249 
L 143.361753 286.902895 
L 150.920319 286.902895 
L 151.142629 291.624045 
L 161.813546 291.624045 
L 162.035857 297.207981 
L 177.375299 297.207981 
L 177.59761 304.042166 
L 204.497211 304.042166 
L 204.719522 312.852962 
L 243.623904 312.852962 
L 243.846215 325.271083 
L 314.318725 325.271083 
L 314.541036 346.5 
L 518.177689 346.5 
L 518.177689 346.5 
" style="fill:none;opacity:0.4;stroke:#02b72a;stroke-linecap:round;stroke-width:2.0;"/>
   </g>
   <g id="line2d_18">
    <path clip-path="url(#p75004bd75e)" d="M 104.012749 346.5 
L 104.012749 39.6 
" style="fill:none;stroke:#02b72a;stroke-dasharray:6.000000,6.000000;stroke-dashoffset:0.0;stroke-width:2.0;"/>
   </g>
   <g id="line2d_19">
    <path clip-path="url(#p75004bd75e)" d="M 74.223108 89.015293 
L 74.445418 92.609799 
L 74.667729 100.049707 
L 75.112351 103.810598 
L 75.556972 104.676234 
L 75.779283 106.30365 
L 76.001594 110.789223 
L 76.223904 111.181522 
L 76.446215 111.209736 
L 76.668526 119.544386 
L 76.890837 120.199831 
L 77.113147 121.337503 
L 77.335458 123.875849 
L 77.557769 124.741683 
L 77.78008 124.807618 
L 78.224701 125.385081 
L 78.669323 128.497561 
L 79.336255 129.790239 
L 79.780876 130.843717 
L 80.003187 133.472085 
L 80.225498 133.765448 
L 80.447809 135.09071 
L 80.67012 135.493497 
L 80.89243 136.605013 
L 81.114741 137.061166 
L 81.337052 137.926765 
L 81.559363 138.096068 
L 81.781673 139.378875 
L 82.448606 139.770847 
L 82.670916 140.791836 
L 82.893227 141.08991 
L 83.337849 142.195418 
L 83.560159 143.302057 
L 84.227092 144.450185 
L 84.449402 144.617775 
L 84.671713 145.383486 
L 84.894024 145.599626 
L 85.116335 145.643037 
L 85.338645 145.992563 
L 85.560956 146.12467 
L 85.783267 147.385954 
L 86.005578 150.941587 
L 86.227888 151.045056 
L 86.67251 153.583005 
L 86.894821 153.979658 
L 87.117131 155.619728 
L 87.784064 156.660101 
L 88.228685 157.672651 
L 88.450996 158.520733 
L 88.673307 158.786478 
L 89.117928 161.43317 
L 89.340239 161.43317 
L 89.56255 161.799086 
L 89.784861 161.946686 
L 90.674104 163.697268 
L 90.896414 163.775698 
L 91.118725 164.976905 
L 91.341036 164.976905 
L 92.45259 170.316801 
L 92.897211 170.511877 
L 93.119522 171.40543 
L 93.341833 176.430321 
L 93.564143 176.54926 
L 93.786454 177.029691 
L 94.231076 178.901568 
L 94.453386 179.030523 
L 94.898008 180.75831 
L 95.120319 182.881112 
L 96.231873 187.798275 
L 96.454183 187.798275 
L 96.898805 196.494578 
L 97.121116 196.955141 
L 97.343426 198.623943 
L 97.565737 202.539077 
L 97.788048 203.101053 
L 98.010359 211.164816 
L 98.677291 220.09886 
L 99.566534 254.750147 
L 99.788845 267.943672 
L 100.455777 275.979064 
L 100.678088 275.979064 
L 101.122709 282.813249 
L 101.567331 282.813249 
L 101.789641 286.902895 
L 102.011952 286.902895 
L 102.234263 291.624045 
L 103.345817 291.624045 
L 103.568127 297.207981 
L 105.791235 297.207981 
L 106.013546 304.042166 
L 110.015139 304.042166 
L 110.23745 312.852962 
L 120.241434 312.852962 
L 120.463745 325.271083 
L 154.032669 325.271083 
L 154.25498 346.5 
L 280.082869 346.5 
L 280.082869 346.5 
" style="fill:none;opacity:0.4;stroke:#009e9e;stroke-linecap:round;stroke-width:2.0;"/>
   </g>
   <g id="line2d_20">
    <path clip-path="url(#p75004bd75e)" d="M 95.120319 346.5 
L 95.120319 39.6 
" style="fill:none;stroke:#009e9e;stroke-dasharray:6.000000,6.000000;stroke-dashoffset:0.0;stroke-width:2.0;"/>
   </g>
   <g id="line2d_21">
    <path clip-path="url(#p75004bd75e)" d="M 74.223108 99.46706 
L 74.445418 107.083063 
L 74.89004 108.717052 
L 75.334661 119.507352 
L 75.779283 121.278624 
L 76.001594 122.888816 
L 76.223904 123.641974 
L 76.446215 125.564975 
L 76.668526 132.750741 
L 76.890837 134.451041 
L 77.113147 137.061166 
L 77.335458 137.55756 
L 77.557769 138.368915 
L 77.78008 141.390914 
L 78.00239 141.428748 
L 78.224701 142.941972 
L 78.447012 143.221671 
L 78.669323 143.788851 
L 78.891633 146.213059 
L 79.113944 146.524446 
L 79.336255 146.56919 
L 79.780876 151.832422 
L 80.003187 152.695208 
L 80.225498 153.025123 
L 80.447809 155.082924 
L 80.67012 155.439746 
L 81.114741 160.856647 
L 81.337052 161.946686 
L 81.559363 162.095 
L 82.670916 165.38801 
L 82.893227 165.470897 
L 83.115538 166.569358 
L 83.337849 166.741904 
L 83.78247 168.614871 
L 84.227092 171.91335 
L 84.894024 173.814938 
L 85.116335 173.924125 
L 85.338645 175.959129 
L 85.560956 176.311841 
L 85.783267 177.395026 
L 86.227888 177.517779 
L 86.450199 179.160024 
L 86.67251 179.551844 
L 86.894821 180.621887 
L 87.117131 180.75831 
L 87.561753 182.734921 
L 88.228685 187.626695 
L 88.673307 188.144344 
L 88.895618 189.027024 
L 89.117928 189.027024 
L 89.56255 189.935899 
L 89.784861 189.935899 
L 90.007171 191.063395 
L 90.229482 191.255414 
L 90.451793 192.233991 
L 90.896414 192.836506 
L 91.118725 193.040007 
L 91.341036 193.86781 
L 91.563347 193.86781 
L 91.785657 194.078305 
L 92.230279 195.37259 
L 92.45259 196.723994 
L 92.897211 197.422736 
L 93.119522 197.659238 
L 93.341833 198.623943 
L 93.564143 198.869943 
L 93.786454 198.869943 
L 94.008765 199.117935 
L 94.231076 199.117935 
L 94.453386 199.367952 
L 94.675697 199.367952 
L 94.898008 200.388941 
L 95.120319 200.649597 
L 95.342629 201.177659 
L 95.56494 201.177659 
L 96.009562 201.987227 
L 96.231873 203.101053 
L 96.454183 203.385956 
L 96.898805 205.15338 
L 97.788048 207.353177 
L 98.010359 207.68074 
L 98.232669 207.68074 
L 98.45498 208.011844 
L 98.677291 209.027192 
L 99.344223 210.077358 
L 99.566534 211.536055 
L 99.788845 215.096728 
L 100.011155 215.096728 
L 100.233466 215.519174 
L 100.678088 215.519174 
L 101.34502 216.822641 
L 101.567331 220.09886 
L 101.789641 220.09886 
L 102.011952 221.103109 
L 102.234263 221.103109 
L 102.456574 223.216144 
L 102.678884 228.582094 
L 103.123506 230.602179 
L 103.345817 230.602179 
L 103.568127 231.306275 
L 103.790438 232.764973 
L 104.012749 232.764973 
L 104.23506 233.52123 
L 104.457371 235.908946 
L 104.679681 235.908946 
L 104.901992 236.748091 
L 105.568924 242.332026 
L 105.791235 253.255858 
L 106.013546 254.750147 
L 106.235857 254.750147 
L 106.680478 257.977008 
L 107.1251 267.943672 
L 107.34741 270.395128 
L 107.569721 279.205925 
L 107.792032 282.813249 
L 108.458964 282.813249 
L 108.903586 291.624045 
L 109.348207 291.624045 
L 109.570518 297.207981 
L 111.126693 297.207981 
L 111.349004 304.042166 
L 116.239841 304.042166 
L 116.462151 312.852962 
L 124.465339 312.852962 
L 124.687649 325.271083 
L 142.250199 325.271083 
L 142.47251 346.5 
L 240.511554 346.5 
L 240.511554 346.5 
" style="fill:none;opacity:0.4;stroke:#1d1aa9;stroke-linecap:round;stroke-width:2.0;"/>
   </g>
   <g id="line2d_22">
    <path clip-path="url(#p75004bd75e)" d="M 87.339442 346.5 
L 87.339442 39.6 
" style="fill:none;stroke:#1d1aa9;stroke-dasharray:6.000000,6.000000;stroke-dashoffset:0.0;stroke-width:2.0;"/>
   </g>
   <g id="patch_3">
    <path d="M 72 39.6 
L 518.4 39.6 
" style="fill:none;stroke:#262626;stroke-linecap:square;stroke-linejoin:miter;stroke-width:1.25;"/>
   </g>
   <g id="patch_4">
    <path d="M 518.4 346.5 
L 518.4 39.6 
" style="fill:none;stroke:#262626;stroke-linecap:square;stroke-linejoin:miter;stroke-width:1.25;"/>
   </g>
   <g id="patch_5">
    <path d="M 72 346.5 
L 518.4 346.5 
" style="fill:none;stroke:#262626;stroke-linecap:square;stroke-linejoin:miter;stroke-width:1.25;"/>
   </g>
   <g id="patch_6">
    <path d="M 72 346.5 
L 72 39.6 
" style="fill:none;stroke:#262626;stroke-linecap:square;stroke-linejoin:miter;stroke-width:1.25;"/>
   </g>
   <g id="text_13">
    <!-- B6 4wks BCG Thoracic LN -->
    <defs>
     <path d="M 16.15625 0 
L 0.296875 51.859375 
L 9.375 51.859375 
L 17.625 21.921875 
L 20.703125 10.796875 
Q 20.90625 11.625 23.390625 21.484375 
L 31.640625 51.859375 
L 40.671875 51.859375 
L 48.4375 21.78125 
L 51.03125 11.859375 
L 54 21.875 
L 62.890625 51.859375 
L 71.4375 51.859375 
L 55.21875 0 
L 46.09375 0 
L 37.84375 31.0625 
L 35.84375 39.890625 
L 25.34375 0 
z
" id="ArialMT-77"/>
     <path d="M 7.625 0 
L 7.625 71.578125 
L 17.328125 71.578125 
L 54.9375 15.375 
L 54.9375 71.578125 
L 64.015625 71.578125 
L 64.015625 0 
L 54.296875 0 
L 16.703125 56.25 
L 16.703125 0 
z
" id="ArialMT-4e"/>
     <path d="M 58.796875 25.09375 
L 68.265625 22.703125 
Q 65.28125 11.03125 57.546875 4.90625 
Q 49.8125 -1.21875 38.625 -1.21875 
Q 27.046875 -1.21875 19.796875 3.484375 
Q 12.546875 8.203125 8.765625 17.140625 
Q 4.984375 26.078125 4.984375 36.328125 
Q 4.984375 47.515625 9.25 55.828125 
Q 13.53125 64.15625 21.40625 68.46875 
Q 29.296875 72.796875 38.765625 72.796875 
Q 49.515625 72.796875 56.828125 67.328125 
Q 64.15625 61.859375 67.046875 51.953125 
L 57.71875 49.75 
Q 55.21875 57.5625 50.484375 61.125 
Q 45.75 64.703125 38.578125 64.703125 
Q 30.328125 64.703125 24.78125 60.734375 
Q 19.234375 56.78125 16.984375 50.109375 
Q 14.75 43.453125 14.75 36.375 
Q 14.75 27.25 17.40625 20.4375 
Q 20.0625 13.625 25.671875 10.25 
Q 31.296875 6.890625 37.84375 6.890625 
Q 45.796875 6.890625 51.3125 11.46875 
Q 56.84375 16.0625 58.796875 25.09375 
" id="ArialMT-43"/>
     <path d="M 7.328125 0 
L 7.328125 71.578125 
L 34.1875 71.578125 
Q 42.390625 71.578125 47.34375 69.40625 
Q 52.296875 67.234375 55.09375 62.71875 
Q 57.90625 58.203125 57.90625 53.265625 
Q 57.90625 48.6875 55.421875 44.625 
Q 52.9375 40.578125 47.90625 38.09375 
Q 54.390625 36.1875 57.875 31.59375 
Q 61.375 27 61.375 20.75 
Q 61.375 15.71875 59.25 11.390625 
Q 57.125 7.078125 54 4.734375 
Q 50.875 2.390625 46.15625 1.1875 
Q 41.453125 0 34.625 0 
z
M 16.796875 41.5 
L 32.28125 41.5 
Q 38.578125 41.5 41.3125 42.328125 
Q 44.921875 43.40625 46.75 45.890625 
Q 48.578125 48.390625 48.578125 52.15625 
Q 48.578125 55.71875 46.875 58.421875 
Q 45.171875 61.140625 41.984375 62.140625 
Q 38.8125 63.140625 31.109375 63.140625 
L 16.796875 63.140625 
z
M 16.796875 8.453125 
L 34.625 8.453125 
Q 39.203125 8.453125 41.0625 8.796875 
Q 44.34375 9.375 46.53125 10.734375 
Q 48.734375 12.109375 50.140625 14.71875 
Q 51.5625 17.328125 51.5625 20.75 
Q 51.5625 24.75 49.515625 27.703125 
Q 47.46875 30.671875 43.828125 31.859375 
Q 40.1875 33.0625 33.34375 33.0625 
L 16.796875 33.0625 
z
" id="ArialMT-42"/>
     <path d="M 41.21875 28.078125 
L 41.21875 36.46875 
L 71.53125 36.53125 
L 71.53125 9.96875 
Q 64.546875 4.390625 57.125 1.578125 
Q 49.703125 -1.21875 41.890625 -1.21875 
Q 31.34375 -1.21875 22.71875 3.296875 
Q 14.109375 7.8125 9.71875 16.359375 
Q 5.328125 24.90625 5.328125 35.453125 
Q 5.328125 45.90625 9.6875 54.953125 
Q 14.0625 64.015625 22.265625 68.40625 
Q 30.46875 72.796875 41.15625 72.796875 
Q 48.921875 72.796875 55.1875 70.28125 
Q 61.46875 67.78125 65.03125 63.28125 
Q 68.609375 58.796875 70.453125 51.5625 
L 61.921875 49.21875 
Q 60.296875 54.6875 57.90625 57.8125 
Q 55.515625 60.9375 51.0625 62.8125 
Q 46.625 64.703125 41.21875 64.703125 
Q 34.71875 64.703125 29.984375 62.71875 
Q 25.25 60.75 22.34375 57.515625 
Q 19.4375 54.296875 17.828125 50.4375 
Q 15.09375 43.796875 15.09375 36.03125 
Q 15.09375 26.46875 18.390625 20.015625 
Q 21.6875 13.578125 27.984375 10.453125 
Q 34.28125 7.328125 41.359375 7.328125 
Q 47.515625 7.328125 53.375 9.6875 
Q 59.234375 12.0625 62.25 14.75 
L 62.25 28.078125 
z
" id="ArialMT-47"/>
     <path d="M 25.921875 0 
L 25.921875 63.140625 
L 2.34375 63.140625 
L 2.34375 71.578125 
L 59.078125 71.578125 
L 59.078125 63.140625 
L 35.40625 63.140625 
L 35.40625 0 
z
" id="ArialMT-54"/>
     <path d="M 6.59375 0 
L 6.59375 71.578125 
L 15.375 71.578125 
L 15.375 45.90625 
Q 21.53125 53.03125 30.90625 53.03125 
Q 36.671875 53.03125 40.921875 50.75 
Q 45.171875 48.484375 47 44.484375 
Q 48.828125 40.484375 48.828125 32.859375 
L 48.828125 0 
L 40.046875 0 
L 40.046875 32.859375 
Q 40.046875 39.453125 37.1875 42.453125 
Q 34.328125 45.453125 29.109375 45.453125 
Q 25.203125 45.453125 21.75 43.421875 
Q 18.3125 41.40625 16.84375 37.9375 
Q 15.375 34.46875 15.375 28.375 
L 15.375 0 
z
" id="ArialMT-68"/>
     <path d="M 7.328125 0 
L 7.328125 71.578125 
L 16.796875 71.578125 
L 16.796875 8.453125 
L 52.046875 8.453125 
L 52.046875 0 
z
" id="ArialMT-4c"/>
     <path d="M 32.328125 0 
L 32.328125 17.140625 
L 1.265625 17.140625 
L 1.265625 25.203125 
L 33.9375 71.578125 
L 41.109375 71.578125 
L 41.109375 25.203125 
L 50.78125 25.203125 
L 50.78125 17.140625 
L 41.109375 17.140625 
L 41.109375 0 
z
M 32.328125 25.203125 
L 32.328125 57.46875 
L 9.90625 25.203125 
z
" id="ArialMT-34"/>
     <path d="M 6.640625 61.46875 
L 6.640625 71.578125 
L 15.4375 71.578125 
L 15.4375 61.46875 
z
M 6.640625 0 
L 6.640625 51.859375 
L 15.4375 51.859375 
L 15.4375 0 
z
" id="ArialMT-69"/>
     <path d="M 49.75 54.046875 
L 41.015625 53.375 
Q 39.84375 58.546875 37.703125 60.890625 
Q 34.125 64.65625 28.90625 64.65625 
Q 24.703125 64.65625 21.53125 62.3125 
Q 17.390625 59.28125 14.984375 53.46875 
Q 12.59375 47.65625 12.5 36.921875 
Q 15.671875 41.75 20.265625 44.09375 
Q 24.859375 46.4375 29.890625 46.4375 
Q 38.671875 46.4375 44.84375 39.96875 
Q 51.03125 33.5 51.03125 23.25 
Q 51.03125 16.5 48.125 10.71875 
Q 45.21875 4.9375 40.140625 1.859375 
Q 35.0625 -1.21875 28.609375 -1.21875 
Q 17.625 -1.21875 10.6875 6.859375 
Q 3.765625 14.9375 3.765625 33.5 
Q 3.765625 54.25 11.421875 63.671875 
Q 18.109375 71.875 29.4375 71.875 
Q 37.890625 71.875 43.28125 67.140625 
Q 48.6875 62.40625 49.75 54.046875 
M 13.875 23.1875 
Q 13.875 18.65625 15.796875 14.5 
Q 17.71875 10.359375 21.1875 8.171875 
Q 24.65625 6 28.46875 6 
Q 34.03125 6 38.03125 10.484375 
Q 42.046875 14.984375 42.046875 22.703125 
Q 42.046875 30.125 38.078125 34.390625 
Q 34.125 38.671875 28.125 38.671875 
Q 22.171875 38.671875 18.015625 34.390625 
Q 13.875 30.125 13.875 23.1875 
" id="ArialMT-36"/>
    </defs>
    <g style="fill:#262626;" transform="translate(223.8478125 34.6)scale(0.12 -0.12)">
     <use xlink:href="#ArialMT-42"/>
     <use x="66.69921875" xlink:href="#ArialMT-36"/>
     <use x="122.314453125" xlink:href="#ArialMT-20"/>
     <use x="150.09765625" xlink:href="#ArialMT-34"/>
     <use x="205.712890625" xlink:href="#ArialMT-77"/>
     <use x="277.9296875" xlink:href="#ArialMT-6b"/>
     <use x="327.9296875" xlink:href="#ArialMT-73"/>
     <use x="377.9296875" xlink:href="#ArialMT-20"/>
     <use x="405.712890625" xlink:href="#ArialMT-42"/>
     <use x="472.412109375" xlink:href="#ArialMT-43"/>
     <use x="544.62890625" xlink:href="#ArialMT-47"/>
     <use x="622.412109375" xlink:href="#ArialMT-20"/>
     <use x="650.1796875" xlink:href="#ArialMT-54"/>
     <use x="711.263671875" xlink:href="#ArialMT-68"/>
     <use x="766.87890625" xlink:href="#ArialMT-6f"/>
     <use x="822.494140625" xlink:href="#ArialMT-72"/>
     <use x="855.794921875" xlink:href="#ArialMT-61"/>
     <use x="911.41015625" xlink:href="#ArialMT-63"/>
     <use x="961.41015625" xlink:href="#ArialMT-69"/>
     <use x="983.626953125" xlink:href="#ArialMT-63"/>
     <use x="1033.62695312" xlink:href="#ArialMT-20"/>
     <use x="1061.41015625" xlink:href="#ArialMT-4c"/>
     <use x="1117.02539062" xlink:href="#ArialMT-4e"/>
    </g>
   </g>
   <g id="legend_1">
    <g id="line2d_23">
     <path d="M 395.796875 52.257812 
L 415.796875 52.257812 
" style="fill:none;stroke:#808080;stroke-linecap:round;stroke-width:3.0;"/>
    </g>
    <g id="line2d_24"/>
    <g id="text_14">
     <!-- mean threshold: 79 -->
     <defs>
      <path d="M 25.78125 7.859375 
L 27.046875 0.09375 
Q 23.34375 -0.6875 20.40625 -0.6875 
Q 15.625 -0.6875 12.984375 0.828125 
Q 10.359375 2.34375 9.28125 4.8125 
Q 8.203125 7.28125 8.203125 15.1875 
L 8.203125 45.015625 
L 1.765625 45.015625 
L 1.765625 51.859375 
L 8.203125 51.859375 
L 8.203125 64.703125 
L 16.9375 69.96875 
L 16.9375 51.859375 
L 25.78125 51.859375 
L 25.78125 45.015625 
L 16.9375 45.015625 
L 16.9375 14.703125 
Q 16.9375 10.9375 17.40625 9.859375 
Q 17.875 8.796875 18.921875 8.15625 
Q 19.96875 7.515625 21.921875 7.515625 
Q 23.390625 7.515625 25.78125 7.859375 
" id="ArialMT-74"/>
      <path d="M 9.03125 41.84375 
L 9.03125 51.859375 
L 19.046875 51.859375 
L 19.046875 41.84375 
z
M 9.03125 0 
L 9.03125 10.015625 
L 19.046875 10.015625 
L 19.046875 0 
z
" id="ArialMT-3a"/>
      <path d="M 5.46875 16.546875 
L 13.921875 17.328125 
Q 14.984375 11.375 18.015625 8.6875 
Q 21.046875 6 25.78125 6 
Q 29.828125 6 32.875 7.859375 
Q 35.9375 9.71875 37.890625 12.8125 
Q 39.84375 15.921875 41.15625 21.1875 
Q 42.484375 26.46875 42.484375 31.9375 
Q 42.484375 32.515625 42.4375 33.6875 
Q 39.796875 29.5 35.234375 26.875 
Q 30.671875 24.265625 25.34375 24.265625 
Q 16.453125 24.265625 10.296875 30.703125 
Q 4.15625 37.15625 4.15625 47.703125 
Q 4.15625 58.59375 10.578125 65.234375 
Q 17 71.875 26.65625 71.875 
Q 33.640625 71.875 39.421875 68.109375 
Q 45.21875 64.359375 48.21875 57.390625 
Q 51.21875 50.4375 51.21875 37.25 
Q 51.21875 23.53125 48.234375 15.40625 
Q 45.265625 7.28125 39.375 3.03125 
Q 33.5 -1.21875 25.59375 -1.21875 
Q 17.1875 -1.21875 11.859375 3.4375 
Q 6.546875 8.109375 5.46875 16.546875 
M 41.453125 48.140625 
Q 41.453125 55.71875 37.421875 60.15625 
Q 33.40625 64.59375 27.734375 64.59375 
Q 21.875 64.59375 17.53125 59.8125 
Q 13.1875 55.03125 13.1875 47.40625 
Q 13.1875 40.578125 17.3125 36.296875 
Q 21.4375 32.03125 27.484375 32.03125 
Q 33.59375 32.03125 37.515625 36.296875 
Q 41.453125 40.578125 41.453125 48.140625 
" id="ArialMT-39"/>
      <path d="M 4.734375 62.203125 
L 4.734375 70.65625 
L 51.078125 70.65625 
L 51.078125 63.8125 
Q 44.234375 56.546875 37.515625 44.484375 
Q 30.8125 32.421875 27.15625 19.671875 
Q 24.515625 10.6875 23.78125 0 
L 14.75 0 
Q 14.890625 8.453125 18.0625 20.40625 
Q 21.234375 32.375 27.171875 43.484375 
Q 33.109375 54.59375 39.796875 62.203125 
z
" id="ArialMT-37"/>
     </defs>
     <g style="fill:#262626;" transform="translate(423.796875 55.7578125)scale(0.1 -0.1)">
      <use xlink:href="#ArialMT-6d"/>
      <use x="83.30078125" xlink:href="#ArialMT-65"/>
      <use x="138.916015625" xlink:href="#ArialMT-61"/>
      <use x="194.53125" xlink:href="#ArialMT-6e"/>
      <use x="250.146484375" xlink:href="#ArialMT-20"/>
      <use x="277.9296875" xlink:href="#ArialMT-74"/>
      <use x="305.712890625" xlink:href="#ArialMT-68"/>
      <use x="361.328125" xlink:href="#ArialMT-72"/>
      <use x="394.62890625" xlink:href="#ArialMT-65"/>
      <use x="450.244140625" xlink:href="#ArialMT-73"/>
      <use x="500.244140625" xlink:href="#ArialMT-68"/>
      <use x="555.859375" xlink:href="#ArialMT-6f"/>
      <use x="611.474609375" xlink:href="#ArialMT-6c"/>
      <use x="633.69140625" xlink:href="#ArialMT-64"/>
      <use x="689.306640625" xlink:href="#ArialMT-3a"/>
      <use x="717.08984375" xlink:href="#ArialMT-20"/>
      <use x="744.873046875" xlink:href="#ArialMT-37"/>
      <use x="800.48828125" xlink:href="#ArialMT-39"/>
     </g>
    </g>
    <g id="line2d_25">
     <path d="M 395.796875 66.403125 
L 415.796875 66.403125 
" style="fill:none;opacity:0.4;stroke:#2c5ebf;stroke-linecap:round;stroke-width:2.0;"/>
    </g>
    <g id="line2d_26"/>
    <g id="text_15">
     <!-- mouse 1: 94 -->
     <g style="fill:#262626;" transform="translate(423.796875 69.903125)scale(0.1 -0.1)">
      <use xlink:href="#ArialMT-6d"/>
      <use x="83.30078125" xlink:href="#ArialMT-6f"/>
      <use x="138.916015625" xlink:href="#ArialMT-75"/>
      <use x="194.53125" xlink:href="#ArialMT-73"/>
      <use x="244.53125" xlink:href="#ArialMT-65"/>
      <use x="300.146484375" xlink:href="#ArialMT-20"/>
      <use x="327.9296875" xlink:href="#ArialMT-31"/>
      <use x="383.544921875" xlink:href="#ArialMT-3a"/>
      <use x="411.328125" xlink:href="#ArialMT-20"/>
      <use x="439.111328125" xlink:href="#ArialMT-39"/>
      <use x="494.7265625" xlink:href="#ArialMT-34"/>
     </g>
    </g>
    <g id="line2d_27">
     <path d="M 395.796875 80.548437 
L 415.796875 80.548437 
" style="fill:none;opacity:0.4;stroke:#ff1313;stroke-linecap:round;stroke-width:2.0;"/>
    </g>
    <g id="line2d_28"/>
    <g id="text_16">
     <!-- mouse 2: 20 -->
     <g style="fill:#262626;" transform="translate(423.796875 84.0484375)scale(0.1 -0.1)">
      <use xlink:href="#ArialMT-6d"/>
      <use x="83.30078125" xlink:href="#ArialMT-6f"/>
      <use x="138.916015625" xlink:href="#ArialMT-75"/>
      <use x="194.53125" xlink:href="#ArialMT-73"/>
      <use x="244.53125" xlink:href="#ArialMT-65"/>
      <use x="300.146484375" xlink:href="#ArialMT-20"/>
      <use x="327.9296875" xlink:href="#ArialMT-32"/>
      <use x="383.544921875" xlink:href="#ArialMT-3a"/>
      <use x="411.328125" xlink:href="#ArialMT-20"/>
      <use x="439.111328125" xlink:href="#ArialMT-32"/>
      <use x="494.7265625" xlink:href="#ArialMT-30"/>
     </g>
    </g>
    <g id="line2d_29">
     <path d="M 395.796875 94.69375 
L 415.796875 94.69375 
" style="fill:none;opacity:0.4;stroke:#f7b02a;stroke-linecap:round;stroke-width:2.0;"/>
    </g>
    <g id="line2d_30"/>
    <g id="text_17">
     <!-- mouse 3: 77 -->
     <defs>
      <path d="M 4.203125 18.890625 
L 12.984375 20.0625 
Q 14.5 12.59375 18.140625 9.296875 
Q 21.78125 6 27 6 
Q 33.203125 6 37.46875 10.296875 
Q 41.75 14.59375 41.75 20.953125 
Q 41.75 27 37.796875 30.921875 
Q 33.84375 34.859375 27.734375 34.859375 
Q 25.25 34.859375 21.53125 33.890625 
L 22.515625 41.609375 
Q 23.390625 41.5 23.921875 41.5 
Q 29.546875 41.5 34.03125 44.421875 
Q 38.53125 47.359375 38.53125 53.46875 
Q 38.53125 58.296875 35.25 61.46875 
Q 31.984375 64.65625 26.8125 64.65625 
Q 21.6875 64.65625 18.265625 61.421875 
Q 14.84375 58.203125 13.875 51.765625 
L 5.078125 53.328125 
Q 6.6875 62.15625 12.390625 67.015625 
Q 18.109375 71.875 26.609375 71.875 
Q 32.46875 71.875 37.390625 69.359375 
Q 42.328125 66.84375 44.9375 62.5 
Q 47.5625 58.15625 47.5625 53.265625 
Q 47.5625 48.640625 45.0625 44.828125 
Q 42.578125 41.015625 37.703125 38.765625 
Q 44.046875 37.3125 47.5625 32.6875 
Q 51.078125 28.078125 51.078125 21.140625 
Q 51.078125 11.765625 44.234375 5.25 
Q 37.40625 -1.265625 26.953125 -1.265625 
Q 17.53125 -1.265625 11.296875 4.34375 
Q 5.078125 9.96875 4.203125 18.890625 
" id="ArialMT-33"/>
     </defs>
     <g style="fill:#262626;" transform="translate(423.796875 98.19375)scale(0.1 -0.1)">
      <use xlink:href="#ArialMT-6d"/>
      <use x="83.30078125" xlink:href="#ArialMT-6f"/>
      <use x="138.916015625" xlink:href="#ArialMT-75"/>
      <use x="194.53125" xlink:href="#ArialMT-73"/>
      <use x="244.53125" xlink:href="#ArialMT-65"/>
      <use x="300.146484375" xlink:href="#ArialMT-20"/>
      <use x="327.9296875" xlink:href="#ArialMT-33"/>
      <use x="383.544921875" xlink:href="#ArialMT-3a"/>
      <use x="411.328125" xlink:href="#ArialMT-20"/>
      <use x="439.111328125" xlink:href="#ArialMT-37"/>
      <use x="494.7265625" xlink:href="#ArialMT-37"/>
     </g>
    </g>
    <g id="line2d_31">
     <path d="M 395.796875 108.839063 
L 415.796875 108.839063 
" style="fill:none;opacity:0.4;stroke:#02b72a;stroke-linecap:round;stroke-width:2.0;"/>
    </g>
    <g id="line2d_32"/>
    <g id="text_18">
     <!-- mouse 4: 134 -->
     <g style="fill:#262626;" transform="translate(423.796875 112.3390625)scale(0.1 -0.1)">
      <use xlink:href="#ArialMT-6d"/>
      <use x="83.30078125" xlink:href="#ArialMT-6f"/>
      <use x="138.916015625" xlink:href="#ArialMT-75"/>
      <use x="194.53125" xlink:href="#ArialMT-73"/>
      <use x="244.53125" xlink:href="#ArialMT-65"/>
      <use x="300.146484375" xlink:href="#ArialMT-20"/>
      <use x="327.9296875" xlink:href="#ArialMT-34"/>
      <use x="383.544921875" xlink:href="#ArialMT-3a"/>
      <use x="411.328125" xlink:href="#ArialMT-20"/>
      <use x="439.111328125" xlink:href="#ArialMT-31"/>
      <use x="494.7265625" xlink:href="#ArialMT-33"/>
      <use x="550.341796875" xlink:href="#ArialMT-34"/>
     </g>
    </g>
    <g id="line2d_33">
     <path d="M 395.796875 122.984375 
L 415.796875 122.984375 
" style="fill:none;opacity:0.4;stroke:#009e9e;stroke-linecap:round;stroke-width:2.0;"/>
    </g>
    <g id="line2d_34"/>
    <g id="text_19">
     <!-- mouse 5: 94 -->
     <g style="fill:#262626;" transform="translate(423.796875 126.484375)scale(0.1 -0.1)">
      <use xlink:href="#ArialMT-6d"/>
      <use x="83.30078125" xlink:href="#ArialMT-6f"/>
      <use x="138.916015625" xlink:href="#ArialMT-75"/>
      <use x="194.53125" xlink:href="#ArialMT-73"/>
      <use x="244.53125" xlink:href="#ArialMT-65"/>
      <use x="300.146484375" xlink:href="#ArialMT-20"/>
      <use x="327.9296875" xlink:href="#ArialMT-35"/>
      <use x="383.544921875" xlink:href="#ArialMT-3a"/>
      <use x="411.328125" xlink:href="#ArialMT-20"/>
      <use x="439.111328125" xlink:href="#ArialMT-39"/>
      <use x="494.7265625" xlink:href="#ArialMT-34"/>
     </g>
    </g>
    <g id="line2d_35">
     <path d="M 395.796875 137.129687 
L 415.796875 137.129687 
" style="fill:none;opacity:0.4;stroke:#1d1aa9;stroke-linecap:round;stroke-width:2.0;"/>
    </g>
    <g id="line2d_36"/>
    <g id="text_20">
     <!-- mouse 6: 59 -->
     <g style="fill:#262626;" transform="translate(423.796875 140.6296875)scale(0.1 -0.1)">
      <use xlink:href="#ArialMT-6d"/>
      <use x="83.30078125" xlink:href="#ArialMT-6f"/>
      <use x="138.916015625" xlink:href="#ArialMT-75"/>
      <use x="194.53125" xlink:href="#ArialMT-73"/>
      <use x="244.53125" xlink:href="#ArialMT-65"/>
      <use x="300.146484375" xlink:href="#ArialMT-20"/>
      <use x="327.9296875" xlink:href="#ArialMT-36"/>
      <use x="383.544921875" xlink:href="#ArialMT-3a"/>
      <use x="411.328125" xlink:href="#ArialMT-20"/>
      <use x="439.111328125" xlink:href="#ArialMT-35"/>
      <use x="494.7265625" xlink:href="#ArialMT-39"/>
     </g>
    </g>
   </g>
  </g>
 </g>
 <defs>
  <clipPath id="p75004bd75e">
   <rect height="306.9" width="446.4" x="72.0" y="39.6"/>
  </clipPath>
 </defs>
</svg>
