<?xml version="1.0" encoding="utf-8" standalone="no"?>
<!DOCTYPE svg PUBLIC "-//W3C//DTD SVG 1.1//EN"
  "http://www.w3.org/Graphics/SVG/1.1/DTD/svg11.dtd">
<!-- Created with matplotlib (http://matplotlib.org/) -->
<svg height="396pt" version="1.1" viewBox="0 0 576 396" width="576pt" xmlns="http://www.w3.org/2000/svg" xmlns:xlink="http://www.w3.org/1999/xlink">
 <defs>
  <style type="text/css">
*{stroke-linecap:butt;stroke-linejoin:round;stroke-miterlimit:100000;}
  </style>
 </defs>
 <g id="figure_1">
  <g id="patch_1">
   <path d="M 0 396 
L 576 396 
L 576 0 
L 0 0 
z
" style="fill:#ffffff;"/>
  </g>
  <g id="axes_1">
   <g id="patch_2">
    <path d="M 72 346.5 
L 518.4 346.5 
L 518.4 39.6 
L 72 39.6 
z
" style="fill:#ffffff;"/>
   </g>
   <g id="matplotlib.axis_1">
    <g id="xtick_1">
     <g id="line2d_1">
      <defs>
       <path d="M 0 0 
L 0 5 
" id="m2f604fcb04" style="stroke:#262626;"/>
      </defs>
      <g>
       <use style="fill:#262626;stroke:#262626;" x="74.0908665105" xlink:href="#m2f604fcb04" y="346.5"/>
      </g>
     </g>
     <g id="text_1">
      <!-- 0 -->
      <defs>
       <path d="M 4.15625 35.296875 
Q 4.15625 48 6.765625 55.734375 
Q 9.375 63.484375 14.515625 67.671875 
Q 19.671875 71.875 27.484375 71.875 
Q 33.25 71.875 37.59375 69.546875 
Q 41.9375 67.234375 44.765625 62.859375 
Q 47.609375 58.5 49.21875 52.21875 
Q 50.828125 45.953125 50.828125 35.296875 
Q 50.828125 22.703125 48.234375 14.96875 
Q 45.65625 7.234375 40.5 3 
Q 35.359375 -1.21875 27.484375 -1.21875 
Q 17.140625 -1.21875 11.234375 6.203125 
Q 4.15625 15.140625 4.15625 35.296875 
M 13.1875 35.296875 
Q 13.1875 17.671875 17.3125 11.828125 
Q 21.4375 6 27.484375 6 
Q 33.546875 6 37.671875 11.859375 
Q 41.796875 17.71875 41.796875 35.296875 
Q 41.796875 52.984375 37.671875 58.78125 
Q 33.546875 64.59375 27.390625 64.59375 
Q 21.34375 64.59375 17.71875 59.46875 
Q 13.1875 52.9375 13.1875 35.296875 
" id="ArialMT-30"/>
      </defs>
      <g style="fill:#262626;" transform="translate(71.3103977605 360.6578125)scale(0.1 -0.1)">
       <use xlink:href="#ArialMT-30"/>
      </g>
     </g>
    </g>
    <g id="xtick_2">
     <g id="line2d_2">
      <g>
       <use style="fill:#262626;stroke:#262626;" x="178.634192037" xlink:href="#m2f604fcb04" y="346.5"/>
      </g>
     </g>
     <g id="text_2">
      <!-- 500 -->
      <defs>
       <path d="M 4.15625 18.75 
L 13.375 19.53125 
Q 14.40625 12.796875 18.140625 9.390625 
Q 21.875 6 27.15625 6 
Q 33.5 6 37.890625 10.78125 
Q 42.28125 15.578125 42.28125 23.484375 
Q 42.28125 31 38.0625 35.34375 
Q 33.84375 39.703125 27 39.703125 
Q 22.75 39.703125 19.328125 37.765625 
Q 15.921875 35.84375 13.96875 32.765625 
L 5.71875 33.84375 
L 12.640625 70.609375 
L 48.25 70.609375 
L 48.25 62.203125 
L 19.671875 62.203125 
L 15.828125 42.96875 
Q 22.265625 47.46875 29.34375 47.46875 
Q 38.71875 47.46875 45.15625 40.96875 
Q 51.609375 34.46875 51.609375 24.265625 
Q 51.609375 14.546875 45.953125 7.46875 
Q 39.0625 -1.21875 27.15625 -1.21875 
Q 17.390625 -1.21875 11.203125 4.25 
Q 5.03125 9.71875 4.15625 18.75 
" id="ArialMT-35"/>
      </defs>
      <g style="fill:#262626;" transform="translate(170.292785787 360.6578125)scale(0.1 -0.1)">
       <use xlink:href="#ArialMT-35"/>
       <use x="55.615234375" xlink:href="#ArialMT-30"/>
       <use x="111.23046875" xlink:href="#ArialMT-30"/>
      </g>
     </g>
    </g>
    <g id="xtick_3">
     <g id="line2d_3">
      <g>
       <use style="fill:#262626;stroke:#262626;" x="283.177517564" xlink:href="#m2f604fcb04" y="346.5"/>
      </g>
     </g>
     <g id="text_3">
      <!-- 1000 -->
      <defs>
       <path d="M 37.25 0 
L 28.46875 0 
L 28.46875 56 
Q 25.296875 52.984375 20.140625 49.953125 
Q 14.984375 46.921875 10.890625 45.40625 
L 10.890625 53.90625 
Q 18.265625 57.375 23.78125 62.296875 
Q 29.296875 67.234375 31.59375 71.875 
L 37.25 71.875 
z
" id="ArialMT-31"/>
      </defs>
      <g style="fill:#262626;" transform="translate(272.055642564 360.6578125)scale(0.1 -0.1)">
       <use xlink:href="#ArialMT-31"/>
       <use x="55.615234375" xlink:href="#ArialMT-30"/>
       <use x="111.23046875" xlink:href="#ArialMT-30"/>
       <use x="166.845703125" xlink:href="#ArialMT-30"/>
      </g>
     </g>
    </g>
    <g id="xtick_4">
     <g id="line2d_4">
      <g>
       <use style="fill:#262626;stroke:#262626;" x="387.720843091" xlink:href="#m2f604fcb04" y="346.5"/>
      </g>
     </g>
     <g id="text_4">
      <!-- 1500 -->
      <g style="fill:#262626;" transform="translate(376.598968091 360.6578125)scale(0.1 -0.1)">
       <use xlink:href="#ArialMT-31"/>
       <use x="55.615234375" xlink:href="#ArialMT-35"/>
       <use x="111.23046875" xlink:href="#ArialMT-30"/>
       <use x="166.845703125" xlink:href="#ArialMT-30"/>
      </g>
     </g>
    </g>
    <g id="xtick_5">
     <g id="line2d_5">
      <g>
       <use style="fill:#262626;stroke:#262626;" x="492.264168618" xlink:href="#m2f604fcb04" y="346.5"/>
      </g>
     </g>
     <g id="text_5">
      <!-- 2000 -->
      <defs>
       <path d="M 50.34375 8.453125 
L 50.34375 0 
L 3.03125 0 
Q 2.9375 3.171875 4.046875 6.109375 
Q 5.859375 10.9375 9.828125 15.625 
Q 13.8125 20.3125 21.34375 26.46875 
Q 33.015625 36.03125 37.109375 41.625 
Q 41.21875 47.21875 41.21875 52.203125 
Q 41.21875 57.421875 37.46875 61 
Q 33.734375 64.59375 27.734375 64.59375 
Q 21.390625 64.59375 17.578125 60.78125 
Q 13.765625 56.984375 13.71875 50.25 
L 4.6875 51.171875 
Q 5.609375 61.28125 11.65625 66.578125 
Q 17.71875 71.875 27.9375 71.875 
Q 38.234375 71.875 44.234375 66.15625 
Q 50.25 60.453125 50.25 52 
Q 50.25 47.703125 48.484375 43.546875 
Q 46.734375 39.40625 42.65625 34.8125 
Q 38.578125 30.21875 29.109375 22.21875 
Q 21.1875 15.578125 18.9375 13.203125 
Q 16.703125 10.84375 15.234375 8.453125 
z
" id="ArialMT-32"/>
      </defs>
      <g style="fill:#262626;" transform="translate(481.142293618 360.6578125)scale(0.1 -0.1)">
       <use xlink:href="#ArialMT-32"/>
       <use x="55.615234375" xlink:href="#ArialMT-30"/>
       <use x="111.23046875" xlink:href="#ArialMT-30"/>
       <use x="166.845703125" xlink:href="#ArialMT-30"/>
      </g>
     </g>
    </g>
    <g id="text_6">
     <!-- barcode, rank-ordered -->
     <defs>
      <path d="M 40.4375 19 
L 49.078125 17.875 
Q 47.65625 8.9375 41.8125 3.875 
Q 35.984375 -1.171875 27.484375 -1.171875 
Q 16.84375 -1.171875 10.375 5.78125 
Q 3.90625 12.75 3.90625 25.734375 
Q 3.90625 34.125 6.6875 40.421875 
Q 9.46875 46.734375 15.15625 49.875 
Q 20.84375 53.03125 27.546875 53.03125 
Q 35.984375 53.03125 41.359375 48.75 
Q 46.734375 44.484375 48.25 36.625 
L 39.703125 35.296875 
Q 38.484375 40.53125 35.375 43.15625 
Q 32.28125 45.796875 27.875 45.796875 
Q 21.234375 45.796875 17.078125 41.03125 
Q 12.9375 36.28125 12.9375 25.984375 
Q 12.9375 15.53125 16.9375 10.796875 
Q 20.953125 6.0625 27.390625 6.0625 
Q 32.5625 6.0625 36.03125 9.234375 
Q 39.5 12.40625 40.4375 19 
" id="ArialMT-63"/>
      <path d="M 14.703125 0 
L 6.546875 0 
L 6.546875 71.578125 
L 15.328125 71.578125 
L 15.328125 46.046875 
Q 20.90625 53.03125 29.546875 53.03125 
Q 34.328125 53.03125 38.59375 51.09375 
Q 42.875 49.171875 45.625 45.671875 
Q 48.390625 42.1875 49.953125 37.25 
Q 51.515625 32.328125 51.515625 26.703125 
Q 51.515625 13.375 44.921875 6.09375 
Q 38.328125 -1.171875 29.109375 -1.171875 
Q 19.921875 -1.171875 14.703125 6.5 
z
M 14.59375 26.3125 
Q 14.59375 17 17.140625 12.84375 
Q 21.296875 6.0625 28.375 6.0625 
Q 34.125 6.0625 38.328125 11.0625 
Q 42.53125 16.0625 42.53125 25.984375 
Q 42.53125 36.140625 38.5 40.96875 
Q 34.46875 45.796875 28.765625 45.796875 
Q 23 45.796875 18.796875 40.796875 
Q 14.59375 35.796875 14.59375 26.3125 
" id="ArialMT-62"/>
      <path d="M 40.4375 6.390625 
Q 35.546875 2.25 31.03125 0.53125 
Q 26.515625 -1.171875 21.34375 -1.171875 
Q 12.796875 -1.171875 8.203125 3 
Q 3.609375 7.171875 3.609375 13.671875 
Q 3.609375 17.484375 5.34375 20.625 
Q 7.078125 23.78125 9.890625 25.6875 
Q 12.703125 27.59375 16.21875 28.5625 
Q 18.796875 29.25 24.03125 29.890625 
Q 34.671875 31.15625 39.703125 32.90625 
Q 39.75 34.71875 39.75 35.203125 
Q 39.75 40.578125 37.25 42.78125 
Q 33.890625 45.75 27.25 45.75 
Q 21.046875 45.75 18.09375 43.578125 
Q 15.140625 41.40625 13.71875 35.890625 
L 5.125 37.0625 
Q 6.296875 42.578125 8.984375 45.96875 
Q 11.671875 49.359375 16.75 51.1875 
Q 21.828125 53.03125 28.515625 53.03125 
Q 35.15625 53.03125 39.296875 51.46875 
Q 43.453125 49.90625 45.40625 47.53125 
Q 47.359375 45.171875 48.140625 41.546875 
Q 48.578125 39.3125 48.578125 33.453125 
L 48.578125 21.734375 
Q 48.578125 9.46875 49.140625 6.21875 
Q 49.703125 2.984375 51.375 0 
L 42.1875 0 
Q 40.828125 2.734375 40.4375 6.390625 
M 39.703125 26.03125 
Q 34.90625 24.078125 25.34375 22.703125 
Q 19.921875 21.921875 17.671875 20.9375 
Q 15.4375 19.96875 14.203125 18.09375 
Q 12.984375 16.21875 12.984375 13.921875 
Q 12.984375 10.40625 15.640625 8.0625 
Q 18.3125 5.71875 23.4375 5.71875 
Q 28.515625 5.71875 32.46875 7.9375 
Q 36.421875 10.15625 38.28125 14.015625 
Q 39.703125 17 39.703125 22.796875 
z
" id="ArialMT-61"/>
      <path d="M 42.09375 16.703125 
L 51.171875 15.578125 
Q 49.03125 7.625 43.21875 3.21875 
Q 37.40625 -1.171875 28.375 -1.171875 
Q 17 -1.171875 10.328125 5.828125 
Q 3.65625 12.84375 3.65625 25.484375 
Q 3.65625 38.578125 10.390625 45.796875 
Q 17.140625 53.03125 27.875 53.03125 
Q 38.28125 53.03125 44.875 45.953125 
Q 51.46875 38.875 51.46875 26.03125 
Q 51.46875 25.25 51.421875 23.6875 
L 12.75 23.6875 
Q 13.234375 15.140625 17.578125 10.59375 
Q 21.921875 6.0625 28.421875 6.0625 
Q 33.25 6.0625 36.671875 8.59375 
Q 40.09375 11.140625 42.09375 16.703125 
M 13.234375 30.90625 
L 42.1875 30.90625 
Q 41.609375 37.453125 38.875 40.71875 
Q 34.671875 45.796875 27.984375 45.796875 
Q 21.921875 45.796875 17.796875 41.75 
Q 13.671875 37.703125 13.234375 30.90625 
" id="ArialMT-65"/>
      <path d="M 40.234375 0 
L 40.234375 6.546875 
Q 35.296875 -1.171875 25.734375 -1.171875 
Q 19.53125 -1.171875 14.328125 2.25 
Q 9.125 5.671875 6.265625 11.796875 
Q 3.421875 17.921875 3.421875 25.875 
Q 3.421875 33.640625 6 39.96875 
Q 8.59375 46.296875 13.765625 49.65625 
Q 18.953125 53.03125 25.34375 53.03125 
Q 30.03125 53.03125 33.6875 51.046875 
Q 37.359375 49.078125 39.65625 45.90625 
L 39.65625 71.578125 
L 48.390625 71.578125 
L 48.390625 0 
z
M 12.453125 25.875 
Q 12.453125 15.921875 16.640625 10.984375 
Q 20.84375 6.0625 26.5625 6.0625 
Q 32.328125 6.0625 36.34375 10.765625 
Q 40.375 15.484375 40.375 25.140625 
Q 40.375 35.796875 36.265625 40.765625 
Q 32.171875 45.75 26.171875 45.75 
Q 20.3125 45.75 16.375 40.96875 
Q 12.453125 36.1875 12.453125 25.875 
" id="ArialMT-64"/>
      <path d="M 3.171875 21.484375 
L 3.171875 30.328125 
L 30.171875 30.328125 
L 30.171875 21.484375 
z
" id="ArialMT-2d"/>
      <path d="M 8.890625 0 
L 8.890625 10.015625 
L 18.890625 10.015625 
L 18.890625 0 
Q 18.890625 -5.515625 16.9375 -8.90625 
Q 14.984375 -12.3125 10.75 -14.15625 
L 8.296875 -10.40625 
Q 11.078125 -9.1875 12.390625 -6.8125 
Q 13.71875 -4.4375 13.875 0 
z
" id="ArialMT-2c"/>
      <path d="M 6.5 0 
L 6.5 51.859375 
L 14.40625 51.859375 
L 14.40625 44 
Q 17.4375 49.515625 20 51.265625 
Q 22.5625 53.03125 25.640625 53.03125 
Q 30.078125 53.03125 34.671875 50.203125 
L 31.640625 42.046875 
Q 28.421875 43.953125 25.203125 43.953125 
Q 22.3125 43.953125 20.015625 42.21875 
Q 17.71875 40.484375 16.75 37.40625 
Q 15.28125 32.71875 15.28125 27.15625 
L 15.28125 0 
z
" id="ArialMT-72"/>
      <path d="M 6.640625 0 
L 6.640625 71.578125 
L 15.4375 71.578125 
L 15.4375 30.765625 
L 36.234375 51.859375 
L 47.609375 51.859375 
L 27.78125 32.625 
L 49.609375 0 
L 38.765625 0 
L 21.625 26.515625 
L 15.4375 20.5625 
L 15.4375 0 
z
" id="ArialMT-6b"/>
      <path d="M 3.328125 25.921875 
Q 3.328125 40.328125 11.328125 47.265625 
Q 18.015625 53.03125 27.640625 53.03125 
Q 38.328125 53.03125 45.109375 46.015625 
Q 51.90625 39.015625 51.90625 26.65625 
Q 51.90625 16.65625 48.90625 10.90625 
Q 45.90625 5.171875 40.15625 2 
Q 34.421875 -1.171875 27.640625 -1.171875 
Q 16.75 -1.171875 10.03125 5.8125 
Q 3.328125 12.796875 3.328125 25.921875 
M 12.359375 25.921875 
Q 12.359375 15.96875 16.703125 11.015625 
Q 21.046875 6.0625 27.640625 6.0625 
Q 34.1875 6.0625 38.53125 11.03125 
Q 42.875 16.015625 42.875 26.21875 
Q 42.875 35.84375 38.5 40.796875 
Q 34.125 45.75 27.640625 45.75 
Q 21.046875 45.75 16.703125 40.8125 
Q 12.359375 35.890625 12.359375 25.921875 
" id="ArialMT-6f"/>
      <path d="M 6.59375 0 
L 6.59375 51.859375 
L 14.5 51.859375 
L 14.5 44.484375 
Q 20.21875 53.03125 31 53.03125 
Q 35.6875 53.03125 39.625 51.34375 
Q 43.5625 49.65625 45.515625 46.921875 
Q 47.46875 44.1875 48.25 40.4375 
Q 48.734375 37.984375 48.734375 31.890625 
L 48.734375 0 
L 39.9375 0 
L 39.9375 31.546875 
Q 39.9375 36.921875 38.90625 39.578125 
Q 37.890625 42.234375 35.28125 43.8125 
Q 32.671875 45.40625 29.15625 45.40625 
Q 23.53125 45.40625 19.453125 41.84375 
Q 15.375 38.28125 15.375 28.328125 
L 15.375 0 
z
" id="ArialMT-6e"/>
      <path id="ArialMT-20"/>
     </defs>
     <g style="fill:#262626;" transform="translate(240.785234375 375.51890625)scale(0.11 -0.11)">
      <use xlink:href="#ArialMT-62"/>
      <use x="55.615234375" xlink:href="#ArialMT-61"/>
      <use x="111.23046875" xlink:href="#ArialMT-72"/>
      <use x="144.53125" xlink:href="#ArialMT-63"/>
      <use x="194.53125" xlink:href="#ArialMT-6f"/>
      <use x="250.146484375" xlink:href="#ArialMT-64"/>
      <use x="305.76171875" xlink:href="#ArialMT-65"/>
      <use x="361.376953125" xlink:href="#ArialMT-2c"/>
      <use x="389.16015625" xlink:href="#ArialMT-20"/>
      <use x="416.943359375" xlink:href="#ArialMT-72"/>
      <use x="450.244140625" xlink:href="#ArialMT-61"/>
      <use x="505.859375" xlink:href="#ArialMT-6e"/>
      <use x="561.474609375" xlink:href="#ArialMT-6b"/>
      <use x="611.474609375" xlink:href="#ArialMT-2d"/>
      <use x="644.775390625" xlink:href="#ArialMT-6f"/>
      <use x="700.390625" xlink:href="#ArialMT-72"/>
      <use x="733.69140625" xlink:href="#ArialMT-64"/>
      <use x="789.306640625" xlink:href="#ArialMT-65"/>
      <use x="844.921875" xlink:href="#ArialMT-72"/>
      <use x="878.22265625" xlink:href="#ArialMT-65"/>
      <use x="933.837890625" xlink:href="#ArialMT-64"/>
     </g>
    </g>
   </g>
   <g id="matplotlib.axis_2">
    <g id="ytick_1">
     <g id="line2d_6">
      <defs>
       <path d="M 0 0 
L -5 0 
" id="md1ffaa6c31" style="stroke:#262626;"/>
      </defs>
      <g>
       <use style="fill:#262626;stroke:#262626;" x="72.0" xlink:href="#md1ffaa6c31" y="346.5"/>
      </g>
     </g>
     <g id="text_7">
      <!-- 1 -->
      <g style="fill:#262626;" transform="translate(59.4390625 349.08515625)scale(0.1 -0.1)">
       <use xlink:href="#ArialMT-31"/>
      </g>
     </g>
    </g>
    <g id="ytick_2">
     <g id="line2d_7">
      <g>
       <use style="fill:#262626;stroke:#262626;" x="72.0" xlink:href="#md1ffaa6c31" y="277.989348439"/>
      </g>
     </g>
     <g id="text_8">
      <!-- 10 -->
      <g style="fill:#262626;" transform="translate(53.878125 280.574504689)scale(0.1 -0.1)">
       <use xlink:href="#ArialMT-31"/>
       <use x="55.615234375" xlink:href="#ArialMT-30"/>
      </g>
     </g>
    </g>
    <g id="ytick_3">
     <g id="line2d_8">
      <g>
       <use style="fill:#262626;stroke:#262626;" x="72.0" xlink:href="#md1ffaa6c31" y="209.478696878"/>
      </g>
     </g>
     <g id="text_9">
      <!-- 100 -->
      <g style="fill:#262626;" transform="translate(48.3171875 212.063853128)scale(0.1 -0.1)">
       <use xlink:href="#ArialMT-31"/>
       <use x="55.615234375" xlink:href="#ArialMT-30"/>
       <use x="111.23046875" xlink:href="#ArialMT-30"/>
      </g>
     </g>
    </g>
    <g id="ytick_4">
     <g id="line2d_9">
      <g>
       <use style="fill:#262626;stroke:#262626;" x="72.0" xlink:href="#md1ffaa6c31" y="140.968045318"/>
      </g>
     </g>
     <g id="text_10">
      <!-- 1000 -->
      <g style="fill:#262626;" transform="translate(42.75625 143.553201568)scale(0.1 -0.1)">
       <use xlink:href="#ArialMT-31"/>
       <use x="55.615234375" xlink:href="#ArialMT-30"/>
       <use x="111.23046875" xlink:href="#ArialMT-30"/>
       <use x="166.845703125" xlink:href="#ArialMT-30"/>
      </g>
     </g>
    </g>
    <g id="ytick_5">
     <g id="line2d_10">
      <g>
       <use style="fill:#262626;stroke:#262626;" x="72.0" xlink:href="#md1ffaa6c31" y="72.4573937569"/>
      </g>
     </g>
     <g id="text_11">
      <!-- 10000 -->
      <g style="fill:#262626;" transform="translate(37.1953125 75.0425500069)scale(0.1 -0.1)">
       <use xlink:href="#ArialMT-31"/>
       <use x="55.615234375" xlink:href="#ArialMT-30"/>
       <use x="111.23046875" xlink:href="#ArialMT-30"/>
       <use x="166.845703125" xlink:href="#ArialMT-30"/>
       <use x="222.4609375" xlink:href="#ArialMT-30"/>
      </g>
     </g>
    </g>
    <g id="text_12">
     <!-- log10 abundance (# molecules) -->
     <defs>
      <path d="M 4.984375 -4.296875 
L 13.53125 -5.5625 
Q 14.0625 -9.515625 16.5 -11.328125 
Q 19.78125 -13.765625 25.4375 -13.765625 
Q 31.546875 -13.765625 34.859375 -11.328125 
Q 38.1875 -8.890625 39.359375 -4.5 
Q 40.046875 -1.8125 39.984375 6.78125 
Q 34.234375 0 25.640625 0 
Q 14.9375 0 9.078125 7.71875 
Q 3.21875 15.4375 3.21875 26.21875 
Q 3.21875 33.640625 5.90625 39.90625 
Q 8.59375 46.1875 13.6875 49.609375 
Q 18.796875 53.03125 25.6875 53.03125 
Q 34.859375 53.03125 40.828125 45.609375 
L 40.828125 51.859375 
L 48.921875 51.859375 
L 48.921875 7.03125 
Q 48.921875 -5.078125 46.453125 -10.125 
Q 44 -15.1875 38.640625 -18.109375 
Q 33.296875 -21.046875 25.484375 -21.046875 
Q 16.21875 -21.046875 10.5 -16.875 
Q 4.78125 -12.703125 4.984375 -4.296875 
M 12.25 26.859375 
Q 12.25 16.65625 16.296875 11.96875 
Q 20.359375 7.28125 26.46875 7.28125 
Q 32.515625 7.28125 36.609375 11.9375 
Q 40.71875 16.609375 40.71875 26.5625 
Q 40.71875 36.078125 36.5 40.90625 
Q 32.28125 45.75 26.3125 45.75 
Q 20.453125 45.75 16.34375 40.984375 
Q 12.25 36.234375 12.25 26.859375 
" id="ArialMT-67"/>
      <path d="M 40.578125 0 
L 40.578125 7.625 
Q 34.515625 -1.171875 24.125 -1.171875 
Q 19.53125 -1.171875 15.546875 0.578125 
Q 11.578125 2.34375 9.640625 5 
Q 7.71875 7.671875 6.9375 11.53125 
Q 6.390625 14.109375 6.390625 19.734375 
L 6.390625 51.859375 
L 15.1875 51.859375 
L 15.1875 23.09375 
Q 15.1875 16.21875 15.71875 13.8125 
Q 16.546875 10.359375 19.234375 8.375 
Q 21.921875 6.390625 25.875 6.390625 
Q 29.828125 6.390625 33.296875 8.421875 
Q 36.765625 10.453125 38.203125 13.9375 
Q 39.65625 17.4375 39.65625 24.078125 
L 39.65625 51.859375 
L 48.4375 51.859375 
L 48.4375 0 
z
" id="ArialMT-75"/>
      <path d="M 23.390625 -21.046875 
Q 16.109375 -11.859375 11.078125 0.4375 
Q 6.0625 12.75 6.0625 25.921875 
Q 6.0625 37.546875 9.8125 48.1875 
Q 14.203125 60.546875 23.390625 72.796875 
L 29.6875 72.796875 
Q 23.78125 62.640625 21.875 58.296875 
Q 18.890625 51.5625 17.1875 44.234375 
Q 15.09375 35.109375 15.09375 25.875 
Q 15.09375 2.390625 29.6875 -21.046875 
z
" id="ArialMT-28"/>
      <path d="M 3.078125 15.484375 
L 11.765625 16.84375 
Q 12.5 11.625 15.84375 8.84375 
Q 19.1875 6.0625 25.203125 6.0625 
Q 31.25 6.0625 34.171875 8.515625 
Q 37.109375 10.984375 37.109375 14.3125 
Q 37.109375 17.28125 34.515625 19 
Q 32.71875 20.171875 25.53125 21.96875 
Q 15.875 24.421875 12.140625 26.203125 
Q 8.40625 27.984375 6.46875 31.125 
Q 4.546875 34.28125 4.546875 38.09375 
Q 4.546875 41.546875 6.125 44.5 
Q 7.71875 47.46875 10.453125 49.421875 
Q 12.5 50.921875 16.03125 51.96875 
Q 19.578125 53.03125 23.640625 53.03125 
Q 29.734375 53.03125 34.34375 51.265625 
Q 38.96875 49.515625 41.15625 46.5 
Q 43.359375 43.5 44.1875 38.484375 
L 35.59375 37.3125 
Q 35.015625 41.3125 32.203125 43.546875 
Q 29.390625 45.796875 24.265625 45.796875 
Q 18.21875 45.796875 15.625 43.796875 
Q 13.03125 41.796875 13.03125 39.109375 
Q 13.03125 37.40625 14.109375 36.03125 
Q 15.1875 34.625 17.484375 33.6875 
Q 18.796875 33.203125 25.25 31.453125 
Q 34.578125 28.953125 38.25 27.359375 
Q 41.9375 25.78125 44.03125 22.75 
Q 46.140625 19.734375 46.140625 15.234375 
Q 46.140625 10.84375 43.578125 6.953125 
Q 41.015625 3.078125 36.171875 0.953125 
Q 31.34375 -1.171875 25.25 -1.171875 
Q 15.140625 -1.171875 9.84375 3.03125 
Q 4.546875 7.234375 3.078125 15.484375 
" id="ArialMT-73"/>
      <path d="M 6.390625 0 
L 6.390625 71.578125 
L 15.1875 71.578125 
L 15.1875 0 
z
" id="ArialMT-6c"/>
      <path d="M 12.359375 -21.046875 
L 6.0625 -21.046875 
Q 20.65625 2.390625 20.65625 25.875 
Q 20.65625 35.0625 18.5625 44.09375 
Q 16.890625 51.421875 13.921875 58.15625 
Q 12.015625 62.546875 6.0625 72.796875 
L 12.359375 72.796875 
Q 21.53125 60.546875 25.921875 48.1875 
Q 29.6875 37.546875 29.6875 25.921875 
Q 29.6875 12.75 24.625 0.4375 
Q 19.578125 -11.859375 12.359375 -21.046875 
" id="ArialMT-29"/>
      <path d="M 6.59375 0 
L 6.59375 51.859375 
L 14.453125 51.859375 
L 14.453125 44.578125 
Q 16.890625 48.390625 20.9375 50.703125 
Q 25 53.03125 30.171875 53.03125 
Q 35.9375 53.03125 39.625 50.640625 
Q 43.3125 48.25 44.828125 43.953125 
Q 50.984375 53.03125 60.84375 53.03125 
Q 68.5625 53.03125 72.703125 48.75 
Q 76.859375 44.484375 76.859375 35.59375 
L 76.859375 0 
L 68.109375 0 
L 68.109375 32.671875 
Q 68.109375 37.9375 67.25 40.25 
Q 66.40625 42.578125 64.15625 43.984375 
Q 61.921875 45.40625 58.890625 45.40625 
Q 53.421875 45.40625 49.796875 41.765625 
Q 46.1875 38.140625 46.1875 30.125 
L 46.1875 0 
L 37.40625 0 
L 37.40625 33.6875 
Q 37.40625 39.546875 35.25 42.46875 
Q 33.109375 45.40625 28.21875 45.40625 
Q 24.515625 45.40625 21.359375 43.453125 
Q 18.21875 41.5 16.796875 37.734375 
Q 15.375 33.984375 15.375 26.90625 
L 15.375 0 
z
" id="ArialMT-6d"/>
      <path d="M 5.03125 -1.21875 
L 9.28125 19.578125 
L 1.03125 19.578125 
L 1.03125 26.859375 
L 10.75 26.859375 
L 14.359375 44.578125 
L 1.03125 44.578125 
L 1.03125 51.859375 
L 15.828125 51.859375 
L 20.0625 72.796875 
L 27.390625 72.796875 
L 23.140625 51.859375 
L 38.53125 51.859375 
L 42.78125 72.796875 
L 50.140625 72.796875 
L 45.90625 51.859375 
L 54.34375 51.859375 
L 54.34375 44.578125 
L 44.4375 44.578125 
L 40.765625 26.859375 
L 54.34375 26.859375 
L 54.34375 19.578125 
L 39.3125 19.578125 
L 35.0625 -1.21875 
L 27.734375 -1.21875 
L 31.9375 19.578125 
L 16.609375 19.578125 
L 12.359375 -1.21875 
z
M 18.0625 26.859375 
L 33.40625 26.859375 
L 37.0625 44.578125 
L 21.6875 44.578125 
z
" id="ArialMT-23"/>
     </defs>
     <g style="fill:#262626;" transform="translate(29.88015625 269.78875)rotate(-90.0)scale(0.11 -0.11)">
      <use xlink:href="#ArialMT-6c"/>
      <use x="22.216796875" xlink:href="#ArialMT-6f"/>
      <use x="77.83203125" xlink:href="#ArialMT-67"/>
      <use x="133.447265625" xlink:href="#ArialMT-31"/>
      <use x="189.0625" xlink:href="#ArialMT-30"/>
      <use x="244.677734375" xlink:href="#ArialMT-20"/>
      <use x="272.4609375" xlink:href="#ArialMT-61"/>
      <use x="328.076171875" xlink:href="#ArialMT-62"/>
      <use x="383.69140625" xlink:href="#ArialMT-75"/>
      <use x="439.306640625" xlink:href="#ArialMT-6e"/>
      <use x="494.921875" xlink:href="#ArialMT-64"/>
      <use x="550.537109375" xlink:href="#ArialMT-61"/>
      <use x="606.15234375" xlink:href="#ArialMT-6e"/>
      <use x="661.767578125" xlink:href="#ArialMT-63"/>
      <use x="711.767578125" xlink:href="#ArialMT-65"/>
      <use x="767.3828125" xlink:href="#ArialMT-20"/>
      <use x="795.166015625" xlink:href="#ArialMT-28"/>
      <use x="828.466796875" xlink:href="#ArialMT-23"/>
      <use x="884.08203125" xlink:href="#ArialMT-20"/>
      <use x="911.865234375" xlink:href="#ArialMT-6d"/>
      <use x="995.166015625" xlink:href="#ArialMT-6f"/>
      <use x="1050.78125" xlink:href="#ArialMT-6c"/>
      <use x="1072.99804688" xlink:href="#ArialMT-65"/>
      <use x="1128.61328125" xlink:href="#ArialMT-63"/>
      <use x="1178.61328125" xlink:href="#ArialMT-75"/>
      <use x="1234.22851562" xlink:href="#ArialMT-6c"/>
      <use x="1256.4453125" xlink:href="#ArialMT-65"/>
      <use x="1312.06054688" xlink:href="#ArialMT-73"/>
      <use x="1362.06054688" xlink:href="#ArialMT-29"/>
     </g>
    </g>
   </g>
   <g id="line2d_11">
    <path clip-path="url(#p80a2034c22)" d="M 112.179485 346.5 
L 112.179485 39.6 
" style="fill:none;stroke:#808080;stroke-linecap:round;stroke-width:3.0;"/>
   </g>
   <g id="line2d_12">
    <path clip-path="url(#p80a2034c22)" d="M 74.090867 128.84447 
L 74.299953 132.61742 
L 74.50904 135.792274 
L 74.927213 136.018158 
L 75.554473 139.944472 
L 75.76356 143.806861 
L 75.972646 144.468819 
L 76.181733 145.97914 
L 76.39082 146.120321 
L 76.599906 147.127801 
L 76.808993 147.164421 
L 77.227166 149.09446 
L 77.854426 149.646933 
L 78.063513 150.250479 
L 78.2726 150.454413 
L 78.690773 151.242365 
L 78.899859 152.399245 
L 79.318033 152.618508 
L 79.527119 152.795089 
L 79.736206 154.015233 
L 80.154379 154.293308 
L 81.199813 156.466083 
L 81.408899 156.516216 
L 82.245246 157.53703 
L 82.663419 157.745464 
L 82.872506 157.850231 
L 83.081593 158.594114 
L 83.708852 159.027693 
L 84.127026 160.083494 
L 84.545199 160.5395 
L 84.754286 160.5395 
L 84.963372 160.654601 
L 85.172459 161.354723 
L 86.008806 161.651374 
L 86.217892 161.830794 
L 86.845152 161.890842 
L 87.054239 162.071717 
L 87.263326 162.806416 
L 87.890585 163.055403 
L 88.308759 163.306491 
L 88.726932 163.369596 
L 88.936019 163.687142 
L 89.145105 163.75106 
L 89.981452 164.792875 
L 90.190539 164.859216 
L 90.817799 165.598896 
L 91.235972 165.735382 
L 91.445059 166.218073 
L 91.654145 166.992772 
L 91.863232 167.135819 
L 92.072319 167.788182 
L 92.490492 167.861557 
L 92.908665 168.605441 
L 93.326838 169.214236 
L 93.535925 169.368401 
L 93.954098 169.914357 
L 94.581358 169.993175 
L 94.790445 170.310552 
L 95.208618 170.550827 
L 95.626792 170.874241 
L 96.044965 172.034703 
L 96.463138 172.119351 
L 97.299485 172.460373 
L 97.508571 172.718728 
L 98.135831 174.500926 
L 98.763091 174.870543 
L 98.972178 175.244809 
L 99.181265 175.339116 
L 99.390351 175.623844 
L 99.599438 175.719362 
L 99.808525 176.298999 
L 100.017611 176.396713 
L 100.226698 176.989832 
L 100.644871 177.391916 
L 101.063044 178.10891 
L 101.899391 178.631837 
L 102.317564 179.271728 
L 102.944824 179.706098 
L 103.153911 182.09679 
L 103.362998 182.334821 
L 103.572084 182.334821 
L 103.781171 182.816675 
L 104.408431 183.30646 
L 104.826604 183.930253 
L 105.244778 184.310903 
L 105.872037 185.087133 
L 106.081124 186.427621 
L 106.290211 186.703121 
L 106.499297 186.703121 
L 106.917471 187.121214 
L 107.126557 187.261895 
L 107.335644 188.411943 
L 107.544731 188.558876 
L 107.962904 189.91498 
L 108.381077 189.91498 
L 108.590164 190.381106 
L 109.008337 190.381106 
L 109.217424 190.538119 
L 109.635597 191.014189 
L 109.844684 191.014189 
L 110.05377 191.174588 
L 110.262857 191.174588 
L 110.890117 192.658464 
L 111.099204 192.828002 
L 111.517377 193.34249 
L 111.726464 193.34249 
L 112.353724 194.941586 
L 112.56281 195.124687 
L 112.980984 196.057484 
L 113.19007 197.020474 
L 113.399157 197.020474 
L 113.81733 197.613593 
L 114.026417 199.255598 
L 114.44459 199.255598 
L 114.653677 200.111882 
L 114.862763 200.111882 
L 115.07185 200.770664 
L 115.490023 200.770664 
L 116.535457 203.807017 
L 117.162717 203.807017 
L 117.371803 204.053938 
L 117.58089 204.554014 
L 117.999063 204.554014 
L 118.20815 204.807239 
L 118.417237 205.842258 
L 118.626323 206.106738 
L 118.83541 207.465595 
L 119.044496 207.465595 
L 119.253583 209.777733 
L 119.46267 209.777733 
L 119.671756 210.384974 
L 120.08993 212.94602 
L 120.299016 213.282225 
L 120.508103 214.666372 
L 120.71719 215.022709 
L 120.926276 215.748448 
L 121.135363 215.748448 
L 121.553536 216.871366 
L 121.762623 216.871366 
L 122.180796 218.038331 
L 122.389883 218.437717 
L 122.808056 218.437717 
L 123.017143 218.842537 
L 123.22623 219.669084 
L 123.435316 219.669084 
L 124.062576 220.95362 
L 124.271663 220.95362 
L 124.689836 221.841859 
L 125.526183 225.177775 
L 125.735269 225.686399 
L 125.944356 225.686399 
L 126.153443 226.20387 
L 126.362529 226.20387 
L 126.989789 227.812575 
L 127.407963 230.703565 
L 127.617049 230.703565 
L 128.035222 231.943486 
L 128.453396 231.943486 
L 128.662482 232.583378 
L 129.289742 232.583378 
L 129.498829 233.237334 
L 130.544262 233.237334 
L 130.753349 233.905986 
L 130.962436 233.905986 
L 131.171522 234.590012 
L 131.589696 234.590012 
L 132.007869 236.007127 
L 132.426042 236.007127 
L 132.635129 236.741826 
L 133.053302 236.741826 
L 133.262389 237.495127 
L 134.098735 237.495127 
L 134.307822 238.267996 
L 134.516909 238.267996 
L 134.725995 239.061478 
L 135.353255 239.061478 
L 135.562342 239.876702 
L 135.980515 239.876702 
L 136.189602 240.714892 
L 136.398689 240.714892 
L 136.607775 241.577382 
L 137.025948 241.577382 
L 137.235035 242.465621 
L 138.280468 242.465621 
L 138.489555 243.381194 
L 138.907728 243.381194 
L 139.116815 244.325839 
L 141.207681 244.325839 
L 141.416768 245.30146 
L 142.671288 245.30146 
L 142.880375 246.31016 
L 145.180328 246.31016 
L 145.389415 247.35426 
L 146.434848 247.35426 
L 146.643934 248.436336 
L 147.898454 248.436336 
L 148.107541 249.559254 
L 150.407494 249.559254 
L 150.616581 250.726219 
L 153.752881 250.726219 
L 153.961967 251.940829 
L 155.425574 251.940829 
L 155.63466 253.207139 
L 158.77096 253.207139 
L 158.980047 254.529747 
L 161.90726 254.529747 
L 162.116347 255.913895 
L 165.252646 255.913895 
L 165.461733 257.365587 
L 170.688899 257.365587 
L 170.897986 258.891758 
L 175.497892 258.891758 
L 175.706979 260.500463 
L 179.888712 260.500463 
L 180.097799 262.201143 
L 186.370398 262.201143 
L 186.579485 264.004955 
L 194.315691 264.004955 
L 194.524778 265.925222 
L 200.379204 265.925222 
L 200.58829 267.978022 
L 206.651803 267.978022 
L 206.86089 270.183015 
L 215.642529 270.183015 
L 215.851616 272.56459 
L 224.005995 272.56459 
L 224.215082 275.153509 
L 232.160375 275.153509 
L 232.369461 277.989348 
L 244.078314 277.989348 
L 244.2874 281.124224 
L 255.57808 281.124224 
L 255.787166 284.628717 
L 268.959625 284.628717 
L 269.168712 288.601783 
L 282.341171 288.601783 
L 282.550258 293.188351 
L 298.440843 293.188351 
L 298.64993 298.61311 
L 312.867822 298.61311 
L 313.076909 305.252478 
L 333.5674 305.252478 
L 333.776487 313.812112 
L 356.148759 313.812112 
L 356.357845 325.876239 
L 381.239157 325.876239 
L 381.448244 346.5 
L 518.190913 346.5 
L 518.190913 346.5 
" style="fill:none;opacity:0.4;stroke:#2c5ebf;stroke-linecap:round;stroke-width:2.0;"/>
   </g>
   <g id="line2d_13">
    <path clip-path="url(#p80a2034c22)" d="M 121.762623 346.5 
L 121.762623 39.6 
" style="fill:none;stroke:#2c5ebf;stroke-dasharray:6.000000,6.000000;stroke-dashoffset:0.0;stroke-width:2.0;"/>
   </g>
   <g id="line2d_14">
    <path clip-path="url(#p80a2034c22)" d="M 74.090867 124.883779 
L 74.299953 129.830652 
L 74.50904 133.460748 
L 74.927213 138.678162 
L 75.1363 140.262389 
L 75.345386 143.546147 
L 75.554473 144.87318 
L 76.181733 145.14584 
L 76.39082 146.369011 
L 76.808993 146.872714 
L 77.01808 148.86079 
L 77.436253 149.09446 
L 78.063513 151.879515 
L 78.2726 151.965509 
L 78.481686 154.715355 
L 78.690773 155.335745 
L 78.899859 156.667123 
L 79.318033 158.060878 
L 79.527119 159.191928 
L 79.945293 159.523142 
L 80.363466 160.71232 
L 80.572553 160.88615 
L 80.781639 160.88615 
L 81.199813 162.192914 
L 81.408899 162.436799 
L 81.617986 162.498084 
L 81.827073 163.055403 
L 82.036159 163.24352 
L 82.454333 164.072726 
L 82.872506 164.202372 
L 83.081593 164.202372 
L 83.290679 165.260397 
L 83.708852 165.327789 
L 83.917939 165.598896 
L 84.127026 165.667061 
L 84.545199 166.148636 
L 84.963372 166.148636 
L 85.381546 166.56771 
L 85.590632 166.638133 
L 86.008806 168.380317 
L 86.217892 168.832282 
L 86.636066 168.908281 
L 87.054239 169.523369 
L 87.263326 169.835748 
L 87.681499 169.914357 
L 87.890585 170.151441 
L 88.099672 170.631351 
L 89.563279 171.283515 
L 89.772365 172.204241 
L 90.190539 172.37475 
L 90.608712 173.41885 
L 91.026885 173.864942 
L 91.235972 173.954969 
L 91.445059 174.409234 
L 91.654145 174.409234 
L 92.699578 175.623844 
L 92.908665 175.623844 
L 93.117752 175.911322 
L 93.535925 177.190195 
L 93.745012 178.526514 
L 94.999532 179.271728 
L 95.208618 179.488121 
L 95.417705 179.488121 
L 95.626792 179.815689 
L 96.254052 179.925684 
L 96.881311 180.369779 
L 97.090398 180.594337 
L 97.299485 180.594337 
L 97.508571 180.707255 
L 97.717658 181.860647 
L 98.135831 182.215568 
L 99.599438 182.938367 
L 99.808525 182.938367 
L 100.226698 183.430177 
L 100.435785 183.430177 
L 100.853958 183.804444 
L 101.063044 184.056596 
L 101.272131 184.056596 
L 102.108478 184.567403 
L 102.317564 184.956347 
L 102.735738 185.087133 
L 102.944824 185.087133 
L 103.362998 185.884158 
L 103.572084 186.019096 
L 103.781171 186.565052 
L 103.990258 186.565052 
L 104.199344 186.981196 
L 104.617518 189.153971 
L 104.826604 189.456043 
L 105.035691 189.456043 
L 105.244778 189.608237 
L 105.453864 190.224918 
L 105.872037 190.538119 
L 106.081124 190.538119 
L 106.290211 190.695964 
L 106.708384 191.335855 
L 106.917471 191.335855 
L 107.126557 191.661037 
L 107.335644 192.998511 
L 107.544731 193.515982 
L 107.753817 193.690491 
L 107.962904 193.690491 
L 108.171991 193.86603 
L 108.381077 193.86603 
L 108.590164 194.941586 
L 109.008337 195.494304 
L 109.426511 195.86857 
L 109.635597 195.86857 
L 110.05377 197.41457 
L 110.471944 198.015677 
L 110.68103 198.218776 
L 111.30829 199.46737 
L 111.517377 199.46737 
L 111.726464 200.111882 
L 111.93555 200.111882 
L 112.144637 200.770664 
L 113.19007 201.902124 
L 113.608244 202.839329 
L 113.81733 202.839329 
L 114.235504 204.302925 
L 114.653677 204.807239 
L 115.07185 205.580108 
L 115.280937 205.580108 
L 115.490023 205.842258 
L 115.69911 205.842258 
L 116.32637 208.311732 
L 116.535457 208.311732 
L 116.744543 209.478697 
L 116.95363 209.777733 
L 117.162717 209.777733 
L 117.371803 211.319725 
L 117.58089 211.637951 
L 117.999063 213.282225 
L 118.20815 213.282225 
L 118.417237 213.966251 
L 118.83541 217.255291 
L 119.46267 217.255291 
L 120.08993 219.252941 
L 120.299016 219.669084 
L 120.508103 219.669084 
L 120.71719 220.091131 
L 120.926276 223.702078 
L 121.34445 224.677699 
L 121.553536 225.686399 
L 122.180796 225.686399 
L 122.389883 226.730499 
L 122.59897 230.102458 
L 122.808056 230.102458 
L 123.017143 231.317067 
L 123.22623 231.317067 
L 123.435316 236.007127 
L 123.853489 238.267996 
L 124.271663 239.876702 
L 124.480749 239.876702 
L 124.689836 240.714892 
L 125.108009 240.714892 
L 125.317096 241.577382 
L 125.526183 244.325839 
L 125.735269 245.30146 
L 125.944356 247.35426 
L 126.153443 247.35426 
L 126.362529 248.436336 
L 126.571616 248.436336 
L 126.780703 249.559254 
L 126.989789 249.559254 
L 127.198876 250.726219 
L 127.826136 250.726219 
L 128.035222 251.940829 
L 128.453396 251.940829 
L 128.662482 253.207139 
L 129.289742 253.207139 
L 129.498829 254.529747 
L 130.126089 254.529747 
L 130.335176 255.913895 
L 130.962436 255.913895 
L 131.171522 257.365587 
L 132.007869 257.365587 
L 132.216956 258.891758 
L 132.635129 258.891758 
L 132.844215 260.500463 
L 134.516909 260.500463 
L 134.725995 262.201143 
L 136.816862 262.201143 
L 137.025948 264.004955 
L 138.071382 264.004955 
L 138.280468 265.925222 
L 140.789508 265.925222 
L 140.998595 267.978022 
L 143.716721 267.978022 
L 143.925808 270.183015 
L 147.480281 270.183015 
L 147.689368 272.56459 
L 153.334707 272.56459 
L 153.543794 275.153509 
L 161.070913 275.153509 
L 161.28 277.989348 
L 170.479813 277.989348 
L 170.688899 281.124224 
L 178.425105 281.124224 
L 178.634192 284.628717 
L 186.370398 284.628717 
L 186.579485 288.601783 
L 199.751944 288.601783 
L 199.96103 293.188351 
L 213.342576 293.188351 
L 213.551663 298.61311 
L 234.042155 298.61311 
L 234.251241 305.252478 
L 262.268852 305.252478 
L 262.477939 313.812112 
L 290.286464 313.812112 
L 290.49555 325.876239 
L 331.267447 325.876239 
L 331.476534 346.5 
L 452.537705 346.5 
L 452.537705 346.5 
" style="fill:none;opacity:0.4;stroke:#ff1313;stroke-linecap:round;stroke-width:2.0;"/>
   </g>
   <g id="line2d_15">
    <path clip-path="url(#p80a2034c22)" d="M 121.762623 346.5 
L 121.762623 39.6 
" style="fill:none;stroke:#ff1313;stroke-dasharray:6.000000,6.000000;stroke-dashoffset:0.0;stroke-width:2.0;"/>
   </g>
   <g id="line2d_16">
    <path clip-path="url(#p80a2034c22)" d="M 74.090867 147.607413 
L 74.718126 153.466761 
L 74.927213 153.923116 
L 75.1363 154.061399 
L 75.76356 157.485149 
L 75.972646 157.797801 
L 76.599906 159.578705 
L 76.808993 161.002603 
L 77.227166 161.354723 
L 77.436253 162.192914 
L 77.64534 165.260397 
L 77.854426 165.395335 
L 78.481686 165.463034 
L 78.690773 166.992772 
L 79.527119 167.641971 
L 80.781639 168.984476 
L 80.990726 168.984476 
L 81.199813 169.445784 
L 81.408899 169.445784 
L 82.036159 170.793057 
L 82.454333 171.201209 
L 82.872506 172.204241 
L 83.081593 172.37475 
L 83.708852 172.460373 
L 84.127026 173.15437 
L 84.545199 173.41885 
L 84.754286 173.507535 
L 85.381546 174.135844 
L 85.590632 174.226695 
L 85.799719 175.1508 
L 86.008806 175.339116 
L 86.217892 175.339116 
L 86.636066 175.623844 
L 86.845152 175.623844 
L 87.054239 175.911322 
L 87.263326 176.593108 
L 87.472412 176.593108 
L 87.681499 176.790809 
L 87.890585 176.790809 
L 88.517845 177.493292 
L 88.726932 178.005418 
L 89.145105 178.421562 
L 89.354192 179.271728 
L 89.981452 179.488121 
L 90.399625 180.707255 
L 90.817799 181.048602 
L 91.235972 181.393912 
L 91.863232 181.393912 
L 92.281405 181.626364 
L 92.490492 181.978484 
L 92.699578 181.978484 
L 93.535925 182.574773 
L 94.581358 183.804444 
L 94.790445 184.696487 
L 95.208618 185.350443 
L 95.626792 186.290822 
L 96.044965 186.290822 
L 96.672225 186.703121 
L 96.881311 186.703121 
L 97.090398 186.981196 
L 97.299485 186.981196 
L 97.926745 187.403243 
L 98.344918 187.403243 
L 98.763091 187.687971 
L 98.972178 187.687971 
L 99.390351 188.411943 
L 100.017611 189.153971 
L 100.435785 189.153971 
L 101.063044 190.224918 
L 101.481218 191.174588 
L 101.690304 191.335855 
L 101.899391 191.661037 
L 102.108478 191.661037 
L 102.317564 191.989811 
L 102.526651 192.658464 
L 102.735738 192.658464 
L 102.944824 192.828002 
L 103.153911 192.828002 
L 103.362998 192.998511 
L 103.572084 192.998511 
L 103.781171 193.170003 
L 103.990258 193.170003 
L 104.408431 193.515982 
L 104.826604 194.042611 
L 105.035691 194.042611 
L 105.453864 194.398948 
L 105.662951 194.941586 
L 105.872037 196.057484 
L 106.081124 196.438948 
L 106.499297 197.813956 
L 106.708384 197.813956 
L 106.917471 198.836524 
L 107.335644 199.46737 
L 107.753817 199.46737 
L 107.962904 200.329859 
L 108.381077 200.329859 
L 108.590164 201.218098 
L 109.008337 201.218098 
L 109.217424 202.839329 
L 109.426511 203.078316 
L 109.635597 203.807017 
L 109.844684 204.053938 
L 110.262857 204.807239 
L 111.099204 204.807239 
L 111.30829 205.580108 
L 111.517377 205.842258 
L 112.56281 208.311732 
L 112.771897 208.311732 
L 113.19007 209.182637 
L 113.81733 210.079804 
L 114.026417 211.004867 
L 114.235504 211.004867 
L 114.44459 211.959616 
L 114.653677 212.284798 
L 115.07185 212.284798 
L 115.280937 213.282225 
L 115.490023 213.282225 
L 115.908197 216.118065 
L 116.117283 216.871366 
L 116.32637 216.871366 
L 116.535457 217.644235 
L 116.744543 217.644235 
L 117.162717 218.842537 
L 117.58089 218.842537 
L 117.789977 219.252941 
L 117.999063 219.252941 
L 118.417237 222.296125 
L 118.626323 222.296125 
L 119.044496 223.226007 
L 119.253583 225.177775 
L 119.671756 226.20387 
L 119.880843 226.20387 
L 120.08993 226.730499 
L 120.299016 226.730499 
L 120.508103 227.266618 
L 120.71719 227.266618 
L 121.135363 228.368737 
L 121.34445 229.513255 
L 121.553536 229.513255 
L 121.97171 230.703565 
L 122.180796 230.703565 
L 122.59897 231.943486 
L 122.808056 231.943486 
L 123.22623 234.590012 
L 123.644403 234.590012 
L 123.853489 235.290133 
L 124.062576 236.741826 
L 124.271663 236.741826 
L 124.480749 237.495127 
L 125.108009 237.495127 
L 125.317096 239.061478 
L 125.944356 239.061478 
L 126.153443 239.876702 
L 126.362529 239.876702 
L 126.571616 240.714892 
L 127.617049 240.714892 
L 127.826136 241.577382 
L 128.244309 241.577382 
L 128.453396 242.465621 
L 128.662482 242.465621 
L 128.871569 243.381194 
L 130.126089 243.381194 
L 130.335176 244.325839 
L 132.007869 244.325839 
L 132.216956 245.30146 
L 133.262389 245.30146 
L 133.471475 246.31016 
L 134.725995 246.31016 
L 134.935082 247.35426 
L 135.562342 247.35426 
L 135.771429 248.436336 
L 136.398689 248.436336 
L 136.607775 249.559254 
L 137.444122 249.559254 
L 137.653208 250.726219 
L 138.907728 250.726219 
L 139.116815 251.940829 
L 139.325902 251.940829 
L 139.534988 253.207139 
L 141.834941 253.207139 
L 142.044028 254.529747 
L 143.716721 254.529747 
L 143.925808 255.913895 
L 145.807588 255.913895 
L 146.016674 257.365587 
L 148.943888 257.365587 
L 149.152974 258.891758 
L 153.543794 258.891758 
L 153.752881 260.500463 
L 157.725527 260.500463 
L 157.934614 262.201143 
L 160.443653 262.201143 
L 160.65274 264.004955 
L 164.4163 264.004955 
L 164.625386 265.925222 
L 168.598033 265.925222 
L 168.807119 267.978022 
L 175.706979 267.978022 
L 175.916066 270.183015 
L 180.306885 270.183015 
L 180.515972 272.56459 
L 189.924871 272.56459 
L 190.133958 275.153509 
L 199.96103 275.153509 
L 200.170117 277.989348 
L 208.74267 277.989348 
L 208.951756 281.124224 
L 220.869696 281.124224 
L 221.078782 284.628717 
L 236.551194 284.628717 
L 236.760281 288.601783 
L 250.56 288.601783 
L 250.769087 293.188351 
L 267.914192 293.188351 
L 268.123279 298.61311 
L 285.895644 298.61311 
L 286.104731 305.252478 
L 306.386136 305.252478 
L 306.595222 313.812112 
L 327.712974 313.812112 
L 327.922061 325.876239 
L 358.030539 325.876239 
L 358.239625 346.5 
L 459.019391 346.5 
L 459.019391 346.5 
" style="fill:none;opacity:0.4;stroke:#f7b02a;stroke-linecap:round;stroke-width:2.0;"/>
   </g>
   <g id="line2d_17">
    <path clip-path="url(#p80a2034c22)" d="M 123.017143 346.5 
L 123.017143 39.6 
" style="fill:none;stroke:#f7b02a;stroke-dasharray:6.000000,6.000000;stroke-dashoffset:0.0;stroke-width:2.0;"/>
   </g>
   <g id="line2d_18">
    <path clip-path="url(#p80a2034c22)" d="M 74.090867 127.395606 
L 74.299953 134.6638 
L 74.50904 138.403932 
L 74.718126 142.809074 
L 74.927213 142.809074 
L 75.345386 146.049647 
L 75.554473 146.155721 
L 75.76356 146.476232 
L 75.972646 146.512058 
L 76.181733 148.628941 
L 76.39082 148.628941 
L 77.01808 149.567378 
L 77.436253 151.965509 
L 77.64534 152.355586 
L 78.063513 153.512083 
L 78.2726 153.785473 
L 78.899859 155.335745 
L 79.108946 155.626501 
L 79.527119 156.566434 
L 79.736206 156.566434 
L 79.945293 157.693218 
L 80.154379 157.850231 
L 80.363466 159.082337 
L 80.990726 159.357074 
L 81.408899 159.412327 
L 81.617986 159.690142 
L 81.827073 159.746018 
L 82.036159 160.083494 
L 82.245246 160.71232 
L 82.454333 160.71232 
L 82.872506 161.061001 
L 83.290679 161.651374 
L 83.708852 162.132254 
L 83.917939 162.132254 
L 84.545199 162.436799 
L 84.754286 162.992961 
L 85.381546 163.24352 
L 85.590632 163.75106 
L 86.008806 163.815116 
L 86.217892 164.594736 
L 86.426979 164.726682 
L 86.636066 164.992343 
L 86.845152 165.530888 
L 87.054239 165.598896 
L 87.263326 166.07936 
L 87.472412 166.07936 
L 87.890585 166.992772 
L 88.308759 167.423994 
L 88.517845 168.082776 
L 88.726932 169.368401 
L 88.936019 169.368401 
L 89.145105 169.679148 
L 89.354192 169.757345 
L 89.563279 170.310552 
L 90.190539 170.712094 
L 90.399625 170.712094 
L 90.608712 170.955646 
L 91.026885 171.037275 
L 91.654145 171.283515 
L 92.072319 171.615037 
L 92.281405 171.782194 
L 92.490492 172.204241 
L 92.699578 172.204241 
L 92.908665 172.805348 
L 93.326838 173.06673 
L 93.745012 173.507535 
L 94.163185 173.596485 
L 94.372272 174.135844 
L 94.790445 174.226695 
L 94.999532 174.777707 
L 95.417705 174.870543 
L 95.626792 174.963669 
L 95.835878 175.244809 
L 96.044965 175.244809 
L 96.254052 175.719362 
L 96.463138 176.989832 
L 97.090398 177.391916 
L 97.508571 178.316979 
L 97.926745 178.421562 
L 98.554005 178.526514 
L 99.181265 179.379728 
L 99.599438 179.488121 
L 100.226698 181.163261 
L 100.435785 181.509911 
L 100.644871 182.09679 
L 101.272131 182.454555 
L 101.481218 182.816675 
L 101.690304 182.816675 
L 102.317564 183.183256 
L 102.735738 184.826134 
L 102.944824 184.956347 
L 103.362998 185.749829 
L 103.572084 185.749829 
L 104.199344 186.154649 
L 104.408431 186.427621 
L 104.617518 186.427621 
L 104.826604 186.841834 
L 105.035691 186.981196 
L 105.244778 187.403243 
L 105.453864 187.403243 
L 105.662951 187.545266 
L 105.872037 188.120237 
L 106.081124 188.120237 
L 106.290211 188.411943 
L 106.917471 190.069545 
L 107.126557 190.069545 
L 107.544731 191.014189 
L 107.753817 191.014189 
L 107.962904 191.174588 
L 108.171991 191.498002 
L 108.381077 192.322259 
L 108.590164 194.042611 
L 108.799251 194.042611 
L 109.008337 194.220246 
L 109.217424 194.57873 
L 109.426511 195.308921 
L 109.635597 196.63153 
L 109.844684 196.63153 
L 110.05377 198.015677 
L 110.471944 198.42327 
L 110.68103 198.42327 
L 110.890117 199.89549 
L 111.099204 200.329859 
L 111.30829 200.329859 
L 111.517377 200.549445 
L 111.93555 203.562129 
L 112.353724 204.053938 
L 112.56281 204.053938 
L 112.771897 204.807239 
L 112.980984 204.807239 
L 113.19007 205.842258 
L 113.399157 205.842258 
L 113.608244 206.106738 
L 114.235504 206.106738 
L 114.44459 206.37359 
L 115.07185 207.744976 
L 115.280937 209.478697 
L 115.69911 209.478697 
L 115.908197 209.777733 
L 116.117283 209.777733 
L 116.32637 210.079804 
L 116.535457 210.079804 
L 116.744543 212.284798 
L 116.95363 212.613572 
L 117.58089 214.666372 
L 117.999063 216.871366 
L 118.20815 217.255291 
L 118.626323 218.842537 
L 118.83541 218.842537 
L 119.253583 219.669084 
L 119.671756 219.669084 
L 119.880843 220.091131 
L 120.08993 223.226007 
L 120.299016 223.226007 
L 120.508103 223.702078 
L 121.135363 223.702078 
L 121.553536 224.677699 
L 122.180796 224.677699 
L 122.389883 225.177775 
L 122.59897 225.177775 
L 122.808056 225.686399 
L 123.017143 225.686399 
L 123.22623 226.20387 
L 123.435316 226.20387 
L 123.644403 227.266618 
L 123.853489 227.266618 
L 124.271663 228.368737 
L 124.898923 228.368737 
L 125.108009 228.935493 
L 125.317096 228.935493 
L 125.735269 230.102458 
L 126.153443 230.102458 
L 126.362529 230.703565 
L 127.198876 230.703565 
L 127.617049 231.943486 
L 127.826136 231.943486 
L 128.035222 232.583378 
L 129.289742 232.583378 
L 129.498829 233.237334 
L 129.917002 233.237334 
L 130.126089 233.905986 
L 130.753349 233.905986 
L 130.962436 234.590012 
L 132.216956 234.590012 
L 132.426042 235.290133 
L 133.053302 235.290133 
L 133.262389 236.007127 
L 133.889649 236.007127 
L 134.098735 236.741826 
L 135.353255 236.741826 
L 135.562342 237.495127 
L 136.607775 237.495127 
L 136.816862 238.267996 
L 138.489555 238.267996 
L 138.698642 239.061478 
L 139.744075 239.061478 
L 139.953162 239.876702 
L 140.789508 239.876702 
L 140.998595 240.714892 
L 142.044028 240.714892 
L 142.253115 241.577382 
L 143.716721 241.577382 
L 143.925808 242.465621 
L 145.389415 242.465621 
L 145.598501 243.381194 
L 147.062108 243.381194 
L 147.271194 244.325839 
L 148.943888 244.325839 
L 149.152974 245.30146 
L 150.407494 245.30146 
L 150.616581 246.31016 
L 153.125621 246.31016 
L 153.334707 247.35426 
L 156.471007 247.35426 
L 156.680094 248.436336 
L 158.561874 248.436336 
L 158.77096 249.559254 
L 160.65274 249.559254 
L 160.861827 250.726219 
L 162.53452 250.726219 
L 162.743607 251.940829 
L 166.088993 251.940829 
L 166.29808 253.207139 
L 167.970773 253.207139 
L 168.179859 254.529747 
L 171.943419 254.529747 
L 172.152506 255.913895 
L 174.870632 255.913895 
L 175.079719 257.365587 
L 179.052365 257.365587 
L 179.261452 258.891758 
L 183.652272 258.891758 
L 183.861358 260.500463 
L 188.879438 260.500463 
L 189.088525 262.201143 
L 194.106604 262.201143 
L 194.315691 264.004955 
L 198.706511 264.004955 
L 198.915597 265.925222 
L 203.72459 265.925222 
L 203.933677 267.978022 
L 211.669883 267.978022 
L 211.87897 270.183015 
L 220.242436 270.183015 
L 220.451522 272.56459 
L 228.396815 272.56459 
L 228.605902 275.153509 
L 235.505761 275.153509 
L 235.714848 277.989348 
L 247.005527 277.989348 
L 247.214614 281.124224 
L 257.878033 281.124224 
L 258.087119 284.628717 
L 271.468665 284.628717 
L 271.677752 288.601783 
L 285.059297 288.601783 
L 285.268384 293.188351 
L 294.88637 293.188351 
L 295.095457 298.61311 
L 311.822389 298.61311 
L 312.031475 305.252478 
L 323.740328 305.252478 
L 323.949415 313.812112 
L 339.21274 313.812112 
L 339.421827 325.876239 
L 358.866885 325.876239 
L 359.075972 346.5 
L 480.555316 346.5 
L 480.555316 346.5 
" style="fill:none;opacity:0.4;stroke:#02b72a;stroke-linecap:round;stroke-width:2.0;"/>
   </g>
   <g id="line2d_19">
    <path clip-path="url(#p80a2034c22)" d="M 115.07185 346.5 
L 115.07185 39.6 
" style="fill:none;stroke:#02b72a;stroke-dasharray:6.000000,6.000000;stroke-dashoffset:0.0;stroke-width:2.0;"/>
   </g>
   <g id="line2d_20">
    <path clip-path="url(#p80a2034c22)" d="M 74.090867 50.936819 
L 74.299953 67.987519 
L 74.50904 68.671247 
L 74.718126 100.703584 
L 74.927213 102.739914 
L 75.1363 109.176211 
L 75.345386 121.543401 
L 75.554473 125.816687 
L 76.181733 158.755967 
L 76.39082 164.660636 
L 76.599906 165.530888 
L 77.01808 175.719362 
L 77.227166 176.298999 
L 77.436253 177.595015 
L 77.64534 178.005418 
L 78.063513 184.056596 
L 78.481686 186.427621 
L 78.690773 187.121214 
L 78.899859 193.170003 
L 79.108946 193.86603 
L 79.318033 193.86603 
L 79.527119 194.220246 
L 79.736206 196.057484 
L 80.154379 197.21687 
L 80.363466 198.836524 
L 80.572553 199.46737 
L 80.781639 199.46737 
L 81.199813 199.89549 
L 81.408899 200.99354 
L 81.617986 201.218098 
L 82.036159 203.319239 
L 82.245246 203.562129 
L 82.454333 203.562129 
L 82.663419 204.053938 
L 82.872506 207.465595 
L 83.081593 208.027004 
L 83.708852 211.004867 
L 83.917939 211.004867 
L 84.127026 211.319725 
L 84.336112 211.319725 
L 84.545199 213.282225 
L 84.754286 213.282225 
L 85.381546 215.022709 
L 85.590632 215.383366 
L 86.008806 215.383366 
L 86.426979 216.118065 
L 86.636066 217.644235 
L 86.845152 218.038331 
L 87.054239 218.038331 
L 87.263326 218.437717 
L 87.472412 219.669084 
L 87.681499 219.669084 
L 88.099672 220.95362 
L 88.308759 220.95362 
L 89.563279 223.702078 
L 89.772365 223.702078 
L 90.190539 224.677699 
L 90.399625 225.686399 
L 90.608712 225.686399 
L 90.817799 227.266618 
L 91.026885 227.266618 
L 91.235972 227.812575 
L 91.654145 227.812575 
L 92.072319 229.513255 
L 92.281405 230.102458 
L 92.699578 230.102458 
L 92.908665 230.703565 
L 93.117752 230.703565 
L 93.326838 231.943486 
L 93.535925 233.905986 
L 93.745012 234.590012 
L 93.954098 236.007127 
L 94.163185 236.007127 
L 94.372272 236.741826 
L 94.581358 236.741826 
L 94.999532 238.267996 
L 95.417705 238.267996 
L 95.626792 239.061478 
L 96.044965 239.061478 
L 96.254052 240.714892 
L 96.463138 240.714892 
L 96.672225 241.577382 
L 96.881311 241.577382 
L 97.090398 242.465621 
L 97.717658 242.465621 
L 98.135831 244.325839 
L 98.344918 244.325839 
L 98.763091 247.35426 
L 99.181265 249.559254 
L 99.390351 249.559254 
L 99.808525 251.940829 
L 100.017611 251.940829 
L 100.226698 253.207139 
L 100.644871 253.207139 
L 100.853958 255.913895 
L 101.063044 255.913895 
L 101.481218 258.891758 
L 101.899391 258.891758 
L 102.108478 260.500463 
L 103.362998 260.500463 
L 103.781171 264.004955 
L 104.199344 264.004955 
L 104.408431 265.925222 
L 105.453864 265.925222 
L 105.662951 267.978022 
L 105.872037 267.978022 
L 106.081124 270.183015 
L 106.708384 270.183015 
L 106.917471 272.56459 
L 107.335644 272.56459 
L 107.544731 275.153509 
L 108.799251 275.153509 
L 109.008337 277.989348 
L 111.93555 277.989348 
L 112.144637 281.124224 
L 113.608244 281.124224 
L 113.81733 284.628717 
L 115.69911 284.628717 
L 115.908197 288.601783 
L 118.417237 288.601783 
L 118.626323 293.188351 
L 120.508103 293.188351 
L 120.71719 298.61311 
L 123.22623 298.61311 
L 123.435316 305.252478 
L 126.989789 305.252478 
L 127.198876 313.812112 
L 132.216956 313.812112 
L 132.426042 325.876239 
L 144.134895 325.876239 
L 144.343981 346.5 
L 199.96103 346.5 
L 199.96103 346.5 
" style="fill:none;opacity:0.4;stroke:#009e9e;stroke-linecap:round;stroke-width:2.0;"/>
   </g>
   <g id="line2d_21">
    <path clip-path="url(#p80a2034c22)" d="M 75.1363 346.5 
L 75.1363 39.6 
" style="fill:none;stroke:#009e9e;stroke-dasharray:6.000000,6.000000;stroke-dashoffset:0.0;stroke-width:2.0;"/>
   </g>
   <g id="line2d_22">
    <path clip-path="url(#p80a2034c22)" d="M 74.090867 117.535506 
L 74.299953 128.864273 
L 74.50904 136.500731 
L 74.718126 137.305287 
L 75.1363 141.387542 
L 75.345386 141.690845 
L 75.554473 142.619759 
L 75.972646 143.15931 
L 76.181733 145.248735 
L 76.39082 145.351987 
L 77.227166 152.355586 
L 77.64534 152.442969 
L 77.854426 152.795089 
L 78.2726 152.928216 
L 78.481686 153.10665 
L 78.690773 153.648464 
L 79.108946 153.831283 
L 79.318033 154.061399 
L 79.527119 154.621048 
L 79.945293 154.952438 
L 80.572553 157.278524 
L 80.781639 157.330046 
L 81.199813 157.693218 
L 81.408899 158.810114 
L 81.617986 158.810114 
L 81.827073 159.191928 
L 82.454333 161.770867 
L 82.663419 162.37564 
L 82.872506 164.332586 
L 83.081593 164.397907 
L 83.917939 166.010246 
L 84.545199 167.935114 
L 84.963372 168.305652 
L 85.172459 168.832282 
L 86.426979 169.291218 
L 86.636066 169.835748 
L 87.263326 170.151441 
L 88.308759 171.201209 
L 88.726932 171.448815 
L 89.145105 172.204241 
L 89.354192 172.204241 
L 89.772365 172.460373 
L 90.399625 172.718728 
L 90.608712 172.979347 
L 90.817799 172.979347 
L 91.026885 173.15437 
L 91.235972 173.15437 
L 91.445059 173.330429 
L 91.654145 173.330429 
L 92.072319 173.864942 
L 92.908665 174.500926 
L 93.326838 174.5929 
L 93.745012 175.815187 
L 93.954098 176.104529 
L 94.163185 177.290884 
L 94.372272 177.799509 
L 95.626792 178.421562 
L 95.835878 178.843609 
L 96.463138 178.950063 
L 96.672225 179.925684 
L 96.881311 180.258132 
L 97.090398 181.048602 
L 97.508571 181.509911 
L 98.135831 183.06056 
L 98.344918 183.06056 
L 98.972178 184.183478 
L 99.390351 184.567403 
L 99.599438 184.956347 
L 99.808525 185.087133 
L 100.226698 185.482977 
L 100.644871 185.482977 
L 100.853958 185.884158 
L 101.272131 186.154649 
L 101.481218 186.154649 
L 101.899391 186.427621 
L 102.108478 186.427621 
L 102.317564 187.121214 
L 102.526651 187.261895 
L 102.944824 187.687971 
L 103.153911 187.831363 
L 103.572084 188.706537 
L 103.781171 188.854936 
L 103.990258 189.608237 
L 104.199344 189.608237 
L 104.617518 189.91498 
L 104.826604 190.381106 
L 105.035691 190.538119 
L 105.244778 191.661037 
L 105.872037 192.155571 
L 106.081124 192.155571 
L 106.290211 192.322259 
L 106.499297 192.322259 
L 107.335644 193.515982 
L 107.753817 193.515982 
L 107.962904 194.220246 
L 108.171991 194.398948 
L 108.381077 194.398948 
L 108.590164 195.308921 
L 108.799251 195.494304 
L 109.008337 195.494304 
L 109.217424 195.680849 
L 109.844684 196.63153 
L 110.262857 196.63153 
L 110.471944 196.825367 
L 110.68103 197.41457 
L 110.890117 197.613593 
L 111.30829 197.613593 
L 111.517377 198.42327 
L 111.93555 198.836524 
L 112.144637 199.46737 
L 112.56281 199.89549 
L 112.771897 199.89549 
L 113.19007 201.218098 
L 113.608244 201.672364 
L 114.026417 202.602245 
L 114.235504 202.602245 
L 114.44459 202.839329 
L 114.862763 202.839329 
L 115.490023 203.562129 
L 115.69911 203.562129 
L 115.908197 203.807017 
L 116.117283 203.807017 
L 116.32637 205.580108 
L 116.744543 206.106738 
L 116.95363 206.106738 
L 117.162717 206.37359 
L 117.371803 206.914583 
L 117.58089 206.914583 
L 118.417237 208.889494 
L 118.626323 209.182637 
L 118.83541 209.182637 
L 119.044496 209.478697 
L 119.253583 209.478697 
L 119.46267 209.777733 
L 119.880843 210.693306 
L 120.08993 212.284798 
L 120.926276 214.666372 
L 121.135363 214.666372 
L 121.97171 218.842537 
L 122.389883 219.669084 
L 122.59897 219.669084 
L 122.808056 220.091131 
L 123.017143 221.394425 
L 123.22623 221.394425 
L 123.435316 221.841859 
L 123.644403 223.226007 
L 123.853489 225.686399 
L 124.062576 225.686399 
L 124.271663 226.20387 
L 124.689836 226.20387 
L 124.898923 226.730499 
L 125.317096 226.730499 
L 125.526183 227.266618 
L 125.735269 227.266618 
L 125.944356 227.812575 
L 126.153443 227.812575 
L 126.362529 228.935493 
L 126.571616 228.935493 
L 126.989789 230.102458 
L 127.407963 230.102458 
L 127.617049 230.703565 
L 127.826136 230.703565 
L 128.035222 231.317067 
L 129.080656 231.317067 
L 129.289742 232.583378 
L 129.917002 232.583378 
L 130.335176 233.905986 
L 130.544262 233.905986 
L 130.753349 234.590012 
L 131.589696 234.590012 
L 131.798782 235.290133 
L 132.007869 235.290133 
L 132.216956 236.007127 
L 133.053302 236.007127 
L 133.262389 236.741826 
L 133.471475 236.741826 
L 133.680562 237.495127 
L 133.889649 237.495127 
L 134.098735 238.267996 
L 134.516909 238.267996 
L 134.725995 239.061478 
L 135.771429 239.061478 
L 135.980515 239.876702 
L 137.444122 239.876702 
L 137.653208 240.714892 
L 138.280468 240.714892 
L 138.489555 241.577382 
L 139.116815 241.577382 
L 139.325902 242.465621 
L 139.953162 242.465621 
L 140.162248 243.381194 
L 141.625855 243.381194 
L 141.834941 244.325839 
L 142.253115 244.325839 
L 142.462201 245.30146 
L 145.180328 245.30146 
L 145.389415 246.31016 
L 146.225761 246.31016 
L 146.434848 247.35426 
L 147.689368 247.35426 
L 147.898454 248.436336 
L 149.571148 248.436336 
L 149.780234 249.559254 
L 152.498361 249.559254 
L 152.707447 250.726219 
L 155.0074 250.726219 
L 155.216487 251.940829 
L 158.1437 251.940829 
L 158.352787 253.207139 
L 160.65274 253.207139 
L 160.861827 254.529747 
L 162.116347 254.529747 
L 162.325433 255.913895 
L 164.625386 255.913895 
L 164.834473 257.365587 
L 168.807119 257.365587 
L 169.016206 258.891758 
L 172.779766 258.891758 
L 172.988852 260.500463 
L 176.334239 260.500463 
L 176.543326 262.201143 
L 181.770492 262.201143 
L 181.979578 264.004955 
L 188.043091 264.004955 
L 188.252178 265.925222 
L 194.733864 265.925222 
L 194.942951 267.978022 
L 202.051897 267.978022 
L 202.260984 270.183015 
L 210.833536 270.183015 
L 211.042623 272.56459 
L 219.824262 272.56459 
L 220.033349 275.153509 
L 229.024075 275.153509 
L 229.233162 277.989348 
L 238.223888 277.989348 
L 238.432974 281.124224 
L 251.18726 281.124224 
L 251.396347 284.628717 
L 264.986979 284.628717 
L 265.196066 288.601783 
L 279.204871 288.601783 
L 279.413958 293.188351 
L 300.113536 293.188351 
L 300.322623 298.61311 
L 316.631382 298.61311 
L 316.840468 305.252478 
L 337.33096 305.252478 
L 337.540047 313.812112 
L 355.730585 313.812112 
L 355.939672 325.876239 
L 383.53911 325.876239 
L 383.748197 346.5 
L 495.191382 346.5 
L 495.191382 346.5 
" style="fill:none;opacity:0.4;stroke:#1d1aa9;stroke-linecap:round;stroke-width:2.0;"/>
   </g>
   <g id="line2d_23">
    <path clip-path="url(#p80a2034c22)" d="M 116.32637 346.5 
L 116.32637 39.6 
" style="fill:none;stroke:#1d1aa9;stroke-dasharray:6.000000,6.000000;stroke-dashoffset:0.0;stroke-width:2.0;"/>
   </g>
   <g id="patch_3">
    <path d="M 72 39.6 
L 518.4 39.6 
" style="fill:none;stroke:#262626;stroke-linecap:square;stroke-linejoin:miter;stroke-width:1.25;"/>
   </g>
   <g id="patch_4">
    <path d="M 518.4 346.5 
L 518.4 39.6 
" style="fill:none;stroke:#262626;stroke-linecap:square;stroke-linejoin:miter;stroke-width:1.25;"/>
   </g>
   <g id="patch_5">
    <path d="M 72 346.5 
L 518.4 346.5 
" style="fill:none;stroke:#262626;stroke-linecap:square;stroke-linejoin:miter;stroke-width:1.25;"/>
   </g>
   <g id="patch_6">
    <path d="M 72 346.5 
L 72 39.6 
" style="fill:none;stroke:#262626;stroke-linecap:square;stroke-linejoin:miter;stroke-width:1.25;"/>
   </g>
   <g id="text_13">
    <!-- B6 14wks naive Lung -->
    <defs>
     <path d="M 16.15625 0 
L 0.296875 51.859375 
L 9.375 51.859375 
L 17.625 21.921875 
L 20.703125 10.796875 
Q 20.90625 11.625 23.390625 21.484375 
L 31.640625 51.859375 
L 40.671875 51.859375 
L 48.4375 21.78125 
L 51.03125 11.859375 
L 54 21.875 
L 62.890625 51.859375 
L 71.4375 51.859375 
L 55.21875 0 
L 46.09375 0 
L 37.84375 31.0625 
L 35.84375 39.890625 
L 25.34375 0 
z
" id="ArialMT-77"/>
     <path d="M 21 0 
L 1.265625 51.859375 
L 10.546875 51.859375 
L 21.6875 20.796875 
Q 23.484375 15.765625 25 10.359375 
Q 26.171875 14.453125 28.265625 20.21875 
L 39.796875 51.859375 
L 48.828125 51.859375 
L 29.203125 0 
z
" id="ArialMT-76"/>
     <path d="M 7.328125 0 
L 7.328125 71.578125 
L 34.1875 71.578125 
Q 42.390625 71.578125 47.34375 69.40625 
Q 52.296875 67.234375 55.09375 62.71875 
Q 57.90625 58.203125 57.90625 53.265625 
Q 57.90625 48.6875 55.421875 44.625 
Q 52.9375 40.578125 47.90625 38.09375 
Q 54.390625 36.1875 57.875 31.59375 
Q 61.375 27 61.375 20.75 
Q 61.375 15.71875 59.25 11.390625 
Q 57.125 7.078125 54 4.734375 
Q 50.875 2.390625 46.15625 1.1875 
Q 41.453125 0 34.625 0 
z
M 16.796875 41.5 
L 32.28125 41.5 
Q 38.578125 41.5 41.3125 42.328125 
Q 44.921875 43.40625 46.75 45.890625 
Q 48.578125 48.390625 48.578125 52.15625 
Q 48.578125 55.71875 46.875 58.421875 
Q 45.171875 61.140625 41.984375 62.140625 
Q 38.8125 63.140625 31.109375 63.140625 
L 16.796875 63.140625 
z
M 16.796875 8.453125 
L 34.625 8.453125 
Q 39.203125 8.453125 41.0625 8.796875 
Q 44.34375 9.375 46.53125 10.734375 
Q 48.734375 12.109375 50.140625 14.71875 
Q 51.5625 17.328125 51.5625 20.75 
Q 51.5625 24.75 49.515625 27.703125 
Q 47.46875 30.671875 43.828125 31.859375 
Q 40.1875 33.0625 33.34375 33.0625 
L 16.796875 33.0625 
z
" id="ArialMT-42"/>
     <path d="M 7.328125 0 
L 7.328125 71.578125 
L 16.796875 71.578125 
L 16.796875 8.453125 
L 52.046875 8.453125 
L 52.046875 0 
z
" id="ArialMT-4c"/>
     <path d="M 32.328125 0 
L 32.328125 17.140625 
L 1.265625 17.140625 
L 1.265625 25.203125 
L 33.9375 71.578125 
L 41.109375 71.578125 
L 41.109375 25.203125 
L 50.78125 25.203125 
L 50.78125 17.140625 
L 41.109375 17.140625 
L 41.109375 0 
z
M 32.328125 25.203125 
L 32.328125 57.46875 
L 9.90625 25.203125 
z
" id="ArialMT-34"/>
     <path d="M 6.640625 61.46875 
L 6.640625 71.578125 
L 15.4375 71.578125 
L 15.4375 61.46875 
z
M 6.640625 0 
L 6.640625 51.859375 
L 15.4375 51.859375 
L 15.4375 0 
z
" id="ArialMT-69"/>
     <path d="M 49.75 54.046875 
L 41.015625 53.375 
Q 39.84375 58.546875 37.703125 60.890625 
Q 34.125 64.65625 28.90625 64.65625 
Q 24.703125 64.65625 21.53125 62.3125 
Q 17.390625 59.28125 14.984375 53.46875 
Q 12.59375 47.65625 12.5 36.921875 
Q 15.671875 41.75 20.265625 44.09375 
Q 24.859375 46.4375 29.890625 46.4375 
Q 38.671875 46.4375 44.84375 39.96875 
Q 51.03125 33.5 51.03125 23.25 
Q 51.03125 16.5 48.125 10.71875 
Q 45.21875 4.9375 40.140625 1.859375 
Q 35.0625 -1.21875 28.609375 -1.21875 
Q 17.625 -1.21875 10.6875 6.859375 
Q 3.765625 14.9375 3.765625 33.5 
Q 3.765625 54.25 11.421875 63.671875 
Q 18.109375 71.875 29.4375 71.875 
Q 37.890625 71.875 43.28125 67.140625 
Q 48.6875 62.40625 49.75 54.046875 
M 13.875 23.1875 
Q 13.875 18.65625 15.796875 14.5 
Q 17.71875 10.359375 21.1875 8.171875 
Q 24.65625 6 28.46875 6 
Q 34.03125 6 38.03125 10.484375 
Q 42.046875 14.984375 42.046875 22.703125 
Q 42.046875 30.125 38.078125 34.390625 
Q 34.125 38.671875 28.125 38.671875 
Q 22.171875 38.671875 18.015625 34.390625 
Q 13.875 30.125 13.875 23.1875 
" id="ArialMT-36"/>
    </defs>
    <g style="fill:#262626;" transform="translate(238.1653125 34.6)scale(0.12 -0.12)">
     <use xlink:href="#ArialMT-42"/>
     <use x="66.69921875" xlink:href="#ArialMT-36"/>
     <use x="122.314453125" xlink:href="#ArialMT-20"/>
     <use x="150.09765625" xlink:href="#ArialMT-31"/>
     <use x="205.712890625" xlink:href="#ArialMT-34"/>
     <use x="261.328125" xlink:href="#ArialMT-77"/>
     <use x="333.544921875" xlink:href="#ArialMT-6b"/>
     <use x="383.544921875" xlink:href="#ArialMT-73"/>
     <use x="433.544921875" xlink:href="#ArialMT-20"/>
     <use x="461.328125" xlink:href="#ArialMT-6e"/>
     <use x="516.943359375" xlink:href="#ArialMT-61"/>
     <use x="572.55859375" xlink:href="#ArialMT-69"/>
     <use x="594.775390625" xlink:href="#ArialMT-76"/>
     <use x="644.775390625" xlink:href="#ArialMT-65"/>
     <use x="700.390625" xlink:href="#ArialMT-20"/>
     <use x="728.173828125" xlink:href="#ArialMT-4c"/>
     <use x="783.7890625" xlink:href="#ArialMT-75"/>
     <use x="839.404296875" xlink:href="#ArialMT-6e"/>
     <use x="895.01953125" xlink:href="#ArialMT-67"/>
    </g>
   </g>
   <g id="legend_1">
    <g id="line2d_24">
     <path d="M 390.235937 52.257812 
L 410.235937 52.257812 
" style="fill:none;stroke:#808080;stroke-linecap:round;stroke-width:3.0;"/>
    </g>
    <g id="line2d_25"/>
    <g id="text_14">
     <!-- mean threshold: 182 -->
     <defs>
      <path d="M 25.78125 7.859375 
L 27.046875 0.09375 
Q 23.34375 -0.6875 20.40625 -0.6875 
Q 15.625 -0.6875 12.984375 0.828125 
Q 10.359375 2.34375 9.28125 4.8125 
Q 8.203125 7.28125 8.203125 15.1875 
L 8.203125 45.015625 
L 1.765625 45.015625 
L 1.765625 51.859375 
L 8.203125 51.859375 
L 8.203125 64.703125 
L 16.9375 69.96875 
L 16.9375 51.859375 
L 25.78125 51.859375 
L 25.78125 45.015625 
L 16.9375 45.015625 
L 16.9375 14.703125 
Q 16.9375 10.9375 17.40625 9.859375 
Q 17.875 8.796875 18.921875 8.15625 
Q 19.96875 7.515625 21.921875 7.515625 
Q 23.390625 7.515625 25.78125 7.859375 
" id="ArialMT-74"/>
      <path d="M 9.03125 41.84375 
L 9.03125 51.859375 
L 19.046875 51.859375 
L 19.046875 41.84375 
z
M 9.03125 0 
L 9.03125 10.015625 
L 19.046875 10.015625 
L 19.046875 0 
z
" id="ArialMT-3a"/>
      <path d="M 6.59375 0 
L 6.59375 71.578125 
L 15.375 71.578125 
L 15.375 45.90625 
Q 21.53125 53.03125 30.90625 53.03125 
Q 36.671875 53.03125 40.921875 50.75 
Q 45.171875 48.484375 47 44.484375 
Q 48.828125 40.484375 48.828125 32.859375 
L 48.828125 0 
L 40.046875 0 
L 40.046875 32.859375 
Q 40.046875 39.453125 37.1875 42.453125 
Q 34.328125 45.453125 29.109375 45.453125 
Q 25.203125 45.453125 21.75 43.421875 
Q 18.3125 41.40625 16.84375 37.9375 
Q 15.375 34.46875 15.375 28.375 
L 15.375 0 
z
" id="ArialMT-68"/>
      <path d="M 17.671875 38.8125 
Q 12.203125 40.828125 9.5625 44.53125 
Q 6.9375 48.25 6.9375 53.421875 
Q 6.9375 61.234375 12.546875 66.546875 
Q 18.171875 71.875 27.484375 71.875 
Q 36.859375 71.875 42.578125 66.421875 
Q 48.296875 60.984375 48.296875 53.171875 
Q 48.296875 48.1875 45.671875 44.5 
Q 43.0625 40.828125 37.75 38.8125 
Q 44.34375 36.671875 47.78125 31.875 
Q 51.21875 27.09375 51.21875 20.453125 
Q 51.21875 11.28125 44.71875 5.03125 
Q 38.234375 -1.21875 27.640625 -1.21875 
Q 17.046875 -1.21875 10.546875 5.046875 
Q 4.046875 11.328125 4.046875 20.703125 
Q 4.046875 27.6875 7.59375 32.390625 
Q 11.140625 37.109375 17.671875 38.8125 
M 15.921875 53.71875 
Q 15.921875 48.640625 19.1875 45.40625 
Q 22.46875 42.1875 27.6875 42.1875 
Q 32.765625 42.1875 36.015625 45.375 
Q 39.265625 48.578125 39.265625 53.21875 
Q 39.265625 58.0625 35.90625 61.359375 
Q 32.5625 64.65625 27.59375 64.65625 
Q 22.5625 64.65625 19.234375 61.421875 
Q 15.921875 58.203125 15.921875 53.71875 
M 13.09375 20.65625 
Q 13.09375 16.890625 14.875 13.375 
Q 16.65625 9.859375 20.171875 7.921875 
Q 23.6875 6 27.734375 6 
Q 34.03125 6 38.125 10.046875 
Q 42.234375 14.109375 42.234375 20.359375 
Q 42.234375 26.703125 38.015625 30.859375 
Q 33.796875 35.015625 27.4375 35.015625 
Q 21.234375 35.015625 17.15625 30.90625 
Q 13.09375 26.8125 13.09375 20.65625 
" id="ArialMT-38"/>
     </defs>
     <g style="fill:#262626;" transform="translate(418.2359375 55.7578125)scale(0.1 -0.1)">
      <use xlink:href="#ArialMT-6d"/>
      <use x="83.30078125" xlink:href="#ArialMT-65"/>
      <use x="138.916015625" xlink:href="#ArialMT-61"/>
      <use x="194.53125" xlink:href="#ArialMT-6e"/>
      <use x="250.146484375" xlink:href="#ArialMT-20"/>
      <use x="277.9296875" xlink:href="#ArialMT-74"/>
      <use x="305.712890625" xlink:href="#ArialMT-68"/>
      <use x="361.328125" xlink:href="#ArialMT-72"/>
      <use x="394.62890625" xlink:href="#ArialMT-65"/>
      <use x="450.244140625" xlink:href="#ArialMT-73"/>
      <use x="500.244140625" xlink:href="#ArialMT-68"/>
      <use x="555.859375" xlink:href="#ArialMT-6f"/>
      <use x="611.474609375" xlink:href="#ArialMT-6c"/>
      <use x="633.69140625" xlink:href="#ArialMT-64"/>
      <use x="689.306640625" xlink:href="#ArialMT-3a"/>
      <use x="717.08984375" xlink:href="#ArialMT-20"/>
      <use x="744.873046875" xlink:href="#ArialMT-31"/>
      <use x="800.48828125" xlink:href="#ArialMT-38"/>
      <use x="856.103515625" xlink:href="#ArialMT-32"/>
     </g>
    </g>
    <g id="line2d_26">
     <path d="M 390.235937 66.403125 
L 410.235937 66.403125 
" style="fill:none;opacity:0.4;stroke:#2c5ebf;stroke-linecap:round;stroke-width:2.0;"/>
    </g>
    <g id="line2d_27"/>
    <g id="text_15">
     <!-- mouse 1: 228 -->
     <g style="fill:#262626;" transform="translate(418.2359375 69.903125)scale(0.1 -0.1)">
      <use xlink:href="#ArialMT-6d"/>
      <use x="83.30078125" xlink:href="#ArialMT-6f"/>
      <use x="138.916015625" xlink:href="#ArialMT-75"/>
      <use x="194.53125" xlink:href="#ArialMT-73"/>
      <use x="244.53125" xlink:href="#ArialMT-65"/>
      <use x="300.146484375" xlink:href="#ArialMT-20"/>
      <use x="327.9296875" xlink:href="#ArialMT-31"/>
      <use x="383.544921875" xlink:href="#ArialMT-3a"/>
      <use x="411.328125" xlink:href="#ArialMT-20"/>
      <use x="439.111328125" xlink:href="#ArialMT-32"/>
      <use x="494.7265625" xlink:href="#ArialMT-32"/>
      <use x="550.341796875" xlink:href="#ArialMT-38"/>
     </g>
    </g>
    <g id="line2d_28">
     <path d="M 390.235937 80.548437 
L 410.235937 80.548437 
" style="fill:none;opacity:0.4;stroke:#ff1313;stroke-linecap:round;stroke-width:2.0;"/>
    </g>
    <g id="line2d_29"/>
    <g id="text_16">
     <!-- mouse 2: 228 -->
     <g style="fill:#262626;" transform="translate(418.2359375 84.0484375)scale(0.1 -0.1)">
      <use xlink:href="#ArialMT-6d"/>
      <use x="83.30078125" xlink:href="#ArialMT-6f"/>
      <use x="138.916015625" xlink:href="#ArialMT-75"/>
      <use x="194.53125" xlink:href="#ArialMT-73"/>
      <use x="244.53125" xlink:href="#ArialMT-65"/>
      <use x="300.146484375" xlink:href="#ArialMT-20"/>
      <use x="327.9296875" xlink:href="#ArialMT-32"/>
      <use x="383.544921875" xlink:href="#ArialMT-3a"/>
      <use x="411.328125" xlink:href="#ArialMT-20"/>
      <use x="439.111328125" xlink:href="#ArialMT-32"/>
      <use x="494.7265625" xlink:href="#ArialMT-32"/>
      <use x="550.341796875" xlink:href="#ArialMT-38"/>
     </g>
    </g>
    <g id="line2d_30">
     <path d="M 390.235937 94.69375 
L 410.235937 94.69375 
" style="fill:none;opacity:0.4;stroke:#f7b02a;stroke-linecap:round;stroke-width:2.0;"/>
    </g>
    <g id="line2d_31"/>
    <g id="text_17">
     <!-- mouse 3: 234 -->
     <defs>
      <path d="M 4.203125 18.890625 
L 12.984375 20.0625 
Q 14.5 12.59375 18.140625 9.296875 
Q 21.78125 6 27 6 
Q 33.203125 6 37.46875 10.296875 
Q 41.75 14.59375 41.75 20.953125 
Q 41.75 27 37.796875 30.921875 
Q 33.84375 34.859375 27.734375 34.859375 
Q 25.25 34.859375 21.53125 33.890625 
L 22.515625 41.609375 
Q 23.390625 41.5 23.921875 41.5 
Q 29.546875 41.5 34.03125 44.421875 
Q 38.53125 47.359375 38.53125 53.46875 
Q 38.53125 58.296875 35.25 61.46875 
Q 31.984375 64.65625 26.8125 64.65625 
Q 21.6875 64.65625 18.265625 61.421875 
Q 14.84375 58.203125 13.875 51.765625 
L 5.078125 53.328125 
Q 6.6875 62.15625 12.390625 67.015625 
Q 18.109375 71.875 26.609375 71.875 
Q 32.46875 71.875 37.390625 69.359375 
Q 42.328125 66.84375 44.9375 62.5 
Q 47.5625 58.15625 47.5625 53.265625 
Q 47.5625 48.640625 45.0625 44.828125 
Q 42.578125 41.015625 37.703125 38.765625 
Q 44.046875 37.3125 47.5625 32.6875 
Q 51.078125 28.078125 51.078125 21.140625 
Q 51.078125 11.765625 44.234375 5.25 
Q 37.40625 -1.265625 26.953125 -1.265625 
Q 17.53125 -1.265625 11.296875 4.34375 
Q 5.078125 9.96875 4.203125 18.890625 
" id="ArialMT-33"/>
     </defs>
     <g style="fill:#262626;" transform="translate(418.2359375 98.19375)scale(0.1 -0.1)">
      <use xlink:href="#ArialMT-6d"/>
      <use x="83.30078125" xlink:href="#ArialMT-6f"/>
      <use x="138.916015625" xlink:href="#ArialMT-75"/>
      <use x="194.53125" xlink:href="#ArialMT-73"/>
      <use x="244.53125" xlink:href="#ArialMT-65"/>
      <use x="300.146484375" xlink:href="#ArialMT-20"/>
      <use x="327.9296875" xlink:href="#ArialMT-33"/>
      <use x="383.544921875" xlink:href="#ArialMT-3a"/>
      <use x="411.328125" xlink:href="#ArialMT-20"/>
      <use x="439.111328125" xlink:href="#ArialMT-32"/>
      <use x="494.7265625" xlink:href="#ArialMT-33"/>
      <use x="550.341796875" xlink:href="#ArialMT-34"/>
     </g>
    </g>
    <g id="line2d_32">
     <path d="M 390.235937 108.839063 
L 410.235937 108.839063 
" style="fill:none;opacity:0.4;stroke:#02b72a;stroke-linecap:round;stroke-width:2.0;"/>
    </g>
    <g id="line2d_33"/>
    <g id="text_18">
     <!-- mouse 4: 196 -->
     <defs>
      <path d="M 5.46875 16.546875 
L 13.921875 17.328125 
Q 14.984375 11.375 18.015625 8.6875 
Q 21.046875 6 25.78125 6 
Q 29.828125 6 32.875 7.859375 
Q 35.9375 9.71875 37.890625 12.8125 
Q 39.84375 15.921875 41.15625 21.1875 
Q 42.484375 26.46875 42.484375 31.9375 
Q 42.484375 32.515625 42.4375 33.6875 
Q 39.796875 29.5 35.234375 26.875 
Q 30.671875 24.265625 25.34375 24.265625 
Q 16.453125 24.265625 10.296875 30.703125 
Q 4.15625 37.15625 4.15625 47.703125 
Q 4.15625 58.59375 10.578125 65.234375 
Q 17 71.875 26.65625 71.875 
Q 33.640625 71.875 39.421875 68.109375 
Q 45.21875 64.359375 48.21875 57.390625 
Q 51.21875 50.4375 51.21875 37.25 
Q 51.21875 23.53125 48.234375 15.40625 
Q 45.265625 7.28125 39.375 3.03125 
Q 33.5 -1.21875 25.59375 -1.21875 
Q 17.1875 -1.21875 11.859375 3.4375 
Q 6.546875 8.109375 5.46875 16.546875 
M 41.453125 48.140625 
Q 41.453125 55.71875 37.421875 60.15625 
Q 33.40625 64.59375 27.734375 64.59375 
Q 21.875 64.59375 17.53125 59.8125 
Q 13.1875 55.03125 13.1875 47.40625 
Q 13.1875 40.578125 17.3125 36.296875 
Q 21.4375 32.03125 27.484375 32.03125 
Q 33.59375 32.03125 37.515625 36.296875 
Q 41.453125 40.578125 41.453125 48.140625 
" id="ArialMT-39"/>
     </defs>
     <g style="fill:#262626;" transform="translate(418.2359375 112.3390625)scale(0.1 -0.1)">
      <use xlink:href="#ArialMT-6d"/>
      <use x="83.30078125" xlink:href="#ArialMT-6f"/>
      <use x="138.916015625" xlink:href="#ArialMT-75"/>
      <use x="194.53125" xlink:href="#ArialMT-73"/>
      <use x="244.53125" xlink:href="#ArialMT-65"/>
      <use x="300.146484375" xlink:href="#ArialMT-20"/>
      <use x="327.9296875" xlink:href="#ArialMT-34"/>
      <use x="383.544921875" xlink:href="#ArialMT-3a"/>
      <use x="411.328125" xlink:href="#ArialMT-20"/>
      <use x="439.111328125" xlink:href="#ArialMT-31"/>
      <use x="494.7265625" xlink:href="#ArialMT-39"/>
      <use x="550.341796875" xlink:href="#ArialMT-36"/>
     </g>
    </g>
    <g id="line2d_34">
     <path d="M 390.235937 122.984375 
L 410.235937 122.984375 
" style="fill:none;opacity:0.4;stroke:#009e9e;stroke-linecap:round;stroke-width:2.0;"/>
    </g>
    <g id="line2d_35"/>
    <g id="text_19">
     <!-- mouse 5: 5 -->
     <g style="fill:#262626;" transform="translate(418.2359375 126.484375)scale(0.1 -0.1)">
      <use xlink:href="#ArialMT-6d"/>
      <use x="83.30078125" xlink:href="#ArialMT-6f"/>
      <use x="138.916015625" xlink:href="#ArialMT-75"/>
      <use x="194.53125" xlink:href="#ArialMT-73"/>
      <use x="244.53125" xlink:href="#ArialMT-65"/>
      <use x="300.146484375" xlink:href="#ArialMT-20"/>
      <use x="327.9296875" xlink:href="#ArialMT-35"/>
      <use x="383.544921875" xlink:href="#ArialMT-3a"/>
      <use x="411.328125" xlink:href="#ArialMT-20"/>
      <use x="439.111328125" xlink:href="#ArialMT-35"/>
     </g>
    </g>
    <g id="line2d_36">
     <path d="M 390.235937 137.129687 
L 410.235937 137.129687 
" style="fill:none;opacity:0.4;stroke:#1d1aa9;stroke-linecap:round;stroke-width:2.0;"/>
    </g>
    <g id="line2d_37"/>
    <g id="text_20">
     <!-- mouse 6: 202 -->
     <g style="fill:#262626;" transform="translate(418.2359375 140.6296875)scale(0.1 -0.1)">
      <use xlink:href="#ArialMT-6d"/>
      <use x="83.30078125" xlink:href="#ArialMT-6f"/>
      <use x="138.916015625" xlink:href="#ArialMT-75"/>
      <use x="194.53125" xlink:href="#ArialMT-73"/>
      <use x="244.53125" xlink:href="#ArialMT-65"/>
      <use x="300.146484375" xlink:href="#ArialMT-20"/>
      <use x="327.9296875" xlink:href="#ArialMT-36"/>
      <use x="383.544921875" xlink:href="#ArialMT-3a"/>
      <use x="411.328125" xlink:href="#ArialMT-20"/>
      <use x="439.111328125" xlink:href="#ArialMT-32"/>
      <use x="494.7265625" xlink:href="#ArialMT-30"/>
      <use x="550.341796875" xlink:href="#ArialMT-32"/>
     </g>
    </g>
   </g>
  </g>
 </g>
 <defs>
  <clipPath id="p80a2034c22">
   <rect height="306.9" width="446.4" x="72.0" y="39.6"/>
  </clipPath>
 </defs>
</svg>
