<?xml version="1.0" encoding="utf-8" standalone="no"?>
<!DOCTYPE svg PUBLIC "-//W3C//DTD SVG 1.1//EN"
  "http://www.w3.org/Graphics/SVG/1.1/DTD/svg11.dtd">
<!-- Created with matplotlib (http://matplotlib.org/) -->
<svg height="396pt" version="1.1" viewBox="0 0 576 396" width="576pt" xmlns="http://www.w3.org/2000/svg" xmlns:xlink="http://www.w3.org/1999/xlink">
 <defs>
  <style type="text/css">
*{stroke-linecap:butt;stroke-linejoin:round;stroke-miterlimit:100000;}
  </style>
 </defs>
 <g id="figure_1">
  <g id="patch_1">
   <path d="M 0 396 
L 576 396 
L 576 0 
L 0 0 
z
" style="fill:#ffffff;"/>
  </g>
  <g id="axes_1">
   <g id="patch_2">
    <path d="M 72 346.5 
L 518.4 346.5 
L 518.4 39.6 
L 72 39.6 
z
" style="fill:#ffffff;"/>
   </g>
   <g id="matplotlib.axis_1">
    <g id="xtick_1">
     <g id="line2d_1">
      <defs>
       <path d="M 0 0 
L 0 5 
" id="mcf40ca839f" style="stroke:#262626;"/>
      </defs>
      <g>
       <use style="fill:#262626;stroke:#262626;" x="73.9282937365" xlink:href="#mcf40ca839f" y="346.5"/>
      </g>
     </g>
     <g id="text_1">
      <!-- 0 -->
      <defs>
       <path d="M 4.15625 35.296875 
Q 4.15625 48 6.765625 55.734375 
Q 9.375 63.484375 14.515625 67.671875 
Q 19.671875 71.875 27.484375 71.875 
Q 33.25 71.875 37.59375 69.546875 
Q 41.9375 67.234375 44.765625 62.859375 
Q 47.609375 58.5 49.21875 52.21875 
Q 50.828125 45.953125 50.828125 35.296875 
Q 50.828125 22.703125 48.234375 14.96875 
Q 45.65625 7.234375 40.5 3 
Q 35.359375 -1.21875 27.484375 -1.21875 
Q 17.140625 -1.21875 11.234375 6.203125 
Q 4.15625 15.140625 4.15625 35.296875 
M 13.1875 35.296875 
Q 13.1875 17.671875 17.3125 11.828125 
Q 21.4375 6 27.484375 6 
Q 33.546875 6 37.671875 11.859375 
Q 41.796875 17.71875 41.796875 35.296875 
Q 41.796875 52.984375 37.671875 58.78125 
Q 33.546875 64.59375 27.390625 64.59375 
Q 21.34375 64.59375 17.71875 59.46875 
Q 13.1875 52.9375 13.1875 35.296875 
" id="ArialMT-30"/>
      </defs>
      <g style="fill:#262626;" transform="translate(71.1478249865 360.6578125)scale(0.1 -0.1)">
       <use xlink:href="#ArialMT-30"/>
      </g>
     </g>
    </g>
    <g id="xtick_2">
     <g id="line2d_2">
      <g>
       <use style="fill:#262626;stroke:#262626;" x="170.342980562" xlink:href="#mcf40ca839f" y="346.5"/>
      </g>
     </g>
     <g id="text_2">
      <!-- 500 -->
      <defs>
       <path d="M 4.15625 18.75 
L 13.375 19.53125 
Q 14.40625 12.796875 18.140625 9.390625 
Q 21.875 6 27.15625 6 
Q 33.5 6 37.890625 10.78125 
Q 42.28125 15.578125 42.28125 23.484375 
Q 42.28125 31 38.0625 35.34375 
Q 33.84375 39.703125 27 39.703125 
Q 22.75 39.703125 19.328125 37.765625 
Q 15.921875 35.84375 13.96875 32.765625 
L 5.71875 33.84375 
L 12.640625 70.609375 
L 48.25 70.609375 
L 48.25 62.203125 
L 19.671875 62.203125 
L 15.828125 42.96875 
Q 22.265625 47.46875 29.34375 47.46875 
Q 38.71875 47.46875 45.15625 40.96875 
Q 51.609375 34.46875 51.609375 24.265625 
Q 51.609375 14.546875 45.953125 7.46875 
Q 39.0625 -1.21875 27.15625 -1.21875 
Q 17.390625 -1.21875 11.203125 4.25 
Q 5.03125 9.71875 4.15625 18.75 
" id="ArialMT-35"/>
      </defs>
      <g style="fill:#262626;" transform="translate(162.001574312 360.6578125)scale(0.1 -0.1)">
       <use xlink:href="#ArialMT-35"/>
       <use x="55.615234375" xlink:href="#ArialMT-30"/>
       <use x="111.23046875" xlink:href="#ArialMT-30"/>
      </g>
     </g>
    </g>
    <g id="xtick_3">
     <g id="line2d_3">
      <g>
       <use style="fill:#262626;stroke:#262626;" x="266.757667387" xlink:href="#mcf40ca839f" y="346.5"/>
      </g>
     </g>
     <g id="text_3">
      <!-- 1000 -->
      <defs>
       <path d="M 37.25 0 
L 28.46875 0 
L 28.46875 56 
Q 25.296875 52.984375 20.140625 49.953125 
Q 14.984375 46.921875 10.890625 45.40625 
L 10.890625 53.90625 
Q 18.265625 57.375 23.78125 62.296875 
Q 29.296875 67.234375 31.59375 71.875 
L 37.25 71.875 
z
" id="ArialMT-31"/>
      </defs>
      <g style="fill:#262626;" transform="translate(255.635792387 360.6578125)scale(0.1 -0.1)">
       <use xlink:href="#ArialMT-31"/>
       <use x="55.615234375" xlink:href="#ArialMT-30"/>
       <use x="111.23046875" xlink:href="#ArialMT-30"/>
       <use x="166.845703125" xlink:href="#ArialMT-30"/>
      </g>
     </g>
    </g>
    <g id="xtick_4">
     <g id="line2d_4">
      <g>
       <use style="fill:#262626;stroke:#262626;" x="363.172354212" xlink:href="#mcf40ca839f" y="346.5"/>
      </g>
     </g>
     <g id="text_4">
      <!-- 1500 -->
      <g style="fill:#262626;" transform="translate(352.050479212 360.6578125)scale(0.1 -0.1)">
       <use xlink:href="#ArialMT-31"/>
       <use x="55.615234375" xlink:href="#ArialMT-35"/>
       <use x="111.23046875" xlink:href="#ArialMT-30"/>
       <use x="166.845703125" xlink:href="#ArialMT-30"/>
      </g>
     </g>
    </g>
    <g id="xtick_5">
     <g id="line2d_5">
      <g>
       <use style="fill:#262626;stroke:#262626;" x="459.587041037" xlink:href="#mcf40ca839f" y="346.5"/>
      </g>
     </g>
     <g id="text_5">
      <!-- 2000 -->
      <defs>
       <path d="M 50.34375 8.453125 
L 50.34375 0 
L 3.03125 0 
Q 2.9375 3.171875 4.046875 6.109375 
Q 5.859375 10.9375 9.828125 15.625 
Q 13.8125 20.3125 21.34375 26.46875 
Q 33.015625 36.03125 37.109375 41.625 
Q 41.21875 47.21875 41.21875 52.203125 
Q 41.21875 57.421875 37.46875 61 
Q 33.734375 64.59375 27.734375 64.59375 
Q 21.390625 64.59375 17.578125 60.78125 
Q 13.765625 56.984375 13.71875 50.25 
L 4.6875 51.171875 
Q 5.609375 61.28125 11.65625 66.578125 
Q 17.71875 71.875 27.9375 71.875 
Q 38.234375 71.875 44.234375 66.15625 
Q 50.25 60.453125 50.25 52 
Q 50.25 47.703125 48.484375 43.546875 
Q 46.734375 39.40625 42.65625 34.8125 
Q 38.578125 30.21875 29.109375 22.21875 
Q 21.1875 15.578125 18.9375 13.203125 
Q 16.703125 10.84375 15.234375 8.453125 
z
" id="ArialMT-32"/>
      </defs>
      <g style="fill:#262626;" transform="translate(448.465166037 360.6578125)scale(0.1 -0.1)">
       <use xlink:href="#ArialMT-32"/>
       <use x="55.615234375" xlink:href="#ArialMT-30"/>
       <use x="111.23046875" xlink:href="#ArialMT-30"/>
       <use x="166.845703125" xlink:href="#ArialMT-30"/>
      </g>
     </g>
    </g>
    <g id="text_6">
     <!-- barcode, rank-ordered -->
     <defs>
      <path d="M 40.4375 19 
L 49.078125 17.875 
Q 47.65625 8.9375 41.8125 3.875 
Q 35.984375 -1.171875 27.484375 -1.171875 
Q 16.84375 -1.171875 10.375 5.78125 
Q 3.90625 12.75 3.90625 25.734375 
Q 3.90625 34.125 6.6875 40.421875 
Q 9.46875 46.734375 15.15625 49.875 
Q 20.84375 53.03125 27.546875 53.03125 
Q 35.984375 53.03125 41.359375 48.75 
Q 46.734375 44.484375 48.25 36.625 
L 39.703125 35.296875 
Q 38.484375 40.53125 35.375 43.15625 
Q 32.28125 45.796875 27.875 45.796875 
Q 21.234375 45.796875 17.078125 41.03125 
Q 12.9375 36.28125 12.9375 25.984375 
Q 12.9375 15.53125 16.9375 10.796875 
Q 20.953125 6.0625 27.390625 6.0625 
Q 32.5625 6.0625 36.03125 9.234375 
Q 39.5 12.40625 40.4375 19 
" id="ArialMT-63"/>
      <path d="M 14.703125 0 
L 6.546875 0 
L 6.546875 71.578125 
L 15.328125 71.578125 
L 15.328125 46.046875 
Q 20.90625 53.03125 29.546875 53.03125 
Q 34.328125 53.03125 38.59375 51.09375 
Q 42.875 49.171875 45.625 45.671875 
Q 48.390625 42.1875 49.953125 37.25 
Q 51.515625 32.328125 51.515625 26.703125 
Q 51.515625 13.375 44.921875 6.09375 
Q 38.328125 -1.171875 29.109375 -1.171875 
Q 19.921875 -1.171875 14.703125 6.5 
z
M 14.59375 26.3125 
Q 14.59375 17 17.140625 12.84375 
Q 21.296875 6.0625 28.375 6.0625 
Q 34.125 6.0625 38.328125 11.0625 
Q 42.53125 16.0625 42.53125 25.984375 
Q 42.53125 36.140625 38.5 40.96875 
Q 34.46875 45.796875 28.765625 45.796875 
Q 23 45.796875 18.796875 40.796875 
Q 14.59375 35.796875 14.59375 26.3125 
" id="ArialMT-62"/>
      <path d="M 40.4375 6.390625 
Q 35.546875 2.25 31.03125 0.53125 
Q 26.515625 -1.171875 21.34375 -1.171875 
Q 12.796875 -1.171875 8.203125 3 
Q 3.609375 7.171875 3.609375 13.671875 
Q 3.609375 17.484375 5.34375 20.625 
Q 7.078125 23.78125 9.890625 25.6875 
Q 12.703125 27.59375 16.21875 28.5625 
Q 18.796875 29.25 24.03125 29.890625 
Q 34.671875 31.15625 39.703125 32.90625 
Q 39.75 34.71875 39.75 35.203125 
Q 39.75 40.578125 37.25 42.78125 
Q 33.890625 45.75 27.25 45.75 
Q 21.046875 45.75 18.09375 43.578125 
Q 15.140625 41.40625 13.71875 35.890625 
L 5.125 37.0625 
Q 6.296875 42.578125 8.984375 45.96875 
Q 11.671875 49.359375 16.75 51.1875 
Q 21.828125 53.03125 28.515625 53.03125 
Q 35.15625 53.03125 39.296875 51.46875 
Q 43.453125 49.90625 45.40625 47.53125 
Q 47.359375 45.171875 48.140625 41.546875 
Q 48.578125 39.3125 48.578125 33.453125 
L 48.578125 21.734375 
Q 48.578125 9.46875 49.140625 6.21875 
Q 49.703125 2.984375 51.375 0 
L 42.1875 0 
Q 40.828125 2.734375 40.4375 6.390625 
M 39.703125 26.03125 
Q 34.90625 24.078125 25.34375 22.703125 
Q 19.921875 21.921875 17.671875 20.9375 
Q 15.4375 19.96875 14.203125 18.09375 
Q 12.984375 16.21875 12.984375 13.921875 
Q 12.984375 10.40625 15.640625 8.0625 
Q 18.3125 5.71875 23.4375 5.71875 
Q 28.515625 5.71875 32.46875 7.9375 
Q 36.421875 10.15625 38.28125 14.015625 
Q 39.703125 17 39.703125 22.796875 
z
" id="ArialMT-61"/>
      <path d="M 42.09375 16.703125 
L 51.171875 15.578125 
Q 49.03125 7.625 43.21875 3.21875 
Q 37.40625 -1.171875 28.375 -1.171875 
Q 17 -1.171875 10.328125 5.828125 
Q 3.65625 12.84375 3.65625 25.484375 
Q 3.65625 38.578125 10.390625 45.796875 
Q 17.140625 53.03125 27.875 53.03125 
Q 38.28125 53.03125 44.875 45.953125 
Q 51.46875 38.875 51.46875 26.03125 
Q 51.46875 25.25 51.421875 23.6875 
L 12.75 23.6875 
Q 13.234375 15.140625 17.578125 10.59375 
Q 21.921875 6.0625 28.421875 6.0625 
Q 33.25 6.0625 36.671875 8.59375 
Q 40.09375 11.140625 42.09375 16.703125 
M 13.234375 30.90625 
L 42.1875 30.90625 
Q 41.609375 37.453125 38.875 40.71875 
Q 34.671875 45.796875 27.984375 45.796875 
Q 21.921875 45.796875 17.796875 41.75 
Q 13.671875 37.703125 13.234375 30.90625 
" id="ArialMT-65"/>
      <path d="M 40.234375 0 
L 40.234375 6.546875 
Q 35.296875 -1.171875 25.734375 -1.171875 
Q 19.53125 -1.171875 14.328125 2.25 
Q 9.125 5.671875 6.265625 11.796875 
Q 3.421875 17.921875 3.421875 25.875 
Q 3.421875 33.640625 6 39.96875 
Q 8.59375 46.296875 13.765625 49.65625 
Q 18.953125 53.03125 25.34375 53.03125 
Q 30.03125 53.03125 33.6875 51.046875 
Q 37.359375 49.078125 39.65625 45.90625 
L 39.65625 71.578125 
L 48.390625 71.578125 
L 48.390625 0 
z
M 12.453125 25.875 
Q 12.453125 15.921875 16.640625 10.984375 
Q 20.84375 6.0625 26.5625 6.0625 
Q 32.328125 6.0625 36.34375 10.765625 
Q 40.375 15.484375 40.375 25.140625 
Q 40.375 35.796875 36.265625 40.765625 
Q 32.171875 45.75 26.171875 45.75 
Q 20.3125 45.75 16.375 40.96875 
Q 12.453125 36.1875 12.453125 25.875 
" id="ArialMT-64"/>
      <path d="M 3.171875 21.484375 
L 3.171875 30.328125 
L 30.171875 30.328125 
L 30.171875 21.484375 
z
" id="ArialMT-2d"/>
      <path d="M 8.890625 0 
L 8.890625 10.015625 
L 18.890625 10.015625 
L 18.890625 0 
Q 18.890625 -5.515625 16.9375 -8.90625 
Q 14.984375 -12.3125 10.75 -14.15625 
L 8.296875 -10.40625 
Q 11.078125 -9.1875 12.390625 -6.8125 
Q 13.71875 -4.4375 13.875 0 
z
" id="ArialMT-2c"/>
      <path d="M 6.5 0 
L 6.5 51.859375 
L 14.40625 51.859375 
L 14.40625 44 
Q 17.4375 49.515625 20 51.265625 
Q 22.5625 53.03125 25.640625 53.03125 
Q 30.078125 53.03125 34.671875 50.203125 
L 31.640625 42.046875 
Q 28.421875 43.953125 25.203125 43.953125 
Q 22.3125 43.953125 20.015625 42.21875 
Q 17.71875 40.484375 16.75 37.40625 
Q 15.28125 32.71875 15.28125 27.15625 
L 15.28125 0 
z
" id="ArialMT-72"/>
      <path d="M 6.640625 0 
L 6.640625 71.578125 
L 15.4375 71.578125 
L 15.4375 30.765625 
L 36.234375 51.859375 
L 47.609375 51.859375 
L 27.78125 32.625 
L 49.609375 0 
L 38.765625 0 
L 21.625 26.515625 
L 15.4375 20.5625 
L 15.4375 0 
z
" id="ArialMT-6b"/>
      <path d="M 3.328125 25.921875 
Q 3.328125 40.328125 11.328125 47.265625 
Q 18.015625 53.03125 27.640625 53.03125 
Q 38.328125 53.03125 45.109375 46.015625 
Q 51.90625 39.015625 51.90625 26.65625 
Q 51.90625 16.65625 48.90625 10.90625 
Q 45.90625 5.171875 40.15625 2 
Q 34.421875 -1.171875 27.640625 -1.171875 
Q 16.75 -1.171875 10.03125 5.8125 
Q 3.328125 12.796875 3.328125 25.921875 
M 12.359375 25.921875 
Q 12.359375 15.96875 16.703125 11.015625 
Q 21.046875 6.0625 27.640625 6.0625 
Q 34.1875 6.0625 38.53125 11.03125 
Q 42.875 16.015625 42.875 26.21875 
Q 42.875 35.84375 38.5 40.796875 
Q 34.125 45.75 27.640625 45.75 
Q 21.046875 45.75 16.703125 40.8125 
Q 12.359375 35.890625 12.359375 25.921875 
" id="ArialMT-6f"/>
      <path d="M 6.59375 0 
L 6.59375 51.859375 
L 14.5 51.859375 
L 14.5 44.484375 
Q 20.21875 53.03125 31 53.03125 
Q 35.6875 53.03125 39.625 51.34375 
Q 43.5625 49.65625 45.515625 46.921875 
Q 47.46875 44.1875 48.25 40.4375 
Q 48.734375 37.984375 48.734375 31.890625 
L 48.734375 0 
L 39.9375 0 
L 39.9375 31.546875 
Q 39.9375 36.921875 38.90625 39.578125 
Q 37.890625 42.234375 35.28125 43.8125 
Q 32.671875 45.40625 29.15625 45.40625 
Q 23.53125 45.40625 19.453125 41.84375 
Q 15.375 38.28125 15.375 28.328125 
L 15.375 0 
z
" id="ArialMT-6e"/>
      <path id="ArialMT-20"/>
     </defs>
     <g style="fill:#262626;" transform="translate(240.785234375 375.51890625)scale(0.11 -0.11)">
      <use xlink:href="#ArialMT-62"/>
      <use x="55.615234375" xlink:href="#ArialMT-61"/>
      <use x="111.23046875" xlink:href="#ArialMT-72"/>
      <use x="144.53125" xlink:href="#ArialMT-63"/>
      <use x="194.53125" xlink:href="#ArialMT-6f"/>
      <use x="250.146484375" xlink:href="#ArialMT-64"/>
      <use x="305.76171875" xlink:href="#ArialMT-65"/>
      <use x="361.376953125" xlink:href="#ArialMT-2c"/>
      <use x="389.16015625" xlink:href="#ArialMT-20"/>
      <use x="416.943359375" xlink:href="#ArialMT-72"/>
      <use x="450.244140625" xlink:href="#ArialMT-61"/>
      <use x="505.859375" xlink:href="#ArialMT-6e"/>
      <use x="561.474609375" xlink:href="#ArialMT-6b"/>
      <use x="611.474609375" xlink:href="#ArialMT-2d"/>
      <use x="644.775390625" xlink:href="#ArialMT-6f"/>
      <use x="700.390625" xlink:href="#ArialMT-72"/>
      <use x="733.69140625" xlink:href="#ArialMT-64"/>
      <use x="789.306640625" xlink:href="#ArialMT-65"/>
      <use x="844.921875" xlink:href="#ArialMT-72"/>
      <use x="878.22265625" xlink:href="#ArialMT-65"/>
      <use x="933.837890625" xlink:href="#ArialMT-64"/>
     </g>
    </g>
   </g>
   <g id="matplotlib.axis_2">
    <g id="ytick_1">
     <g id="line2d_6">
      <defs>
       <path d="M 0 0 
L -5 0 
" id="mb777dbfd66" style="stroke:#262626;"/>
      </defs>
      <g>
       <use style="fill:#262626;stroke:#262626;" x="72.0" xlink:href="#mb777dbfd66" y="346.5"/>
      </g>
     </g>
     <g id="text_7">
      <!-- 1 -->
      <g style="fill:#262626;" transform="translate(59.4390625 349.08515625)scale(0.1 -0.1)">
       <use xlink:href="#ArialMT-31"/>
      </g>
     </g>
    </g>
    <g id="ytick_2">
     <g id="line2d_7">
      <g>
       <use style="fill:#262626;stroke:#262626;" x="72.0" xlink:href="#mb777dbfd66" y="253.039349649"/>
      </g>
     </g>
     <g id="text_8">
      <!-- 10 -->
      <g style="fill:#262626;" transform="translate(53.878125 255.624505899)scale(0.1 -0.1)">
       <use xlink:href="#ArialMT-31"/>
       <use x="55.615234375" xlink:href="#ArialMT-30"/>
      </g>
     </g>
    </g>
    <g id="ytick_3">
     <g id="line2d_8">
      <g>
       <use style="fill:#262626;stroke:#262626;" x="72.0" xlink:href="#mb777dbfd66" y="159.578699297"/>
      </g>
     </g>
     <g id="text_9">
      <!-- 100 -->
      <g style="fill:#262626;" transform="translate(48.3171875 162.163855547)scale(0.1 -0.1)">
       <use xlink:href="#ArialMT-31"/>
       <use x="55.615234375" xlink:href="#ArialMT-30"/>
       <use x="111.23046875" xlink:href="#ArialMT-30"/>
      </g>
     </g>
    </g>
    <g id="ytick_4">
     <g id="line2d_9">
      <g>
       <use style="fill:#262626;stroke:#262626;" x="72.0" xlink:href="#mb777dbfd66" y="66.118048946"/>
      </g>
     </g>
     <g id="text_10">
      <!-- 1000 -->
      <g style="fill:#262626;" transform="translate(42.75625 68.703205196)scale(0.1 -0.1)">
       <use xlink:href="#ArialMT-31"/>
       <use x="55.615234375" xlink:href="#ArialMT-30"/>
       <use x="111.23046875" xlink:href="#ArialMT-30"/>
       <use x="166.845703125" xlink:href="#ArialMT-30"/>
      </g>
     </g>
    </g>
    <g id="text_11">
     <!-- log10 abundance (# molecules) -->
     <defs>
      <path d="M 4.984375 -4.296875 
L 13.53125 -5.5625 
Q 14.0625 -9.515625 16.5 -11.328125 
Q 19.78125 -13.765625 25.4375 -13.765625 
Q 31.546875 -13.765625 34.859375 -11.328125 
Q 38.1875 -8.890625 39.359375 -4.5 
Q 40.046875 -1.8125 39.984375 6.78125 
Q 34.234375 0 25.640625 0 
Q 14.9375 0 9.078125 7.71875 
Q 3.21875 15.4375 3.21875 26.21875 
Q 3.21875 33.640625 5.90625 39.90625 
Q 8.59375 46.1875 13.6875 49.609375 
Q 18.796875 53.03125 25.6875 53.03125 
Q 34.859375 53.03125 40.828125 45.609375 
L 40.828125 51.859375 
L 48.921875 51.859375 
L 48.921875 7.03125 
Q 48.921875 -5.078125 46.453125 -10.125 
Q 44 -15.1875 38.640625 -18.109375 
Q 33.296875 -21.046875 25.484375 -21.046875 
Q 16.21875 -21.046875 10.5 -16.875 
Q 4.78125 -12.703125 4.984375 -4.296875 
M 12.25 26.859375 
Q 12.25 16.65625 16.296875 11.96875 
Q 20.359375 7.28125 26.46875 7.28125 
Q 32.515625 7.28125 36.609375 11.9375 
Q 40.71875 16.609375 40.71875 26.5625 
Q 40.71875 36.078125 36.5 40.90625 
Q 32.28125 45.75 26.3125 45.75 
Q 20.453125 45.75 16.34375 40.984375 
Q 12.25 36.234375 12.25 26.859375 
" id="ArialMT-67"/>
      <path d="M 40.578125 0 
L 40.578125 7.625 
Q 34.515625 -1.171875 24.125 -1.171875 
Q 19.53125 -1.171875 15.546875 0.578125 
Q 11.578125 2.34375 9.640625 5 
Q 7.71875 7.671875 6.9375 11.53125 
Q 6.390625 14.109375 6.390625 19.734375 
L 6.390625 51.859375 
L 15.1875 51.859375 
L 15.1875 23.09375 
Q 15.1875 16.21875 15.71875 13.8125 
Q 16.546875 10.359375 19.234375 8.375 
Q 21.921875 6.390625 25.875 6.390625 
Q 29.828125 6.390625 33.296875 8.421875 
Q 36.765625 10.453125 38.203125 13.9375 
Q 39.65625 17.4375 39.65625 24.078125 
L 39.65625 51.859375 
L 48.4375 51.859375 
L 48.4375 0 
z
" id="ArialMT-75"/>
      <path d="M 23.390625 -21.046875 
Q 16.109375 -11.859375 11.078125 0.4375 
Q 6.0625 12.75 6.0625 25.921875 
Q 6.0625 37.546875 9.8125 48.1875 
Q 14.203125 60.546875 23.390625 72.796875 
L 29.6875 72.796875 
Q 23.78125 62.640625 21.875 58.296875 
Q 18.890625 51.5625 17.1875 44.234375 
Q 15.09375 35.109375 15.09375 25.875 
Q 15.09375 2.390625 29.6875 -21.046875 
z
" id="ArialMT-28"/>
      <path d="M 3.078125 15.484375 
L 11.765625 16.84375 
Q 12.5 11.625 15.84375 8.84375 
Q 19.1875 6.0625 25.203125 6.0625 
Q 31.25 6.0625 34.171875 8.515625 
Q 37.109375 10.984375 37.109375 14.3125 
Q 37.109375 17.28125 34.515625 19 
Q 32.71875 20.171875 25.53125 21.96875 
Q 15.875 24.421875 12.140625 26.203125 
Q 8.40625 27.984375 6.46875 31.125 
Q 4.546875 34.28125 4.546875 38.09375 
Q 4.546875 41.546875 6.125 44.5 
Q 7.71875 47.46875 10.453125 49.421875 
Q 12.5 50.921875 16.03125 51.96875 
Q 19.578125 53.03125 23.640625 53.03125 
Q 29.734375 53.03125 34.34375 51.265625 
Q 38.96875 49.515625 41.15625 46.5 
Q 43.359375 43.5 44.1875 38.484375 
L 35.59375 37.3125 
Q 35.015625 41.3125 32.203125 43.546875 
Q 29.390625 45.796875 24.265625 45.796875 
Q 18.21875 45.796875 15.625 43.796875 
Q 13.03125 41.796875 13.03125 39.109375 
Q 13.03125 37.40625 14.109375 36.03125 
Q 15.1875 34.625 17.484375 33.6875 
Q 18.796875 33.203125 25.25 31.453125 
Q 34.578125 28.953125 38.25 27.359375 
Q 41.9375 25.78125 44.03125 22.75 
Q 46.140625 19.734375 46.140625 15.234375 
Q 46.140625 10.84375 43.578125 6.953125 
Q 41.015625 3.078125 36.171875 0.953125 
Q 31.34375 -1.171875 25.25 -1.171875 
Q 15.140625 -1.171875 9.84375 3.03125 
Q 4.546875 7.234375 3.078125 15.484375 
" id="ArialMT-73"/>
      <path d="M 6.390625 0 
L 6.390625 71.578125 
L 15.1875 71.578125 
L 15.1875 0 
z
" id="ArialMT-6c"/>
      <path d="M 12.359375 -21.046875 
L 6.0625 -21.046875 
Q 20.65625 2.390625 20.65625 25.875 
Q 20.65625 35.0625 18.5625 44.09375 
Q 16.890625 51.421875 13.921875 58.15625 
Q 12.015625 62.546875 6.0625 72.796875 
L 12.359375 72.796875 
Q 21.53125 60.546875 25.921875 48.1875 
Q 29.6875 37.546875 29.6875 25.921875 
Q 29.6875 12.75 24.625 0.4375 
Q 19.578125 -11.859375 12.359375 -21.046875 
" id="ArialMT-29"/>
      <path d="M 6.59375 0 
L 6.59375 51.859375 
L 14.453125 51.859375 
L 14.453125 44.578125 
Q 16.890625 48.390625 20.9375 50.703125 
Q 25 53.03125 30.171875 53.03125 
Q 35.9375 53.03125 39.625 50.640625 
Q 43.3125 48.25 44.828125 43.953125 
Q 50.984375 53.03125 60.84375 53.03125 
Q 68.5625 53.03125 72.703125 48.75 
Q 76.859375 44.484375 76.859375 35.59375 
L 76.859375 0 
L 68.109375 0 
L 68.109375 32.671875 
Q 68.109375 37.9375 67.25 40.25 
Q 66.40625 42.578125 64.15625 43.984375 
Q 61.921875 45.40625 58.890625 45.40625 
Q 53.421875 45.40625 49.796875 41.765625 
Q 46.1875 38.140625 46.1875 30.125 
L 46.1875 0 
L 37.40625 0 
L 37.40625 33.6875 
Q 37.40625 39.546875 35.25 42.46875 
Q 33.109375 45.40625 28.21875 45.40625 
Q 24.515625 45.40625 21.359375 43.453125 
Q 18.21875 41.5 16.796875 37.734375 
Q 15.375 33.984375 15.375 26.90625 
L 15.375 0 
z
" id="ArialMT-6d"/>
      <path d="M 5.03125 -1.21875 
L 9.28125 19.578125 
L 1.03125 19.578125 
L 1.03125 26.859375 
L 10.75 26.859375 
L 14.359375 44.578125 
L 1.03125 44.578125 
L 1.03125 51.859375 
L 15.828125 51.859375 
L 20.0625 72.796875 
L 27.390625 72.796875 
L 23.140625 51.859375 
L 38.53125 51.859375 
L 42.78125 72.796875 
L 50.140625 72.796875 
L 45.90625 51.859375 
L 54.34375 51.859375 
L 54.34375 44.578125 
L 44.4375 44.578125 
L 40.765625 26.859375 
L 54.34375 26.859375 
L 54.34375 19.578125 
L 39.3125 19.578125 
L 35.0625 -1.21875 
L 27.734375 -1.21875 
L 31.9375 19.578125 
L 16.609375 19.578125 
L 12.359375 -1.21875 
z
M 18.0625 26.859375 
L 33.40625 26.859375 
L 37.0625 44.578125 
L 21.6875 44.578125 
z
" id="ArialMT-23"/>
     </defs>
     <g style="fill:#262626;" transform="translate(35.44109375 269.78875)rotate(-90.0)scale(0.11 -0.11)">
      <use xlink:href="#ArialMT-6c"/>
      <use x="22.216796875" xlink:href="#ArialMT-6f"/>
      <use x="77.83203125" xlink:href="#ArialMT-67"/>
      <use x="133.447265625" xlink:href="#ArialMT-31"/>
      <use x="189.0625" xlink:href="#ArialMT-30"/>
      <use x="244.677734375" xlink:href="#ArialMT-20"/>
      <use x="272.4609375" xlink:href="#ArialMT-61"/>
      <use x="328.076171875" xlink:href="#ArialMT-62"/>
      <use x="383.69140625" xlink:href="#ArialMT-75"/>
      <use x="439.306640625" xlink:href="#ArialMT-6e"/>
      <use x="494.921875" xlink:href="#ArialMT-64"/>
      <use x="550.537109375" xlink:href="#ArialMT-61"/>
      <use x="606.15234375" xlink:href="#ArialMT-6e"/>
      <use x="661.767578125" xlink:href="#ArialMT-63"/>
      <use x="711.767578125" xlink:href="#ArialMT-65"/>
      <use x="767.3828125" xlink:href="#ArialMT-20"/>
      <use x="795.166015625" xlink:href="#ArialMT-28"/>
      <use x="828.466796875" xlink:href="#ArialMT-23"/>
      <use x="884.08203125" xlink:href="#ArialMT-20"/>
      <use x="911.865234375" xlink:href="#ArialMT-6d"/>
      <use x="995.166015625" xlink:href="#ArialMT-6f"/>
      <use x="1050.78125" xlink:href="#ArialMT-6c"/>
      <use x="1072.99804688" xlink:href="#ArialMT-65"/>
      <use x="1128.61328125" xlink:href="#ArialMT-63"/>
      <use x="1178.61328125" xlink:href="#ArialMT-75"/>
      <use x="1234.22851562" xlink:href="#ArialMT-6c"/>
      <use x="1256.4453125" xlink:href="#ArialMT-65"/>
      <use x="1312.06054688" xlink:href="#ArialMT-73"/>
      <use x="1362.06054688" xlink:href="#ArialMT-29"/>
     </g>
    </g>
   </g>
   <g id="line2d_10">
    <path clip-path="url(#pb6d9906163)" d="M 116.157927 346.5 
L 116.157927 39.6 
" style="fill:none;stroke:#808080;stroke-linecap:round;stroke-width:3.0;"/>
   </g>
   <g id="line2d_11">
    <path clip-path="url(#pb6d9906163)" d="M 73.928294 53.310439 
L 74.121123 64.682516 
L 74.506782 65.234762 
L 74.699611 65.274497 
L 75.08527 67.187336 
L 75.278099 67.817294 
L 75.470929 69.812476 
L 75.663758 70.124875 
L 75.856587 73.926317 
L 76.242246 74.47115 
L 76.627905 78.449587 
L 76.820734 78.670183 
L 77.206393 82.191873 
L 77.399222 82.191873 
L 77.592052 82.860778 
L 77.784881 83.045136 
L 78.17054 84.359635 
L 78.556199 84.614916 
L 78.749028 85.130344 
L 78.941857 85.32533 
L 79.134687 86.784585 
L 79.520346 87.12368 
L 79.713175 87.12368 
L 79.906004 87.260115 
L 80.098834 87.879813 
L 80.291663 88.0885 
L 80.870151 89.580143 
L 81.062981 89.725106 
L 81.641469 90.978649 
L 82.219957 91.430484 
L 82.412786 91.430484 
L 82.798445 93.44873 
L 82.991274 93.44873 
L 83.376933 95.155445 
L 83.762592 95.321795 
L 84.148251 96.16393 
L 84.533909 98.800535 
L 84.726739 99.34905 
L 85.112397 99.441194 
L 85.305227 99.441194 
L 85.498056 102.011607 
L 85.690886 102.011607 
L 85.883715 102.208643 
L 86.076544 103.006496 
L 86.269374 103.107339 
L 86.462203 103.411382 
L 86.655032 105.391747 
L 86.847862 105.60594 
L 87.040691 105.60594 
L 87.233521 106.915391 
L 87.812009 107.699211 
L 88.004838 109.079155 
L 88.583326 109.668272 
L 88.968985 110.872795 
L 89.547473 111.364794 
L 89.740302 111.737747 
L 89.933132 111.737747 
L 90.125961 112.494094 
L 90.31879 112.621534 
L 90.704449 113.524993 
L 91.090108 113.918432 
L 91.475767 114.851563 
L 91.668596 115.394574 
L 91.861425 115.394574 
L 92.054255 115.806653 
L 92.247084 115.944948 
L 92.439914 116.502887 
L 92.632743 116.502887 
L 92.825572 116.926433 
L 93.018402 116.926433 
L 93.40406 117.787019 
L 93.59689 117.932241 
L 93.789719 118.224252 
L 94.175378 119.868985 
L 94.368207 119.868985 
L 94.561037 120.175322 
L 94.753866 120.175322 
L 94.946695 120.951435 
L 95.139525 122.386967 
L 95.332354 122.386967 
L 95.525184 122.549651 
L 95.718013 122.549651 
L 96.48933 124.213385 
L 96.68216 124.383572 
L 96.874989 124.898456 
L 97.260648 125.245376 
L 97.646307 126.483494 
L 98.031965 126.483494 
L 98.996112 128.132954 
L 99.188942 129.463874 
L 99.381771 129.657619 
L 99.5746 129.657619 
L 100.153089 130.244465 
L 100.731577 131.44424 
L 101.117235 133.955728 
L 101.310065 133.955728 
L 102.467041 136.402957 
L 102.65987 136.632926 
L 103.045529 136.632926 
L 103.238359 137.09681 
L 103.431188 137.09681 
L 103.624017 137.566057 
L 103.816847 137.566057 
L 104.009676 138.521147 
L 104.395335 139.007254 
L 104.588164 139.007254 
L 104.780994 139.747508 
L 104.973823 139.747508 
L 105.552311 140.501513 
L 106.130799 142.052891 
L 106.323629 142.052891 
L 106.516458 142.317318 
L 106.709287 142.317318 
L 106.902117 142.583479 
L 107.866263 145.060892 
L 108.444752 145.921478 
L 108.637581 147.098066 
L 108.83041 147.397621 
L 109.601728 149.877136 
L 109.794557 149.877136 
L 109.987387 150.198003 
L 110.373045 150.198003 
L 110.758704 153.554414 
L 110.951533 153.90584 
L 111.144363 154.617953 
L 111.337192 154.617953 
L 112.10851 157.598334 
L 112.301339 157.598334 
L 112.494168 157.986752 
L 112.686998 157.986752 
L 112.879827 158.774922 
L 113.072657 158.774922 
L 113.265486 159.174821 
L 113.458315 160.398716 
L 113.651145 160.815022 
L 114.036803 162.963113 
L 114.229633 163.406717 
L 114.615292 165.700517 
L 114.808121 166.655606 
L 115.19378 166.655606 
L 115.386609 168.131749 
L 115.772268 169.146538 
L 116.350756 171.800388 
L 116.543585 171.800388 
L 117.314903 174.055937 
L 117.507732 174.055937 
L 117.700562 174.639968 
L 117.893391 174.639968 
L 118.27905 175.833861 
L 118.471879 175.833861 
L 118.857538 177.063939 
L 119.050367 178.332462 
L 119.243197 178.332462 
L 119.628855 179.641913 
L 119.821685 179.641913 
L 120.014514 180.312828 
L 120.207343 180.312828 
L 120.785832 182.394794 
L 121.36432 182.394794 
L 121.557149 183.11321 
L 121.942808 183.11321 
L 122.135637 183.844571 
L 122.328467 186.121211 
L 122.521296 186.121211 
L 122.714125 186.909381 
L 123.292613 186.909381 
L 123.485443 187.713158 
L 123.678272 187.713158 
L 124.063931 189.370101 
L 124.44959 189.370101 
L 124.642419 190.224647 
L 124.835248 190.224647 
L 125.028078 191.097572 
L 125.992225 191.097572 
L 126.185054 191.989683 
L 126.570713 191.989683 
L 126.763542 193.834976 
L 127.149201 193.834976 
L 127.34203 194.790066 
L 127.727689 194.790066 
L 127.920518 195.768172 
L 128.499006 195.768172 
L 128.691836 196.770431 
L 129.270324 196.770431 
L 129.463153 197.798067 
L 129.848812 197.798067 
L 130.041641 198.852398 
L 130.4273 198.852398 
L 130.62013 199.934847 
L 131.005788 199.934847 
L 131.198618 201.046956 
L 131.584276 201.046956 
L 131.777106 202.190396 
L 132.162765 202.190396 
L 132.355594 203.366984 
L 133.51257 203.366984 
L 133.7054 204.5787 
L 135.826523 204.5787 
L 136.019352 205.827704 
L 136.983499 205.827704 
L 137.176328 207.116366 
L 138.140475 207.116366 
L 138.333305 208.447287 
L 139.490281 208.447287 
L 139.68311 209.823332 
L 140.261598 209.823332 
L 140.454428 211.247669 
L 142.76838 211.247669 
L 142.96121 212.723812 
L 144.118186 212.723812 
L 144.311015 214.255671 
L 145.660821 214.255671 
L 145.85365 215.847618 
L 147.781944 215.847618 
L 147.974773 217.50456 
L 151.445702 217.50456 
L 151.638531 219.232031 
L 153.952484 219.232031 
L 154.145313 221.036303 
L 157.037754 221.036303 
L 157.230583 222.924525 
L 160.315853 222.924525 
L 160.508683 224.90489 
L 163.401123 224.90489 
L 163.593952 226.986857 
L 167.257711 226.986857 
L 167.45054 229.181415 
L 171.885616 229.181415 
L 172.078445 231.501444 
L 175.742203 231.501444 
L 175.935032 233.962163 
L 182.68406 233.962163 
L 182.87689 236.581746 
L 186.926307 236.581746 
L 187.119136 239.382128 
L 192.518359 239.382128 
L 192.711188 242.39013 
L 201.002851 242.39013 
L 201.19568 245.639019 
L 208.330367 245.639019 
L 208.523197 249.170762 
L 215.465054 249.170762 
L 215.657883 253.03935 
L 227.034816 253.03935 
L 227.227646 257.315874 
L 237.640432 257.315874 
L 237.833261 262.096622 
L 251.716976 262.096622 
L 251.909806 267.516588 
L 265.022203 267.516588 
L 265.215032 273.773478 
L 276.977624 273.773478 
L 277.170454 281.173809 
L 295.874903 281.173809 
L 296.067732 290.231082 
L 313.229546 290.231082 
L 313.422376 301.907937 
L 333.090972 301.907937 
L 333.283801 318.365541 
L 357.773132 318.365541 
L 357.965961 346.5 
L 459.008553 346.5 
L 459.008553 346.5 
" style="fill:none;opacity:0.4;stroke:#2c5ebf;stroke-linecap:round;stroke-width:2.0;"/>
   </g>
   <g id="line2d_12">
    <path clip-path="url(#pb6d9906163)" d="M 112.494168 346.5 
L 112.494168 39.6 
" style="fill:none;stroke:#2c5ebf;stroke-dasharray:6.000000,6.000000;stroke-dashoffset:0.0;stroke-width:2.0;"/>
   </g>
   <g id="line2d_13">
    <path clip-path="url(#pb6d9906163)" d="M 73.928294 112.114159 
L 74.121123 117.068603 
L 74.506782 120.175322 
L 74.699611 121.424327 
L 75.08527 125.071545 
L 75.470929 127.946335 
L 75.663758 127.946335 
L 75.856587 130.83992 
L 76.242246 132.890327 
L 76.627905 134.608656 
L 77.013564 135.04985 
L 77.399222 136.864205 
L 77.592052 136.864205 
L 77.784881 137.09681 
L 78.17054 137.802731 
L 78.556199 137.802731 
L 78.941857 138.521147 
L 79.134687 138.521147 
L 79.713175 139.747508 
L 80.098834 140.248618 
L 80.291663 140.755993 
L 80.484492 142.317318 
L 80.677322 142.583479 
L 81.062981 143.941112 
L 81.641469 145.345732 
L 81.834298 145.345732 
L 82.027127 145.632584 
L 82.219957 145.632584 
L 83.376933 147.397621 
L 83.569762 147.397621 
L 83.762592 148.003444 
L 83.955421 148.003444 
L 84.148251 148.309781 
L 84.533909 150.847448 
L 85.112397 152.518031 
L 85.305227 152.86056 
L 85.498056 152.86056 
L 85.690886 153.206004 
L 86.076544 153.206004 
L 86.269374 154.617953 
L 86.655032 155.342784 
L 86.847862 156.832472 
L 87.233521 156.832472 
L 87.42635 157.986752 
L 87.619179 158.378924 
L 87.812009 158.378924 
L 88.004838 158.774922 
L 88.197667 158.774922 
L 88.390497 159.174821 
L 88.583326 159.174821 
L 88.776156 159.578699 
L 88.968985 160.398716 
L 89.161814 160.398716 
L 89.354644 161.660666 
L 90.125961 161.660666 
L 90.51162 162.524303 
L 91.090108 162.524303 
L 91.475767 164.767385 
L 91.861425 166.175252 
L 92.054255 166.175252 
L 92.247084 166.655606 
L 92.439914 168.131749 
L 92.632743 168.635972 
L 93.018402 170.18735 
L 93.211231 170.717938 
L 93.40406 170.717938 
L 93.789719 171.800388 
L 93.982549 171.800388 
L 94.368207 173.480191 
L 94.561037 173.480191 
L 94.753866 174.055937 
L 94.946695 174.055937 
L 95.139525 174.639968 
L 95.525184 174.639968 
L 95.718013 175.833861 
L 95.910842 175.833861 
L 96.103672 176.44424 
L 96.296501 176.44424 
L 96.48933 177.063939 
L 96.68216 177.063939 
L 96.874989 177.693245 
L 97.067819 177.693245 
L 97.646307 179.641913 
L 98.031965 179.641913 
L 98.610454 181.688873 
L 98.803283 181.688873 
L 98.996112 182.394794 
L 99.5746 182.394794 
L 99.76743 183.11321 
L 100.345918 183.11321 
L 100.538747 183.844571 
L 100.924406 183.844571 
L 101.117235 184.589353 
L 101.310065 184.589353 
L 101.502894 185.348056 
L 101.695724 185.348056 
L 101.888553 186.121211 
L 102.65987 186.121211 
L 102.8527 187.713158 
L 103.045529 187.713158 
L 103.238359 188.533175 
L 103.431188 188.533175 
L 103.816847 190.224647 
L 104.009676 190.224647 
L 104.202505 191.097572 
L 104.395335 191.097572 
L 104.588164 191.989683 
L 104.780994 191.989683 
L 104.973823 192.901844 
L 105.552311 192.901844 
L 105.74514 193.834976 
L 106.130799 193.834976 
L 106.516458 195.768172 
L 107.094946 195.768172 
L 107.287775 196.770431 
L 107.480605 196.770431 
L 107.673434 197.798067 
L 107.866263 197.798067 
L 108.059093 198.852398 
L 108.251922 198.852398 
L 108.444752 199.934847 
L 108.637581 199.934847 
L 108.83041 201.046956 
L 109.216069 201.046956 
L 109.408898 202.190396 
L 109.601728 202.190396 
L 109.794557 203.366984 
L 110.951533 203.366984 
L 111.144363 204.5787 
L 111.530022 204.5787 
L 111.722851 205.827704 
L 111.91568 205.827704 
L 112.10851 207.116366 
L 112.494168 207.116366 
L 112.879827 209.823332 
L 113.265486 209.823332 
L 113.458315 211.247669 
L 113.843974 211.247669 
L 114.036803 212.723812 
L 114.615292 212.723812 
L 115.00095 215.847618 
L 115.386609 215.847618 
L 115.579438 217.50456 
L 116.350756 217.50456 
L 116.543585 219.232031 
L 117.314903 219.232031 
L 117.507732 221.036303 
L 118.08622 221.036303 
L 118.27905 222.924525 
L 118.471879 222.924525 
L 118.664708 224.90489 
L 119.050367 224.90489 
L 119.243197 226.986857 
L 119.436026 226.986857 
L 119.628855 229.181415 
L 120.207343 229.181415 
L 120.400173 231.501444 
L 121.557149 231.501444 
L 121.749978 233.962163 
L 121.942808 233.962163 
L 122.135637 236.581746 
L 123.485443 236.581746 
L 123.678272 239.382128 
L 125.220907 239.382128 
L 125.413737 242.39013 
L 128.113348 242.39013 
L 128.306177 245.639019 
L 132.355594 245.639019 
L 132.548423 249.170762 
L 135.633693 249.170762 
L 135.826523 253.03935 
L 139.87594 253.03935 
L 140.068769 257.315874 
L 144.311015 257.315874 
L 144.503844 262.096622 
L 153.759654 262.096622 
L 153.952484 267.516588 
L 162.822635 267.516588 
L 163.015464 273.773478 
L 175.163715 273.773478 
L 175.356544 281.173809 
L 191.554212 281.173809 
L 191.747041 290.231082 
L 217.200518 290.231082 
L 217.393348 301.907937 
L 249.017365 301.907937 
L 249.210194 318.365541 
L 288.933045 318.365541 
L 289.125875 346.5 
L 364.52216 346.5 
L 364.52216 346.5 
" style="fill:none;opacity:0.4;stroke:#ff1313;stroke-linecap:round;stroke-width:2.0;"/>
   </g>
   <g id="line2d_14">
    <path clip-path="url(#pb6d9906163)" d="M 115.19378 346.5 
L 115.19378 39.6 
" style="fill:none;stroke:#ff1313;stroke-dasharray:6.000000,6.000000;stroke-dashoffset:0.0;stroke-width:2.0;"/>
   </g>
   <g id="line2d_15">
    <path clip-path="url(#pb6d9906163)" d="M 73.928294 59.710677 
L 74.121123 61.013877 
L 74.313952 69.107321 
L 74.506782 69.282465 
L 74.699611 69.901488 
L 74.892441 72.714602 
L 75.278099 73.877148 
L 75.470929 75.943599 
L 75.663758 76.7267 
L 75.856587 76.938103 
L 76.049417 80.595287 
L 76.627905 83.416383 
L 76.820734 83.791058 
L 77.013564 84.423305 
L 77.399222 89.219986 
L 77.592052 89.580143 
L 77.784881 89.65256 
L 78.17054 90.978649 
L 78.363369 91.053606 
L 78.556199 92.582579 
L 78.749028 92.895409 
L 78.941857 93.768334 
L 79.327516 93.768334 
L 79.520346 94.009699 
L 79.713175 94.009699 
L 79.906004 94.252508 
L 80.098834 95.155445 
L 80.291663 95.405227 
L 81.062981 98.709833 
L 81.25581 98.891441 
L 81.448639 98.891441 
L 81.641469 99.257114 
L 82.027127 100.468829 
L 83.184104 101.040521 
L 83.376933 101.52316 
L 83.569762 101.52316 
L 83.955421 102.406641 
L 84.148251 102.605609 
L 84.34108 104.546103 
L 84.919568 105.178679 
L 85.112397 105.178679 
L 85.498056 106.584046 
L 85.690886 106.694194 
L 85.883715 107.586306 
L 86.076544 107.925968 
L 86.462203 109.079155 
L 86.847862 109.549763 
L 87.040691 109.549763 
L 87.233521 110.266066 
L 87.42635 110.50767 
L 87.619179 110.995237 
L 87.812009 110.995237 
L 88.197667 112.24041 
L 88.390497 112.24041 
L 88.776156 112.621534 
L 89.161814 113.786861 
L 90.125961 114.986637 
L 90.31879 116.502887 
L 90.51162 116.502887 
L 90.704449 116.926433 
L 90.897279 117.068603 
L 91.090108 117.498125 
L 91.475767 117.787019 
L 91.668596 118.077984 
L 91.861425 118.666247 
L 92.247084 118.963607 
L 92.439914 118.963607 
L 92.632743 119.263161 
L 93.211231 121.108454 
L 93.40406 121.266083 
L 93.59689 121.58319 
L 93.789719 122.386967 
L 93.982549 124.043909 
L 94.368207 124.898456 
L 94.946695 128.698013 
L 95.139525 128.698013 
L 95.332354 128.888128 
L 95.525184 128.888128 
L 95.718013 129.27105 
L 95.910842 129.27105 
L 96.68216 130.640462 
L 96.874989 130.83992 
L 97.067819 131.647696 
L 97.260648 131.647696 
L 97.646307 132.680562 
L 98.610454 133.740399 
L 98.803283 134.389844 
L 99.188942 134.828653 
L 99.381771 134.828653 
L 99.5746 135.720765 
L 99.76743 135.946891 
L 99.960259 135.946891 
L 100.345918 136.402957 
L 100.538747 136.402957 
L 101.117235 137.566057 
L 101.310065 137.566057 
L 101.502894 138.521147 
L 101.695724 138.521147 
L 101.888553 138.763473 
L 103.045529 141.790175 
L 103.238359 141.790175 
L 103.431188 142.052891 
L 104.588164 145.060892 
L 104.780994 145.060892 
L 104.973823 145.345732 
L 105.166652 145.345732 
L 105.359482 146.212443 
L 105.552311 146.505509 
L 106.130799 146.505509 
L 106.516458 147.397621 
L 106.709287 147.699402 
L 106.902117 147.699402 
L 107.094946 150.521426 
L 107.287775 150.847448 
L 107.673434 152.86056 
L 107.866263 152.86056 
L 108.059093 153.206004 
L 108.444752 153.206004 
L 109.216069 155.710112 
L 109.794557 156.832472 
L 109.987387 157.986752 
L 110.373045 157.986752 
L 110.565875 158.378924 
L 110.951533 158.378924 
L 111.144363 159.174821 
L 111.337192 161.660666 
L 111.530022 162.090188 
L 111.722851 162.090188 
L 111.91568 162.524303 
L 112.10851 163.855224 
L 112.301339 164.308742 
L 112.494168 164.308742 
L 112.686998 165.231269 
L 112.879827 165.231269 
L 113.072657 166.655606 
L 113.265486 166.655606 
L 113.651145 167.633713 
L 114.036803 167.633713 
L 114.229633 168.131749 
L 114.422462 168.131749 
L 114.615292 169.146538 
L 115.19378 169.146538 
L 115.386609 169.663608 
L 115.772268 171.255555 
L 115.965097 171.255555 
L 116.157927 171.800388 
L 116.543585 173.480191 
L 117.314903 173.480191 
L 117.507732 174.055937 
L 117.700562 174.055937 
L 117.893391 174.639968 
L 118.27905 174.639968 
L 118.471879 175.232525 
L 118.664708 175.232525 
L 119.243197 178.332462 
L 119.436026 178.332462 
L 119.628855 178.981907 
L 119.821685 178.981907 
L 120.207343 180.312828 
L 120.400173 180.312828 
L 120.978661 182.394794 
L 121.749978 182.394794 
L 122.135637 183.844571 
L 122.328467 183.844571 
L 122.906955 186.121211 
L 123.099784 186.121211 
L 123.292613 186.909381 
L 123.678272 186.909381 
L 123.871102 187.713158 
L 124.25676 187.713158 
L 124.44959 188.533175 
L 125.220907 188.533175 
L 125.413737 189.370101 
L 125.799395 189.370101 
L 125.992225 190.224647 
L 126.185054 190.224647 
L 126.377883 191.097572 
L 127.727689 191.097572 
L 127.920518 191.989683 
L 128.499006 191.989683 
L 128.691836 192.901844 
L 129.270324 192.901844 
L 129.463153 193.834976 
L 129.655983 193.834976 
L 129.848812 194.790066 
L 130.812959 194.790066 
L 131.005788 195.768172 
L 131.777106 195.768172 
L 131.969935 196.770431 
L 133.898229 196.770431 
L 134.091058 197.798067 
L 134.669546 197.798067 
L 134.862376 198.852398 
L 135.440864 198.852398 
L 135.633693 199.934847 
L 136.79067 199.934847 
L 136.983499 201.046956 
L 137.561987 201.046956 
L 137.754816 202.190396 
L 138.911793 202.190396 
L 139.104622 203.366984 
L 139.87594 203.366984 
L 140.068769 204.5787 
L 141.997063 204.5787 
L 142.189892 205.827704 
L 142.96121 205.827704 
L 143.154039 207.116366 
L 146.046479 207.116366 
L 146.239309 208.447287 
L 147.974773 208.447287 
L 148.167603 209.823332 
L 150.095896 209.823332 
L 150.288726 211.247669 
L 151.252873 211.247669 
L 151.445702 212.723812 
L 152.795508 212.723812 
L 152.988337 214.255671 
L 155.687948 214.255671 
L 155.880778 215.847618 
L 158.387559 215.847618 
L 158.580389 217.50456 
L 162.629806 217.50456 
L 162.822635 219.232031 
L 165.136587 219.232031 
L 165.329417 221.036303 
L 170.342981 221.036303 
L 170.53581 222.924525 
L 174.006739 222.924525 
L 174.199568 224.90489 
L 179.984449 224.90489 
L 180.177279 226.986857 
L 183.648207 226.986857 
L 183.841037 229.181415 
L 190.011577 229.181415 
L 190.204406 231.501444 
L 194.446652 231.501444 
L 194.639482 233.962163 
L 200.424363 233.962163 
L 200.617192 236.581746 
L 206.209244 236.581746 
L 206.402073 239.382128 
L 212.379784 239.382128 
L 212.572613 242.39013 
L 221.057106 242.39013 
L 221.249935 245.639019 
L 228.577451 245.639019 
L 228.770281 249.170762 
L 236.676285 249.170762 
L 236.869114 253.03935 
L 245.932095 253.03935 
L 246.124924 257.315874 
L 255.959222 257.315874 
L 256.152052 262.096622 
L 267.528985 262.096622 
L 267.721814 267.516588 
L 279.291577 267.516588 
L 279.484406 273.773478 
L 293.946609 273.773478 
L 294.139438 281.173809 
L 310.722765 281.173809 
L 310.915594 290.231082 
L 323.449503 290.231082 
L 323.642333 301.907937 
L 340.611317 301.907937 
L 340.804147 318.365541 
L 364.136501 318.365541 
L 364.32933 346.5 
L 472.12095 346.5 
L 472.12095 346.5 
" style="fill:none;opacity:0.4;stroke:#f7b02a;stroke-linecap:round;stroke-width:2.0;"/>
   </g>
   <g id="line2d_16">
    <path clip-path="url(#pb6d9906163)" d="M 113.843974 346.5 
L 113.843974 39.6 
" style="fill:none;stroke:#f7b02a;stroke-dasharray:6.000000,6.000000;stroke-dashoffset:0.0;stroke-width:2.0;"/>
   </g>
   <g id="line2d_17">
    <path clip-path="url(#pb6d9906163)" d="M 73.928294 60.4805 
L 74.506782 69.635035 
L 74.699611 72.098522 
L 74.892441 82.191873 
L 75.08527 86.181262 
L 75.663758 86.852177 
L 75.856587 86.919883 
L 76.049417 88.934144 
L 76.435076 90.163125 
L 76.627905 90.236591 
L 77.013564 90.978649 
L 77.206393 90.978649 
L 77.592052 91.506281 
L 77.784881 93.052733 
L 78.17054 93.210669 
L 78.363369 93.608218 
L 78.556199 94.415191 
L 78.749028 94.742527 
L 78.941857 94.824776 
L 79.134687 95.48883 
L 79.327516 95.572606 
L 79.906004 97.902502 
L 80.098834 100.468829 
L 80.291663 100.468829 
L 80.677322 101.52316 
L 81.25581 102.110006 
L 81.641469 103.107339 
L 82.219957 103.820347 
L 82.605616 104.966723 
L 83.184104 105.929364 
L 83.569762 105.929364 
L 83.762592 106.694194 
L 84.148251 107.026442 
L 84.533909 108.039824 
L 85.112397 108.498467 
L 85.883715 109.668272 
L 86.076544 109.787129 
L 86.269374 110.386688 
L 86.462203 111.737747 
L 86.655032 111.737747 
L 87.233521 112.749375 
L 87.42635 112.749375 
L 87.619179 114.05043 
L 88.583326 115.394574 
L 88.776156 115.944948 
L 88.968985 116.083715 
L 89.547473 116.083715 
L 89.740302 116.643579 
L 89.933132 118.666247 
L 90.125961 118.666247 
L 90.51162 118.963607 
L 90.704449 118.963607 
L 90.897279 119.113108 
L 91.090108 119.564943 
L 91.282937 122.224933 
L 91.475767 122.224933 
L 91.668596 122.386967 
L 91.861425 122.876987 
L 92.054255 123.04165 
L 92.439914 124.213385 
L 92.632743 124.213385 
L 92.825572 124.898456 
L 93.018402 124.898456 
L 93.59689 125.419955 
L 93.982549 125.948241 
L 94.368207 126.304291 
L 94.561037 127.208325 
L 94.753866 127.208325 
L 95.139525 127.760571 
L 95.332354 127.760571 
L 95.525184 127.946335 
L 95.718013 127.946335 
L 96.103672 129.079138 
L 96.48933 129.657619 
L 96.68216 129.852293 
L 96.874989 129.852293 
L 97.260648 130.83992 
L 97.646307 131.241799 
L 97.839136 131.852178 
L 98.031965 131.852178 
L 98.224795 132.057694 
L 98.803283 133.313138 
L 98.996112 133.313138 
L 99.381771 134.389844 
L 99.5746 134.389844 
L 99.76743 134.828653 
L 100.153089 134.828653 
L 100.538747 135.272258 
L 100.731577 135.272258 
L 100.924406 135.946891 
L 101.117235 136.174283 
L 101.502894 136.864205 
L 101.695724 137.09681 
L 101.888553 137.09681 
L 102.274212 137.566057 
L 102.467041 138.040793 
L 102.65987 139.252508 
L 103.045529 139.99729 
L 103.238359 139.99729 
L 103.816847 140.755993 
L 104.009676 140.755993 
L 104.202505 141.790175 
L 104.395335 142.052891 
L 104.588164 142.851397 
L 104.780994 142.851397 
L 104.973823 143.941112 
L 105.359482 143.941112 
L 105.74514 144.497141 
L 105.93797 145.345732 
L 106.130799 145.345732 
L 106.709287 148.309781 
L 107.094946 148.309781 
L 107.287775 148.929479 
L 107.480605 148.929479 
L 107.673434 149.242913 
L 107.866263 149.242913 
L 108.83041 150.847448 
L 109.02324 150.847448 
L 109.408898 151.841525 
L 109.601728 152.178369 
L 109.794557 152.178369 
L 110.180216 152.86056 
L 110.373045 152.86056 
L 110.758704 153.554414 
L 111.337192 153.554414 
L 111.722851 154.260335 
L 111.91568 154.260335 
L 112.494168 156.080794 
L 112.879827 156.080794 
L 113.072657 156.454893 
L 113.265486 157.598334 
L 113.458315 157.986752 
L 113.651145 157.986752 
L 113.843974 159.174821 
L 114.036803 159.578699 
L 114.229633 159.578699 
L 114.422462 159.986637 
L 114.615292 161.660666 
L 115.00095 161.660666 
L 115.386609 164.308742 
L 115.579438 164.308742 
L 115.772268 164.767385 
L 116.350756 167.141713 
L 116.543585 167.141713 
L 116.929244 168.131749 
L 117.122073 168.131749 
L 117.507732 169.146538 
L 117.893391 170.717938 
L 118.08622 170.717938 
L 118.27905 171.255555 
L 118.471879 172.352634 
L 118.857538 172.352634 
L 119.050367 173.480191 
L 119.243197 173.480191 
L 119.628855 175.232525 
L 120.014514 176.44424 
L 120.207343 177.693245 
L 120.400173 177.693245 
L 120.593002 178.332462 
L 120.785832 178.332462 
L 121.17149 179.641913 
L 121.36432 179.641913 
L 121.557149 180.995019 
L 121.749978 180.995019 
L 122.135637 183.11321 
L 122.328467 183.11321 
L 122.521296 183.844571 
L 123.292613 183.844571 
L 123.485443 184.589353 
L 123.871102 184.589353 
L 124.063931 185.348056 
L 124.25676 185.348056 
L 124.835248 187.713158 
L 125.028078 187.713158 
L 125.413737 189.370101 
L 125.606566 189.370101 
L 126.185054 191.989683 
L 126.377883 191.989683 
L 126.570713 193.834976 
L 126.763542 193.834976 
L 127.34203 196.770431 
L 127.920518 196.770431 
L 128.499006 199.934847 
L 128.691836 199.934847 
L 129.077495 202.190396 
L 129.270324 202.190396 
L 129.463153 203.366984 
L 129.655983 203.366984 
L 129.848812 204.5787 
L 130.234471 208.447287 
L 130.4273 209.823332 
L 130.812959 209.823332 
L 131.198618 212.723812 
L 131.391447 212.723812 
L 131.584276 215.847618 
L 131.777106 215.847618 
L 131.969935 221.036303 
L 132.162765 221.036303 
L 132.355594 222.924525 
L 132.548423 222.924525 
L 132.741253 224.90489 
L 133.126911 224.90489 
L 133.898229 233.962163 
L 134.091058 236.581746 
L 134.476717 236.581746 
L 134.669546 239.382128 
L 134.862376 249.170762 
L 135.055205 249.170762 
L 135.440864 257.315874 
L 135.633693 257.315874 
L 136.405011 273.773478 
L 136.59784 273.773478 
L 136.79067 281.173809 
L 137.754816 281.173809 
L 137.947646 290.231082 
L 140.647257 290.231082 
L 140.840086 301.907937 
L 149.517408 301.907937 
L 149.710238 318.365541 
L 184.226695 318.365541 
L 184.419525 346.5 
L 333.862289 346.5 
L 333.862289 346.5 
" style="fill:none;opacity:0.4;stroke:#02b72a;stroke-linecap:round;stroke-width:2.0;"/>
   </g>
   <g id="line2d_18">
    <path clip-path="url(#pb6d9906163)" d="M 119.628855 346.5 
L 119.628855 39.6 
" style="fill:none;stroke:#02b72a;stroke-dasharray:6.000000,6.000000;stroke-dashoffset:0.0;stroke-width:2.0;"/>
   </g>
   <g id="line2d_19">
    <path clip-path="url(#pb6d9906163)" d="M 73.928294 49.390747 
L 74.121123 49.741706 
L 74.313952 51.373801 
L 74.699611 58.515277 
L 75.08527 70.169701 
L 75.278099 72.145582 
L 75.470929 72.239866 
L 75.856587 73.583375 
L 76.049417 73.63219 
L 76.820734 74.272182 
L 77.013564 74.371544 
L 77.206393 74.621019 
L 77.399222 75.48089 
L 77.592052 75.583259 
L 77.784881 76.832264 
L 77.977711 76.938103 
L 78.363369 77.364243 
L 78.556199 79.395511 
L 78.749028 80.134038 
L 79.520346 81.120535 
L 79.713175 83.728371 
L 80.291663 84.936291 
L 80.484492 85.000872 
L 81.062981 85.652402 
L 81.448639 87.879813 
L 81.641469 87.879813 
L 81.834298 88.6503 
L 82.219957 88.862997 
L 82.412786 89.797781 
L 82.605616 89.797781 
L 82.798445 90.016593 
L 82.991274 90.016593 
L 83.184104 90.163125 
L 83.376933 90.531788 
L 83.569762 90.531788 
L 83.762592 91.053606 
L 84.34108 93.289867 
L 84.533909 93.369221 
L 85.112397 94.009699 
L 85.305227 95.9941 
L 85.498056 96.334474 
L 86.076544 96.677728 
L 86.462203 97.023908 
L 86.847862 97.110917 
L 87.233521 98.349035 
L 87.812009 100.185975 
L 88.197667 101.040521 
L 88.583326 101.136591 
L 88.968985 101.815522 
L 89.161814 101.815522 
L 89.354644 103.208434 
L 89.933132 103.615349 
L 90.31879 104.337417 
L 90.704449 104.546103 
L 91.475767 106.037747 
L 91.861425 106.364643 
L 92.054255 106.915391 
L 92.247084 107.812431 
L 92.825572 108.498467 
L 93.40406 109.906334 
L 93.59689 109.906334 
L 93.789719 110.995237 
L 93.982549 110.995237 
L 94.175378 111.118049 
L 94.368207 111.862831 
L 94.561037 112.114159 
L 94.753866 112.114159 
L 95.139525 112.749375 
L 95.332354 113.39469 
L 95.718013 113.39469 
L 96.103672 114.582758 
L 96.68216 115.394574 
L 96.874989 115.394574 
L 97.067819 115.531469 
L 97.260648 116.362682 
L 97.646307 116.643579 
L 97.839136 116.926433 
L 98.031965 116.926433 
L 98.224795 117.211272 
L 98.417624 117.211272 
L 98.610454 117.498125 
L 98.803283 117.498125 
L 98.996112 118.077984 
L 99.381771 118.37105 
L 99.5746 118.963607 
L 99.76743 119.113108 
L 99.960259 119.113108 
L 100.153089 119.263161 
L 100.345918 120.175322 
L 100.538747 120.175322 
L 100.731577 121.742677 
L 101.310065 123.04165 
L 101.502894 123.04165 
L 101.695724 123.539686 
L 101.888553 123.707066 
L 102.081382 123.707066 
L 102.274212 123.875138 
L 102.467041 123.875138 
L 102.65987 125.071545 
L 102.8527 125.071545 
L 103.238359 125.419955 
L 103.431188 126.125876 
L 104.009676 126.663492 
L 104.202505 126.663492 
L 104.395335 127.575653 
L 104.588164 127.760571 
L 104.973823 128.888128 
L 105.166652 129.463874 
L 105.359482 129.657619 
L 105.74514 130.640462 
L 105.93797 130.640462 
L 106.130799 131.44424 
L 106.323629 131.44424 
L 106.709287 131.852178 
L 106.902117 132.680562 
L 107.287775 132.680562 
L 107.480605 132.890327 
L 107.673434 133.313138 
L 107.866263 133.313138 
L 108.059093 133.526206 
L 108.251922 133.526206 
L 109.02324 135.04985 
L 109.216069 135.272258 
L 109.408898 135.946891 
L 109.601728 135.946891 
L 110.565875 138.040793 
L 110.758704 138.040793 
L 110.951533 138.28026 
L 111.144363 139.252508 
L 111.530022 139.252508 
L 111.91568 139.99729 
L 112.10851 140.248618 
L 112.301339 140.248618 
L 112.494168 141.529149 
L 112.686998 141.790175 
L 112.879827 141.790175 
L 113.265486 142.583479 
L 113.458315 142.851397 
L 113.651145 142.851397 
L 113.843974 143.121096 
L 114.036803 144.218175 
L 114.229633 144.497141 
L 114.615292 146.212443 
L 114.808121 147.699402 
L 115.19378 147.699402 
L 115.386609 148.929479 
L 115.579438 149.242913 
L 115.772268 149.877136 
L 115.965097 149.877136 
L 116.157927 150.198003 
L 116.350756 151.176109 
L 116.543585 151.507453 
L 116.929244 152.518031 
L 117.122073 152.518031 
L 117.314903 153.206004 
L 117.507732 153.206004 
L 117.700562 154.260335 
L 117.893391 154.260335 
L 118.08622 155.710112 
L 118.471879 155.710112 
L 118.664708 156.454893 
L 118.857538 156.454893 
L 119.243197 157.213597 
L 119.436026 157.213597 
L 119.628855 158.378924 
L 120.400173 158.378924 
L 120.593002 159.986637 
L 120.978661 160.815022 
L 121.36432 160.815022 
L 122.135637 163.855224 
L 122.521296 163.855224 
L 122.714125 164.308742 
L 123.292613 166.655606 
L 123.678272 166.655606 
L 123.871102 167.141713 
L 124.063931 167.141713 
L 124.25676 169.663608 
L 124.44959 169.663608 
L 124.642419 170.18735 
L 124.835248 170.18735 
L 125.028078 170.717938 
L 125.413737 172.352634 
L 125.606566 172.352634 
L 125.799395 172.912497 
L 125.992225 174.639968 
L 126.185054 175.232525 
L 126.377883 175.232525 
L 126.763542 176.44424 
L 127.149201 178.981907 
L 127.34203 178.981907 
L 127.53486 180.312828 
L 127.920518 180.312828 
L 128.306177 182.394794 
L 128.884665 182.394794 
L 129.077495 184.589353 
L 129.270324 184.589353 
L 129.848812 186.909381 
L 130.041641 186.909381 
L 130.234471 187.713158 
L 131.005788 187.713158 
L 131.198618 189.370101 
L 131.584276 189.370101 
L 131.969935 192.901844 
L 132.355594 192.901844 
L 132.548423 194.790066 
L 133.126911 194.790066 
L 133.51257 196.770431 
L 133.7054 196.770431 
L 133.898229 197.798067 
L 134.283888 197.798067 
L 134.476717 198.852398 
L 134.669546 198.852398 
L 134.862376 199.934847 
L 135.055205 199.934847 
L 135.248035 201.046956 
L 135.633693 201.046956 
L 135.826523 202.190396 
L 136.79067 202.190396 
L 136.983499 203.366984 
L 138.333305 203.366984 
L 138.526134 204.5787 
L 139.490281 204.5787 
L 139.68311 205.827704 
L 140.840086 205.827704 
L 141.225745 208.447287 
L 142.189892 208.447287 
L 142.382721 209.823332 
L 143.346868 209.823332 
L 143.539698 211.247669 
L 145.467991 211.247669 
L 145.660821 212.723812 
L 146.817797 212.723812 
L 147.010626 214.255671 
L 148.360432 214.255671 
L 148.553261 215.847618 
L 150.481555 215.847618 
L 150.674384 217.50456 
L 153.759654 217.50456 
L 153.952484 219.232031 
L 156.266436 219.232031 
L 156.459266 221.036303 
L 159.544536 221.036303 
L 159.737365 222.924525 
L 162.822635 222.924525 
L 163.015464 224.90489 
L 164.558099 224.90489 
L 164.750929 226.986857 
L 168.414687 226.986857 
L 168.607516 229.181415 
L 172.656933 229.181415 
L 172.849762 231.501444 
L 178.056156 231.501444 
L 178.248985 233.962163 
L 182.491231 233.962163 
L 182.68406 236.581746 
L 190.397235 236.581746 
L 190.590065 239.382128 
L 199.653045 239.382128 
L 199.845875 242.39013 
L 206.980562 242.39013 
L 207.173391 245.639019 
L 213.151102 245.639019 
L 213.343931 249.170762 
L 222.406911 249.170762 
L 222.599741 253.03935 
L 232.626868 253.03935 
L 232.819698 257.315874 
L 246.124924 257.315874 
L 246.317754 262.096622 
L 259.237322 262.096622 
L 259.430151 267.516588 
L 275.04933 267.516588 
L 275.24216 273.773478 
L 293.946609 273.773478 
L 294.139438 281.173809 
L 315.35067 281.173809 
L 315.543499 290.231082 
L 335.404924 290.231082 
L 335.597754 301.907937 
L 363.558013 301.907937 
L 363.750842 318.365541 
L 403.088035 318.365541 
L 403.280864 346.5 
L 518.207171 346.5 
L 518.207171 346.5 
" style="fill:none;opacity:0.4;stroke:#009e9e;stroke-linecap:round;stroke-width:2.0;"/>
   </g>
   <g id="line2d_20">
    <path clip-path="url(#pb6d9906163)" d="M 118.471879 346.5 
L 118.471879 39.6 
" style="fill:none;stroke:#009e9e;stroke-dasharray:6.000000,6.000000;stroke-dashoffset:0.0;stroke-width:2.0;"/>
   </g>
   <g id="line2d_21">
    <path clip-path="url(#pb6d9906163)" d="M 73.928294 54.208472 
L 74.121123 57.028318 
L 74.313952 61.663322 
L 74.506782 61.809066 
L 74.699611 71.957667 
L 75.08527 78.614921 
L 75.278099 79.00334 
L 75.470929 79.734701 
L 75.663758 81.356178 
L 76.049417 82.191873 
L 76.242246 83.106775 
L 76.435076 84.614916 
L 76.627905 84.871812 
L 76.820734 88.0885 
L 77.013564 88.438713 
L 77.206393 89.435697 
L 77.399222 89.507856 
L 77.784881 91.354828 
L 78.17054 92.040863 
L 78.363369 92.040863 
L 78.556199 92.272142 
L 78.941857 94.742527 
L 79.520346 95.238535 
L 79.713175 95.656556 
L 80.098834 97.725255 
L 80.291663 97.991417 
L 80.484492 99.257114 
L 81.448639 101.426172 
L 81.834298 101.62038 
L 82.219957 102.605609 
L 82.412786 104.026385 
L 82.605616 104.026385 
L 82.798445 104.65085 
L 83.184104 104.861159 
L 83.569762 105.285073 
L 83.955421 105.713462 
L 84.148251 105.713462 
L 84.533909 106.584046 
L 84.919568 106.694194 
L 85.112397 107.137799 
L 85.690886 107.586306 
L 85.883715 107.812431 
L 86.076544 107.812431 
L 86.269374 109.431598 
L 86.847862 110.266066 
L 87.233521 110.266066 
L 87.42635 110.386688 
L 87.619179 110.750721 
L 87.812009 110.872795 
L 88.004838 111.364794 
L 88.390497 111.488732 
L 88.583326 112.24041 
L 89.161814 112.494094 
L 89.354644 112.494094 
L 89.740302 113.135331 
L 89.933132 113.135331 
L 90.125961 113.264803 
L 90.704449 114.986637 
L 90.897279 114.986637 
L 91.090108 115.806653 
L 91.282937 115.806653 
L 91.668596 116.502887 
L 91.861425 118.077984 
L 92.054255 118.51838 
L 92.247084 118.666247 
L 92.439914 118.963607 
L 92.632743 118.963607 
L 93.018402 119.716679 
L 93.211231 119.868985 
L 93.789719 119.868985 
L 93.982549 120.951435 
L 94.561037 122.063544 
L 94.946695 123.539686 
L 95.139525 123.539686 
L 95.332354 124.383572 
L 95.525184 124.554475 
L 95.718013 125.245376 
L 96.103672 125.595287 
L 96.296501 125.595287 
L 96.48933 126.304291 
L 96.68216 126.304291 
L 97.067819 127.208325 
L 97.260648 127.575653 
L 97.453477 128.508785 
L 97.839136 129.079138 
L 98.031965 129.079138 
L 98.224795 129.27105 
L 98.417624 129.27105 
L 98.610454 129.463874 
L 98.996112 130.83992 
L 99.188942 130.83992 
L 99.5746 131.852178 
L 99.76743 132.057694 
L 99.960259 132.057694 
L 100.153089 132.264257 
L 100.538747 133.313138 
L 100.731577 133.526206 
L 100.924406 134.172206 
L 101.117235 134.172206 
L 101.502894 134.828653 
L 101.695724 135.04985 
L 102.081382 137.330756 
L 102.467041 138.763473 
L 102.65987 139.007254 
L 102.8527 140.248618 
L 103.238359 141.012079 
L 103.624017 141.529149 
L 103.816847 142.317318 
L 104.202505 142.851397 
L 104.395335 143.392598 
L 104.780994 145.060892 
L 105.166652 145.060892 
L 105.74514 146.505509 
L 106.709287 148.003444 
L 106.902117 148.003444 
L 107.287775 148.618448 
L 107.480605 149.877136 
L 107.673434 150.198003 
L 107.866263 152.86056 
L 108.251922 153.554414 
L 108.637581 153.554414 
L 108.83041 153.90584 
L 109.216069 153.90584 
L 109.601728 154.617953 
L 109.987387 158.378924 
L 110.373045 158.378924 
L 110.565875 159.986637 
L 110.758704 159.986637 
L 111.144363 162.090188 
L 111.337192 162.524303 
L 111.722851 164.767385 
L 111.91568 166.175252 
L 112.10851 168.635972 
L 112.686998 170.18735 
L 112.879827 170.18735 
L 113.265486 171.255555 
L 113.458315 172.352634 
L 113.651145 172.352634 
L 114.229633 174.055937 
L 114.422462 175.833861 
L 114.615292 176.44424 
L 114.808121 176.44424 
L 115.00095 177.693245 
L 115.386609 177.693245 
L 115.579438 178.981907 
L 115.772268 178.981907 
L 116.157927 182.394794 
L 116.543585 184.589353 
L 116.736415 185.348056 
L 117.122073 185.348056 
L 117.314903 186.121211 
L 117.893391 190.224647 
L 118.27905 190.224647 
L 118.664708 191.989683 
L 118.857538 191.989683 
L 119.436026 194.790066 
L 119.628855 196.770431 
L 119.821685 196.770431 
L 120.014514 197.798067 
L 120.207343 197.798067 
L 120.400173 198.852398 
L 120.978661 198.852398 
L 121.17149 199.934847 
L 121.36432 199.934847 
L 121.557149 202.190396 
L 121.749978 202.190396 
L 121.942808 204.5787 
L 122.714125 204.5787 
L 122.906955 205.827704 
L 123.292613 205.827704 
L 123.485443 207.116366 
L 123.678272 207.116366 
L 123.871102 208.447287 
L 124.642419 208.447287 
L 125.028078 211.247669 
L 125.413737 211.247669 
L 125.606566 212.723812 
L 125.992225 212.723812 
L 126.185054 214.255671 
L 127.149201 214.255671 
L 127.34203 215.847618 
L 128.499006 215.847618 
L 128.691836 217.50456 
L 129.270324 217.50456 
L 129.463153 219.232031 
L 130.041641 219.232031 
L 130.234471 221.036303 
L 131.969935 221.036303 
L 132.162765 222.924525 
L 133.7054 222.924525 
L 133.898229 224.90489 
L 135.633693 224.90489 
L 135.826523 226.986857 
L 137.947646 226.986857 
L 138.140475 229.181415 
L 140.454428 229.181415 
L 140.647257 231.501444 
L 143.154039 231.501444 
L 143.346868 233.962163 
L 146.239309 233.962163 
L 146.432138 236.581746 
L 148.93892 236.581746 
L 149.131749 239.382128 
L 153.181166 239.382128 
L 153.373996 242.39013 
L 160.315853 242.39013 
L 160.508683 245.639019 
L 167.257711 245.639019 
L 167.45054 249.170762 
L 173.428251 249.170762 
L 173.62108 253.03935 
L 181.527084 253.03935 
L 181.719914 257.315874 
L 191.93987 257.315874 
L 192.1327 262.096622 
L 202.545486 262.096622 
L 202.738315 267.516588 
L 216.236371 267.516588 
L 216.429201 273.773478 
L 232.24121 273.773478 
L 232.434039 281.173809 
L 247.667559 281.173809 
L 247.860389 290.231082 
L 267.914644 290.231082 
L 268.107473 301.907937 
L 288.354557 301.907937 
L 288.547387 318.365541 
L 316.121987 318.365541 
L 316.314816 346.5 
L 417.357408 346.5 
L 417.357408 346.5 
" style="fill:none;opacity:0.4;stroke:#1d1aa9;stroke-linecap:round;stroke-width:2.0;"/>
   </g>
   <g id="line2d_22">
    <path clip-path="url(#pb6d9906163)" d="M 117.314903 346.5 
L 117.314903 39.6 
" style="fill:none;stroke:#1d1aa9;stroke-dasharray:6.000000,6.000000;stroke-dashoffset:0.0;stroke-width:2.0;"/>
   </g>
   <g id="patch_3">
    <path d="M 72 39.6 
L 518.4 39.6 
" style="fill:none;stroke:#262626;stroke-linecap:square;stroke-linejoin:miter;stroke-width:1.25;"/>
   </g>
   <g id="patch_4">
    <path d="M 518.4 346.5 
L 518.4 39.6 
" style="fill:none;stroke:#262626;stroke-linecap:square;stroke-linejoin:miter;stroke-width:1.25;"/>
   </g>
   <g id="patch_5">
    <path d="M 72 346.5 
L 518.4 346.5 
" style="fill:none;stroke:#262626;stroke-linecap:square;stroke-linejoin:miter;stroke-width:1.25;"/>
   </g>
   <g id="patch_6">
    <path d="M 72 346.5 
L 72 39.6 
" style="fill:none;stroke:#262626;stroke-linecap:square;stroke-linejoin:miter;stroke-width:1.25;"/>
   </g>
   <g id="text_12">
    <!-- B6 14wks BCG Lung -->
    <defs>
     <path d="M 16.15625 0 
L 0.296875 51.859375 
L 9.375 51.859375 
L 17.625 21.921875 
L 20.703125 10.796875 
Q 20.90625 11.625 23.390625 21.484375 
L 31.640625 51.859375 
L 40.671875 51.859375 
L 48.4375 21.78125 
L 51.03125 11.859375 
L 54 21.875 
L 62.890625 51.859375 
L 71.4375 51.859375 
L 55.21875 0 
L 46.09375 0 
L 37.84375 31.0625 
L 35.84375 39.890625 
L 25.34375 0 
z
" id="ArialMT-77"/>
     <path d="M 58.796875 25.09375 
L 68.265625 22.703125 
Q 65.28125 11.03125 57.546875 4.90625 
Q 49.8125 -1.21875 38.625 -1.21875 
Q 27.046875 -1.21875 19.796875 3.484375 
Q 12.546875 8.203125 8.765625 17.140625 
Q 4.984375 26.078125 4.984375 36.328125 
Q 4.984375 47.515625 9.25 55.828125 
Q 13.53125 64.15625 21.40625 68.46875 
Q 29.296875 72.796875 38.765625 72.796875 
Q 49.515625 72.796875 56.828125 67.328125 
Q 64.15625 61.859375 67.046875 51.953125 
L 57.71875 49.75 
Q 55.21875 57.5625 50.484375 61.125 
Q 45.75 64.703125 38.578125 64.703125 
Q 30.328125 64.703125 24.78125 60.734375 
Q 19.234375 56.78125 16.984375 50.109375 
Q 14.75 43.453125 14.75 36.375 
Q 14.75 27.25 17.40625 20.4375 
Q 20.0625 13.625 25.671875 10.25 
Q 31.296875 6.890625 37.84375 6.890625 
Q 45.796875 6.890625 51.3125 11.46875 
Q 56.84375 16.0625 58.796875 25.09375 
" id="ArialMT-43"/>
     <path d="M 7.328125 0 
L 7.328125 71.578125 
L 34.1875 71.578125 
Q 42.390625 71.578125 47.34375 69.40625 
Q 52.296875 67.234375 55.09375 62.71875 
Q 57.90625 58.203125 57.90625 53.265625 
Q 57.90625 48.6875 55.421875 44.625 
Q 52.9375 40.578125 47.90625 38.09375 
Q 54.390625 36.1875 57.875 31.59375 
Q 61.375 27 61.375 20.75 
Q 61.375 15.71875 59.25 11.390625 
Q 57.125 7.078125 54 4.734375 
Q 50.875 2.390625 46.15625 1.1875 
Q 41.453125 0 34.625 0 
z
M 16.796875 41.5 
L 32.28125 41.5 
Q 38.578125 41.5 41.3125 42.328125 
Q 44.921875 43.40625 46.75 45.890625 
Q 48.578125 48.390625 48.578125 52.15625 
Q 48.578125 55.71875 46.875 58.421875 
Q 45.171875 61.140625 41.984375 62.140625 
Q 38.8125 63.140625 31.109375 63.140625 
L 16.796875 63.140625 
z
M 16.796875 8.453125 
L 34.625 8.453125 
Q 39.203125 8.453125 41.0625 8.796875 
Q 44.34375 9.375 46.53125 10.734375 
Q 48.734375 12.109375 50.140625 14.71875 
Q 51.5625 17.328125 51.5625 20.75 
Q 51.5625 24.75 49.515625 27.703125 
Q 47.46875 30.671875 43.828125 31.859375 
Q 40.1875 33.0625 33.34375 33.0625 
L 16.796875 33.0625 
z
" id="ArialMT-42"/>
     <path d="M 41.21875 28.078125 
L 41.21875 36.46875 
L 71.53125 36.53125 
L 71.53125 9.96875 
Q 64.546875 4.390625 57.125 1.578125 
Q 49.703125 -1.21875 41.890625 -1.21875 
Q 31.34375 -1.21875 22.71875 3.296875 
Q 14.109375 7.8125 9.71875 16.359375 
Q 5.328125 24.90625 5.328125 35.453125 
Q 5.328125 45.90625 9.6875 54.953125 
Q 14.0625 64.015625 22.265625 68.40625 
Q 30.46875 72.796875 41.15625 72.796875 
Q 48.921875 72.796875 55.1875 70.28125 
Q 61.46875 67.78125 65.03125 63.28125 
Q 68.609375 58.796875 70.453125 51.5625 
L 61.921875 49.21875 
Q 60.296875 54.6875 57.90625 57.8125 
Q 55.515625 60.9375 51.0625 62.8125 
Q 46.625 64.703125 41.21875 64.703125 
Q 34.71875 64.703125 29.984375 62.71875 
Q 25.25 60.75 22.34375 57.515625 
Q 19.4375 54.296875 17.828125 50.4375 
Q 15.09375 43.796875 15.09375 36.03125 
Q 15.09375 26.46875 18.390625 20.015625 
Q 21.6875 13.578125 27.984375 10.453125 
Q 34.28125 7.328125 41.359375 7.328125 
Q 47.515625 7.328125 53.375 9.6875 
Q 59.234375 12.0625 62.25 14.75 
L 62.25 28.078125 
z
" id="ArialMT-47"/>
     <path d="M 7.328125 0 
L 7.328125 71.578125 
L 16.796875 71.578125 
L 16.796875 8.453125 
L 52.046875 8.453125 
L 52.046875 0 
z
" id="ArialMT-4c"/>
     <path d="M 32.328125 0 
L 32.328125 17.140625 
L 1.265625 17.140625 
L 1.265625 25.203125 
L 33.9375 71.578125 
L 41.109375 71.578125 
L 41.109375 25.203125 
L 50.78125 25.203125 
L 50.78125 17.140625 
L 41.109375 17.140625 
L 41.109375 0 
z
M 32.328125 25.203125 
L 32.328125 57.46875 
L 9.90625 25.203125 
z
" id="ArialMT-34"/>
     <path d="M 49.75 54.046875 
L 41.015625 53.375 
Q 39.84375 58.546875 37.703125 60.890625 
Q 34.125 64.65625 28.90625 64.65625 
Q 24.703125 64.65625 21.53125 62.3125 
Q 17.390625 59.28125 14.984375 53.46875 
Q 12.59375 47.65625 12.5 36.921875 
Q 15.671875 41.75 20.265625 44.09375 
Q 24.859375 46.4375 29.890625 46.4375 
Q 38.671875 46.4375 44.84375 39.96875 
Q 51.03125 33.5 51.03125 23.25 
Q 51.03125 16.5 48.125 10.71875 
Q 45.21875 4.9375 40.140625 1.859375 
Q 35.0625 -1.21875 28.609375 -1.21875 
Q 17.625 -1.21875 10.6875 6.859375 
Q 3.765625 14.9375 3.765625 33.5 
Q 3.765625 54.25 11.421875 63.671875 
Q 18.109375 71.875 29.4375 71.875 
Q 37.890625 71.875 43.28125 67.140625 
Q 48.6875 62.40625 49.75 54.046875 
M 13.875 23.1875 
Q 13.875 18.65625 15.796875 14.5 
Q 17.71875 10.359375 21.1875 8.171875 
Q 24.65625 6 28.46875 6 
Q 34.03125 6 38.03125 10.484375 
Q 42.046875 14.984375 42.046875 22.703125 
Q 42.046875 30.125 38.078125 34.390625 
Q 34.125 38.671875 28.125 38.671875 
Q 22.171875 38.671875 18.015625 34.390625 
Q 13.875 30.125 13.875 23.1875 
" id="ArialMT-36"/>
    </defs>
    <g style="fill:#262626;" transform="translate(239.5059375 34.6)scale(0.12 -0.12)">
     <use xlink:href="#ArialMT-42"/>
     <use x="66.69921875" xlink:href="#ArialMT-36"/>
     <use x="122.314453125" xlink:href="#ArialMT-20"/>
     <use x="150.09765625" xlink:href="#ArialMT-31"/>
     <use x="205.712890625" xlink:href="#ArialMT-34"/>
     <use x="261.328125" xlink:href="#ArialMT-77"/>
     <use x="333.544921875" xlink:href="#ArialMT-6b"/>
     <use x="383.544921875" xlink:href="#ArialMT-73"/>
     <use x="433.544921875" xlink:href="#ArialMT-20"/>
     <use x="461.328125" xlink:href="#ArialMT-42"/>
     <use x="528.02734375" xlink:href="#ArialMT-43"/>
     <use x="600.244140625" xlink:href="#ArialMT-47"/>
     <use x="678.02734375" xlink:href="#ArialMT-20"/>
     <use x="705.810546875" xlink:href="#ArialMT-4c"/>
     <use x="761.42578125" xlink:href="#ArialMT-75"/>
     <use x="817.041015625" xlink:href="#ArialMT-6e"/>
     <use x="872.65625" xlink:href="#ArialMT-67"/>
    </g>
   </g>
   <g id="legend_1">
    <g id="line2d_23">
     <path d="M 390.235937 52.257812 
L 410.235937 52.257812 
" style="fill:none;stroke:#808080;stroke-linecap:round;stroke-width:3.0;"/>
    </g>
    <g id="line2d_24"/>
    <g id="text_13">
     <!-- mean threshold: 219 -->
     <defs>
      <path d="M 25.78125 7.859375 
L 27.046875 0.09375 
Q 23.34375 -0.6875 20.40625 -0.6875 
Q 15.625 -0.6875 12.984375 0.828125 
Q 10.359375 2.34375 9.28125 4.8125 
Q 8.203125 7.28125 8.203125 15.1875 
L 8.203125 45.015625 
L 1.765625 45.015625 
L 1.765625 51.859375 
L 8.203125 51.859375 
L 8.203125 64.703125 
L 16.9375 69.96875 
L 16.9375 51.859375 
L 25.78125 51.859375 
L 25.78125 45.015625 
L 16.9375 45.015625 
L 16.9375 14.703125 
Q 16.9375 10.9375 17.40625 9.859375 
Q 17.875 8.796875 18.921875 8.15625 
Q 19.96875 7.515625 21.921875 7.515625 
Q 23.390625 7.515625 25.78125 7.859375 
" id="ArialMT-74"/>
      <path d="M 9.03125 41.84375 
L 9.03125 51.859375 
L 19.046875 51.859375 
L 19.046875 41.84375 
z
M 9.03125 0 
L 9.03125 10.015625 
L 19.046875 10.015625 
L 19.046875 0 
z
" id="ArialMT-3a"/>
      <path d="M 6.59375 0 
L 6.59375 71.578125 
L 15.375 71.578125 
L 15.375 45.90625 
Q 21.53125 53.03125 30.90625 53.03125 
Q 36.671875 53.03125 40.921875 50.75 
Q 45.171875 48.484375 47 44.484375 
Q 48.828125 40.484375 48.828125 32.859375 
L 48.828125 0 
L 40.046875 0 
L 40.046875 32.859375 
Q 40.046875 39.453125 37.1875 42.453125 
Q 34.328125 45.453125 29.109375 45.453125 
Q 25.203125 45.453125 21.75 43.421875 
Q 18.3125 41.40625 16.84375 37.9375 
Q 15.375 34.46875 15.375 28.375 
L 15.375 0 
z
" id="ArialMT-68"/>
      <path d="M 5.46875 16.546875 
L 13.921875 17.328125 
Q 14.984375 11.375 18.015625 8.6875 
Q 21.046875 6 25.78125 6 
Q 29.828125 6 32.875 7.859375 
Q 35.9375 9.71875 37.890625 12.8125 
Q 39.84375 15.921875 41.15625 21.1875 
Q 42.484375 26.46875 42.484375 31.9375 
Q 42.484375 32.515625 42.4375 33.6875 
Q 39.796875 29.5 35.234375 26.875 
Q 30.671875 24.265625 25.34375 24.265625 
Q 16.453125 24.265625 10.296875 30.703125 
Q 4.15625 37.15625 4.15625 47.703125 
Q 4.15625 58.59375 10.578125 65.234375 
Q 17 71.875 26.65625 71.875 
Q 33.640625 71.875 39.421875 68.109375 
Q 45.21875 64.359375 48.21875 57.390625 
Q 51.21875 50.4375 51.21875 37.25 
Q 51.21875 23.53125 48.234375 15.40625 
Q 45.265625 7.28125 39.375 3.03125 
Q 33.5 -1.21875 25.59375 -1.21875 
Q 17.1875 -1.21875 11.859375 3.4375 
Q 6.546875 8.109375 5.46875 16.546875 
M 41.453125 48.140625 
Q 41.453125 55.71875 37.421875 60.15625 
Q 33.40625 64.59375 27.734375 64.59375 
Q 21.875 64.59375 17.53125 59.8125 
Q 13.1875 55.03125 13.1875 47.40625 
Q 13.1875 40.578125 17.3125 36.296875 
Q 21.4375 32.03125 27.484375 32.03125 
Q 33.59375 32.03125 37.515625 36.296875 
Q 41.453125 40.578125 41.453125 48.140625 
" id="ArialMT-39"/>
     </defs>
     <g style="fill:#262626;" transform="translate(418.2359375 55.7578125)scale(0.1 -0.1)">
      <use xlink:href="#ArialMT-6d"/>
      <use x="83.30078125" xlink:href="#ArialMT-65"/>
      <use x="138.916015625" xlink:href="#ArialMT-61"/>
      <use x="194.53125" xlink:href="#ArialMT-6e"/>
      <use x="250.146484375" xlink:href="#ArialMT-20"/>
      <use x="277.9296875" xlink:href="#ArialMT-74"/>
      <use x="305.712890625" xlink:href="#ArialMT-68"/>
      <use x="361.328125" xlink:href="#ArialMT-72"/>
      <use x="394.62890625" xlink:href="#ArialMT-65"/>
      <use x="450.244140625" xlink:href="#ArialMT-73"/>
      <use x="500.244140625" xlink:href="#ArialMT-68"/>
      <use x="555.859375" xlink:href="#ArialMT-6f"/>
      <use x="611.474609375" xlink:href="#ArialMT-6c"/>
      <use x="633.69140625" xlink:href="#ArialMT-64"/>
      <use x="689.306640625" xlink:href="#ArialMT-3a"/>
      <use x="717.08984375" xlink:href="#ArialMT-20"/>
      <use x="744.873046875" xlink:href="#ArialMT-32"/>
      <use x="800.48828125" xlink:href="#ArialMT-31"/>
      <use x="856.103515625" xlink:href="#ArialMT-39"/>
     </g>
    </g>
    <g id="line2d_25">
     <path d="M 390.235937 66.403125 
L 410.235937 66.403125 
" style="fill:none;opacity:0.4;stroke:#2c5ebf;stroke-linecap:round;stroke-width:2.0;"/>
    </g>
    <g id="line2d_26"/>
    <g id="text_14">
     <!-- mouse 1: 200 -->
     <g style="fill:#262626;" transform="translate(418.2359375 69.903125)scale(0.1 -0.1)">
      <use xlink:href="#ArialMT-6d"/>
      <use x="83.30078125" xlink:href="#ArialMT-6f"/>
      <use x="138.916015625" xlink:href="#ArialMT-75"/>
      <use x="194.53125" xlink:href="#ArialMT-73"/>
      <use x="244.53125" xlink:href="#ArialMT-65"/>
      <use x="300.146484375" xlink:href="#ArialMT-20"/>
      <use x="327.9296875" xlink:href="#ArialMT-31"/>
      <use x="383.544921875" xlink:href="#ArialMT-3a"/>
      <use x="411.328125" xlink:href="#ArialMT-20"/>
      <use x="439.111328125" xlink:href="#ArialMT-32"/>
      <use x="494.7265625" xlink:href="#ArialMT-30"/>
      <use x="550.341796875" xlink:href="#ArialMT-30"/>
     </g>
    </g>
    <g id="line2d_27">
     <path d="M 390.235937 80.548437 
L 410.235937 80.548437 
" style="fill:none;opacity:0.4;stroke:#ff1313;stroke-linecap:round;stroke-width:2.0;"/>
    </g>
    <g id="line2d_28"/>
    <g id="text_15">
     <!-- mouse 2: 214 -->
     <g style="fill:#262626;" transform="translate(418.2359375 84.0484375)scale(0.1 -0.1)">
      <use xlink:href="#ArialMT-6d"/>
      <use x="83.30078125" xlink:href="#ArialMT-6f"/>
      <use x="138.916015625" xlink:href="#ArialMT-75"/>
      <use x="194.53125" xlink:href="#ArialMT-73"/>
      <use x="244.53125" xlink:href="#ArialMT-65"/>
      <use x="300.146484375" xlink:href="#ArialMT-20"/>
      <use x="327.9296875" xlink:href="#ArialMT-32"/>
      <use x="383.544921875" xlink:href="#ArialMT-3a"/>
      <use x="411.328125" xlink:href="#ArialMT-20"/>
      <use x="439.111328125" xlink:href="#ArialMT-32"/>
      <use x="494.7265625" xlink:href="#ArialMT-31"/>
      <use x="550.341796875" xlink:href="#ArialMT-34"/>
     </g>
    </g>
    <g id="line2d_29">
     <path d="M 390.235937 94.69375 
L 410.235937 94.69375 
" style="fill:none;opacity:0.4;stroke:#f7b02a;stroke-linecap:round;stroke-width:2.0;"/>
    </g>
    <g id="line2d_30"/>
    <g id="text_16">
     <!-- mouse 3: 207 -->
     <defs>
      <path d="M 4.203125 18.890625 
L 12.984375 20.0625 
Q 14.5 12.59375 18.140625 9.296875 
Q 21.78125 6 27 6 
Q 33.203125 6 37.46875 10.296875 
Q 41.75 14.59375 41.75 20.953125 
Q 41.75 27 37.796875 30.921875 
Q 33.84375 34.859375 27.734375 34.859375 
Q 25.25 34.859375 21.53125 33.890625 
L 22.515625 41.609375 
Q 23.390625 41.5 23.921875 41.5 
Q 29.546875 41.5 34.03125 44.421875 
Q 38.53125 47.359375 38.53125 53.46875 
Q 38.53125 58.296875 35.25 61.46875 
Q 31.984375 64.65625 26.8125 64.65625 
Q 21.6875 64.65625 18.265625 61.421875 
Q 14.84375 58.203125 13.875 51.765625 
L 5.078125 53.328125 
Q 6.6875 62.15625 12.390625 67.015625 
Q 18.109375 71.875 26.609375 71.875 
Q 32.46875 71.875 37.390625 69.359375 
Q 42.328125 66.84375 44.9375 62.5 
Q 47.5625 58.15625 47.5625 53.265625 
Q 47.5625 48.640625 45.0625 44.828125 
Q 42.578125 41.015625 37.703125 38.765625 
Q 44.046875 37.3125 47.5625 32.6875 
Q 51.078125 28.078125 51.078125 21.140625 
Q 51.078125 11.765625 44.234375 5.25 
Q 37.40625 -1.265625 26.953125 -1.265625 
Q 17.53125 -1.265625 11.296875 4.34375 
Q 5.078125 9.96875 4.203125 18.890625 
" id="ArialMT-33"/>
      <path d="M 4.734375 62.203125 
L 4.734375 70.65625 
L 51.078125 70.65625 
L 51.078125 63.8125 
Q 44.234375 56.546875 37.515625 44.484375 
Q 30.8125 32.421875 27.15625 19.671875 
Q 24.515625 10.6875 23.78125 0 
L 14.75 0 
Q 14.890625 8.453125 18.0625 20.40625 
Q 21.234375 32.375 27.171875 43.484375 
Q 33.109375 54.59375 39.796875 62.203125 
z
" id="ArialMT-37"/>
     </defs>
     <g style="fill:#262626;" transform="translate(418.2359375 98.19375)scale(0.1 -0.1)">
      <use xlink:href="#ArialMT-6d"/>
      <use x="83.30078125" xlink:href="#ArialMT-6f"/>
      <use x="138.916015625" xlink:href="#ArialMT-75"/>
      <use x="194.53125" xlink:href="#ArialMT-73"/>
      <use x="244.53125" xlink:href="#ArialMT-65"/>
      <use x="300.146484375" xlink:href="#ArialMT-20"/>
      <use x="327.9296875" xlink:href="#ArialMT-33"/>
      <use x="383.544921875" xlink:href="#ArialMT-3a"/>
      <use x="411.328125" xlink:href="#ArialMT-20"/>
      <use x="439.111328125" xlink:href="#ArialMT-32"/>
      <use x="494.7265625" xlink:href="#ArialMT-30"/>
      <use x="550.341796875" xlink:href="#ArialMT-37"/>
     </g>
    </g>
    <g id="line2d_31">
     <path d="M 390.235937 108.839063 
L 410.235937 108.839063 
" style="fill:none;opacity:0.4;stroke:#02b72a;stroke-linecap:round;stroke-width:2.0;"/>
    </g>
    <g id="line2d_32"/>
    <g id="text_17">
     <!-- mouse 4: 237 -->
     <g style="fill:#262626;" transform="translate(418.2359375 112.3390625)scale(0.1 -0.1)">
      <use xlink:href="#ArialMT-6d"/>
      <use x="83.30078125" xlink:href="#ArialMT-6f"/>
      <use x="138.916015625" xlink:href="#ArialMT-75"/>
      <use x="194.53125" xlink:href="#ArialMT-73"/>
      <use x="244.53125" xlink:href="#ArialMT-65"/>
      <use x="300.146484375" xlink:href="#ArialMT-20"/>
      <use x="327.9296875" xlink:href="#ArialMT-34"/>
      <use x="383.544921875" xlink:href="#ArialMT-3a"/>
      <use x="411.328125" xlink:href="#ArialMT-20"/>
      <use x="439.111328125" xlink:href="#ArialMT-32"/>
      <use x="494.7265625" xlink:href="#ArialMT-33"/>
      <use x="550.341796875" xlink:href="#ArialMT-37"/>
     </g>
    </g>
    <g id="line2d_33">
     <path d="M 390.235937 122.984375 
L 410.235937 122.984375 
" style="fill:none;opacity:0.4;stroke:#009e9e;stroke-linecap:round;stroke-width:2.0;"/>
    </g>
    <g id="line2d_34"/>
    <g id="text_18">
     <!-- mouse 5: 231 -->
     <g style="fill:#262626;" transform="translate(418.2359375 126.484375)scale(0.1 -0.1)">
      <use xlink:href="#ArialMT-6d"/>
      <use x="83.30078125" xlink:href="#ArialMT-6f"/>
      <use x="138.916015625" xlink:href="#ArialMT-75"/>
      <use x="194.53125" xlink:href="#ArialMT-73"/>
      <use x="244.53125" xlink:href="#ArialMT-65"/>
      <use x="300.146484375" xlink:href="#ArialMT-20"/>
      <use x="327.9296875" xlink:href="#ArialMT-35"/>
      <use x="383.544921875" xlink:href="#ArialMT-3a"/>
      <use x="411.328125" xlink:href="#ArialMT-20"/>
      <use x="439.111328125" xlink:href="#ArialMT-32"/>
      <use x="494.7265625" xlink:href="#ArialMT-33"/>
      <use x="550.341796875" xlink:href="#ArialMT-31"/>
     </g>
    </g>
    <g id="line2d_35">
     <path d="M 390.235937 137.129687 
L 410.235937 137.129687 
" style="fill:none;opacity:0.4;stroke:#1d1aa9;stroke-linecap:round;stroke-width:2.0;"/>
    </g>
    <g id="line2d_36"/>
    <g id="text_19">
     <!-- mouse 6: 225 -->
     <g style="fill:#262626;" transform="translate(418.2359375 140.6296875)scale(0.1 -0.1)">
      <use xlink:href="#ArialMT-6d"/>
      <use x="83.30078125" xlink:href="#ArialMT-6f"/>
      <use x="138.916015625" xlink:href="#ArialMT-75"/>
      <use x="194.53125" xlink:href="#ArialMT-73"/>
      <use x="244.53125" xlink:href="#ArialMT-65"/>
      <use x="300.146484375" xlink:href="#ArialMT-20"/>
      <use x="327.9296875" xlink:href="#ArialMT-36"/>
      <use x="383.544921875" xlink:href="#ArialMT-3a"/>
      <use x="411.328125" xlink:href="#ArialMT-20"/>
      <use x="439.111328125" xlink:href="#ArialMT-32"/>
      <use x="494.7265625" xlink:href="#ArialMT-32"/>
      <use x="550.341796875" xlink:href="#ArialMT-35"/>
     </g>
    </g>
   </g>
  </g>
 </g>
 <defs>
  <clipPath id="pb6d9906163">
   <rect height="306.9" width="446.4" x="72.0" y="39.6"/>
  </clipPath>
 </defs>
</svg>
