<?xml version="1.0" encoding="utf-8" standalone="no"?>
<!DOCTYPE svg PUBLIC "-//W3C//DTD SVG 1.1//EN"
  "http://www.w3.org/Graphics/SVG/1.1/DTD/svg11.dtd">
<!-- Created with matplotlib (http://matplotlib.org/) -->
<svg height="396pt" version="1.1" viewBox="0 0 576 396" width="576pt" xmlns="http://www.w3.org/2000/svg" xmlns:xlink="http://www.w3.org/1999/xlink">
 <defs>
  <style type="text/css">
*{stroke-linecap:butt;stroke-linejoin:round;stroke-miterlimit:100000;}
  </style>
 </defs>
 <g id="figure_1">
  <g id="patch_1">
   <path d="M 0 396 
L 576 396 
L 576 0 
L 0 0 
z
" style="fill:#ffffff;"/>
  </g>
  <g id="axes_1">
   <g id="patch_2">
    <path d="M 72 346.5 
L 518.4 346.5 
L 518.4 39.6 
L 72 39.6 
z
" style="fill:#ffffff;"/>
   </g>
   <g id="matplotlib.axis_1">
    <g id="xtick_1">
     <g id="line2d_1">
      <defs>
       <path d="M 0 0 
L 0 5 
" id="mda6b047775" style="stroke:#262626;"/>
      </defs>
      <g>
       <use style="fill:#262626;stroke:#262626;" x="74.6013986014" xlink:href="#mda6b047775" y="346.5"/>
      </g>
     </g>
     <g id="text_1">
      <!-- 0 -->
      <defs>
       <path d="M 4.15625 35.296875 
Q 4.15625 48 6.765625 55.734375 
Q 9.375 63.484375 14.515625 67.671875 
Q 19.671875 71.875 27.484375 71.875 
Q 33.25 71.875 37.59375 69.546875 
Q 41.9375 67.234375 44.765625 62.859375 
Q 47.609375 58.5 49.21875 52.21875 
Q 50.828125 45.953125 50.828125 35.296875 
Q 50.828125 22.703125 48.234375 14.96875 
Q 45.65625 7.234375 40.5 3 
Q 35.359375 -1.21875 27.484375 -1.21875 
Q 17.140625 -1.21875 11.234375 6.203125 
Q 4.15625 15.140625 4.15625 35.296875 
M 13.1875 35.296875 
Q 13.1875 17.671875 17.3125 11.828125 
Q 21.4375 6 27.484375 6 
Q 33.546875 6 37.671875 11.859375 
Q 41.796875 17.71875 41.796875 35.296875 
Q 41.796875 52.984375 37.671875 58.78125 
Q 33.546875 64.59375 27.390625 64.59375 
Q 21.34375 64.59375 17.71875 59.46875 
Q 13.1875 52.9375 13.1875 35.296875 
" id="ArialMT-30"/>
      </defs>
      <g style="fill:#262626;" transform="translate(71.8209298514 360.6578125)scale(0.1 -0.1)">
       <use xlink:href="#ArialMT-30"/>
      </g>
     </g>
    </g>
    <g id="xtick_2">
     <g id="line2d_2">
      <g>
       <use style="fill:#262626;stroke:#262626;" x="204.671328671" xlink:href="#mda6b047775" y="346.5"/>
      </g>
     </g>
     <g id="text_2">
      <!-- 500 -->
      <defs>
       <path d="M 4.15625 18.75 
L 13.375 19.53125 
Q 14.40625 12.796875 18.140625 9.390625 
Q 21.875 6 27.15625 6 
Q 33.5 6 37.890625 10.78125 
Q 42.28125 15.578125 42.28125 23.484375 
Q 42.28125 31 38.0625 35.34375 
Q 33.84375 39.703125 27 39.703125 
Q 22.75 39.703125 19.328125 37.765625 
Q 15.921875 35.84375 13.96875 32.765625 
L 5.71875 33.84375 
L 12.640625 70.609375 
L 48.25 70.609375 
L 48.25 62.203125 
L 19.671875 62.203125 
L 15.828125 42.96875 
Q 22.265625 47.46875 29.34375 47.46875 
Q 38.71875 47.46875 45.15625 40.96875 
Q 51.609375 34.46875 51.609375 24.265625 
Q 51.609375 14.546875 45.953125 7.46875 
Q 39.0625 -1.21875 27.15625 -1.21875 
Q 17.390625 -1.21875 11.203125 4.25 
Q 5.03125 9.71875 4.15625 18.75 
" id="ArialMT-35"/>
      </defs>
      <g style="fill:#262626;" transform="translate(196.329922421 360.6578125)scale(0.1 -0.1)">
       <use xlink:href="#ArialMT-35"/>
       <use x="55.615234375" xlink:href="#ArialMT-30"/>
       <use x="111.23046875" xlink:href="#ArialMT-30"/>
      </g>
     </g>
    </g>
    <g id="xtick_3">
     <g id="line2d_3">
      <g>
       <use style="fill:#262626;stroke:#262626;" x="334.741258741" xlink:href="#mda6b047775" y="346.5"/>
      </g>
     </g>
     <g id="text_3">
      <!-- 1000 -->
      <defs>
       <path d="M 37.25 0 
L 28.46875 0 
L 28.46875 56 
Q 25.296875 52.984375 20.140625 49.953125 
Q 14.984375 46.921875 10.890625 45.40625 
L 10.890625 53.90625 
Q 18.265625 57.375 23.78125 62.296875 
Q 29.296875 67.234375 31.59375 71.875 
L 37.25 71.875 
z
" id="ArialMT-31"/>
      </defs>
      <g style="fill:#262626;" transform="translate(323.619383741 360.6578125)scale(0.1 -0.1)">
       <use xlink:href="#ArialMT-31"/>
       <use x="55.615234375" xlink:href="#ArialMT-30"/>
       <use x="111.23046875" xlink:href="#ArialMT-30"/>
       <use x="166.845703125" xlink:href="#ArialMT-30"/>
      </g>
     </g>
    </g>
    <g id="xtick_4">
     <g id="line2d_4">
      <g>
       <use style="fill:#262626;stroke:#262626;" x="464.811188811" xlink:href="#mda6b047775" y="346.5"/>
      </g>
     </g>
     <g id="text_4">
      <!-- 1500 -->
      <g style="fill:#262626;" transform="translate(453.689313811 360.6578125)scale(0.1 -0.1)">
       <use xlink:href="#ArialMT-31"/>
       <use x="55.615234375" xlink:href="#ArialMT-35"/>
       <use x="111.23046875" xlink:href="#ArialMT-30"/>
       <use x="166.845703125" xlink:href="#ArialMT-30"/>
      </g>
     </g>
    </g>
    <g id="text_5">
     <!-- barcode, rank-ordered -->
     <defs>
      <path d="M 40.4375 19 
L 49.078125 17.875 
Q 47.65625 8.9375 41.8125 3.875 
Q 35.984375 -1.171875 27.484375 -1.171875 
Q 16.84375 -1.171875 10.375 5.78125 
Q 3.90625 12.75 3.90625 25.734375 
Q 3.90625 34.125 6.6875 40.421875 
Q 9.46875 46.734375 15.15625 49.875 
Q 20.84375 53.03125 27.546875 53.03125 
Q 35.984375 53.03125 41.359375 48.75 
Q 46.734375 44.484375 48.25 36.625 
L 39.703125 35.296875 
Q 38.484375 40.53125 35.375 43.15625 
Q 32.28125 45.796875 27.875 45.796875 
Q 21.234375 45.796875 17.078125 41.03125 
Q 12.9375 36.28125 12.9375 25.984375 
Q 12.9375 15.53125 16.9375 10.796875 
Q 20.953125 6.0625 27.390625 6.0625 
Q 32.5625 6.0625 36.03125 9.234375 
Q 39.5 12.40625 40.4375 19 
" id="ArialMT-63"/>
      <path d="M 14.703125 0 
L 6.546875 0 
L 6.546875 71.578125 
L 15.328125 71.578125 
L 15.328125 46.046875 
Q 20.90625 53.03125 29.546875 53.03125 
Q 34.328125 53.03125 38.59375 51.09375 
Q 42.875 49.171875 45.625 45.671875 
Q 48.390625 42.1875 49.953125 37.25 
Q 51.515625 32.328125 51.515625 26.703125 
Q 51.515625 13.375 44.921875 6.09375 
Q 38.328125 -1.171875 29.109375 -1.171875 
Q 19.921875 -1.171875 14.703125 6.5 
z
M 14.59375 26.3125 
Q 14.59375 17 17.140625 12.84375 
Q 21.296875 6.0625 28.375 6.0625 
Q 34.125 6.0625 38.328125 11.0625 
Q 42.53125 16.0625 42.53125 25.984375 
Q 42.53125 36.140625 38.5 40.96875 
Q 34.46875 45.796875 28.765625 45.796875 
Q 23 45.796875 18.796875 40.796875 
Q 14.59375 35.796875 14.59375 26.3125 
" id="ArialMT-62"/>
      <path d="M 40.4375 6.390625 
Q 35.546875 2.25 31.03125 0.53125 
Q 26.515625 -1.171875 21.34375 -1.171875 
Q 12.796875 -1.171875 8.203125 3 
Q 3.609375 7.171875 3.609375 13.671875 
Q 3.609375 17.484375 5.34375 20.625 
Q 7.078125 23.78125 9.890625 25.6875 
Q 12.703125 27.59375 16.21875 28.5625 
Q 18.796875 29.25 24.03125 29.890625 
Q 34.671875 31.15625 39.703125 32.90625 
Q 39.75 34.71875 39.75 35.203125 
Q 39.75 40.578125 37.25 42.78125 
Q 33.890625 45.75 27.25 45.75 
Q 21.046875 45.75 18.09375 43.578125 
Q 15.140625 41.40625 13.71875 35.890625 
L 5.125 37.0625 
Q 6.296875 42.578125 8.984375 45.96875 
Q 11.671875 49.359375 16.75 51.1875 
Q 21.828125 53.03125 28.515625 53.03125 
Q 35.15625 53.03125 39.296875 51.46875 
Q 43.453125 49.90625 45.40625 47.53125 
Q 47.359375 45.171875 48.140625 41.546875 
Q 48.578125 39.3125 48.578125 33.453125 
L 48.578125 21.734375 
Q 48.578125 9.46875 49.140625 6.21875 
Q 49.703125 2.984375 51.375 0 
L 42.1875 0 
Q 40.828125 2.734375 40.4375 6.390625 
M 39.703125 26.03125 
Q 34.90625 24.078125 25.34375 22.703125 
Q 19.921875 21.921875 17.671875 20.9375 
Q 15.4375 19.96875 14.203125 18.09375 
Q 12.984375 16.21875 12.984375 13.921875 
Q 12.984375 10.40625 15.640625 8.0625 
Q 18.3125 5.71875 23.4375 5.71875 
Q 28.515625 5.71875 32.46875 7.9375 
Q 36.421875 10.15625 38.28125 14.015625 
Q 39.703125 17 39.703125 22.796875 
z
" id="ArialMT-61"/>
      <path d="M 42.09375 16.703125 
L 51.171875 15.578125 
Q 49.03125 7.625 43.21875 3.21875 
Q 37.40625 -1.171875 28.375 -1.171875 
Q 17 -1.171875 10.328125 5.828125 
Q 3.65625 12.84375 3.65625 25.484375 
Q 3.65625 38.578125 10.390625 45.796875 
Q 17.140625 53.03125 27.875 53.03125 
Q 38.28125 53.03125 44.875 45.953125 
Q 51.46875 38.875 51.46875 26.03125 
Q 51.46875 25.25 51.421875 23.6875 
L 12.75 23.6875 
Q 13.234375 15.140625 17.578125 10.59375 
Q 21.921875 6.0625 28.421875 6.0625 
Q 33.25 6.0625 36.671875 8.59375 
Q 40.09375 11.140625 42.09375 16.703125 
M 13.234375 30.90625 
L 42.1875 30.90625 
Q 41.609375 37.453125 38.875 40.71875 
Q 34.671875 45.796875 27.984375 45.796875 
Q 21.921875 45.796875 17.796875 41.75 
Q 13.671875 37.703125 13.234375 30.90625 
" id="ArialMT-65"/>
      <path d="M 40.234375 0 
L 40.234375 6.546875 
Q 35.296875 -1.171875 25.734375 -1.171875 
Q 19.53125 -1.171875 14.328125 2.25 
Q 9.125 5.671875 6.265625 11.796875 
Q 3.421875 17.921875 3.421875 25.875 
Q 3.421875 33.640625 6 39.96875 
Q 8.59375 46.296875 13.765625 49.65625 
Q 18.953125 53.03125 25.34375 53.03125 
Q 30.03125 53.03125 33.6875 51.046875 
Q 37.359375 49.078125 39.65625 45.90625 
L 39.65625 71.578125 
L 48.390625 71.578125 
L 48.390625 0 
z
M 12.453125 25.875 
Q 12.453125 15.921875 16.640625 10.984375 
Q 20.84375 6.0625 26.5625 6.0625 
Q 32.328125 6.0625 36.34375 10.765625 
Q 40.375 15.484375 40.375 25.140625 
Q 40.375 35.796875 36.265625 40.765625 
Q 32.171875 45.75 26.171875 45.75 
Q 20.3125 45.75 16.375 40.96875 
Q 12.453125 36.1875 12.453125 25.875 
" id="ArialMT-64"/>
      <path d="M 3.171875 21.484375 
L 3.171875 30.328125 
L 30.171875 30.328125 
L 30.171875 21.484375 
z
" id="ArialMT-2d"/>
      <path d="M 8.890625 0 
L 8.890625 10.015625 
L 18.890625 10.015625 
L 18.890625 0 
Q 18.890625 -5.515625 16.9375 -8.90625 
Q 14.984375 -12.3125 10.75 -14.15625 
L 8.296875 -10.40625 
Q 11.078125 -9.1875 12.390625 -6.8125 
Q 13.71875 -4.4375 13.875 0 
z
" id="ArialMT-2c"/>
      <path d="M 6.5 0 
L 6.5 51.859375 
L 14.40625 51.859375 
L 14.40625 44 
Q 17.4375 49.515625 20 51.265625 
Q 22.5625 53.03125 25.640625 53.03125 
Q 30.078125 53.03125 34.671875 50.203125 
L 31.640625 42.046875 
Q 28.421875 43.953125 25.203125 43.953125 
Q 22.3125 43.953125 20.015625 42.21875 
Q 17.71875 40.484375 16.75 37.40625 
Q 15.28125 32.71875 15.28125 27.15625 
L 15.28125 0 
z
" id="ArialMT-72"/>
      <path d="M 6.640625 0 
L 6.640625 71.578125 
L 15.4375 71.578125 
L 15.4375 30.765625 
L 36.234375 51.859375 
L 47.609375 51.859375 
L 27.78125 32.625 
L 49.609375 0 
L 38.765625 0 
L 21.625 26.515625 
L 15.4375 20.5625 
L 15.4375 0 
z
" id="ArialMT-6b"/>
      <path d="M 3.328125 25.921875 
Q 3.328125 40.328125 11.328125 47.265625 
Q 18.015625 53.03125 27.640625 53.03125 
Q 38.328125 53.03125 45.109375 46.015625 
Q 51.90625 39.015625 51.90625 26.65625 
Q 51.90625 16.65625 48.90625 10.90625 
Q 45.90625 5.171875 40.15625 2 
Q 34.421875 -1.171875 27.640625 -1.171875 
Q 16.75 -1.171875 10.03125 5.8125 
Q 3.328125 12.796875 3.328125 25.921875 
M 12.359375 25.921875 
Q 12.359375 15.96875 16.703125 11.015625 
Q 21.046875 6.0625 27.640625 6.0625 
Q 34.1875 6.0625 38.53125 11.03125 
Q 42.875 16.015625 42.875 26.21875 
Q 42.875 35.84375 38.5 40.796875 
Q 34.125 45.75 27.640625 45.75 
Q 21.046875 45.75 16.703125 40.8125 
Q 12.359375 35.890625 12.359375 25.921875 
" id="ArialMT-6f"/>
      <path d="M 6.59375 0 
L 6.59375 51.859375 
L 14.5 51.859375 
L 14.5 44.484375 
Q 20.21875 53.03125 31 53.03125 
Q 35.6875 53.03125 39.625 51.34375 
Q 43.5625 49.65625 45.515625 46.921875 
Q 47.46875 44.1875 48.25 40.4375 
Q 48.734375 37.984375 48.734375 31.890625 
L 48.734375 0 
L 39.9375 0 
L 39.9375 31.546875 
Q 39.9375 36.921875 38.90625 39.578125 
Q 37.890625 42.234375 35.28125 43.8125 
Q 32.671875 45.40625 29.15625 45.40625 
Q 23.53125 45.40625 19.453125 41.84375 
Q 15.375 38.28125 15.375 28.328125 
L 15.375 0 
z
" id="ArialMT-6e"/>
      <path id="ArialMT-20"/>
     </defs>
     <g style="fill:#262626;" transform="translate(240.785234375 375.51890625)scale(0.11 -0.11)">
      <use xlink:href="#ArialMT-62"/>
      <use x="55.615234375" xlink:href="#ArialMT-61"/>
      <use x="111.23046875" xlink:href="#ArialMT-72"/>
      <use x="144.53125" xlink:href="#ArialMT-63"/>
      <use x="194.53125" xlink:href="#ArialMT-6f"/>
      <use x="250.146484375" xlink:href="#ArialMT-64"/>
      <use x="305.76171875" xlink:href="#ArialMT-65"/>
      <use x="361.376953125" xlink:href="#ArialMT-2c"/>
      <use x="389.16015625" xlink:href="#ArialMT-20"/>
      <use x="416.943359375" xlink:href="#ArialMT-72"/>
      <use x="450.244140625" xlink:href="#ArialMT-61"/>
      <use x="505.859375" xlink:href="#ArialMT-6e"/>
      <use x="561.474609375" xlink:href="#ArialMT-6b"/>
      <use x="611.474609375" xlink:href="#ArialMT-2d"/>
      <use x="644.775390625" xlink:href="#ArialMT-6f"/>
      <use x="700.390625" xlink:href="#ArialMT-72"/>
      <use x="733.69140625" xlink:href="#ArialMT-64"/>
      <use x="789.306640625" xlink:href="#ArialMT-65"/>
      <use x="844.921875" xlink:href="#ArialMT-72"/>
      <use x="878.22265625" xlink:href="#ArialMT-65"/>
      <use x="933.837890625" xlink:href="#ArialMT-64"/>
     </g>
    </g>
   </g>
   <g id="matplotlib.axis_2">
    <g id="ytick_1">
     <g id="line2d_5">
      <defs>
       <path d="M 0 0 
L -5 0 
" id="mcbe59142ad" style="stroke:#262626;"/>
      </defs>
      <g>
       <use style="fill:#262626;stroke:#262626;" x="72.0" xlink:href="#mcbe59142ad" y="346.5"/>
      </g>
     </g>
     <g id="text_6">
      <!-- 1 -->
      <g style="fill:#262626;" transform="translate(59.4390625 349.08515625)scale(0.1 -0.1)">
       <use xlink:href="#ArialMT-31"/>
      </g>
     </g>
    </g>
    <g id="ytick_2">
     <g id="line2d_6">
      <g>
       <use style="fill:#262626;stroke:#262626;" x="72.0" xlink:href="#mcbe59142ad" y="264.900028078"/>
      </g>
     </g>
     <g id="text_7">
      <!-- 10 -->
      <g style="fill:#262626;" transform="translate(53.878125 267.485184328)scale(0.1 -0.1)">
       <use xlink:href="#ArialMT-31"/>
       <use x="55.615234375" xlink:href="#ArialMT-30"/>
      </g>
     </g>
    </g>
    <g id="ytick_3">
     <g id="line2d_7">
      <g>
       <use style="fill:#262626;stroke:#262626;" x="72.0" xlink:href="#mcbe59142ad" y="183.300056156"/>
      </g>
     </g>
     <g id="text_8">
      <!-- 100 -->
      <g style="fill:#262626;" transform="translate(48.3171875 185.885212406)scale(0.1 -0.1)">
       <use xlink:href="#ArialMT-31"/>
       <use x="55.615234375" xlink:href="#ArialMT-30"/>
       <use x="111.23046875" xlink:href="#ArialMT-30"/>
      </g>
     </g>
    </g>
    <g id="ytick_4">
     <g id="line2d_8">
      <g>
       <use style="fill:#262626;stroke:#262626;" x="72.0" xlink:href="#mcbe59142ad" y="101.700084234"/>
      </g>
     </g>
     <g id="text_9">
      <!-- 1000 -->
      <g style="fill:#262626;" transform="translate(42.75625 104.285240484)scale(0.1 -0.1)">
       <use xlink:href="#ArialMT-31"/>
       <use x="55.615234375" xlink:href="#ArialMT-30"/>
       <use x="111.23046875" xlink:href="#ArialMT-30"/>
       <use x="166.845703125" xlink:href="#ArialMT-30"/>
      </g>
     </g>
    </g>
    <g id="text_10">
     <!-- log10 abundance (# molecules) -->
     <defs>
      <path d="M 4.984375 -4.296875 
L 13.53125 -5.5625 
Q 14.0625 -9.515625 16.5 -11.328125 
Q 19.78125 -13.765625 25.4375 -13.765625 
Q 31.546875 -13.765625 34.859375 -11.328125 
Q 38.1875 -8.890625 39.359375 -4.5 
Q 40.046875 -1.8125 39.984375 6.78125 
Q 34.234375 0 25.640625 0 
Q 14.9375 0 9.078125 7.71875 
Q 3.21875 15.4375 3.21875 26.21875 
Q 3.21875 33.640625 5.90625 39.90625 
Q 8.59375 46.1875 13.6875 49.609375 
Q 18.796875 53.03125 25.6875 53.03125 
Q 34.859375 53.03125 40.828125 45.609375 
L 40.828125 51.859375 
L 48.921875 51.859375 
L 48.921875 7.03125 
Q 48.921875 -5.078125 46.453125 -10.125 
Q 44 -15.1875 38.640625 -18.109375 
Q 33.296875 -21.046875 25.484375 -21.046875 
Q 16.21875 -21.046875 10.5 -16.875 
Q 4.78125 -12.703125 4.984375 -4.296875 
M 12.25 26.859375 
Q 12.25 16.65625 16.296875 11.96875 
Q 20.359375 7.28125 26.46875 7.28125 
Q 32.515625 7.28125 36.609375 11.9375 
Q 40.71875 16.609375 40.71875 26.5625 
Q 40.71875 36.078125 36.5 40.90625 
Q 32.28125 45.75 26.3125 45.75 
Q 20.453125 45.75 16.34375 40.984375 
Q 12.25 36.234375 12.25 26.859375 
" id="ArialMT-67"/>
      <path d="M 40.578125 0 
L 40.578125 7.625 
Q 34.515625 -1.171875 24.125 -1.171875 
Q 19.53125 -1.171875 15.546875 0.578125 
Q 11.578125 2.34375 9.640625 5 
Q 7.71875 7.671875 6.9375 11.53125 
Q 6.390625 14.109375 6.390625 19.734375 
L 6.390625 51.859375 
L 15.1875 51.859375 
L 15.1875 23.09375 
Q 15.1875 16.21875 15.71875 13.8125 
Q 16.546875 10.359375 19.234375 8.375 
Q 21.921875 6.390625 25.875 6.390625 
Q 29.828125 6.390625 33.296875 8.421875 
Q 36.765625 10.453125 38.203125 13.9375 
Q 39.65625 17.4375 39.65625 24.078125 
L 39.65625 51.859375 
L 48.4375 51.859375 
L 48.4375 0 
z
" id="ArialMT-75"/>
      <path d="M 23.390625 -21.046875 
Q 16.109375 -11.859375 11.078125 0.4375 
Q 6.0625 12.75 6.0625 25.921875 
Q 6.0625 37.546875 9.8125 48.1875 
Q 14.203125 60.546875 23.390625 72.796875 
L 29.6875 72.796875 
Q 23.78125 62.640625 21.875 58.296875 
Q 18.890625 51.5625 17.1875 44.234375 
Q 15.09375 35.109375 15.09375 25.875 
Q 15.09375 2.390625 29.6875 -21.046875 
z
" id="ArialMT-28"/>
      <path d="M 3.078125 15.484375 
L 11.765625 16.84375 
Q 12.5 11.625 15.84375 8.84375 
Q 19.1875 6.0625 25.203125 6.0625 
Q 31.25 6.0625 34.171875 8.515625 
Q 37.109375 10.984375 37.109375 14.3125 
Q 37.109375 17.28125 34.515625 19 
Q 32.71875 20.171875 25.53125 21.96875 
Q 15.875 24.421875 12.140625 26.203125 
Q 8.40625 27.984375 6.46875 31.125 
Q 4.546875 34.28125 4.546875 38.09375 
Q 4.546875 41.546875 6.125 44.5 
Q 7.71875 47.46875 10.453125 49.421875 
Q 12.5 50.921875 16.03125 51.96875 
Q 19.578125 53.03125 23.640625 53.03125 
Q 29.734375 53.03125 34.34375 51.265625 
Q 38.96875 49.515625 41.15625 46.5 
Q 43.359375 43.5 44.1875 38.484375 
L 35.59375 37.3125 
Q 35.015625 41.3125 32.203125 43.546875 
Q 29.390625 45.796875 24.265625 45.796875 
Q 18.21875 45.796875 15.625 43.796875 
Q 13.03125 41.796875 13.03125 39.109375 
Q 13.03125 37.40625 14.109375 36.03125 
Q 15.1875 34.625 17.484375 33.6875 
Q 18.796875 33.203125 25.25 31.453125 
Q 34.578125 28.953125 38.25 27.359375 
Q 41.9375 25.78125 44.03125 22.75 
Q 46.140625 19.734375 46.140625 15.234375 
Q 46.140625 10.84375 43.578125 6.953125 
Q 41.015625 3.078125 36.171875 0.953125 
Q 31.34375 -1.171875 25.25 -1.171875 
Q 15.140625 -1.171875 9.84375 3.03125 
Q 4.546875 7.234375 3.078125 15.484375 
" id="ArialMT-73"/>
      <path d="M 6.390625 0 
L 6.390625 71.578125 
L 15.1875 71.578125 
L 15.1875 0 
z
" id="ArialMT-6c"/>
      <path d="M 12.359375 -21.046875 
L 6.0625 -21.046875 
Q 20.65625 2.390625 20.65625 25.875 
Q 20.65625 35.0625 18.5625 44.09375 
Q 16.890625 51.421875 13.921875 58.15625 
Q 12.015625 62.546875 6.0625 72.796875 
L 12.359375 72.796875 
Q 21.53125 60.546875 25.921875 48.1875 
Q 29.6875 37.546875 29.6875 25.921875 
Q 29.6875 12.75 24.625 0.4375 
Q 19.578125 -11.859375 12.359375 -21.046875 
" id="ArialMT-29"/>
      <path d="M 6.59375 0 
L 6.59375 51.859375 
L 14.453125 51.859375 
L 14.453125 44.578125 
Q 16.890625 48.390625 20.9375 50.703125 
Q 25 53.03125 30.171875 53.03125 
Q 35.9375 53.03125 39.625 50.640625 
Q 43.3125 48.25 44.828125 43.953125 
Q 50.984375 53.03125 60.84375 53.03125 
Q 68.5625 53.03125 72.703125 48.75 
Q 76.859375 44.484375 76.859375 35.59375 
L 76.859375 0 
L 68.109375 0 
L 68.109375 32.671875 
Q 68.109375 37.9375 67.25 40.25 
Q 66.40625 42.578125 64.15625 43.984375 
Q 61.921875 45.40625 58.890625 45.40625 
Q 53.421875 45.40625 49.796875 41.765625 
Q 46.1875 38.140625 46.1875 30.125 
L 46.1875 0 
L 37.40625 0 
L 37.40625 33.6875 
Q 37.40625 39.546875 35.25 42.46875 
Q 33.109375 45.40625 28.21875 45.40625 
Q 24.515625 45.40625 21.359375 43.453125 
Q 18.21875 41.5 16.796875 37.734375 
Q 15.375 33.984375 15.375 26.90625 
L 15.375 0 
z
" id="ArialMT-6d"/>
      <path d="M 5.03125 -1.21875 
L 9.28125 19.578125 
L 1.03125 19.578125 
L 1.03125 26.859375 
L 10.75 26.859375 
L 14.359375 44.578125 
L 1.03125 44.578125 
L 1.03125 51.859375 
L 15.828125 51.859375 
L 20.0625 72.796875 
L 27.390625 72.796875 
L 23.140625 51.859375 
L 38.53125 51.859375 
L 42.78125 72.796875 
L 50.140625 72.796875 
L 45.90625 51.859375 
L 54.34375 51.859375 
L 54.34375 44.578125 
L 44.4375 44.578125 
L 40.765625 26.859375 
L 54.34375 26.859375 
L 54.34375 19.578125 
L 39.3125 19.578125 
L 35.0625 -1.21875 
L 27.734375 -1.21875 
L 31.9375 19.578125 
L 16.609375 19.578125 
L 12.359375 -1.21875 
z
M 18.0625 26.859375 
L 33.40625 26.859375 
L 37.0625 44.578125 
L 21.6875 44.578125 
z
" id="ArialMT-23"/>
     </defs>
     <g style="fill:#262626;" transform="translate(35.44109375 269.78875)rotate(-90.0)scale(0.11 -0.11)">
      <use xlink:href="#ArialMT-6c"/>
      <use x="22.216796875" xlink:href="#ArialMT-6f"/>
      <use x="77.83203125" xlink:href="#ArialMT-67"/>
      <use x="133.447265625" xlink:href="#ArialMT-31"/>
      <use x="189.0625" xlink:href="#ArialMT-30"/>
      <use x="244.677734375" xlink:href="#ArialMT-20"/>
      <use x="272.4609375" xlink:href="#ArialMT-61"/>
      <use x="328.076171875" xlink:href="#ArialMT-62"/>
      <use x="383.69140625" xlink:href="#ArialMT-75"/>
      <use x="439.306640625" xlink:href="#ArialMT-6e"/>
      <use x="494.921875" xlink:href="#ArialMT-64"/>
      <use x="550.537109375" xlink:href="#ArialMT-61"/>
      <use x="606.15234375" xlink:href="#ArialMT-6e"/>
      <use x="661.767578125" xlink:href="#ArialMT-63"/>
      <use x="711.767578125" xlink:href="#ArialMT-65"/>
      <use x="767.3828125" xlink:href="#ArialMT-20"/>
      <use x="795.166015625" xlink:href="#ArialMT-28"/>
      <use x="828.466796875" xlink:href="#ArialMT-23"/>
      <use x="884.08203125" xlink:href="#ArialMT-20"/>
      <use x="911.865234375" xlink:href="#ArialMT-6d"/>
      <use x="995.166015625" xlink:href="#ArialMT-6f"/>
      <use x="1050.78125" xlink:href="#ArialMT-6c"/>
      <use x="1072.99804688" xlink:href="#ArialMT-65"/>
      <use x="1128.61328125" xlink:href="#ArialMT-63"/>
      <use x="1178.61328125" xlink:href="#ArialMT-75"/>
      <use x="1234.22851562" xlink:href="#ArialMT-6c"/>
      <use x="1256.4453125" xlink:href="#ArialMT-65"/>
      <use x="1312.06054688" xlink:href="#ArialMT-73"/>
      <use x="1362.06054688" xlink:href="#ArialMT-29"/>
     </g>
    </g>
   </g>
   <g id="line2d_9">
    <path clip-path="url(#p9a3c94629f)" d="M 95.455944 346.5 
L 95.455944 39.6 
" style="fill:none;stroke:#808080;stroke-linecap:round;stroke-width:3.0;"/>
   </g>
   <g id="line2d_10">
    <path clip-path="url(#p9a3c94629f)" d="M 74.601399 48.335016 
L 75.381818 68.249553 
L 75.641958 68.749476 
L 76.422378 71.647885 
L 76.682517 72.461538 
L 77.202797 85.199283 
L 77.462937 91.67382 
L 77.723077 93.453644 
L 77.983217 97.118877 
L 78.243357 97.620669 
L 78.503497 97.778947 
L 78.763636 98.322442 
L 79.023776 100.825017 
L 79.804196 102.056252 
L 80.064336 102.92595 
L 80.324476 105.39454 
L 80.584615 106.27059 
L 80.844755 106.31093 
L 81.104895 107.003825 
L 81.365035 107.334641 
L 81.885315 108.47451 
L 82.145455 110.596146 
L 82.405594 111.147013 
L 82.665734 111.193308 
L 83.186014 111.65961 
L 83.446154 112.611034 
L 83.706294 114.087848 
L 83.966434 114.492285 
L 84.226573 114.59412 
L 84.486713 115.21135 
L 84.746853 116.640726 
L 85.006993 117.13029 
L 85.787413 121.004353 
L 86.047552 123.602433 
L 86.307692 125.010768 
L 86.567832 125.285486 
L 87.348252 131.774262 
L 87.608392 131.940251 
L 87.868531 132.527409 
L 88.388811 135.896594 
L 88.909091 138.004365 
L 89.429371 141.096885 
L 89.68951 141.312974 
L 89.94965 145.446401 
L 90.20979 145.446401 
L 90.46993 151.544115 
L 90.73007 152.422798 
L 91.25035 156.50429 
L 91.51049 157.006971 
L 91.770629 157.176128 
L 92.030769 157.6885 
L 92.551049 161.498851 
L 92.811189 162.469827 
L 93.071329 165.126398 
L 93.331469 165.339242 
L 93.591608 167.089643 
L 94.111888 168.695542 
L 94.372028 168.695542 
L 94.632168 169.168062 
L 94.892308 170.132432 
L 95.152448 170.62464 
L 95.412587 173.193766 
L 95.672727 173.730722 
L 95.932867 173.730722 
L 96.193007 174.275939 
L 96.453147 175.963802 
L 96.973427 177.736092 
L 98.013986 184.016008 
L 98.274126 184.746723 
L 98.534266 185.871847 
L 98.794406 188.235283 
L 99.314685 188.235283 
L 99.574825 188.644981 
L 99.834965 190.332843 
L 100.095105 190.767676 
L 100.355245 192.105134 
L 100.615385 192.56241 
L 100.875524 193.495054 
L 101.135664 193.970744 
L 101.395804 193.970744 
L 101.916084 194.94172 
L 102.436364 198.566321 
L 102.696503 198.566321 
L 102.956643 199.115765 
L 103.216783 199.115765 
L 103.476923 200.240888 
L 103.997203 200.240888 
L 104.257343 200.817136 
L 104.777622 200.817136 
L 105.037762 201.402908 
L 105.297902 201.402908 
L 106.338462 205.799137 
L 106.598601 205.799137 
L 106.858741 206.474175 
L 107.379021 206.474175 
L 107.639161 207.162322 
L 107.899301 207.162322 
L 108.159441 207.864095 
L 108.67972 207.864095 
L 108.93986 208.580047 
L 109.2 208.580047 
L 109.46014 209.310762 
L 110.500699 209.310762 
L 110.760839 210.056862 
L 111.801399 210.056862 
L 112.061538 210.819008 
L 112.321678 210.819008 
L 112.581818 212.394308 
L 112.841958 212.394308 
L 113.102098 213.20902 
L 113.882517 213.20902 
L 114.142657 214.042903 
L 114.662937 214.042903 
L 114.923077 214.896883 
L 116.223776 214.896883 
L 116.483916 215.77195 
L 116.744056 215.77195 
L 117.264336 217.589703 
L 117.524476 217.589703 
L 117.784615 218.534783 
L 118.304895 218.534783 
L 118.565035 219.50576 
L 119.085315 219.50576 
L 119.345455 220.504091 
L 120.125874 220.504091 
L 120.386014 221.531363 
L 120.646154 221.531363 
L 121.166434 223.679804 
L 121.686713 223.679804 
L 121.946853 224.804928 
L 122.987413 224.804928 
L 123.247552 225.966947 
L 123.767832 225.966947 
L 124.027972 227.168364 
L 124.808392 227.168364 
L 125.068531 228.411945 
L 125.588811 228.411945 
L 125.848951 229.700757 
L 126.369231 229.700757 
L 126.629371 231.038215 
L 127.40979 231.038215 
L 127.93007 233.874801 
L 129.230769 233.874801 
L 129.490909 235.383047 
L 131.572028 235.383047 
L 131.832168 236.958347 
L 134.433566 236.958347 
L 134.693706 238.606943 
L 135.213986 238.606943 
L 135.474126 240.335989 
L 137.034965 240.335989 
L 137.295105 242.153742 
L 139.376224 242.153742 
L 139.636364 244.069799 
L 140.676923 244.069799 
L 140.937063 246.095403 
L 143.798601 246.095403 
L 144.058741 248.243843 
L 146.66014 248.243843 
L 146.92028 250.530986 
L 148.741259 250.530986 
L 149.001399 252.975984 
L 151.602797 252.975984 
L 151.862937 255.602254 
L 153.944056 255.602254 
L 154.204196 258.438841 
L 156.545455 258.438841 
L 156.805594 261.522386 
L 159.406993 261.522386 
L 159.667133 264.900028 
L 163.569231 264.900028 
L 163.829371 268.633838 
L 169.292308 268.633838 
L 169.552448 272.807882 
L 173.454545 272.807882 
L 173.714685 277.540024 
L 177.096503 277.540024 
L 177.356643 283.00288 
L 181.258741 283.00288 
L 181.518881 289.464067 
L 186.721678 289.464067 
L 186.981818 297.371922 
L 195.826573 297.371922 
L 196.086713 307.566919 
L 207.012587 307.566919 
L 207.272727 321.935961 
L 229.644755 321.935961 
L 229.904895 346.5 
L 321.994406 346.5 
L 321.994406 346.5 
" style="fill:none;opacity:0.4;stroke:#2c5ebf;stroke-linecap:round;stroke-width:2.0;"/>
   </g>
   <g id="line2d_11">
    <path clip-path="url(#p9a3c94629f)" d="M 88.128671 346.5 
L 88.128671 39.6 
" style="fill:none;stroke:#2c5ebf;stroke-dasharray:6.000000,6.000000;stroke-dashoffset:0.0;stroke-width:2.0;"/>
   </g>
   <g id="line2d_12">
    <path clip-path="url(#p9a3c94629f)" d="M 74.601399 57.385242 
L 74.861538 57.680776 
L 75.121678 67.988521 
L 75.381818 72.851919 
L 75.641958 79.956393 
L 76.422378 83.696599 
L 76.682517 83.73927 
L 77.462937 86.444453 
L 77.723077 86.722039 
L 77.983217 87.639514 
L 78.503497 88.459215 
L 78.763636 90.055585 
L 79.283916 97.778947 
L 79.804196 100.412538 
L 80.324476 101.137558 
L 80.584615 103.072998 
L 80.844755 103.146751 
L 81.104895 104.271875 
L 81.365035 104.886874 
L 81.625175 105.08127 
L 81.885315 106.921602 
L 82.145455 107.376211 
L 82.405594 107.542981 
L 82.665734 108.04805 
L 82.925874 108.218019 
L 83.446154 110.596146 
L 83.706294 111.193308 
L 84.226573 112.755976 
L 84.486713 113.539178 
L 84.746853 115.576429 
L 85.006993 115.73405 
L 85.267133 117.185105 
L 85.787413 117.905536 
L 86.047552 118.017683 
L 86.567832 119.101162 
L 86.827972 121.995702 
L 87.088112 122.62968 
L 87.348252 124.132364 
L 87.608392 124.333148 
L 87.868531 126.335071 
L 88.128671 126.620291 
L 88.388811 127.34355 
L 88.909091 127.416694 
L 89.169231 127.858759 
L 89.429371 128.608013 
L 89.68951 130.076773 
L 89.94965 130.713885 
L 90.20979 130.713885 
L 90.46993 133.038549 
L 90.73007 133.210581 
L 90.99021 133.731743 
L 91.51049 134.171978 
L 92.030769 139.209186 
L 92.290909 139.723541 
L 92.551049 142.637929 
L 92.811189 142.637929 
L 93.071329 145.082927 
L 93.331469 145.936906 
L 93.591608 146.060601 
L 93.851748 146.685633 
L 94.111888 146.938766 
L 94.372028 150.686692 
L 94.632168 150.828163 
L 95.412587 152.127476 
L 95.672727 152.27483 
L 95.932867 153.476247 
L 96.193007 158.736017 
L 96.453147 158.913654 
L 96.713287 160.367741 
L 97.233566 160.740781 
L 97.753846 162.273492 
L 98.013986 162.667256 
L 98.534266 165.553372 
L 99.054545 165.985554 
L 99.574825 171.376013 
L 99.834965 172.403285 
L 100.095105 172.403285 
L 100.355245 172.664824 
L 100.615385 174.002282 
L 100.875524 174.275939 
L 101.135664 175.392202 
L 101.395804 175.963802 
L 101.916084 178.968857 
L 102.176224 179.283867 
L 102.436364 180.246055 
L 103.216783 180.246055 
L 103.476923 181.57101 
L 103.737063 181.910136 
L 103.997203 182.598282 
L 104.257343 182.598282 
L 104.517483 182.947432 
L 104.777622 182.947432 
L 105.558042 185.117809 
L 105.818182 185.117809 
L 106.078322 186.642277 
L 106.338462 186.642277 
L 106.598601 187.42983 
L 106.858741 187.830269 
L 107.118881 189.05947 
L 107.379021 189.478864 
L 107.639161 189.478864 
L 107.899301 190.332843 
L 108.159441 190.767676 
L 108.41958 190.767676 
L 108.67972 191.20791 
L 108.93986 191.20791 
L 109.46014 192.105134 
L 109.72028 192.105134 
L 110.240559 193.025664 
L 110.500699 193.025664 
L 110.760839 193.970744 
L 111.281119 194.94172 
L 111.541259 194.94172 
L 111.801399 195.437371 
L 112.061538 198.566321 
L 112.321678 199.115765 
L 112.581818 199.115765 
L 112.841958 199.673862 
L 113.102098 199.673862 
L 113.362238 200.817136 
L 113.882517 201.998526 
L 114.142657 201.998526 
L 115.183217 204.486453 
L 116.223776 204.486453 
L 116.744056 205.799137 
L 118.044755 205.799137 
L 118.304895 206.474175 
L 119.085315 206.474175 
L 119.605594 207.864095 
L 119.865734 209.310762 
L 120.386014 209.310762 
L 120.646154 210.056862 
L 120.906294 210.056862 
L 121.166434 210.819008 
L 121.946853 210.819008 
L 122.206993 211.597905 
L 122.727273 211.597905 
L 122.987413 212.394308 
L 124.548252 212.394308 
L 125.068531 214.042903 
L 125.588811 214.042903 
L 125.848951 214.896883 
L 126.629371 214.896883 
L 126.88951 215.77195 
L 127.40979 215.77195 
L 127.66993 216.669173 
L 128.45035 216.669173 
L 128.71049 217.589703 
L 130.271329 217.589703 
L 130.531469 218.534783 
L 131.572028 218.534783 
L 131.832168 219.50576 
L 132.092308 219.50576 
L 132.352448 220.504091 
L 132.612587 220.504091 
L 132.872727 221.531363 
L 133.653147 221.531363 
L 133.913287 222.589305 
L 134.953846 222.589305 
L 135.213986 223.679804 
L 135.994406 223.679804 
L 136.254545 224.804928 
L 137.295105 224.804928 
L 137.555245 225.966947 
L 140.156643 225.966947 
L 140.416783 227.168364 
L 141.977622 227.168364 
L 142.237762 228.411945 
L 144.058741 228.411945 
L 144.318881 229.700757 
L 145.359441 229.700757 
L 145.61958 231.038215 
L 146.66014 231.038215 
L 146.92028 232.428135 
L 149.521678 232.428135 
L 149.781818 233.874801 
L 151.082517 233.874801 
L 151.342657 235.383047 
L 153.683916 235.383047 
L 153.944056 236.958347 
L 156.805594 236.958347 
L 157.065734 238.606943 
L 159.406993 238.606943 
L 159.667133 240.335989 
L 162.008392 240.335989 
L 162.268531 242.153742 
L 164.60979 242.153742 
L 164.86993 244.069799 
L 167.211189 244.069799 
L 167.471329 246.095403 
L 170.593007 246.095403 
L 170.853147 248.243843 
L 173.194406 248.243843 
L 173.454545 250.530986 
L 177.096503 250.530986 
L 177.356643 252.975984 
L 182.299301 252.975984 
L 182.559441 255.602254 
L 185.681119 255.602254 
L 185.941259 258.438841 
L 191.404196 258.438841 
L 191.664336 261.522386 
L 195.566434 261.522386 
L 195.826573 264.900028 
L 199.988811 264.900028 
L 200.248951 268.633838 
L 204.931469 268.633838 
L 205.191608 272.807882 
L 209.353846 272.807882 
L 209.613986 277.540024 
L 214.556643 277.540024 
L 214.816783 283.00288 
L 221.58042 283.00288 
L 221.840559 289.464067 
L 228.604196 289.464067 
L 228.864336 297.371922 
L 239.26993 297.371922 
L 239.53007 307.566919 
L 254.618182 307.566919 
L 254.878322 321.935961 
L 282.193007 321.935961 
L 282.453147 346.5 
L 393.793007 346.5 
L 393.793007 346.5 
" style="fill:none;opacity:0.4;stroke:#ff1313;stroke-linecap:round;stroke-width:2.0;"/>
   </g>
   <g id="line2d_13">
    <path clip-path="url(#p9a3c94629f)" d="M 94.892308 346.5 
L 94.892308 39.6 
" style="fill:none;stroke:#ff1313;stroke-dasharray:6.000000,6.000000;stroke-dashoffset:0.0;stroke-width:2.0;"/>
   </g>
   <g id="line2d_14">
    <path clip-path="url(#p9a3c94629f)" d="M 74.601399 51.012117 
L 74.861538 56.951523 
L 75.381818 82.234583 
L 76.162238 85.221536 
L 76.942657 85.850371 
L 77.723077 89.523809 
L 77.983217 90.466172 
L 78.503497 95.744531 
L 78.763636 95.744531 
L 79.023776 96.470878 
L 79.283916 101.913355 
L 79.804196 104.50125 
L 80.064336 108.132932 
L 80.324476 108.218019 
L 80.584615 108.646542 
L 80.844755 110.369121 
L 81.104895 111.332555 
L 81.365035 111.706579 
L 82.405594 114.747422 
L 82.925874 114.849994 
L 83.186014 115.367352 
L 83.446154 116.640726 
L 83.966434 120.518888 
L 84.226573 120.943305 
L 84.486713 121.8077 
L 84.746853 123.405735 
L 85.006993 123.536746 
L 85.267133 123.536746 
L 85.787413 124.94242 
L 86.307692 126.406161 
L 86.567832 127.784697 
L 86.827972 128.532371 
L 87.088112 130.55353 
L 87.348252 130.633617 
L 87.608392 130.874969 
L 87.868531 132.696971 
L 89.429371 133.731743 
L 89.68951 135.526477 
L 90.20979 136.459121 
L 90.46993 136.743768 
L 90.99021 137.611691 
L 91.25035 137.905788 
L 91.51049 138.004365 
L 92.030769 138.904119 
L 92.290909 140.140468 
L 92.551049 140.562359 
L 92.811189 140.562359 
L 93.071329 140.989333 
L 93.591608 141.204765 
L 93.851748 142.413634 
L 94.892308 142.977055 
L 95.152448 143.434331 
L 95.412587 143.549578 
L 95.932867 144.604022 
L 96.193007 145.568393 
L 96.453147 145.690805 
L 96.973427 146.811973 
L 97.493706 148.496749 
L 97.753846 148.496749 
L 98.013986 148.897188 
L 98.274126 149.031679 
L 98.534266 149.987686 
L 98.794406 150.126389 
L 99.054545 154.561973 
L 99.314685 154.719828 
L 99.574825 154.719828 
L 99.834965 155.682016 
L 100.095105 156.173087 
L 100.615385 156.50429 
L 100.875524 157.176128 
L 101.395804 157.6885 
L 101.655944 159.27162 
L 102.436364 160.740781 
L 103.216783 161.884055 
L 103.476923 163.266229 
L 103.737063 163.671244 
L 103.997203 164.704507 
L 104.257343 164.704507 
L 104.517483 165.553372 
L 105.037762 167.768995 
L 106.078322 170.377681 
L 106.338462 170.62464 
L 106.858741 172.403285 
L 107.379021 173.730722 
L 107.899301 174.275939 
L 108.159441 175.392202 
L 108.67972 175.392202 
L 108.93986 176.838869 
L 109.2 177.434486 
L 109.46014 177.434486 
L 109.72028 178.040286 
L 110.240559 178.656622 
L 110.500699 178.656622 
L 110.760839 178.968857 
L 111.020979 178.968857 
L 111.541259 179.601702 
L 111.801399 180.246055 
L 112.061538 180.572679 
L 112.321678 181.235098 
L 112.581818 181.235098 
L 112.841958 181.57101 
L 113.102098 181.57101 
L 113.362238 182.598282 
L 113.622378 182.598282 
L 113.882517 182.947432 
L 114.142657 182.947432 
L 114.402797 183.656224 
L 114.923077 184.379482 
L 115.443357 184.379482 
L 115.963636 185.117809 
L 116.223776 185.871847 
L 116.744056 185.871847 
L 117.264336 186.642277 
L 117.784615 186.642277 
L 118.044755 187.033866 
L 118.565035 187.033866 
L 118.825175 187.42983 
L 119.085315 187.42983 
L 119.345455 187.830269 
L 120.125874 187.830269 
L 120.646154 188.644981 
L 120.906294 188.644981 
L 121.166434 189.478864 
L 121.686713 190.332843 
L 121.946853 190.332843 
L 122.206993 190.767676 
L 122.987413 190.767676 
L 123.247552 191.20791 
L 123.507692 191.20791 
L 123.767832 191.653683 
L 124.548252 191.653683 
L 124.808392 192.105134 
L 125.068531 192.105134 
L 125.588811 193.970744 
L 125.848951 193.970744 
L 126.109091 194.452907 
L 126.369231 194.452907 
L 126.629371 196.967324 
L 126.88951 196.967324 
L 127.40979 198.025266 
L 127.66993 199.115765 
L 127.93007 199.115765 
L 128.19021 199.673862 
L 128.45035 199.673862 
L 128.71049 200.240888 
L 129.751049 200.240888 
L 130.011189 200.817136 
L 130.271329 200.817136 
L 130.531469 201.402908 
L 131.051748 201.402908 
L 131.311888 201.998526 
L 131.832168 201.998526 
L 132.092308 202.604325 
L 132.872727 202.604325 
L 133.393007 203.847906 
L 134.433566 203.847906 
L 134.693706 204.486453 
L 134.953846 204.486453 
L 135.213986 205.136718 
L 135.474126 205.136718 
L 135.734266 205.799137 
L 136.514685 205.799137 
L 136.774825 206.474175 
L 137.034965 206.474175 
L 137.295105 207.162322 
L 138.335664 207.162322 
L 138.595804 207.864095 
L 139.116084 207.864095 
L 139.376224 208.580047 
L 139.636364 208.580047 
L 139.896503 209.310762 
L 141.197203 209.310762 
L 141.457343 210.056862 
L 142.497902 210.056862 
L 142.758042 210.819008 
L 143.018182 210.819008 
L 143.538462 212.394308 
L 144.058741 212.394308 
L 144.318881 213.20902 
L 145.099301 213.20902 
L 145.359441 214.042903 
L 145.87972 214.042903 
L 146.13986 214.896883 
L 146.66014 214.896883 
L 146.92028 215.77195 
L 147.700699 215.77195 
L 147.960839 216.669173 
L 148.741259 216.669173 
L 149.261538 218.534783 
L 150.562238 218.534783 
L 150.822378 219.50576 
L 152.643357 219.50576 
L 152.903497 220.504091 
L 153.423776 220.504091 
L 153.683916 221.531363 
L 155.244755 221.531363 
L 155.504895 222.589305 
L 156.025175 222.589305 
L 156.285315 223.679804 
L 158.366434 223.679804 
L 158.626573 224.804928 
L 159.927273 224.804928 
L 160.187413 225.966947 
L 161.227972 225.966947 
L 161.488112 227.168364 
L 163.048951 227.168364 
L 163.309091 228.411945 
L 165.13007 228.411945 
L 165.39021 229.700757 
L 166.690909 229.700757 
L 166.951049 231.038215 
L 168.511888 231.038215 
L 168.772028 232.428135 
L 171.113287 232.428135 
L 171.373427 233.874801 
L 173.194406 233.874801 
L 173.454545 235.383047 
L 175.535664 235.383047 
L 175.795804 236.958347 
L 177.876923 236.958347 
L 178.137063 238.606943 
L 181.779021 238.606943 
L 182.039161 240.335989 
L 183.33986 240.335989 
L 183.6 242.153742 
L 188.542657 242.153742 
L 188.802797 244.069799 
L 191.924476 244.069799 
L 192.184615 246.095403 
L 197.387413 246.095403 
L 197.647552 248.243843 
L 200.509091 248.243843 
L 200.769231 250.530986 
L 204.411189 250.530986 
L 204.671329 252.975984 
L 212.215385 252.975984 
L 212.475524 255.602254 
L 216.377622 255.602254 
L 216.637762 258.438841 
L 222.620979 258.438841 
L 222.881119 261.522386 
L 229.644755 261.522386 
L 229.904895 264.900028 
L 237.448951 264.900028 
L 237.709091 268.633838 
L 246.293706 268.633838 
L 246.553846 272.807882 
L 255.918881 272.807882 
L 256.179021 277.540024 
L 268.405594 277.540024 
L 268.665734 283.00288 
L 280.892308 283.00288 
L 281.152448 289.464067 
L 296.760839 289.464067 
L 297.020979 297.371922 
L 313.93007 297.371922 
L 314.19021 307.566919 
L 336.302098 307.566919 
L 336.562238 321.935961 
L 373.502098 321.935961 
L 373.762238 346.5 
L 518.13986 346.5 
L 518.13986 346.5 
" style="fill:none;opacity:0.4;stroke:#f7b02a;stroke-linecap:round;stroke-width:2.0;"/>
   </g>
   <g id="line2d_15">
    <path clip-path="url(#p9a3c94629f)" d="M 102.696503 346.5 
L 102.696503 39.6 
" style="fill:none;stroke:#f7b02a;stroke-dasharray:6.000000,6.000000;stroke-dashoffset:0.0;stroke-width:2.0;"/>
   </g>
   <g id="line2d_16">
    <path clip-path="url(#p9a3c94629f)" d="M 74.601399 77.260297 
L 74.861538 79.309966 
L 75.121678 84.298723 
L 75.641958 85.805082 
L 75.902098 87.496809 
L 76.162238 92.049686 
L 76.942657 93.090456 
L 77.202797 95.894631 
L 77.462937 96.562727 
L 77.723077 97.620669 
L 77.983217 100.276105 
L 78.243357 100.378381 
L 78.503497 105.473292 
L 78.763636 106.149846 
L 79.283916 109.874728 
L 79.544056 109.964107 
L 79.804196 110.369121 
L 80.064336 110.550625 
L 80.584615 114.901391 
L 80.844755 117.515793 
L 81.104895 118.812809 
L 81.365035 118.985539 
L 81.885315 121.932924 
L 82.405594 123.210122 
L 82.665734 124.40033 
L 82.925874 124.535077 
L 83.446154 127.932975 
L 83.706294 128.381569 
L 83.966434 129.840778 
L 84.226573 131.940251 
L 84.486713 132.527409 
L 84.746853 132.782058 
L 85.267133 133.470204 
L 85.787413 137.514199 
L 86.047552 138.904119 
L 86.307692 139.107205 
L 86.567832 139.107205 
L 87.088112 139.723541 
L 87.608392 141.859031 
L 87.868531 142.525604 
L 88.128671 142.750611 
L 88.388811 143.665201 
L 88.909091 146.559742 
L 89.429371 147.450521 
L 89.68951 148.496749 
L 89.94965 148.629727 
L 90.20979 148.629727 
L 90.46993 148.897188 
L 90.73007 150.686692 
L 91.770629 151.689057 
L 92.030769 151.834595 
L 92.551049 151.834595 
L 92.811189 151.980733 
L 93.071329 154.092583 
L 93.591608 154.404817 
L 93.851748 155.037663 
L 94.111888 156.008639 
L 94.632168 156.50429 
L 94.892308 156.671059 
L 95.152448 157.516885 
L 95.412587 157.86095 
L 95.932867 159.451969 
L 96.193007 159.63324 
L 96.453147 159.63324 
L 96.713287 159.815443 
L 96.973427 161.884055 
L 97.233566 161.884055 
L 97.493706 164.495431 
L 98.013986 166.42307 
L 98.274126 167.089643 
L 98.534266 167.089643 
L 98.794406 167.768995 
L 99.054545 167.768995 
L 99.314685 167.998371 
L 99.574825 168.461624 
L 99.834965 168.461624 
L 100.355245 169.888868 
L 100.615385 169.888868 
L 101.135664 171.630052 
L 101.395804 172.403285 
L 101.916084 172.928308 
L 102.436364 174.275939 
L 102.956643 174.829675 
L 103.216783 175.963802 
L 103.476923 176.544772 
L 103.737063 177.736092 
L 103.997203 178.347114 
L 104.257343 178.656622 
L 104.517483 178.656622 
L 105.297902 181.235098 
L 105.558042 181.235098 
L 105.818182 181.57101 
L 106.078322 181.57101 
L 106.338462 182.252539 
L 106.598601 184.379482 
L 106.858741 184.379482 
L 107.118881 184.746723 
L 107.379021 187.033866 
L 108.159441 187.033866 
L 108.41958 187.830269 
L 108.67972 187.830269 
L 108.93986 188.644981 
L 109.46014 188.644981 
L 109.72028 189.05947 
L 110.240559 189.05947 
L 110.500699 189.478864 
L 111.020979 189.478864 
L 111.281119 189.903282 
L 111.541259 189.903282 
L 112.061538 192.105134 
L 112.581818 193.970744 
L 112.841958 194.452907 
L 113.362238 194.452907 
L 113.622378 195.437371 
L 113.882517 195.437371 
L 114.142657 195.940052 
L 114.662937 195.940052 
L 114.923077 196.449966 
L 115.183217 196.449966 
L 115.703497 197.492347 
L 115.963636 197.492347 
L 116.223776 199.115765 
L 116.483916 199.115765 
L 117.524476 201.402908 
L 117.784615 201.402908 
L 118.044755 201.998526 
L 118.304895 201.998526 
L 118.825175 203.220661 
L 119.085315 203.220661 
L 119.605594 204.486453 
L 120.386014 204.486453 
L 120.646154 205.136718 
L 120.906294 205.136718 
L 121.426573 206.474175 
L 122.467133 206.474175 
L 122.727273 207.162322 
L 122.987413 207.162322 
L 123.247552 207.864095 
L 123.507692 207.864095 
L 123.767832 208.580047 
L 124.288112 208.580047 
L 124.808392 210.056862 
L 125.068531 211.597905 
L 125.328671 211.597905 
L 125.588811 212.394308 
L 126.369231 212.394308 
L 126.629371 214.042903 
L 126.88951 214.042903 
L 127.14965 214.896883 
L 127.40979 214.896883 
L 127.93007 216.669173 
L 128.970629 216.669173 
L 129.230769 217.589703 
L 129.751049 217.589703 
L 130.011189 218.534783 
L 130.271329 218.534783 
L 130.531469 219.50576 
L 131.311888 219.50576 
L 131.572028 220.504091 
L 132.612587 220.504091 
L 132.872727 221.531363 
L 133.393007 221.531363 
L 133.653147 222.589305 
L 133.913287 222.589305 
L 134.173427 223.679804 
L 134.953846 223.679804 
L 135.213986 224.804928 
L 136.514685 224.804928 
L 136.774825 225.966947 
L 137.555245 225.966947 
L 137.815385 227.168364 
L 139.376224 227.168364 
L 139.636364 228.411945 
L 142.237762 228.411945 
L 142.497902 229.700757 
L 143.278322 229.700757 
L 143.538462 231.038215 
L 144.579021 231.038215 
L 144.839161 232.428135 
L 146.13986 232.428135 
L 146.4 233.874801 
L 147.960839 233.874801 
L 148.220979 235.383047 
L 150.562238 235.383047 
L 150.822378 236.958347 
L 152.123077 236.958347 
L 152.383217 238.606943 
L 154.984615 238.606943 
L 155.244755 240.335989 
L 157.846154 240.335989 
L 158.106294 242.153742 
L 161.748252 242.153742 
L 162.008392 244.069799 
L 164.60979 244.069799 
L 164.86993 246.095403 
L 167.211189 246.095403 
L 167.471329 248.243843 
L 168.511888 248.243843 
L 168.772028 250.530986 
L 172.413986 250.530986 
L 172.674126 252.975984 
L 176.836364 252.975984 
L 177.096503 255.602254 
L 181.258741 255.602254 
L 181.518881 258.438841 
L 186.201399 258.438841 
L 186.461538 261.522386 
L 193.225175 261.522386 
L 193.485315 264.900028 
L 198.688112 264.900028 
L 198.948252 268.633838 
L 207.272727 268.633838 
L 207.532867 272.807882 
L 214.296503 272.807882 
L 214.556643 277.540024 
L 222.360839 277.540024 
L 222.620979 283.00288 
L 233.806993 283.00288 
L 234.067133 289.464067 
L 246.553846 289.464067 
L 246.813986 297.371922 
L 261.121678 297.371922 
L 261.381818 307.566919 
L 279.071329 307.566919 
L 279.331469 321.935961 
L 311.848951 321.935961 
L 312.109091 346.5 
L 416.165035 346.5 
L 416.165035 346.5 
" style="fill:none;opacity:0.4;stroke:#02b72a;stroke-linecap:round;stroke-width:2.0;"/>
   </g>
   <g id="line2d_17">
    <path clip-path="url(#p9a3c94629f)" d="M 101.135664 346.5 
L 101.135664 39.6 
" style="fill:none;stroke:#02b72a;stroke-dasharray:6.000000,6.000000;stroke-dashoffset:0.0;stroke-width:2.0;"/>
   </g>
   <g id="line2d_18">
    <path clip-path="url(#p9a3c94629f)" d="M 74.601399 86.032107 
L 74.861538 90.673264 
L 75.381818 104.50125 
L 75.641958 106.31093 
L 75.902098 111.193308 
L 76.422378 115.107729 
L 76.682517 116.211164 
L 77.202797 126.477394 
L 77.462937 126.620291 
L 77.983217 130.234981 
L 78.503497 131.280912 
L 79.023776 137.223321 
L 79.283916 137.416974 
L 80.064336 139.620071 
L 80.584615 141.96926 
L 80.844755 144.366975 
L 81.365035 145.203671 
L 81.625175 146.060601 
L 81.885315 146.184728 
L 82.405594 146.938766 
L 82.665734 148.763205 
L 82.925874 149.166683 
L 83.186014 150.126389 
L 83.446154 150.265636 
L 83.966434 150.686692 
L 84.226573 152.27483 
L 84.746853 156.671059 
L 85.006993 157.006971 
L 85.267133 159.092185 
L 85.527273 159.27162 
L 85.787413 159.63324 
L 86.047552 160.55377 
L 86.307692 160.928783 
L 86.827972 162.078238 
L 87.088112 162.273492 
L 87.608392 162.865791 
L 88.388811 166.42307 
L 88.648951 168.931014 
L 88.909091 168.931014 
L 89.169231 171.123781 
L 89.94965 173.193766 
L 90.20979 174.551726 
L 90.46993 175.109822 
L 90.73007 177.135426 
L 91.25035 177.736092 
L 91.51049 177.736092 
L 91.770629 178.040286 
L 92.290909 179.283867 
L 93.071329 180.246055 
L 93.331469 180.902341 
L 93.591608 180.902341 
L 93.851748 181.235098 
L 94.111888 181.235098 
L 94.372028 181.57101 
L 94.632168 182.947432 
L 94.892308 185.117809 
L 95.152448 185.871847 
L 95.412587 186.254968 
L 95.672727 187.42983 
L 95.932867 187.42983 
L 96.453147 188.235283 
L 96.713287 188.235283 
L 96.973427 188.644981 
L 97.233566 189.903282 
L 97.753846 190.767676 
L 98.013986 190.767676 
L 98.534266 192.56241 
L 99.054545 195.437371 
L 99.314685 195.437371 
L 99.574825 197.492347 
L 99.834965 197.492347 
L 100.355245 198.566321 
L 100.615385 199.673862 
L 100.875524 199.673862 
L 101.135664 200.240888 
L 101.395804 200.240888 
L 101.655944 201.402908 
L 101.916084 203.220661 
L 102.436364 203.220661 
L 102.956643 207.864095 
L 103.216783 208.580047 
L 103.476923 208.580047 
L 103.737063 209.310762 
L 103.997203 209.310762 
L 104.257343 210.056862 
L 104.517483 211.597905 
L 105.037762 213.20902 
L 105.297902 213.20902 
L 105.558042 214.042903 
L 105.818182 214.042903 
L 106.338462 217.589703 
L 106.598601 217.589703 
L 106.858741 218.534783 
L 107.379021 218.534783 
L 107.639161 219.50576 
L 108.41958 219.50576 
L 108.67972 220.504091 
L 108.93986 220.504091 
L 109.2 221.531363 
L 109.46014 223.679804 
L 110.500699 223.679804 
L 110.760839 224.804928 
L 111.541259 224.804928 
L 112.061538 227.168364 
L 112.321678 227.168364 
L 112.581818 228.411945 
L 113.882517 228.411945 
L 114.142657 229.700757 
L 114.662937 229.700757 
L 115.183217 232.428135 
L 115.963636 232.428135 
L 116.223776 233.874801 
L 118.304895 233.874801 
L 118.565035 235.383047 
L 120.386014 235.383047 
L 120.906294 238.606943 
L 121.686713 238.606943 
L 121.946853 240.335989 
L 123.247552 240.335989 
L 123.507692 242.153742 
L 125.328671 242.153742 
L 125.588811 244.069799 
L 127.66993 244.069799 
L 128.19021 248.243843 
L 130.791608 248.243843 
L 131.051748 250.530986 
L 134.433566 250.530986 
L 134.693706 252.975984 
L 136.254545 252.975984 
L 136.514685 255.602254 
L 138.855944 255.602254 
L 139.116084 258.438841 
L 141.717483 258.438841 
L 141.977622 261.522386 
L 144.839161 261.522386 
L 145.099301 264.900028 
L 149.781818 264.900028 
L 150.041958 268.633838 
L 153.683916 268.633838 
L 153.944056 272.807882 
L 160.967832 272.807882 
L 161.227972 277.540024 
L 169.032168 277.540024 
L 169.292308 283.00288 
L 176.316084 283.00288 
L 176.576224 289.464067 
L 186.461538 289.464067 
L 186.721678 297.371922 
L 202.85035 297.371922 
L 203.11049 307.566919 
L 223.141259 307.566919 
L 223.401399 321.935961 
L 250.455944 321.935961 
L 250.716084 346.5 
L 326.156643 346.5 
L 326.156643 346.5 
" style="fill:none;opacity:0.4;stroke:#009e9e;stroke-linecap:round;stroke-width:2.0;"/>
   </g>
   <g id="line2d_19">
    <path clip-path="url(#p9a3c94629f)" d="M 94.372028 346.5 
L 94.372028 39.6 
" style="fill:none;stroke:#009e9e;stroke-dasharray:6.000000,6.000000;stroke-dashoffset:0.0;stroke-width:2.0;"/>
   </g>
   <g id="line2d_20">
    <path clip-path="url(#p9a3c94629f)" d="M 74.601399 80.342226 
L 74.861538 97.05665 
L 75.641958 103.629925 
L 75.902098 104.964504 
L 76.162238 111.054605 
L 76.682517 111.193308 
L 77.202797 114.34008 
L 77.462937 114.492285 
L 77.723077 116.37164 
L 78.243357 123.080311 
L 79.023776 127.416694 
L 79.283916 127.489989 
L 79.544056 127.784697 
L 79.804196 129.450913 
L 80.064336 129.450913 
L 80.584615 130.31435 
L 80.844755 132.952846 
L 81.104895 134.438768 
L 81.365035 134.61775 
L 81.625175 135.342858 
L 81.885315 135.434549 
L 82.145455 136.083113 
L 82.405594 137.12689 
L 82.665734 139.723541 
L 82.925874 141.096885 
L 83.186014 141.204765 
L 83.966434 145.446401 
L 85.006993 146.309292 
L 85.267133 146.309292 
L 85.527273 146.559742 
L 86.567832 160.55377 
L 86.827972 161.117789 
L 87.088112 161.307807 
L 87.348252 163.671244 
L 87.608392 164.914825 
L 87.868531 165.126398 
L 88.128671 165.985554 
L 88.388811 171.123781 
L 88.648951 174.002282 
L 88.909091 175.109822 
L 89.169231 175.392202 
L 89.429371 175.963802 
L 89.68951 176.253096 
L 89.94965 176.253096 
L 90.20979 176.838869 
L 90.46993 177.135426 
L 90.99021 179.922414 
L 91.25035 179.922414 
L 91.770629 181.57101 
L 92.030769 181.910136 
L 92.290909 184.016008 
L 92.551049 184.016008 
L 92.811189 184.379482 
L 93.071329 184.379482 
L 93.591608 187.033866 
L 93.851748 188.235283 
L 94.111888 190.332843 
L 94.632168 190.332843 
L 95.152448 191.20791 
L 95.412587 192.56241 
L 95.672727 192.56241 
L 96.453147 193.970744 
L 96.713287 195.437371 
L 96.973427 195.940052 
L 97.233566 197.492347 
L 97.753846 198.566321 
L 98.013986 200.817136 
L 98.274126 200.817136 
L 98.794406 201.998526 
L 99.314685 201.998526 
L 99.574825 202.604325 
L 100.355245 202.604325 
L 100.875524 203.847906 
L 101.135664 203.847906 
L 101.395804 205.136718 
L 101.916084 205.136718 
L 102.436364 206.474175 
L 102.696503 206.474175 
L 102.956643 207.162322 
L 103.216783 207.162322 
L 103.476923 208.580047 
L 103.737063 208.580047 
L 103.997203 210.056862 
L 104.257343 210.819008 
L 104.517483 210.819008 
L 105.037762 212.394308 
L 105.558042 212.394308 
L 105.818182 213.20902 
L 107.118881 213.20902 
L 107.639161 214.896883 
L 107.899301 214.896883 
L 108.159441 215.77195 
L 108.93986 215.77195 
L 109.2 216.669173 
L 109.46014 216.669173 
L 109.72028 217.589703 
L 110.240559 217.589703 
L 110.500699 218.534783 
L 110.760839 218.534783 
L 111.020979 219.50576 
L 111.281119 219.50576 
L 111.541259 220.504091 
L 112.581818 220.504091 
L 112.841958 221.531363 
L 113.622378 221.531363 
L 113.882517 222.589305 
L 114.142657 222.589305 
L 114.402797 223.679804 
L 114.662937 223.679804 
L 115.183217 225.966947 
L 115.443357 225.966947 
L 115.703497 227.168364 
L 116.483916 227.168364 
L 116.744056 228.411945 
L 119.085315 228.411945 
L 119.345455 229.700757 
L 119.605594 229.700757 
L 119.865734 231.038215 
L 121.166434 231.038215 
L 121.426573 232.428135 
L 122.727273 232.428135 
L 122.987413 233.874801 
L 124.027972 233.874801 
L 124.288112 235.383047 
L 125.068531 235.383047 
L 125.328671 236.958347 
L 126.109091 236.958347 
L 126.369231 238.606943 
L 127.93007 238.606943 
L 128.19021 240.335989 
L 130.011189 240.335989 
L 130.271329 242.153742 
L 130.531469 242.153742 
L 130.791608 244.069799 
L 132.352448 244.069799 
L 132.612587 246.095403 
L 134.433566 246.095403 
L 134.693706 248.243843 
L 137.034965 248.243843 
L 137.295105 250.530986 
L 138.075524 250.530986 
L 138.335664 252.975984 
L 140.676923 252.975984 
L 140.937063 255.602254 
L 142.758042 255.602254 
L 143.018182 258.438841 
L 146.92028 258.438841 
L 147.18042 261.522386 
L 149.261538 261.522386 
L 149.521678 264.900028 
L 154.984615 264.900028 
L 155.244755 268.633838 
L 158.366434 268.633838 
L 158.626573 272.807882 
L 164.60979 272.807882 
L 164.86993 277.540024 
L 171.113287 277.540024 
L 171.373427 283.00288 
L 178.657343 283.00288 
L 178.917483 289.464067 
L 186.201399 289.464067 
L 186.461538 297.371922 
L 195.306294 297.371922 
L 195.566434 307.566919 
L 205.451748 307.566919 
L 205.711888 321.935961 
L 226.002797 321.935961 
L 226.262937 346.5 
L 291.558042 346.5 
L 291.558042 346.5 
" style="fill:none;opacity:0.4;stroke:#1d1aa9;stroke-linecap:round;stroke-width:2.0;"/>
   </g>
   <g id="line2d_21">
    <path clip-path="url(#p9a3c94629f)" d="M 91.51049 346.5 
L 91.51049 39.6 
" style="fill:none;stroke:#1d1aa9;stroke-dasharray:6.000000,6.000000;stroke-dashoffset:0.0;stroke-width:2.0;"/>
   </g>
   <g id="patch_3">
    <path d="M 72 39.6 
L 518.4 39.6 
" style="fill:none;stroke:#262626;stroke-linecap:square;stroke-linejoin:miter;stroke-width:1.25;"/>
   </g>
   <g id="patch_4">
    <path d="M 518.4 346.5 
L 518.4 39.6 
" style="fill:none;stroke:#262626;stroke-linecap:square;stroke-linejoin:miter;stroke-width:1.25;"/>
   </g>
   <g id="patch_5">
    <path d="M 72 346.5 
L 518.4 346.5 
" style="fill:none;stroke:#262626;stroke-linecap:square;stroke-linejoin:miter;stroke-width:1.25;"/>
   </g>
   <g id="patch_6">
    <path d="M 72 346.5 
L 72 39.6 
" style="fill:none;stroke:#262626;stroke-linecap:square;stroke-linejoin:miter;stroke-width:1.25;"/>
   </g>
   <g id="text_11">
    <!-- B6 14wks naive Spleen -->
    <defs>
     <path d="M 16.15625 0 
L 0.296875 51.859375 
L 9.375 51.859375 
L 17.625 21.921875 
L 20.703125 10.796875 
Q 20.90625 11.625 23.390625 21.484375 
L 31.640625 51.859375 
L 40.671875 51.859375 
L 48.4375 21.78125 
L 51.03125 11.859375 
L 54 21.875 
L 62.890625 51.859375 
L 71.4375 51.859375 
L 55.21875 0 
L 46.09375 0 
L 37.84375 31.0625 
L 35.84375 39.890625 
L 25.34375 0 
z
" id="ArialMT-77"/>
     <path d="M 4.5 23 
L 13.421875 23.78125 
Q 14.0625 18.40625 16.375 14.96875 
Q 18.703125 11.53125 23.578125 9.40625 
Q 28.46875 7.28125 34.578125 7.28125 
Q 39.984375 7.28125 44.140625 8.890625 
Q 48.296875 10.5 50.3125 13.296875 
Q 52.34375 16.109375 52.34375 19.4375 
Q 52.34375 22.796875 50.390625 25.3125 
Q 48.4375 27.828125 43.953125 29.546875 
Q 41.0625 30.671875 31.203125 33.03125 
Q 21.34375 35.40625 17.390625 37.5 
Q 12.25 40.1875 9.734375 44.15625 
Q 7.234375 48.140625 7.234375 53.078125 
Q 7.234375 58.5 10.296875 63.203125 
Q 13.375 67.921875 19.28125 70.359375 
Q 25.203125 72.796875 32.421875 72.796875 
Q 40.375 72.796875 46.453125 70.234375 
Q 52.546875 67.671875 55.8125 62.6875 
Q 59.078125 57.71875 59.328125 51.421875 
L 50.25 50.734375 
Q 49.515625 57.515625 45.28125 60.984375 
Q 41.0625 64.453125 32.8125 64.453125 
Q 24.21875 64.453125 20.28125 61.296875 
Q 16.359375 58.15625 16.359375 53.71875 
Q 16.359375 49.859375 19.140625 47.359375 
Q 21.875 44.875 33.421875 42.265625 
Q 44.96875 39.65625 49.265625 37.703125 
Q 55.515625 34.8125 58.484375 30.390625 
Q 61.46875 25.984375 61.46875 20.21875 
Q 61.46875 14.5 58.203125 9.4375 
Q 54.9375 4.390625 48.796875 1.578125 
Q 42.671875 -1.21875 35.015625 -1.21875 
Q 25.296875 -1.21875 18.71875 1.609375 
Q 12.15625 4.4375 8.421875 10.125 
Q 4.6875 15.828125 4.5 23 
" id="ArialMT-53"/>
     <path d="M 21 0 
L 1.265625 51.859375 
L 10.546875 51.859375 
L 21.6875 20.796875 
Q 23.484375 15.765625 25 10.359375 
Q 26.171875 14.453125 28.265625 20.21875 
L 39.796875 51.859375 
L 48.828125 51.859375 
L 29.203125 0 
z
" id="ArialMT-76"/>
     <path d="M 7.328125 0 
L 7.328125 71.578125 
L 34.1875 71.578125 
Q 42.390625 71.578125 47.34375 69.40625 
Q 52.296875 67.234375 55.09375 62.71875 
Q 57.90625 58.203125 57.90625 53.265625 
Q 57.90625 48.6875 55.421875 44.625 
Q 52.9375 40.578125 47.90625 38.09375 
Q 54.390625 36.1875 57.875 31.59375 
Q 61.375 27 61.375 20.75 
Q 61.375 15.71875 59.25 11.390625 
Q 57.125 7.078125 54 4.734375 
Q 50.875 2.390625 46.15625 1.1875 
Q 41.453125 0 34.625 0 
z
M 16.796875 41.5 
L 32.28125 41.5 
Q 38.578125 41.5 41.3125 42.328125 
Q 44.921875 43.40625 46.75 45.890625 
Q 48.578125 48.390625 48.578125 52.15625 
Q 48.578125 55.71875 46.875 58.421875 
Q 45.171875 61.140625 41.984375 62.140625 
Q 38.8125 63.140625 31.109375 63.140625 
L 16.796875 63.140625 
z
M 16.796875 8.453125 
L 34.625 8.453125 
Q 39.203125 8.453125 41.0625 8.796875 
Q 44.34375 9.375 46.53125 10.734375 
Q 48.734375 12.109375 50.140625 14.71875 
Q 51.5625 17.328125 51.5625 20.75 
Q 51.5625 24.75 49.515625 27.703125 
Q 47.46875 30.671875 43.828125 31.859375 
Q 40.1875 33.0625 33.34375 33.0625 
L 16.796875 33.0625 
z
" id="ArialMT-42"/>
     <path d="M 6.59375 -19.875 
L 6.59375 51.859375 
L 14.59375 51.859375 
L 14.59375 45.125 
Q 17.4375 49.078125 21 51.046875 
Q 24.5625 53.03125 29.640625 53.03125 
Q 36.28125 53.03125 41.359375 49.609375 
Q 46.4375 46.1875 49.015625 39.953125 
Q 51.609375 33.734375 51.609375 26.3125 
Q 51.609375 18.359375 48.75 11.984375 
Q 45.90625 5.609375 40.453125 2.21875 
Q 35.015625 -1.171875 29 -1.171875 
Q 24.609375 -1.171875 21.109375 0.6875 
Q 17.625 2.546875 15.375 5.375 
L 15.375 -19.875 
z
M 14.546875 25.640625 
Q 14.546875 15.625 18.59375 10.84375 
Q 22.65625 6.0625 28.421875 6.0625 
Q 34.28125 6.0625 38.453125 11.015625 
Q 42.625 15.96875 42.625 26.375 
Q 42.625 36.28125 38.546875 41.203125 
Q 34.46875 46.140625 28.8125 46.140625 
Q 23.1875 46.140625 18.859375 40.890625 
Q 14.546875 35.640625 14.546875 25.640625 
" id="ArialMT-70"/>
     <path d="M 32.328125 0 
L 32.328125 17.140625 
L 1.265625 17.140625 
L 1.265625 25.203125 
L 33.9375 71.578125 
L 41.109375 71.578125 
L 41.109375 25.203125 
L 50.78125 25.203125 
L 50.78125 17.140625 
L 41.109375 17.140625 
L 41.109375 0 
z
M 32.328125 25.203125 
L 32.328125 57.46875 
L 9.90625 25.203125 
z
" id="ArialMT-34"/>
     <path d="M 6.640625 61.46875 
L 6.640625 71.578125 
L 15.4375 71.578125 
L 15.4375 61.46875 
z
M 6.640625 0 
L 6.640625 51.859375 
L 15.4375 51.859375 
L 15.4375 0 
z
" id="ArialMT-69"/>
     <path d="M 49.75 54.046875 
L 41.015625 53.375 
Q 39.84375 58.546875 37.703125 60.890625 
Q 34.125 64.65625 28.90625 64.65625 
Q 24.703125 64.65625 21.53125 62.3125 
Q 17.390625 59.28125 14.984375 53.46875 
Q 12.59375 47.65625 12.5 36.921875 
Q 15.671875 41.75 20.265625 44.09375 
Q 24.859375 46.4375 29.890625 46.4375 
Q 38.671875 46.4375 44.84375 39.96875 
Q 51.03125 33.5 51.03125 23.25 
Q 51.03125 16.5 48.125 10.71875 
Q 45.21875 4.9375 40.140625 1.859375 
Q 35.0625 -1.21875 28.609375 -1.21875 
Q 17.625 -1.21875 10.6875 6.859375 
Q 3.765625 14.9375 3.765625 33.5 
Q 3.765625 54.25 11.421875 63.671875 
Q 18.109375 71.875 29.4375 71.875 
Q 37.890625 71.875 43.28125 67.140625 
Q 48.6875 62.40625 49.75 54.046875 
M 13.875 23.1875 
Q 13.875 18.65625 15.796875 14.5 
Q 17.71875 10.359375 21.1875 8.171875 
Q 24.65625 6 28.46875 6 
Q 34.03125 6 38.03125 10.484375 
Q 42.046875 14.984375 42.046875 22.703125 
Q 42.046875 30.125 38.078125 34.390625 
Q 34.125 38.671875 28.125 38.671875 
Q 22.171875 38.671875 18.015625 34.390625 
Q 13.875 30.125 13.875 23.1875 
" id="ArialMT-36"/>
    </defs>
    <g style="fill:#262626;" transform="translate(232.83 34.6)scale(0.12 -0.12)">
     <use xlink:href="#ArialMT-42"/>
     <use x="66.69921875" xlink:href="#ArialMT-36"/>
     <use x="122.314453125" xlink:href="#ArialMT-20"/>
     <use x="150.09765625" xlink:href="#ArialMT-31"/>
     <use x="205.712890625" xlink:href="#ArialMT-34"/>
     <use x="261.328125" xlink:href="#ArialMT-77"/>
     <use x="333.544921875" xlink:href="#ArialMT-6b"/>
     <use x="383.544921875" xlink:href="#ArialMT-73"/>
     <use x="433.544921875" xlink:href="#ArialMT-20"/>
     <use x="461.328125" xlink:href="#ArialMT-6e"/>
     <use x="516.943359375" xlink:href="#ArialMT-61"/>
     <use x="572.55859375" xlink:href="#ArialMT-69"/>
     <use x="594.775390625" xlink:href="#ArialMT-76"/>
     <use x="644.775390625" xlink:href="#ArialMT-65"/>
     <use x="700.390625" xlink:href="#ArialMT-20"/>
     <use x="728.173828125" xlink:href="#ArialMT-53"/>
     <use x="794.873046875" xlink:href="#ArialMT-70"/>
     <use x="850.48828125" xlink:href="#ArialMT-6c"/>
     <use x="872.705078125" xlink:href="#ArialMT-65"/>
     <use x="928.3203125" xlink:href="#ArialMT-65"/>
     <use x="983.935546875" xlink:href="#ArialMT-6e"/>
    </g>
   </g>
   <g id="legend_1">
    <g id="line2d_22">
     <path d="M 395.796875 52.257812 
L 415.796875 52.257812 
" style="fill:none;stroke:#808080;stroke-linecap:round;stroke-width:3.0;"/>
    </g>
    <g id="line2d_23"/>
    <g id="text_12">
     <!-- mean threshold: 80 -->
     <defs>
      <path d="M 25.78125 7.859375 
L 27.046875 0.09375 
Q 23.34375 -0.6875 20.40625 -0.6875 
Q 15.625 -0.6875 12.984375 0.828125 
Q 10.359375 2.34375 9.28125 4.8125 
Q 8.203125 7.28125 8.203125 15.1875 
L 8.203125 45.015625 
L 1.765625 45.015625 
L 1.765625 51.859375 
L 8.203125 51.859375 
L 8.203125 64.703125 
L 16.9375 69.96875 
L 16.9375 51.859375 
L 25.78125 51.859375 
L 25.78125 45.015625 
L 16.9375 45.015625 
L 16.9375 14.703125 
Q 16.9375 10.9375 17.40625 9.859375 
Q 17.875 8.796875 18.921875 8.15625 
Q 19.96875 7.515625 21.921875 7.515625 
Q 23.390625 7.515625 25.78125 7.859375 
" id="ArialMT-74"/>
      <path d="M 9.03125 41.84375 
L 9.03125 51.859375 
L 19.046875 51.859375 
L 19.046875 41.84375 
z
M 9.03125 0 
L 9.03125 10.015625 
L 19.046875 10.015625 
L 19.046875 0 
z
" id="ArialMT-3a"/>
      <path d="M 6.59375 0 
L 6.59375 71.578125 
L 15.375 71.578125 
L 15.375 45.90625 
Q 21.53125 53.03125 30.90625 53.03125 
Q 36.671875 53.03125 40.921875 50.75 
Q 45.171875 48.484375 47 44.484375 
Q 48.828125 40.484375 48.828125 32.859375 
L 48.828125 0 
L 40.046875 0 
L 40.046875 32.859375 
Q 40.046875 39.453125 37.1875 42.453125 
Q 34.328125 45.453125 29.109375 45.453125 
Q 25.203125 45.453125 21.75 43.421875 
Q 18.3125 41.40625 16.84375 37.9375 
Q 15.375 34.46875 15.375 28.375 
L 15.375 0 
z
" id="ArialMT-68"/>
      <path d="M 17.671875 38.8125 
Q 12.203125 40.828125 9.5625 44.53125 
Q 6.9375 48.25 6.9375 53.421875 
Q 6.9375 61.234375 12.546875 66.546875 
Q 18.171875 71.875 27.484375 71.875 
Q 36.859375 71.875 42.578125 66.421875 
Q 48.296875 60.984375 48.296875 53.171875 
Q 48.296875 48.1875 45.671875 44.5 
Q 43.0625 40.828125 37.75 38.8125 
Q 44.34375 36.671875 47.78125 31.875 
Q 51.21875 27.09375 51.21875 20.453125 
Q 51.21875 11.28125 44.71875 5.03125 
Q 38.234375 -1.21875 27.640625 -1.21875 
Q 17.046875 -1.21875 10.546875 5.046875 
Q 4.046875 11.328125 4.046875 20.703125 
Q 4.046875 27.6875 7.59375 32.390625 
Q 11.140625 37.109375 17.671875 38.8125 
M 15.921875 53.71875 
Q 15.921875 48.640625 19.1875 45.40625 
Q 22.46875 42.1875 27.6875 42.1875 
Q 32.765625 42.1875 36.015625 45.375 
Q 39.265625 48.578125 39.265625 53.21875 
Q 39.265625 58.0625 35.90625 61.359375 
Q 32.5625 64.65625 27.59375 64.65625 
Q 22.5625 64.65625 19.234375 61.421875 
Q 15.921875 58.203125 15.921875 53.71875 
M 13.09375 20.65625 
Q 13.09375 16.890625 14.875 13.375 
Q 16.65625 9.859375 20.171875 7.921875 
Q 23.6875 6 27.734375 6 
Q 34.03125 6 38.125 10.046875 
Q 42.234375 14.109375 42.234375 20.359375 
Q 42.234375 26.703125 38.015625 30.859375 
Q 33.796875 35.015625 27.4375 35.015625 
Q 21.234375 35.015625 17.15625 30.90625 
Q 13.09375 26.8125 13.09375 20.65625 
" id="ArialMT-38"/>
     </defs>
     <g style="fill:#262626;" transform="translate(423.796875 55.7578125)scale(0.1 -0.1)">
      <use xlink:href="#ArialMT-6d"/>
      <use x="83.30078125" xlink:href="#ArialMT-65"/>
      <use x="138.916015625" xlink:href="#ArialMT-61"/>
      <use x="194.53125" xlink:href="#ArialMT-6e"/>
      <use x="250.146484375" xlink:href="#ArialMT-20"/>
      <use x="277.9296875" xlink:href="#ArialMT-74"/>
      <use x="305.712890625" xlink:href="#ArialMT-68"/>
      <use x="361.328125" xlink:href="#ArialMT-72"/>
      <use x="394.62890625" xlink:href="#ArialMT-65"/>
      <use x="450.244140625" xlink:href="#ArialMT-73"/>
      <use x="500.244140625" xlink:href="#ArialMT-68"/>
      <use x="555.859375" xlink:href="#ArialMT-6f"/>
      <use x="611.474609375" xlink:href="#ArialMT-6c"/>
      <use x="633.69140625" xlink:href="#ArialMT-64"/>
      <use x="689.306640625" xlink:href="#ArialMT-3a"/>
      <use x="717.08984375" xlink:href="#ArialMT-20"/>
      <use x="744.873046875" xlink:href="#ArialMT-38"/>
      <use x="800.48828125" xlink:href="#ArialMT-30"/>
     </g>
    </g>
    <g id="line2d_24">
     <path d="M 395.796875 66.403125 
L 415.796875 66.403125 
" style="fill:none;opacity:0.4;stroke:#2c5ebf;stroke-linecap:round;stroke-width:2.0;"/>
    </g>
    <g id="line2d_25"/>
    <g id="text_13">
     <!-- mouse 1: 52 -->
     <defs>
      <path d="M 50.34375 8.453125 
L 50.34375 0 
L 3.03125 0 
Q 2.9375 3.171875 4.046875 6.109375 
Q 5.859375 10.9375 9.828125 15.625 
Q 13.8125 20.3125 21.34375 26.46875 
Q 33.015625 36.03125 37.109375 41.625 
Q 41.21875 47.21875 41.21875 52.203125 
Q 41.21875 57.421875 37.46875 61 
Q 33.734375 64.59375 27.734375 64.59375 
Q 21.390625 64.59375 17.578125 60.78125 
Q 13.765625 56.984375 13.71875 50.25 
L 4.6875 51.171875 
Q 5.609375 61.28125 11.65625 66.578125 
Q 17.71875 71.875 27.9375 71.875 
Q 38.234375 71.875 44.234375 66.15625 
Q 50.25 60.453125 50.25 52 
Q 50.25 47.703125 48.484375 43.546875 
Q 46.734375 39.40625 42.65625 34.8125 
Q 38.578125 30.21875 29.109375 22.21875 
Q 21.1875 15.578125 18.9375 13.203125 
Q 16.703125 10.84375 15.234375 8.453125 
z
" id="ArialMT-32"/>
     </defs>
     <g style="fill:#262626;" transform="translate(423.796875 69.903125)scale(0.1 -0.1)">
      <use xlink:href="#ArialMT-6d"/>
      <use x="83.30078125" xlink:href="#ArialMT-6f"/>
      <use x="138.916015625" xlink:href="#ArialMT-75"/>
      <use x="194.53125" xlink:href="#ArialMT-73"/>
      <use x="244.53125" xlink:href="#ArialMT-65"/>
      <use x="300.146484375" xlink:href="#ArialMT-20"/>
      <use x="327.9296875" xlink:href="#ArialMT-31"/>
      <use x="383.544921875" xlink:href="#ArialMT-3a"/>
      <use x="411.328125" xlink:href="#ArialMT-20"/>
      <use x="439.111328125" xlink:href="#ArialMT-35"/>
      <use x="494.7265625" xlink:href="#ArialMT-32"/>
     </g>
    </g>
    <g id="line2d_26">
     <path d="M 395.796875 80.548437 
L 415.796875 80.548437 
" style="fill:none;opacity:0.4;stroke:#ff1313;stroke-linecap:round;stroke-width:2.0;"/>
    </g>
    <g id="line2d_27"/>
    <g id="text_14">
     <!-- mouse 2: 78 -->
     <defs>
      <path d="M 4.734375 62.203125 
L 4.734375 70.65625 
L 51.078125 70.65625 
L 51.078125 63.8125 
Q 44.234375 56.546875 37.515625 44.484375 
Q 30.8125 32.421875 27.15625 19.671875 
Q 24.515625 10.6875 23.78125 0 
L 14.75 0 
Q 14.890625 8.453125 18.0625 20.40625 
Q 21.234375 32.375 27.171875 43.484375 
Q 33.109375 54.59375 39.796875 62.203125 
z
" id="ArialMT-37"/>
     </defs>
     <g style="fill:#262626;" transform="translate(423.796875 84.0484375)scale(0.1 -0.1)">
      <use xlink:href="#ArialMT-6d"/>
      <use x="83.30078125" xlink:href="#ArialMT-6f"/>
      <use x="138.916015625" xlink:href="#ArialMT-75"/>
      <use x="194.53125" xlink:href="#ArialMT-73"/>
      <use x="244.53125" xlink:href="#ArialMT-65"/>
      <use x="300.146484375" xlink:href="#ArialMT-20"/>
      <use x="327.9296875" xlink:href="#ArialMT-32"/>
      <use x="383.544921875" xlink:href="#ArialMT-3a"/>
      <use x="411.328125" xlink:href="#ArialMT-20"/>
      <use x="439.111328125" xlink:href="#ArialMT-37"/>
      <use x="494.7265625" xlink:href="#ArialMT-38"/>
     </g>
    </g>
    <g id="line2d_28">
     <path d="M 395.796875 94.69375 
L 415.796875 94.69375 
" style="fill:none;opacity:0.4;stroke:#f7b02a;stroke-linecap:round;stroke-width:2.0;"/>
    </g>
    <g id="line2d_29"/>
    <g id="text_15">
     <!-- mouse 3: 108 -->
     <defs>
      <path d="M 4.203125 18.890625 
L 12.984375 20.0625 
Q 14.5 12.59375 18.140625 9.296875 
Q 21.78125 6 27 6 
Q 33.203125 6 37.46875 10.296875 
Q 41.75 14.59375 41.75 20.953125 
Q 41.75 27 37.796875 30.921875 
Q 33.84375 34.859375 27.734375 34.859375 
Q 25.25 34.859375 21.53125 33.890625 
L 22.515625 41.609375 
Q 23.390625 41.5 23.921875 41.5 
Q 29.546875 41.5 34.03125 44.421875 
Q 38.53125 47.359375 38.53125 53.46875 
Q 38.53125 58.296875 35.25 61.46875 
Q 31.984375 64.65625 26.8125 64.65625 
Q 21.6875 64.65625 18.265625 61.421875 
Q 14.84375 58.203125 13.875 51.765625 
L 5.078125 53.328125 
Q 6.6875 62.15625 12.390625 67.015625 
Q 18.109375 71.875 26.609375 71.875 
Q 32.46875 71.875 37.390625 69.359375 
Q 42.328125 66.84375 44.9375 62.5 
Q 47.5625 58.15625 47.5625 53.265625 
Q 47.5625 48.640625 45.0625 44.828125 
Q 42.578125 41.015625 37.703125 38.765625 
Q 44.046875 37.3125 47.5625 32.6875 
Q 51.078125 28.078125 51.078125 21.140625 
Q 51.078125 11.765625 44.234375 5.25 
Q 37.40625 -1.265625 26.953125 -1.265625 
Q 17.53125 -1.265625 11.296875 4.34375 
Q 5.078125 9.96875 4.203125 18.890625 
" id="ArialMT-33"/>
     </defs>
     <g style="fill:#262626;" transform="translate(423.796875 98.19375)scale(0.1 -0.1)">
      <use xlink:href="#ArialMT-6d"/>
      <use x="83.30078125" xlink:href="#ArialMT-6f"/>
      <use x="138.916015625" xlink:href="#ArialMT-75"/>
      <use x="194.53125" xlink:href="#ArialMT-73"/>
      <use x="244.53125" xlink:href="#ArialMT-65"/>
      <use x="300.146484375" xlink:href="#ArialMT-20"/>
      <use x="327.9296875" xlink:href="#ArialMT-33"/>
      <use x="383.544921875" xlink:href="#ArialMT-3a"/>
      <use x="411.328125" xlink:href="#ArialMT-20"/>
      <use x="439.111328125" xlink:href="#ArialMT-31"/>
      <use x="494.7265625" xlink:href="#ArialMT-30"/>
      <use x="550.341796875" xlink:href="#ArialMT-38"/>
     </g>
    </g>
    <g id="line2d_30">
     <path d="M 395.796875 108.839063 
L 415.796875 108.839063 
" style="fill:none;opacity:0.4;stroke:#02b72a;stroke-linecap:round;stroke-width:2.0;"/>
    </g>
    <g id="line2d_31"/>
    <g id="text_16">
     <!-- mouse 4: 102 -->
     <g style="fill:#262626;" transform="translate(423.796875 112.3390625)scale(0.1 -0.1)">
      <use xlink:href="#ArialMT-6d"/>
      <use x="83.30078125" xlink:href="#ArialMT-6f"/>
      <use x="138.916015625" xlink:href="#ArialMT-75"/>
      <use x="194.53125" xlink:href="#ArialMT-73"/>
      <use x="244.53125" xlink:href="#ArialMT-65"/>
      <use x="300.146484375" xlink:href="#ArialMT-20"/>
      <use x="327.9296875" xlink:href="#ArialMT-34"/>
      <use x="383.544921875" xlink:href="#ArialMT-3a"/>
      <use x="411.328125" xlink:href="#ArialMT-20"/>
      <use x="439.111328125" xlink:href="#ArialMT-31"/>
      <use x="494.7265625" xlink:href="#ArialMT-30"/>
      <use x="550.341796875" xlink:href="#ArialMT-32"/>
     </g>
    </g>
    <g id="line2d_32">
     <path d="M 395.796875 122.984375 
L 415.796875 122.984375 
" style="fill:none;opacity:0.4;stroke:#009e9e;stroke-linecap:round;stroke-width:2.0;"/>
    </g>
    <g id="line2d_33"/>
    <g id="text_17">
     <!-- mouse 5: 76 -->
     <g style="fill:#262626;" transform="translate(423.796875 126.484375)scale(0.1 -0.1)">
      <use xlink:href="#ArialMT-6d"/>
      <use x="83.30078125" xlink:href="#ArialMT-6f"/>
      <use x="138.916015625" xlink:href="#ArialMT-75"/>
      <use x="194.53125" xlink:href="#ArialMT-73"/>
      <use x="244.53125" xlink:href="#ArialMT-65"/>
      <use x="300.146484375" xlink:href="#ArialMT-20"/>
      <use x="327.9296875" xlink:href="#ArialMT-35"/>
      <use x="383.544921875" xlink:href="#ArialMT-3a"/>
      <use x="411.328125" xlink:href="#ArialMT-20"/>
      <use x="439.111328125" xlink:href="#ArialMT-37"/>
      <use x="494.7265625" xlink:href="#ArialMT-36"/>
     </g>
    </g>
    <g id="line2d_34">
     <path d="M 395.796875 137.129687 
L 415.796875 137.129687 
" style="fill:none;opacity:0.4;stroke:#1d1aa9;stroke-linecap:round;stroke-width:2.0;"/>
    </g>
    <g id="line2d_35"/>
    <g id="text_18">
     <!-- mouse 6: 65 -->
     <g style="fill:#262626;" transform="translate(423.796875 140.6296875)scale(0.1 -0.1)">
      <use xlink:href="#ArialMT-6d"/>
      <use x="83.30078125" xlink:href="#ArialMT-6f"/>
      <use x="138.916015625" xlink:href="#ArialMT-75"/>
      <use x="194.53125" xlink:href="#ArialMT-73"/>
      <use x="244.53125" xlink:href="#ArialMT-65"/>
      <use x="300.146484375" xlink:href="#ArialMT-20"/>
      <use x="327.9296875" xlink:href="#ArialMT-36"/>
      <use x="383.544921875" xlink:href="#ArialMT-3a"/>
      <use x="411.328125" xlink:href="#ArialMT-20"/>
      <use x="439.111328125" xlink:href="#ArialMT-36"/>
      <use x="494.7265625" xlink:href="#ArialMT-35"/>
     </g>
    </g>
   </g>
  </g>
 </g>
 <defs>
  <clipPath id="p9a3c94629f">
   <rect height="306.9" width="446.4" x="72.0" y="39.6"/>
  </clipPath>
 </defs>
</svg>
