<?xml version="1.0" encoding="utf-8" standalone="no"?>
<!DOCTYPE svg PUBLIC "-//W3C//DTD SVG 1.1//EN"
  "http://www.w3.org/Graphics/SVG/1.1/DTD/svg11.dtd">
<!-- Created with matplotlib (http://matplotlib.org/) -->
<svg height="396pt" version="1.1" viewBox="0 0 576 396" width="576pt" xmlns="http://www.w3.org/2000/svg" xmlns:xlink="http://www.w3.org/1999/xlink">
 <defs>
  <style type="text/css">
*{stroke-linecap:butt;stroke-linejoin:round;stroke-miterlimit:100000;}
  </style>
 </defs>
 <g id="figure_1">
  <g id="patch_1">
   <path d="M 0 396 
L 576 396 
L 576 0 
L 0 0 
z
" style="fill:#ffffff;"/>
  </g>
  <g id="axes_1">
   <g id="patch_2">
    <path d="M 72 346.5 
L 518.4 346.5 
L 518.4 39.6 
L 72 39.6 
z
" style="fill:#ffffff;"/>
   </g>
   <g id="matplotlib.axis_1">
    <g id="xtick_1">
     <g id="line2d_1">
      <defs>
       <path d="M 0 0 
L 0 5 
" id="mf94070f2d1" style="stroke:#262626;"/>
      </defs>
      <g>
       <use style="fill:#262626;stroke:#262626;" x="74.8342857143" xlink:href="#mf94070f2d1" y="346.5"/>
      </g>
     </g>
     <g id="text_1">
      <!-- 0 -->
      <defs>
       <path d="M 4.15625 35.296875 
Q 4.15625 48 6.765625 55.734375 
Q 9.375 63.484375 14.515625 67.671875 
Q 19.671875 71.875 27.484375 71.875 
Q 33.25 71.875 37.59375 69.546875 
Q 41.9375 67.234375 44.765625 62.859375 
Q 47.609375 58.5 49.21875 52.21875 
Q 50.828125 45.953125 50.828125 35.296875 
Q 50.828125 22.703125 48.234375 14.96875 
Q 45.65625 7.234375 40.5 3 
Q 35.359375 -1.21875 27.484375 -1.21875 
Q 17.140625 -1.21875 11.234375 6.203125 
Q 4.15625 15.140625 4.15625 35.296875 
M 13.1875 35.296875 
Q 13.1875 17.671875 17.3125 11.828125 
Q 21.4375 6 27.484375 6 
Q 33.546875 6 37.671875 11.859375 
Q 41.796875 17.71875 41.796875 35.296875 
Q 41.796875 52.984375 37.671875 58.78125 
Q 33.546875 64.59375 27.390625 64.59375 
Q 21.34375 64.59375 17.71875 59.46875 
Q 13.1875 52.9375 13.1875 35.296875 
" id="ArialMT-30"/>
      </defs>
      <g style="fill:#262626;" transform="translate(72.0538169643 360.6578125)scale(0.1 -0.1)">
       <use xlink:href="#ArialMT-30"/>
      </g>
     </g>
    </g>
    <g id="xtick_2">
     <g id="line2d_2">
      <g>
       <use style="fill:#262626;stroke:#262626;" x="131.52" xlink:href="#mf94070f2d1" y="346.5"/>
      </g>
     </g>
     <g id="text_2">
      <!-- 200 -->
      <defs>
       <path d="M 50.34375 8.453125 
L 50.34375 0 
L 3.03125 0 
Q 2.9375 3.171875 4.046875 6.109375 
Q 5.859375 10.9375 9.828125 15.625 
Q 13.8125 20.3125 21.34375 26.46875 
Q 33.015625 36.03125 37.109375 41.625 
Q 41.21875 47.21875 41.21875 52.203125 
Q 41.21875 57.421875 37.46875 61 
Q 33.734375 64.59375 27.734375 64.59375 
Q 21.390625 64.59375 17.578125 60.78125 
Q 13.765625 56.984375 13.71875 50.25 
L 4.6875 51.171875 
Q 5.609375 61.28125 11.65625 66.578125 
Q 17.71875 71.875 27.9375 71.875 
Q 38.234375 71.875 44.234375 66.15625 
Q 50.25 60.453125 50.25 52 
Q 50.25 47.703125 48.484375 43.546875 
Q 46.734375 39.40625 42.65625 34.8125 
Q 38.578125 30.21875 29.109375 22.21875 
Q 21.1875 15.578125 18.9375 13.203125 
Q 16.703125 10.84375 15.234375 8.453125 
z
" id="ArialMT-32"/>
      </defs>
      <g style="fill:#262626;" transform="translate(123.17859375 360.6578125)scale(0.1 -0.1)">
       <use xlink:href="#ArialMT-32"/>
       <use x="55.615234375" xlink:href="#ArialMT-30"/>
       <use x="111.23046875" xlink:href="#ArialMT-30"/>
      </g>
     </g>
    </g>
    <g id="xtick_3">
     <g id="line2d_3">
      <g>
       <use style="fill:#262626;stroke:#262626;" x="188.205714286" xlink:href="#mf94070f2d1" y="346.5"/>
      </g>
     </g>
     <g id="text_3">
      <!-- 400 -->
      <defs>
       <path d="M 32.328125 0 
L 32.328125 17.140625 
L 1.265625 17.140625 
L 1.265625 25.203125 
L 33.9375 71.578125 
L 41.109375 71.578125 
L 41.109375 25.203125 
L 50.78125 25.203125 
L 50.78125 17.140625 
L 41.109375 17.140625 
L 41.109375 0 
z
M 32.328125 25.203125 
L 32.328125 57.46875 
L 9.90625 25.203125 
z
" id="ArialMT-34"/>
      </defs>
      <g style="fill:#262626;" transform="translate(179.864308036 360.6578125)scale(0.1 -0.1)">
       <use xlink:href="#ArialMT-34"/>
       <use x="55.615234375" xlink:href="#ArialMT-30"/>
       <use x="111.23046875" xlink:href="#ArialMT-30"/>
      </g>
     </g>
    </g>
    <g id="xtick_4">
     <g id="line2d_4">
      <g>
       <use style="fill:#262626;stroke:#262626;" x="244.891428571" xlink:href="#mf94070f2d1" y="346.5"/>
      </g>
     </g>
     <g id="text_4">
      <!-- 600 -->
      <defs>
       <path d="M 49.75 54.046875 
L 41.015625 53.375 
Q 39.84375 58.546875 37.703125 60.890625 
Q 34.125 64.65625 28.90625 64.65625 
Q 24.703125 64.65625 21.53125 62.3125 
Q 17.390625 59.28125 14.984375 53.46875 
Q 12.59375 47.65625 12.5 36.921875 
Q 15.671875 41.75 20.265625 44.09375 
Q 24.859375 46.4375 29.890625 46.4375 
Q 38.671875 46.4375 44.84375 39.96875 
Q 51.03125 33.5 51.03125 23.25 
Q 51.03125 16.5 48.125 10.71875 
Q 45.21875 4.9375 40.140625 1.859375 
Q 35.0625 -1.21875 28.609375 -1.21875 
Q 17.625 -1.21875 10.6875 6.859375 
Q 3.765625 14.9375 3.765625 33.5 
Q 3.765625 54.25 11.421875 63.671875 
Q 18.109375 71.875 29.4375 71.875 
Q 37.890625 71.875 43.28125 67.140625 
Q 48.6875 62.40625 49.75 54.046875 
M 13.875 23.1875 
Q 13.875 18.65625 15.796875 14.5 
Q 17.71875 10.359375 21.1875 8.171875 
Q 24.65625 6 28.46875 6 
Q 34.03125 6 38.03125 10.484375 
Q 42.046875 14.984375 42.046875 22.703125 
Q 42.046875 30.125 38.078125 34.390625 
Q 34.125 38.671875 28.125 38.671875 
Q 22.171875 38.671875 18.015625 34.390625 
Q 13.875 30.125 13.875 23.1875 
" id="ArialMT-36"/>
      </defs>
      <g style="fill:#262626;" transform="translate(236.550022321 360.6578125)scale(0.1 -0.1)">
       <use xlink:href="#ArialMT-36"/>
       <use x="55.615234375" xlink:href="#ArialMT-30"/>
       <use x="111.23046875" xlink:href="#ArialMT-30"/>
      </g>
     </g>
    </g>
    <g id="xtick_5">
     <g id="line2d_5">
      <g>
       <use style="fill:#262626;stroke:#262626;" x="301.577142857" xlink:href="#mf94070f2d1" y="346.5"/>
      </g>
     </g>
     <g id="text_5">
      <!-- 800 -->
      <defs>
       <path d="M 17.671875 38.8125 
Q 12.203125 40.828125 9.5625 44.53125 
Q 6.9375 48.25 6.9375 53.421875 
Q 6.9375 61.234375 12.546875 66.546875 
Q 18.171875 71.875 27.484375 71.875 
Q 36.859375 71.875 42.578125 66.421875 
Q 48.296875 60.984375 48.296875 53.171875 
Q 48.296875 48.1875 45.671875 44.5 
Q 43.0625 40.828125 37.75 38.8125 
Q 44.34375 36.671875 47.78125 31.875 
Q 51.21875 27.09375 51.21875 20.453125 
Q 51.21875 11.28125 44.71875 5.03125 
Q 38.234375 -1.21875 27.640625 -1.21875 
Q 17.046875 -1.21875 10.546875 5.046875 
Q 4.046875 11.328125 4.046875 20.703125 
Q 4.046875 27.6875 7.59375 32.390625 
Q 11.140625 37.109375 17.671875 38.8125 
M 15.921875 53.71875 
Q 15.921875 48.640625 19.1875 45.40625 
Q 22.46875 42.1875 27.6875 42.1875 
Q 32.765625 42.1875 36.015625 45.375 
Q 39.265625 48.578125 39.265625 53.21875 
Q 39.265625 58.0625 35.90625 61.359375 
Q 32.5625 64.65625 27.59375 64.65625 
Q 22.5625 64.65625 19.234375 61.421875 
Q 15.921875 58.203125 15.921875 53.71875 
M 13.09375 20.65625 
Q 13.09375 16.890625 14.875 13.375 
Q 16.65625 9.859375 20.171875 7.921875 
Q 23.6875 6 27.734375 6 
Q 34.03125 6 38.125 10.046875 
Q 42.234375 14.109375 42.234375 20.359375 
Q 42.234375 26.703125 38.015625 30.859375 
Q 33.796875 35.015625 27.4375 35.015625 
Q 21.234375 35.015625 17.15625 30.90625 
Q 13.09375 26.8125 13.09375 20.65625 
" id="ArialMT-38"/>
      </defs>
      <g style="fill:#262626;" transform="translate(293.235736607 360.6578125)scale(0.1 -0.1)">
       <use xlink:href="#ArialMT-38"/>
       <use x="55.615234375" xlink:href="#ArialMT-30"/>
       <use x="111.23046875" xlink:href="#ArialMT-30"/>
      </g>
     </g>
    </g>
    <g id="xtick_6">
     <g id="line2d_6">
      <g>
       <use style="fill:#262626;stroke:#262626;" x="358.262857143" xlink:href="#mf94070f2d1" y="346.5"/>
      </g>
     </g>
     <g id="text_6">
      <!-- 1000 -->
      <defs>
       <path d="M 37.25 0 
L 28.46875 0 
L 28.46875 56 
Q 25.296875 52.984375 20.140625 49.953125 
Q 14.984375 46.921875 10.890625 45.40625 
L 10.890625 53.90625 
Q 18.265625 57.375 23.78125 62.296875 
Q 29.296875 67.234375 31.59375 71.875 
L 37.25 71.875 
z
" id="ArialMT-31"/>
      </defs>
      <g style="fill:#262626;" transform="translate(347.140982143 360.6578125)scale(0.1 -0.1)">
       <use xlink:href="#ArialMT-31"/>
       <use x="55.615234375" xlink:href="#ArialMT-30"/>
       <use x="111.23046875" xlink:href="#ArialMT-30"/>
       <use x="166.845703125" xlink:href="#ArialMT-30"/>
      </g>
     </g>
    </g>
    <g id="xtick_7">
     <g id="line2d_7">
      <g>
       <use style="fill:#262626;stroke:#262626;" x="414.948571429" xlink:href="#mf94070f2d1" y="346.5"/>
      </g>
     </g>
     <g id="text_7">
      <!-- 1200 -->
      <g style="fill:#262626;" transform="translate(403.826696429 360.6578125)scale(0.1 -0.1)">
       <use xlink:href="#ArialMT-31"/>
       <use x="55.615234375" xlink:href="#ArialMT-32"/>
       <use x="111.23046875" xlink:href="#ArialMT-30"/>
       <use x="166.845703125" xlink:href="#ArialMT-30"/>
      </g>
     </g>
    </g>
    <g id="xtick_8">
     <g id="line2d_8">
      <g>
       <use style="fill:#262626;stroke:#262626;" x="471.634285714" xlink:href="#mf94070f2d1" y="346.5"/>
      </g>
     </g>
     <g id="text_8">
      <!-- 1400 -->
      <g style="fill:#262626;" transform="translate(460.512410714 360.6578125)scale(0.1 -0.1)">
       <use xlink:href="#ArialMT-31"/>
       <use x="55.615234375" xlink:href="#ArialMT-34"/>
       <use x="111.23046875" xlink:href="#ArialMT-30"/>
       <use x="166.845703125" xlink:href="#ArialMT-30"/>
      </g>
     </g>
    </g>
    <g id="text_9">
     <!-- barcode, rank-ordered -->
     <defs>
      <path d="M 40.4375 19 
L 49.078125 17.875 
Q 47.65625 8.9375 41.8125 3.875 
Q 35.984375 -1.171875 27.484375 -1.171875 
Q 16.84375 -1.171875 10.375 5.78125 
Q 3.90625 12.75 3.90625 25.734375 
Q 3.90625 34.125 6.6875 40.421875 
Q 9.46875 46.734375 15.15625 49.875 
Q 20.84375 53.03125 27.546875 53.03125 
Q 35.984375 53.03125 41.359375 48.75 
Q 46.734375 44.484375 48.25 36.625 
L 39.703125 35.296875 
Q 38.484375 40.53125 35.375 43.15625 
Q 32.28125 45.796875 27.875 45.796875 
Q 21.234375 45.796875 17.078125 41.03125 
Q 12.9375 36.28125 12.9375 25.984375 
Q 12.9375 15.53125 16.9375 10.796875 
Q 20.953125 6.0625 27.390625 6.0625 
Q 32.5625 6.0625 36.03125 9.234375 
Q 39.5 12.40625 40.4375 19 
" id="ArialMT-63"/>
      <path d="M 14.703125 0 
L 6.546875 0 
L 6.546875 71.578125 
L 15.328125 71.578125 
L 15.328125 46.046875 
Q 20.90625 53.03125 29.546875 53.03125 
Q 34.328125 53.03125 38.59375 51.09375 
Q 42.875 49.171875 45.625 45.671875 
Q 48.390625 42.1875 49.953125 37.25 
Q 51.515625 32.328125 51.515625 26.703125 
Q 51.515625 13.375 44.921875 6.09375 
Q 38.328125 -1.171875 29.109375 -1.171875 
Q 19.921875 -1.171875 14.703125 6.5 
z
M 14.59375 26.3125 
Q 14.59375 17 17.140625 12.84375 
Q 21.296875 6.0625 28.375 6.0625 
Q 34.125 6.0625 38.328125 11.0625 
Q 42.53125 16.0625 42.53125 25.984375 
Q 42.53125 36.140625 38.5 40.96875 
Q 34.46875 45.796875 28.765625 45.796875 
Q 23 45.796875 18.796875 40.796875 
Q 14.59375 35.796875 14.59375 26.3125 
" id="ArialMT-62"/>
      <path d="M 40.4375 6.390625 
Q 35.546875 2.25 31.03125 0.53125 
Q 26.515625 -1.171875 21.34375 -1.171875 
Q 12.796875 -1.171875 8.203125 3 
Q 3.609375 7.171875 3.609375 13.671875 
Q 3.609375 17.484375 5.34375 20.625 
Q 7.078125 23.78125 9.890625 25.6875 
Q 12.703125 27.59375 16.21875 28.5625 
Q 18.796875 29.25 24.03125 29.890625 
Q 34.671875 31.15625 39.703125 32.90625 
Q 39.75 34.71875 39.75 35.203125 
Q 39.75 40.578125 37.25 42.78125 
Q 33.890625 45.75 27.25 45.75 
Q 21.046875 45.75 18.09375 43.578125 
Q 15.140625 41.40625 13.71875 35.890625 
L 5.125 37.0625 
Q 6.296875 42.578125 8.984375 45.96875 
Q 11.671875 49.359375 16.75 51.1875 
Q 21.828125 53.03125 28.515625 53.03125 
Q 35.15625 53.03125 39.296875 51.46875 
Q 43.453125 49.90625 45.40625 47.53125 
Q 47.359375 45.171875 48.140625 41.546875 
Q 48.578125 39.3125 48.578125 33.453125 
L 48.578125 21.734375 
Q 48.578125 9.46875 49.140625 6.21875 
Q 49.703125 2.984375 51.375 0 
L 42.1875 0 
Q 40.828125 2.734375 40.4375 6.390625 
M 39.703125 26.03125 
Q 34.90625 24.078125 25.34375 22.703125 
Q 19.921875 21.921875 17.671875 20.9375 
Q 15.4375 19.96875 14.203125 18.09375 
Q 12.984375 16.21875 12.984375 13.921875 
Q 12.984375 10.40625 15.640625 8.0625 
Q 18.3125 5.71875 23.4375 5.71875 
Q 28.515625 5.71875 32.46875 7.9375 
Q 36.421875 10.15625 38.28125 14.015625 
Q 39.703125 17 39.703125 22.796875 
z
" id="ArialMT-61"/>
      <path d="M 42.09375 16.703125 
L 51.171875 15.578125 
Q 49.03125 7.625 43.21875 3.21875 
Q 37.40625 -1.171875 28.375 -1.171875 
Q 17 -1.171875 10.328125 5.828125 
Q 3.65625 12.84375 3.65625 25.484375 
Q 3.65625 38.578125 10.390625 45.796875 
Q 17.140625 53.03125 27.875 53.03125 
Q 38.28125 53.03125 44.875 45.953125 
Q 51.46875 38.875 51.46875 26.03125 
Q 51.46875 25.25 51.421875 23.6875 
L 12.75 23.6875 
Q 13.234375 15.140625 17.578125 10.59375 
Q 21.921875 6.0625 28.421875 6.0625 
Q 33.25 6.0625 36.671875 8.59375 
Q 40.09375 11.140625 42.09375 16.703125 
M 13.234375 30.90625 
L 42.1875 30.90625 
Q 41.609375 37.453125 38.875 40.71875 
Q 34.671875 45.796875 27.984375 45.796875 
Q 21.921875 45.796875 17.796875 41.75 
Q 13.671875 37.703125 13.234375 30.90625 
" id="ArialMT-65"/>
      <path d="M 40.234375 0 
L 40.234375 6.546875 
Q 35.296875 -1.171875 25.734375 -1.171875 
Q 19.53125 -1.171875 14.328125 2.25 
Q 9.125 5.671875 6.265625 11.796875 
Q 3.421875 17.921875 3.421875 25.875 
Q 3.421875 33.640625 6 39.96875 
Q 8.59375 46.296875 13.765625 49.65625 
Q 18.953125 53.03125 25.34375 53.03125 
Q 30.03125 53.03125 33.6875 51.046875 
Q 37.359375 49.078125 39.65625 45.90625 
L 39.65625 71.578125 
L 48.390625 71.578125 
L 48.390625 0 
z
M 12.453125 25.875 
Q 12.453125 15.921875 16.640625 10.984375 
Q 20.84375 6.0625 26.5625 6.0625 
Q 32.328125 6.0625 36.34375 10.765625 
Q 40.375 15.484375 40.375 25.140625 
Q 40.375 35.796875 36.265625 40.765625 
Q 32.171875 45.75 26.171875 45.75 
Q 20.3125 45.75 16.375 40.96875 
Q 12.453125 36.1875 12.453125 25.875 
" id="ArialMT-64"/>
      <path d="M 3.171875 21.484375 
L 3.171875 30.328125 
L 30.171875 30.328125 
L 30.171875 21.484375 
z
" id="ArialMT-2d"/>
      <path d="M 8.890625 0 
L 8.890625 10.015625 
L 18.890625 10.015625 
L 18.890625 0 
Q 18.890625 -5.515625 16.9375 -8.90625 
Q 14.984375 -12.3125 10.75 -14.15625 
L 8.296875 -10.40625 
Q 11.078125 -9.1875 12.390625 -6.8125 
Q 13.71875 -4.4375 13.875 0 
z
" id="ArialMT-2c"/>
      <path d="M 6.5 0 
L 6.5 51.859375 
L 14.40625 51.859375 
L 14.40625 44 
Q 17.4375 49.515625 20 51.265625 
Q 22.5625 53.03125 25.640625 53.03125 
Q 30.078125 53.03125 34.671875 50.203125 
L 31.640625 42.046875 
Q 28.421875 43.953125 25.203125 43.953125 
Q 22.3125 43.953125 20.015625 42.21875 
Q 17.71875 40.484375 16.75 37.40625 
Q 15.28125 32.71875 15.28125 27.15625 
L 15.28125 0 
z
" id="ArialMT-72"/>
      <path d="M 6.640625 0 
L 6.640625 71.578125 
L 15.4375 71.578125 
L 15.4375 30.765625 
L 36.234375 51.859375 
L 47.609375 51.859375 
L 27.78125 32.625 
L 49.609375 0 
L 38.765625 0 
L 21.625 26.515625 
L 15.4375 20.5625 
L 15.4375 0 
z
" id="ArialMT-6b"/>
      <path d="M 3.328125 25.921875 
Q 3.328125 40.328125 11.328125 47.265625 
Q 18.015625 53.03125 27.640625 53.03125 
Q 38.328125 53.03125 45.109375 46.015625 
Q 51.90625 39.015625 51.90625 26.65625 
Q 51.90625 16.65625 48.90625 10.90625 
Q 45.90625 5.171875 40.15625 2 
Q 34.421875 -1.171875 27.640625 -1.171875 
Q 16.75 -1.171875 10.03125 5.8125 
Q 3.328125 12.796875 3.328125 25.921875 
M 12.359375 25.921875 
Q 12.359375 15.96875 16.703125 11.015625 
Q 21.046875 6.0625 27.640625 6.0625 
Q 34.1875 6.0625 38.53125 11.03125 
Q 42.875 16.015625 42.875 26.21875 
Q 42.875 35.84375 38.5 40.796875 
Q 34.125 45.75 27.640625 45.75 
Q 21.046875 45.75 16.703125 40.8125 
Q 12.359375 35.890625 12.359375 25.921875 
" id="ArialMT-6f"/>
      <path d="M 6.59375 0 
L 6.59375 51.859375 
L 14.5 51.859375 
L 14.5 44.484375 
Q 20.21875 53.03125 31 53.03125 
Q 35.6875 53.03125 39.625 51.34375 
Q 43.5625 49.65625 45.515625 46.921875 
Q 47.46875 44.1875 48.25 40.4375 
Q 48.734375 37.984375 48.734375 31.890625 
L 48.734375 0 
L 39.9375 0 
L 39.9375 31.546875 
Q 39.9375 36.921875 38.90625 39.578125 
Q 37.890625 42.234375 35.28125 43.8125 
Q 32.671875 45.40625 29.15625 45.40625 
Q 23.53125 45.40625 19.453125 41.84375 
Q 15.375 38.28125 15.375 28.328125 
L 15.375 0 
z
" id="ArialMT-6e"/>
      <path id="ArialMT-20"/>
     </defs>
     <g style="fill:#262626;" transform="translate(240.785234375 375.51890625)scale(0.11 -0.11)">
      <use xlink:href="#ArialMT-62"/>
      <use x="55.615234375" xlink:href="#ArialMT-61"/>
      <use x="111.23046875" xlink:href="#ArialMT-72"/>
      <use x="144.53125" xlink:href="#ArialMT-63"/>
      <use x="194.53125" xlink:href="#ArialMT-6f"/>
      <use x="250.146484375" xlink:href="#ArialMT-64"/>
      <use x="305.76171875" xlink:href="#ArialMT-65"/>
      <use x="361.376953125" xlink:href="#ArialMT-2c"/>
      <use x="389.16015625" xlink:href="#ArialMT-20"/>
      <use x="416.943359375" xlink:href="#ArialMT-72"/>
      <use x="450.244140625" xlink:href="#ArialMT-61"/>
      <use x="505.859375" xlink:href="#ArialMT-6e"/>
      <use x="561.474609375" xlink:href="#ArialMT-6b"/>
      <use x="611.474609375" xlink:href="#ArialMT-2d"/>
      <use x="644.775390625" xlink:href="#ArialMT-6f"/>
      <use x="700.390625" xlink:href="#ArialMT-72"/>
      <use x="733.69140625" xlink:href="#ArialMT-64"/>
      <use x="789.306640625" xlink:href="#ArialMT-65"/>
      <use x="844.921875" xlink:href="#ArialMT-72"/>
      <use x="878.22265625" xlink:href="#ArialMT-65"/>
      <use x="933.837890625" xlink:href="#ArialMT-64"/>
     </g>
    </g>
   </g>
   <g id="matplotlib.axis_2">
    <g id="ytick_1">
     <g id="line2d_9">
      <defs>
       <path d="M 0 0 
L -5 0 
" id="mf456268d2f" style="stroke:#262626;"/>
      </defs>
      <g>
       <use style="fill:#262626;stroke:#262626;" x="72.0" xlink:href="#mf456268d2f" y="346.5"/>
      </g>
     </g>
     <g id="text_10">
      <!-- 1 -->
      <g style="fill:#262626;" transform="translate(59.4390625 349.08515625)scale(0.1 -0.1)">
       <use xlink:href="#ArialMT-31"/>
      </g>
     </g>
    </g>
    <g id="ytick_2">
     <g id="line2d_10">
      <g>
       <use style="fill:#262626;stroke:#262626;" x="72.0" xlink:href="#mf456268d2f" y="273.553994151"/>
      </g>
     </g>
     <g id="text_11">
      <!-- 10 -->
      <g style="fill:#262626;" transform="translate(53.878125 276.139150401)scale(0.1 -0.1)">
       <use xlink:href="#ArialMT-31"/>
       <use x="55.615234375" xlink:href="#ArialMT-30"/>
      </g>
     </g>
    </g>
    <g id="ytick_3">
     <g id="line2d_11">
      <g>
       <use style="fill:#262626;stroke:#262626;" x="72.0" xlink:href="#mf456268d2f" y="200.607988303"/>
      </g>
     </g>
     <g id="text_12">
      <!-- 100 -->
      <g style="fill:#262626;" transform="translate(48.3171875 203.193144553)scale(0.1 -0.1)">
       <use xlink:href="#ArialMT-31"/>
       <use x="55.615234375" xlink:href="#ArialMT-30"/>
       <use x="111.23046875" xlink:href="#ArialMT-30"/>
      </g>
     </g>
    </g>
    <g id="ytick_4">
     <g id="line2d_12">
      <g>
       <use style="fill:#262626;stroke:#262626;" x="72.0" xlink:href="#mf456268d2f" y="127.661982454"/>
      </g>
     </g>
     <g id="text_13">
      <!-- 1000 -->
      <g style="fill:#262626;" transform="translate(42.75625 130.247138704)scale(0.1 -0.1)">
       <use xlink:href="#ArialMT-31"/>
       <use x="55.615234375" xlink:href="#ArialMT-30"/>
       <use x="111.23046875" xlink:href="#ArialMT-30"/>
       <use x="166.845703125" xlink:href="#ArialMT-30"/>
      </g>
     </g>
    </g>
    <g id="ytick_5">
     <g id="line2d_13">
      <g>
       <use style="fill:#262626;stroke:#262626;" x="72.0" xlink:href="#mf456268d2f" y="54.7159766057"/>
      </g>
     </g>
     <g id="text_14">
      <!-- 10000 -->
      <g style="fill:#262626;" transform="translate(37.1953125 57.3011328557)scale(0.1 -0.1)">
       <use xlink:href="#ArialMT-31"/>
       <use x="55.615234375" xlink:href="#ArialMT-30"/>
       <use x="111.23046875" xlink:href="#ArialMT-30"/>
       <use x="166.845703125" xlink:href="#ArialMT-30"/>
       <use x="222.4609375" xlink:href="#ArialMT-30"/>
      </g>
     </g>
    </g>
    <g id="text_15">
     <!-- log10 abundance (# molecules) -->
     <defs>
      <path d="M 4.984375 -4.296875 
L 13.53125 -5.5625 
Q 14.0625 -9.515625 16.5 -11.328125 
Q 19.78125 -13.765625 25.4375 -13.765625 
Q 31.546875 -13.765625 34.859375 -11.328125 
Q 38.1875 -8.890625 39.359375 -4.5 
Q 40.046875 -1.8125 39.984375 6.78125 
Q 34.234375 0 25.640625 0 
Q 14.9375 0 9.078125 7.71875 
Q 3.21875 15.4375 3.21875 26.21875 
Q 3.21875 33.640625 5.90625 39.90625 
Q 8.59375 46.1875 13.6875 49.609375 
Q 18.796875 53.03125 25.6875 53.03125 
Q 34.859375 53.03125 40.828125 45.609375 
L 40.828125 51.859375 
L 48.921875 51.859375 
L 48.921875 7.03125 
Q 48.921875 -5.078125 46.453125 -10.125 
Q 44 -15.1875 38.640625 -18.109375 
Q 33.296875 -21.046875 25.484375 -21.046875 
Q 16.21875 -21.046875 10.5 -16.875 
Q 4.78125 -12.703125 4.984375 -4.296875 
M 12.25 26.859375 
Q 12.25 16.65625 16.296875 11.96875 
Q 20.359375 7.28125 26.46875 7.28125 
Q 32.515625 7.28125 36.609375 11.9375 
Q 40.71875 16.609375 40.71875 26.5625 
Q 40.71875 36.078125 36.5 40.90625 
Q 32.28125 45.75 26.3125 45.75 
Q 20.453125 45.75 16.34375 40.984375 
Q 12.25 36.234375 12.25 26.859375 
" id="ArialMT-67"/>
      <path d="M 40.578125 0 
L 40.578125 7.625 
Q 34.515625 -1.171875 24.125 -1.171875 
Q 19.53125 -1.171875 15.546875 0.578125 
Q 11.578125 2.34375 9.640625 5 
Q 7.71875 7.671875 6.9375 11.53125 
Q 6.390625 14.109375 6.390625 19.734375 
L 6.390625 51.859375 
L 15.1875 51.859375 
L 15.1875 23.09375 
Q 15.1875 16.21875 15.71875 13.8125 
Q 16.546875 10.359375 19.234375 8.375 
Q 21.921875 6.390625 25.875 6.390625 
Q 29.828125 6.390625 33.296875 8.421875 
Q 36.765625 10.453125 38.203125 13.9375 
Q 39.65625 17.4375 39.65625 24.078125 
L 39.65625 51.859375 
L 48.4375 51.859375 
L 48.4375 0 
z
" id="ArialMT-75"/>
      <path d="M 23.390625 -21.046875 
Q 16.109375 -11.859375 11.078125 0.4375 
Q 6.0625 12.75 6.0625 25.921875 
Q 6.0625 37.546875 9.8125 48.1875 
Q 14.203125 60.546875 23.390625 72.796875 
L 29.6875 72.796875 
Q 23.78125 62.640625 21.875 58.296875 
Q 18.890625 51.5625 17.1875 44.234375 
Q 15.09375 35.109375 15.09375 25.875 
Q 15.09375 2.390625 29.6875 -21.046875 
z
" id="ArialMT-28"/>
      <path d="M 3.078125 15.484375 
L 11.765625 16.84375 
Q 12.5 11.625 15.84375 8.84375 
Q 19.1875 6.0625 25.203125 6.0625 
Q 31.25 6.0625 34.171875 8.515625 
Q 37.109375 10.984375 37.109375 14.3125 
Q 37.109375 17.28125 34.515625 19 
Q 32.71875 20.171875 25.53125 21.96875 
Q 15.875 24.421875 12.140625 26.203125 
Q 8.40625 27.984375 6.46875 31.125 
Q 4.546875 34.28125 4.546875 38.09375 
Q 4.546875 41.546875 6.125 44.5 
Q 7.71875 47.46875 10.453125 49.421875 
Q 12.5 50.921875 16.03125 51.96875 
Q 19.578125 53.03125 23.640625 53.03125 
Q 29.734375 53.03125 34.34375 51.265625 
Q 38.96875 49.515625 41.15625 46.5 
Q 43.359375 43.5 44.1875 38.484375 
L 35.59375 37.3125 
Q 35.015625 41.3125 32.203125 43.546875 
Q 29.390625 45.796875 24.265625 45.796875 
Q 18.21875 45.796875 15.625 43.796875 
Q 13.03125 41.796875 13.03125 39.109375 
Q 13.03125 37.40625 14.109375 36.03125 
Q 15.1875 34.625 17.484375 33.6875 
Q 18.796875 33.203125 25.25 31.453125 
Q 34.578125 28.953125 38.25 27.359375 
Q 41.9375 25.78125 44.03125 22.75 
Q 46.140625 19.734375 46.140625 15.234375 
Q 46.140625 10.84375 43.578125 6.953125 
Q 41.015625 3.078125 36.171875 0.953125 
Q 31.34375 -1.171875 25.25 -1.171875 
Q 15.140625 -1.171875 9.84375 3.03125 
Q 4.546875 7.234375 3.078125 15.484375 
" id="ArialMT-73"/>
      <path d="M 6.390625 0 
L 6.390625 71.578125 
L 15.1875 71.578125 
L 15.1875 0 
z
" id="ArialMT-6c"/>
      <path d="M 12.359375 -21.046875 
L 6.0625 -21.046875 
Q 20.65625 2.390625 20.65625 25.875 
Q 20.65625 35.0625 18.5625 44.09375 
Q 16.890625 51.421875 13.921875 58.15625 
Q 12.015625 62.546875 6.0625 72.796875 
L 12.359375 72.796875 
Q 21.53125 60.546875 25.921875 48.1875 
Q 29.6875 37.546875 29.6875 25.921875 
Q 29.6875 12.75 24.625 0.4375 
Q 19.578125 -11.859375 12.359375 -21.046875 
" id="ArialMT-29"/>
      <path d="M 6.59375 0 
L 6.59375 51.859375 
L 14.453125 51.859375 
L 14.453125 44.578125 
Q 16.890625 48.390625 20.9375 50.703125 
Q 25 53.03125 30.171875 53.03125 
Q 35.9375 53.03125 39.625 50.640625 
Q 43.3125 48.25 44.828125 43.953125 
Q 50.984375 53.03125 60.84375 53.03125 
Q 68.5625 53.03125 72.703125 48.75 
Q 76.859375 44.484375 76.859375 35.59375 
L 76.859375 0 
L 68.109375 0 
L 68.109375 32.671875 
Q 68.109375 37.9375 67.25 40.25 
Q 66.40625 42.578125 64.15625 43.984375 
Q 61.921875 45.40625 58.890625 45.40625 
Q 53.421875 45.40625 49.796875 41.765625 
Q 46.1875 38.140625 46.1875 30.125 
L 46.1875 0 
L 37.40625 0 
L 37.40625 33.6875 
Q 37.40625 39.546875 35.25 42.46875 
Q 33.109375 45.40625 28.21875 45.40625 
Q 24.515625 45.40625 21.359375 43.453125 
Q 18.21875 41.5 16.796875 37.734375 
Q 15.375 33.984375 15.375 26.90625 
L 15.375 0 
z
" id="ArialMT-6d"/>
      <path d="M 5.03125 -1.21875 
L 9.28125 19.578125 
L 1.03125 19.578125 
L 1.03125 26.859375 
L 10.75 26.859375 
L 14.359375 44.578125 
L 1.03125 44.578125 
L 1.03125 51.859375 
L 15.828125 51.859375 
L 20.0625 72.796875 
L 27.390625 72.796875 
L 23.140625 51.859375 
L 38.53125 51.859375 
L 42.78125 72.796875 
L 50.140625 72.796875 
L 45.90625 51.859375 
L 54.34375 51.859375 
L 54.34375 44.578125 
L 44.4375 44.578125 
L 40.765625 26.859375 
L 54.34375 26.859375 
L 54.34375 19.578125 
L 39.3125 19.578125 
L 35.0625 -1.21875 
L 27.734375 -1.21875 
L 31.9375 19.578125 
L 16.609375 19.578125 
L 12.359375 -1.21875 
z
M 18.0625 26.859375 
L 33.40625 26.859375 
L 37.0625 44.578125 
L 21.6875 44.578125 
z
" id="ArialMT-23"/>
     </defs>
     <g style="fill:#262626;" transform="translate(29.88015625 269.78875)rotate(-90.0)scale(0.11 -0.11)">
      <use xlink:href="#ArialMT-6c"/>
      <use x="22.216796875" xlink:href="#ArialMT-6f"/>
      <use x="77.83203125" xlink:href="#ArialMT-67"/>
      <use x="133.447265625" xlink:href="#ArialMT-31"/>
      <use x="189.0625" xlink:href="#ArialMT-30"/>
      <use x="244.677734375" xlink:href="#ArialMT-20"/>
      <use x="272.4609375" xlink:href="#ArialMT-61"/>
      <use x="328.076171875" xlink:href="#ArialMT-62"/>
      <use x="383.69140625" xlink:href="#ArialMT-75"/>
      <use x="439.306640625" xlink:href="#ArialMT-6e"/>
      <use x="494.921875" xlink:href="#ArialMT-64"/>
      <use x="550.537109375" xlink:href="#ArialMT-61"/>
      <use x="606.15234375" xlink:href="#ArialMT-6e"/>
      <use x="661.767578125" xlink:href="#ArialMT-63"/>
      <use x="711.767578125" xlink:href="#ArialMT-65"/>
      <use x="767.3828125" xlink:href="#ArialMT-20"/>
      <use x="795.166015625" xlink:href="#ArialMT-28"/>
      <use x="828.466796875" xlink:href="#ArialMT-23"/>
      <use x="884.08203125" xlink:href="#ArialMT-20"/>
      <use x="911.865234375" xlink:href="#ArialMT-6d"/>
      <use x="995.166015625" xlink:href="#ArialMT-6f"/>
      <use x="1050.78125" xlink:href="#ArialMT-6c"/>
      <use x="1072.99804688" xlink:href="#ArialMT-65"/>
      <use x="1128.61328125" xlink:href="#ArialMT-63"/>
      <use x="1178.61328125" xlink:href="#ArialMT-75"/>
      <use x="1234.22851562" xlink:href="#ArialMT-6c"/>
      <use x="1256.4453125" xlink:href="#ArialMT-65"/>
      <use x="1312.06054688" xlink:href="#ArialMT-73"/>
      <use x="1362.06054688" xlink:href="#ArialMT-29"/>
     </g>
    </g>
   </g>
   <g id="line2d_14">
    <path clip-path="url(#pcd22610244)" d="M 88.722286 346.5 
L 88.722286 39.6 
" style="fill:none;stroke:#808080;stroke-linecap:round;stroke-width:3.0;"/>
   </g>
   <g id="line2d_15">
    <path clip-path="url(#pcd22610244)" d="M 74.834286 60.546469 
L 75.117714 64.033162 
L 75.684571 79.275151 
L 76.251429 81.85335 
L 76.534857 82.463543 
L 76.818286 89.694788 
L 77.101714 91.231863 
L 77.385143 92.065329 
L 77.952 101.663419 
L 78.235429 102.254534 
L 78.802286 104.643831 
L 79.085714 107.178312 
L 79.369143 107.764531 
L 79.652571 107.849169 
L 79.936 110.57335 
L 80.502857 113.251046 
L 80.786286 116.110071 
L 81.069714 116.79952 
L 81.353143 116.912141 
L 81.636571 117.229624 
L 81.92 117.320921 
L 82.203429 117.596401 
L 82.486857 118.484904 
L 82.770286 118.484904 
L 83.053714 118.842605 
L 83.337143 118.938678 
L 83.904 122.445336 
L 84.187429 124.18507 
L 84.470857 124.671365 
L 85.037714 125.04834 
L 85.321143 125.077525 
L 85.604571 125.400344 
L 85.888 127.065708 
L 86.171429 127.315405 
L 86.738286 130.166075 
L 87.021714 130.441555 
L 87.305143 130.47616 
L 87.588571 130.684582 
L 87.872 132.073811 
L 88.438857 136.987672 
L 88.722286 138.82598 
L 89.289143 139.693981 
L 89.572571 140.681858 
L 90.139429 140.825532 
L 90.422857 142.198876 
L 90.706286 142.755124 
L 90.989714 143.686957 
L 91.556571 143.792207 
L 91.84 144.323763 
L 92.123429 146.200831 
L 92.406857 146.314788 
L 92.690286 146.716897 
L 92.973714 146.832729 
L 93.257143 147.89473 
L 93.824 148.623039 
L 94.107429 149.431406 
L 94.390857 149.875378 
L 94.674286 150.98023 
L 94.957714 151.179268 
L 95.241143 151.851905 
L 95.808 152.539135 
L 96.374857 152.678388 
L 96.658286 153.029223 
L 96.941714 155.144442 
L 97.225143 155.447603 
L 97.508571 157.983359 
L 97.792 158.148791 
L 98.075429 158.7347 
L 98.358857 160.027943 
L 98.642286 160.293049 
L 98.925714 160.920398 
L 99.209143 161.193111 
L 99.492571 162.025628 
L 99.776 166.55186 
L 100.059429 166.987332 
L 100.342857 170.09458 
L 100.909714 170.33734 
L 101.193143 172.61019 
L 101.476571 172.873097 
L 101.76 174.498071 
L 102.043429 177.103378 
L 102.610286 177.559214 
L 102.893714 180.274026 
L 103.177143 180.274026 
L 103.460571 181.290586 
L 103.744 183.060881 
L 104.027429 183.060881 
L 104.594286 190.866858 
L 104.877714 191.336201 
L 105.728 195.906035 
L 106.011429 202.232962 
L 106.294857 203.249522 
L 106.578286 208.479256 
L 106.861714 217.864971 
L 107.145143 219.547493 
L 107.428571 221.939576 
L 107.712 228.853859 
L 107.995429 228.853859 
L 108.278857 232.973949 
L 109.412571 239.823907 
L 109.979429 242.08773 
L 110.262857 245.819103 
L 110.829714 245.819103 
L 111.68 254.932885 
L 111.963429 262.894538 
L 112.530286 262.894538 
L 112.813714 265.242282 
L 113.097143 270.534563 
L 113.380571 273.553994 
L 113.664 273.553994 
L 113.947429 276.89182 
L 115.364571 276.89182 
L 115.648 280.623193 
L 117.348571 280.623193 
L 117.632 284.853473 
L 119.616 284.853473 
L 119.899429 289.736974 
L 123.300571 289.736974 
L 123.584 295.51293 
L 128.685714 295.51293 
L 128.969143 302.582128 
L 137.188571 302.582128 
L 137.472 311.69591 
L 157.312 311.69591 
L 157.595429 324.541064 
L 202.377143 324.541064 
L 202.660571 346.5 
L 376.118857 346.5 
L 376.118857 346.5 
" style="fill:none;opacity:0.4;stroke:#2c5ebf;stroke-linecap:round;stroke-width:2.0;"/>
   </g>
   <g id="line2d_16">
    <path clip-path="url(#pcd22610244)" d="M 93.540571 346.5 
L 93.540571 39.6 
" style="fill:none;stroke:#2c5ebf;stroke-dasharray:6.000000,6.000000;stroke-dashoffset:0.0;stroke-width:2.0;"/>
   </g>
   <g id="line2d_17">
    <path clip-path="url(#pcd22610244)" d="M 74.834286 57.682862 
L 75.117714 66.901187 
L 75.401143 69.804017 
L 75.684571 87.347044 
L 75.968 89.92498 
L 76.534857 97.833046 
L 76.818286 97.981663 
L 77.101714 99.546585 
L 77.385143 99.821666 
L 77.668571 101.691318 
L 77.952 102.155246 
L 78.235429 103.1478 
L 78.518857 103.574425 
L 78.802286 104.460533 
L 79.085714 107.128565 
L 79.369143 108.241444 
L 79.936 109.394844 
L 80.219429 109.716834 
L 80.502857 111.951371 
L 80.786286 112.772245 
L 81.353143 113.130665 
L 81.636571 113.190798 
L 81.92 115.673098 
L 82.486857 116.066102 
L 82.770286 118.366562 
L 83.337143 118.437514 
L 83.620571 118.6275 
L 83.904 121.388356 
L 84.187429 121.5708 
L 84.754286 123.289461 
L 85.037714 123.566629 
L 85.888 125.875851 
L 86.171429 125.935794 
L 86.454857 126.664103 
L 87.305143 126.75633 
L 88.438857 129.120657 
L 88.722286 130.614955 
L 89.005714 131.460746 
L 89.572571 131.71175 
L 89.856 133.526767 
L 90.139429 133.603104 
L 90.422857 135.655331 
L 90.706286 136.860357 
L 90.989714 140.254704 
L 91.273143 140.681858 
L 91.556571 140.729677 
L 92.123429 141.114849 
L 92.406857 141.849918 
L 92.690286 142.098781 
L 92.973714 144.00376 
L 93.540571 144.216736 
L 93.824 146.03066 
L 94.107429 146.087282 
L 94.390857 146.257758 
L 94.674286 146.77476 
L 94.957714 146.832729 
L 95.241143 148.439386 
L 95.524571 148.623039 
L 95.808 149.180474 
L 96.091429 149.368486 
L 96.374857 149.939313 
L 96.658286 152.678388 
L 97.225143 154.695072 
L 97.792 154.769526 
L 98.075429 155.37154 
L 98.642286 157.168917 
L 98.925714 157.249426 
L 99.209143 157.736821 
L 99.492571 158.482268 
L 99.776 158.482268 
L 100.342857 161.838724 
L 100.909714 165.909675 
L 101.193143 165.909675 
L 101.476571 168.445432 
L 102.043429 168.791665 
L 102.326857 170.09458 
L 102.893714 170.33734 
L 103.177143 170.828513 
L 103.460571 172.090834 
L 103.744 172.741371 
L 104.027429 173.9471 
L 104.877714 175.485947 
L 105.161143 175.485947 
L 105.444571 176.210923 
L 105.728 176.35793 
L 106.294857 177.103378 
L 106.861714 178.333826 
L 107.145143 178.333826 
L 107.428571 178.649052 
L 108.278857 180.948095 
L 108.845714 181.636819 
L 109.129143 183.060881 
L 109.696 183.060881 
L 109.979429 183.243476 
L 110.262857 183.243476 
L 110.546286 183.611853 
L 110.829714 183.79766 
L 111.113143 184.172576 
L 111.396571 186.317891 
L 111.68 186.724051 
L 112.246857 187.135486 
L 112.530286 187.552335 
L 112.813714 187.552335 
L 113.097143 189.948532 
L 113.380571 190.866858 
L 113.664 191.336201 
L 114.230857 192.787449 
L 114.514286 192.787449 
L 114.797714 193.286358 
L 115.081143 194.04977 
L 115.648 194.04977 
L 116.214857 194.569126 
L 116.498286 194.569126 
L 117.065143 195.097139 
L 117.915429 197.301858 
L 118.198857 197.588557 
L 118.482286 198.464559 
L 118.765714 199.98064 
L 119.049143 199.98064 
L 119.616 201.572937 
L 120.182857 202.232962 
L 120.466286 202.907031 
L 120.749714 202.907031 
L 121.033143 203.249522 
L 121.316571 203.945814 
L 121.6 204.299785 
L 121.883429 205.019817 
L 122.166857 205.019817 
L 122.450286 205.386065 
L 123.017143 205.386065 
L 123.300571 206.131512 
L 123.867429 206.131512 
L 124.150857 207.283641 
L 124.717714 208.075683 
L 125.284571 208.075683 
L 125.851429 208.888037 
L 126.134857 208.888037 
L 126.418286 209.302161 
L 126.701714 210.147012 
L 127.552 210.147012 
L 127.835429 210.57804 
L 128.118857 211.458098 
L 128.402286 211.458098 
L 128.685714 211.907468 
L 128.969143 211.907468 
L 129.252571 212.363303 
L 129.536 212.363303 
L 129.819429 212.825794 
L 130.102857 212.825794 
L 130.669714 213.771537 
L 130.953143 213.771537 
L 131.236571 214.255212 
L 131.803429 214.255212 
L 132.653714 215.752185 
L 133.504 215.752185 
L 133.787429 216.267319 
L 134.070857 216.267319 
L 134.354286 216.790968 
L 134.637714 216.790968 
L 134.921143 217.323419 
L 135.488 217.323419 
L 136.054857 218.415943 
L 136.621714 218.415943 
L 136.905143 218.976666 
L 137.472 218.976666 
L 137.755429 219.547493 
L 138.605714 219.547493 
L 138.889143 220.720962 
L 139.172571 220.720962 
L 139.456 221.32441 
L 140.306286 221.32441 
L 140.589714 221.939576 
L 141.44 221.939576 
L 141.723429 222.566924 
L 142.857143 222.566924 
L 143.140571 223.206947 
L 143.707429 223.206947 
L 143.990857 223.860167 
L 144.557714 223.860167 
L 144.841143 224.52714 
L 146.825143 224.52714 
L 147.108571 225.208457 
L 147.675429 225.208457 
L 147.958857 225.90475 
L 149.092571 225.90475 
L 149.376 226.616691 
L 149.659429 226.616691 
L 149.942857 227.345 
L 151.076571 227.345 
L 151.36 228.090448 
L 152.210286 228.090448 
L 152.493714 228.853859 
L 154.477714 228.853859 
L 154.761143 229.636123 
L 155.328 229.636123 
L 155.611429 230.438192 
L 156.461714 230.438192 
L 156.745143 231.261097 
L 157.028571 231.261097 
L 157.312 232.105948 
L 159.012571 232.105948 
L 159.296 232.973949 
L 161.28 232.973949 
L 161.563429 233.866403 
L 162.413714 233.866403 
L 162.697143 234.78473 
L 163.830857 234.78473 
L 164.114286 235.730473 
L 164.681143 235.730473 
L 164.964571 236.705321 
L 166.098286 236.705321 
L 166.381714 237.711121 
L 169.216 237.711121 
L 169.499429 238.749904 
L 171.766857 238.749904 
L 172.050286 239.823907 
L 174.317714 239.823907 
L 174.601143 240.935602 
L 175.451429 240.935602 
L 175.734857 242.08773 
L 177.718857 242.08773 
L 178.002286 243.283346 
L 180.836571 243.283346 
L 181.12 244.52586 
L 183.104 244.52586 
L 183.387429 245.819103 
L 185.088 245.819103 
L 185.371429 247.167393 
L 187.638857 247.167393 
L 187.922286 248.575627 
L 190.756571 248.575627 
L 191.04 250.049384 
L 194.441143 250.049384 
L 194.724571 251.595058 
L 196.425143 251.595058 
L 196.708571 253.220032 
L 201.243429 253.220032 
L 201.526857 254.932885 
L 205.494857 254.932885 
L 205.778286 256.743666 
L 207.762286 256.743666 
L 208.045714 258.664257 
L 212.013714 258.664257 
L 212.297143 260.70884 
L 216.548571 260.70884 
L 216.832 262.894538 
L 219.666286 262.894538 
L 219.949714 265.242282 
L 224.768 265.242282 
L 225.051429 267.778039 
L 228.736 267.778039 
L 229.019429 270.534563 
L 234.688 270.534563 
L 234.971429 273.553994 
L 239.222857 273.553994 
L 239.506286 276.89182 
L 247.442286 276.89182 
L 247.725714 280.623193 
L 253.677714 280.623193 
L 253.961143 284.853473 
L 261.613714 284.853473 
L 261.897143 289.736974 
L 271.817143 289.736974 
L 272.100571 295.51293 
L 283.437714 295.51293 
L 283.721143 302.582128 
L 297.042286 302.582128 
L 297.325714 311.69591 
L 319.433143 311.69591 
L 319.716571 324.541064 
L 354.861714 324.541064 
L 355.145143 346.5 
L 518.116571 346.5 
L 518.116571 346.5 
" style="fill:none;opacity:0.4;stroke:#ff1313;stroke-linecap:round;stroke-width:2.0;"/>
   </g>
   <g id="line2d_18">
    <path clip-path="url(#pcd22610244)" d="M 98.642286 346.5 
L 98.642286 39.6 
" style="fill:none;stroke:#ff1313;stroke-dasharray:6.000000,6.000000;stroke-dashoffset:0.0;stroke-width:2.0;"/>
   </g>
   <g id="line2d_19">
    <path clip-path="url(#pcd22610244)" d="M 74.834286 54.101054 
L 75.117714 74.049603 
L 75.401143 90.488282 
L 75.684571 91.870248 
L 75.968 99.35155 
L 76.534857 101.454951 
L 76.818286 103.752653 
L 77.101714 104.659154 
L 77.385143 106.278482 
L 78.235429 107.178312 
L 78.518857 112.633947 
L 79.085714 114.901421 
L 79.369143 126.48045 
L 79.652571 127.757165 
L 79.936 128.205174 
L 80.219429 129.487676 
L 80.786286 130.200379 
L 81.353143 135.942031 
L 81.636571 141.406833 
L 82.203429 142.959842 
L 82.486857 146.03066 
L 82.770286 146.543939 
L 83.053714 149.055749 
L 83.620571 157.168917 
L 83.904 158.398569 
L 84.187429 158.482268 
L 84.470857 160.204434 
L 84.754286 160.920398 
L 85.037714 162.593047 
L 85.321143 166.877901 
L 85.604571 167.540226 
L 86.171429 178.80785 
L 86.454857 179.942295 
L 86.738286 180.107727 
L 87.021714 183.611853 
L 87.305143 184.361711 
L 87.588571 189.72305 
L 87.872 192.053516 
L 88.155429 205.386065 
L 88.722286 216.267319 
L 89.572571 248.575627 
L 89.856 250.049384 
L 90.139429 256.743666 
L 90.422857 270.534563 
L 90.706286 276.89182 
L 90.989714 280.623193 
L 91.273143 280.623193 
L 91.84 289.736974 
L 93.824 289.736974 
L 94.107429 295.51293 
L 97.792 295.51293 
L 98.075429 302.582128 
L 103.460571 302.582128 
L 103.744 311.69591 
L 113.664 311.69591 
L 113.947429 324.541064 
L 140.589714 324.541064 
L 140.873143 346.5 
L 221.366857 346.5 
L 221.366857 346.5 
" style="fill:none;opacity:0.4;stroke:#f7b02a;stroke-linecap:round;stroke-width:2.0;"/>
   </g>
   <g id="line2d_20">
    <path clip-path="url(#pcd22610244)" d="M 81.92 346.5 
L 81.92 39.6 
" style="fill:none;stroke:#f7b02a;stroke-dasharray:6.000000,6.000000;stroke-dashoffset:0.0;stroke-width:2.0;"/>
   </g>
   <g id="line2d_21">
    <path clip-path="url(#pcd22610244)" d="M 74.834286 68.686519 
L 75.117714 85.975098 
L 75.401143 92.044737 
L 75.684571 93.304547 
L 75.968 93.325974 
L 76.251429 93.811957 
L 76.534857 96.407626 
L 76.818286 96.537827 
L 77.101714 96.919662 
L 77.668571 98.155935 
L 77.952 99.131952 
L 78.235429 100.513282 
L 78.518857 105.497793 
L 78.802286 106.101543 
L 79.085714 109.824896 
L 79.652571 113.594629 
L 79.936 117.897567 
L 80.219429 118.842605 
L 80.502857 121.991803 
L 80.786286 123.706127 
L 81.636571 125.696698 
L 81.92 125.786148 
L 82.203429 126.297856 
L 82.486857 126.389021 
L 82.770286 126.63342 
L 83.053714 127.948394 
L 83.337143 128.561679 
L 83.620571 130.964628 
L 84.187429 133.147814 
L 84.470857 136.148416 
L 85.037714 136.691397 
L 85.321143 138.646235 
L 85.604571 139.14301 
L 85.888 139.18856 
L 86.171429 142.098781 
L 86.738286 144.163358 
L 87.021714 144.216736 
L 87.305143 144.701232 
L 87.588571 147.24151 
L 87.872 147.30034 
L 88.438857 149.811571 
L 88.722286 150.003378 
L 89.289143 151.71623 
L 89.572571 155.523848 
L 90.139429 156.532111 
L 90.422857 157.655066 
L 90.706286 158.065967 
L 90.989714 162.402775 
L 91.273143 163.660469 
L 91.556571 165.488672 
L 91.84 173.005373 
L 92.123429 174.777192 
L 92.406857 178.967448 
L 92.973714 181.636819 
L 93.257143 181.986879 
L 93.540571 181.986879 
L 93.824 182.519329 
L 94.107429 182.519329 
L 94.390857 184.551982 
L 94.674286 185.718251 
L 94.957714 188.402857 
L 95.241143 189.056077 
L 95.524571 191.573506 
L 95.808 195.364483 
L 96.091429 195.906035 
L 96.374857 199.062314 
L 96.658286 213.295137 
L 96.941714 216.267319 
L 97.225143 217.864971 
L 97.508571 225.208457 
L 98.358857 234.78473 
L 99.209143 260.70884 
L 99.492571 260.70884 
L 99.776 262.894538 
L 100.342857 262.894538 
L 100.626286 267.778039 
L 101.193143 267.778039 
L 101.476571 270.534563 
L 101.76 276.89182 
L 102.893714 276.89182 
L 103.177143 280.623193 
L 104.877714 280.623193 
L 105.161143 284.853473 
L 107.712 284.853473 
L 107.995429 289.736974 
L 112.813714 289.736974 
L 113.097143 295.51293 
L 119.049143 295.51293 
L 119.332571 302.582128 
L 130.669714 302.582128 
L 130.953143 311.69591 
L 146.825143 311.69591 
L 147.108571 324.541064 
L 190.756571 324.541064 
L 191.04 346.5 
L 304.128 346.5 
L 304.128 346.5 
" style="fill:none;opacity:0.4;stroke:#02b72a;stroke-linecap:round;stroke-width:2.0;"/>
   </g>
   <g id="line2d_22">
    <path clip-path="url(#pcd22610244)" d="M 90.989714 346.5 
L 90.989714 39.6 
" style="fill:none;stroke:#02b72a;stroke-dasharray:6.000000,6.000000;stroke-dashoffset:0.0;stroke-width:2.0;"/>
   </g>
   <g id="line2d_23">
    <path clip-path="url(#pcd22610244)" d="M 74.834286 51.811956 
L 75.117714 52.407178 
L 75.401143 56.068675 
L 75.684571 61.360355 
L 75.968 72.898516 
L 76.251429 78.831206 
L 76.534857 80.616863 
L 76.818286 83.15561 
L 77.385143 91.71708 
L 77.668571 94.784424 
L 77.952 99.834825 
L 78.235429 106.996289 
L 78.802286 110.814405 
L 79.369143 122.823771 
L 79.652571 136.356155 
L 80.219429 144.110069 
L 80.502857 159.24568 
L 80.786286 165.280249 
L 81.069714 166.987332 
L 81.353143 169.853666 
L 81.636571 171.579854 
L 81.92 172.349448 
L 82.203429 177.559214 
L 82.486857 179.942295 
L 82.770286 180.274026 
L 83.053714 187.343225 
L 83.337143 188.188076 
L 83.620571 190.634769 
L 84.187429 192.787449 
L 84.470857 197.588557 
L 84.754286 239.823907 
L 85.037714 247.167393 
L 85.604571 250.049384 
L 85.888 253.220032 
L 86.171429 254.932885 
L 86.454857 254.932885 
L 86.738286 260.70884 
L 87.021714 260.70884 
L 87.305143 262.894538 
L 87.588571 262.894538 
L 87.872 265.242282 
L 88.438857 265.242282 
L 88.722286 267.778039 
L 89.005714 267.778039 
L 89.289143 270.534563 
L 90.422857 270.534563 
L 90.706286 273.553994 
L 91.273143 273.553994 
L 91.556571 276.89182 
L 92.690286 276.89182 
L 92.973714 280.623193 
L 94.390857 280.623193 
L 94.674286 284.853473 
L 95.808 284.853473 
L 96.091429 289.736974 
L 97.792 289.736974 
L 98.075429 295.51293 
L 100.909714 295.51293 
L 101.193143 302.582128 
L 107.428571 302.582128 
L 107.712 311.69591 
L 117.348571 311.69591 
L 117.632 324.541064 
L 137.188571 324.541064 
L 137.472 346.5 
L 194.157714 346.5 
L 194.157714 346.5 
" style="fill:none;opacity:0.4;stroke:#009e9e;stroke-linecap:round;stroke-width:2.0;"/>
   </g>
   <g id="line2d_24">
    <path clip-path="url(#pcd22610244)" d="M 79.369143 346.5 
L 79.369143 39.6 
" style="fill:none;stroke:#009e9e;stroke-dasharray:6.000000,6.000000;stroke-dashoffset:0.0;stroke-width:2.0;"/>
   </g>
   <g id="line2d_25">
    <path clip-path="url(#pcd22610244)" d="M 74.834286 68.110768 
L 75.117714 71.690197 
L 75.401143 71.978422 
L 75.684571 74.301382 
L 75.968 74.942725 
L 76.251429 75.256212 
L 76.534857 79.323334 
L 76.818286 80.19631 
L 77.101714 86.119892 
L 77.385143 87.874982 
L 77.668571 88.146838 
L 77.952 89.838462 
L 78.235429 90.137469 
L 78.518857 91.554514 
L 78.802286 92.261619 
L 79.085714 95.69516 
L 79.369143 96.101991 
L 79.652571 97.11232 
L 79.936 98.939446 
L 80.219429 99.520511 
L 80.502857 100.987442 
L 80.786286 103.118589 
L 81.069714 103.235597 
L 81.636571 105.184591 
L 81.92 107.680118 
L 82.203429 108.155752 
L 82.486857 108.952995 
L 82.770286 110.795797 
L 83.053714 111.264307 
L 83.620571 115.092586 
L 83.904 115.847165 
L 84.187429 120.466317 
L 84.470857 121.754301 
L 85.037714 125.756303 
L 85.321143 127.40955 
L 85.604571 129.825059 
L 85.888 131.1763 
L 86.171429 131.211716 
L 86.454857 132.219803 
L 86.738286 132.476918 
L 87.305143 142.908538 
L 87.588571 143.897807 
L 87.872 148.439386 
L 88.155429 150.067573 
L 88.438857 156.848914 
L 88.722286 157.900967 
L 89.005714 157.983359 
L 89.572571 165.17655 
L 89.856 165.384289 
L 90.706286 182.69882 
L 90.989714 182.879333 
L 91.273143 184.743403 
L 91.84 189.276845 
L 92.406857 190.17563 
L 92.690286 194.04977 
L 93.540571 199.365474 
L 93.824 200.292761 
L 94.107429 202.232962 
L 94.390857 202.568204 
L 94.674286 203.249522 
L 95.241143 205.756596 
L 95.808 205.756596 
L 96.374857 206.510918 
L 96.658286 206.510918 
L 96.941714 207.283641 
L 97.225143 207.283641 
L 97.508571 208.075683 
L 97.792 208.075683 
L 98.075429 208.479256 
L 98.642286 208.479256 
L 98.925714 208.888037 
L 99.209143 209.72177 
L 99.492571 209.72177 
L 99.776 210.147012 
L 100.342857 210.147012 
L 100.626286 210.57804 
L 100.909714 210.57804 
L 101.476571 211.458098 
L 101.76 213.295137 
L 102.043429 214.255212 
L 102.326857 214.255212 
L 103.177143 215.752185 
L 103.744 215.752185 
L 104.310857 216.790968 
L 104.594286 218.415943 
L 104.877714 218.976666 
L 105.161143 218.976666 
L 106.011429 220.720962 
L 106.578286 220.720962 
L 106.861714 221.32441 
L 107.145143 221.32441 
L 107.428571 221.939576 
L 108.278857 221.939576 
L 108.562286 222.566924 
L 109.696 222.566924 
L 109.979429 223.206947 
L 110.546286 223.206947 
L 111.113143 224.52714 
L 111.396571 225.90475 
L 111.963429 225.90475 
L 112.246857 226.616691 
L 112.530286 226.616691 
L 112.813714 227.345 
L 113.380571 227.345 
L 113.664 228.090448 
L 113.947429 229.636123 
L 114.230857 229.636123 
L 114.514286 230.438192 
L 115.648 230.438192 
L 115.931429 231.261097 
L 116.214857 231.261097 
L 116.498286 232.973949 
L 117.348571 232.973949 
L 117.632 233.866403 
L 118.198857 233.866403 
L 118.482286 234.78473 
L 119.049143 234.78473 
L 119.332571 235.730473 
L 119.616 235.730473 
L 119.899429 236.705321 
L 121.316571 236.705321 
L 121.6 237.711121 
L 122.733714 237.711121 
L 123.017143 238.749904 
L 123.584 238.749904 
L 123.867429 239.823907 
L 124.434286 239.823907 
L 125.001143 242.08773 
L 126.418286 242.08773 
L 126.701714 243.283346 
L 127.552 243.283346 
L 127.835429 244.52586 
L 128.969143 244.52586 
L 129.252571 245.819103 
L 130.102857 245.819103 
L 130.386286 247.167393 
L 130.953143 247.167393 
L 131.236571 248.575627 
L 132.086857 248.575627 
L 132.370286 250.049384 
L 132.937143 250.049384 
L 133.220571 251.595058 
L 133.787429 251.595058 
L 134.070857 253.220032 
L 134.637714 253.220032 
L 134.921143 254.932885 
L 135.488 254.932885 
L 135.771429 256.743666 
L 138.038857 256.743666 
L 138.322286 258.664257 
L 139.456 258.664257 
L 139.739429 260.70884 
L 141.156571 260.70884 
L 141.44 262.894538 
L 142.290286 262.894538 
L 142.573714 265.242282 
L 145.408 265.242282 
L 145.691429 267.778039 
L 146.258286 267.778039 
L 146.541714 270.534563 
L 149.376 270.534563 
L 149.659429 273.553994 
L 151.36 273.553994 
L 151.643429 276.89182 
L 154.477714 276.89182 
L 154.761143 280.623193 
L 157.312 280.623193 
L 157.595429 284.853473 
L 159.579429 284.853473 
L 159.862857 289.736974 
L 162.980571 289.736974 
L 163.264 295.51293 
L 166.098286 295.51293 
L 166.381714 302.582128 
L 175.734857 302.582128 
L 176.018286 311.69591 
L 186.221714 311.69591 
L 186.505143 324.541064 
L 206.912 324.541064 
L 207.195429 346.5 
L 307.245714 346.5 
L 307.245714 346.5 
" style="fill:none;opacity:0.4;stroke:#1d1aa9;stroke-linecap:round;stroke-width:2.0;"/>
   </g>
   <g id="line2d_26">
    <path clip-path="url(#pcd22610244)" d="M 87.872 346.5 
L 87.872 39.6 
" style="fill:none;stroke:#1d1aa9;stroke-dasharray:6.000000,6.000000;stroke-dashoffset:0.0;stroke-width:2.0;"/>
   </g>
   <g id="patch_3">
    <path d="M 72 39.6 
L 518.4 39.6 
" style="fill:none;stroke:#262626;stroke-linecap:square;stroke-linejoin:miter;stroke-width:1.25;"/>
   </g>
   <g id="patch_4">
    <path d="M 518.4 346.5 
L 518.4 39.6 
" style="fill:none;stroke:#262626;stroke-linecap:square;stroke-linejoin:miter;stroke-width:1.25;"/>
   </g>
   <g id="patch_5">
    <path d="M 72 346.5 
L 518.4 346.5 
" style="fill:none;stroke:#262626;stroke-linecap:square;stroke-linejoin:miter;stroke-width:1.25;"/>
   </g>
   <g id="patch_6">
    <path d="M 72 346.5 
L 72 39.6 
" style="fill:none;stroke:#262626;stroke-linecap:square;stroke-linejoin:miter;stroke-width:1.25;"/>
   </g>
   <g id="text_16">
    <!-- B6 4wks naive Spleen -->
    <defs>
     <path d="M 16.15625 0 
L 0.296875 51.859375 
L 9.375 51.859375 
L 17.625 21.921875 
L 20.703125 10.796875 
Q 20.90625 11.625 23.390625 21.484375 
L 31.640625 51.859375 
L 40.671875 51.859375 
L 48.4375 21.78125 
L 51.03125 11.859375 
L 54 21.875 
L 62.890625 51.859375 
L 71.4375 51.859375 
L 55.21875 0 
L 46.09375 0 
L 37.84375 31.0625 
L 35.84375 39.890625 
L 25.34375 0 
z
" id="ArialMT-77"/>
     <path d="M 4.5 23 
L 13.421875 23.78125 
Q 14.0625 18.40625 16.375 14.96875 
Q 18.703125 11.53125 23.578125 9.40625 
Q 28.46875 7.28125 34.578125 7.28125 
Q 39.984375 7.28125 44.140625 8.890625 
Q 48.296875 10.5 50.3125 13.296875 
Q 52.34375 16.109375 52.34375 19.4375 
Q 52.34375 22.796875 50.390625 25.3125 
Q 48.4375 27.828125 43.953125 29.546875 
Q 41.0625 30.671875 31.203125 33.03125 
Q 21.34375 35.40625 17.390625 37.5 
Q 12.25 40.1875 9.734375 44.15625 
Q 7.234375 48.140625 7.234375 53.078125 
Q 7.234375 58.5 10.296875 63.203125 
Q 13.375 67.921875 19.28125 70.359375 
Q 25.203125 72.796875 32.421875 72.796875 
Q 40.375 72.796875 46.453125 70.234375 
Q 52.546875 67.671875 55.8125 62.6875 
Q 59.078125 57.71875 59.328125 51.421875 
L 50.25 50.734375 
Q 49.515625 57.515625 45.28125 60.984375 
Q 41.0625 64.453125 32.8125 64.453125 
Q 24.21875 64.453125 20.28125 61.296875 
Q 16.359375 58.15625 16.359375 53.71875 
Q 16.359375 49.859375 19.140625 47.359375 
Q 21.875 44.875 33.421875 42.265625 
Q 44.96875 39.65625 49.265625 37.703125 
Q 55.515625 34.8125 58.484375 30.390625 
Q 61.46875 25.984375 61.46875 20.21875 
Q 61.46875 14.5 58.203125 9.4375 
Q 54.9375 4.390625 48.796875 1.578125 
Q 42.671875 -1.21875 35.015625 -1.21875 
Q 25.296875 -1.21875 18.71875 1.609375 
Q 12.15625 4.4375 8.421875 10.125 
Q 4.6875 15.828125 4.5 23 
" id="ArialMT-53"/>
     <path d="M 6.640625 61.46875 
L 6.640625 71.578125 
L 15.4375 71.578125 
L 15.4375 61.46875 
z
M 6.640625 0 
L 6.640625 51.859375 
L 15.4375 51.859375 
L 15.4375 0 
z
" id="ArialMT-69"/>
     <path d="M 7.328125 0 
L 7.328125 71.578125 
L 34.1875 71.578125 
Q 42.390625 71.578125 47.34375 69.40625 
Q 52.296875 67.234375 55.09375 62.71875 
Q 57.90625 58.203125 57.90625 53.265625 
Q 57.90625 48.6875 55.421875 44.625 
Q 52.9375 40.578125 47.90625 38.09375 
Q 54.390625 36.1875 57.875 31.59375 
Q 61.375 27 61.375 20.75 
Q 61.375 15.71875 59.25 11.390625 
Q 57.125 7.078125 54 4.734375 
Q 50.875 2.390625 46.15625 1.1875 
Q 41.453125 0 34.625 0 
z
M 16.796875 41.5 
L 32.28125 41.5 
Q 38.578125 41.5 41.3125 42.328125 
Q 44.921875 43.40625 46.75 45.890625 
Q 48.578125 48.390625 48.578125 52.15625 
Q 48.578125 55.71875 46.875 58.421875 
Q 45.171875 61.140625 41.984375 62.140625 
Q 38.8125 63.140625 31.109375 63.140625 
L 16.796875 63.140625 
z
M 16.796875 8.453125 
L 34.625 8.453125 
Q 39.203125 8.453125 41.0625 8.796875 
Q 44.34375 9.375 46.53125 10.734375 
Q 48.734375 12.109375 50.140625 14.71875 
Q 51.5625 17.328125 51.5625 20.75 
Q 51.5625 24.75 49.515625 27.703125 
Q 47.46875 30.671875 43.828125 31.859375 
Q 40.1875 33.0625 33.34375 33.0625 
L 16.796875 33.0625 
z
" id="ArialMT-42"/>
     <path d="M 6.59375 -19.875 
L 6.59375 51.859375 
L 14.59375 51.859375 
L 14.59375 45.125 
Q 17.4375 49.078125 21 51.046875 
Q 24.5625 53.03125 29.640625 53.03125 
Q 36.28125 53.03125 41.359375 49.609375 
Q 46.4375 46.1875 49.015625 39.953125 
Q 51.609375 33.734375 51.609375 26.3125 
Q 51.609375 18.359375 48.75 11.984375 
Q 45.90625 5.609375 40.453125 2.21875 
Q 35.015625 -1.171875 29 -1.171875 
Q 24.609375 -1.171875 21.109375 0.6875 
Q 17.625 2.546875 15.375 5.375 
L 15.375 -19.875 
z
M 14.546875 25.640625 
Q 14.546875 15.625 18.59375 10.84375 
Q 22.65625 6.0625 28.421875 6.0625 
Q 34.28125 6.0625 38.453125 11.015625 
Q 42.625 15.96875 42.625 26.375 
Q 42.625 36.28125 38.546875 41.203125 
Q 34.46875 46.140625 28.8125 46.140625 
Q 23.1875 46.140625 18.859375 40.890625 
Q 14.546875 35.640625 14.546875 25.640625 
" id="ArialMT-70"/>
     <path d="M 21 0 
L 1.265625 51.859375 
L 10.546875 51.859375 
L 21.6875 20.796875 
Q 23.484375 15.765625 25 10.359375 
Q 26.171875 14.453125 28.265625 20.21875 
L 39.796875 51.859375 
L 48.828125 51.859375 
L 29.203125 0 
z
" id="ArialMT-76"/>
    </defs>
    <g style="fill:#262626;" transform="translate(236.1665625 34.6)scale(0.12 -0.12)">
     <use xlink:href="#ArialMT-42"/>
     <use x="66.69921875" xlink:href="#ArialMT-36"/>
     <use x="122.314453125" xlink:href="#ArialMT-20"/>
     <use x="150.09765625" xlink:href="#ArialMT-34"/>
     <use x="205.712890625" xlink:href="#ArialMT-77"/>
     <use x="277.9296875" xlink:href="#ArialMT-6b"/>
     <use x="327.9296875" xlink:href="#ArialMT-73"/>
     <use x="377.9296875" xlink:href="#ArialMT-20"/>
     <use x="405.712890625" xlink:href="#ArialMT-6e"/>
     <use x="461.328125" xlink:href="#ArialMT-61"/>
     <use x="516.943359375" xlink:href="#ArialMT-69"/>
     <use x="539.16015625" xlink:href="#ArialMT-76"/>
     <use x="589.16015625" xlink:href="#ArialMT-65"/>
     <use x="644.775390625" xlink:href="#ArialMT-20"/>
     <use x="672.55859375" xlink:href="#ArialMT-53"/>
     <use x="739.2578125" xlink:href="#ArialMT-70"/>
     <use x="794.873046875" xlink:href="#ArialMT-6c"/>
     <use x="817.08984375" xlink:href="#ArialMT-65"/>
     <use x="872.705078125" xlink:href="#ArialMT-65"/>
     <use x="928.3203125" xlink:href="#ArialMT-6e"/>
    </g>
   </g>
   <g id="legend_1">
    <g id="line2d_27">
     <path d="M 395.796875 52.257812 
L 415.796875 52.257812 
" style="fill:none;stroke:#808080;stroke-linecap:round;stroke-width:3.0;"/>
    </g>
    <g id="line2d_28"/>
    <g id="text_17">
     <!-- mean threshold: 49 -->
     <defs>
      <path d="M 25.78125 7.859375 
L 27.046875 0.09375 
Q 23.34375 -0.6875 20.40625 -0.6875 
Q 15.625 -0.6875 12.984375 0.828125 
Q 10.359375 2.34375 9.28125 4.8125 
Q 8.203125 7.28125 8.203125 15.1875 
L 8.203125 45.015625 
L 1.765625 45.015625 
L 1.765625 51.859375 
L 8.203125 51.859375 
L 8.203125 64.703125 
L 16.9375 69.96875 
L 16.9375 51.859375 
L 25.78125 51.859375 
L 25.78125 45.015625 
L 16.9375 45.015625 
L 16.9375 14.703125 
Q 16.9375 10.9375 17.40625 9.859375 
Q 17.875 8.796875 18.921875 8.15625 
Q 19.96875 7.515625 21.921875 7.515625 
Q 23.390625 7.515625 25.78125 7.859375 
" id="ArialMT-74"/>
      <path d="M 9.03125 41.84375 
L 9.03125 51.859375 
L 19.046875 51.859375 
L 19.046875 41.84375 
z
M 9.03125 0 
L 9.03125 10.015625 
L 19.046875 10.015625 
L 19.046875 0 
z
" id="ArialMT-3a"/>
      <path d="M 6.59375 0 
L 6.59375 71.578125 
L 15.375 71.578125 
L 15.375 45.90625 
Q 21.53125 53.03125 30.90625 53.03125 
Q 36.671875 53.03125 40.921875 50.75 
Q 45.171875 48.484375 47 44.484375 
Q 48.828125 40.484375 48.828125 32.859375 
L 48.828125 0 
L 40.046875 0 
L 40.046875 32.859375 
Q 40.046875 39.453125 37.1875 42.453125 
Q 34.328125 45.453125 29.109375 45.453125 
Q 25.203125 45.453125 21.75 43.421875 
Q 18.3125 41.40625 16.84375 37.9375 
Q 15.375 34.46875 15.375 28.375 
L 15.375 0 
z
" id="ArialMT-68"/>
      <path d="M 5.46875 16.546875 
L 13.921875 17.328125 
Q 14.984375 11.375 18.015625 8.6875 
Q 21.046875 6 25.78125 6 
Q 29.828125 6 32.875 7.859375 
Q 35.9375 9.71875 37.890625 12.8125 
Q 39.84375 15.921875 41.15625 21.1875 
Q 42.484375 26.46875 42.484375 31.9375 
Q 42.484375 32.515625 42.4375 33.6875 
Q 39.796875 29.5 35.234375 26.875 
Q 30.671875 24.265625 25.34375 24.265625 
Q 16.453125 24.265625 10.296875 30.703125 
Q 4.15625 37.15625 4.15625 47.703125 
Q 4.15625 58.59375 10.578125 65.234375 
Q 17 71.875 26.65625 71.875 
Q 33.640625 71.875 39.421875 68.109375 
Q 45.21875 64.359375 48.21875 57.390625 
Q 51.21875 50.4375 51.21875 37.25 
Q 51.21875 23.53125 48.234375 15.40625 
Q 45.265625 7.28125 39.375 3.03125 
Q 33.5 -1.21875 25.59375 -1.21875 
Q 17.1875 -1.21875 11.859375 3.4375 
Q 6.546875 8.109375 5.46875 16.546875 
M 41.453125 48.140625 
Q 41.453125 55.71875 37.421875 60.15625 
Q 33.40625 64.59375 27.734375 64.59375 
Q 21.875 64.59375 17.53125 59.8125 
Q 13.1875 55.03125 13.1875 47.40625 
Q 13.1875 40.578125 17.3125 36.296875 
Q 21.4375 32.03125 27.484375 32.03125 
Q 33.59375 32.03125 37.515625 36.296875 
Q 41.453125 40.578125 41.453125 48.140625 
" id="ArialMT-39"/>
     </defs>
     <g style="fill:#262626;" transform="translate(423.796875 55.7578125)scale(0.1 -0.1)">
      <use xlink:href="#ArialMT-6d"/>
      <use x="83.30078125" xlink:href="#ArialMT-65"/>
      <use x="138.916015625" xlink:href="#ArialMT-61"/>
      <use x="194.53125" xlink:href="#ArialMT-6e"/>
      <use x="250.146484375" xlink:href="#ArialMT-20"/>
      <use x="277.9296875" xlink:href="#ArialMT-74"/>
      <use x="305.712890625" xlink:href="#ArialMT-68"/>
      <use x="361.328125" xlink:href="#ArialMT-72"/>
      <use x="394.62890625" xlink:href="#ArialMT-65"/>
      <use x="450.244140625" xlink:href="#ArialMT-73"/>
      <use x="500.244140625" xlink:href="#ArialMT-68"/>
      <use x="555.859375" xlink:href="#ArialMT-6f"/>
      <use x="611.474609375" xlink:href="#ArialMT-6c"/>
      <use x="633.69140625" xlink:href="#ArialMT-64"/>
      <use x="689.306640625" xlink:href="#ArialMT-3a"/>
      <use x="717.08984375" xlink:href="#ArialMT-20"/>
      <use x="744.873046875" xlink:href="#ArialMT-34"/>
      <use x="800.48828125" xlink:href="#ArialMT-39"/>
     </g>
    </g>
    <g id="line2d_29">
     <path d="M 395.796875 66.403125 
L 415.796875 66.403125 
" style="fill:none;opacity:0.4;stroke:#2c5ebf;stroke-linecap:round;stroke-width:2.0;"/>
    </g>
    <g id="line2d_30"/>
    <g id="text_18">
     <!-- mouse 1: 66 -->
     <g style="fill:#262626;" transform="translate(423.796875 69.903125)scale(0.1 -0.1)">
      <use xlink:href="#ArialMT-6d"/>
      <use x="83.30078125" xlink:href="#ArialMT-6f"/>
      <use x="138.916015625" xlink:href="#ArialMT-75"/>
      <use x="194.53125" xlink:href="#ArialMT-73"/>
      <use x="244.53125" xlink:href="#ArialMT-65"/>
      <use x="300.146484375" xlink:href="#ArialMT-20"/>
      <use x="327.9296875" xlink:href="#ArialMT-31"/>
      <use x="383.544921875" xlink:href="#ArialMT-3a"/>
      <use x="411.328125" xlink:href="#ArialMT-20"/>
      <use x="439.111328125" xlink:href="#ArialMT-36"/>
      <use x="494.7265625" xlink:href="#ArialMT-36"/>
     </g>
    </g>
    <g id="line2d_31">
     <path d="M 395.796875 80.548437 
L 415.796875 80.548437 
" style="fill:none;opacity:0.4;stroke:#ff1313;stroke-linecap:round;stroke-width:2.0;"/>
    </g>
    <g id="line2d_32"/>
    <g id="text_19">
     <!-- mouse 2: 84 -->
     <g style="fill:#262626;" transform="translate(423.796875 84.0484375)scale(0.1 -0.1)">
      <use xlink:href="#ArialMT-6d"/>
      <use x="83.30078125" xlink:href="#ArialMT-6f"/>
      <use x="138.916015625" xlink:href="#ArialMT-75"/>
      <use x="194.53125" xlink:href="#ArialMT-73"/>
      <use x="244.53125" xlink:href="#ArialMT-65"/>
      <use x="300.146484375" xlink:href="#ArialMT-20"/>
      <use x="327.9296875" xlink:href="#ArialMT-32"/>
      <use x="383.544921875" xlink:href="#ArialMT-3a"/>
      <use x="411.328125" xlink:href="#ArialMT-20"/>
      <use x="439.111328125" xlink:href="#ArialMT-38"/>
      <use x="494.7265625" xlink:href="#ArialMT-34"/>
     </g>
    </g>
    <g id="line2d_33">
     <path d="M 395.796875 94.69375 
L 415.796875 94.69375 
" style="fill:none;opacity:0.4;stroke:#f7b02a;stroke-linecap:round;stroke-width:2.0;"/>
    </g>
    <g id="line2d_34"/>
    <g id="text_20">
     <!-- mouse 3: 25 -->
     <defs>
      <path d="M 4.203125 18.890625 
L 12.984375 20.0625 
Q 14.5 12.59375 18.140625 9.296875 
Q 21.78125 6 27 6 
Q 33.203125 6 37.46875 10.296875 
Q 41.75 14.59375 41.75 20.953125 
Q 41.75 27 37.796875 30.921875 
Q 33.84375 34.859375 27.734375 34.859375 
Q 25.25 34.859375 21.53125 33.890625 
L 22.515625 41.609375 
Q 23.390625 41.5 23.921875 41.5 
Q 29.546875 41.5 34.03125 44.421875 
Q 38.53125 47.359375 38.53125 53.46875 
Q 38.53125 58.296875 35.25 61.46875 
Q 31.984375 64.65625 26.8125 64.65625 
Q 21.6875 64.65625 18.265625 61.421875 
Q 14.84375 58.203125 13.875 51.765625 
L 5.078125 53.328125 
Q 6.6875 62.15625 12.390625 67.015625 
Q 18.109375 71.875 26.609375 71.875 
Q 32.46875 71.875 37.390625 69.359375 
Q 42.328125 66.84375 44.9375 62.5 
Q 47.5625 58.15625 47.5625 53.265625 
Q 47.5625 48.640625 45.0625 44.828125 
Q 42.578125 41.015625 37.703125 38.765625 
Q 44.046875 37.3125 47.5625 32.6875 
Q 51.078125 28.078125 51.078125 21.140625 
Q 51.078125 11.765625 44.234375 5.25 
Q 37.40625 -1.265625 26.953125 -1.265625 
Q 17.53125 -1.265625 11.296875 4.34375 
Q 5.078125 9.96875 4.203125 18.890625 
" id="ArialMT-33"/>
      <path d="M 4.15625 18.75 
L 13.375 19.53125 
Q 14.40625 12.796875 18.140625 9.390625 
Q 21.875 6 27.15625 6 
Q 33.5 6 37.890625 10.78125 
Q 42.28125 15.578125 42.28125 23.484375 
Q 42.28125 31 38.0625 35.34375 
Q 33.84375 39.703125 27 39.703125 
Q 22.75 39.703125 19.328125 37.765625 
Q 15.921875 35.84375 13.96875 32.765625 
L 5.71875 33.84375 
L 12.640625 70.609375 
L 48.25 70.609375 
L 48.25 62.203125 
L 19.671875 62.203125 
L 15.828125 42.96875 
Q 22.265625 47.46875 29.34375 47.46875 
Q 38.71875 47.46875 45.15625 40.96875 
Q 51.609375 34.46875 51.609375 24.265625 
Q 51.609375 14.546875 45.953125 7.46875 
Q 39.0625 -1.21875 27.15625 -1.21875 
Q 17.390625 -1.21875 11.203125 4.25 
Q 5.03125 9.71875 4.15625 18.75 
" id="ArialMT-35"/>
     </defs>
     <g style="fill:#262626;" transform="translate(423.796875 98.19375)scale(0.1 -0.1)">
      <use xlink:href="#ArialMT-6d"/>
      <use x="83.30078125" xlink:href="#ArialMT-6f"/>
      <use x="138.916015625" xlink:href="#ArialMT-75"/>
      <use x="194.53125" xlink:href="#ArialMT-73"/>
      <use x="244.53125" xlink:href="#ArialMT-65"/>
      <use x="300.146484375" xlink:href="#ArialMT-20"/>
      <use x="327.9296875" xlink:href="#ArialMT-33"/>
      <use x="383.544921875" xlink:href="#ArialMT-3a"/>
      <use x="411.328125" xlink:href="#ArialMT-20"/>
      <use x="439.111328125" xlink:href="#ArialMT-32"/>
      <use x="494.7265625" xlink:href="#ArialMT-35"/>
     </g>
    </g>
    <g id="line2d_35">
     <path d="M 395.796875 108.839063 
L 415.796875 108.839063 
" style="fill:none;opacity:0.4;stroke:#02b72a;stroke-linecap:round;stroke-width:2.0;"/>
    </g>
    <g id="line2d_36"/>
    <g id="text_21">
     <!-- mouse 4: 57 -->
     <defs>
      <path d="M 4.734375 62.203125 
L 4.734375 70.65625 
L 51.078125 70.65625 
L 51.078125 63.8125 
Q 44.234375 56.546875 37.515625 44.484375 
Q 30.8125 32.421875 27.15625 19.671875 
Q 24.515625 10.6875 23.78125 0 
L 14.75 0 
Q 14.890625 8.453125 18.0625 20.40625 
Q 21.234375 32.375 27.171875 43.484375 
Q 33.109375 54.59375 39.796875 62.203125 
z
" id="ArialMT-37"/>
     </defs>
     <g style="fill:#262626;" transform="translate(423.796875 112.3390625)scale(0.1 -0.1)">
      <use xlink:href="#ArialMT-6d"/>
      <use x="83.30078125" xlink:href="#ArialMT-6f"/>
      <use x="138.916015625" xlink:href="#ArialMT-75"/>
      <use x="194.53125" xlink:href="#ArialMT-73"/>
      <use x="244.53125" xlink:href="#ArialMT-65"/>
      <use x="300.146484375" xlink:href="#ArialMT-20"/>
      <use x="327.9296875" xlink:href="#ArialMT-34"/>
      <use x="383.544921875" xlink:href="#ArialMT-3a"/>
      <use x="411.328125" xlink:href="#ArialMT-20"/>
      <use x="439.111328125" xlink:href="#ArialMT-35"/>
      <use x="494.7265625" xlink:href="#ArialMT-37"/>
     </g>
    </g>
    <g id="line2d_37">
     <path d="M 395.796875 122.984375 
L 415.796875 122.984375 
" style="fill:none;opacity:0.4;stroke:#009e9e;stroke-linecap:round;stroke-width:2.0;"/>
    </g>
    <g id="line2d_38"/>
    <g id="text_22">
     <!-- mouse 5: 16 -->
     <g style="fill:#262626;" transform="translate(423.796875 126.484375)scale(0.1 -0.1)">
      <use xlink:href="#ArialMT-6d"/>
      <use x="83.30078125" xlink:href="#ArialMT-6f"/>
      <use x="138.916015625" xlink:href="#ArialMT-75"/>
      <use x="194.53125" xlink:href="#ArialMT-73"/>
      <use x="244.53125" xlink:href="#ArialMT-65"/>
      <use x="300.146484375" xlink:href="#ArialMT-20"/>
      <use x="327.9296875" xlink:href="#ArialMT-35"/>
      <use x="383.544921875" xlink:href="#ArialMT-3a"/>
      <use x="411.328125" xlink:href="#ArialMT-20"/>
      <use x="439.111328125" xlink:href="#ArialMT-31"/>
      <use x="494.7265625" xlink:href="#ArialMT-36"/>
     </g>
    </g>
    <g id="line2d_39">
     <path d="M 395.796875 137.129687 
L 415.796875 137.129687 
" style="fill:none;opacity:0.4;stroke:#1d1aa9;stroke-linecap:round;stroke-width:2.0;"/>
    </g>
    <g id="line2d_40"/>
    <g id="text_23">
     <!-- mouse 6: 46 -->
     <g style="fill:#262626;" transform="translate(423.796875 140.6296875)scale(0.1 -0.1)">
      <use xlink:href="#ArialMT-6d"/>
      <use x="83.30078125" xlink:href="#ArialMT-6f"/>
      <use x="138.916015625" xlink:href="#ArialMT-75"/>
      <use x="194.53125" xlink:href="#ArialMT-73"/>
      <use x="244.53125" xlink:href="#ArialMT-65"/>
      <use x="300.146484375" xlink:href="#ArialMT-20"/>
      <use x="327.9296875" xlink:href="#ArialMT-36"/>
      <use x="383.544921875" xlink:href="#ArialMT-3a"/>
      <use x="411.328125" xlink:href="#ArialMT-20"/>
      <use x="439.111328125" xlink:href="#ArialMT-34"/>
      <use x="494.7265625" xlink:href="#ArialMT-36"/>
     </g>
    </g>
   </g>
  </g>
 </g>
 <defs>
  <clipPath id="pcd22610244">
   <rect height="306.9" width="446.4" x="72.0" y="39.6"/>
  </clipPath>
 </defs>
</svg>
