<?xml version="1.0" encoding="utf-8" standalone="no"?>
<!DOCTYPE svg PUBLIC "-//W3C//DTD SVG 1.1//EN"
  "http://www.w3.org/Graphics/SVG/1.1/DTD/svg11.dtd">
<!-- Created with matplotlib (http://matplotlib.org/) -->
<svg height="396pt" version="1.1" viewBox="0 0 576 396" width="576pt" xmlns="http://www.w3.org/2000/svg" xmlns:xlink="http://www.w3.org/1999/xlink">
 <defs>
  <style type="text/css">
*{stroke-linecap:butt;stroke-linejoin:round;stroke-miterlimit:100000;}
  </style>
 </defs>
 <g id="figure_1">
  <g id="patch_1">
   <path d="M 0 396 
L 576 396 
L 576 0 
L 0 0 
z
" style="fill:#ffffff;"/>
  </g>
  <g id="axes_1">
   <g id="patch_2">
    <path d="M 72 346.5 
L 518.4 346.5 
L 518.4 39.6 
L 72 39.6 
z
" style="fill:#ffffff;"/>
   </g>
   <g id="matplotlib.axis_1">
    <g id="xtick_1">
     <g id="line2d_1">
      <defs>
       <path d="M 0 0 
L 0 5 
" id="m487b0cec18" style="stroke:#262626;"/>
      </defs>
      <g>
       <use style="fill:#262626;stroke:#262626;" x="73.623863223" xlink:href="#m487b0cec18" y="346.5"/>
      </g>
     </g>
     <g id="text_1">
      <!-- 0 -->
      <defs>
       <path d="M 4.15625 35.296875 
Q 4.15625 48 6.765625 55.734375 
Q 9.375 63.484375 14.515625 67.671875 
Q 19.671875 71.875 27.484375 71.875 
Q 33.25 71.875 37.59375 69.546875 
Q 41.9375 67.234375 44.765625 62.859375 
Q 47.609375 58.5 49.21875 52.21875 
Q 50.828125 45.953125 50.828125 35.296875 
Q 50.828125 22.703125 48.234375 14.96875 
Q 45.65625 7.234375 40.5 3 
Q 35.359375 -1.21875 27.484375 -1.21875 
Q 17.140625 -1.21875 11.234375 6.203125 
Q 4.15625 15.140625 4.15625 35.296875 
M 13.1875 35.296875 
Q 13.1875 17.671875 17.3125 11.828125 
Q 21.4375 6 27.484375 6 
Q 33.546875 6 37.671875 11.859375 
Q 41.796875 17.71875 41.796875 35.296875 
Q 41.796875 52.984375 37.671875 58.78125 
Q 33.546875 64.59375 27.390625 64.59375 
Q 21.34375 64.59375 17.71875 59.46875 
Q 13.1875 52.9375 13.1875 35.296875 
" id="ArialMT-30"/>
      </defs>
      <g style="fill:#262626;" transform="translate(70.843394473 360.6578125)scale(0.1 -0.1)">
       <use xlink:href="#ArialMT-30"/>
      </g>
     </g>
    </g>
    <g id="xtick_2">
     <g id="line2d_2">
      <g>
       <use style="fill:#262626;stroke:#262626;" x="154.817024372" xlink:href="#m487b0cec18" y="346.5"/>
      </g>
     </g>
     <g id="text_2">
      <!-- 500 -->
      <defs>
       <path d="M 4.15625 18.75 
L 13.375 19.53125 
Q 14.40625 12.796875 18.140625 9.390625 
Q 21.875 6 27.15625 6 
Q 33.5 6 37.890625 10.78125 
Q 42.28125 15.578125 42.28125 23.484375 
Q 42.28125 31 38.0625 35.34375 
Q 33.84375 39.703125 27 39.703125 
Q 22.75 39.703125 19.328125 37.765625 
Q 15.921875 35.84375 13.96875 32.765625 
L 5.71875 33.84375 
L 12.640625 70.609375 
L 48.25 70.609375 
L 48.25 62.203125 
L 19.671875 62.203125 
L 15.828125 42.96875 
Q 22.265625 47.46875 29.34375 47.46875 
Q 38.71875 47.46875 45.15625 40.96875 
Q 51.609375 34.46875 51.609375 24.265625 
Q 51.609375 14.546875 45.953125 7.46875 
Q 39.0625 -1.21875 27.15625 -1.21875 
Q 17.390625 -1.21875 11.203125 4.25 
Q 5.03125 9.71875 4.15625 18.75 
" id="ArialMT-35"/>
      </defs>
      <g style="fill:#262626;" transform="translate(146.475618122 360.6578125)scale(0.1 -0.1)">
       <use xlink:href="#ArialMT-35"/>
       <use x="55.615234375" xlink:href="#ArialMT-30"/>
       <use x="111.23046875" xlink:href="#ArialMT-30"/>
      </g>
     </g>
    </g>
    <g id="xtick_3">
     <g id="line2d_3">
      <g>
       <use style="fill:#262626;stroke:#262626;" x="236.010185522" xlink:href="#m487b0cec18" y="346.5"/>
      </g>
     </g>
     <g id="text_3">
      <!-- 1000 -->
      <defs>
       <path d="M 37.25 0 
L 28.46875 0 
L 28.46875 56 
Q 25.296875 52.984375 20.140625 49.953125 
Q 14.984375 46.921875 10.890625 45.40625 
L 10.890625 53.90625 
Q 18.265625 57.375 23.78125 62.296875 
Q 29.296875 67.234375 31.59375 71.875 
L 37.25 71.875 
z
" id="ArialMT-31"/>
      </defs>
      <g style="fill:#262626;" transform="translate(224.888310522 360.6578125)scale(0.1 -0.1)">
       <use xlink:href="#ArialMT-31"/>
       <use x="55.615234375" xlink:href="#ArialMT-30"/>
       <use x="111.23046875" xlink:href="#ArialMT-30"/>
       <use x="166.845703125" xlink:href="#ArialMT-30"/>
      </g>
     </g>
    </g>
    <g id="xtick_4">
     <g id="line2d_4">
      <g>
       <use style="fill:#262626;stroke:#262626;" x="317.203346672" xlink:href="#m487b0cec18" y="346.5"/>
      </g>
     </g>
     <g id="text_4">
      <!-- 1500 -->
      <g style="fill:#262626;" transform="translate(306.081471672 360.6578125)scale(0.1 -0.1)">
       <use xlink:href="#ArialMT-31"/>
       <use x="55.615234375" xlink:href="#ArialMT-35"/>
       <use x="111.23046875" xlink:href="#ArialMT-30"/>
       <use x="166.845703125" xlink:href="#ArialMT-30"/>
      </g>
     </g>
    </g>
    <g id="xtick_5">
     <g id="line2d_5">
      <g>
       <use style="fill:#262626;stroke:#262626;" x="398.396507821" xlink:href="#m487b0cec18" y="346.5"/>
      </g>
     </g>
     <g id="text_5">
      <!-- 2000 -->
      <defs>
       <path d="M 50.34375 8.453125 
L 50.34375 0 
L 3.03125 0 
Q 2.9375 3.171875 4.046875 6.109375 
Q 5.859375 10.9375 9.828125 15.625 
Q 13.8125 20.3125 21.34375 26.46875 
Q 33.015625 36.03125 37.109375 41.625 
Q 41.21875 47.21875 41.21875 52.203125 
Q 41.21875 57.421875 37.46875 61 
Q 33.734375 64.59375 27.734375 64.59375 
Q 21.390625 64.59375 17.578125 60.78125 
Q 13.765625 56.984375 13.71875 50.25 
L 4.6875 51.171875 
Q 5.609375 61.28125 11.65625 66.578125 
Q 17.71875 71.875 27.9375 71.875 
Q 38.234375 71.875 44.234375 66.15625 
Q 50.25 60.453125 50.25 52 
Q 50.25 47.703125 48.484375 43.546875 
Q 46.734375 39.40625 42.65625 34.8125 
Q 38.578125 30.21875 29.109375 22.21875 
Q 21.1875 15.578125 18.9375 13.203125 
Q 16.703125 10.84375 15.234375 8.453125 
z
" id="ArialMT-32"/>
      </defs>
      <g style="fill:#262626;" transform="translate(387.274632821 360.6578125)scale(0.1 -0.1)">
       <use xlink:href="#ArialMT-32"/>
       <use x="55.615234375" xlink:href="#ArialMT-30"/>
       <use x="111.23046875" xlink:href="#ArialMT-30"/>
       <use x="166.845703125" xlink:href="#ArialMT-30"/>
      </g>
     </g>
    </g>
    <g id="xtick_6">
     <g id="line2d_6">
      <g>
       <use style="fill:#262626;stroke:#262626;" x="479.589668971" xlink:href="#m487b0cec18" y="346.5"/>
      </g>
     </g>
     <g id="text_6">
      <!-- 2500 -->
      <g style="fill:#262626;" transform="translate(468.467793971 360.6578125)scale(0.1 -0.1)">
       <use xlink:href="#ArialMT-32"/>
       <use x="55.615234375" xlink:href="#ArialMT-35"/>
       <use x="111.23046875" xlink:href="#ArialMT-30"/>
       <use x="166.845703125" xlink:href="#ArialMT-30"/>
      </g>
     </g>
    </g>
    <g id="text_7">
     <!-- barcode, rank-ordered -->
     <defs>
      <path d="M 40.4375 19 
L 49.078125 17.875 
Q 47.65625 8.9375 41.8125 3.875 
Q 35.984375 -1.171875 27.484375 -1.171875 
Q 16.84375 -1.171875 10.375 5.78125 
Q 3.90625 12.75 3.90625 25.734375 
Q 3.90625 34.125 6.6875 40.421875 
Q 9.46875 46.734375 15.15625 49.875 
Q 20.84375 53.03125 27.546875 53.03125 
Q 35.984375 53.03125 41.359375 48.75 
Q 46.734375 44.484375 48.25 36.625 
L 39.703125 35.296875 
Q 38.484375 40.53125 35.375 43.15625 
Q 32.28125 45.796875 27.875 45.796875 
Q 21.234375 45.796875 17.078125 41.03125 
Q 12.9375 36.28125 12.9375 25.984375 
Q 12.9375 15.53125 16.9375 10.796875 
Q 20.953125 6.0625 27.390625 6.0625 
Q 32.5625 6.0625 36.03125 9.234375 
Q 39.5 12.40625 40.4375 19 
" id="ArialMT-63"/>
      <path d="M 14.703125 0 
L 6.546875 0 
L 6.546875 71.578125 
L 15.328125 71.578125 
L 15.328125 46.046875 
Q 20.90625 53.03125 29.546875 53.03125 
Q 34.328125 53.03125 38.59375 51.09375 
Q 42.875 49.171875 45.625 45.671875 
Q 48.390625 42.1875 49.953125 37.25 
Q 51.515625 32.328125 51.515625 26.703125 
Q 51.515625 13.375 44.921875 6.09375 
Q 38.328125 -1.171875 29.109375 -1.171875 
Q 19.921875 -1.171875 14.703125 6.5 
z
M 14.59375 26.3125 
Q 14.59375 17 17.140625 12.84375 
Q 21.296875 6.0625 28.375 6.0625 
Q 34.125 6.0625 38.328125 11.0625 
Q 42.53125 16.0625 42.53125 25.984375 
Q 42.53125 36.140625 38.5 40.96875 
Q 34.46875 45.796875 28.765625 45.796875 
Q 23 45.796875 18.796875 40.796875 
Q 14.59375 35.796875 14.59375 26.3125 
" id="ArialMT-62"/>
      <path d="M 40.4375 6.390625 
Q 35.546875 2.25 31.03125 0.53125 
Q 26.515625 -1.171875 21.34375 -1.171875 
Q 12.796875 -1.171875 8.203125 3 
Q 3.609375 7.171875 3.609375 13.671875 
Q 3.609375 17.484375 5.34375 20.625 
Q 7.078125 23.78125 9.890625 25.6875 
Q 12.703125 27.59375 16.21875 28.5625 
Q 18.796875 29.25 24.03125 29.890625 
Q 34.671875 31.15625 39.703125 32.90625 
Q 39.75 34.71875 39.75 35.203125 
Q 39.75 40.578125 37.25 42.78125 
Q 33.890625 45.75 27.25 45.75 
Q 21.046875 45.75 18.09375 43.578125 
Q 15.140625 41.40625 13.71875 35.890625 
L 5.125 37.0625 
Q 6.296875 42.578125 8.984375 45.96875 
Q 11.671875 49.359375 16.75 51.1875 
Q 21.828125 53.03125 28.515625 53.03125 
Q 35.15625 53.03125 39.296875 51.46875 
Q 43.453125 49.90625 45.40625 47.53125 
Q 47.359375 45.171875 48.140625 41.546875 
Q 48.578125 39.3125 48.578125 33.453125 
L 48.578125 21.734375 
Q 48.578125 9.46875 49.140625 6.21875 
Q 49.703125 2.984375 51.375 0 
L 42.1875 0 
Q 40.828125 2.734375 40.4375 6.390625 
M 39.703125 26.03125 
Q 34.90625 24.078125 25.34375 22.703125 
Q 19.921875 21.921875 17.671875 20.9375 
Q 15.4375 19.96875 14.203125 18.09375 
Q 12.984375 16.21875 12.984375 13.921875 
Q 12.984375 10.40625 15.640625 8.0625 
Q 18.3125 5.71875 23.4375 5.71875 
Q 28.515625 5.71875 32.46875 7.9375 
Q 36.421875 10.15625 38.28125 14.015625 
Q 39.703125 17 39.703125 22.796875 
z
" id="ArialMT-61"/>
      <path d="M 42.09375 16.703125 
L 51.171875 15.578125 
Q 49.03125 7.625 43.21875 3.21875 
Q 37.40625 -1.171875 28.375 -1.171875 
Q 17 -1.171875 10.328125 5.828125 
Q 3.65625 12.84375 3.65625 25.484375 
Q 3.65625 38.578125 10.390625 45.796875 
Q 17.140625 53.03125 27.875 53.03125 
Q 38.28125 53.03125 44.875 45.953125 
Q 51.46875 38.875 51.46875 26.03125 
Q 51.46875 25.25 51.421875 23.6875 
L 12.75 23.6875 
Q 13.234375 15.140625 17.578125 10.59375 
Q 21.921875 6.0625 28.421875 6.0625 
Q 33.25 6.0625 36.671875 8.59375 
Q 40.09375 11.140625 42.09375 16.703125 
M 13.234375 30.90625 
L 42.1875 30.90625 
Q 41.609375 37.453125 38.875 40.71875 
Q 34.671875 45.796875 27.984375 45.796875 
Q 21.921875 45.796875 17.796875 41.75 
Q 13.671875 37.703125 13.234375 30.90625 
" id="ArialMT-65"/>
      <path d="M 40.234375 0 
L 40.234375 6.546875 
Q 35.296875 -1.171875 25.734375 -1.171875 
Q 19.53125 -1.171875 14.328125 2.25 
Q 9.125 5.671875 6.265625 11.796875 
Q 3.421875 17.921875 3.421875 25.875 
Q 3.421875 33.640625 6 39.96875 
Q 8.59375 46.296875 13.765625 49.65625 
Q 18.953125 53.03125 25.34375 53.03125 
Q 30.03125 53.03125 33.6875 51.046875 
Q 37.359375 49.078125 39.65625 45.90625 
L 39.65625 71.578125 
L 48.390625 71.578125 
L 48.390625 0 
z
M 12.453125 25.875 
Q 12.453125 15.921875 16.640625 10.984375 
Q 20.84375 6.0625 26.5625 6.0625 
Q 32.328125 6.0625 36.34375 10.765625 
Q 40.375 15.484375 40.375 25.140625 
Q 40.375 35.796875 36.265625 40.765625 
Q 32.171875 45.75 26.171875 45.75 
Q 20.3125 45.75 16.375 40.96875 
Q 12.453125 36.1875 12.453125 25.875 
" id="ArialMT-64"/>
      <path d="M 3.171875 21.484375 
L 3.171875 30.328125 
L 30.171875 30.328125 
L 30.171875 21.484375 
z
" id="ArialMT-2d"/>
      <path d="M 8.890625 0 
L 8.890625 10.015625 
L 18.890625 10.015625 
L 18.890625 0 
Q 18.890625 -5.515625 16.9375 -8.90625 
Q 14.984375 -12.3125 10.75 -14.15625 
L 8.296875 -10.40625 
Q 11.078125 -9.1875 12.390625 -6.8125 
Q 13.71875 -4.4375 13.875 0 
z
" id="ArialMT-2c"/>
      <path d="M 6.5 0 
L 6.5 51.859375 
L 14.40625 51.859375 
L 14.40625 44 
Q 17.4375 49.515625 20 51.265625 
Q 22.5625 53.03125 25.640625 53.03125 
Q 30.078125 53.03125 34.671875 50.203125 
L 31.640625 42.046875 
Q 28.421875 43.953125 25.203125 43.953125 
Q 22.3125 43.953125 20.015625 42.21875 
Q 17.71875 40.484375 16.75 37.40625 
Q 15.28125 32.71875 15.28125 27.15625 
L 15.28125 0 
z
" id="ArialMT-72"/>
      <path d="M 6.640625 0 
L 6.640625 71.578125 
L 15.4375 71.578125 
L 15.4375 30.765625 
L 36.234375 51.859375 
L 47.609375 51.859375 
L 27.78125 32.625 
L 49.609375 0 
L 38.765625 0 
L 21.625 26.515625 
L 15.4375 20.5625 
L 15.4375 0 
z
" id="ArialMT-6b"/>
      <path d="M 3.328125 25.921875 
Q 3.328125 40.328125 11.328125 47.265625 
Q 18.015625 53.03125 27.640625 53.03125 
Q 38.328125 53.03125 45.109375 46.015625 
Q 51.90625 39.015625 51.90625 26.65625 
Q 51.90625 16.65625 48.90625 10.90625 
Q 45.90625 5.171875 40.15625 2 
Q 34.421875 -1.171875 27.640625 -1.171875 
Q 16.75 -1.171875 10.03125 5.8125 
Q 3.328125 12.796875 3.328125 25.921875 
M 12.359375 25.921875 
Q 12.359375 15.96875 16.703125 11.015625 
Q 21.046875 6.0625 27.640625 6.0625 
Q 34.1875 6.0625 38.53125 11.03125 
Q 42.875 16.015625 42.875 26.21875 
Q 42.875 35.84375 38.5 40.796875 
Q 34.125 45.75 27.640625 45.75 
Q 21.046875 45.75 16.703125 40.8125 
Q 12.359375 35.890625 12.359375 25.921875 
" id="ArialMT-6f"/>
      <path d="M 6.59375 0 
L 6.59375 51.859375 
L 14.5 51.859375 
L 14.5 44.484375 
Q 20.21875 53.03125 31 53.03125 
Q 35.6875 53.03125 39.625 51.34375 
Q 43.5625 49.65625 45.515625 46.921875 
Q 47.46875 44.1875 48.25 40.4375 
Q 48.734375 37.984375 48.734375 31.890625 
L 48.734375 0 
L 39.9375 0 
L 39.9375 31.546875 
Q 39.9375 36.921875 38.90625 39.578125 
Q 37.890625 42.234375 35.28125 43.8125 
Q 32.671875 45.40625 29.15625 45.40625 
Q 23.53125 45.40625 19.453125 41.84375 
Q 15.375 38.28125 15.375 28.328125 
L 15.375 0 
z
" id="ArialMT-6e"/>
      <path id="ArialMT-20"/>
     </defs>
     <g style="fill:#262626;" transform="translate(240.785234375 375.51890625)scale(0.11 -0.11)">
      <use xlink:href="#ArialMT-62"/>
      <use x="55.615234375" xlink:href="#ArialMT-61"/>
      <use x="111.23046875" xlink:href="#ArialMT-72"/>
      <use x="144.53125" xlink:href="#ArialMT-63"/>
      <use x="194.53125" xlink:href="#ArialMT-6f"/>
      <use x="250.146484375" xlink:href="#ArialMT-64"/>
      <use x="305.76171875" xlink:href="#ArialMT-65"/>
      <use x="361.376953125" xlink:href="#ArialMT-2c"/>
      <use x="389.16015625" xlink:href="#ArialMT-20"/>
      <use x="416.943359375" xlink:href="#ArialMT-72"/>
      <use x="450.244140625" xlink:href="#ArialMT-61"/>
      <use x="505.859375" xlink:href="#ArialMT-6e"/>
      <use x="561.474609375" xlink:href="#ArialMT-6b"/>
      <use x="611.474609375" xlink:href="#ArialMT-2d"/>
      <use x="644.775390625" xlink:href="#ArialMT-6f"/>
      <use x="700.390625" xlink:href="#ArialMT-72"/>
      <use x="733.69140625" xlink:href="#ArialMT-64"/>
      <use x="789.306640625" xlink:href="#ArialMT-65"/>
      <use x="844.921875" xlink:href="#ArialMT-72"/>
      <use x="878.22265625" xlink:href="#ArialMT-65"/>
      <use x="933.837890625" xlink:href="#ArialMT-64"/>
     </g>
    </g>
   </g>
   <g id="matplotlib.axis_2">
    <g id="ytick_1">
     <g id="line2d_7">
      <defs>
       <path d="M 0 0 
L -5 0 
" id="m3b4d7cb953" style="stroke:#262626;"/>
      </defs>
      <g>
       <use style="fill:#262626;stroke:#262626;" x="72.0" xlink:href="#m3b4d7cb953" y="346.5"/>
      </g>
     </g>
     <g id="text_8">
      <!-- 1 -->
      <g style="fill:#262626;" transform="translate(59.4390625 349.08515625)scale(0.1 -0.1)">
       <use xlink:href="#ArialMT-31"/>
      </g>
     </g>
    </g>
    <g id="ytick_2">
     <g id="line2d_8">
      <g>
       <use style="fill:#262626;stroke:#262626;" x="72.0" xlink:href="#m3b4d7cb953" y="274.072008941"/>
      </g>
     </g>
     <g id="text_9">
      <!-- 10 -->
      <g style="fill:#262626;" transform="translate(53.878125 276.657165191)scale(0.1 -0.1)">
       <use xlink:href="#ArialMT-31"/>
       <use x="55.615234375" xlink:href="#ArialMT-30"/>
      </g>
     </g>
    </g>
    <g id="ytick_3">
     <g id="line2d_9">
      <g>
       <use style="fill:#262626;stroke:#262626;" x="72.0" xlink:href="#m3b4d7cb953" y="201.644017883"/>
      </g>
     </g>
     <g id="text_10">
      <!-- 100 -->
      <g style="fill:#262626;" transform="translate(48.3171875 204.229174133)scale(0.1 -0.1)">
       <use xlink:href="#ArialMT-31"/>
       <use x="55.615234375" xlink:href="#ArialMT-30"/>
       <use x="111.23046875" xlink:href="#ArialMT-30"/>
      </g>
     </g>
    </g>
    <g id="ytick_4">
     <g id="line2d_10">
      <g>
       <use style="fill:#262626;stroke:#262626;" x="72.0" xlink:href="#m3b4d7cb953" y="129.216026824"/>
      </g>
     </g>
     <g id="text_11">
      <!-- 1000 -->
      <g style="fill:#262626;" transform="translate(42.75625 131.801183074)scale(0.1 -0.1)">
       <use xlink:href="#ArialMT-31"/>
       <use x="55.615234375" xlink:href="#ArialMT-30"/>
       <use x="111.23046875" xlink:href="#ArialMT-30"/>
       <use x="166.845703125" xlink:href="#ArialMT-30"/>
      </g>
     </g>
    </g>
    <g id="ytick_5">
     <g id="line2d_11">
      <g>
       <use style="fill:#262626;stroke:#262626;" x="72.0" xlink:href="#m3b4d7cb953" y="56.7880357659"/>
      </g>
     </g>
     <g id="text_12">
      <!-- 10000 -->
      <g style="fill:#262626;" transform="translate(37.1953125 59.3731920159)scale(0.1 -0.1)">
       <use xlink:href="#ArialMT-31"/>
       <use x="55.615234375" xlink:href="#ArialMT-30"/>
       <use x="111.23046875" xlink:href="#ArialMT-30"/>
       <use x="166.845703125" xlink:href="#ArialMT-30"/>
       <use x="222.4609375" xlink:href="#ArialMT-30"/>
      </g>
     </g>
    </g>
    <g id="text_13">
     <!-- log10 abundance (# molecules) -->
     <defs>
      <path d="M 4.984375 -4.296875 
L 13.53125 -5.5625 
Q 14.0625 -9.515625 16.5 -11.328125 
Q 19.78125 -13.765625 25.4375 -13.765625 
Q 31.546875 -13.765625 34.859375 -11.328125 
Q 38.1875 -8.890625 39.359375 -4.5 
Q 40.046875 -1.8125 39.984375 6.78125 
Q 34.234375 0 25.640625 0 
Q 14.9375 0 9.078125 7.71875 
Q 3.21875 15.4375 3.21875 26.21875 
Q 3.21875 33.640625 5.90625 39.90625 
Q 8.59375 46.1875 13.6875 49.609375 
Q 18.796875 53.03125 25.6875 53.03125 
Q 34.859375 53.03125 40.828125 45.609375 
L 40.828125 51.859375 
L 48.921875 51.859375 
L 48.921875 7.03125 
Q 48.921875 -5.078125 46.453125 -10.125 
Q 44 -15.1875 38.640625 -18.109375 
Q 33.296875 -21.046875 25.484375 -21.046875 
Q 16.21875 -21.046875 10.5 -16.875 
Q 4.78125 -12.703125 4.984375 -4.296875 
M 12.25 26.859375 
Q 12.25 16.65625 16.296875 11.96875 
Q 20.359375 7.28125 26.46875 7.28125 
Q 32.515625 7.28125 36.609375 11.9375 
Q 40.71875 16.609375 40.71875 26.5625 
Q 40.71875 36.078125 36.5 40.90625 
Q 32.28125 45.75 26.3125 45.75 
Q 20.453125 45.75 16.34375 40.984375 
Q 12.25 36.234375 12.25 26.859375 
" id="ArialMT-67"/>
      <path d="M 40.578125 0 
L 40.578125 7.625 
Q 34.515625 -1.171875 24.125 -1.171875 
Q 19.53125 -1.171875 15.546875 0.578125 
Q 11.578125 2.34375 9.640625 5 
Q 7.71875 7.671875 6.9375 11.53125 
Q 6.390625 14.109375 6.390625 19.734375 
L 6.390625 51.859375 
L 15.1875 51.859375 
L 15.1875 23.09375 
Q 15.1875 16.21875 15.71875 13.8125 
Q 16.546875 10.359375 19.234375 8.375 
Q 21.921875 6.390625 25.875 6.390625 
Q 29.828125 6.390625 33.296875 8.421875 
Q 36.765625 10.453125 38.203125 13.9375 
Q 39.65625 17.4375 39.65625 24.078125 
L 39.65625 51.859375 
L 48.4375 51.859375 
L 48.4375 0 
z
" id="ArialMT-75"/>
      <path d="M 23.390625 -21.046875 
Q 16.109375 -11.859375 11.078125 0.4375 
Q 6.0625 12.75 6.0625 25.921875 
Q 6.0625 37.546875 9.8125 48.1875 
Q 14.203125 60.546875 23.390625 72.796875 
L 29.6875 72.796875 
Q 23.78125 62.640625 21.875 58.296875 
Q 18.890625 51.5625 17.1875 44.234375 
Q 15.09375 35.109375 15.09375 25.875 
Q 15.09375 2.390625 29.6875 -21.046875 
z
" id="ArialMT-28"/>
      <path d="M 3.078125 15.484375 
L 11.765625 16.84375 
Q 12.5 11.625 15.84375 8.84375 
Q 19.1875 6.0625 25.203125 6.0625 
Q 31.25 6.0625 34.171875 8.515625 
Q 37.109375 10.984375 37.109375 14.3125 
Q 37.109375 17.28125 34.515625 19 
Q 32.71875 20.171875 25.53125 21.96875 
Q 15.875 24.421875 12.140625 26.203125 
Q 8.40625 27.984375 6.46875 31.125 
Q 4.546875 34.28125 4.546875 38.09375 
Q 4.546875 41.546875 6.125 44.5 
Q 7.71875 47.46875 10.453125 49.421875 
Q 12.5 50.921875 16.03125 51.96875 
Q 19.578125 53.03125 23.640625 53.03125 
Q 29.734375 53.03125 34.34375 51.265625 
Q 38.96875 49.515625 41.15625 46.5 
Q 43.359375 43.5 44.1875 38.484375 
L 35.59375 37.3125 
Q 35.015625 41.3125 32.203125 43.546875 
Q 29.390625 45.796875 24.265625 45.796875 
Q 18.21875 45.796875 15.625 43.796875 
Q 13.03125 41.796875 13.03125 39.109375 
Q 13.03125 37.40625 14.109375 36.03125 
Q 15.1875 34.625 17.484375 33.6875 
Q 18.796875 33.203125 25.25 31.453125 
Q 34.578125 28.953125 38.25 27.359375 
Q 41.9375 25.78125 44.03125 22.75 
Q 46.140625 19.734375 46.140625 15.234375 
Q 46.140625 10.84375 43.578125 6.953125 
Q 41.015625 3.078125 36.171875 0.953125 
Q 31.34375 -1.171875 25.25 -1.171875 
Q 15.140625 -1.171875 9.84375 3.03125 
Q 4.546875 7.234375 3.078125 15.484375 
" id="ArialMT-73"/>
      <path d="M 6.390625 0 
L 6.390625 71.578125 
L 15.1875 71.578125 
L 15.1875 0 
z
" id="ArialMT-6c"/>
      <path d="M 12.359375 -21.046875 
L 6.0625 -21.046875 
Q 20.65625 2.390625 20.65625 25.875 
Q 20.65625 35.0625 18.5625 44.09375 
Q 16.890625 51.421875 13.921875 58.15625 
Q 12.015625 62.546875 6.0625 72.796875 
L 12.359375 72.796875 
Q 21.53125 60.546875 25.921875 48.1875 
Q 29.6875 37.546875 29.6875 25.921875 
Q 29.6875 12.75 24.625 0.4375 
Q 19.578125 -11.859375 12.359375 -21.046875 
" id="ArialMT-29"/>
      <path d="M 6.59375 0 
L 6.59375 51.859375 
L 14.453125 51.859375 
L 14.453125 44.578125 
Q 16.890625 48.390625 20.9375 50.703125 
Q 25 53.03125 30.171875 53.03125 
Q 35.9375 53.03125 39.625 50.640625 
Q 43.3125 48.25 44.828125 43.953125 
Q 50.984375 53.03125 60.84375 53.03125 
Q 68.5625 53.03125 72.703125 48.75 
Q 76.859375 44.484375 76.859375 35.59375 
L 76.859375 0 
L 68.109375 0 
L 68.109375 32.671875 
Q 68.109375 37.9375 67.25 40.25 
Q 66.40625 42.578125 64.15625 43.984375 
Q 61.921875 45.40625 58.890625 45.40625 
Q 53.421875 45.40625 49.796875 41.765625 
Q 46.1875 38.140625 46.1875 30.125 
L 46.1875 0 
L 37.40625 0 
L 37.40625 33.6875 
Q 37.40625 39.546875 35.25 42.46875 
Q 33.109375 45.40625 28.21875 45.40625 
Q 24.515625 45.40625 21.359375 43.453125 
Q 18.21875 41.5 16.796875 37.734375 
Q 15.375 33.984375 15.375 26.90625 
L 15.375 0 
z
" id="ArialMT-6d"/>
      <path d="M 5.03125 -1.21875 
L 9.28125 19.578125 
L 1.03125 19.578125 
L 1.03125 26.859375 
L 10.75 26.859375 
L 14.359375 44.578125 
L 1.03125 44.578125 
L 1.03125 51.859375 
L 15.828125 51.859375 
L 20.0625 72.796875 
L 27.390625 72.796875 
L 23.140625 51.859375 
L 38.53125 51.859375 
L 42.78125 72.796875 
L 50.140625 72.796875 
L 45.90625 51.859375 
L 54.34375 51.859375 
L 54.34375 44.578125 
L 44.4375 44.578125 
L 40.765625 26.859375 
L 54.34375 26.859375 
L 54.34375 19.578125 
L 39.3125 19.578125 
L 35.0625 -1.21875 
L 27.734375 -1.21875 
L 31.9375 19.578125 
L 16.609375 19.578125 
L 12.359375 -1.21875 
z
M 18.0625 26.859375 
L 33.40625 26.859375 
L 37.0625 44.578125 
L 21.6875 44.578125 
z
" id="ArialMT-23"/>
     </defs>
     <g style="fill:#262626;" transform="translate(29.88015625 269.78875)rotate(-90.0)scale(0.11 -0.11)">
      <use xlink:href="#ArialMT-6c"/>
      <use x="22.216796875" xlink:href="#ArialMT-6f"/>
      <use x="77.83203125" xlink:href="#ArialMT-67"/>
      <use x="133.447265625" xlink:href="#ArialMT-31"/>
      <use x="189.0625" xlink:href="#ArialMT-30"/>
      <use x="244.677734375" xlink:href="#ArialMT-20"/>
      <use x="272.4609375" xlink:href="#ArialMT-61"/>
      <use x="328.076171875" xlink:href="#ArialMT-62"/>
      <use x="383.69140625" xlink:href="#ArialMT-75"/>
      <use x="439.306640625" xlink:href="#ArialMT-6e"/>
      <use x="494.921875" xlink:href="#ArialMT-64"/>
      <use x="550.537109375" xlink:href="#ArialMT-61"/>
      <use x="606.15234375" xlink:href="#ArialMT-6e"/>
      <use x="661.767578125" xlink:href="#ArialMT-63"/>
      <use x="711.767578125" xlink:href="#ArialMT-65"/>
      <use x="767.3828125" xlink:href="#ArialMT-20"/>
      <use x="795.166015625" xlink:href="#ArialMT-28"/>
      <use x="828.466796875" xlink:href="#ArialMT-23"/>
      <use x="884.08203125" xlink:href="#ArialMT-20"/>
      <use x="911.865234375" xlink:href="#ArialMT-6d"/>
      <use x="995.166015625" xlink:href="#ArialMT-6f"/>
      <use x="1050.78125" xlink:href="#ArialMT-6c"/>
      <use x="1072.99804688" xlink:href="#ArialMT-65"/>
      <use x="1128.61328125" xlink:href="#ArialMT-63"/>
      <use x="1178.61328125" xlink:href="#ArialMT-75"/>
      <use x="1234.22851562" xlink:href="#ArialMT-6c"/>
      <use x="1256.4453125" xlink:href="#ArialMT-65"/>
      <use x="1312.06054688" xlink:href="#ArialMT-73"/>
      <use x="1362.06054688" xlink:href="#ArialMT-29"/>
     </g>
    </g>
   </g>
   <g id="line2d_12">
    <path clip-path="url(#p11f4040b11)" d="M 91.681222 346.5 
L 91.681222 39.6 
" style="fill:none;stroke:#808080;stroke-linecap:round;stroke-width:3.0;"/>
   </g>
   <g id="line2d_13">
    <path clip-path="url(#p11f4040b11)" d="M 73.623863 72.018071 
L 73.78625 78.240695 
L 73.948636 82.949847 
L 74.111022 84.994849 
L 74.435795 97.648695 
L 75.08534 100.926966 
L 75.410113 101.783116 
L 75.897272 112.432695 
L 76.059658 113.255097 
L 76.87159 126.82435 
L 77.033976 127.294276 
L 77.196362 127.353513 
L 77.358749 127.561727 
L 77.521135 129.279 
L 77.683521 132.565119 
L 77.845908 132.705388 
L 78.008294 133.416267 
L 78.17068 133.488247 
L 78.333067 133.777824 
L 78.657839 133.850636 
L 78.820226 134.662902 
L 78.982612 136.991097 
L 79.144998 137.193121 
L 79.469771 141.532646 
L 79.632157 141.954239 
L 80.119316 145.866114 
L 80.281702 146.622802 
L 80.444089 146.677554 
L 80.768861 147.230382 
L 81.093634 149.008626 
L 81.25602 149.305095 
L 81.418407 149.364725 
L 81.743179 150.457869 
L 81.905566 150.830858 
L 82.230338 153.985574 
L 82.555111 154.333148 
L 82.717497 154.403126 
L 83.691815 157.108248 
L 83.854202 157.725034 
L 84.016588 157.725034 
L 84.178974 158.195692 
L 84.34136 159.817447 
L 84.666133 160.405409 
L 84.828519 160.490308 
L 84.990906 160.918275 
L 85.153292 163.804432 
L 85.478065 164.569334 
L 85.802837 164.861037 
L 85.965224 166.567153 
L 86.12761 166.982408 
L 86.452383 167.297487 
L 86.614769 168.371143 
L 86.777155 168.480552 
L 86.939542 169.145121 
L 87.101928 172.446808 
L 87.264314 173.329373 
L 87.589087 179.218127 
L 87.751473 179.528032 
L 88.076246 181.787316 
L 88.888178 187.656391 
L 89.050564 187.656391 
L 89.375336 188.473452 
L 89.537723 188.890082 
L 89.700109 190.393341 
L 89.862495 193.39133 
L 90.024882 193.634227 
L 90.674427 198.361366 
L 90.836813 198.361366 
L 91.648745 201.021125 
L 91.811131 201.331029 
L 91.973518 202.279496 
L 92.135904 202.279496 
L 92.29829 203.590313 
L 92.460677 203.926735 
L 92.623063 206.024517 
L 92.785449 206.024517 
L 92.947836 208.272264 
L 93.110222 208.663015 
L 93.597381 211.115302 
L 93.759767 211.115302 
L 93.922154 211.543269 
L 94.08454 212.417077 
L 94.246926 212.417077 
L 94.409312 212.863256 
L 94.734085 212.863256 
L 94.896471 214.241071 
L 95.221244 214.241071 
L 95.38363 215.682013 
L 95.546017 215.682013 
L 95.708403 216.177379 
L 95.870789 217.192147 
L 96.033176 217.192147 
L 96.357948 219.882253 
L 96.520335 219.882253 
L 96.682721 220.449027 
L 97.16988 220.449027 
L 97.332266 221.614163 
L 97.494653 221.614163 
L 97.657039 222.824123 
L 98.144198 222.824123 
L 98.306584 223.447016 
L 98.468971 223.447016 
L 98.631357 224.082493 
L 98.793743 224.082493 
L 99.118516 225.393311 
L 99.443288 225.393311 
L 99.605675 226.069791 
L 99.768061 226.069791 
L 99.930447 226.761139 
L 100.579993 226.761139 
L 100.742379 227.468024 
L 101.229538 227.468024 
L 101.391924 228.191161 
L 101.716697 228.191161 
L 101.879083 228.931315 
L 102.04147 228.931315 
L 102.203856 229.689305 
L 102.366242 229.689305 
L 102.528629 230.466013 
L 102.691015 232.079448 
L 103.015788 232.079448 
L 103.178174 232.9183 
L 103.34056 232.9183 
L 103.502947 233.780136 
L 103.990105 233.780136 
L 104.152492 234.666253 
L 104.639651 234.666253 
L 104.802037 235.578059 
L 105.12681 235.578059 
L 105.289196 236.517086 
L 106.263514 236.517086 
L 106.588287 238.483669 
L 107.562605 238.483669 
L 107.887377 240.581451 
L 108.699309 240.581451 
L 108.861695 241.685251 
L 109.186468 241.685251 
L 109.348854 242.829198 
L 109.836013 242.829198 
L 109.998399 244.016323 
L 110.647945 244.016323 
L 110.810331 245.250014 
L 112.109422 245.250014 
L 112.271808 246.534073 
L 113.570899 246.534073 
L 113.733285 247.872788 
L 114.869989 247.872788 
L 115.032375 249.271022 
L 115.844307 249.271022 
L 116.006693 250.734313 
L 117.46817 250.734313 
L 117.630557 252.269011 
L 119.25442 252.269011 
L 119.416806 253.882446 
L 120.391124 253.882446 
L 120.55351 255.583134 
L 122.014987 255.583134 
L 122.177374 257.381057 
L 124.450782 257.381057 
L 124.613168 259.288009 
L 126.399418 259.288009 
L 126.561804 261.318073 
L 127.373736 261.318073 
L 127.536122 263.488249 
L 130.29669 263.488249 
L 130.459076 265.819321 
L 132.407712 265.819321 
L 132.570098 268.33707 
L 134.518734 268.33707 
L 134.68112 271.07402 
L 138.578392 271.07402 
L 138.740778 274.072009 
L 142.150891 274.072009 
L 142.313278 277.386132 
L 145.073845 277.386132 
L 145.236231 281.091006 
L 147.50964 281.091006 
L 147.672026 285.291247 
L 149.783048 285.291247 
L 149.945435 290.140068 
L 153.030775 290.140068 
L 153.193161 295.875007 
L 155.628956 295.875007 
L 155.791342 302.894004 
L 159.039069 302.894004 
L 159.201455 311.943066 
L 164.073045 311.943066 
L 164.235431 324.697002 
L 172.67952 324.697002 
L 172.841906 346.5 
L 233.899163 346.5 
L 233.899163 346.5 
" style="fill:none;opacity:0.4;stroke:#2c5ebf;stroke-linecap:round;stroke-width:2.0;"/>
   </g>
   <g id="line2d_14">
    <path clip-path="url(#p11f4040b11)" d="M 83.854202 346.5 
L 83.854202 39.6 
" style="fill:none;stroke:#2c5ebf;stroke-dasharray:6.000000,6.000000;stroke-dashoffset:0.0;stroke-width:2.0;"/>
   </g>
   <g id="line2d_15">
    <path clip-path="url(#p11f4040b11)" d="M 73.623863 73.776382 
L 74.111022 88.430017 
L 74.273409 98.395438 
L 74.435795 99.981541 
L 74.760567 112.953548 
L 74.922954 113.655319 
L 75.247726 117.48511 
L 75.410113 118.186088 
L 75.897272 121.94639 
L 76.059658 122.551314 
L 76.709203 131.431171 
L 76.87159 131.464939 
L 77.196362 134.291088 
L 77.521135 135.039163 
L 77.683521 136.710425 
L 78.008294 136.870502 
L 78.17068 137.972869 
L 78.657839 138.687311 
L 78.820226 138.729846 
L 79.469771 141.625846 
L 79.632157 141.813079 
L 79.95693 145.919564 
L 80.281702 147.008083 
L 80.768861 151.398769 
L 80.931248 151.526376 
L 81.580793 153.985574 
L 81.743179 154.054782 
L 82.067952 155.983393 
L 82.555111 158.116758 
L 82.717497 160.068086 
L 82.879884 160.236296 
L 83.04227 162.50904 
L 83.529429 164.861037 
L 83.691815 166.774095 
L 84.178974 167.722562 
L 84.503747 168.045181 
L 84.666133 171.227467 
L 84.828519 171.347296 
L 84.990906 171.953385 
L 85.153292 174.902455 
L 85.315678 175.037167 
L 86.12761 180.476498 
L 86.289996 180.637394 
L 86.614769 182.123737 
L 86.939542 183.5066 
L 87.101928 184.04126 
L 87.264314 185.513111 
L 87.751473 186.860018 
L 87.91386 187.858675 
L 88.076246 190.614079 
L 88.563405 192.204205 
L 89.375336 194.877673 
L 90.024882 199.223202 
L 90.349654 200.714243 
L 90.512041 200.714243 
L 90.9992 202.279496 
L 91.323972 202.928077 
L 91.648745 202.928077 
L 91.811131 203.257452 
L 91.973518 203.257452 
L 92.135904 203.590313 
L 92.29829 205.309598 
L 92.460677 205.309598 
L 92.623063 206.756063 
L 92.785449 206.756063 
L 93.272608 208.663015 
L 93.597381 208.663015 
L 94.08454 210.69308 
L 94.246926 211.115302 
L 94.409312 211.977139 
L 94.734085 211.977139 
L 94.896471 212.417077 
L 95.221244 212.417077 
L 95.38363 212.863256 
L 95.708403 212.863256 
L 95.870789 213.315854 
L 96.033176 214.241071 
L 96.195562 214.241071 
L 96.357948 214.714088 
L 96.520335 215.682013 
L 96.682721 215.682013 
L 97.332266 217.712077 
L 97.494653 217.712077 
L 97.657039 218.240746 
L 97.981812 218.240746 
L 98.144198 218.778453 
L 98.468971 218.778453 
L 98.631357 221.0262 
L 98.95613 221.0262 
L 99.118516 221.614163 
L 99.280902 221.614163 
L 99.443288 222.213325 
L 99.605675 222.213325 
L 99.768061 222.824123 
L 99.930447 222.824123 
L 100.092834 223.447016 
L 100.25522 223.447016 
L 100.579993 224.731075 
L 100.904765 224.731075 
L 101.067152 225.393311 
L 101.879083 225.393311 
L 102.04147 226.069791 
L 102.203856 226.069791 
L 102.366242 226.761139 
L 102.691015 226.761139 
L 103.015788 228.191161 
L 103.665333 228.191161 
L 103.990105 229.689305 
L 104.477264 229.689305 
L 104.639651 230.466013 
L 105.289196 230.466013 
L 105.451582 231.262387 
L 106.263514 231.262387 
L 106.4259 232.079448 
L 106.913059 232.079448 
L 107.237832 233.780136 
L 107.400218 233.780136 
L 107.724991 235.578059 
L 108.049764 235.578059 
L 108.21215 236.517086 
L 108.699309 236.517086 
L 108.861695 237.485011 
L 109.348854 237.485011 
L 109.51124 238.483669 
L 110.485558 238.483669 
L 110.647945 239.515075 
L 111.29749 239.515075 
L 111.459876 240.581451 
L 112.434194 240.581451 
L 112.596581 241.685251 
L 113.733285 241.685251 
L 113.895671 242.829198 
L 115.032375 242.829198 
L 115.194762 244.016323 
L 116.006693 244.016323 
L 116.16908 245.250014 
L 116.331466 245.250014 
L 116.493852 246.534073 
L 117.792943 246.534073 
L 117.955329 247.872788 
L 118.604874 247.872788 
L 118.767261 249.271022 
L 119.741579 249.271022 
L 119.903965 250.734313 
L 121.690215 250.734313 
L 121.852601 252.269011 
L 122.33976 252.269011 
L 122.502146 253.882446 
L 123.476464 253.882446 
L 123.63885 255.583134 
L 125.100327 255.583134 
L 125.262714 257.381057 
L 127.048963 257.381057 
L 127.21135 259.288009 
L 128.835213 259.288009 
L 128.997599 261.318073 
L 130.459076 261.318073 
L 130.621462 263.488249 
L 133.38203 263.488249 
L 133.544416 265.819321 
L 135.330666 265.819321 
L 135.493052 268.33707 
L 136.954529 268.33707 
L 137.116915 271.07402 
L 139.390324 271.07402 
L 139.55271 274.072009 
L 141.33896 274.072009 
L 141.501346 277.386132 
L 143.449982 277.386132 
L 143.612368 281.091006 
L 146.860095 281.091006 
L 147.022481 285.291247 
L 149.783048 285.291247 
L 149.945435 290.140068 
L 152.543616 290.140068 
L 152.706002 295.875007 
L 156.928047 295.875007 
L 157.090433 302.894004 
L 162.773954 302.894004 
L 162.93634 311.943066 
L 169.59418 311.943066 
L 169.756566 324.697002 
L 184.046562 324.697002 
L 184.208949 346.5 
L 255.009385 346.5 
L 255.009385 346.5 
" style="fill:none;opacity:0.4;stroke:#ff1313;stroke-linecap:round;stroke-width:2.0;"/>
   </g>
   <g id="line2d_16">
    <path clip-path="url(#p11f4040b11)" d="M 83.367043 346.5 
L 83.367043 39.6 
" style="fill:none;stroke:#ff1313;stroke-dasharray:6.000000,6.000000;stroke-dashoffset:0.0;stroke-width:2.0;"/>
   </g>
   <g id="line2d_17">
    <path clip-path="url(#p11f4040b11)" d="M 73.623863 80.833189 
L 73.78625 81.241173 
L 74.111022 100.255933 
L 74.273409 100.722877 
L 74.598181 102.744466 
L 74.922954 104.673458 
L 75.08534 104.74562 
L 75.247726 106.651669 
L 75.410113 106.960205 
L 75.572499 107.539102 
L 75.734885 107.697406 
L 76.059658 108.484829 
L 76.222044 110.207222 
L 76.546817 110.849716 
L 76.709203 111.36263 
L 77.033976 113.292995 
L 77.683521 114.967361 
L 77.845908 115.087571 
L 78.008294 116.190655 
L 78.17068 116.190655 
L 78.495453 118.297041 
L 78.982612 119.590363 
L 79.307385 120.151242 
L 79.95693 120.746323 
L 80.444089 121.722509 
L 80.606475 122.171875 
L 80.931248 122.247398 
L 81.093634 123.038602 
L 82.230338 124.439185 
L 82.392725 124.493278 
L 83.367043 125.483205 
L 83.691815 125.707484 
L 84.016588 126.246646 
L 84.34136 126.882708 
L 84.503747 127.442579 
L 84.666133 127.531898 
L 84.828519 127.982336 
L 84.990906 128.042885 
L 85.315678 128.77871 
L 85.478065 128.87191 
L 85.802837 129.436987 
L 86.289996 129.65951 
L 86.614769 130.174124 
L 86.939542 131.128877 
L 87.101928 131.229319 
L 87.426701 131.600376 
L 87.589087 131.702337 
L 87.751473 132.11352 
L 88.076246 133.344452 
L 88.563405 133.632702 
L 88.725791 133.66892 
L 88.888178 134.106816 
L 89.537723 134.513648 
L 89.862495 135.077038 
L 90.024882 135.114959 
L 90.512041 135.999992 
L 91.486359 136.392694 
L 91.648745 136.830406 
L 91.811131 136.830406 
L 92.29829 137.314961 
L 92.460677 137.972869 
L 92.785449 138.014449 
L 93.110222 138.349081 
L 93.759767 138.772439 
L 94.08454 139.374881 
L 94.409312 139.900605 
L 94.571699 139.944814 
L 95.058858 140.570362 
L 95.546017 140.751399 
L 95.708403 141.254691 
L 95.870789 141.254691 
L 96.520335 142.286097 
L 96.682721 143.155878 
L 97.007494 143.254022 
L 97.332266 143.699499 
L 97.494653 143.899532 
L 97.819425 144.000027 
L 97.981812 144.100845 
L 98.306584 144.558566 
L 98.631357 144.661193 
L 98.793743 145.023047 
L 98.95613 145.023047 
L 99.118516 145.284086 
L 99.443288 145.919564 
L 100.742379 146.787345 
L 101.067152 147.230382 
L 101.229538 147.230382 
L 101.879083 148.021036 
L 102.203856 148.021036 
L 103.015788 148.598209 
L 103.178174 148.949666 
L 103.827719 149.245577 
L 103.990105 149.364725 
L 104.152492 149.967331 
L 104.314878 150.028232 
L 104.639651 150.334515 
L 104.802037 150.334515 
L 105.289196 150.768385 
L 105.451582 151.081998 
L 105.613969 151.081998 
L 105.776355 151.526376 
L 105.938741 151.590374 
L 106.263514 152.69875 
L 106.913059 153.36946 
L 107.562605 154.263325 
L 108.049764 154.54355 
L 108.21215 154.75537 
L 108.374536 155.255234 
L 108.536923 155.255234 
L 108.861695 155.76317 
L 109.51124 158.038022 
L 109.998399 158.274824 
L 110.485558 159.984318 
L 110.647945 160.068086 
L 111.29749 161.527383 
L 111.784649 161.792084 
L 112.271808 162.87374 
L 112.596581 163.242719 
L 112.758967 163.428844 
L 112.921353 163.804432 
L 113.246126 163.899033 
L 113.570899 165.452686 
L 114.220444 166.15731 
L 114.545216 167.829734 
L 114.869989 169.033379 
L 115.032375 169.145121 
L 115.357148 169.938624 
L 116.006693 171.588332 
L 116.16908 171.709546 
L 116.656239 172.948095 
L 116.818625 173.201766 
L 116.981011 173.201766 
L 117.143398 173.329373 
L 117.305784 173.71533 
L 117.46817 173.71533 
L 117.630557 174.237418 
L 117.792943 174.237418 
L 117.955329 174.501748 
L 118.117716 174.501748 
L 118.442488 175.037167 
L 118.767261 175.172457 
L 118.929647 175.719516 
L 119.416806 175.996655 
L 119.741579 176.843031 
L 120.066351 178.008167 
L 120.228738 178.60733 
L 120.391124 178.758921 
L 120.55351 180.637394 
L 121.040669 181.787316 
L 121.365442 182.635213 
L 121.527828 183.683812 
L 121.690215 183.862029 
L 121.852601 185.138642 
L 122.014987 185.325319 
L 122.177374 186.275696 
L 122.33976 186.275696 
L 122.989305 187.858675 
L 123.151692 187.858675 
L 123.314078 188.062269 
L 123.801237 189.525559 
L 123.963623 192.673692 
L 124.126009 193.634227 
L 124.288396 195.909079 
L 124.450782 196.172303 
L 124.613168 199.223202 
L 124.775555 199.811165 
L 124.937941 199.811165 
L 125.100327 200.10932 
L 125.4251 203.257452 
L 125.587486 203.926735 
L 125.749873 203.926735 
L 126.074645 205.665026 
L 126.237032 205.665026 
L 126.561804 207.128317 
L 126.724191 207.505029 
L 127.048963 208.663015 
L 127.21135 208.663015 
L 127.373736 209.459389 
L 127.536122 212.863256 
L 127.698509 212.863256 
L 128.348054 214.714088 
L 128.51044 214.714088 
L 128.672826 216.680671 
L 128.997599 217.712077 
L 129.484758 217.712077 
L 129.809531 219.882253 
L 129.971917 219.882253 
L 130.459076 221.614163 
L 130.783849 221.614163 
L 130.946235 222.213325 
L 131.108621 222.213325 
L 131.433394 224.082493 
L 131.59578 224.082493 
L 131.758167 224.731075 
L 131.920553 224.731075 
L 132.407712 226.761139 
L 132.732485 226.761139 
L 132.894871 227.468024 
L 133.38203 227.468024 
L 133.544416 228.191161 
L 133.706802 228.191161 
L 133.869189 228.931315 
L 134.031575 228.931315 
L 134.193961 229.689305 
L 134.68112 229.689305 
L 135.005893 231.262387 
L 135.817825 231.262387 
L 135.980211 232.079448 
L 136.792143 232.079448 
L 136.954529 232.9183 
L 137.766461 232.9183 
L 137.928847 233.780136 
L 138.091233 233.780136 
L 138.253619 234.666253 
L 138.903165 234.666253 
L 139.065551 235.578059 
L 139.715096 235.578059 
L 139.877483 236.517086 
L 140.202255 236.517086 
L 140.364642 237.485011 
L 141.176573 237.485011 
L 141.33896 238.483669 
L 143.449982 238.483669 
L 143.612368 239.515075 
L 145.073845 239.515075 
L 145.236231 240.581451 
L 146.372936 240.581451 
L 146.535322 241.685251 
L 146.860095 241.685251 
L 147.022481 242.829198 
L 148.483958 242.829198 
L 148.646344 244.016323 
L 151.082139 244.016323 
L 151.244525 245.250014 
L 153.030775 245.250014 
L 153.193161 246.534073 
L 154.492252 246.534073 
L 154.654638 247.872788 
L 156.440888 247.872788 
L 156.603274 249.271022 
L 158.876682 249.271022 
L 159.039069 250.734313 
L 161.799636 250.734313 
L 161.962023 252.269011 
L 164.884976 252.269011 
L 165.047363 253.882446 
L 166.833612 253.882446 
L 166.995999 255.583134 
L 169.269407 255.583134 
L 169.431793 257.381057 
L 172.517134 257.381057 
L 172.67952 259.288009 
L 176.576792 259.288009 
L 176.739178 261.318073 
L 180.311677 261.318073 
L 180.474063 263.488249 
L 185.670426 263.488249 
L 185.832812 265.819321 
L 191.516333 265.819321 
L 191.67872 268.33707 
L 198.011786 268.33707 
L 198.174172 271.07402 
L 202.883376 271.07402 
L 203.045762 274.072009 
L 210.19076 274.072009 
L 210.353147 277.386132 
L 218.959622 277.386132 
L 219.122008 281.091006 
L 225.455075 281.091006 
L 225.617461 285.291247 
L 232.437686 285.291247 
L 232.600073 290.140068 
L 239.582685 290.140068 
L 239.745071 295.875007 
L 248.026773 295.875007 
L 248.18916 302.894004 
L 259.393816 302.894004 
L 259.556202 311.943066 
L 277.74347 311.943066 
L 277.905857 324.697002 
L 314.280393 324.697002 
L 314.442779 346.5 
L 518.237614 346.5 
L 518.237614 346.5 
" style="fill:none;opacity:0.4;stroke:#f7b02a;stroke-linecap:round;stroke-width:2.0;"/>
   </g>
   <g id="line2d_18">
    <path clip-path="url(#p11f4040b11)" d="M 119.741579 346.5 
L 119.741579 39.6 
" style="fill:none;stroke:#f7b02a;stroke-dasharray:6.000000,6.000000;stroke-dashoffset:0.0;stroke-width:2.0;"/>
   </g>
   <g id="line2d_19">
    <path clip-path="url(#p11f4040b11)" d="M 73.623863 53.279493 
L 74.111022 61.667803 
L 74.435795 77.691813 
L 74.598181 78.159921 
L 74.922954 81.91914 
L 75.247726 103.946718 
L 75.572499 161.177879 
L 75.734885 164.666268 
L 75.897272 216.680671 
L 76.059658 218.240746 
L 76.384431 227.468024 
L 76.546817 238.483669 
L 76.709203 239.515075 
L 77.033976 244.016323 
L 77.196362 244.016323 
L 77.358749 245.250014 
L 77.521135 245.250014 
L 77.683521 247.872788 
L 77.845908 247.872788 
L 78.008294 249.271022 
L 78.17068 253.882446 
L 78.982612 253.882446 
L 79.144998 255.583134 
L 79.307385 259.288009 
L 79.632157 259.288009 
L 79.794543 263.488249 
L 80.444089 263.488249 
L 80.606475 265.819321 
L 80.768861 265.819321 
L 80.931248 268.33707 
L 81.25602 268.33707 
L 81.418407 271.07402 
L 82.392725 271.07402 
L 82.555111 274.072009 
L 83.204656 274.072009 
L 83.367043 277.386132 
L 84.34136 277.386132 
L 84.503747 281.091006 
L 85.153292 281.091006 
L 85.315678 285.291247 
L 86.12761 285.291247 
L 86.289996 290.140068 
L 88.563405 290.140068 
L 88.725791 295.875007 
L 89.700109 295.875007 
L 89.862495 302.894004 
L 91.648745 302.894004 
L 91.811131 311.943066 
L 97.332266 311.943066 
L 97.494653 324.697002 
L 103.34056 324.697002 
L 103.502947 346.5 
L 127.373736 346.5 
L 127.373736 346.5 
" style="fill:none;opacity:0.4;stroke:#02b72a;stroke-linecap:round;stroke-width:2.0;"/>
   </g>
   <g id="line2d_20">
    <path clip-path="url(#p11f4040b11)" d="M 75.410113 346.5 
L 75.410113 39.6 
" style="fill:none;stroke:#02b72a;stroke-dasharray:6.000000,6.000000;stroke-dashoffset:0.0;stroke-width:2.0;"/>
   </g>
   <g id="line2d_21">
    <path clip-path="url(#p11f4040b11)" d="M 73.623863 101.080906 
L 73.78625 105.818473 
L 73.948636 108.000398 
L 74.111022 108.273992 
L 74.273409 110.448787 
L 74.435795 110.972759 
L 74.598181 113.867008 
L 74.922954 114.569944 
L 75.08534 114.589696 
L 75.410113 115.675155 
L 75.734885 118.097607 
L 76.059658 119.176172 
L 76.222044 120.578562 
L 76.709203 121.279473 
L 76.87159 121.796959 
L 77.033976 124.792464 
L 77.196362 125.427384 
L 77.358749 125.483205 
L 77.521135 127.561727 
L 77.845908 128.164333 
L 78.333067 129.532161 
L 78.657839 129.65951 
L 78.982612 130.500086 
L 79.144998 130.532869 
L 79.632157 131.702337 
L 79.794543 131.907257 
L 79.95693 132.600128 
L 80.281702 132.740553 
L 80.444089 132.987814 
L 80.606475 133.560391 
L 80.931248 133.66892 
L 81.093634 133.705179 
L 81.580793 135.039163 
L 81.743179 136.117288 
L 81.905566 136.392694 
L 82.067952 136.432236 
L 82.230338 136.670533 
L 82.392725 138.056084 
L 82.879884 138.772439 
L 83.04227 138.81509 
L 83.204656 139.856457 
L 83.691815 140.615523 
L 84.016588 141.766167 
L 84.178974 141.860062 
L 85.315678 144.405251 
L 85.640451 145.231705 
L 85.802837 145.441756 
L 85.965224 146.842385 
L 87.101928 149.126878 
L 87.426701 149.305095 
L 87.751473 151.335159 
L 88.076246 153.234169 
L 88.238632 153.301741 
L 88.401019 153.778859 
L 88.563405 153.847613 
L 88.725791 155.255234 
L 88.888178 155.617207 
L 89.050564 156.955923 
L 89.700109 157.959483 
L 89.862495 159.404102 
L 90.024882 159.486338 
L 90.187268 160.320739 
L 90.349654 162.418521 
L 90.512041 162.418521 
L 90.674427 163.150068 
L 90.836813 164.861037 
L 91.161586 165.353302 
L 91.323972 166.15731 
L 91.486359 168.045181 
L 91.648745 168.262113 
L 92.29829 170.517924 
L 92.460677 170.870695 
L 92.623063 172.322725 
L 92.947836 173.074675 
L 93.110222 173.975291 
L 93.272608 173.975291 
L 93.434995 174.369305 
L 93.597381 175.996655 
L 93.922154 176.276258 
L 94.246926 177.566168 
L 94.409312 179.064312 
L 94.734085 179.528032 
L 94.896471 180.476498 
L 95.058858 180.637394 
L 95.38363 181.289336 
L 95.870789 187.057229 
L 96.033176 187.255684 
L 97.007494 191.060258 
L 97.332266 193.634227 
L 97.657039 199.51581 
L 97.819425 200.714243 
L 97.981812 201.021125 
L 98.468971 202.602115 
L 98.793743 203.257452 
L 98.95613 203.926735 
L 99.280902 203.926735 
L 99.605675 204.610568 
L 99.768061 204.610568 
L 100.092834 205.665026 
L 100.417606 205.665026 
L 100.742379 207.128317 
L 100.904765 207.128317 
L 101.229538 208.272264 
L 101.554311 209.058682 
L 101.716697 209.058682 
L 101.879083 209.865267 
L 102.366242 209.865267 
L 103.178174 211.977139 
L 103.827719 211.977139 
L 104.152492 212.863256 
L 104.314878 212.863256 
L 104.477264 213.315854 
L 105.12681 213.315854 
L 105.289196 213.775061 
L 105.613969 215.194328 
L 105.776355 215.682013 
L 106.263514 215.682013 
L 107.075446 218.240746 
L 108.049764 218.240746 
L 108.21215 218.778453 
L 108.374536 218.778453 
L 108.536923 219.325512 
L 109.348854 219.325512 
L 109.51124 219.882253 
L 109.673627 219.882253 
L 109.836013 220.449027 
L 110.647945 220.449027 
L 110.810331 221.0262 
L 111.622263 221.0262 
L 111.784649 221.614163 
L 112.109422 221.614163 
L 112.271808 222.213325 
L 112.434194 222.213325 
L 112.596581 222.824123 
L 113.246126 222.824123 
L 113.408512 223.447016 
L 114.707603 223.447016 
L 114.869989 224.082493 
L 115.681921 224.082493 
L 115.844307 224.731075 
L 117.305784 224.731075 
L 117.46817 225.393311 
L 118.767261 225.393311 
L 118.929647 226.069791 
L 119.25442 226.069791 
L 119.416806 226.761139 
L 120.55351 226.761139 
L 120.715897 227.468024 
L 121.365442 227.468024 
L 121.527828 228.191161 
L 122.989305 228.191161 
L 123.151692 228.931315 
L 124.775555 228.931315 
L 124.937941 229.689305 
L 125.912259 229.689305 
L 126.074645 230.466013 
L 127.698509 230.466013 
L 127.860895 231.262387 
L 128.51044 231.262387 
L 128.672826 232.079448 
L 130.946235 232.079448 
L 131.108621 232.9183 
L 132.732485 232.9183 
L 132.894871 233.780136 
L 134.193961 233.780136 
L 134.356348 234.666253 
L 135.493052 234.666253 
L 135.655438 235.578059 
L 137.604074 235.578059 
L 137.766461 236.517086 
L 140.039869 236.517086 
L 140.202255 237.485011 
L 141.988505 237.485011 
L 142.150891 238.483669 
L 142.962823 238.483669 
L 143.125209 239.515075 
L 144.586686 239.515075 
L 144.749072 240.581451 
L 146.372936 240.581451 
L 146.535322 241.685251 
L 147.996799 241.685251 
L 148.159185 242.829198 
L 150.270207 242.829198 
L 150.432594 244.016323 
L 153.030775 244.016323 
L 153.193161 245.250014 
L 153.842706 245.250014 
L 154.005093 246.534073 
L 155.791342 246.534073 
L 155.953729 247.872788 
L 157.415206 247.872788 
L 157.577592 249.271022 
L 159.526228 249.271022 
L 159.688614 250.734313 
L 162.286795 250.734313 
L 162.449182 252.269011 
L 165.696908 252.269011 
L 165.859294 253.882446 
L 169.756566 253.882446 
L 169.918952 255.583134 
L 172.841906 255.583134 
L 173.004292 257.381057 
L 174.952928 257.381057 
L 175.115315 259.288009 
L 177.388723 259.288009 
L 177.551109 261.318073 
L 179.499745 261.318073 
L 179.662132 263.488249 
L 182.585085 263.488249 
L 182.747472 265.819321 
L 185.183267 265.819321 
L 185.345653 268.33707 
L 189.080538 268.33707 
L 189.242925 271.07402 
L 192.003492 271.07402 
L 192.165879 274.072009 
L 195.413605 274.072009 
L 195.575991 277.386132 
L 199.14849 277.386132 
L 199.310877 281.091006 
L 202.396217 281.091006 
L 202.558603 285.291247 
L 206.943034 285.291247 
L 207.10542 290.140068 
L 210.515533 290.140068 
L 210.677919 295.875007 
L 214.575191 295.875007 
L 214.737577 302.894004 
L 217.822917 302.894004 
L 217.985304 311.943066 
L 222.694507 311.943066 
L 222.856893 324.697002 
L 235.523027 324.697002 
L 235.685413 346.5 
L 322.074936 346.5 
L 322.074936 346.5 
" style="fill:none;opacity:0.4;stroke:#009e9e;stroke-linecap:round;stroke-width:2.0;"/>
   </g>
   <g id="line2d_22">
    <path clip-path="url(#p11f4040b11)" d="M 96.033176 346.5 
L 96.033176 39.6 
" style="fill:none;stroke:#009e9e;stroke-dasharray:6.000000,6.000000;stroke-dashoffset:0.0;stroke-width:2.0;"/>
   </g>
   <g id="patch_3">
    <path d="M 72 39.6 
L 518.4 39.6 
" style="fill:none;stroke:#262626;stroke-linecap:square;stroke-linejoin:miter;stroke-width:1.25;"/>
   </g>
   <g id="patch_4">
    <path d="M 518.4 346.5 
L 518.4 39.6 
" style="fill:none;stroke:#262626;stroke-linecap:square;stroke-linejoin:miter;stroke-width:1.25;"/>
   </g>
   <g id="patch_5">
    <path d="M 72 346.5 
L 518.4 346.5 
" style="fill:none;stroke:#262626;stroke-linecap:square;stroke-linejoin:miter;stroke-width:1.25;"/>
   </g>
   <g id="patch_6">
    <path d="M 72 346.5 
L 72 39.6 
" style="fill:none;stroke:#262626;stroke-linecap:square;stroke-linejoin:miter;stroke-width:1.25;"/>
   </g>
   <g id="text_14">
    <!-- B6 4wks naive Lung -->
    <defs>
     <path d="M 16.15625 0 
L 0.296875 51.859375 
L 9.375 51.859375 
L 17.625 21.921875 
L 20.703125 10.796875 
Q 20.90625 11.625 23.390625 21.484375 
L 31.640625 51.859375 
L 40.671875 51.859375 
L 48.4375 21.78125 
L 51.03125 11.859375 
L 54 21.875 
L 62.890625 51.859375 
L 71.4375 51.859375 
L 55.21875 0 
L 46.09375 0 
L 37.84375 31.0625 
L 35.84375 39.890625 
L 25.34375 0 
z
" id="ArialMT-77"/>
     <path d="M 21 0 
L 1.265625 51.859375 
L 10.546875 51.859375 
L 21.6875 20.796875 
Q 23.484375 15.765625 25 10.359375 
Q 26.171875 14.453125 28.265625 20.21875 
L 39.796875 51.859375 
L 48.828125 51.859375 
L 29.203125 0 
z
" id="ArialMT-76"/>
     <path d="M 7.328125 0 
L 7.328125 71.578125 
L 34.1875 71.578125 
Q 42.390625 71.578125 47.34375 69.40625 
Q 52.296875 67.234375 55.09375 62.71875 
Q 57.90625 58.203125 57.90625 53.265625 
Q 57.90625 48.6875 55.421875 44.625 
Q 52.9375 40.578125 47.90625 38.09375 
Q 54.390625 36.1875 57.875 31.59375 
Q 61.375 27 61.375 20.75 
Q 61.375 15.71875 59.25 11.390625 
Q 57.125 7.078125 54 4.734375 
Q 50.875 2.390625 46.15625 1.1875 
Q 41.453125 0 34.625 0 
z
M 16.796875 41.5 
L 32.28125 41.5 
Q 38.578125 41.5 41.3125 42.328125 
Q 44.921875 43.40625 46.75 45.890625 
Q 48.578125 48.390625 48.578125 52.15625 
Q 48.578125 55.71875 46.875 58.421875 
Q 45.171875 61.140625 41.984375 62.140625 
Q 38.8125 63.140625 31.109375 63.140625 
L 16.796875 63.140625 
z
M 16.796875 8.453125 
L 34.625 8.453125 
Q 39.203125 8.453125 41.0625 8.796875 
Q 44.34375 9.375 46.53125 10.734375 
Q 48.734375 12.109375 50.140625 14.71875 
Q 51.5625 17.328125 51.5625 20.75 
Q 51.5625 24.75 49.515625 27.703125 
Q 47.46875 30.671875 43.828125 31.859375 
Q 40.1875 33.0625 33.34375 33.0625 
L 16.796875 33.0625 
z
" id="ArialMT-42"/>
     <path d="M 7.328125 0 
L 7.328125 71.578125 
L 16.796875 71.578125 
L 16.796875 8.453125 
L 52.046875 8.453125 
L 52.046875 0 
z
" id="ArialMT-4c"/>
     <path d="M 32.328125 0 
L 32.328125 17.140625 
L 1.265625 17.140625 
L 1.265625 25.203125 
L 33.9375 71.578125 
L 41.109375 71.578125 
L 41.109375 25.203125 
L 50.78125 25.203125 
L 50.78125 17.140625 
L 41.109375 17.140625 
L 41.109375 0 
z
M 32.328125 25.203125 
L 32.328125 57.46875 
L 9.90625 25.203125 
z
" id="ArialMT-34"/>
     <path d="M 6.640625 61.46875 
L 6.640625 71.578125 
L 15.4375 71.578125 
L 15.4375 61.46875 
z
M 6.640625 0 
L 6.640625 51.859375 
L 15.4375 51.859375 
L 15.4375 0 
z
" id="ArialMT-69"/>
     <path d="M 49.75 54.046875 
L 41.015625 53.375 
Q 39.84375 58.546875 37.703125 60.890625 
Q 34.125 64.65625 28.90625 64.65625 
Q 24.703125 64.65625 21.53125 62.3125 
Q 17.390625 59.28125 14.984375 53.46875 
Q 12.59375 47.65625 12.5 36.921875 
Q 15.671875 41.75 20.265625 44.09375 
Q 24.859375 46.4375 29.890625 46.4375 
Q 38.671875 46.4375 44.84375 39.96875 
Q 51.03125 33.5 51.03125 23.25 
Q 51.03125 16.5 48.125 10.71875 
Q 45.21875 4.9375 40.140625 1.859375 
Q 35.0625 -1.21875 28.609375 -1.21875 
Q 17.625 -1.21875 10.6875 6.859375 
Q 3.765625 14.9375 3.765625 33.5 
Q 3.765625 54.25 11.421875 63.671875 
Q 18.109375 71.875 29.4375 71.875 
Q 37.890625 71.875 43.28125 67.140625 
Q 48.6875 62.40625 49.75 54.046875 
M 13.875 23.1875 
Q 13.875 18.65625 15.796875 14.5 
Q 17.71875 10.359375 21.1875 8.171875 
Q 24.65625 6 28.46875 6 
Q 34.03125 6 38.03125 10.484375 
Q 42.046875 14.984375 42.046875 22.703125 
Q 42.046875 30.125 38.078125 34.390625 
Q 34.125 38.671875 28.125 38.671875 
Q 22.171875 38.671875 18.015625 34.390625 
Q 13.875 30.125 13.875 23.1875 
" id="ArialMT-36"/>
    </defs>
    <g style="fill:#262626;" transform="translate(241.501875 34.6)scale(0.12 -0.12)">
     <use xlink:href="#ArialMT-42"/>
     <use x="66.69921875" xlink:href="#ArialMT-36"/>
     <use x="122.314453125" xlink:href="#ArialMT-20"/>
     <use x="150.09765625" xlink:href="#ArialMT-34"/>
     <use x="205.712890625" xlink:href="#ArialMT-77"/>
     <use x="277.9296875" xlink:href="#ArialMT-6b"/>
     <use x="327.9296875" xlink:href="#ArialMT-73"/>
     <use x="377.9296875" xlink:href="#ArialMT-20"/>
     <use x="405.712890625" xlink:href="#ArialMT-6e"/>
     <use x="461.328125" xlink:href="#ArialMT-61"/>
     <use x="516.943359375" xlink:href="#ArialMT-69"/>
     <use x="539.16015625" xlink:href="#ArialMT-76"/>
     <use x="589.16015625" xlink:href="#ArialMT-65"/>
     <use x="644.775390625" xlink:href="#ArialMT-20"/>
     <use x="672.55859375" xlink:href="#ArialMT-4c"/>
     <use x="728.173828125" xlink:href="#ArialMT-75"/>
     <use x="783.7890625" xlink:href="#ArialMT-6e"/>
     <use x="839.404296875" xlink:href="#ArialMT-67"/>
    </g>
   </g>
   <g id="legend_1">
    <g id="line2d_23">
     <path d="M 390.257812 52.257812 
L 410.257812 52.257812 
" style="fill:none;stroke:#808080;stroke-linecap:round;stroke-width:3.0;"/>
    </g>
    <g id="line2d_24"/>
    <g id="text_15">
     <!-- mean threshold: 111 -->
     <defs>
      <path d="M 25.78125 7.859375 
L 27.046875 0.09375 
Q 23.34375 -0.6875 20.40625 -0.6875 
Q 15.625 -0.6875 12.984375 0.828125 
Q 10.359375 2.34375 9.28125 4.8125 
Q 8.203125 7.28125 8.203125 15.1875 
L 8.203125 45.015625 
L 1.765625 45.015625 
L 1.765625 51.859375 
L 8.203125 51.859375 
L 8.203125 64.703125 
L 16.9375 69.96875 
L 16.9375 51.859375 
L 25.78125 51.859375 
L 25.78125 45.015625 
L 16.9375 45.015625 
L 16.9375 14.703125 
Q 16.9375 10.9375 17.40625 9.859375 
Q 17.875 8.796875 18.921875 8.15625 
Q 19.96875 7.515625 21.921875 7.515625 
Q 23.390625 7.515625 25.78125 7.859375 
" id="ArialMT-74"/>
      <path d="M 9.03125 41.84375 
L 9.03125 51.859375 
L 19.046875 51.859375 
L 19.046875 41.84375 
z
M 9.03125 0 
L 9.03125 10.015625 
L 19.046875 10.015625 
L 19.046875 0 
z
" id="ArialMT-3a"/>
      <path d="M 6.59375 0 
L 6.59375 71.578125 
L 15.375 71.578125 
L 15.375 45.90625 
Q 21.53125 53.03125 30.90625 53.03125 
Q 36.671875 53.03125 40.921875 50.75 
Q 45.171875 48.484375 47 44.484375 
Q 48.828125 40.484375 48.828125 32.859375 
L 48.828125 0 
L 40.046875 0 
L 40.046875 32.859375 
Q 40.046875 39.453125 37.1875 42.453125 
Q 34.328125 45.453125 29.109375 45.453125 
Q 25.203125 45.453125 21.75 43.421875 
Q 18.3125 41.40625 16.84375 37.9375 
Q 15.375 34.46875 15.375 28.375 
L 15.375 0 
z
" id="ArialMT-68"/>
     </defs>
     <g style="fill:#262626;" transform="translate(418.2578125 55.7578125)scale(0.1 -0.1)">
      <use xlink:href="#ArialMT-6d"/>
      <use x="83.30078125" xlink:href="#ArialMT-65"/>
      <use x="138.916015625" xlink:href="#ArialMT-61"/>
      <use x="194.53125" xlink:href="#ArialMT-6e"/>
      <use x="250.146484375" xlink:href="#ArialMT-20"/>
      <use x="277.9296875" xlink:href="#ArialMT-74"/>
      <use x="305.712890625" xlink:href="#ArialMT-68"/>
      <use x="361.328125" xlink:href="#ArialMT-72"/>
      <use x="394.62890625" xlink:href="#ArialMT-65"/>
      <use x="450.244140625" xlink:href="#ArialMT-73"/>
      <use x="500.244140625" xlink:href="#ArialMT-68"/>
      <use x="555.859375" xlink:href="#ArialMT-6f"/>
      <use x="611.474609375" xlink:href="#ArialMT-6c"/>
      <use x="633.69140625" xlink:href="#ArialMT-64"/>
      <use x="689.306640625" xlink:href="#ArialMT-3a"/>
      <use x="717.08984375" xlink:href="#ArialMT-20"/>
      <use x="744.873046875" xlink:href="#ArialMT-31"/>
      <use x="800.37890625" xlink:href="#ArialMT-31"/>
      <use x="855.884765625" xlink:href="#ArialMT-31"/>
     </g>
    </g>
    <g id="line2d_25">
     <path d="M 390.257812 66.403125 
L 410.257812 66.403125 
" style="fill:none;opacity:0.4;stroke:#2c5ebf;stroke-linecap:round;stroke-width:2.0;"/>
    </g>
    <g id="line2d_26"/>
    <g id="text_16">
     <!-- mouse 1: 63 -->
     <defs>
      <path d="M 4.203125 18.890625 
L 12.984375 20.0625 
Q 14.5 12.59375 18.140625 9.296875 
Q 21.78125 6 27 6 
Q 33.203125 6 37.46875 10.296875 
Q 41.75 14.59375 41.75 20.953125 
Q 41.75 27 37.796875 30.921875 
Q 33.84375 34.859375 27.734375 34.859375 
Q 25.25 34.859375 21.53125 33.890625 
L 22.515625 41.609375 
Q 23.390625 41.5 23.921875 41.5 
Q 29.546875 41.5 34.03125 44.421875 
Q 38.53125 47.359375 38.53125 53.46875 
Q 38.53125 58.296875 35.25 61.46875 
Q 31.984375 64.65625 26.8125 64.65625 
Q 21.6875 64.65625 18.265625 61.421875 
Q 14.84375 58.203125 13.875 51.765625 
L 5.078125 53.328125 
Q 6.6875 62.15625 12.390625 67.015625 
Q 18.109375 71.875 26.609375 71.875 
Q 32.46875 71.875 37.390625 69.359375 
Q 42.328125 66.84375 44.9375 62.5 
Q 47.5625 58.15625 47.5625 53.265625 
Q 47.5625 48.640625 45.0625 44.828125 
Q 42.578125 41.015625 37.703125 38.765625 
Q 44.046875 37.3125 47.5625 32.6875 
Q 51.078125 28.078125 51.078125 21.140625 
Q 51.078125 11.765625 44.234375 5.25 
Q 37.40625 -1.265625 26.953125 -1.265625 
Q 17.53125 -1.265625 11.296875 4.34375 
Q 5.078125 9.96875 4.203125 18.890625 
" id="ArialMT-33"/>
     </defs>
     <g style="fill:#262626;" transform="translate(418.2578125 69.903125)scale(0.1 -0.1)">
      <use xlink:href="#ArialMT-6d"/>
      <use x="83.30078125" xlink:href="#ArialMT-6f"/>
      <use x="138.916015625" xlink:href="#ArialMT-75"/>
      <use x="194.53125" xlink:href="#ArialMT-73"/>
      <use x="244.53125" xlink:href="#ArialMT-65"/>
      <use x="300.146484375" xlink:href="#ArialMT-20"/>
      <use x="327.9296875" xlink:href="#ArialMT-31"/>
      <use x="383.544921875" xlink:href="#ArialMT-3a"/>
      <use x="411.328125" xlink:href="#ArialMT-20"/>
      <use x="439.111328125" xlink:href="#ArialMT-36"/>
      <use x="494.7265625" xlink:href="#ArialMT-33"/>
     </g>
    </g>
    <g id="line2d_27">
     <path d="M 390.257812 80.548437 
L 410.257812 80.548437 
" style="fill:none;opacity:0.4;stroke:#ff1313;stroke-linecap:round;stroke-width:2.0;"/>
    </g>
    <g id="line2d_28"/>
    <g id="text_17">
     <!-- mouse 2: 60 -->
     <g style="fill:#262626;" transform="translate(418.2578125 84.0484375)scale(0.1 -0.1)">
      <use xlink:href="#ArialMT-6d"/>
      <use x="83.30078125" xlink:href="#ArialMT-6f"/>
      <use x="138.916015625" xlink:href="#ArialMT-75"/>
      <use x="194.53125" xlink:href="#ArialMT-73"/>
      <use x="244.53125" xlink:href="#ArialMT-65"/>
      <use x="300.146484375" xlink:href="#ArialMT-20"/>
      <use x="327.9296875" xlink:href="#ArialMT-32"/>
      <use x="383.544921875" xlink:href="#ArialMT-3a"/>
      <use x="411.328125" xlink:href="#ArialMT-20"/>
      <use x="439.111328125" xlink:href="#ArialMT-36"/>
      <use x="494.7265625" xlink:href="#ArialMT-30"/>
     </g>
    </g>
    <g id="line2d_29">
     <path d="M 390.257812 94.69375 
L 410.257812 94.69375 
" style="fill:none;opacity:0.4;stroke:#f7b02a;stroke-linecap:round;stroke-width:2.0;"/>
    </g>
    <g id="line2d_30"/>
    <g id="text_18">
     <!-- mouse 3: 284 -->
     <defs>
      <path d="M 17.671875 38.8125 
Q 12.203125 40.828125 9.5625 44.53125 
Q 6.9375 48.25 6.9375 53.421875 
Q 6.9375 61.234375 12.546875 66.546875 
Q 18.171875 71.875 27.484375 71.875 
Q 36.859375 71.875 42.578125 66.421875 
Q 48.296875 60.984375 48.296875 53.171875 
Q 48.296875 48.1875 45.671875 44.5 
Q 43.0625 40.828125 37.75 38.8125 
Q 44.34375 36.671875 47.78125 31.875 
Q 51.21875 27.09375 51.21875 20.453125 
Q 51.21875 11.28125 44.71875 5.03125 
Q 38.234375 -1.21875 27.640625 -1.21875 
Q 17.046875 -1.21875 10.546875 5.046875 
Q 4.046875 11.328125 4.046875 20.703125 
Q 4.046875 27.6875 7.59375 32.390625 
Q 11.140625 37.109375 17.671875 38.8125 
M 15.921875 53.71875 
Q 15.921875 48.640625 19.1875 45.40625 
Q 22.46875 42.1875 27.6875 42.1875 
Q 32.765625 42.1875 36.015625 45.375 
Q 39.265625 48.578125 39.265625 53.21875 
Q 39.265625 58.0625 35.90625 61.359375 
Q 32.5625 64.65625 27.59375 64.65625 
Q 22.5625 64.65625 19.234375 61.421875 
Q 15.921875 58.203125 15.921875 53.71875 
M 13.09375 20.65625 
Q 13.09375 16.890625 14.875 13.375 
Q 16.65625 9.859375 20.171875 7.921875 
Q 23.6875 6 27.734375 6 
Q 34.03125 6 38.125 10.046875 
Q 42.234375 14.109375 42.234375 20.359375 
Q 42.234375 26.703125 38.015625 30.859375 
Q 33.796875 35.015625 27.4375 35.015625 
Q 21.234375 35.015625 17.15625 30.90625 
Q 13.09375 26.8125 13.09375 20.65625 
" id="ArialMT-38"/>
     </defs>
     <g style="fill:#262626;" transform="translate(418.2578125 98.19375)scale(0.1 -0.1)">
      <use xlink:href="#ArialMT-6d"/>
      <use x="83.30078125" xlink:href="#ArialMT-6f"/>
      <use x="138.916015625" xlink:href="#ArialMT-75"/>
      <use x="194.53125" xlink:href="#ArialMT-73"/>
      <use x="244.53125" xlink:href="#ArialMT-65"/>
      <use x="300.146484375" xlink:href="#ArialMT-20"/>
      <use x="327.9296875" xlink:href="#ArialMT-33"/>
      <use x="383.544921875" xlink:href="#ArialMT-3a"/>
      <use x="411.328125" xlink:href="#ArialMT-20"/>
      <use x="439.111328125" xlink:href="#ArialMT-32"/>
      <use x="494.7265625" xlink:href="#ArialMT-38"/>
      <use x="550.341796875" xlink:href="#ArialMT-34"/>
     </g>
    </g>
    <g id="line2d_31">
     <path d="M 390.257812 108.839062 
L 410.257812 108.839062 
" style="fill:none;opacity:0.4;stroke:#02b72a;stroke-linecap:round;stroke-width:2.0;"/>
    </g>
    <g id="line2d_32"/>
    <g id="text_19">
     <!-- mouse 4: 11 -->
     <g style="fill:#262626;" transform="translate(418.2578125 112.3390625)scale(0.1 -0.1)">
      <use xlink:href="#ArialMT-6d"/>
      <use x="83.30078125" xlink:href="#ArialMT-6f"/>
      <use x="138.916015625" xlink:href="#ArialMT-75"/>
      <use x="194.53125" xlink:href="#ArialMT-73"/>
      <use x="244.53125" xlink:href="#ArialMT-65"/>
      <use x="300.146484375" xlink:href="#ArialMT-20"/>
      <use x="327.9296875" xlink:href="#ArialMT-34"/>
      <use x="383.544921875" xlink:href="#ArialMT-3a"/>
      <use x="411.328125" xlink:href="#ArialMT-20"/>
      <use x="439.111328125" xlink:href="#ArialMT-31"/>
      <use x="494.6171875" xlink:href="#ArialMT-31"/>
     </g>
    </g>
    <g id="line2d_33">
     <path d="M 390.257812 122.984375 
L 410.257812 122.984375 
" style="fill:none;opacity:0.4;stroke:#009e9e;stroke-linecap:round;stroke-width:2.0;"/>
    </g>
    <g id="line2d_34"/>
    <g id="text_20">
     <!-- mouse 5: 138 -->
     <g style="fill:#262626;" transform="translate(418.2578125 126.484375)scale(0.1 -0.1)">
      <use xlink:href="#ArialMT-6d"/>
      <use x="83.30078125" xlink:href="#ArialMT-6f"/>
      <use x="138.916015625" xlink:href="#ArialMT-75"/>
      <use x="194.53125" xlink:href="#ArialMT-73"/>
      <use x="244.53125" xlink:href="#ArialMT-65"/>
      <use x="300.146484375" xlink:href="#ArialMT-20"/>
      <use x="327.9296875" xlink:href="#ArialMT-35"/>
      <use x="383.544921875" xlink:href="#ArialMT-3a"/>
      <use x="411.328125" xlink:href="#ArialMT-20"/>
      <use x="439.111328125" xlink:href="#ArialMT-31"/>
      <use x="494.7265625" xlink:href="#ArialMT-33"/>
      <use x="550.341796875" xlink:href="#ArialMT-38"/>
     </g>
    </g>
   </g>
  </g>
 </g>
 <defs>
  <clipPath id="p11f4040b11">
   <rect height="306.9" width="446.4" x="72.0" y="39.6"/>
  </clipPath>
 </defs>
</svg>
