<?xml version="1.0" encoding="utf-8" standalone="no"?>
<!DOCTYPE svg PUBLIC "-//W3C//DTD SVG 1.1//EN"
  "http://www.w3.org/Graphics/SVG/1.1/DTD/svg11.dtd">
<!-- Created with matplotlib (http://matplotlib.org/) -->
<svg height="396pt" version="1.1" viewBox="0 0 576 396" width="576pt" xmlns="http://www.w3.org/2000/svg" xmlns:xlink="http://www.w3.org/1999/xlink">
 <defs>
  <style type="text/css">
*{stroke-linecap:butt;stroke-linejoin:round;stroke-miterlimit:100000;}
  </style>
 </defs>
 <g id="figure_1">
  <g id="patch_1">
   <path d="M 0 396 
L 576 396 
L 576 0 
L 0 0 
z
" style="fill:#ffffff;"/>
  </g>
  <g id="axes_1">
   <g id="patch_2">
    <path d="M 72 346.5 
L 518.4 346.5 
L 518.4 39.6 
L 72 39.6 
z
" style="fill:#ffffff;"/>
   </g>
   <g id="matplotlib.axis_1">
    <g id="xtick_1">
     <g id="line2d_1">
      <defs>
       <path d="M 0 0 
L 0 5 
" id="mcc4ab405cc" style="stroke:#262626;"/>
      </defs>
      <g>
       <use style="fill:#262626;stroke:#262626;" x="78.488372093" xlink:href="#mcc4ab405cc" y="346.5"/>
      </g>
     </g>
     <g id="text_1">
      <!-- 0 -->
      <defs>
       <path d="M 4.15625 35.296875 
Q 4.15625 48 6.765625 55.734375 
Q 9.375 63.484375 14.515625 67.671875 
Q 19.671875 71.875 27.484375 71.875 
Q 33.25 71.875 37.59375 69.546875 
Q 41.9375 67.234375 44.765625 62.859375 
Q 47.609375 58.5 49.21875 52.21875 
Q 50.828125 45.953125 50.828125 35.296875 
Q 50.828125 22.703125 48.234375 14.96875 
Q 45.65625 7.234375 40.5 3 
Q 35.359375 -1.21875 27.484375 -1.21875 
Q 17.140625 -1.21875 11.234375 6.203125 
Q 4.15625 15.140625 4.15625 35.296875 
M 13.1875 35.296875 
Q 13.1875 17.671875 17.3125 11.828125 
Q 21.4375 6 27.484375 6 
Q 33.546875 6 37.671875 11.859375 
Q 41.796875 17.71875 41.796875 35.296875 
Q 41.796875 52.984375 37.671875 58.78125 
Q 33.546875 64.59375 27.390625 64.59375 
Q 21.34375 64.59375 17.71875 59.46875 
Q 13.1875 52.9375 13.1875 35.296875 
" id="ArialMT-30"/>
      </defs>
      <g style="fill:#262626;" transform="translate(75.707903343 360.6578125)scale(0.1 -0.1)">
       <use xlink:href="#ArialMT-30"/>
      </g>
     </g>
    </g>
    <g id="xtick_2">
     <g id="line2d_2">
      <g>
       <use style="fill:#262626;stroke:#262626;" x="143.372093023" xlink:href="#mcc4ab405cc" y="346.5"/>
      </g>
     </g>
     <g id="text_2">
      <!-- 100 -->
      <defs>
       <path d="M 37.25 0 
L 28.46875 0 
L 28.46875 56 
Q 25.296875 52.984375 20.140625 49.953125 
Q 14.984375 46.921875 10.890625 45.40625 
L 10.890625 53.90625 
Q 18.265625 57.375 23.78125 62.296875 
Q 29.296875 67.234375 31.59375 71.875 
L 37.25 71.875 
z
" id="ArialMT-31"/>
      </defs>
      <g style="fill:#262626;" transform="translate(135.030686773 360.6578125)scale(0.1 -0.1)">
       <use xlink:href="#ArialMT-31"/>
       <use x="55.615234375" xlink:href="#ArialMT-30"/>
       <use x="111.23046875" xlink:href="#ArialMT-30"/>
      </g>
     </g>
    </g>
    <g id="xtick_3">
     <g id="line2d_3">
      <g>
       <use style="fill:#262626;stroke:#262626;" x="208.255813953" xlink:href="#mcc4ab405cc" y="346.5"/>
      </g>
     </g>
     <g id="text_3">
      <!-- 200 -->
      <defs>
       <path d="M 50.34375 8.453125 
L 50.34375 0 
L 3.03125 0 
Q 2.9375 3.171875 4.046875 6.109375 
Q 5.859375 10.9375 9.828125 15.625 
Q 13.8125 20.3125 21.34375 26.46875 
Q 33.015625 36.03125 37.109375 41.625 
Q 41.21875 47.21875 41.21875 52.203125 
Q 41.21875 57.421875 37.46875 61 
Q 33.734375 64.59375 27.734375 64.59375 
Q 21.390625 64.59375 17.578125 60.78125 
Q 13.765625 56.984375 13.71875 50.25 
L 4.6875 51.171875 
Q 5.609375 61.28125 11.65625 66.578125 
Q 17.71875 71.875 27.9375 71.875 
Q 38.234375 71.875 44.234375 66.15625 
Q 50.25 60.453125 50.25 52 
Q 50.25 47.703125 48.484375 43.546875 
Q 46.734375 39.40625 42.65625 34.8125 
Q 38.578125 30.21875 29.109375 22.21875 
Q 21.1875 15.578125 18.9375 13.203125 
Q 16.703125 10.84375 15.234375 8.453125 
z
" id="ArialMT-32"/>
      </defs>
      <g style="fill:#262626;" transform="translate(199.914407703 360.6578125)scale(0.1 -0.1)">
       <use xlink:href="#ArialMT-32"/>
       <use x="55.615234375" xlink:href="#ArialMT-30"/>
       <use x="111.23046875" xlink:href="#ArialMT-30"/>
      </g>
     </g>
    </g>
    <g id="xtick_4">
     <g id="line2d_4">
      <g>
       <use style="fill:#262626;stroke:#262626;" x="273.139534884" xlink:href="#mcc4ab405cc" y="346.5"/>
      </g>
     </g>
     <g id="text_4">
      <!-- 300 -->
      <defs>
       <path d="M 4.203125 18.890625 
L 12.984375 20.0625 
Q 14.5 12.59375 18.140625 9.296875 
Q 21.78125 6 27 6 
Q 33.203125 6 37.46875 10.296875 
Q 41.75 14.59375 41.75 20.953125 
Q 41.75 27 37.796875 30.921875 
Q 33.84375 34.859375 27.734375 34.859375 
Q 25.25 34.859375 21.53125 33.890625 
L 22.515625 41.609375 
Q 23.390625 41.5 23.921875 41.5 
Q 29.546875 41.5 34.03125 44.421875 
Q 38.53125 47.359375 38.53125 53.46875 
Q 38.53125 58.296875 35.25 61.46875 
Q 31.984375 64.65625 26.8125 64.65625 
Q 21.6875 64.65625 18.265625 61.421875 
Q 14.84375 58.203125 13.875 51.765625 
L 5.078125 53.328125 
Q 6.6875 62.15625 12.390625 67.015625 
Q 18.109375 71.875 26.609375 71.875 
Q 32.46875 71.875 37.390625 69.359375 
Q 42.328125 66.84375 44.9375 62.5 
Q 47.5625 58.15625 47.5625 53.265625 
Q 47.5625 48.640625 45.0625 44.828125 
Q 42.578125 41.015625 37.703125 38.765625 
Q 44.046875 37.3125 47.5625 32.6875 
Q 51.078125 28.078125 51.078125 21.140625 
Q 51.078125 11.765625 44.234375 5.25 
Q 37.40625 -1.265625 26.953125 -1.265625 
Q 17.53125 -1.265625 11.296875 4.34375 
Q 5.078125 9.96875 4.203125 18.890625 
" id="ArialMT-33"/>
      </defs>
      <g style="fill:#262626;" transform="translate(264.798128634 360.6578125)scale(0.1 -0.1)">
       <use xlink:href="#ArialMT-33"/>
       <use x="55.615234375" xlink:href="#ArialMT-30"/>
       <use x="111.23046875" xlink:href="#ArialMT-30"/>
      </g>
     </g>
    </g>
    <g id="xtick_5">
     <g id="line2d_5">
      <g>
       <use style="fill:#262626;stroke:#262626;" x="338.023255814" xlink:href="#mcc4ab405cc" y="346.5"/>
      </g>
     </g>
     <g id="text_5">
      <!-- 400 -->
      <defs>
       <path d="M 32.328125 0 
L 32.328125 17.140625 
L 1.265625 17.140625 
L 1.265625 25.203125 
L 33.9375 71.578125 
L 41.109375 71.578125 
L 41.109375 25.203125 
L 50.78125 25.203125 
L 50.78125 17.140625 
L 41.109375 17.140625 
L 41.109375 0 
z
M 32.328125 25.203125 
L 32.328125 57.46875 
L 9.90625 25.203125 
z
" id="ArialMT-34"/>
      </defs>
      <g style="fill:#262626;" transform="translate(329.681849564 360.6578125)scale(0.1 -0.1)">
       <use xlink:href="#ArialMT-34"/>
       <use x="55.615234375" xlink:href="#ArialMT-30"/>
       <use x="111.23046875" xlink:href="#ArialMT-30"/>
      </g>
     </g>
    </g>
    <g id="xtick_6">
     <g id="line2d_6">
      <g>
       <use style="fill:#262626;stroke:#262626;" x="402.906976744" xlink:href="#mcc4ab405cc" y="346.5"/>
      </g>
     </g>
     <g id="text_6">
      <!-- 500 -->
      <defs>
       <path d="M 4.15625 18.75 
L 13.375 19.53125 
Q 14.40625 12.796875 18.140625 9.390625 
Q 21.875 6 27.15625 6 
Q 33.5 6 37.890625 10.78125 
Q 42.28125 15.578125 42.28125 23.484375 
Q 42.28125 31 38.0625 35.34375 
Q 33.84375 39.703125 27 39.703125 
Q 22.75 39.703125 19.328125 37.765625 
Q 15.921875 35.84375 13.96875 32.765625 
L 5.71875 33.84375 
L 12.640625 70.609375 
L 48.25 70.609375 
L 48.25 62.203125 
L 19.671875 62.203125 
L 15.828125 42.96875 
Q 22.265625 47.46875 29.34375 47.46875 
Q 38.71875 47.46875 45.15625 40.96875 
Q 51.609375 34.46875 51.609375 24.265625 
Q 51.609375 14.546875 45.953125 7.46875 
Q 39.0625 -1.21875 27.15625 -1.21875 
Q 17.390625 -1.21875 11.203125 4.25 
Q 5.03125 9.71875 4.15625 18.75 
" id="ArialMT-35"/>
      </defs>
      <g style="fill:#262626;" transform="translate(394.565570494 360.6578125)scale(0.1 -0.1)">
       <use xlink:href="#ArialMT-35"/>
       <use x="55.615234375" xlink:href="#ArialMT-30"/>
       <use x="111.23046875" xlink:href="#ArialMT-30"/>
      </g>
     </g>
    </g>
    <g id="xtick_7">
     <g id="line2d_7">
      <g>
       <use style="fill:#262626;stroke:#262626;" x="467.790697674" xlink:href="#mcc4ab405cc" y="346.5"/>
      </g>
     </g>
     <g id="text_7">
      <!-- 600 -->
      <defs>
       <path d="M 49.75 54.046875 
L 41.015625 53.375 
Q 39.84375 58.546875 37.703125 60.890625 
Q 34.125 64.65625 28.90625 64.65625 
Q 24.703125 64.65625 21.53125 62.3125 
Q 17.390625 59.28125 14.984375 53.46875 
Q 12.59375 47.65625 12.5 36.921875 
Q 15.671875 41.75 20.265625 44.09375 
Q 24.859375 46.4375 29.890625 46.4375 
Q 38.671875 46.4375 44.84375 39.96875 
Q 51.03125 33.5 51.03125 23.25 
Q 51.03125 16.5 48.125 10.71875 
Q 45.21875 4.9375 40.140625 1.859375 
Q 35.0625 -1.21875 28.609375 -1.21875 
Q 17.625 -1.21875 10.6875 6.859375 
Q 3.765625 14.9375 3.765625 33.5 
Q 3.765625 54.25 11.421875 63.671875 
Q 18.109375 71.875 29.4375 71.875 
Q 37.890625 71.875 43.28125 67.140625 
Q 48.6875 62.40625 49.75 54.046875 
M 13.875 23.1875 
Q 13.875 18.65625 15.796875 14.5 
Q 17.71875 10.359375 21.1875 8.171875 
Q 24.65625 6 28.46875 6 
Q 34.03125 6 38.03125 10.484375 
Q 42.046875 14.984375 42.046875 22.703125 
Q 42.046875 30.125 38.078125 34.390625 
Q 34.125 38.671875 28.125 38.671875 
Q 22.171875 38.671875 18.015625 34.390625 
Q 13.875 30.125 13.875 23.1875 
" id="ArialMT-36"/>
      </defs>
      <g style="fill:#262626;" transform="translate(459.449291424 360.6578125)scale(0.1 -0.1)">
       <use xlink:href="#ArialMT-36"/>
       <use x="55.615234375" xlink:href="#ArialMT-30"/>
       <use x="111.23046875" xlink:href="#ArialMT-30"/>
      </g>
     </g>
    </g>
    <g id="text_8">
     <!-- barcode, rank-ordered -->
     <defs>
      <path d="M 40.4375 19 
L 49.078125 17.875 
Q 47.65625 8.9375 41.8125 3.875 
Q 35.984375 -1.171875 27.484375 -1.171875 
Q 16.84375 -1.171875 10.375 5.78125 
Q 3.90625 12.75 3.90625 25.734375 
Q 3.90625 34.125 6.6875 40.421875 
Q 9.46875 46.734375 15.15625 49.875 
Q 20.84375 53.03125 27.546875 53.03125 
Q 35.984375 53.03125 41.359375 48.75 
Q 46.734375 44.484375 48.25 36.625 
L 39.703125 35.296875 
Q 38.484375 40.53125 35.375 43.15625 
Q 32.28125 45.796875 27.875 45.796875 
Q 21.234375 45.796875 17.078125 41.03125 
Q 12.9375 36.28125 12.9375 25.984375 
Q 12.9375 15.53125 16.9375 10.796875 
Q 20.953125 6.0625 27.390625 6.0625 
Q 32.5625 6.0625 36.03125 9.234375 
Q 39.5 12.40625 40.4375 19 
" id="ArialMT-63"/>
      <path d="M 14.703125 0 
L 6.546875 0 
L 6.546875 71.578125 
L 15.328125 71.578125 
L 15.328125 46.046875 
Q 20.90625 53.03125 29.546875 53.03125 
Q 34.328125 53.03125 38.59375 51.09375 
Q 42.875 49.171875 45.625 45.671875 
Q 48.390625 42.1875 49.953125 37.25 
Q 51.515625 32.328125 51.515625 26.703125 
Q 51.515625 13.375 44.921875 6.09375 
Q 38.328125 -1.171875 29.109375 -1.171875 
Q 19.921875 -1.171875 14.703125 6.5 
z
M 14.59375 26.3125 
Q 14.59375 17 17.140625 12.84375 
Q 21.296875 6.0625 28.375 6.0625 
Q 34.125 6.0625 38.328125 11.0625 
Q 42.53125 16.0625 42.53125 25.984375 
Q 42.53125 36.140625 38.5 40.96875 
Q 34.46875 45.796875 28.765625 45.796875 
Q 23 45.796875 18.796875 40.796875 
Q 14.59375 35.796875 14.59375 26.3125 
" id="ArialMT-62"/>
      <path d="M 40.4375 6.390625 
Q 35.546875 2.25 31.03125 0.53125 
Q 26.515625 -1.171875 21.34375 -1.171875 
Q 12.796875 -1.171875 8.203125 3 
Q 3.609375 7.171875 3.609375 13.671875 
Q 3.609375 17.484375 5.34375 20.625 
Q 7.078125 23.78125 9.890625 25.6875 
Q 12.703125 27.59375 16.21875 28.5625 
Q 18.796875 29.25 24.03125 29.890625 
Q 34.671875 31.15625 39.703125 32.90625 
Q 39.75 34.71875 39.75 35.203125 
Q 39.75 40.578125 37.25 42.78125 
Q 33.890625 45.75 27.25 45.75 
Q 21.046875 45.75 18.09375 43.578125 
Q 15.140625 41.40625 13.71875 35.890625 
L 5.125 37.0625 
Q 6.296875 42.578125 8.984375 45.96875 
Q 11.671875 49.359375 16.75 51.1875 
Q 21.828125 53.03125 28.515625 53.03125 
Q 35.15625 53.03125 39.296875 51.46875 
Q 43.453125 49.90625 45.40625 47.53125 
Q 47.359375 45.171875 48.140625 41.546875 
Q 48.578125 39.3125 48.578125 33.453125 
L 48.578125 21.734375 
Q 48.578125 9.46875 49.140625 6.21875 
Q 49.703125 2.984375 51.375 0 
L 42.1875 0 
Q 40.828125 2.734375 40.4375 6.390625 
M 39.703125 26.03125 
Q 34.90625 24.078125 25.34375 22.703125 
Q 19.921875 21.921875 17.671875 20.9375 
Q 15.4375 19.96875 14.203125 18.09375 
Q 12.984375 16.21875 12.984375 13.921875 
Q 12.984375 10.40625 15.640625 8.0625 
Q 18.3125 5.71875 23.4375 5.71875 
Q 28.515625 5.71875 32.46875 7.9375 
Q 36.421875 10.15625 38.28125 14.015625 
Q 39.703125 17 39.703125 22.796875 
z
" id="ArialMT-61"/>
      <path d="M 42.09375 16.703125 
L 51.171875 15.578125 
Q 49.03125 7.625 43.21875 3.21875 
Q 37.40625 -1.171875 28.375 -1.171875 
Q 17 -1.171875 10.328125 5.828125 
Q 3.65625 12.84375 3.65625 25.484375 
Q 3.65625 38.578125 10.390625 45.796875 
Q 17.140625 53.03125 27.875 53.03125 
Q 38.28125 53.03125 44.875 45.953125 
Q 51.46875 38.875 51.46875 26.03125 
Q 51.46875 25.25 51.421875 23.6875 
L 12.75 23.6875 
Q 13.234375 15.140625 17.578125 10.59375 
Q 21.921875 6.0625 28.421875 6.0625 
Q 33.25 6.0625 36.671875 8.59375 
Q 40.09375 11.140625 42.09375 16.703125 
M 13.234375 30.90625 
L 42.1875 30.90625 
Q 41.609375 37.453125 38.875 40.71875 
Q 34.671875 45.796875 27.984375 45.796875 
Q 21.921875 45.796875 17.796875 41.75 
Q 13.671875 37.703125 13.234375 30.90625 
" id="ArialMT-65"/>
      <path d="M 40.234375 0 
L 40.234375 6.546875 
Q 35.296875 -1.171875 25.734375 -1.171875 
Q 19.53125 -1.171875 14.328125 2.25 
Q 9.125 5.671875 6.265625 11.796875 
Q 3.421875 17.921875 3.421875 25.875 
Q 3.421875 33.640625 6 39.96875 
Q 8.59375 46.296875 13.765625 49.65625 
Q 18.953125 53.03125 25.34375 53.03125 
Q 30.03125 53.03125 33.6875 51.046875 
Q 37.359375 49.078125 39.65625 45.90625 
L 39.65625 71.578125 
L 48.390625 71.578125 
L 48.390625 0 
z
M 12.453125 25.875 
Q 12.453125 15.921875 16.640625 10.984375 
Q 20.84375 6.0625 26.5625 6.0625 
Q 32.328125 6.0625 36.34375 10.765625 
Q 40.375 15.484375 40.375 25.140625 
Q 40.375 35.796875 36.265625 40.765625 
Q 32.171875 45.75 26.171875 45.75 
Q 20.3125 45.75 16.375 40.96875 
Q 12.453125 36.1875 12.453125 25.875 
" id="ArialMT-64"/>
      <path d="M 3.171875 21.484375 
L 3.171875 30.328125 
L 30.171875 30.328125 
L 30.171875 21.484375 
z
" id="ArialMT-2d"/>
      <path d="M 8.890625 0 
L 8.890625 10.015625 
L 18.890625 10.015625 
L 18.890625 0 
Q 18.890625 -5.515625 16.9375 -8.90625 
Q 14.984375 -12.3125 10.75 -14.15625 
L 8.296875 -10.40625 
Q 11.078125 -9.1875 12.390625 -6.8125 
Q 13.71875 -4.4375 13.875 0 
z
" id="ArialMT-2c"/>
      <path d="M 6.5 0 
L 6.5 51.859375 
L 14.40625 51.859375 
L 14.40625 44 
Q 17.4375 49.515625 20 51.265625 
Q 22.5625 53.03125 25.640625 53.03125 
Q 30.078125 53.03125 34.671875 50.203125 
L 31.640625 42.046875 
Q 28.421875 43.953125 25.203125 43.953125 
Q 22.3125 43.953125 20.015625 42.21875 
Q 17.71875 40.484375 16.75 37.40625 
Q 15.28125 32.71875 15.28125 27.15625 
L 15.28125 0 
z
" id="ArialMT-72"/>
      <path d="M 6.640625 0 
L 6.640625 71.578125 
L 15.4375 71.578125 
L 15.4375 30.765625 
L 36.234375 51.859375 
L 47.609375 51.859375 
L 27.78125 32.625 
L 49.609375 0 
L 38.765625 0 
L 21.625 26.515625 
L 15.4375 20.5625 
L 15.4375 0 
z
" id="ArialMT-6b"/>
      <path d="M 3.328125 25.921875 
Q 3.328125 40.328125 11.328125 47.265625 
Q 18.015625 53.03125 27.640625 53.03125 
Q 38.328125 53.03125 45.109375 46.015625 
Q 51.90625 39.015625 51.90625 26.65625 
Q 51.90625 16.65625 48.90625 10.90625 
Q 45.90625 5.171875 40.15625 2 
Q 34.421875 -1.171875 27.640625 -1.171875 
Q 16.75 -1.171875 10.03125 5.8125 
Q 3.328125 12.796875 3.328125 25.921875 
M 12.359375 25.921875 
Q 12.359375 15.96875 16.703125 11.015625 
Q 21.046875 6.0625 27.640625 6.0625 
Q 34.1875 6.0625 38.53125 11.03125 
Q 42.875 16.015625 42.875 26.21875 
Q 42.875 35.84375 38.5 40.796875 
Q 34.125 45.75 27.640625 45.75 
Q 21.046875 45.75 16.703125 40.8125 
Q 12.359375 35.890625 12.359375 25.921875 
" id="ArialMT-6f"/>
      <path d="M 6.59375 0 
L 6.59375 51.859375 
L 14.5 51.859375 
L 14.5 44.484375 
Q 20.21875 53.03125 31 53.03125 
Q 35.6875 53.03125 39.625 51.34375 
Q 43.5625 49.65625 45.515625 46.921875 
Q 47.46875 44.1875 48.25 40.4375 
Q 48.734375 37.984375 48.734375 31.890625 
L 48.734375 0 
L 39.9375 0 
L 39.9375 31.546875 
Q 39.9375 36.921875 38.90625 39.578125 
Q 37.890625 42.234375 35.28125 43.8125 
Q 32.671875 45.40625 29.15625 45.40625 
Q 23.53125 45.40625 19.453125 41.84375 
Q 15.375 38.28125 15.375 28.328125 
L 15.375 0 
z
" id="ArialMT-6e"/>
      <path id="ArialMT-20"/>
     </defs>
     <g style="fill:#262626;" transform="translate(240.785234375 375.51890625)scale(0.11 -0.11)">
      <use xlink:href="#ArialMT-62"/>
      <use x="55.615234375" xlink:href="#ArialMT-61"/>
      <use x="111.23046875" xlink:href="#ArialMT-72"/>
      <use x="144.53125" xlink:href="#ArialMT-63"/>
      <use x="194.53125" xlink:href="#ArialMT-6f"/>
      <use x="250.146484375" xlink:href="#ArialMT-64"/>
      <use x="305.76171875" xlink:href="#ArialMT-65"/>
      <use x="361.376953125" xlink:href="#ArialMT-2c"/>
      <use x="389.16015625" xlink:href="#ArialMT-20"/>
      <use x="416.943359375" xlink:href="#ArialMT-72"/>
      <use x="450.244140625" xlink:href="#ArialMT-61"/>
      <use x="505.859375" xlink:href="#ArialMT-6e"/>
      <use x="561.474609375" xlink:href="#ArialMT-6b"/>
      <use x="611.474609375" xlink:href="#ArialMT-2d"/>
      <use x="644.775390625" xlink:href="#ArialMT-6f"/>
      <use x="700.390625" xlink:href="#ArialMT-72"/>
      <use x="733.69140625" xlink:href="#ArialMT-64"/>
      <use x="789.306640625" xlink:href="#ArialMT-65"/>
      <use x="844.921875" xlink:href="#ArialMT-72"/>
      <use x="878.22265625" xlink:href="#ArialMT-65"/>
      <use x="933.837890625" xlink:href="#ArialMT-64"/>
     </g>
    </g>
   </g>
   <g id="matplotlib.axis_2">
    <g id="ytick_1">
     <g id="line2d_8">
      <defs>
       <path d="M 0 0 
L -5 0 
" id="m24c6f96260" style="stroke:#262626;"/>
      </defs>
      <g>
       <use style="fill:#262626;stroke:#262626;" x="72.0" xlink:href="#m24c6f96260" y="346.5"/>
      </g>
     </g>
     <g id="text_9">
      <!-- 1 -->
      <g style="fill:#262626;" transform="translate(59.4390625 349.08515625)scale(0.1 -0.1)">
       <use xlink:href="#ArialMT-31"/>
      </g>
     </g>
    </g>
    <g id="ytick_2">
     <g id="line2d_9">
      <g>
       <use style="fill:#262626;stroke:#262626;" x="72.0" xlink:href="#m24c6f96260" y="274.807178418"/>
      </g>
     </g>
     <g id="text_10">
      <!-- 10 -->
      <g style="fill:#262626;" transform="translate(53.878125 277.392334668)scale(0.1 -0.1)">
       <use xlink:href="#ArialMT-31"/>
       <use x="55.615234375" xlink:href="#ArialMT-30"/>
      </g>
     </g>
    </g>
    <g id="ytick_3">
     <g id="line2d_10">
      <g>
       <use style="fill:#262626;stroke:#262626;" x="72.0" xlink:href="#m24c6f96260" y="203.114356835"/>
      </g>
     </g>
     <g id="text_11">
      <!-- 100 -->
      <g style="fill:#262626;" transform="translate(48.3171875 205.699513085)scale(0.1 -0.1)">
       <use xlink:href="#ArialMT-31"/>
       <use x="55.615234375" xlink:href="#ArialMT-30"/>
       <use x="111.23046875" xlink:href="#ArialMT-30"/>
      </g>
     </g>
    </g>
    <g id="ytick_4">
     <g id="line2d_11">
      <g>
       <use style="fill:#262626;stroke:#262626;" x="72.0" xlink:href="#m24c6f96260" y="131.421535253"/>
      </g>
     </g>
     <g id="text_12">
      <!-- 1000 -->
      <g style="fill:#262626;" transform="translate(42.75625 134.006691503)scale(0.1 -0.1)">
       <use xlink:href="#ArialMT-31"/>
       <use x="55.615234375" xlink:href="#ArialMT-30"/>
       <use x="111.23046875" xlink:href="#ArialMT-30"/>
       <use x="166.845703125" xlink:href="#ArialMT-30"/>
      </g>
     </g>
    </g>
    <g id="ytick_5">
     <g id="line2d_12">
      <g>
       <use style="fill:#262626;stroke:#262626;" x="72.0" xlink:href="#m24c6f96260" y="59.7287136706"/>
      </g>
     </g>
     <g id="text_13">
      <!-- 10000 -->
      <g style="fill:#262626;" transform="translate(37.1953125 62.3138699206)scale(0.1 -0.1)">
       <use xlink:href="#ArialMT-31"/>
       <use x="55.615234375" xlink:href="#ArialMT-30"/>
       <use x="111.23046875" xlink:href="#ArialMT-30"/>
       <use x="166.845703125" xlink:href="#ArialMT-30"/>
       <use x="222.4609375" xlink:href="#ArialMT-30"/>
      </g>
     </g>
    </g>
    <g id="text_14">
     <!-- log10 abundance (# molecules) -->
     <defs>
      <path d="M 4.984375 -4.296875 
L 13.53125 -5.5625 
Q 14.0625 -9.515625 16.5 -11.328125 
Q 19.78125 -13.765625 25.4375 -13.765625 
Q 31.546875 -13.765625 34.859375 -11.328125 
Q 38.1875 -8.890625 39.359375 -4.5 
Q 40.046875 -1.8125 39.984375 6.78125 
Q 34.234375 0 25.640625 0 
Q 14.9375 0 9.078125 7.71875 
Q 3.21875 15.4375 3.21875 26.21875 
Q 3.21875 33.640625 5.90625 39.90625 
Q 8.59375 46.1875 13.6875 49.609375 
Q 18.796875 53.03125 25.6875 53.03125 
Q 34.859375 53.03125 40.828125 45.609375 
L 40.828125 51.859375 
L 48.921875 51.859375 
L 48.921875 7.03125 
Q 48.921875 -5.078125 46.453125 -10.125 
Q 44 -15.1875 38.640625 -18.109375 
Q 33.296875 -21.046875 25.484375 -21.046875 
Q 16.21875 -21.046875 10.5 -16.875 
Q 4.78125 -12.703125 4.984375 -4.296875 
M 12.25 26.859375 
Q 12.25 16.65625 16.296875 11.96875 
Q 20.359375 7.28125 26.46875 7.28125 
Q 32.515625 7.28125 36.609375 11.9375 
Q 40.71875 16.609375 40.71875 26.5625 
Q 40.71875 36.078125 36.5 40.90625 
Q 32.28125 45.75 26.3125 45.75 
Q 20.453125 45.75 16.34375 40.984375 
Q 12.25 36.234375 12.25 26.859375 
" id="ArialMT-67"/>
      <path d="M 40.578125 0 
L 40.578125 7.625 
Q 34.515625 -1.171875 24.125 -1.171875 
Q 19.53125 -1.171875 15.546875 0.578125 
Q 11.578125 2.34375 9.640625 5 
Q 7.71875 7.671875 6.9375 11.53125 
Q 6.390625 14.109375 6.390625 19.734375 
L 6.390625 51.859375 
L 15.1875 51.859375 
L 15.1875 23.09375 
Q 15.1875 16.21875 15.71875 13.8125 
Q 16.546875 10.359375 19.234375 8.375 
Q 21.921875 6.390625 25.875 6.390625 
Q 29.828125 6.390625 33.296875 8.421875 
Q 36.765625 10.453125 38.203125 13.9375 
Q 39.65625 17.4375 39.65625 24.078125 
L 39.65625 51.859375 
L 48.4375 51.859375 
L 48.4375 0 
z
" id="ArialMT-75"/>
      <path d="M 23.390625 -21.046875 
Q 16.109375 -11.859375 11.078125 0.4375 
Q 6.0625 12.75 6.0625 25.921875 
Q 6.0625 37.546875 9.8125 48.1875 
Q 14.203125 60.546875 23.390625 72.796875 
L 29.6875 72.796875 
Q 23.78125 62.640625 21.875 58.296875 
Q 18.890625 51.5625 17.1875 44.234375 
Q 15.09375 35.109375 15.09375 25.875 
Q 15.09375 2.390625 29.6875 -21.046875 
z
" id="ArialMT-28"/>
      <path d="M 3.078125 15.484375 
L 11.765625 16.84375 
Q 12.5 11.625 15.84375 8.84375 
Q 19.1875 6.0625 25.203125 6.0625 
Q 31.25 6.0625 34.171875 8.515625 
Q 37.109375 10.984375 37.109375 14.3125 
Q 37.109375 17.28125 34.515625 19 
Q 32.71875 20.171875 25.53125 21.96875 
Q 15.875 24.421875 12.140625 26.203125 
Q 8.40625 27.984375 6.46875 31.125 
Q 4.546875 34.28125 4.546875 38.09375 
Q 4.546875 41.546875 6.125 44.5 
Q 7.71875 47.46875 10.453125 49.421875 
Q 12.5 50.921875 16.03125 51.96875 
Q 19.578125 53.03125 23.640625 53.03125 
Q 29.734375 53.03125 34.34375 51.265625 
Q 38.96875 49.515625 41.15625 46.5 
Q 43.359375 43.5 44.1875 38.484375 
L 35.59375 37.3125 
Q 35.015625 41.3125 32.203125 43.546875 
Q 29.390625 45.796875 24.265625 45.796875 
Q 18.21875 45.796875 15.625 43.796875 
Q 13.03125 41.796875 13.03125 39.109375 
Q 13.03125 37.40625 14.109375 36.03125 
Q 15.1875 34.625 17.484375 33.6875 
Q 18.796875 33.203125 25.25 31.453125 
Q 34.578125 28.953125 38.25 27.359375 
Q 41.9375 25.78125 44.03125 22.75 
Q 46.140625 19.734375 46.140625 15.234375 
Q 46.140625 10.84375 43.578125 6.953125 
Q 41.015625 3.078125 36.171875 0.953125 
Q 31.34375 -1.171875 25.25 -1.171875 
Q 15.140625 -1.171875 9.84375 3.03125 
Q 4.546875 7.234375 3.078125 15.484375 
" id="ArialMT-73"/>
      <path d="M 6.390625 0 
L 6.390625 71.578125 
L 15.1875 71.578125 
L 15.1875 0 
z
" id="ArialMT-6c"/>
      <path d="M 12.359375 -21.046875 
L 6.0625 -21.046875 
Q 20.65625 2.390625 20.65625 25.875 
Q 20.65625 35.0625 18.5625 44.09375 
Q 16.890625 51.421875 13.921875 58.15625 
Q 12.015625 62.546875 6.0625 72.796875 
L 12.359375 72.796875 
Q 21.53125 60.546875 25.921875 48.1875 
Q 29.6875 37.546875 29.6875 25.921875 
Q 29.6875 12.75 24.625 0.4375 
Q 19.578125 -11.859375 12.359375 -21.046875 
" id="ArialMT-29"/>
      <path d="M 6.59375 0 
L 6.59375 51.859375 
L 14.453125 51.859375 
L 14.453125 44.578125 
Q 16.890625 48.390625 20.9375 50.703125 
Q 25 53.03125 30.171875 53.03125 
Q 35.9375 53.03125 39.625 50.640625 
Q 43.3125 48.25 44.828125 43.953125 
Q 50.984375 53.03125 60.84375 53.03125 
Q 68.5625 53.03125 72.703125 48.75 
Q 76.859375 44.484375 76.859375 35.59375 
L 76.859375 0 
L 68.109375 0 
L 68.109375 32.671875 
Q 68.109375 37.9375 67.25 40.25 
Q 66.40625 42.578125 64.15625 43.984375 
Q 61.921875 45.40625 58.890625 45.40625 
Q 53.421875 45.40625 49.796875 41.765625 
Q 46.1875 38.140625 46.1875 30.125 
L 46.1875 0 
L 37.40625 0 
L 37.40625 33.6875 
Q 37.40625 39.546875 35.25 42.46875 
Q 33.109375 45.40625 28.21875 45.40625 
Q 24.515625 45.40625 21.359375 43.453125 
Q 18.21875 41.5 16.796875 37.734375 
Q 15.375 33.984375 15.375 26.90625 
L 15.375 0 
z
" id="ArialMT-6d"/>
      <path d="M 5.03125 -1.21875 
L 9.28125 19.578125 
L 1.03125 19.578125 
L 1.03125 26.859375 
L 10.75 26.859375 
L 14.359375 44.578125 
L 1.03125 44.578125 
L 1.03125 51.859375 
L 15.828125 51.859375 
L 20.0625 72.796875 
L 27.390625 72.796875 
L 23.140625 51.859375 
L 38.53125 51.859375 
L 42.78125 72.796875 
L 50.140625 72.796875 
L 45.90625 51.859375 
L 54.34375 51.859375 
L 54.34375 44.578125 
L 44.4375 44.578125 
L 40.765625 26.859375 
L 54.34375 26.859375 
L 54.34375 19.578125 
L 39.3125 19.578125 
L 35.0625 -1.21875 
L 27.734375 -1.21875 
L 31.9375 19.578125 
L 16.609375 19.578125 
L 12.359375 -1.21875 
z
M 18.0625 26.859375 
L 33.40625 26.859375 
L 37.0625 44.578125 
L 21.6875 44.578125 
z
" id="ArialMT-23"/>
     </defs>
     <g style="fill:#262626;" transform="translate(29.88015625 269.78875)rotate(-90.0)scale(0.11 -0.11)">
      <use xlink:href="#ArialMT-6c"/>
      <use x="22.216796875" xlink:href="#ArialMT-6f"/>
      <use x="77.83203125" xlink:href="#ArialMT-67"/>
      <use x="133.447265625" xlink:href="#ArialMT-31"/>
      <use x="189.0625" xlink:href="#ArialMT-30"/>
      <use x="244.677734375" xlink:href="#ArialMT-20"/>
      <use x="272.4609375" xlink:href="#ArialMT-61"/>
      <use x="328.076171875" xlink:href="#ArialMT-62"/>
      <use x="383.69140625" xlink:href="#ArialMT-75"/>
      <use x="439.306640625" xlink:href="#ArialMT-6e"/>
      <use x="494.921875" xlink:href="#ArialMT-64"/>
      <use x="550.537109375" xlink:href="#ArialMT-61"/>
      <use x="606.15234375" xlink:href="#ArialMT-6e"/>
      <use x="661.767578125" xlink:href="#ArialMT-63"/>
      <use x="711.767578125" xlink:href="#ArialMT-65"/>
      <use x="767.3828125" xlink:href="#ArialMT-20"/>
      <use x="795.166015625" xlink:href="#ArialMT-28"/>
      <use x="828.466796875" xlink:href="#ArialMT-23"/>
      <use x="884.08203125" xlink:href="#ArialMT-20"/>
      <use x="911.865234375" xlink:href="#ArialMT-6d"/>
      <use x="995.166015625" xlink:href="#ArialMT-6f"/>
      <use x="1050.78125" xlink:href="#ArialMT-6c"/>
      <use x="1072.99804688" xlink:href="#ArialMT-65"/>
      <use x="1128.61328125" xlink:href="#ArialMT-63"/>
      <use x="1178.61328125" xlink:href="#ArialMT-75"/>
      <use x="1234.22851562" xlink:href="#ArialMT-6c"/>
      <use x="1256.4453125" xlink:href="#ArialMT-65"/>
      <use x="1312.06054688" xlink:href="#ArialMT-73"/>
      <use x="1362.06054688" xlink:href="#ArialMT-29"/>
     </g>
    </g>
   </g>
   <g id="line2d_13">
    <path clip-path="url(#p8c09e096b2)" d="M 100.116279 346.5 
L 100.116279 39.6 
" style="fill:none;stroke:#808080;stroke-linecap:round;stroke-width:3.0;"/>
   </g>
   <g id="line2d_14">
    <path clip-path="url(#p8c09e096b2)" d="M 78.488372 85.93407 
L 79.137209 89.158416 
L 79.786047 90.060731 
L 80.434884 99.341282 
L 81.083721 99.95852 
L 81.732558 105.031347 
L 82.381395 105.178435 
L 83.030233 106.255717 
L 83.67907 112.351505 
L 84.327907 112.965038 
L 84.976744 115.028473 
L 85.625581 115.287016 
L 86.274419 118.405146 
L 86.923256 119.236037 
L 87.572093 120.701522 
L 88.22093 122.966526 
L 88.869767 123.037802 
L 89.518605 125.667066 
L 90.167442 127.506171 
L 90.816279 131.608913 
L 91.465116 131.860516 
L 92.113953 141.135118 
L 92.762791 141.305726 
L 93.411628 141.348524 
L 94.060465 141.520308 
L 94.709302 145.463332 
L 95.35814 151.602943 
L 97.304651 153.568775 
L 98.602326 155.667138 
L 99.251163 155.735046 
L 100.548837 156.145634 
L 101.197674 156.214595 
L 101.846512 157.917204 
L 102.495349 160.107047 
L 103.144186 160.185376 
L 103.793023 163.40492 
L 104.44186 163.931171 
L 105.090698 166.608191 
L 105.739535 167.786974 
L 106.388372 171.844626 
L 107.037209 174.090685 
L 107.686047 174.46062 
L 108.334884 180.61233 
L 108.983721 180.916096 
L 109.632558 189.46894 
L 110.281395 191.545429 
L 110.930233 202.804545 
L 111.57907 202.804545 
L 112.876744 209.675324 
L 113.525581 217.009861 
L 114.174419 217.009861 
L 114.823256 224.079476 
L 115.472093 225.325074 
L 116.12093 230.874975 
L 116.769767 234.071194 
L 117.418605 239.580072 
L 118.067442 242.749157 
L 119.365116 258.285645 
L 120.662791 262.182699 
L 121.960465 262.182699 
L 122.609302 264.330847 
L 123.25814 264.330847 
L 123.906977 266.638258 
L 125.204651 266.638258 
L 125.853488 269.130451 
L 127.8 269.130451 
L 128.448837 271.83962 
L 131.044186 271.83962 
L 131.693023 274.807178 
L 134.288372 274.807178 
L 134.937209 278.087662 
L 138.830233 278.087662 
L 139.47907 281.754931 
L 140.127907 281.754931 
L 140.776744 285.912537 
L 146.616279 285.912537 
L 147.265116 290.712141 
L 156.997674 290.712141 
L 157.646512 296.388868 
L 169.325581 296.388868 
L 169.974419 303.33662 
L 188.14186 303.33662 
L 188.790698 312.293831 
L 219.286047 312.293831 
L 219.934884 324.91831 
L 284.818605 324.91831 
L 285.467442 346.5 
L 480.118605 346.5 
L 480.118605 346.5 
" style="fill:none;opacity:0.4;stroke:#2c5ebf;stroke-linecap:round;stroke-width:2.0;"/>
   </g>
   <g id="line2d_15">
    <path clip-path="url(#p8c09e096b2)" d="M 103.793023 346.5 
L 103.793023 39.6 
" style="fill:none;stroke:#2c5ebf;stroke-dasharray:6.000000,6.000000;stroke-dashoffset:0.0;stroke-width:2.0;"/>
   </g>
   <g id="line2d_16">
    <path clip-path="url(#p8c09e096b2)" d="M 78.488372 76.861488 
L 79.137209 78.196004 
L 80.434884 86.363235 
L 81.083721 96.690506 
L 81.732558 98.217282 
L 82.381395 103.866155 
L 83.030233 104.241055 
L 84.327907 109.376277 
L 84.976744 109.653589 
L 85.625581 110.373705 
L 86.274419 111.322403 
L 86.923256 113.626046 
L 88.22093 114.553944 
L 88.869767 116.671057 
L 89.518605 117.937236 
L 90.816279 123.662461 
L 92.113953 125.077404 
L 92.762791 125.667066 
L 93.411628 126.854089 
L 94.060465 127.53364 
L 94.709302 131.204344 
L 96.006977 131.671623 
L 96.655814 133.547451 
L 97.304651 136.045201 
L 97.953488 141.050164 
L 98.602326 141.135118 
L 99.251163 143.613136 
L 99.9 144.170807 
L 100.548837 146.557674 
L 101.197674 146.608342 
L 101.846512 146.811845 
L 102.495349 148.543515 
L 103.144186 153.128018 
L 104.44186 156.283709 
L 105.090698 158.729809 
L 105.739535 159.410814 
L 107.686047 165.102844 
L 108.334884 172.770666 
L 108.983721 178.706958 
L 109.632558 179.426061 
L 110.281395 182.161694 
L 110.930233 183.129725 
L 111.57907 184.813151 
L 112.227907 188.675629 
L 113.525581 191.977878 
L 114.174419 192.196376 
L 114.823256 193.540576 
L 115.472093 193.540576 
L 116.12093 194.235083 
L 116.769767 199.309013 
L 117.418605 201.893189 
L 118.067442 202.19402 
L 118.716279 203.114357 
L 119.365116 208.915877 
L 120.013953 216.527126 
L 120.662791 219.01932 
L 121.311628 220.074871 
L 121.960465 240.601009 
L 122.609302 266.638258 
L 123.25814 269.130451 
L 123.906977 269.130451 
L 125.204651 274.807178 
L 125.853488 278.087662 
L 126.502326 278.087662 
L 127.151163 281.754931 
L 128.448837 281.754931 
L 129.097674 285.912537 
L 135.586047 285.912537 
L 136.234884 290.712141 
L 140.127907 290.712141 
L 140.776744 296.388868 
L 149.211628 296.388868 
L 149.860465 303.33662 
L 161.539535 303.33662 
L 162.188372 312.293831 
L 195.27907 312.293831 
L 195.927907 324.91831 
L 262.75814 324.91831 
L 263.406977 346.5 
L 517.751163 346.5 
L 517.751163 346.5 
" style="fill:none;opacity:0.4;stroke:#ff1313;stroke-linecap:round;stroke-width:2.0;"/>
   </g>
   <g id="line2d_17">
    <path clip-path="url(#p8c09e096b2)" d="M 105.739535 346.5 
L 105.739535 39.6 
" style="fill:none;stroke:#ff1313;stroke-dasharray:6.000000,6.000000;stroke-dashoffset:0.0;stroke-width:2.0;"/>
   </g>
   <g id="line2d_18">
    <path clip-path="url(#p8c09e096b2)" d="M 78.488372 81.155112 
L 79.137209 86.158825 
L 79.786047 87.413483 
L 80.434884 89.448204 
L 81.083721 92.827688 
L 82.381395 96.731354 
L 83.030233 97.971739 
L 83.67907 98.714255 
L 84.327907 103.686771 
L 85.625581 107.299788 
L 86.274419 108.618677 
L 86.923256 116.343207 
L 87.572093 120.613381 
L 88.22093 120.834203 
L 88.869767 121.235673 
L 89.518605 121.393209 
L 90.816279 126.189053 
L 91.465116 126.666443 
L 92.113953 128.766902 
L 92.762791 131.671623 
L 93.411628 133.182898 
L 94.060465 136.371994 
L 94.709302 137.148119 
L 95.35814 138.098034 
L 96.006977 138.525357 
L 96.655814 140.048389 
L 97.304651 144.882243 
L 97.953488 145.561243 
L 98.602326 149.810044 
L 99.9 155.803102 
L 100.548837 161.548035 
L 101.197674 168.701305 
L 102.495349 170.834728 
L 103.144186 171.391734 
L 103.793023 174.46062 
L 104.44186 175.341287 
L 105.090698 178.283335 
L 105.739535 180.162166 
L 106.388372 184.12882 
L 107.037209 185.512861 
L 107.686047 188.480419 
L 108.334884 189.873307 
L 108.983721 190.698145 
L 109.632558 192.861222 
L 110.281395 201.595236 
L 110.930233 213.342593 
L 111.57907 213.778066 
L 112.227907 216.527126 
L 112.876744 227.292199 
L 113.525581 233.240856 
L 114.174419 234.924282 
L 114.823256 264.330847 
L 116.12093 269.130451 
L 116.769767 278.087662 
L 117.418605 281.754931 
L 119.365116 281.754931 
L 120.013953 285.912537 
L 126.502326 285.912537 
L 127.151163 290.712141 
L 132.990698 290.712141 
L 133.639535 296.388868 
L 143.372093 296.388868 
L 144.02093 303.33662 
L 159.593023 303.33662 
L 160.24186 312.293831 
L 188.790698 312.293831 
L 189.439535 324.91831 
L 264.704651 324.91831 
L 265.353488 346.5 
L 446.37907 346.5 
L 446.37907 346.5 
" style="fill:none;opacity:0.4;stroke:#f7b02a;stroke-linecap:round;stroke-width:2.0;"/>
   </g>
   <g id="line2d_19">
    <path clip-path="url(#p8c09e096b2)" d="M 101.197674 346.5 
L 101.197674 39.6 
" style="fill:none;stroke:#f7b02a;stroke-dasharray:6.000000,6.000000;stroke-dashoffset:0.0;stroke-width:2.0;"/>
   </g>
   <g id="line2d_20">
    <path clip-path="url(#p8c09e096b2)" d="M 78.488372 79.797214 
L 79.137209 82.028518 
L 79.786047 83.798446 
L 81.083721 96.395956 
L 81.732558 98.551325 
L 82.381395 98.692482 
L 83.030233 105.501786 
L 83.67907 106.283479 
L 84.976744 107.371612 
L 85.625581 109.886584 
L 86.274419 111.404146 
L 86.923256 112.351505 
L 88.22093 112.947831 
L 88.869767 113.503222 
L 89.518605 115.90507 
L 90.167442 116.787598 
L 90.816279 118.221212 
L 91.465116 118.672761 
L 92.113953 118.838598 
L 92.762791 119.151943 
L 93.411628 119.638615 
L 94.060465 120.723596 
L 94.709302 122.054485 
L 95.35814 127.205604 
L 96.006977 130.200367 
L 96.655814 135.19016 
L 97.304651 137.036053 
L 97.953488 138.020965 
L 98.602326 141.092612 
L 99.251163 143.110567 
L 99.9 143.521155 
L 100.548837 145.807377 
L 101.197674 147.222885 
L 101.846512 152.447765 
L 102.495349 153.632252 
L 103.144186 170.287512 
L 103.793023 177.181068 
L 104.44186 177.727324 
L 105.090698 187.711595 
L 105.739535 194.235083 
L 106.388372 195.185868 
L 107.037209 197.17924 
L 107.686047 200.431146 
L 108.334884 209.675324 
L 108.983721 210.062109 
L 109.632558 214.219715 
L 110.281395 222.881798 
L 110.930233 238.591551 
L 111.57907 248.873889 
L 112.227907 253.225489 
L 113.525581 260.173241 
L 114.823256 260.173241 
L 115.472093 262.182699 
L 116.12093 262.182699 
L 116.769767 264.330847 
L 118.067442 264.330847 
L 118.716279 266.638258 
L 120.013953 266.638258 
L 120.662791 269.130451 
L 121.311628 269.130451 
L 121.960465 271.83962 
L 123.25814 271.83962 
L 123.906977 274.807178 
L 127.151163 274.807178 
L 127.8 278.087662 
L 132.34186 278.087662 
L 132.990698 281.754931 
L 134.288372 281.754931 
L 134.937209 285.912537 
L 140.776744 285.912537 
L 141.425581 290.712141 
L 151.15814 290.712141 
L 151.806977 296.388868 
L 169.974419 296.388868 
L 170.623256 303.33662 
L 203.065116 303.33662 
L 203.713953 312.293831 
L 240.048837 312.293831 
L 240.697674 324.91831 
L 307.527907 324.91831 
L 308.176744 346.5 
L 506.072093 346.5 
L 506.072093 346.5 
" style="fill:none;opacity:0.4;stroke:#02b72a;stroke-linecap:round;stroke-width:2.0;"/>
   </g>
   <g id="line2d_21">
    <path clip-path="url(#p8c09e096b2)" d="M 101.846512 346.5 
L 101.846512 39.6 
" style="fill:none;stroke:#02b72a;stroke-dasharray:6.000000,6.000000;stroke-dashoffset:0.0;stroke-width:2.0;"/>
   </g>
   <g id="line2d_22">
    <path clip-path="url(#p8c09e096b2)" d="M 78.488372 81.598179 
L 79.137209 82.169028 
L 79.786047 89.912622 
L 80.434884 89.945474 
L 81.083721 94.33284 
L 82.381395 98.131656 
L 83.030233 106.858138 
L 83.67907 108.350392 
L 84.327907 110.421252 
L 84.976744 110.53248 
L 85.625581 111.766385 
L 86.274419 113.731711 
L 86.923256 113.837735 
L 87.572093 116.729273 
L 88.22093 116.846032 
L 88.869767 120.111356 
L 89.518605 120.350445 
L 90.167442 123.493047 
L 90.816279 129.577927 
L 91.465116 130.866075 
L 92.113953 131.452687 
L 92.762791 133.447604 
L 93.411628 134.945133 
L 94.060465 138.213996 
L 94.709302 142.129128 
L 95.35814 143.797919 
L 96.655814 144.170807 
L 97.304651 144.264731 
L 97.953488 148.4896 
L 98.602326 150.549376 
L 99.251163 150.838476 
L 99.9 153.759597 
L 100.548837 157.267766 
L 101.197674 157.990207 
L 102.495349 163.31807 
L 103.144186 163.931171 
L 103.793023 168.495787 
L 105.090698 169.221113 
L 105.739535 170.505245 
L 107.037209 183.792213 
L 107.686047 184.12882 
L 108.334884 184.298498 
L 108.983721 184.640653 
L 110.281395 189.670467 
L 110.930233 190.907814 
L 112.227907 198.22592 
L 112.876744 207.450392 
L 114.174419 209.675324 
L 114.823256 212.913127 
L 116.12093 226.622587 
L 116.769767 227.97653 
L 117.418605 239.580072 
L 118.067442 246.277736 
L 118.716279 264.330847 
L 119.365116 264.330847 
L 120.662791 269.130451 
L 121.311628 274.807178 
L 121.960465 274.807178 
L 122.609302 278.087662 
L 123.906977 278.087662 
L 124.555814 281.754931 
L 125.853488 281.754931 
L 126.502326 285.912537 
L 127.8 285.912537 
L 128.448837 290.712141 
L 130.395349 290.712141 
L 131.044186 296.388868 
L 135.586047 296.388868 
L 136.234884 303.33662 
L 148.562791 303.33662 
L 149.211628 312.293831 
L 169.974419 312.293831 
L 170.623256 324.91831 
L 221.232558 324.91831 
L 221.881395 346.5 
L 428.211628 346.5 
L 428.211628 346.5 
" style="fill:none;opacity:0.4;stroke:#009e9e;stroke-linecap:round;stroke-width:2.0;"/>
   </g>
   <g id="line2d_23">
    <path clip-path="url(#p8c09e096b2)" d="M 103.144186 346.5 
L 103.144186 39.6 
" style="fill:none;stroke:#009e9e;stroke-dasharray:6.000000,6.000000;stroke-dashoffset:0.0;stroke-width:2.0;"/>
   </g>
   <g id="line2d_24">
    <path clip-path="url(#p8c09e096b2)" d="M 78.488372 49.491263 
L 79.137209 64.851204 
L 79.786047 71.390564 
L 80.434884 79.684714 
L 81.083721 85.567804 
L 81.732558 89.407794 
L 82.381395 95.499183 
L 83.030233 97.23613 
L 83.67907 101.066097 
L 84.327907 110.916878 
L 84.976744 112.639723 
L 85.625581 116.247434 
L 86.274419 116.982807 
L 86.923256 136.665384 
L 87.572093 142.571405 
L 88.22093 145.856839 
L 88.869767 146.862929 
L 89.518605 151.365717 
L 90.167442 152.143405 
L 90.816279 163.931171 
L 91.465116 164.556588 
L 92.113953 165.011134 
L 92.762791 186.961299 
L 93.411628 241.656561 
L 94.060465 242.749157 
L 94.709302 247.548762 
L 95.35814 248.873889 
L 96.655814 254.822546 
L 97.953488 258.285645 
L 99.251163 258.285645 
L 99.9 260.173241 
L 100.548837 260.173241 
L 101.197674 262.182699 
L 101.846512 262.182699 
L 102.495349 264.330847 
L 103.144186 264.330847 
L 103.793023 266.638258 
L 104.44186 266.638258 
L 105.090698 269.130451 
L 107.686047 269.130451 
L 108.334884 271.83962 
L 109.632558 271.83962 
L 110.281395 274.807178 
L 111.57907 274.807178 
L 112.227907 278.087662 
L 112.876744 278.087662 
L 113.525581 281.754931 
L 115.472093 281.754931 
L 116.12093 285.912537 
L 119.365116 285.912537 
L 120.013953 290.712141 
L 122.609302 290.712141 
L 123.25814 296.388868 
L 133.639535 296.388868 
L 134.288372 303.33662 
L 146.616279 303.33662 
L 147.265116 312.293831 
L 164.783721 312.293831 
L 165.432558 324.91831 
L 201.767442 324.91831 
L 202.416279 346.5 
L 319.855814 346.5 
L 319.855814 346.5 
" style="fill:none;opacity:0.4;stroke:#1d1aa9;stroke-linecap:round;stroke-width:2.0;"/>
   </g>
   <g id="line2d_25">
    <path clip-path="url(#p8c09e096b2)" d="M 84.976744 346.5 
L 84.976744 39.6 
" style="fill:none;stroke:#1d1aa9;stroke-dasharray:6.000000,6.000000;stroke-dashoffset:0.0;stroke-width:2.0;"/>
   </g>
   <g id="patch_3">
    <path d="M 72 39.6 
L 518.4 39.6 
" style="fill:none;stroke:#262626;stroke-linecap:square;stroke-linejoin:miter;stroke-width:1.25;"/>
   </g>
   <g id="patch_4">
    <path d="M 518.4 346.5 
L 518.4 39.6 
" style="fill:none;stroke:#262626;stroke-linecap:square;stroke-linejoin:miter;stroke-width:1.25;"/>
   </g>
   <g id="patch_5">
    <path d="M 72 346.5 
L 518.4 346.5 
" style="fill:none;stroke:#262626;stroke-linecap:square;stroke-linejoin:miter;stroke-width:1.25;"/>
   </g>
   <g id="patch_6">
    <path d="M 72 346.5 
L 72 39.6 
" style="fill:none;stroke:#262626;stroke-linecap:square;stroke-linejoin:miter;stroke-width:1.25;"/>
   </g>
   <g id="text_15">
    <!-- B6 4wks BCG Spleen -->
    <defs>
     <path d="M 16.15625 0 
L 0.296875 51.859375 
L 9.375 51.859375 
L 17.625 21.921875 
L 20.703125 10.796875 
Q 20.90625 11.625 23.390625 21.484375 
L 31.640625 51.859375 
L 40.671875 51.859375 
L 48.4375 21.78125 
L 51.03125 11.859375 
L 54 21.875 
L 62.890625 51.859375 
L 71.4375 51.859375 
L 55.21875 0 
L 46.09375 0 
L 37.84375 31.0625 
L 35.84375 39.890625 
L 25.34375 0 
z
" id="ArialMT-77"/>
     <path d="M 4.5 23 
L 13.421875 23.78125 
Q 14.0625 18.40625 16.375 14.96875 
Q 18.703125 11.53125 23.578125 9.40625 
Q 28.46875 7.28125 34.578125 7.28125 
Q 39.984375 7.28125 44.140625 8.890625 
Q 48.296875 10.5 50.3125 13.296875 
Q 52.34375 16.109375 52.34375 19.4375 
Q 52.34375 22.796875 50.390625 25.3125 
Q 48.4375 27.828125 43.953125 29.546875 
Q 41.0625 30.671875 31.203125 33.03125 
Q 21.34375 35.40625 17.390625 37.5 
Q 12.25 40.1875 9.734375 44.15625 
Q 7.234375 48.140625 7.234375 53.078125 
Q 7.234375 58.5 10.296875 63.203125 
Q 13.375 67.921875 19.28125 70.359375 
Q 25.203125 72.796875 32.421875 72.796875 
Q 40.375 72.796875 46.453125 70.234375 
Q 52.546875 67.671875 55.8125 62.6875 
Q 59.078125 57.71875 59.328125 51.421875 
L 50.25 50.734375 
Q 49.515625 57.515625 45.28125 60.984375 
Q 41.0625 64.453125 32.8125 64.453125 
Q 24.21875 64.453125 20.28125 61.296875 
Q 16.359375 58.15625 16.359375 53.71875 
Q 16.359375 49.859375 19.140625 47.359375 
Q 21.875 44.875 33.421875 42.265625 
Q 44.96875 39.65625 49.265625 37.703125 
Q 55.515625 34.8125 58.484375 30.390625 
Q 61.46875 25.984375 61.46875 20.21875 
Q 61.46875 14.5 58.203125 9.4375 
Q 54.9375 4.390625 48.796875 1.578125 
Q 42.671875 -1.21875 35.015625 -1.21875 
Q 25.296875 -1.21875 18.71875 1.609375 
Q 12.15625 4.4375 8.421875 10.125 
Q 4.6875 15.828125 4.5 23 
" id="ArialMT-53"/>
     <path d="M 58.796875 25.09375 
L 68.265625 22.703125 
Q 65.28125 11.03125 57.546875 4.90625 
Q 49.8125 -1.21875 38.625 -1.21875 
Q 27.046875 -1.21875 19.796875 3.484375 
Q 12.546875 8.203125 8.765625 17.140625 
Q 4.984375 26.078125 4.984375 36.328125 
Q 4.984375 47.515625 9.25 55.828125 
Q 13.53125 64.15625 21.40625 68.46875 
Q 29.296875 72.796875 38.765625 72.796875 
Q 49.515625 72.796875 56.828125 67.328125 
Q 64.15625 61.859375 67.046875 51.953125 
L 57.71875 49.75 
Q 55.21875 57.5625 50.484375 61.125 
Q 45.75 64.703125 38.578125 64.703125 
Q 30.328125 64.703125 24.78125 60.734375 
Q 19.234375 56.78125 16.984375 50.109375 
Q 14.75 43.453125 14.75 36.375 
Q 14.75 27.25 17.40625 20.4375 
Q 20.0625 13.625 25.671875 10.25 
Q 31.296875 6.890625 37.84375 6.890625 
Q 45.796875 6.890625 51.3125 11.46875 
Q 56.84375 16.0625 58.796875 25.09375 
" id="ArialMT-43"/>
     <path d="M 7.328125 0 
L 7.328125 71.578125 
L 34.1875 71.578125 
Q 42.390625 71.578125 47.34375 69.40625 
Q 52.296875 67.234375 55.09375 62.71875 
Q 57.90625 58.203125 57.90625 53.265625 
Q 57.90625 48.6875 55.421875 44.625 
Q 52.9375 40.578125 47.90625 38.09375 
Q 54.390625 36.1875 57.875 31.59375 
Q 61.375 27 61.375 20.75 
Q 61.375 15.71875 59.25 11.390625 
Q 57.125 7.078125 54 4.734375 
Q 50.875 2.390625 46.15625 1.1875 
Q 41.453125 0 34.625 0 
z
M 16.796875 41.5 
L 32.28125 41.5 
Q 38.578125 41.5 41.3125 42.328125 
Q 44.921875 43.40625 46.75 45.890625 
Q 48.578125 48.390625 48.578125 52.15625 
Q 48.578125 55.71875 46.875 58.421875 
Q 45.171875 61.140625 41.984375 62.140625 
Q 38.8125 63.140625 31.109375 63.140625 
L 16.796875 63.140625 
z
M 16.796875 8.453125 
L 34.625 8.453125 
Q 39.203125 8.453125 41.0625 8.796875 
Q 44.34375 9.375 46.53125 10.734375 
Q 48.734375 12.109375 50.140625 14.71875 
Q 51.5625 17.328125 51.5625 20.75 
Q 51.5625 24.75 49.515625 27.703125 
Q 47.46875 30.671875 43.828125 31.859375 
Q 40.1875 33.0625 33.34375 33.0625 
L 16.796875 33.0625 
z
" id="ArialMT-42"/>
     <path d="M 6.59375 -19.875 
L 6.59375 51.859375 
L 14.59375 51.859375 
L 14.59375 45.125 
Q 17.4375 49.078125 21 51.046875 
Q 24.5625 53.03125 29.640625 53.03125 
Q 36.28125 53.03125 41.359375 49.609375 
Q 46.4375 46.1875 49.015625 39.953125 
Q 51.609375 33.734375 51.609375 26.3125 
Q 51.609375 18.359375 48.75 11.984375 
Q 45.90625 5.609375 40.453125 2.21875 
Q 35.015625 -1.171875 29 -1.171875 
Q 24.609375 -1.171875 21.109375 0.6875 
Q 17.625 2.546875 15.375 5.375 
L 15.375 -19.875 
z
M 14.546875 25.640625 
Q 14.546875 15.625 18.59375 10.84375 
Q 22.65625 6.0625 28.421875 6.0625 
Q 34.28125 6.0625 38.453125 11.015625 
Q 42.625 15.96875 42.625 26.375 
Q 42.625 36.28125 38.546875 41.203125 
Q 34.46875 46.140625 28.8125 46.140625 
Q 23.1875 46.140625 18.859375 40.890625 
Q 14.546875 35.640625 14.546875 25.640625 
" id="ArialMT-70"/>
     <path d="M 41.21875 28.078125 
L 41.21875 36.46875 
L 71.53125 36.53125 
L 71.53125 9.96875 
Q 64.546875 4.390625 57.125 1.578125 
Q 49.703125 -1.21875 41.890625 -1.21875 
Q 31.34375 -1.21875 22.71875 3.296875 
Q 14.109375 7.8125 9.71875 16.359375 
Q 5.328125 24.90625 5.328125 35.453125 
Q 5.328125 45.90625 9.6875 54.953125 
Q 14.0625 64.015625 22.265625 68.40625 
Q 30.46875 72.796875 41.15625 72.796875 
Q 48.921875 72.796875 55.1875 70.28125 
Q 61.46875 67.78125 65.03125 63.28125 
Q 68.609375 58.796875 70.453125 51.5625 
L 61.921875 49.21875 
Q 60.296875 54.6875 57.90625 57.8125 
Q 55.515625 60.9375 51.0625 62.8125 
Q 46.625 64.703125 41.21875 64.703125 
Q 34.71875 64.703125 29.984375 62.71875 
Q 25.25 60.75 22.34375 57.515625 
Q 19.4375 54.296875 17.828125 50.4375 
Q 15.09375 43.796875 15.09375 36.03125 
Q 15.09375 26.46875 18.390625 20.015625 
Q 21.6875 13.578125 27.984375 10.453125 
Q 34.28125 7.328125 41.359375 7.328125 
Q 47.515625 7.328125 53.375 9.6875 
Q 59.234375 12.0625 62.25 14.75 
L 62.25 28.078125 
z
" id="ArialMT-47"/>
    </defs>
    <g style="fill:#262626;" transform="translate(237.5071875 34.6)scale(0.12 -0.12)">
     <use xlink:href="#ArialMT-42"/>
     <use x="66.69921875" xlink:href="#ArialMT-36"/>
     <use x="122.314453125" xlink:href="#ArialMT-20"/>
     <use x="150.09765625" xlink:href="#ArialMT-34"/>
     <use x="205.712890625" xlink:href="#ArialMT-77"/>
     <use x="277.9296875" xlink:href="#ArialMT-6b"/>
     <use x="327.9296875" xlink:href="#ArialMT-73"/>
     <use x="377.9296875" xlink:href="#ArialMT-20"/>
     <use x="405.712890625" xlink:href="#ArialMT-42"/>
     <use x="472.412109375" xlink:href="#ArialMT-43"/>
     <use x="544.62890625" xlink:href="#ArialMT-47"/>
     <use x="622.412109375" xlink:href="#ArialMT-20"/>
     <use x="650.1953125" xlink:href="#ArialMT-53"/>
     <use x="716.89453125" xlink:href="#ArialMT-70"/>
     <use x="772.509765625" xlink:href="#ArialMT-6c"/>
     <use x="794.7265625" xlink:href="#ArialMT-65"/>
     <use x="850.341796875" xlink:href="#ArialMT-65"/>
     <use x="905.95703125" xlink:href="#ArialMT-6e"/>
    </g>
   </g>
   <g id="legend_1">
    <g id="line2d_26">
     <path d="M 395.796875 52.257812 
L 415.796875 52.257812 
" style="fill:none;stroke:#808080;stroke-linecap:round;stroke-width:3.0;"/>
    </g>
    <g id="line2d_27"/>
    <g id="text_16">
     <!-- mean threshold: 33 -->
     <defs>
      <path d="M 25.78125 7.859375 
L 27.046875 0.09375 
Q 23.34375 -0.6875 20.40625 -0.6875 
Q 15.625 -0.6875 12.984375 0.828125 
Q 10.359375 2.34375 9.28125 4.8125 
Q 8.203125 7.28125 8.203125 15.1875 
L 8.203125 45.015625 
L 1.765625 45.015625 
L 1.765625 51.859375 
L 8.203125 51.859375 
L 8.203125 64.703125 
L 16.9375 69.96875 
L 16.9375 51.859375 
L 25.78125 51.859375 
L 25.78125 45.015625 
L 16.9375 45.015625 
L 16.9375 14.703125 
Q 16.9375 10.9375 17.40625 9.859375 
Q 17.875 8.796875 18.921875 8.15625 
Q 19.96875 7.515625 21.921875 7.515625 
Q 23.390625 7.515625 25.78125 7.859375 
" id="ArialMT-74"/>
      <path d="M 9.03125 41.84375 
L 9.03125 51.859375 
L 19.046875 51.859375 
L 19.046875 41.84375 
z
M 9.03125 0 
L 9.03125 10.015625 
L 19.046875 10.015625 
L 19.046875 0 
z
" id="ArialMT-3a"/>
      <path d="M 6.59375 0 
L 6.59375 71.578125 
L 15.375 71.578125 
L 15.375 45.90625 
Q 21.53125 53.03125 30.90625 53.03125 
Q 36.671875 53.03125 40.921875 50.75 
Q 45.171875 48.484375 47 44.484375 
Q 48.828125 40.484375 48.828125 32.859375 
L 48.828125 0 
L 40.046875 0 
L 40.046875 32.859375 
Q 40.046875 39.453125 37.1875 42.453125 
Q 34.328125 45.453125 29.109375 45.453125 
Q 25.203125 45.453125 21.75 43.421875 
Q 18.3125 41.40625 16.84375 37.9375 
Q 15.375 34.46875 15.375 28.375 
L 15.375 0 
z
" id="ArialMT-68"/>
     </defs>
     <g style="fill:#262626;" transform="translate(423.796875 55.7578125)scale(0.1 -0.1)">
      <use xlink:href="#ArialMT-6d"/>
      <use x="83.30078125" xlink:href="#ArialMT-65"/>
      <use x="138.916015625" xlink:href="#ArialMT-61"/>
      <use x="194.53125" xlink:href="#ArialMT-6e"/>
      <use x="250.146484375" xlink:href="#ArialMT-20"/>
      <use x="277.9296875" xlink:href="#ArialMT-74"/>
      <use x="305.712890625" xlink:href="#ArialMT-68"/>
      <use x="361.328125" xlink:href="#ArialMT-72"/>
      <use x="394.62890625" xlink:href="#ArialMT-65"/>
      <use x="450.244140625" xlink:href="#ArialMT-73"/>
      <use x="500.244140625" xlink:href="#ArialMT-68"/>
      <use x="555.859375" xlink:href="#ArialMT-6f"/>
      <use x="611.474609375" xlink:href="#ArialMT-6c"/>
      <use x="633.69140625" xlink:href="#ArialMT-64"/>
      <use x="689.306640625" xlink:href="#ArialMT-3a"/>
      <use x="717.08984375" xlink:href="#ArialMT-20"/>
      <use x="744.873046875" xlink:href="#ArialMT-33"/>
      <use x="800.48828125" xlink:href="#ArialMT-33"/>
     </g>
    </g>
    <g id="line2d_28">
     <path d="M 395.796875 66.403125 
L 415.796875 66.403125 
" style="fill:none;opacity:0.4;stroke:#2c5ebf;stroke-linecap:round;stroke-width:2.0;"/>
    </g>
    <g id="line2d_29"/>
    <g id="text_17">
     <!-- mouse 1: 39 -->
     <defs>
      <path d="M 5.46875 16.546875 
L 13.921875 17.328125 
Q 14.984375 11.375 18.015625 8.6875 
Q 21.046875 6 25.78125 6 
Q 29.828125 6 32.875 7.859375 
Q 35.9375 9.71875 37.890625 12.8125 
Q 39.84375 15.921875 41.15625 21.1875 
Q 42.484375 26.46875 42.484375 31.9375 
Q 42.484375 32.515625 42.4375 33.6875 
Q 39.796875 29.5 35.234375 26.875 
Q 30.671875 24.265625 25.34375 24.265625 
Q 16.453125 24.265625 10.296875 30.703125 
Q 4.15625 37.15625 4.15625 47.703125 
Q 4.15625 58.59375 10.578125 65.234375 
Q 17 71.875 26.65625 71.875 
Q 33.640625 71.875 39.421875 68.109375 
Q 45.21875 64.359375 48.21875 57.390625 
Q 51.21875 50.4375 51.21875 37.25 
Q 51.21875 23.53125 48.234375 15.40625 
Q 45.265625 7.28125 39.375 3.03125 
Q 33.5 -1.21875 25.59375 -1.21875 
Q 17.1875 -1.21875 11.859375 3.4375 
Q 6.546875 8.109375 5.46875 16.546875 
M 41.453125 48.140625 
Q 41.453125 55.71875 37.421875 60.15625 
Q 33.40625 64.59375 27.734375 64.59375 
Q 21.875 64.59375 17.53125 59.8125 
Q 13.1875 55.03125 13.1875 47.40625 
Q 13.1875 40.578125 17.3125 36.296875 
Q 21.4375 32.03125 27.484375 32.03125 
Q 33.59375 32.03125 37.515625 36.296875 
Q 41.453125 40.578125 41.453125 48.140625 
" id="ArialMT-39"/>
     </defs>
     <g style="fill:#262626;" transform="translate(423.796875 69.903125)scale(0.1 -0.1)">
      <use xlink:href="#ArialMT-6d"/>
      <use x="83.30078125" xlink:href="#ArialMT-6f"/>
      <use x="138.916015625" xlink:href="#ArialMT-75"/>
      <use x="194.53125" xlink:href="#ArialMT-73"/>
      <use x="244.53125" xlink:href="#ArialMT-65"/>
      <use x="300.146484375" xlink:href="#ArialMT-20"/>
      <use x="327.9296875" xlink:href="#ArialMT-31"/>
      <use x="383.544921875" xlink:href="#ArialMT-3a"/>
      <use x="411.328125" xlink:href="#ArialMT-20"/>
      <use x="439.111328125" xlink:href="#ArialMT-33"/>
      <use x="494.7265625" xlink:href="#ArialMT-39"/>
     </g>
    </g>
    <g id="line2d_30">
     <path d="M 395.796875 80.548437 
L 415.796875 80.548437 
" style="fill:none;opacity:0.4;stroke:#ff1313;stroke-linecap:round;stroke-width:2.0;"/>
    </g>
    <g id="line2d_31"/>
    <g id="text_18">
     <!-- mouse 2: 42 -->
     <g style="fill:#262626;" transform="translate(423.796875 84.0484375)scale(0.1 -0.1)">
      <use xlink:href="#ArialMT-6d"/>
      <use x="83.30078125" xlink:href="#ArialMT-6f"/>
      <use x="138.916015625" xlink:href="#ArialMT-75"/>
      <use x="194.53125" xlink:href="#ArialMT-73"/>
      <use x="244.53125" xlink:href="#ArialMT-65"/>
      <use x="300.146484375" xlink:href="#ArialMT-20"/>
      <use x="327.9296875" xlink:href="#ArialMT-32"/>
      <use x="383.544921875" xlink:href="#ArialMT-3a"/>
      <use x="411.328125" xlink:href="#ArialMT-20"/>
      <use x="439.111328125" xlink:href="#ArialMT-34"/>
      <use x="494.7265625" xlink:href="#ArialMT-32"/>
     </g>
    </g>
    <g id="line2d_32">
     <path d="M 395.796875 94.69375 
L 415.796875 94.69375 
" style="fill:none;opacity:0.4;stroke:#f7b02a;stroke-linecap:round;stroke-width:2.0;"/>
    </g>
    <g id="line2d_33"/>
    <g id="text_19">
     <!-- mouse 3: 35 -->
     <g style="fill:#262626;" transform="translate(423.796875 98.19375)scale(0.1 -0.1)">
      <use xlink:href="#ArialMT-6d"/>
      <use x="83.30078125" xlink:href="#ArialMT-6f"/>
      <use x="138.916015625" xlink:href="#ArialMT-75"/>
      <use x="194.53125" xlink:href="#ArialMT-73"/>
      <use x="244.53125" xlink:href="#ArialMT-65"/>
      <use x="300.146484375" xlink:href="#ArialMT-20"/>
      <use x="327.9296875" xlink:href="#ArialMT-33"/>
      <use x="383.544921875" xlink:href="#ArialMT-3a"/>
      <use x="411.328125" xlink:href="#ArialMT-20"/>
      <use x="439.111328125" xlink:href="#ArialMT-33"/>
      <use x="494.7265625" xlink:href="#ArialMT-35"/>
     </g>
    </g>
    <g id="line2d_34">
     <path d="M 395.796875 108.839063 
L 415.796875 108.839063 
" style="fill:none;opacity:0.4;stroke:#02b72a;stroke-linecap:round;stroke-width:2.0;"/>
    </g>
    <g id="line2d_35"/>
    <g id="text_20">
     <!-- mouse 4: 36 -->
     <g style="fill:#262626;" transform="translate(423.796875 112.3390625)scale(0.1 -0.1)">
      <use xlink:href="#ArialMT-6d"/>
      <use x="83.30078125" xlink:href="#ArialMT-6f"/>
      <use x="138.916015625" xlink:href="#ArialMT-75"/>
      <use x="194.53125" xlink:href="#ArialMT-73"/>
      <use x="244.53125" xlink:href="#ArialMT-65"/>
      <use x="300.146484375" xlink:href="#ArialMT-20"/>
      <use x="327.9296875" xlink:href="#ArialMT-34"/>
      <use x="383.544921875" xlink:href="#ArialMT-3a"/>
      <use x="411.328125" xlink:href="#ArialMT-20"/>
      <use x="439.111328125" xlink:href="#ArialMT-33"/>
      <use x="494.7265625" xlink:href="#ArialMT-36"/>
     </g>
    </g>
    <g id="line2d_36">
     <path d="M 395.796875 122.984375 
L 415.796875 122.984375 
" style="fill:none;opacity:0.4;stroke:#009e9e;stroke-linecap:round;stroke-width:2.0;"/>
    </g>
    <g id="line2d_37"/>
    <g id="text_21">
     <!-- mouse 5: 38 -->
     <defs>
      <path d="M 17.671875 38.8125 
Q 12.203125 40.828125 9.5625 44.53125 
Q 6.9375 48.25 6.9375 53.421875 
Q 6.9375 61.234375 12.546875 66.546875 
Q 18.171875 71.875 27.484375 71.875 
Q 36.859375 71.875 42.578125 66.421875 
Q 48.296875 60.984375 48.296875 53.171875 
Q 48.296875 48.1875 45.671875 44.5 
Q 43.0625 40.828125 37.75 38.8125 
Q 44.34375 36.671875 47.78125 31.875 
Q 51.21875 27.09375 51.21875 20.453125 
Q 51.21875 11.28125 44.71875 5.03125 
Q 38.234375 -1.21875 27.640625 -1.21875 
Q 17.046875 -1.21875 10.546875 5.046875 
Q 4.046875 11.328125 4.046875 20.703125 
Q 4.046875 27.6875 7.59375 32.390625 
Q 11.140625 37.109375 17.671875 38.8125 
M 15.921875 53.71875 
Q 15.921875 48.640625 19.1875 45.40625 
Q 22.46875 42.1875 27.6875 42.1875 
Q 32.765625 42.1875 36.015625 45.375 
Q 39.265625 48.578125 39.265625 53.21875 
Q 39.265625 58.0625 35.90625 61.359375 
Q 32.5625 64.65625 27.59375 64.65625 
Q 22.5625 64.65625 19.234375 61.421875 
Q 15.921875 58.203125 15.921875 53.71875 
M 13.09375 20.65625 
Q 13.09375 16.890625 14.875 13.375 
Q 16.65625 9.859375 20.171875 7.921875 
Q 23.6875 6 27.734375 6 
Q 34.03125 6 38.125 10.046875 
Q 42.234375 14.109375 42.234375 20.359375 
Q 42.234375 26.703125 38.015625 30.859375 
Q 33.796875 35.015625 27.4375 35.015625 
Q 21.234375 35.015625 17.15625 30.90625 
Q 13.09375 26.8125 13.09375 20.65625 
" id="ArialMT-38"/>
     </defs>
     <g style="fill:#262626;" transform="translate(423.796875 126.484375)scale(0.1 -0.1)">
      <use xlink:href="#ArialMT-6d"/>
      <use x="83.30078125" xlink:href="#ArialMT-6f"/>
      <use x="138.916015625" xlink:href="#ArialMT-75"/>
      <use x="194.53125" xlink:href="#ArialMT-73"/>
      <use x="244.53125" xlink:href="#ArialMT-65"/>
      <use x="300.146484375" xlink:href="#ArialMT-20"/>
      <use x="327.9296875" xlink:href="#ArialMT-35"/>
      <use x="383.544921875" xlink:href="#ArialMT-3a"/>
      <use x="411.328125" xlink:href="#ArialMT-20"/>
      <use x="439.111328125" xlink:href="#ArialMT-33"/>
      <use x="494.7265625" xlink:href="#ArialMT-38"/>
     </g>
    </g>
    <g id="line2d_38">
     <path d="M 395.796875 137.129687 
L 415.796875 137.129687 
" style="fill:none;opacity:0.4;stroke:#1d1aa9;stroke-linecap:round;stroke-width:2.0;"/>
    </g>
    <g id="line2d_39"/>
    <g id="text_22">
     <!-- mouse 6: 10 -->
     <g style="fill:#262626;" transform="translate(423.796875 140.6296875)scale(0.1 -0.1)">
      <use xlink:href="#ArialMT-6d"/>
      <use x="83.30078125" xlink:href="#ArialMT-6f"/>
      <use x="138.916015625" xlink:href="#ArialMT-75"/>
      <use x="194.53125" xlink:href="#ArialMT-73"/>
      <use x="244.53125" xlink:href="#ArialMT-65"/>
      <use x="300.146484375" xlink:href="#ArialMT-20"/>
      <use x="327.9296875" xlink:href="#ArialMT-36"/>
      <use x="383.544921875" xlink:href="#ArialMT-3a"/>
      <use x="411.328125" xlink:href="#ArialMT-20"/>
      <use x="439.111328125" xlink:href="#ArialMT-31"/>
      <use x="494.7265625" xlink:href="#ArialMT-30"/>
     </g>
    </g>
   </g>
  </g>
 </g>
 <defs>
  <clipPath id="p8c09e096b2">
   <rect height="306.9" width="446.4" x="72.0" y="39.6"/>
  </clipPath>
 </defs>
</svg>
