<?xml version="1.0" encoding="utf-8" standalone="no"?>
<!DOCTYPE svg PUBLIC "-//W3C//DTD SVG 1.1//EN"
  "http://www.w3.org/Graphics/SVG/1.1/DTD/svg11.dtd">
<!-- Created with matplotlib (http://matplotlib.org/) -->
<svg height="360pt" version="1.1" viewBox="0 0 576 360" width="576pt" xmlns="http://www.w3.org/2000/svg" xmlns:xlink="http://www.w3.org/1999/xlink">
 <defs>
  <style type="text/css">
*{stroke-linecap:butt;stroke-linejoin:round;stroke-miterlimit:100000;}
  </style>
 </defs>
 <g id="figure_1">
  <g id="patch_1">
   <path d="M 0 360 
L 576 360 
L 576 0 
L 0 0 
z
" style="fill:#ffffff;"/>
  </g>
  <g id="axes_1">
   <g id="patch_2">
    <path d="M 72 315 
L 518.4 315 
L 518.4 36 
L 72 36 
z
" style="fill:#ffffff;"/>
   </g>
   <g id="matplotlib.axis_1">
    <g id="xtick_1">
     <g id="line2d_1">
      <defs>
       <path d="M 0 0 
L 0 0 
" id="me246315786" style="stroke:#262626;"/>
      </defs>
      <g>
       <use style="fill:#262626;stroke:#262626;" x="74.8164037855" xlink:href="#me246315786" y="315.0"/>
      </g>
     </g>
     <g id="line2d_2">
      <g>
       <use style="fill:#262626;stroke:#262626;" x="74.8164037855" xlink:href="#me246315786" y="36.0"/>
      </g>
     </g>
     <g id="text_1">
      <!-- 0 -->
      <defs>
       <path d="M 4.15625 35.296875 
Q 4.15625 48 6.765625 55.734375 
Q 9.375 63.484375 14.515625 67.671875 
Q 19.671875 71.875 27.484375 71.875 
Q 33.25 71.875 37.59375 69.546875 
Q 41.9375 67.234375 44.765625 62.859375 
Q 47.609375 58.5 49.21875 52.21875 
Q 50.828125 45.953125 50.828125 35.296875 
Q 50.828125 22.703125 48.234375 14.96875 
Q 45.65625 7.234375 40.5 3 
Q 35.359375 -1.21875 27.484375 -1.21875 
Q 17.140625 -1.21875 11.234375 6.203125 
Q 4.15625 15.140625 4.15625 35.296875 
M 13.1875 35.296875 
Q 13.1875 17.671875 17.3125 11.828125 
Q 21.4375 6 27.484375 6 
Q 33.546875 6 37.671875 11.859375 
Q 41.796875 17.71875 41.796875 35.296875 
Q 41.796875 52.984375 37.671875 58.78125 
Q 33.546875 64.59375 27.390625 64.59375 
Q 21.34375 64.59375 17.71875 59.46875 
Q 13.1875 52.9375 13.1875 35.296875 
" id="ArialMT-30"/>
      </defs>
      <g style="fill:#262626;" transform="translate(72.0359350355 329.1578125)scale(0.1 -0.1)">
       <use xlink:href="#ArialMT-30"/>
      </g>
     </g>
    </g>
    <g id="xtick_2">
     <g id="line2d_3">
      <g>
       <use style="fill:#262626;stroke:#262626;" x="131.144479495" xlink:href="#me246315786" y="315.0"/>
      </g>
     </g>
     <g id="line2d_4">
      <g>
       <use style="fill:#262626;stroke:#262626;" x="131.144479495" xlink:href="#me246315786" y="36.0"/>
      </g>
     </g>
     <g id="text_2">
      <!-- 200 -->
      <defs>
       <path d="M 50.34375 8.453125 
L 50.34375 0 
L 3.03125 0 
Q 2.9375 3.171875 4.046875 6.109375 
Q 5.859375 10.9375 9.828125 15.625 
Q 13.8125 20.3125 21.34375 26.46875 
Q 33.015625 36.03125 37.109375 41.625 
Q 41.21875 47.21875 41.21875 52.203125 
Q 41.21875 57.421875 37.46875 61 
Q 33.734375 64.59375 27.734375 64.59375 
Q 21.390625 64.59375 17.578125 60.78125 
Q 13.765625 56.984375 13.71875 50.25 
L 4.6875 51.171875 
Q 5.609375 61.28125 11.65625 66.578125 
Q 17.71875 71.875 27.9375 71.875 
Q 38.234375 71.875 44.234375 66.15625 
Q 50.25 60.453125 50.25 52 
Q 50.25 47.703125 48.484375 43.546875 
Q 46.734375 39.40625 42.65625 34.8125 
Q 38.578125 30.21875 29.109375 22.21875 
Q 21.1875 15.578125 18.9375 13.203125 
Q 16.703125 10.84375 15.234375 8.453125 
z
" id="ArialMT-32"/>
      </defs>
      <g style="fill:#262626;" transform="translate(122.803073245 329.1578125)scale(0.1 -0.1)">
       <use xlink:href="#ArialMT-32"/>
       <use x="55.615234375" xlink:href="#ArialMT-30"/>
       <use x="111.23046875" xlink:href="#ArialMT-30"/>
      </g>
     </g>
    </g>
    <g id="xtick_3">
     <g id="line2d_5">
      <g>
       <use style="fill:#262626;stroke:#262626;" x="187.472555205" xlink:href="#me246315786" y="315.0"/>
      </g>
     </g>
     <g id="line2d_6">
      <g>
       <use style="fill:#262626;stroke:#262626;" x="187.472555205" xlink:href="#me246315786" y="36.0"/>
      </g>
     </g>
     <g id="text_3">
      <!-- 400 -->
      <defs>
       <path d="M 32.328125 0 
L 32.328125 17.140625 
L 1.265625 17.140625 
L 1.265625 25.203125 
L 33.9375 71.578125 
L 41.109375 71.578125 
L 41.109375 25.203125 
L 50.78125 25.203125 
L 50.78125 17.140625 
L 41.109375 17.140625 
L 41.109375 0 
z
M 32.328125 25.203125 
L 32.328125 57.46875 
L 9.90625 25.203125 
z
" id="ArialMT-34"/>
      </defs>
      <g style="fill:#262626;" transform="translate(179.131148955 329.1578125)scale(0.1 -0.1)">
       <use xlink:href="#ArialMT-34"/>
       <use x="55.615234375" xlink:href="#ArialMT-30"/>
       <use x="111.23046875" xlink:href="#ArialMT-30"/>
      </g>
     </g>
    </g>
    <g id="xtick_4">
     <g id="line2d_7">
      <g>
       <use style="fill:#262626;stroke:#262626;" x="243.800630915" xlink:href="#me246315786" y="315.0"/>
      </g>
     </g>
     <g id="line2d_8">
      <g>
       <use style="fill:#262626;stroke:#262626;" x="243.800630915" xlink:href="#me246315786" y="36.0"/>
      </g>
     </g>
     <g id="text_4">
      <!-- 600 -->
      <defs>
       <path d="M 49.75 54.046875 
L 41.015625 53.375 
Q 39.84375 58.546875 37.703125 60.890625 
Q 34.125 64.65625 28.90625 64.65625 
Q 24.703125 64.65625 21.53125 62.3125 
Q 17.390625 59.28125 14.984375 53.46875 
Q 12.59375 47.65625 12.5 36.921875 
Q 15.671875 41.75 20.265625 44.09375 
Q 24.859375 46.4375 29.890625 46.4375 
Q 38.671875 46.4375 44.84375 39.96875 
Q 51.03125 33.5 51.03125 23.25 
Q 51.03125 16.5 48.125 10.71875 
Q 45.21875 4.9375 40.140625 1.859375 
Q 35.0625 -1.21875 28.609375 -1.21875 
Q 17.625 -1.21875 10.6875 6.859375 
Q 3.765625 14.9375 3.765625 33.5 
Q 3.765625 54.25 11.421875 63.671875 
Q 18.109375 71.875 29.4375 71.875 
Q 37.890625 71.875 43.28125 67.140625 
Q 48.6875 62.40625 49.75 54.046875 
M 13.875 23.1875 
Q 13.875 18.65625 15.796875 14.5 
Q 17.71875 10.359375 21.1875 8.171875 
Q 24.65625 6 28.46875 6 
Q 34.03125 6 38.03125 10.484375 
Q 42.046875 14.984375 42.046875 22.703125 
Q 42.046875 30.125 38.078125 34.390625 
Q 34.125 38.671875 28.125 38.671875 
Q 22.171875 38.671875 18.015625 34.390625 
Q 13.875 30.125 13.875 23.1875 
" id="ArialMT-36"/>
      </defs>
      <g style="fill:#262626;" transform="translate(235.459224665 329.1578125)scale(0.1 -0.1)">
       <use xlink:href="#ArialMT-36"/>
       <use x="55.615234375" xlink:href="#ArialMT-30"/>
       <use x="111.23046875" xlink:href="#ArialMT-30"/>
      </g>
     </g>
    </g>
    <g id="xtick_5">
     <g id="line2d_9">
      <g>
       <use style="fill:#262626;stroke:#262626;" x="300.128706625" xlink:href="#me246315786" y="315.0"/>
      </g>
     </g>
     <g id="line2d_10">
      <g>
       <use style="fill:#262626;stroke:#262626;" x="300.128706625" xlink:href="#me246315786" y="36.0"/>
      </g>
     </g>
     <g id="text_5">
      <!-- 800 -->
      <defs>
       <path d="M 17.671875 38.8125 
Q 12.203125 40.828125 9.5625 44.53125 
Q 6.9375 48.25 6.9375 53.421875 
Q 6.9375 61.234375 12.546875 66.546875 
Q 18.171875 71.875 27.484375 71.875 
Q 36.859375 71.875 42.578125 66.421875 
Q 48.296875 60.984375 48.296875 53.171875 
Q 48.296875 48.1875 45.671875 44.5 
Q 43.0625 40.828125 37.75 38.8125 
Q 44.34375 36.671875 47.78125 31.875 
Q 51.21875 27.09375 51.21875 20.453125 
Q 51.21875 11.28125 44.71875 5.03125 
Q 38.234375 -1.21875 27.640625 -1.21875 
Q 17.046875 -1.21875 10.546875 5.046875 
Q 4.046875 11.328125 4.046875 20.703125 
Q 4.046875 27.6875 7.59375 32.390625 
Q 11.140625 37.109375 17.671875 38.8125 
M 15.921875 53.71875 
Q 15.921875 48.640625 19.1875 45.40625 
Q 22.46875 42.1875 27.6875 42.1875 
Q 32.765625 42.1875 36.015625 45.375 
Q 39.265625 48.578125 39.265625 53.21875 
Q 39.265625 58.0625 35.90625 61.359375 
Q 32.5625 64.65625 27.59375 64.65625 
Q 22.5625 64.65625 19.234375 61.421875 
Q 15.921875 58.203125 15.921875 53.71875 
M 13.09375 20.65625 
Q 13.09375 16.890625 14.875 13.375 
Q 16.65625 9.859375 20.171875 7.921875 
Q 23.6875 6 27.734375 6 
Q 34.03125 6 38.125 10.046875 
Q 42.234375 14.109375 42.234375 20.359375 
Q 42.234375 26.703125 38.015625 30.859375 
Q 33.796875 35.015625 27.4375 35.015625 
Q 21.234375 35.015625 17.15625 30.90625 
Q 13.09375 26.8125 13.09375 20.65625 
" id="ArialMT-38"/>
      </defs>
      <g style="fill:#262626;" transform="translate(291.787300375 329.1578125)scale(0.1 -0.1)">
       <use xlink:href="#ArialMT-38"/>
       <use x="55.615234375" xlink:href="#ArialMT-30"/>
       <use x="111.23046875" xlink:href="#ArialMT-30"/>
      </g>
     </g>
    </g>
    <g id="xtick_6">
     <g id="line2d_11">
      <g>
       <use style="fill:#262626;stroke:#262626;" x="356.456782334" xlink:href="#me246315786" y="315.0"/>
      </g>
     </g>
     <g id="line2d_12">
      <g>
       <use style="fill:#262626;stroke:#262626;" x="356.456782334" xlink:href="#me246315786" y="36.0"/>
      </g>
     </g>
     <g id="text_6">
      <!-- 1000 -->
      <defs>
       <path d="M 37.25 0 
L 28.46875 0 
L 28.46875 56 
Q 25.296875 52.984375 20.140625 49.953125 
Q 14.984375 46.921875 10.890625 45.40625 
L 10.890625 53.90625 
Q 18.265625 57.375 23.78125 62.296875 
Q 29.296875 67.234375 31.59375 71.875 
L 37.25 71.875 
z
" id="ArialMT-31"/>
      </defs>
      <g style="fill:#262626;" transform="translate(345.334907334 329.1578125)scale(0.1 -0.1)">
       <use xlink:href="#ArialMT-31"/>
       <use x="55.615234375" xlink:href="#ArialMT-30"/>
       <use x="111.23046875" xlink:href="#ArialMT-30"/>
       <use x="166.845703125" xlink:href="#ArialMT-30"/>
      </g>
     </g>
    </g>
    <g id="xtick_7">
     <g id="line2d_13">
      <g>
       <use style="fill:#262626;stroke:#262626;" x="412.784858044" xlink:href="#me246315786" y="315.0"/>
      </g>
     </g>
     <g id="line2d_14">
      <g>
       <use style="fill:#262626;stroke:#262626;" x="412.784858044" xlink:href="#me246315786" y="36.0"/>
      </g>
     </g>
     <g id="text_7">
      <!-- 1200 -->
      <g style="fill:#262626;" transform="translate(401.662983044 329.1578125)scale(0.1 -0.1)">
       <use xlink:href="#ArialMT-31"/>
       <use x="55.615234375" xlink:href="#ArialMT-32"/>
       <use x="111.23046875" xlink:href="#ArialMT-30"/>
       <use x="166.845703125" xlink:href="#ArialMT-30"/>
      </g>
     </g>
    </g>
    <g id="xtick_8">
     <g id="line2d_15">
      <g>
       <use style="fill:#262626;stroke:#262626;" x="469.112933754" xlink:href="#me246315786" y="315.0"/>
      </g>
     </g>
     <g id="line2d_16">
      <g>
       <use style="fill:#262626;stroke:#262626;" x="469.112933754" xlink:href="#me246315786" y="36.0"/>
      </g>
     </g>
     <g id="text_8">
      <!-- 1400 -->
      <g style="fill:#262626;" transform="translate(457.991058754 329.1578125)scale(0.1 -0.1)">
       <use xlink:href="#ArialMT-31"/>
       <use x="55.615234375" xlink:href="#ArialMT-34"/>
       <use x="111.23046875" xlink:href="#ArialMT-30"/>
       <use x="166.845703125" xlink:href="#ArialMT-30"/>
      </g>
     </g>
    </g>
    <g id="text_9">
     <!-- barcode, rank-ordered -->
     <defs>
      <path d="M 40.4375 19 
L 49.078125 17.875 
Q 47.65625 8.9375 41.8125 3.875 
Q 35.984375 -1.171875 27.484375 -1.171875 
Q 16.84375 -1.171875 10.375 5.78125 
Q 3.90625 12.75 3.90625 25.734375 
Q 3.90625 34.125 6.6875 40.421875 
Q 9.46875 46.734375 15.15625 49.875 
Q 20.84375 53.03125 27.546875 53.03125 
Q 35.984375 53.03125 41.359375 48.75 
Q 46.734375 44.484375 48.25 36.625 
L 39.703125 35.296875 
Q 38.484375 40.53125 35.375 43.15625 
Q 32.28125 45.796875 27.875 45.796875 
Q 21.234375 45.796875 17.078125 41.03125 
Q 12.9375 36.28125 12.9375 25.984375 
Q 12.9375 15.53125 16.9375 10.796875 
Q 20.953125 6.0625 27.390625 6.0625 
Q 32.5625 6.0625 36.03125 9.234375 
Q 39.5 12.40625 40.4375 19 
" id="ArialMT-63"/>
      <path d="M 14.703125 0 
L 6.546875 0 
L 6.546875 71.578125 
L 15.328125 71.578125 
L 15.328125 46.046875 
Q 20.90625 53.03125 29.546875 53.03125 
Q 34.328125 53.03125 38.59375 51.09375 
Q 42.875 49.171875 45.625 45.671875 
Q 48.390625 42.1875 49.953125 37.25 
Q 51.515625 32.328125 51.515625 26.703125 
Q 51.515625 13.375 44.921875 6.09375 
Q 38.328125 -1.171875 29.109375 -1.171875 
Q 19.921875 -1.171875 14.703125 6.5 
z
M 14.59375 26.3125 
Q 14.59375 17 17.140625 12.84375 
Q 21.296875 6.0625 28.375 6.0625 
Q 34.125 6.0625 38.328125 11.0625 
Q 42.53125 16.0625 42.53125 25.984375 
Q 42.53125 36.140625 38.5 40.96875 
Q 34.46875 45.796875 28.765625 45.796875 
Q 23 45.796875 18.796875 40.796875 
Q 14.59375 35.796875 14.59375 26.3125 
" id="ArialMT-62"/>
      <path d="M 40.4375 6.390625 
Q 35.546875 2.25 31.03125 0.53125 
Q 26.515625 -1.171875 21.34375 -1.171875 
Q 12.796875 -1.171875 8.203125 3 
Q 3.609375 7.171875 3.609375 13.671875 
Q 3.609375 17.484375 5.34375 20.625 
Q 7.078125 23.78125 9.890625 25.6875 
Q 12.703125 27.59375 16.21875 28.5625 
Q 18.796875 29.25 24.03125 29.890625 
Q 34.671875 31.15625 39.703125 32.90625 
Q 39.75 34.71875 39.75 35.203125 
Q 39.75 40.578125 37.25 42.78125 
Q 33.890625 45.75 27.25 45.75 
Q 21.046875 45.75 18.09375 43.578125 
Q 15.140625 41.40625 13.71875 35.890625 
L 5.125 37.0625 
Q 6.296875 42.578125 8.984375 45.96875 
Q 11.671875 49.359375 16.75 51.1875 
Q 21.828125 53.03125 28.515625 53.03125 
Q 35.15625 53.03125 39.296875 51.46875 
Q 43.453125 49.90625 45.40625 47.53125 
Q 47.359375 45.171875 48.140625 41.546875 
Q 48.578125 39.3125 48.578125 33.453125 
L 48.578125 21.734375 
Q 48.578125 9.46875 49.140625 6.21875 
Q 49.703125 2.984375 51.375 0 
L 42.1875 0 
Q 40.828125 2.734375 40.4375 6.390625 
M 39.703125 26.03125 
Q 34.90625 24.078125 25.34375 22.703125 
Q 19.921875 21.921875 17.671875 20.9375 
Q 15.4375 19.96875 14.203125 18.09375 
Q 12.984375 16.21875 12.984375 13.921875 
Q 12.984375 10.40625 15.640625 8.0625 
Q 18.3125 5.71875 23.4375 5.71875 
Q 28.515625 5.71875 32.46875 7.9375 
Q 36.421875 10.15625 38.28125 14.015625 
Q 39.703125 17 39.703125 22.796875 
z
" id="ArialMT-61"/>
      <path d="M 42.09375 16.703125 
L 51.171875 15.578125 
Q 49.03125 7.625 43.21875 3.21875 
Q 37.40625 -1.171875 28.375 -1.171875 
Q 17 -1.171875 10.328125 5.828125 
Q 3.65625 12.84375 3.65625 25.484375 
Q 3.65625 38.578125 10.390625 45.796875 
Q 17.140625 53.03125 27.875 53.03125 
Q 38.28125 53.03125 44.875 45.953125 
Q 51.46875 38.875 51.46875 26.03125 
Q 51.46875 25.25 51.421875 23.6875 
L 12.75 23.6875 
Q 13.234375 15.140625 17.578125 10.59375 
Q 21.921875 6.0625 28.421875 6.0625 
Q 33.25 6.0625 36.671875 8.59375 
Q 40.09375 11.140625 42.09375 16.703125 
M 13.234375 30.90625 
L 42.1875 30.90625 
Q 41.609375 37.453125 38.875 40.71875 
Q 34.671875 45.796875 27.984375 45.796875 
Q 21.921875 45.796875 17.796875 41.75 
Q 13.671875 37.703125 13.234375 30.90625 
" id="ArialMT-65"/>
      <path d="M 40.234375 0 
L 40.234375 6.546875 
Q 35.296875 -1.171875 25.734375 -1.171875 
Q 19.53125 -1.171875 14.328125 2.25 
Q 9.125 5.671875 6.265625 11.796875 
Q 3.421875 17.921875 3.421875 25.875 
Q 3.421875 33.640625 6 39.96875 
Q 8.59375 46.296875 13.765625 49.65625 
Q 18.953125 53.03125 25.34375 53.03125 
Q 30.03125 53.03125 33.6875 51.046875 
Q 37.359375 49.078125 39.65625 45.90625 
L 39.65625 71.578125 
L 48.390625 71.578125 
L 48.390625 0 
z
M 12.453125 25.875 
Q 12.453125 15.921875 16.640625 10.984375 
Q 20.84375 6.0625 26.5625 6.0625 
Q 32.328125 6.0625 36.34375 10.765625 
Q 40.375 15.484375 40.375 25.140625 
Q 40.375 35.796875 36.265625 40.765625 
Q 32.171875 45.75 26.171875 45.75 
Q 20.3125 45.75 16.375 40.96875 
Q 12.453125 36.1875 12.453125 25.875 
" id="ArialMT-64"/>
      <path d="M 3.171875 21.484375 
L 3.171875 30.328125 
L 30.171875 30.328125 
L 30.171875 21.484375 
z
" id="ArialMT-2d"/>
      <path d="M 8.890625 0 
L 8.890625 10.015625 
L 18.890625 10.015625 
L 18.890625 0 
Q 18.890625 -5.515625 16.9375 -8.90625 
Q 14.984375 -12.3125 10.75 -14.15625 
L 8.296875 -10.40625 
Q 11.078125 -9.1875 12.390625 -6.8125 
Q 13.71875 -4.4375 13.875 0 
z
" id="ArialMT-2c"/>
      <path d="M 6.5 0 
L 6.5 51.859375 
L 14.40625 51.859375 
L 14.40625 44 
Q 17.4375 49.515625 20 51.265625 
Q 22.5625 53.03125 25.640625 53.03125 
Q 30.078125 53.03125 34.671875 50.203125 
L 31.640625 42.046875 
Q 28.421875 43.953125 25.203125 43.953125 
Q 22.3125 43.953125 20.015625 42.21875 
Q 17.71875 40.484375 16.75 37.40625 
Q 15.28125 32.71875 15.28125 27.15625 
L 15.28125 0 
z
" id="ArialMT-72"/>
      <path d="M 6.640625 0 
L 6.640625 71.578125 
L 15.4375 71.578125 
L 15.4375 30.765625 
L 36.234375 51.859375 
L 47.609375 51.859375 
L 27.78125 32.625 
L 49.609375 0 
L 38.765625 0 
L 21.625 26.515625 
L 15.4375 20.5625 
L 15.4375 0 
z
" id="ArialMT-6b"/>
      <path d="M 3.328125 25.921875 
Q 3.328125 40.328125 11.328125 47.265625 
Q 18.015625 53.03125 27.640625 53.03125 
Q 38.328125 53.03125 45.109375 46.015625 
Q 51.90625 39.015625 51.90625 26.65625 
Q 51.90625 16.65625 48.90625 10.90625 
Q 45.90625 5.171875 40.15625 2 
Q 34.421875 -1.171875 27.640625 -1.171875 
Q 16.75 -1.171875 10.03125 5.8125 
Q 3.328125 12.796875 3.328125 25.921875 
M 12.359375 25.921875 
Q 12.359375 15.96875 16.703125 11.015625 
Q 21.046875 6.0625 27.640625 6.0625 
Q 34.1875 6.0625 38.53125 11.03125 
Q 42.875 16.015625 42.875 26.21875 
Q 42.875 35.84375 38.5 40.796875 
Q 34.125 45.75 27.640625 45.75 
Q 21.046875 45.75 16.703125 40.8125 
Q 12.359375 35.890625 12.359375 25.921875 
" id="ArialMT-6f"/>
      <path d="M 6.59375 0 
L 6.59375 51.859375 
L 14.5 51.859375 
L 14.5 44.484375 
Q 20.21875 53.03125 31 53.03125 
Q 35.6875 53.03125 39.625 51.34375 
Q 43.5625 49.65625 45.515625 46.921875 
Q 47.46875 44.1875 48.25 40.4375 
Q 48.734375 37.984375 48.734375 31.890625 
L 48.734375 0 
L 39.9375 0 
L 39.9375 31.546875 
Q 39.9375 36.921875 38.90625 39.578125 
Q 37.890625 42.234375 35.28125 43.8125 
Q 32.671875 45.40625 29.15625 45.40625 
Q 23.53125 45.40625 19.453125 41.84375 
Q 15.375 38.28125 15.375 28.328125 
L 15.375 0 
z
" id="ArialMT-6e"/>
      <path id="ArialMT-20"/>
     </defs>
     <g style="fill:#262626;" transform="translate(240.785234375 344.01890625)scale(0.11 -0.11)">
      <use xlink:href="#ArialMT-62"/>
      <use x="55.615234375" xlink:href="#ArialMT-61"/>
      <use x="111.23046875" xlink:href="#ArialMT-72"/>
      <use x="144.53125" xlink:href="#ArialMT-63"/>
      <use x="194.53125" xlink:href="#ArialMT-6f"/>
      <use x="250.146484375" xlink:href="#ArialMT-64"/>
      <use x="305.76171875" xlink:href="#ArialMT-65"/>
      <use x="361.376953125" xlink:href="#ArialMT-2c"/>
      <use x="389.16015625" xlink:href="#ArialMT-20"/>
      <use x="416.943359375" xlink:href="#ArialMT-72"/>
      <use x="450.244140625" xlink:href="#ArialMT-61"/>
      <use x="505.859375" xlink:href="#ArialMT-6e"/>
      <use x="561.474609375" xlink:href="#ArialMT-6b"/>
      <use x="611.474609375" xlink:href="#ArialMT-2d"/>
      <use x="644.775390625" xlink:href="#ArialMT-6f"/>
      <use x="700.390625" xlink:href="#ArialMT-72"/>
      <use x="733.69140625" xlink:href="#ArialMT-64"/>
      <use x="789.306640625" xlink:href="#ArialMT-65"/>
      <use x="844.921875" xlink:href="#ArialMT-72"/>
      <use x="878.22265625" xlink:href="#ArialMT-65"/>
      <use x="933.837890625" xlink:href="#ArialMT-64"/>
     </g>
    </g>
   </g>
   <g id="matplotlib.axis_2">
    <g id="ytick_1">
     <g id="line2d_17">
      <g>
       <use style="fill:#262626;stroke:#262626;" x="72.0" xlink:href="#me246315786" y="315.0"/>
      </g>
     </g>
     <g id="line2d_18">
      <g>
       <use style="fill:#262626;stroke:#262626;" x="518.4" xlink:href="#me246315786" y="315.0"/>
      </g>
     </g>
     <g id="text_10">
      <!-- 0.0 -->
      <defs>
       <path d="M 9.078125 0 
L 9.078125 10.015625 
L 19.09375 10.015625 
L 19.09375 0 
z
" id="ArialMT-2e"/>
      </defs>
      <g style="fill:#262626;" transform="translate(51.1 317.58515625)scale(0.1 -0.1)">
       <use xlink:href="#ArialMT-30"/>
       <use x="55.615234375" xlink:href="#ArialMT-2e"/>
       <use x="83.3984375" xlink:href="#ArialMT-30"/>
      </g>
     </g>
    </g>
    <g id="ytick_2">
     <g id="line2d_19">
      <g>
       <use style="fill:#262626;stroke:#262626;" x="72.0" xlink:href="#me246315786" y="271.887440491"/>
      </g>
     </g>
     <g id="line2d_20">
      <g>
       <use style="fill:#262626;stroke:#262626;" x="518.4" xlink:href="#me246315786" y="271.887440491"/>
      </g>
     </g>
     <g id="text_11">
      <!-- 0.5 -->
      <defs>
       <path d="M 4.15625 18.75 
L 13.375 19.53125 
Q 14.40625 12.796875 18.140625 9.390625 
Q 21.875 6 27.15625 6 
Q 33.5 6 37.890625 10.78125 
Q 42.28125 15.578125 42.28125 23.484375 
Q 42.28125 31 38.0625 35.34375 
Q 33.84375 39.703125 27 39.703125 
Q 22.75 39.703125 19.328125 37.765625 
Q 15.921875 35.84375 13.96875 32.765625 
L 5.71875 33.84375 
L 12.640625 70.609375 
L 48.25 70.609375 
L 48.25 62.203125 
L 19.671875 62.203125 
L 15.828125 42.96875 
Q 22.265625 47.46875 29.34375 47.46875 
Q 38.71875 47.46875 45.15625 40.96875 
Q 51.609375 34.46875 51.609375 24.265625 
Q 51.609375 14.546875 45.953125 7.46875 
Q 39.0625 -1.21875 27.15625 -1.21875 
Q 17.390625 -1.21875 11.203125 4.25 
Q 5.03125 9.71875 4.15625 18.75 
" id="ArialMT-35"/>
      </defs>
      <g style="fill:#262626;" transform="translate(51.1 274.472596741)scale(0.1 -0.1)">
       <use xlink:href="#ArialMT-30"/>
       <use x="55.615234375" xlink:href="#ArialMT-2e"/>
       <use x="83.3984375" xlink:href="#ArialMT-35"/>
      </g>
     </g>
    </g>
    <g id="ytick_3">
     <g id="line2d_21">
      <g>
       <use style="fill:#262626;stroke:#262626;" x="72.0" xlink:href="#me246315786" y="228.774880983"/>
      </g>
     </g>
     <g id="line2d_22">
      <g>
       <use style="fill:#262626;stroke:#262626;" x="518.4" xlink:href="#me246315786" y="228.774880983"/>
      </g>
     </g>
     <g id="text_12">
      <!-- 1.0 -->
      <g style="fill:#262626;" transform="translate(51.1 231.360037233)scale(0.1 -0.1)">
       <use xlink:href="#ArialMT-31"/>
       <use x="55.615234375" xlink:href="#ArialMT-2e"/>
       <use x="83.3984375" xlink:href="#ArialMT-30"/>
      </g>
     </g>
    </g>
    <g id="ytick_4">
     <g id="line2d_23">
      <g>
       <use style="fill:#262626;stroke:#262626;" x="72.0" xlink:href="#me246315786" y="185.662321474"/>
      </g>
     </g>
     <g id="line2d_24">
      <g>
       <use style="fill:#262626;stroke:#262626;" x="518.4" xlink:href="#me246315786" y="185.662321474"/>
      </g>
     </g>
     <g id="text_13">
      <!-- 1.5 -->
      <g style="fill:#262626;" transform="translate(51.1 188.247477724)scale(0.1 -0.1)">
       <use xlink:href="#ArialMT-31"/>
       <use x="55.615234375" xlink:href="#ArialMT-2e"/>
       <use x="83.3984375" xlink:href="#ArialMT-35"/>
      </g>
     </g>
    </g>
    <g id="ytick_5">
     <g id="line2d_25">
      <g>
       <use style="fill:#262626;stroke:#262626;" x="72.0" xlink:href="#me246315786" y="142.549761966"/>
      </g>
     </g>
     <g id="line2d_26">
      <g>
       <use style="fill:#262626;stroke:#262626;" x="518.4" xlink:href="#me246315786" y="142.549761966"/>
      </g>
     </g>
     <g id="text_14">
      <!-- 2.0 -->
      <g style="fill:#262626;" transform="translate(51.1 145.134918216)scale(0.1 -0.1)">
       <use xlink:href="#ArialMT-32"/>
       <use x="55.615234375" xlink:href="#ArialMT-2e"/>
       <use x="83.3984375" xlink:href="#ArialMT-30"/>
      </g>
     </g>
    </g>
    <g id="ytick_6">
     <g id="line2d_27">
      <g>
       <use style="fill:#262626;stroke:#262626;" x="72.0" xlink:href="#me246315786" y="99.4372024571"/>
      </g>
     </g>
     <g id="line2d_28">
      <g>
       <use style="fill:#262626;stroke:#262626;" x="518.4" xlink:href="#me246315786" y="99.4372024571"/>
      </g>
     </g>
     <g id="text_15">
      <!-- 2.5 -->
      <g style="fill:#262626;" transform="translate(51.1 102.022358707)scale(0.1 -0.1)">
       <use xlink:href="#ArialMT-32"/>
       <use x="55.615234375" xlink:href="#ArialMT-2e"/>
       <use x="83.3984375" xlink:href="#ArialMT-35"/>
      </g>
     </g>
    </g>
    <g id="ytick_7">
     <g id="line2d_29">
      <g>
       <use style="fill:#262626;stroke:#262626;" x="72.0" xlink:href="#me246315786" y="56.3246429485"/>
      </g>
     </g>
     <g id="line2d_30">
      <g>
       <use style="fill:#262626;stroke:#262626;" x="518.4" xlink:href="#me246315786" y="56.3246429485"/>
      </g>
     </g>
     <g id="text_16">
      <!-- 3.0 -->
      <defs>
       <path d="M 4.203125 18.890625 
L 12.984375 20.0625 
Q 14.5 12.59375 18.140625 9.296875 
Q 21.78125 6 27 6 
Q 33.203125 6 37.46875 10.296875 
Q 41.75 14.59375 41.75 20.953125 
Q 41.75 27 37.796875 30.921875 
Q 33.84375 34.859375 27.734375 34.859375 
Q 25.25 34.859375 21.53125 33.890625 
L 22.515625 41.609375 
Q 23.390625 41.5 23.921875 41.5 
Q 29.546875 41.5 34.03125 44.421875 
Q 38.53125 47.359375 38.53125 53.46875 
Q 38.53125 58.296875 35.25 61.46875 
Q 31.984375 64.65625 26.8125 64.65625 
Q 21.6875 64.65625 18.265625 61.421875 
Q 14.84375 58.203125 13.875 51.765625 
L 5.078125 53.328125 
Q 6.6875 62.15625 12.390625 67.015625 
Q 18.109375 71.875 26.609375 71.875 
Q 32.46875 71.875 37.390625 69.359375 
Q 42.328125 66.84375 44.9375 62.5 
Q 47.5625 58.15625 47.5625 53.265625 
Q 47.5625 48.640625 45.0625 44.828125 
Q 42.578125 41.015625 37.703125 38.765625 
Q 44.046875 37.3125 47.5625 32.6875 
Q 51.078125 28.078125 51.078125 21.140625 
Q 51.078125 11.765625 44.234375 5.25 
Q 37.40625 -1.265625 26.953125 -1.265625 
Q 17.53125 -1.265625 11.296875 4.34375 
Q 5.078125 9.96875 4.203125 18.890625 
" id="ArialMT-33"/>
      </defs>
      <g style="fill:#262626;" transform="translate(51.1 58.9097991985)scale(0.1 -0.1)">
       <use xlink:href="#ArialMT-33"/>
       <use x="55.615234375" xlink:href="#ArialMT-2e"/>
       <use x="83.3984375" xlink:href="#ArialMT-30"/>
      </g>
     </g>
    </g>
    <g id="text_17">
     <!-- log10 abundance (# molecules) -->
     <defs>
      <path d="M 4.984375 -4.296875 
L 13.53125 -5.5625 
Q 14.0625 -9.515625 16.5 -11.328125 
Q 19.78125 -13.765625 25.4375 -13.765625 
Q 31.546875 -13.765625 34.859375 -11.328125 
Q 38.1875 -8.890625 39.359375 -4.5 
Q 40.046875 -1.8125 39.984375 6.78125 
Q 34.234375 0 25.640625 0 
Q 14.9375 0 9.078125 7.71875 
Q 3.21875 15.4375 3.21875 26.21875 
Q 3.21875 33.640625 5.90625 39.90625 
Q 8.59375 46.1875 13.6875 49.609375 
Q 18.796875 53.03125 25.6875 53.03125 
Q 34.859375 53.03125 40.828125 45.609375 
L 40.828125 51.859375 
L 48.921875 51.859375 
L 48.921875 7.03125 
Q 48.921875 -5.078125 46.453125 -10.125 
Q 44 -15.1875 38.640625 -18.109375 
Q 33.296875 -21.046875 25.484375 -21.046875 
Q 16.21875 -21.046875 10.5 -16.875 
Q 4.78125 -12.703125 4.984375 -4.296875 
M 12.25 26.859375 
Q 12.25 16.65625 16.296875 11.96875 
Q 20.359375 7.28125 26.46875 7.28125 
Q 32.515625 7.28125 36.609375 11.9375 
Q 40.71875 16.609375 40.71875 26.5625 
Q 40.71875 36.078125 36.5 40.90625 
Q 32.28125 45.75 26.3125 45.75 
Q 20.453125 45.75 16.34375 40.984375 
Q 12.25 36.234375 12.25 26.859375 
" id="ArialMT-67"/>
      <path d="M 40.578125 0 
L 40.578125 7.625 
Q 34.515625 -1.171875 24.125 -1.171875 
Q 19.53125 -1.171875 15.546875 0.578125 
Q 11.578125 2.34375 9.640625 5 
Q 7.71875 7.671875 6.9375 11.53125 
Q 6.390625 14.109375 6.390625 19.734375 
L 6.390625 51.859375 
L 15.1875 51.859375 
L 15.1875 23.09375 
Q 15.1875 16.21875 15.71875 13.8125 
Q 16.546875 10.359375 19.234375 8.375 
Q 21.921875 6.390625 25.875 6.390625 
Q 29.828125 6.390625 33.296875 8.421875 
Q 36.765625 10.453125 38.203125 13.9375 
Q 39.65625 17.4375 39.65625 24.078125 
L 39.65625 51.859375 
L 48.4375 51.859375 
L 48.4375 0 
z
" id="ArialMT-75"/>
      <path d="M 23.390625 -21.046875 
Q 16.109375 -11.859375 11.078125 0.4375 
Q 6.0625 12.75 6.0625 25.921875 
Q 6.0625 37.546875 9.8125 48.1875 
Q 14.203125 60.546875 23.390625 72.796875 
L 29.6875 72.796875 
Q 23.78125 62.640625 21.875 58.296875 
Q 18.890625 51.5625 17.1875 44.234375 
Q 15.09375 35.109375 15.09375 25.875 
Q 15.09375 2.390625 29.6875 -21.046875 
z
" id="ArialMT-28"/>
      <path d="M 3.078125 15.484375 
L 11.765625 16.84375 
Q 12.5 11.625 15.84375 8.84375 
Q 19.1875 6.0625 25.203125 6.0625 
Q 31.25 6.0625 34.171875 8.515625 
Q 37.109375 10.984375 37.109375 14.3125 
Q 37.109375 17.28125 34.515625 19 
Q 32.71875 20.171875 25.53125 21.96875 
Q 15.875 24.421875 12.140625 26.203125 
Q 8.40625 27.984375 6.46875 31.125 
Q 4.546875 34.28125 4.546875 38.09375 
Q 4.546875 41.546875 6.125 44.5 
Q 7.71875 47.46875 10.453125 49.421875 
Q 12.5 50.921875 16.03125 51.96875 
Q 19.578125 53.03125 23.640625 53.03125 
Q 29.734375 53.03125 34.34375 51.265625 
Q 38.96875 49.515625 41.15625 46.5 
Q 43.359375 43.5 44.1875 38.484375 
L 35.59375 37.3125 
Q 35.015625 41.3125 32.203125 43.546875 
Q 29.390625 45.796875 24.265625 45.796875 
Q 18.21875 45.796875 15.625 43.796875 
Q 13.03125 41.796875 13.03125 39.109375 
Q 13.03125 37.40625 14.109375 36.03125 
Q 15.1875 34.625 17.484375 33.6875 
Q 18.796875 33.203125 25.25 31.453125 
Q 34.578125 28.953125 38.25 27.359375 
Q 41.9375 25.78125 44.03125 22.75 
Q 46.140625 19.734375 46.140625 15.234375 
Q 46.140625 10.84375 43.578125 6.953125 
Q 41.015625 3.078125 36.171875 0.953125 
Q 31.34375 -1.171875 25.25 -1.171875 
Q 15.140625 -1.171875 9.84375 3.03125 
Q 4.546875 7.234375 3.078125 15.484375 
" id="ArialMT-73"/>
      <path d="M 6.390625 0 
L 6.390625 71.578125 
L 15.1875 71.578125 
L 15.1875 0 
z
" id="ArialMT-6c"/>
      <path d="M 12.359375 -21.046875 
L 6.0625 -21.046875 
Q 20.65625 2.390625 20.65625 25.875 
Q 20.65625 35.0625 18.5625 44.09375 
Q 16.890625 51.421875 13.921875 58.15625 
Q 12.015625 62.546875 6.0625 72.796875 
L 12.359375 72.796875 
Q 21.53125 60.546875 25.921875 48.1875 
Q 29.6875 37.546875 29.6875 25.921875 
Q 29.6875 12.75 24.625 0.4375 
Q 19.578125 -11.859375 12.359375 -21.046875 
" id="ArialMT-29"/>
      <path d="M 6.59375 0 
L 6.59375 51.859375 
L 14.453125 51.859375 
L 14.453125 44.578125 
Q 16.890625 48.390625 20.9375 50.703125 
Q 25 53.03125 30.171875 53.03125 
Q 35.9375 53.03125 39.625 50.640625 
Q 43.3125 48.25 44.828125 43.953125 
Q 50.984375 53.03125 60.84375 53.03125 
Q 68.5625 53.03125 72.703125 48.75 
Q 76.859375 44.484375 76.859375 35.59375 
L 76.859375 0 
L 68.109375 0 
L 68.109375 32.671875 
Q 68.109375 37.9375 67.25 40.25 
Q 66.40625 42.578125 64.15625 43.984375 
Q 61.921875 45.40625 58.890625 45.40625 
Q 53.421875 45.40625 49.796875 41.765625 
Q 46.1875 38.140625 46.1875 30.125 
L 46.1875 0 
L 37.40625 0 
L 37.40625 33.6875 
Q 37.40625 39.546875 35.25 42.46875 
Q 33.109375 45.40625 28.21875 45.40625 
Q 24.515625 45.40625 21.359375 43.453125 
Q 18.21875 41.5 16.796875 37.734375 
Q 15.375 33.984375 15.375 26.90625 
L 15.375 0 
z
" id="ArialMT-6d"/>
      <path d="M 5.03125 -1.21875 
L 9.28125 19.578125 
L 1.03125 19.578125 
L 1.03125 26.859375 
L 10.75 26.859375 
L 14.359375 44.578125 
L 1.03125 44.578125 
L 1.03125 51.859375 
L 15.828125 51.859375 
L 20.0625 72.796875 
L 27.390625 72.796875 
L 23.140625 51.859375 
L 38.53125 51.859375 
L 42.78125 72.796875 
L 50.140625 72.796875 
L 45.90625 51.859375 
L 54.34375 51.859375 
L 54.34375 44.578125 
L 44.4375 44.578125 
L 40.765625 26.859375 
L 54.34375 26.859375 
L 54.34375 19.578125 
L 39.3125 19.578125 
L 35.0625 -1.21875 
L 27.734375 -1.21875 
L 31.9375 19.578125 
L 16.609375 19.578125 
L 12.359375 -1.21875 
z
M 18.0625 26.859375 
L 33.40625 26.859375 
L 37.0625 44.578125 
L 21.6875 44.578125 
z
" id="ArialMT-23"/>
     </defs>
     <g style="fill:#262626;" transform="translate(43.78484375 252.23875)rotate(-90.0)scale(0.11 -0.11)">
      <use xlink:href="#ArialMT-6c"/>
      <use x="22.216796875" xlink:href="#ArialMT-6f"/>
      <use x="77.83203125" xlink:href="#ArialMT-67"/>
      <use x="133.447265625" xlink:href="#ArialMT-31"/>
      <use x="189.0625" xlink:href="#ArialMT-30"/>
      <use x="244.677734375" xlink:href="#ArialMT-20"/>
      <use x="272.4609375" xlink:href="#ArialMT-61"/>
      <use x="328.076171875" xlink:href="#ArialMT-62"/>
      <use x="383.69140625" xlink:href="#ArialMT-75"/>
      <use x="439.306640625" xlink:href="#ArialMT-6e"/>
      <use x="494.921875" xlink:href="#ArialMT-64"/>
      <use x="550.537109375" xlink:href="#ArialMT-61"/>
      <use x="606.15234375" xlink:href="#ArialMT-6e"/>
      <use x="661.767578125" xlink:href="#ArialMT-63"/>
      <use x="711.767578125" xlink:href="#ArialMT-65"/>
      <use x="767.3828125" xlink:href="#ArialMT-20"/>
      <use x="795.166015625" xlink:href="#ArialMT-28"/>
      <use x="828.466796875" xlink:href="#ArialMT-23"/>
      <use x="884.08203125" xlink:href="#ArialMT-20"/>
      <use x="911.865234375" xlink:href="#ArialMT-6d"/>
      <use x="995.166015625" xlink:href="#ArialMT-6f"/>
      <use x="1050.78125" xlink:href="#ArialMT-6c"/>
      <use x="1072.99804688" xlink:href="#ArialMT-65"/>
      <use x="1128.61328125" xlink:href="#ArialMT-63"/>
      <use x="1178.61328125" xlink:href="#ArialMT-75"/>
      <use x="1234.22851562" xlink:href="#ArialMT-6c"/>
      <use x="1256.4453125" xlink:href="#ArialMT-65"/>
      <use x="1312.06054688" xlink:href="#ArialMT-73"/>
      <use x="1362.06054688" xlink:href="#ArialMT-29"/>
     </g>
    </g>
   </g>
   <g id="line2d_31">
    <path clip-path="url(#p32b9d2a416)" d="M 74.816404 41.266185 
L 75.098044 46.87622 
L 75.379685 51.714823 
L 75.942965 57.736468 
L 76.224606 59.815176 
L 76.506246 64.727559 
L 76.787886 65.151759 
L 77.069527 65.341846 
L 77.351167 66.552265 
L 77.914448 66.749615 
L 78.196088 67.549583 
L 78.477729 67.650792 
L 78.759369 69.949522 
L 79.60429 71.658221 
L 79.885931 73.626528 
L 80.167571 73.805273 
L 80.449211 75.019224 
L 81.012492 79.329741 
L 82.420694 83.966011 
L 82.983975 85.484884 
L 83.547256 85.73044 
L 84.673817 87.49595 
L 84.955457 88.016057 
L 85.518738 89.712401 
L 86.082019 89.987411 
L 87.20858 90.637068 
L 87.490221 90.730803 
L 88.053502 91.681287 
L 88.335142 91.681287 
L 88.616782 91.874314 
L 88.898423 92.361279 
L 89.180063 92.361279 
L 89.461703 92.954122 
L 90.024984 93.2541 
L 90.588265 95.106257 
L 90.869905 95.63743 
L 91.433186 95.744575 
L 92.278107 96.176246 
L 92.559748 96.612952 
L 93.404669 97.054811 
L 93.686309 97.277711 
L 94.24959 98.527958 
L 94.53123 98.643714 
L 95.094511 99.227924 
L 95.939432 99.582875 
L 96.502713 101.037314 
L 97.347634 101.786281 
L 97.629274 102.42207 
L 98.474196 102.808791 
L 99.037476 103.462334 
L 99.319117 103.594423 
L 100.164038 104.532324 
L 100.445678 104.941586 
L 100.727319 104.941586 
L 101.290599 107.20323 
L 101.85388 108.237337 
L 103.543722 110.079369 
L 104.107003 110.079369 
L 104.951924 110.874454 
L 105.233565 111.035517 
L 105.515205 111.035517 
L 105.796845 111.197276 
L 106.641767 112.01672 
L 106.923407 112.01672 
L 107.486688 112.854497 
L 107.768328 112.854497 
L 108.049968 113.194928 
L 108.613249 113.194928 
L 109.17653 113.885216 
L 109.739811 113.885216 
L 110.021451 114.588469 
L 110.303091 114.588469 
L 110.866372 114.94511 
L 111.148013 114.94511 
L 111.429653 115.124713 
L 111.711293 115.124713 
L 112.274574 115.486524 
L 112.837855 116.035879 
L 113.682776 116.593415 
L 114.246057 117.927549 
L 114.527697 118.12208 
L 114.809338 118.5142 
L 115.372618 118.910469 
L 115.654259 121.380403 
L 115.935899 121.593777 
L 116.49918 121.593777 
L 117.062461 122.459645 
L 117.344101 123.346008 
L 117.625741 123.570916 
L 117.907382 123.570916 
L 118.189022 124.253861 
L 118.470662 124.253861 
L 118.752303 124.716176 
L 119.315584 125.184271 
L 119.597224 126.380765 
L 119.878864 126.870277 
L 120.160505 126.870277 
L 120.442145 127.366272 
L 120.723785 128.894937 
L 121.287066 128.894937 
L 121.568707 129.155894 
L 121.850347 129.683326 
L 122.131987 129.949855 
L 122.413628 129.949855 
L 122.695268 130.488671 
L 122.976909 130.761015 
L 123.258549 130.761015 
L 123.540189 132.438031 
L 123.82183 132.438031 
L 124.10347 133.30557 
L 124.38511 133.599274 
L 124.666751 134.193685 
L 125.230032 134.797683 
L 125.511672 135.411584 
L 126.074953 136.035716 
L 126.356593 137.316083 
L 126.638233 137.643134 
L 127.201514 137.643134 
L 127.483155 138.305932 
L 128.046435 138.980673 
L 128.328076 138.980673 
L 128.609716 139.667795 
L 129.172997 141.442871 
L 129.454637 141.442871 
L 129.736278 141.808211 
L 130.017918 141.808211 
L 130.299558 142.549762 
L 130.581199 142.926118 
L 130.862839 142.926118 
L 131.144479 143.690371 
L 131.42612 144.078427 
L 131.70776 146.081423 
L 131.989401 146.913615 
L 132.271041 149.07879 
L 132.552681 149.07879 
L 132.834322 149.527263 
L 133.115962 150.440652 
L 133.397603 150.905839 
L 133.679243 151.853918 
L 133.960883 152.337113 
L 134.242524 153.322619 
L 134.805804 155.906202 
L 135.369085 158.109608 
L 135.650726 158.109608 
L 135.932366 158.68133 
L 136.214006 158.68133 
L 137.340568 161.059722 
L 137.622208 162.308075 
L 137.903849 164.262279 
L 138.185489 164.93702 
L 138.467129 164.93702 
L 138.74877 166.324108 
L 139.03041 166.324108 
L 139.31205 167.037407 
L 139.593691 167.037407 
L 140.156972 173.293097 
L 140.438612 174.153988 
L 140.720252 176.862187 
L 141.001893 177.810265 
L 141.283533 182.948048 
L 141.565174 182.948048 
L 141.846814 184.065955 
L 142.691735 184.065955 
L 143.255016 186.40716 
L 143.536656 186.40716 
L 144.099937 188.904559 
L 144.381577 191.580489 
L 144.663218 192.993755 
L 144.944858 192.993755 
L 146.07142 199.249445 
L 146.916341 199.249445 
L 147.197981 200.991484 
L 147.761262 200.991484 
L 148.042902 202.818534 
L 149.169464 202.818534 
L 149.451104 204.739319 
L 150.296025 204.739319 
L 150.577666 206.763979 
L 151.985868 206.763979 
L 152.267508 208.904395 
L 153.112429 208.904395 
L 153.394069 211.174611 
L 156.210473 211.174611 
L 156.492114 213.591391 
L 158.745237 213.591391 
L 159.026877 216.174974 
L 161.56164 216.174974 
L 161.843281 218.950102 
L 164.659685 218.950102 
L 164.941325 221.947469 
L 169.165931 221.947469 
L 169.447571 225.205792 
L 175.643659 225.205792 
L 175.9253 228.774881 
L 188.317476 228.774881 
L 188.599117 232.720326 
L 197.893249 232.720326 
L 198.17489 237.130958 
L 208.877224 237.130958 
L 209.158864 242.131321 
L 224.930726 242.131321 
L 225.212366 247.903816 
L 242.110789 247.903816 
L 242.392429 254.731228 
L 268.021703 254.731228 
L 268.303344 263.087306 
L 306.043155 263.087306 
L 306.324795 273.860163 
L 348.289211 273.860163 
L 348.570852 289.043653 
L 402.082524 289.043653 
L 402.364164 315 
L 518.11836 315 
L 518.11836 315 
" style="fill:none;stroke:#ff0000;stroke-linecap:round;stroke-width:3.0;"/>
   </g>
   <g id="line2d_32">
    <path clip-path="url(#p32b9d2a416)" d="M 74.816404 112.059314 
L 77.632808 110.218783 
L 80.167571 108.812053 
L 82.702334 107.642503 
L 85.237098 106.711326 
L 87.771861 106.020507 
L 90.306625 105.572994 
L 92.841388 105.372882 
L 95.094511 105.407066 
L 97.347634 105.645883 
L 99.600757 106.095373 
L 101.85388 106.762949 
L 104.107003 107.657661 
L 106.360126 108.790531 
L 108.613249 110.174991 
L 110.866372 111.827469 
L 113.119495 113.768165 
L 115.372618 116.022135 
L 117.625741 118.620799 
L 119.878864 121.60412 
L 121.850347 124.570362 
L 123.82183 127.915362 
L 125.793312 131.697642 
L 127.764795 135.995425 
L 129.454637 140.170173 
L 131.144479 144.896306 
L 132.834322 150.306502 
L 134.242524 155.475897 
L 135.650726 161.422705 
L 137.058927 168.40429 
L 138.185489 175.009673 
L 139.31205 182.902465 
L 140.438612 192.717046 
L 141.283533 202.062282 
L 142.128454 214.301135 
L 142.691735 225.26818 
L 143.255016 240.598266 
L 143.536656 251.391673 
L 143.818297 266.486558 
L 144.099937 291.917047 
L 144.254888 361 
M 144.536802 361 
L 144.663218 315 
L 201.836215 315 
L 202.117855 315.953256 
L 202.399495 288.537884 
L 202.962776 261.986978 
L 203.526057 246.717171 
L 204.370978 231.628432 
L 205.215899 221.055545 
L 206.06082 212.955863 
L 207.187382 204.50695 
L 208.313943 197.812793 
L 209.440505 192.319744 
L 210.848707 186.664239 
L 212.256909 182.007148 
L 213.66511 178.11211 
L 215.073312 174.823357 
L 216.481514 172.032991 
L 217.889716 169.663367 
L 219.297918 167.656945 
L 220.70612 165.970085 
L 222.114322 164.569101 
L 223.522524 163.427646 
L 224.930726 162.524936 
L 226.338927 161.844499 
L 227.747129 161.373299 
L 229.155331 161.101096 
L 230.563533 161.019981 
L 232.253375 161.166684 
L 233.943218 161.573236 
L 235.63306 162.236001 
L 237.322902 163.154397 
L 239.012744 164.330842 
L 240.702587 165.770846 
L 242.392429 167.48327 
L 244.082271 169.480774 
L 245.772114 171.780504 
L 247.743596 174.876093 
L 249.715079 178.462487 
L 251.404921 181.976875 
L 253.094763 185.956899 
L 254.784606 190.479347 
L 256.474448 195.651085 
L 258.16429 201.626288 
L 259.572492 207.384188 
L 260.980694 214.066346 
L 262.388896 221.999645 
L 263.515457 229.611963 
L 264.642019 238.884159 
L 265.48694 247.477199 
L 266.331861 258.315215 
L 267.176782 273.100958 
L 267.740063 287.245531 
L 268.303344 309.565195 
L 268.584984 328.725192 
L 268.809892 361 
M 268.908975 361 
L 269.148265 315 
L 317.87205 315 
L 317.979352 361 
M 318.717565 361 
L 318.998612 348.02624 
L 319.280252 338.630485 
L 319.843533 325.382156 
L 320.406814 316.154138 
L 321.251735 306.338512 
L 322.096656 299.385335 
L 322.941577 294.256253 
L 323.786498 290.4236 
L 324.63142 287.587804 
L 325.476341 285.568186 
L 326.321262 284.253854 
L 326.884543 283.735787 
L 327.447823 283.490755 
L 328.011104 283.513723 
L 328.574385 283.805024 
L 329.137666 284.370384 
L 329.700946 285.221334 
L 330.264227 286.376054 
L 331.109148 288.737925 
L 331.954069 291.980963 
L 332.798991 296.32744 
L 333.643912 302.153454 
L 334.488833 310.148002 
L 335.052114 317.336332 
L 335.615394 326.964454 
L 336.178675 340.980501 
L 336.653437 361 
M 337.519079 361 
L 337.586877 315 
L 389.690347 315 
L 389.890538 361 
M 390.08924 361 
L 390.253628 334.76114 
L 390.816909 301.720864 
L 391.380189 284.213058 
L 392.22511 267.294619 
L 393.070032 255.470646 
L 393.914953 246.345735 
L 395.041514 236.695704 
L 396.168076 228.900404 
L 397.576278 220.881673 
L 398.984479 214.20215 
L 400.392681 208.496654 
L 402.082524 202.621495 
L 403.772366 197.571325 
L 405.462208 193.179498 
L 407.15205 189.330806 
L 409.123533 185.417677 
L 411.095016 182.035511 
L 413.066498 179.113776 
L 415.037981 176.599248 
L 417.009464 174.450789 
L 418.980946 172.635921 
L 420.952429 171.128505 
L 422.923912 169.907097 
L 424.895394 168.953734 
L 426.866877 168.253001 
L 428.83836 167.79128 
L 430.809842 167.556098 
L 432.781325 167.535536 
L 434.752808 167.71765 
L 437.005931 168.157788 
L 439.259054 168.825353 
L 441.793817 169.817671 
L 444.610221 171.169336 
L 448.271546 173.195525 
L 454.749274 176.823836 
L 457.002397 177.830641 
L 458.97388 178.485998 
L 460.663722 178.829592 
L 462.353565 178.932205 
L 463.761767 178.810049 
L 465.169968 178.483061 
L 466.57817 177.940917 
L 467.986372 177.178459 
L 469.676215 175.973536 
L 471.366057 174.462917 
L 473.055899 172.667485 
L 475.027382 170.251875 
L 477.280505 167.136467 
L 480.096909 162.842464 
L 484.321514 155.919195 
L 492.770726 141.967017 
L 496.713691 135.921304 
L 500.375016 130.72585 
L 503.7547 126.330543 
L 506.852744 122.657391 
L 509.950789 119.332948 
L 512.767192 116.616365 
L 515.583596 114.1918 
L 518.11836 112.259423 
L 518.11836 112.259423 
" style="fill:none;opacity:0.8;stroke:#4c72b0;stroke-linecap:round;stroke-width:2.0;"/>
   </g>
   <g id="line2d_33">
    <path clip-path="url(#p32b9d2a416)" d="M 131.42612 315 
L 131.42612 36 
" style="fill:none;stroke:#008000;stroke-linecap:round;stroke-width:2.0;"/>
   </g>
   <g id="patch_3">
    <path d="M 72 36 
L 518.4 36 
" style="fill:none;stroke:#262626;stroke-linecap:square;stroke-linejoin:miter;stroke-width:1.25;"/>
   </g>
   <g id="patch_4">
    <path d="M 518.4 315 
L 518.4 36 
" style="fill:none;stroke:#262626;stroke-linecap:square;stroke-linejoin:miter;stroke-width:1.25;"/>
   </g>
   <g id="patch_5">
    <path d="M 72 315 
L 518.4 315 
" style="fill:none;stroke:#262626;stroke-linecap:square;stroke-linejoin:miter;stroke-width:1.25;"/>
   </g>
   <g id="patch_6">
    <path d="M 72 315 
L 72 36 
" style="fill:none;stroke:#262626;stroke-linecap:square;stroke-linejoin:miter;stroke-width:1.25;"/>
   </g>
   <g id="text_18">
    <!-- B6 14wk naive Lung 2: 201 barcodes -->
    <defs>
     <path d="M 16.15625 0 
L 0.296875 51.859375 
L 9.375 51.859375 
L 17.625 21.921875 
L 20.703125 10.796875 
Q 20.90625 11.625 23.390625 21.484375 
L 31.640625 51.859375 
L 40.671875 51.859375 
L 48.4375 21.78125 
L 51.03125 11.859375 
L 54 21.875 
L 62.890625 51.859375 
L 71.4375 51.859375 
L 55.21875 0 
L 46.09375 0 
L 37.84375 31.0625 
L 35.84375 39.890625 
L 25.34375 0 
z
" id="ArialMT-77"/>
     <path d="M 9.03125 41.84375 
L 9.03125 51.859375 
L 19.046875 51.859375 
L 19.046875 41.84375 
z
M 9.03125 0 
L 9.03125 10.015625 
L 19.046875 10.015625 
L 19.046875 0 
z
" id="ArialMT-3a"/>
     <path d="M 6.640625 61.46875 
L 6.640625 71.578125 
L 15.4375 71.578125 
L 15.4375 61.46875 
z
M 6.640625 0 
L 6.640625 51.859375 
L 15.4375 51.859375 
L 15.4375 0 
z
" id="ArialMT-69"/>
     <path d="M 7.328125 0 
L 7.328125 71.578125 
L 34.1875 71.578125 
Q 42.390625 71.578125 47.34375 69.40625 
Q 52.296875 67.234375 55.09375 62.71875 
Q 57.90625 58.203125 57.90625 53.265625 
Q 57.90625 48.6875 55.421875 44.625 
Q 52.9375 40.578125 47.90625 38.09375 
Q 54.390625 36.1875 57.875 31.59375 
Q 61.375 27 61.375 20.75 
Q 61.375 15.71875 59.25 11.390625 
Q 57.125 7.078125 54 4.734375 
Q 50.875 2.390625 46.15625 1.1875 
Q 41.453125 0 34.625 0 
z
M 16.796875 41.5 
L 32.28125 41.5 
Q 38.578125 41.5 41.3125 42.328125 
Q 44.921875 43.40625 46.75 45.890625 
Q 48.578125 48.390625 48.578125 52.15625 
Q 48.578125 55.71875 46.875 58.421875 
Q 45.171875 61.140625 41.984375 62.140625 
Q 38.8125 63.140625 31.109375 63.140625 
L 16.796875 63.140625 
z
M 16.796875 8.453125 
L 34.625 8.453125 
Q 39.203125 8.453125 41.0625 8.796875 
Q 44.34375 9.375 46.53125 10.734375 
Q 48.734375 12.109375 50.140625 14.71875 
Q 51.5625 17.328125 51.5625 20.75 
Q 51.5625 24.75 49.515625 27.703125 
Q 47.46875 30.671875 43.828125 31.859375 
Q 40.1875 33.0625 33.34375 33.0625 
L 16.796875 33.0625 
z
" id="ArialMT-42"/>
     <path d="M 7.328125 0 
L 7.328125 71.578125 
L 16.796875 71.578125 
L 16.796875 8.453125 
L 52.046875 8.453125 
L 52.046875 0 
z
" id="ArialMT-4c"/>
     <path d="M 21 0 
L 1.265625 51.859375 
L 10.546875 51.859375 
L 21.6875 20.796875 
Q 23.484375 15.765625 25 10.359375 
Q 26.171875 14.453125 28.265625 20.21875 
L 39.796875 51.859375 
L 48.828125 51.859375 
L 29.203125 0 
z
" id="ArialMT-76"/>
    </defs>
    <g style="fill:#262626;" transform="translate(196.4709375 31.0)scale(0.12 -0.12)">
     <use xlink:href="#ArialMT-42"/>
     <use x="66.69921875" xlink:href="#ArialMT-36"/>
     <use x="122.314453125" xlink:href="#ArialMT-20"/>
     <use x="150.09765625" xlink:href="#ArialMT-31"/>
     <use x="205.712890625" xlink:href="#ArialMT-34"/>
     <use x="261.328125" xlink:href="#ArialMT-77"/>
     <use x="333.544921875" xlink:href="#ArialMT-6b"/>
     <use x="383.544921875" xlink:href="#ArialMT-20"/>
     <use x="411.328125" xlink:href="#ArialMT-6e"/>
     <use x="466.943359375" xlink:href="#ArialMT-61"/>
     <use x="522.55859375" xlink:href="#ArialMT-69"/>
     <use x="544.775390625" xlink:href="#ArialMT-76"/>
     <use x="594.775390625" xlink:href="#ArialMT-65"/>
     <use x="650.390625" xlink:href="#ArialMT-20"/>
     <use x="678.173828125" xlink:href="#ArialMT-4c"/>
     <use x="733.7890625" xlink:href="#ArialMT-75"/>
     <use x="789.404296875" xlink:href="#ArialMT-6e"/>
     <use x="845.01953125" xlink:href="#ArialMT-67"/>
     <use x="900.634765625" xlink:href="#ArialMT-20"/>
     <use x="928.41796875" xlink:href="#ArialMT-32"/>
     <use x="984.033203125" xlink:href="#ArialMT-3a"/>
     <use x="1011.81640625" xlink:href="#ArialMT-20"/>
     <use x="1039.59960938" xlink:href="#ArialMT-32"/>
     <use x="1095.21484375" xlink:href="#ArialMT-30"/>
     <use x="1150.83007812" xlink:href="#ArialMT-31"/>
     <use x="1206.4453125" xlink:href="#ArialMT-20"/>
     <use x="1234.22851562" xlink:href="#ArialMT-62"/>
     <use x="1289.84375" xlink:href="#ArialMT-61"/>
     <use x="1345.45898438" xlink:href="#ArialMT-72"/>
     <use x="1378.75976562" xlink:href="#ArialMT-63"/>
     <use x="1428.75976562" xlink:href="#ArialMT-6f"/>
     <use x="1484.375" xlink:href="#ArialMT-64"/>
     <use x="1539.99023438" xlink:href="#ArialMT-65"/>
     <use x="1595.60546875" xlink:href="#ArialMT-73"/>
    </g>
   </g>
   <g id="legend_1">
    <g id="line2d_34">
     <path d="M 374.114062 48.657813 
L 394.114062 48.657813 
" style="fill:none;stroke:#ff0000;stroke-linecap:round;stroke-width:3.0;"/>
    </g>
    <g id="line2d_35"/>
    <g id="text_19">
     <!-- raw values -->
     <g style="fill:#262626;" transform="translate(402.1140625 52.1578125)scale(0.1 -0.1)">
      <use xlink:href="#ArialMT-72"/>
      <use x="33.30078125" xlink:href="#ArialMT-61"/>
      <use x="88.916015625" xlink:href="#ArialMT-77"/>
      <use x="161.1328125" xlink:href="#ArialMT-20"/>
      <use x="188.916015625" xlink:href="#ArialMT-76"/>
      <use x="238.916015625" xlink:href="#ArialMT-61"/>
      <use x="294.53125" xlink:href="#ArialMT-6c"/>
      <use x="316.748046875" xlink:href="#ArialMT-75"/>
      <use x="372.36328125" xlink:href="#ArialMT-65"/>
      <use x="427.978515625" xlink:href="#ArialMT-73"/>
     </g>
    </g>
    <g id="line2d_36">
     <path d="M 374.114062 62.803125 
L 394.114062 62.803125 
" style="fill:none;opacity:0.8;stroke:#4c72b0;stroke-linecap:round;stroke-width:2.0;"/>
    </g>
    <g id="line2d_37"/>
    <g id="text_20">
     <!-- inversed FFT -->
     <defs>
      <path d="M 25.921875 0 
L 25.921875 63.140625 
L 2.34375 63.140625 
L 2.34375 71.578125 
L 59.078125 71.578125 
L 59.078125 63.140625 
L 35.40625 63.140625 
L 35.40625 0 
z
" id="ArialMT-54"/>
      <path d="M 8.203125 0 
L 8.203125 71.578125 
L 56.5 71.578125 
L 56.5 63.140625 
L 17.671875 63.140625 
L 17.671875 40.96875 
L 51.265625 40.96875 
L 51.265625 32.515625 
L 17.671875 32.515625 
L 17.671875 0 
z
" id="ArialMT-46"/>
     </defs>
     <g style="fill:#262626;" transform="translate(402.1140625 66.303125)scale(0.1 -0.1)">
      <use xlink:href="#ArialMT-69"/>
      <use x="22.216796875" xlink:href="#ArialMT-6e"/>
      <use x="77.83203125" xlink:href="#ArialMT-76"/>
      <use x="127.83203125" xlink:href="#ArialMT-65"/>
      <use x="183.447265625" xlink:href="#ArialMT-72"/>
      <use x="216.748046875" xlink:href="#ArialMT-73"/>
      <use x="266.748046875" xlink:href="#ArialMT-65"/>
      <use x="322.36328125" xlink:href="#ArialMT-64"/>
      <use x="377.978515625" xlink:href="#ArialMT-20"/>
      <use x="405.76171875" xlink:href="#ArialMT-46"/>
      <use x="466.845703125" xlink:href="#ArialMT-46"/>
      <use x="527.9296875" xlink:href="#ArialMT-54"/>
     </g>
    </g>
    <g id="line2d_38">
     <path d="M 374.114062 76.948438 
L 394.114062 76.948438 
" style="fill:none;stroke:#008000;stroke-linecap:round;stroke-width:2.0;"/>
    </g>
    <g id="line2d_39"/>
    <g id="text_21">
     <!-- threshold: 201 barcodes -->
     <defs>
      <path d="M 25.78125 7.859375 
L 27.046875 0.09375 
Q 23.34375 -0.6875 20.40625 -0.6875 
Q 15.625 -0.6875 12.984375 0.828125 
Q 10.359375 2.34375 9.28125 4.8125 
Q 8.203125 7.28125 8.203125 15.1875 
L 8.203125 45.015625 
L 1.765625 45.015625 
L 1.765625 51.859375 
L 8.203125 51.859375 
L 8.203125 64.703125 
L 16.9375 69.96875 
L 16.9375 51.859375 
L 25.78125 51.859375 
L 25.78125 45.015625 
L 16.9375 45.015625 
L 16.9375 14.703125 
Q 16.9375 10.9375 17.40625 9.859375 
Q 17.875 8.796875 18.921875 8.15625 
Q 19.96875 7.515625 21.921875 7.515625 
Q 23.390625 7.515625 25.78125 7.859375 
" id="ArialMT-74"/>
      <path d="M 6.59375 0 
L 6.59375 71.578125 
L 15.375 71.578125 
L 15.375 45.90625 
Q 21.53125 53.03125 30.90625 53.03125 
Q 36.671875 53.03125 40.921875 50.75 
Q 45.171875 48.484375 47 44.484375 
Q 48.828125 40.484375 48.828125 32.859375 
L 48.828125 0 
L 40.046875 0 
L 40.046875 32.859375 
Q 40.046875 39.453125 37.1875 42.453125 
Q 34.328125 45.453125 29.109375 45.453125 
Q 25.203125 45.453125 21.75 43.421875 
Q 18.3125 41.40625 16.84375 37.9375 
Q 15.375 34.46875 15.375 28.375 
L 15.375 0 
z
" id="ArialMT-68"/>
     </defs>
     <g style="fill:#262626;" transform="translate(402.1140625 80.4484375)scale(0.1 -0.1)">
      <use xlink:href="#ArialMT-74"/>
      <use x="27.783203125" xlink:href="#ArialMT-68"/>
      <use x="83.3984375" xlink:href="#ArialMT-72"/>
      <use x="116.69921875" xlink:href="#ArialMT-65"/>
      <use x="172.314453125" xlink:href="#ArialMT-73"/>
      <use x="222.314453125" xlink:href="#ArialMT-68"/>
      <use x="277.9296875" xlink:href="#ArialMT-6f"/>
      <use x="333.544921875" xlink:href="#ArialMT-6c"/>
      <use x="355.76171875" xlink:href="#ArialMT-64"/>
      <use x="411.376953125" xlink:href="#ArialMT-3a"/>
      <use x="439.16015625" xlink:href="#ArialMT-20"/>
      <use x="466.943359375" xlink:href="#ArialMT-32"/>
      <use x="522.55859375" xlink:href="#ArialMT-30"/>
      <use x="578.173828125" xlink:href="#ArialMT-31"/>
      <use x="633.7890625" xlink:href="#ArialMT-20"/>
      <use x="661.572265625" xlink:href="#ArialMT-62"/>
      <use x="717.1875" xlink:href="#ArialMT-61"/>
      <use x="772.802734375" xlink:href="#ArialMT-72"/>
      <use x="806.103515625" xlink:href="#ArialMT-63"/>
      <use x="856.103515625" xlink:href="#ArialMT-6f"/>
      <use x="911.71875" xlink:href="#ArialMT-64"/>
      <use x="967.333984375" xlink:href="#ArialMT-65"/>
      <use x="1022.94921875" xlink:href="#ArialMT-73"/>
     </g>
    </g>
   </g>
  </g>
 </g>
 <defs>
  <clipPath id="p32b9d2a416">
   <rect height="279.0" width="446.4" x="72.0" y="36.0"/>
  </clipPath>
 </defs>
</svg>
