<?xml version="1.0" encoding="utf-8" standalone="no"?>
<!DOCTYPE svg PUBLIC "-//W3C//DTD SVG 1.1//EN"
  "http://www.w3.org/Graphics/SVG/1.1/DTD/svg11.dtd">
<!-- Created with matplotlib (http://matplotlib.org/) -->
<svg height="360pt" version="1.1" viewBox="0 0 576 360" width="576pt" xmlns="http://www.w3.org/2000/svg" xmlns:xlink="http://www.w3.org/1999/xlink">
 <defs>
  <style type="text/css">
*{stroke-linecap:butt;stroke-linejoin:round;stroke-miterlimit:100000;}
  </style>
 </defs>
 <g id="figure_1">
  <g id="patch_1">
   <path d="M 0 360 
L 576 360 
L 576 0 
L 0 0 
z
" style="fill:#ffffff;"/>
  </g>
  <g id="axes_1">
   <g id="patch_2">
    <path d="M 72 315 
L 518.4 315 
L 518.4 36 
L 72 36 
z
" style="fill:#ffffff;"/>
   </g>
   <g id="matplotlib.axis_1">
    <g id="xtick_1">
     <g id="line2d_1">
      <defs>
       <path d="M 0 0 
L 0 0 
" id="me85eacae1e" style="stroke:#262626;"/>
      </defs>
      <g>
       <use style="fill:#262626;stroke:#262626;" x="75.4604651163" xlink:href="#me85eacae1e" y="315.0"/>
      </g>
     </g>
     <g id="line2d_2">
      <g>
       <use style="fill:#262626;stroke:#262626;" x="75.4604651163" xlink:href="#me85eacae1e" y="36.0"/>
      </g>
     </g>
     <g id="text_1">
      <!-- 0 -->
      <defs>
       <path d="M 4.15625 35.296875 
Q 4.15625 48 6.765625 55.734375 
Q 9.375 63.484375 14.515625 67.671875 
Q 19.671875 71.875 27.484375 71.875 
Q 33.25 71.875 37.59375 69.546875 
Q 41.9375 67.234375 44.765625 62.859375 
Q 47.609375 58.5 49.21875 52.21875 
Q 50.828125 45.953125 50.828125 35.296875 
Q 50.828125 22.703125 48.234375 14.96875 
Q 45.65625 7.234375 40.5 3 
Q 35.359375 -1.21875 27.484375 -1.21875 
Q 17.140625 -1.21875 11.234375 6.203125 
Q 4.15625 15.140625 4.15625 35.296875 
M 13.1875 35.296875 
Q 13.1875 17.671875 17.3125 11.828125 
Q 21.4375 6 27.484375 6 
Q 33.546875 6 37.671875 11.859375 
Q 41.796875 17.71875 41.796875 35.296875 
Q 41.796875 52.984375 37.671875 58.78125 
Q 33.546875 64.59375 27.390625 64.59375 
Q 21.34375 64.59375 17.71875 59.46875 
Q 13.1875 52.9375 13.1875 35.296875 
" id="ArialMT-30"/>
      </defs>
      <g style="fill:#262626;" transform="translate(72.6799963663 329.1578125)scale(0.1 -0.1)">
       <use xlink:href="#ArialMT-30"/>
      </g>
     </g>
    </g>
    <g id="xtick_2">
     <g id="line2d_3">
      <g>
       <use style="fill:#262626;stroke:#262626;" x="144.669767442" xlink:href="#me85eacae1e" y="315.0"/>
      </g>
     </g>
     <g id="line2d_4">
      <g>
       <use style="fill:#262626;stroke:#262626;" x="144.669767442" xlink:href="#me85eacae1e" y="36.0"/>
      </g>
     </g>
     <g id="text_2">
      <!-- 200 -->
      <defs>
       <path d="M 50.34375 8.453125 
L 50.34375 0 
L 3.03125 0 
Q 2.9375 3.171875 4.046875 6.109375 
Q 5.859375 10.9375 9.828125 15.625 
Q 13.8125 20.3125 21.34375 26.46875 
Q 33.015625 36.03125 37.109375 41.625 
Q 41.21875 47.21875 41.21875 52.203125 
Q 41.21875 57.421875 37.46875 61 
Q 33.734375 64.59375 27.734375 64.59375 
Q 21.390625 64.59375 17.578125 60.78125 
Q 13.765625 56.984375 13.71875 50.25 
L 4.6875 51.171875 
Q 5.609375 61.28125 11.65625 66.578125 
Q 17.71875 71.875 27.9375 71.875 
Q 38.234375 71.875 44.234375 66.15625 
Q 50.25 60.453125 50.25 52 
Q 50.25 47.703125 48.484375 43.546875 
Q 46.734375 39.40625 42.65625 34.8125 
Q 38.578125 30.21875 29.109375 22.21875 
Q 21.1875 15.578125 18.9375 13.203125 
Q 16.703125 10.84375 15.234375 8.453125 
z
" id="ArialMT-32"/>
      </defs>
      <g style="fill:#262626;" transform="translate(136.328361192 329.1578125)scale(0.1 -0.1)">
       <use xlink:href="#ArialMT-32"/>
       <use x="55.615234375" xlink:href="#ArialMT-30"/>
       <use x="111.23046875" xlink:href="#ArialMT-30"/>
      </g>
     </g>
    </g>
    <g id="xtick_3">
     <g id="line2d_5">
      <g>
       <use style="fill:#262626;stroke:#262626;" x="213.879069767" xlink:href="#me85eacae1e" y="315.0"/>
      </g>
     </g>
     <g id="line2d_6">
      <g>
       <use style="fill:#262626;stroke:#262626;" x="213.879069767" xlink:href="#me85eacae1e" y="36.0"/>
      </g>
     </g>
     <g id="text_3">
      <!-- 400 -->
      <defs>
       <path d="M 32.328125 0 
L 32.328125 17.140625 
L 1.265625 17.140625 
L 1.265625 25.203125 
L 33.9375 71.578125 
L 41.109375 71.578125 
L 41.109375 25.203125 
L 50.78125 25.203125 
L 50.78125 17.140625 
L 41.109375 17.140625 
L 41.109375 0 
z
M 32.328125 25.203125 
L 32.328125 57.46875 
L 9.90625 25.203125 
z
" id="ArialMT-34"/>
      </defs>
      <g style="fill:#262626;" transform="translate(205.537663517 329.1578125)scale(0.1 -0.1)">
       <use xlink:href="#ArialMT-34"/>
       <use x="55.615234375" xlink:href="#ArialMT-30"/>
       <use x="111.23046875" xlink:href="#ArialMT-30"/>
      </g>
     </g>
    </g>
    <g id="xtick_4">
     <g id="line2d_7">
      <g>
       <use style="fill:#262626;stroke:#262626;" x="283.088372093" xlink:href="#me85eacae1e" y="315.0"/>
      </g>
     </g>
     <g id="line2d_8">
      <g>
       <use style="fill:#262626;stroke:#262626;" x="283.088372093" xlink:href="#me85eacae1e" y="36.0"/>
      </g>
     </g>
     <g id="text_4">
      <!-- 600 -->
      <defs>
       <path d="M 49.75 54.046875 
L 41.015625 53.375 
Q 39.84375 58.546875 37.703125 60.890625 
Q 34.125 64.65625 28.90625 64.65625 
Q 24.703125 64.65625 21.53125 62.3125 
Q 17.390625 59.28125 14.984375 53.46875 
Q 12.59375 47.65625 12.5 36.921875 
Q 15.671875 41.75 20.265625 44.09375 
Q 24.859375 46.4375 29.890625 46.4375 
Q 38.671875 46.4375 44.84375 39.96875 
Q 51.03125 33.5 51.03125 23.25 
Q 51.03125 16.5 48.125 10.71875 
Q 45.21875 4.9375 40.140625 1.859375 
Q 35.0625 -1.21875 28.609375 -1.21875 
Q 17.625 -1.21875 10.6875 6.859375 
Q 3.765625 14.9375 3.765625 33.5 
Q 3.765625 54.25 11.421875 63.671875 
Q 18.109375 71.875 29.4375 71.875 
Q 37.890625 71.875 43.28125 67.140625 
Q 48.6875 62.40625 49.75 54.046875 
M 13.875 23.1875 
Q 13.875 18.65625 15.796875 14.5 
Q 17.71875 10.359375 21.1875 8.171875 
Q 24.65625 6 28.46875 6 
Q 34.03125 6 38.03125 10.484375 
Q 42.046875 14.984375 42.046875 22.703125 
Q 42.046875 30.125 38.078125 34.390625 
Q 34.125 38.671875 28.125 38.671875 
Q 22.171875 38.671875 18.015625 34.390625 
Q 13.875 30.125 13.875 23.1875 
" id="ArialMT-36"/>
      </defs>
      <g style="fill:#262626;" transform="translate(274.746965843 329.1578125)scale(0.1 -0.1)">
       <use xlink:href="#ArialMT-36"/>
       <use x="55.615234375" xlink:href="#ArialMT-30"/>
       <use x="111.23046875" xlink:href="#ArialMT-30"/>
      </g>
     </g>
    </g>
    <g id="xtick_5">
     <g id="line2d_9">
      <g>
       <use style="fill:#262626;stroke:#262626;" x="352.297674419" xlink:href="#me85eacae1e" y="315.0"/>
      </g>
     </g>
     <g id="line2d_10">
      <g>
       <use style="fill:#262626;stroke:#262626;" x="352.297674419" xlink:href="#me85eacae1e" y="36.0"/>
      </g>
     </g>
     <g id="text_5">
      <!-- 800 -->
      <defs>
       <path d="M 17.671875 38.8125 
Q 12.203125 40.828125 9.5625 44.53125 
Q 6.9375 48.25 6.9375 53.421875 
Q 6.9375 61.234375 12.546875 66.546875 
Q 18.171875 71.875 27.484375 71.875 
Q 36.859375 71.875 42.578125 66.421875 
Q 48.296875 60.984375 48.296875 53.171875 
Q 48.296875 48.1875 45.671875 44.5 
Q 43.0625 40.828125 37.75 38.8125 
Q 44.34375 36.671875 47.78125 31.875 
Q 51.21875 27.09375 51.21875 20.453125 
Q 51.21875 11.28125 44.71875 5.03125 
Q 38.234375 -1.21875 27.640625 -1.21875 
Q 17.046875 -1.21875 10.546875 5.046875 
Q 4.046875 11.328125 4.046875 20.703125 
Q 4.046875 27.6875 7.59375 32.390625 
Q 11.140625 37.109375 17.671875 38.8125 
M 15.921875 53.71875 
Q 15.921875 48.640625 19.1875 45.40625 
Q 22.46875 42.1875 27.6875 42.1875 
Q 32.765625 42.1875 36.015625 45.375 
Q 39.265625 48.578125 39.265625 53.21875 
Q 39.265625 58.0625 35.90625 61.359375 
Q 32.5625 64.65625 27.59375 64.65625 
Q 22.5625 64.65625 19.234375 61.421875 
Q 15.921875 58.203125 15.921875 53.71875 
M 13.09375 20.65625 
Q 13.09375 16.890625 14.875 13.375 
Q 16.65625 9.859375 20.171875 7.921875 
Q 23.6875 6 27.734375 6 
Q 34.03125 6 38.125 10.046875 
Q 42.234375 14.109375 42.234375 20.359375 
Q 42.234375 26.703125 38.015625 30.859375 
Q 33.796875 35.015625 27.4375 35.015625 
Q 21.234375 35.015625 17.15625 30.90625 
Q 13.09375 26.8125 13.09375 20.65625 
" id="ArialMT-38"/>
      </defs>
      <g style="fill:#262626;" transform="translate(343.956268169 329.1578125)scale(0.1 -0.1)">
       <use xlink:href="#ArialMT-38"/>
       <use x="55.615234375" xlink:href="#ArialMT-30"/>
       <use x="111.23046875" xlink:href="#ArialMT-30"/>
      </g>
     </g>
    </g>
    <g id="xtick_6">
     <g id="line2d_11">
      <g>
       <use style="fill:#262626;stroke:#262626;" x="421.506976744" xlink:href="#me85eacae1e" y="315.0"/>
      </g>
     </g>
     <g id="line2d_12">
      <g>
       <use style="fill:#262626;stroke:#262626;" x="421.506976744" xlink:href="#me85eacae1e" y="36.0"/>
      </g>
     </g>
     <g id="text_6">
      <!-- 1000 -->
      <defs>
       <path d="M 37.25 0 
L 28.46875 0 
L 28.46875 56 
Q 25.296875 52.984375 20.140625 49.953125 
Q 14.984375 46.921875 10.890625 45.40625 
L 10.890625 53.90625 
Q 18.265625 57.375 23.78125 62.296875 
Q 29.296875 67.234375 31.59375 71.875 
L 37.25 71.875 
z
" id="ArialMT-31"/>
      </defs>
      <g style="fill:#262626;" transform="translate(410.385101744 329.1578125)scale(0.1 -0.1)">
       <use xlink:href="#ArialMT-31"/>
       <use x="55.615234375" xlink:href="#ArialMT-30"/>
       <use x="111.23046875" xlink:href="#ArialMT-30"/>
       <use x="166.845703125" xlink:href="#ArialMT-30"/>
      </g>
     </g>
    </g>
    <g id="xtick_7">
     <g id="line2d_13">
      <g>
       <use style="fill:#262626;stroke:#262626;" x="490.71627907" xlink:href="#me85eacae1e" y="315.0"/>
      </g>
     </g>
     <g id="line2d_14">
      <g>
       <use style="fill:#262626;stroke:#262626;" x="490.71627907" xlink:href="#me85eacae1e" y="36.0"/>
      </g>
     </g>
     <g id="text_7">
      <!-- 1200 -->
      <g style="fill:#262626;" transform="translate(479.59440407 329.1578125)scale(0.1 -0.1)">
       <use xlink:href="#ArialMT-31"/>
       <use x="55.615234375" xlink:href="#ArialMT-32"/>
       <use x="111.23046875" xlink:href="#ArialMT-30"/>
       <use x="166.845703125" xlink:href="#ArialMT-30"/>
      </g>
     </g>
    </g>
    <g id="text_8">
     <!-- barcode, rank-ordered -->
     <defs>
      <path d="M 40.4375 19 
L 49.078125 17.875 
Q 47.65625 8.9375 41.8125 3.875 
Q 35.984375 -1.171875 27.484375 -1.171875 
Q 16.84375 -1.171875 10.375 5.78125 
Q 3.90625 12.75 3.90625 25.734375 
Q 3.90625 34.125 6.6875 40.421875 
Q 9.46875 46.734375 15.15625 49.875 
Q 20.84375 53.03125 27.546875 53.03125 
Q 35.984375 53.03125 41.359375 48.75 
Q 46.734375 44.484375 48.25 36.625 
L 39.703125 35.296875 
Q 38.484375 40.53125 35.375 43.15625 
Q 32.28125 45.796875 27.875 45.796875 
Q 21.234375 45.796875 17.078125 41.03125 
Q 12.9375 36.28125 12.9375 25.984375 
Q 12.9375 15.53125 16.9375 10.796875 
Q 20.953125 6.0625 27.390625 6.0625 
Q 32.5625 6.0625 36.03125 9.234375 
Q 39.5 12.40625 40.4375 19 
" id="ArialMT-63"/>
      <path d="M 14.703125 0 
L 6.546875 0 
L 6.546875 71.578125 
L 15.328125 71.578125 
L 15.328125 46.046875 
Q 20.90625 53.03125 29.546875 53.03125 
Q 34.328125 53.03125 38.59375 51.09375 
Q 42.875 49.171875 45.625 45.671875 
Q 48.390625 42.1875 49.953125 37.25 
Q 51.515625 32.328125 51.515625 26.703125 
Q 51.515625 13.375 44.921875 6.09375 
Q 38.328125 -1.171875 29.109375 -1.171875 
Q 19.921875 -1.171875 14.703125 6.5 
z
M 14.59375 26.3125 
Q 14.59375 17 17.140625 12.84375 
Q 21.296875 6.0625 28.375 6.0625 
Q 34.125 6.0625 38.328125 11.0625 
Q 42.53125 16.0625 42.53125 25.984375 
Q 42.53125 36.140625 38.5 40.96875 
Q 34.46875 45.796875 28.765625 45.796875 
Q 23 45.796875 18.796875 40.796875 
Q 14.59375 35.796875 14.59375 26.3125 
" id="ArialMT-62"/>
      <path d="M 40.4375 6.390625 
Q 35.546875 2.25 31.03125 0.53125 
Q 26.515625 -1.171875 21.34375 -1.171875 
Q 12.796875 -1.171875 8.203125 3 
Q 3.609375 7.171875 3.609375 13.671875 
Q 3.609375 17.484375 5.34375 20.625 
Q 7.078125 23.78125 9.890625 25.6875 
Q 12.703125 27.59375 16.21875 28.5625 
Q 18.796875 29.25 24.03125 29.890625 
Q 34.671875 31.15625 39.703125 32.90625 
Q 39.75 34.71875 39.75 35.203125 
Q 39.75 40.578125 37.25 42.78125 
Q 33.890625 45.75 27.25 45.75 
Q 21.046875 45.75 18.09375 43.578125 
Q 15.140625 41.40625 13.71875 35.890625 
L 5.125 37.0625 
Q 6.296875 42.578125 8.984375 45.96875 
Q 11.671875 49.359375 16.75 51.1875 
Q 21.828125 53.03125 28.515625 53.03125 
Q 35.15625 53.03125 39.296875 51.46875 
Q 43.453125 49.90625 45.40625 47.53125 
Q 47.359375 45.171875 48.140625 41.546875 
Q 48.578125 39.3125 48.578125 33.453125 
L 48.578125 21.734375 
Q 48.578125 9.46875 49.140625 6.21875 
Q 49.703125 2.984375 51.375 0 
L 42.1875 0 
Q 40.828125 2.734375 40.4375 6.390625 
M 39.703125 26.03125 
Q 34.90625 24.078125 25.34375 22.703125 
Q 19.921875 21.921875 17.671875 20.9375 
Q 15.4375 19.96875 14.203125 18.09375 
Q 12.984375 16.21875 12.984375 13.921875 
Q 12.984375 10.40625 15.640625 8.0625 
Q 18.3125 5.71875 23.4375 5.71875 
Q 28.515625 5.71875 32.46875 7.9375 
Q 36.421875 10.15625 38.28125 14.015625 
Q 39.703125 17 39.703125 22.796875 
z
" id="ArialMT-61"/>
      <path d="M 42.09375 16.703125 
L 51.171875 15.578125 
Q 49.03125 7.625 43.21875 3.21875 
Q 37.40625 -1.171875 28.375 -1.171875 
Q 17 -1.171875 10.328125 5.828125 
Q 3.65625 12.84375 3.65625 25.484375 
Q 3.65625 38.578125 10.390625 45.796875 
Q 17.140625 53.03125 27.875 53.03125 
Q 38.28125 53.03125 44.875 45.953125 
Q 51.46875 38.875 51.46875 26.03125 
Q 51.46875 25.25 51.421875 23.6875 
L 12.75 23.6875 
Q 13.234375 15.140625 17.578125 10.59375 
Q 21.921875 6.0625 28.421875 6.0625 
Q 33.25 6.0625 36.671875 8.59375 
Q 40.09375 11.140625 42.09375 16.703125 
M 13.234375 30.90625 
L 42.1875 30.90625 
Q 41.609375 37.453125 38.875 40.71875 
Q 34.671875 45.796875 27.984375 45.796875 
Q 21.921875 45.796875 17.796875 41.75 
Q 13.671875 37.703125 13.234375 30.90625 
" id="ArialMT-65"/>
      <path d="M 40.234375 0 
L 40.234375 6.546875 
Q 35.296875 -1.171875 25.734375 -1.171875 
Q 19.53125 -1.171875 14.328125 2.25 
Q 9.125 5.671875 6.265625 11.796875 
Q 3.421875 17.921875 3.421875 25.875 
Q 3.421875 33.640625 6 39.96875 
Q 8.59375 46.296875 13.765625 49.65625 
Q 18.953125 53.03125 25.34375 53.03125 
Q 30.03125 53.03125 33.6875 51.046875 
Q 37.359375 49.078125 39.65625 45.90625 
L 39.65625 71.578125 
L 48.390625 71.578125 
L 48.390625 0 
z
M 12.453125 25.875 
Q 12.453125 15.921875 16.640625 10.984375 
Q 20.84375 6.0625 26.5625 6.0625 
Q 32.328125 6.0625 36.34375 10.765625 
Q 40.375 15.484375 40.375 25.140625 
Q 40.375 35.796875 36.265625 40.765625 
Q 32.171875 45.75 26.171875 45.75 
Q 20.3125 45.75 16.375 40.96875 
Q 12.453125 36.1875 12.453125 25.875 
" id="ArialMT-64"/>
      <path d="M 3.171875 21.484375 
L 3.171875 30.328125 
L 30.171875 30.328125 
L 30.171875 21.484375 
z
" id="ArialMT-2d"/>
      <path d="M 8.890625 0 
L 8.890625 10.015625 
L 18.890625 10.015625 
L 18.890625 0 
Q 18.890625 -5.515625 16.9375 -8.90625 
Q 14.984375 -12.3125 10.75 -14.15625 
L 8.296875 -10.40625 
Q 11.078125 -9.1875 12.390625 -6.8125 
Q 13.71875 -4.4375 13.875 0 
z
" id="ArialMT-2c"/>
      <path d="M 6.5 0 
L 6.5 51.859375 
L 14.40625 51.859375 
L 14.40625 44 
Q 17.4375 49.515625 20 51.265625 
Q 22.5625 53.03125 25.640625 53.03125 
Q 30.078125 53.03125 34.671875 50.203125 
L 31.640625 42.046875 
Q 28.421875 43.953125 25.203125 43.953125 
Q 22.3125 43.953125 20.015625 42.21875 
Q 17.71875 40.484375 16.75 37.40625 
Q 15.28125 32.71875 15.28125 27.15625 
L 15.28125 0 
z
" id="ArialMT-72"/>
      <path d="M 6.640625 0 
L 6.640625 71.578125 
L 15.4375 71.578125 
L 15.4375 30.765625 
L 36.234375 51.859375 
L 47.609375 51.859375 
L 27.78125 32.625 
L 49.609375 0 
L 38.765625 0 
L 21.625 26.515625 
L 15.4375 20.5625 
L 15.4375 0 
z
" id="ArialMT-6b"/>
      <path d="M 3.328125 25.921875 
Q 3.328125 40.328125 11.328125 47.265625 
Q 18.015625 53.03125 27.640625 53.03125 
Q 38.328125 53.03125 45.109375 46.015625 
Q 51.90625 39.015625 51.90625 26.65625 
Q 51.90625 16.65625 48.90625 10.90625 
Q 45.90625 5.171875 40.15625 2 
Q 34.421875 -1.171875 27.640625 -1.171875 
Q 16.75 -1.171875 10.03125 5.8125 
Q 3.328125 12.796875 3.328125 25.921875 
M 12.359375 25.921875 
Q 12.359375 15.96875 16.703125 11.015625 
Q 21.046875 6.0625 27.640625 6.0625 
Q 34.1875 6.0625 38.53125 11.03125 
Q 42.875 16.015625 42.875 26.21875 
Q 42.875 35.84375 38.5 40.796875 
Q 34.125 45.75 27.640625 45.75 
Q 21.046875 45.75 16.703125 40.8125 
Q 12.359375 35.890625 12.359375 25.921875 
" id="ArialMT-6f"/>
      <path d="M 6.59375 0 
L 6.59375 51.859375 
L 14.5 51.859375 
L 14.5 44.484375 
Q 20.21875 53.03125 31 53.03125 
Q 35.6875 53.03125 39.625 51.34375 
Q 43.5625 49.65625 45.515625 46.921875 
Q 47.46875 44.1875 48.25 40.4375 
Q 48.734375 37.984375 48.734375 31.890625 
L 48.734375 0 
L 39.9375 0 
L 39.9375 31.546875 
Q 39.9375 36.921875 38.90625 39.578125 
Q 37.890625 42.234375 35.28125 43.8125 
Q 32.671875 45.40625 29.15625 45.40625 
Q 23.53125 45.40625 19.453125 41.84375 
Q 15.375 38.28125 15.375 28.328125 
L 15.375 0 
z
" id="ArialMT-6e"/>
      <path id="ArialMT-20"/>
     </defs>
     <g style="fill:#262626;" transform="translate(240.785234375 344.01890625)scale(0.11 -0.11)">
      <use xlink:href="#ArialMT-62"/>
      <use x="55.615234375" xlink:href="#ArialMT-61"/>
      <use x="111.23046875" xlink:href="#ArialMT-72"/>
      <use x="144.53125" xlink:href="#ArialMT-63"/>
      <use x="194.53125" xlink:href="#ArialMT-6f"/>
      <use x="250.146484375" xlink:href="#ArialMT-64"/>
      <use x="305.76171875" xlink:href="#ArialMT-65"/>
      <use x="361.376953125" xlink:href="#ArialMT-2c"/>
      <use x="389.16015625" xlink:href="#ArialMT-20"/>
      <use x="416.943359375" xlink:href="#ArialMT-72"/>
      <use x="450.244140625" xlink:href="#ArialMT-61"/>
      <use x="505.859375" xlink:href="#ArialMT-6e"/>
      <use x="561.474609375" xlink:href="#ArialMT-6b"/>
      <use x="611.474609375" xlink:href="#ArialMT-2d"/>
      <use x="644.775390625" xlink:href="#ArialMT-6f"/>
      <use x="700.390625" xlink:href="#ArialMT-72"/>
      <use x="733.69140625" xlink:href="#ArialMT-64"/>
      <use x="789.306640625" xlink:href="#ArialMT-65"/>
      <use x="844.921875" xlink:href="#ArialMT-72"/>
      <use x="878.22265625" xlink:href="#ArialMT-65"/>
      <use x="933.837890625" xlink:href="#ArialMT-64"/>
     </g>
    </g>
   </g>
   <g id="matplotlib.axis_2">
    <g id="ytick_1">
     <g id="line2d_15">
      <g>
       <use style="fill:#262626;stroke:#262626;" x="72.0" xlink:href="#me85eacae1e" y="315.0"/>
      </g>
     </g>
     <g id="line2d_16">
      <g>
       <use style="fill:#262626;stroke:#262626;" x="518.4" xlink:href="#me85eacae1e" y="315.0"/>
      </g>
     </g>
     <g id="text_9">
      <!-- 0.0 -->
      <defs>
       <path d="M 9.078125 0 
L 9.078125 10.015625 
L 19.09375 10.015625 
L 19.09375 0 
z
" id="ArialMT-2e"/>
      </defs>
      <g style="fill:#262626;" transform="translate(51.1 317.58515625)scale(0.1 -0.1)">
       <use xlink:href="#ArialMT-30"/>
       <use x="55.615234375" xlink:href="#ArialMT-2e"/>
       <use x="83.3984375" xlink:href="#ArialMT-30"/>
      </g>
     </g>
    </g>
    <g id="ytick_2">
     <g id="line2d_17">
      <g>
       <use style="fill:#262626;stroke:#262626;" x="72.0" xlink:href="#me85eacae1e" y="279.691606952"/>
      </g>
     </g>
     <g id="line2d_18">
      <g>
       <use style="fill:#262626;stroke:#262626;" x="518.4" xlink:href="#me85eacae1e" y="279.691606952"/>
      </g>
     </g>
     <g id="text_10">
      <!-- 0.5 -->
      <defs>
       <path d="M 4.15625 18.75 
L 13.375 19.53125 
Q 14.40625 12.796875 18.140625 9.390625 
Q 21.875 6 27.15625 6 
Q 33.5 6 37.890625 10.78125 
Q 42.28125 15.578125 42.28125 23.484375 
Q 42.28125 31 38.0625 35.34375 
Q 33.84375 39.703125 27 39.703125 
Q 22.75 39.703125 19.328125 37.765625 
Q 15.921875 35.84375 13.96875 32.765625 
L 5.71875 33.84375 
L 12.640625 70.609375 
L 48.25 70.609375 
L 48.25 62.203125 
L 19.671875 62.203125 
L 15.828125 42.96875 
Q 22.265625 47.46875 29.34375 47.46875 
Q 38.71875 47.46875 45.15625 40.96875 
Q 51.609375 34.46875 51.609375 24.265625 
Q 51.609375 14.546875 45.953125 7.46875 
Q 39.0625 -1.21875 27.15625 -1.21875 
Q 17.390625 -1.21875 11.203125 4.25 
Q 5.03125 9.71875 4.15625 18.75 
" id="ArialMT-35"/>
      </defs>
      <g style="fill:#262626;" transform="translate(51.1 282.276763202)scale(0.1 -0.1)">
       <use xlink:href="#ArialMT-30"/>
       <use x="55.615234375" xlink:href="#ArialMT-2e"/>
       <use x="83.3984375" xlink:href="#ArialMT-35"/>
      </g>
     </g>
    </g>
    <g id="ytick_3">
     <g id="line2d_19">
      <g>
       <use style="fill:#262626;stroke:#262626;" x="72.0" xlink:href="#me85eacae1e" y="244.383213903"/>
      </g>
     </g>
     <g id="line2d_20">
      <g>
       <use style="fill:#262626;stroke:#262626;" x="518.4" xlink:href="#me85eacae1e" y="244.383213903"/>
      </g>
     </g>
     <g id="text_11">
      <!-- 1.0 -->
      <g style="fill:#262626;" transform="translate(51.1 246.968370153)scale(0.1 -0.1)">
       <use xlink:href="#ArialMT-31"/>
       <use x="55.615234375" xlink:href="#ArialMT-2e"/>
       <use x="83.3984375" xlink:href="#ArialMT-30"/>
      </g>
     </g>
    </g>
    <g id="ytick_4">
     <g id="line2d_21">
      <g>
       <use style="fill:#262626;stroke:#262626;" x="72.0" xlink:href="#me85eacae1e" y="209.074820855"/>
      </g>
     </g>
     <g id="line2d_22">
      <g>
       <use style="fill:#262626;stroke:#262626;" x="518.4" xlink:href="#me85eacae1e" y="209.074820855"/>
      </g>
     </g>
     <g id="text_12">
      <!-- 1.5 -->
      <g style="fill:#262626;" transform="translate(51.1 211.659977105)scale(0.1 -0.1)">
       <use xlink:href="#ArialMT-31"/>
       <use x="55.615234375" xlink:href="#ArialMT-2e"/>
       <use x="83.3984375" xlink:href="#ArialMT-35"/>
      </g>
     </g>
    </g>
    <g id="ytick_5">
     <g id="line2d_23">
      <g>
       <use style="fill:#262626;stroke:#262626;" x="72.0" xlink:href="#me85eacae1e" y="173.766427806"/>
      </g>
     </g>
     <g id="line2d_24">
      <g>
       <use style="fill:#262626;stroke:#262626;" x="518.4" xlink:href="#me85eacae1e" y="173.766427806"/>
      </g>
     </g>
     <g id="text_13">
      <!-- 2.0 -->
      <g style="fill:#262626;" transform="translate(51.1 176.351584056)scale(0.1 -0.1)">
       <use xlink:href="#ArialMT-32"/>
       <use x="55.615234375" xlink:href="#ArialMT-2e"/>
       <use x="83.3984375" xlink:href="#ArialMT-30"/>
      </g>
     </g>
    </g>
    <g id="ytick_6">
     <g id="line2d_25">
      <g>
       <use style="fill:#262626;stroke:#262626;" x="72.0" xlink:href="#me85eacae1e" y="138.458034758"/>
      </g>
     </g>
     <g id="line2d_26">
      <g>
       <use style="fill:#262626;stroke:#262626;" x="518.4" xlink:href="#me85eacae1e" y="138.458034758"/>
      </g>
     </g>
     <g id="text_14">
      <!-- 2.5 -->
      <g style="fill:#262626;" transform="translate(51.1 141.043191008)scale(0.1 -0.1)">
       <use xlink:href="#ArialMT-32"/>
       <use x="55.615234375" xlink:href="#ArialMT-2e"/>
       <use x="83.3984375" xlink:href="#ArialMT-35"/>
      </g>
     </g>
    </g>
    <g id="ytick_7">
     <g id="line2d_27">
      <g>
       <use style="fill:#262626;stroke:#262626;" x="72.0" xlink:href="#me85eacae1e" y="103.149641709"/>
      </g>
     </g>
     <g id="line2d_28">
      <g>
       <use style="fill:#262626;stroke:#262626;" x="518.4" xlink:href="#me85eacae1e" y="103.149641709"/>
      </g>
     </g>
     <g id="text_15">
      <!-- 3.0 -->
      <defs>
       <path d="M 4.203125 18.890625 
L 12.984375 20.0625 
Q 14.5 12.59375 18.140625 9.296875 
Q 21.78125 6 27 6 
Q 33.203125 6 37.46875 10.296875 
Q 41.75 14.59375 41.75 20.953125 
Q 41.75 27 37.796875 30.921875 
Q 33.84375 34.859375 27.734375 34.859375 
Q 25.25 34.859375 21.53125 33.890625 
L 22.515625 41.609375 
Q 23.390625 41.5 23.921875 41.5 
Q 29.546875 41.5 34.03125 44.421875 
Q 38.53125 47.359375 38.53125 53.46875 
Q 38.53125 58.296875 35.25 61.46875 
Q 31.984375 64.65625 26.8125 64.65625 
Q 21.6875 64.65625 18.265625 61.421875 
Q 14.84375 58.203125 13.875 51.765625 
L 5.078125 53.328125 
Q 6.6875 62.15625 12.390625 67.015625 
Q 18.109375 71.875 26.609375 71.875 
Q 32.46875 71.875 37.390625 69.359375 
Q 42.328125 66.84375 44.9375 62.5 
Q 47.5625 58.15625 47.5625 53.265625 
Q 47.5625 48.640625 45.0625 44.828125 
Q 42.578125 41.015625 37.703125 38.765625 
Q 44.046875 37.3125 47.5625 32.6875 
Q 51.078125 28.078125 51.078125 21.140625 
Q 51.078125 11.765625 44.234375 5.25 
Q 37.40625 -1.265625 26.953125 -1.265625 
Q 17.53125 -1.265625 11.296875 4.34375 
Q 5.078125 9.96875 4.203125 18.890625 
" id="ArialMT-33"/>
      </defs>
      <g style="fill:#262626;" transform="translate(51.1 105.734797959)scale(0.1 -0.1)">
       <use xlink:href="#ArialMT-33"/>
       <use x="55.615234375" xlink:href="#ArialMT-2e"/>
       <use x="83.3984375" xlink:href="#ArialMT-30"/>
      </g>
     </g>
    </g>
    <g id="ytick_8">
     <g id="line2d_29">
      <g>
       <use style="fill:#262626;stroke:#262626;" x="72.0" xlink:href="#me85eacae1e" y="67.8412486606"/>
      </g>
     </g>
     <g id="line2d_30">
      <g>
       <use style="fill:#262626;stroke:#262626;" x="518.4" xlink:href="#me85eacae1e" y="67.8412486606"/>
      </g>
     </g>
     <g id="text_16">
      <!-- 3.5 -->
      <g style="fill:#262626;" transform="translate(51.1 70.4264049106)scale(0.1 -0.1)">
       <use xlink:href="#ArialMT-33"/>
       <use x="55.615234375" xlink:href="#ArialMT-2e"/>
       <use x="83.3984375" xlink:href="#ArialMT-35"/>
      </g>
     </g>
    </g>
    <g id="text_17">
     <!-- log10 abundance (# molecules) -->
     <defs>
      <path d="M 4.984375 -4.296875 
L 13.53125 -5.5625 
Q 14.0625 -9.515625 16.5 -11.328125 
Q 19.78125 -13.765625 25.4375 -13.765625 
Q 31.546875 -13.765625 34.859375 -11.328125 
Q 38.1875 -8.890625 39.359375 -4.5 
Q 40.046875 -1.8125 39.984375 6.78125 
Q 34.234375 0 25.640625 0 
Q 14.9375 0 9.078125 7.71875 
Q 3.21875 15.4375 3.21875 26.21875 
Q 3.21875 33.640625 5.90625 39.90625 
Q 8.59375 46.1875 13.6875 49.609375 
Q 18.796875 53.03125 25.6875 53.03125 
Q 34.859375 53.03125 40.828125 45.609375 
L 40.828125 51.859375 
L 48.921875 51.859375 
L 48.921875 7.03125 
Q 48.921875 -5.078125 46.453125 -10.125 
Q 44 -15.1875 38.640625 -18.109375 
Q 33.296875 -21.046875 25.484375 -21.046875 
Q 16.21875 -21.046875 10.5 -16.875 
Q 4.78125 -12.703125 4.984375 -4.296875 
M 12.25 26.859375 
Q 12.25 16.65625 16.296875 11.96875 
Q 20.359375 7.28125 26.46875 7.28125 
Q 32.515625 7.28125 36.609375 11.9375 
Q 40.71875 16.609375 40.71875 26.5625 
Q 40.71875 36.078125 36.5 40.90625 
Q 32.28125 45.75 26.3125 45.75 
Q 20.453125 45.75 16.34375 40.984375 
Q 12.25 36.234375 12.25 26.859375 
" id="ArialMT-67"/>
      <path d="M 40.578125 0 
L 40.578125 7.625 
Q 34.515625 -1.171875 24.125 -1.171875 
Q 19.53125 -1.171875 15.546875 0.578125 
Q 11.578125 2.34375 9.640625 5 
Q 7.71875 7.671875 6.9375 11.53125 
Q 6.390625 14.109375 6.390625 19.734375 
L 6.390625 51.859375 
L 15.1875 51.859375 
L 15.1875 23.09375 
Q 15.1875 16.21875 15.71875 13.8125 
Q 16.546875 10.359375 19.234375 8.375 
Q 21.921875 6.390625 25.875 6.390625 
Q 29.828125 6.390625 33.296875 8.421875 
Q 36.765625 10.453125 38.203125 13.9375 
Q 39.65625 17.4375 39.65625 24.078125 
L 39.65625 51.859375 
L 48.4375 51.859375 
L 48.4375 0 
z
" id="ArialMT-75"/>
      <path d="M 23.390625 -21.046875 
Q 16.109375 -11.859375 11.078125 0.4375 
Q 6.0625 12.75 6.0625 25.921875 
Q 6.0625 37.546875 9.8125 48.1875 
Q 14.203125 60.546875 23.390625 72.796875 
L 29.6875 72.796875 
Q 23.78125 62.640625 21.875 58.296875 
Q 18.890625 51.5625 17.1875 44.234375 
Q 15.09375 35.109375 15.09375 25.875 
Q 15.09375 2.390625 29.6875 -21.046875 
z
" id="ArialMT-28"/>
      <path d="M 3.078125 15.484375 
L 11.765625 16.84375 
Q 12.5 11.625 15.84375 8.84375 
Q 19.1875 6.0625 25.203125 6.0625 
Q 31.25 6.0625 34.171875 8.515625 
Q 37.109375 10.984375 37.109375 14.3125 
Q 37.109375 17.28125 34.515625 19 
Q 32.71875 20.171875 25.53125 21.96875 
Q 15.875 24.421875 12.140625 26.203125 
Q 8.40625 27.984375 6.46875 31.125 
Q 4.546875 34.28125 4.546875 38.09375 
Q 4.546875 41.546875 6.125 44.5 
Q 7.71875 47.46875 10.453125 49.421875 
Q 12.5 50.921875 16.03125 51.96875 
Q 19.578125 53.03125 23.640625 53.03125 
Q 29.734375 53.03125 34.34375 51.265625 
Q 38.96875 49.515625 41.15625 46.5 
Q 43.359375 43.5 44.1875 38.484375 
L 35.59375 37.3125 
Q 35.015625 41.3125 32.203125 43.546875 
Q 29.390625 45.796875 24.265625 45.796875 
Q 18.21875 45.796875 15.625 43.796875 
Q 13.03125 41.796875 13.03125 39.109375 
Q 13.03125 37.40625 14.109375 36.03125 
Q 15.1875 34.625 17.484375 33.6875 
Q 18.796875 33.203125 25.25 31.453125 
Q 34.578125 28.953125 38.25 27.359375 
Q 41.9375 25.78125 44.03125 22.75 
Q 46.140625 19.734375 46.140625 15.234375 
Q 46.140625 10.84375 43.578125 6.953125 
Q 41.015625 3.078125 36.171875 0.953125 
Q 31.34375 -1.171875 25.25 -1.171875 
Q 15.140625 -1.171875 9.84375 3.03125 
Q 4.546875 7.234375 3.078125 15.484375 
" id="ArialMT-73"/>
      <path d="M 6.390625 0 
L 6.390625 71.578125 
L 15.1875 71.578125 
L 15.1875 0 
z
" id="ArialMT-6c"/>
      <path d="M 12.359375 -21.046875 
L 6.0625 -21.046875 
Q 20.65625 2.390625 20.65625 25.875 
Q 20.65625 35.0625 18.5625 44.09375 
Q 16.890625 51.421875 13.921875 58.15625 
Q 12.015625 62.546875 6.0625 72.796875 
L 12.359375 72.796875 
Q 21.53125 60.546875 25.921875 48.1875 
Q 29.6875 37.546875 29.6875 25.921875 
Q 29.6875 12.75 24.625 0.4375 
Q 19.578125 -11.859375 12.359375 -21.046875 
" id="ArialMT-29"/>
      <path d="M 6.59375 0 
L 6.59375 51.859375 
L 14.453125 51.859375 
L 14.453125 44.578125 
Q 16.890625 48.390625 20.9375 50.703125 
Q 25 53.03125 30.171875 53.03125 
Q 35.9375 53.03125 39.625 50.640625 
Q 43.3125 48.25 44.828125 43.953125 
Q 50.984375 53.03125 60.84375 53.03125 
Q 68.5625 53.03125 72.703125 48.75 
Q 76.859375 44.484375 76.859375 35.59375 
L 76.859375 0 
L 68.109375 0 
L 68.109375 32.671875 
Q 68.109375 37.9375 67.25 40.25 
Q 66.40625 42.578125 64.15625 43.984375 
Q 61.921875 45.40625 58.890625 45.40625 
Q 53.421875 45.40625 49.796875 41.765625 
Q 46.1875 38.140625 46.1875 30.125 
L 46.1875 0 
L 37.40625 0 
L 37.40625 33.6875 
Q 37.40625 39.546875 35.25 42.46875 
Q 33.109375 45.40625 28.21875 45.40625 
Q 24.515625 45.40625 21.359375 43.453125 
Q 18.21875 41.5 16.796875 37.734375 
Q 15.375 33.984375 15.375 26.90625 
L 15.375 0 
z
" id="ArialMT-6d"/>
      <path d="M 5.03125 -1.21875 
L 9.28125 19.578125 
L 1.03125 19.578125 
L 1.03125 26.859375 
L 10.75 26.859375 
L 14.359375 44.578125 
L 1.03125 44.578125 
L 1.03125 51.859375 
L 15.828125 51.859375 
L 20.0625 72.796875 
L 27.390625 72.796875 
L 23.140625 51.859375 
L 38.53125 51.859375 
L 42.78125 72.796875 
L 50.140625 72.796875 
L 45.90625 51.859375 
L 54.34375 51.859375 
L 54.34375 44.578125 
L 44.4375 44.578125 
L 40.765625 26.859375 
L 54.34375 26.859375 
L 54.34375 19.578125 
L 39.3125 19.578125 
L 35.0625 -1.21875 
L 27.734375 -1.21875 
L 31.9375 19.578125 
L 16.609375 19.578125 
L 12.359375 -1.21875 
z
M 18.0625 26.859375 
L 33.40625 26.859375 
L 37.0625 44.578125 
L 21.6875 44.578125 
z
" id="ArialMT-23"/>
     </defs>
     <g style="fill:#262626;" transform="translate(43.78484375 252.23875)rotate(-90.0)scale(0.11 -0.11)">
      <use xlink:href="#ArialMT-6c"/>
      <use x="22.216796875" xlink:href="#ArialMT-6f"/>
      <use x="77.83203125" xlink:href="#ArialMT-67"/>
      <use x="133.447265625" xlink:href="#ArialMT-31"/>
      <use x="189.0625" xlink:href="#ArialMT-30"/>
      <use x="244.677734375" xlink:href="#ArialMT-20"/>
      <use x="272.4609375" xlink:href="#ArialMT-61"/>
      <use x="328.076171875" xlink:href="#ArialMT-62"/>
      <use x="383.69140625" xlink:href="#ArialMT-75"/>
      <use x="439.306640625" xlink:href="#ArialMT-6e"/>
      <use x="494.921875" xlink:href="#ArialMT-64"/>
      <use x="550.537109375" xlink:href="#ArialMT-61"/>
      <use x="606.15234375" xlink:href="#ArialMT-6e"/>
      <use x="661.767578125" xlink:href="#ArialMT-63"/>
      <use x="711.767578125" xlink:href="#ArialMT-65"/>
      <use x="767.3828125" xlink:href="#ArialMT-20"/>
      <use x="795.166015625" xlink:href="#ArialMT-28"/>
      <use x="828.466796875" xlink:href="#ArialMT-23"/>
      <use x="884.08203125" xlink:href="#ArialMT-20"/>
      <use x="911.865234375" xlink:href="#ArialMT-6d"/>
      <use x="995.166015625" xlink:href="#ArialMT-6f"/>
      <use x="1050.78125" xlink:href="#ArialMT-6c"/>
      <use x="1072.99804688" xlink:href="#ArialMT-65"/>
      <use x="1128.61328125" xlink:href="#ArialMT-63"/>
      <use x="1178.61328125" xlink:href="#ArialMT-75"/>
      <use x="1234.22851562" xlink:href="#ArialMT-6c"/>
      <use x="1256.4453125" xlink:href="#ArialMT-65"/>
      <use x="1312.06054688" xlink:href="#ArialMT-73"/>
      <use x="1362.06054688" xlink:href="#ArialMT-29"/>
     </g>
    </g>
   </g>
   <g id="line2d_31">
    <path clip-path="url(#pad8b7a2342)" d="M 75.460465 38.893291 
L 75.806512 47.657 
L 76.152558 50.634302 
L 76.498605 68.372216 
L 76.844651 70.222848 
L 77.190698 75.097506 
L 77.536744 77.873433 
L 77.882791 78.075866 
L 78.228837 79.333457 
L 78.574884 79.432365 
L 78.92093 81.738911 
L 79.266977 82.339819 
L 79.613023 83.191776 
L 79.95907 83.255836 
L 80.305116 84.133997 
L 80.651163 87.293838 
L 80.997209 87.810217 
L 81.343256 88.792902 
L 82.035349 88.985544 
L 82.381395 91.064204 
L 82.727442 92.0519 
L 83.765581 92.6558 
L 84.111628 95.056182 
L 84.457674 95.150547 
L 84.803721 95.795218 
L 85.149767 97.354339 
L 85.495814 98.047586 
L 86.187907 98.413313 
L 86.533953 100.506703 
L 86.88 101.565822 
L 87.572093 101.799711 
L 87.91814 103.088366 
L 88.264186 103.088366 
L 88.610233 105.07991 
L 89.302326 105.24365 
L 89.648372 105.342315 
L 89.994419 105.740182 
L 90.686512 106.177111 
L 91.378605 107.244847 
L 91.724651 107.810832 
L 92.070698 108.643184 
L 92.416744 109.16112 
L 92.762791 110.534565 
L 93.454884 110.769574 
L 93.80093 112.592 
L 94.146977 112.633754 
L 94.493023 116.126091 
L 94.83907 116.836589 
L 95.185116 118.764816 
L 95.531163 119.750025 
L 96.223256 119.961533 
L 96.569302 120.067836 
L 96.915349 120.659183 
L 97.261395 120.767937 
L 97.607442 122.332425 
L 98.299535 122.620394 
L 98.645581 124.407413 
L 98.991628 124.77766 
L 99.683721 125.089652 
L 100.029767 125.659361 
L 100.375814 126.501421 
L 100.72186 126.633045 
L 101.067907 127.502657 
L 101.76 129.536284 
L 102.106047 131.559115 
L 102.452093 132.343518 
L 103.490233 133.148511 
L 103.836279 134.397061 
L 104.182326 134.652989 
L 104.528372 135.346091 
L 104.874419 135.698606 
L 105.220465 135.876395 
L 105.566512 136.873095 
L 106.258605 137.903278 
L 106.604651 139.167135 
L 106.950698 142.08023 
L 107.296744 143.878164 
L 107.642791 143.994113 
L 107.988837 145.911518 
L 108.334884 146.789612 
L 108.68093 147.302904 
L 109.026977 148.089318 
L 109.373023 148.222371 
L 110.065116 148.625026 
L 110.757209 150.006723 
L 111.103256 152.662384 
L 111.449302 153.128243 
L 111.795349 153.128243 
L 112.141395 153.285116 
L 112.487442 153.601288 
L 113.179535 153.601288 
L 113.525581 154.406282 
L 113.871628 154.73429 
L 114.217674 155.401022 
L 114.909767 156.082572 
L 115.255814 156.082572 
L 115.60186 156.779613 
L 115.947907 156.779613 
L 116.293953 157.134166 
L 116.64 158.782421 
L 117.67814 160.325815 
L 118.370233 160.325815 
L 118.716279 160.724113 
L 119.062326 160.925218 
L 119.754419 161.951015 
L 120.100465 163.229054 
L 120.446512 163.667182 
L 120.792558 163.667182 
L 121.138605 164.111661 
L 121.484651 165.720114 
L 122.176744 167.417618 
L 122.522791 167.920391 
L 122.868837 168.690351 
L 123.214884 169.74799 
L 124.253023 169.74799 
L 124.59907 170.290809 
L 124.945116 170.290809 
L 125.291163 171.40615 
L 125.983256 171.979409 
L 126.329302 172.563588 
L 126.675349 172.859904 
L 127.021395 172.859904 
L 127.367442 173.159111 
L 127.713488 174.700565 
L 128.059535 174.700565 
L 128.405581 175.339515 
L 128.751628 175.339515 
L 129.097674 175.992061 
L 129.443721 177.340343 
L 130.135814 178.037384 
L 130.48186 178.750636 
L 130.827907 178.750636 
L 131.173953 180.609901 
L 131.52 181.38636 
L 131.866047 181.782088 
L 132.904186 181.782088 
L 133.250233 182.182989 
L 133.942326 182.182989 
L 134.634419 183.000863 
L 135.326512 183.000863 
L 136.018605 184.705106 
L 136.364651 184.705106 
L 136.710698 185.146387 
L 137.056744 185.146387 
L 137.748837 186.048466 
L 138.44093 186.048466 
L 138.786977 186.509655 
L 139.133023 186.509655 
L 139.47907 186.977885 
L 139.825116 186.977885 
L 140.171163 187.936353 
L 140.517209 187.936353 
L 140.863256 188.427059 
L 141.209302 188.427059 
L 141.555349 188.925745 
L 142.247442 188.925745 
L 143.631628 191.005761 
L 144.323721 191.005761 
L 144.669767 191.54858 
L 146.053953 191.54858 
L 146.4 192.10118 
L 146.746047 193.23718 
L 148.822326 193.23718 
L 149.514419 194.416882 
L 150.206512 194.416882 
L 150.552558 195.024199 
L 151.244651 195.024199 
L 151.590698 195.643785 
L 152.628837 195.643785 
L 152.974884 196.921823 
L 154.013023 196.921823 
L 154.35907 197.581386 
L 155.051163 197.581386 
L 155.397209 198.255446 
L 156.781395 198.255446 
L 157.127442 198.944654 
L 158.511628 198.944654 
L 158.857674 199.649707 
L 160.24186 199.649707 
L 160.587907 200.371352 
L 161.626047 200.371352 
L 161.972093 201.110387 
L 162.31814 201.110387 
L 162.664186 201.867672 
L 164.740465 201.867672 
L 165.086512 202.644131 
L 166.124651 202.644131 
L 166.470698 203.44076 
L 167.854884 203.44076 
L 168.20093 204.258634 
L 169.931163 204.258634 
L 170.277209 205.098919 
L 171.315349 205.098919 
L 171.661395 205.962877 
L 173.391628 205.962877 
L 173.737674 206.851881 
L 174.083721 206.851881 
L 174.429767 207.767426 
L 176.16 207.767426 
L 176.506047 208.711146 
L 177.890233 208.711146 
L 178.236279 209.68483 
L 180.312558 209.68483 
L 180.658605 210.690444 
L 182.388837 210.690444 
L 182.734884 211.730153 
L 184.465116 211.730153 
L 184.811163 212.806351 
L 187.579535 212.806351 
L 187.925581 213.921691 
L 190.00186 213.921691 
L 190.347907 215.07913 
L 192.424186 215.07913 
L 192.770233 216.281969 
L 196.230698 216.281969 
L 196.576744 217.533918 
L 198.306977 217.533918 
L 198.653023 218.839157 
L 202.459535 218.839157 
L 202.805581 220.202425 
L 206.266047 220.202425 
L 206.612093 221.629123 
L 210.072558 221.629123 
L 210.418605 223.125443 
L 212.84093 223.125443 
L 213.186977 224.69853 
L 216.301395 224.69853 
L 216.647442 226.35669 
L 220.8 226.35669 
L 221.146047 228.109652 
L 226.682791 228.109652 
L 227.028837 229.968917 
L 231.873488 229.968917 
L 232.219535 231.948215 
L 237.064186 231.948215 
L 237.410233 234.064122 
L 241.216744 234.064122 
L 241.562791 236.336901 
L 247.791628 236.336901 
L 248.137674 238.791689 
L 252.982326 238.791689 
L 253.328372 241.460196 
L 259.211163 241.460196 
L 259.557209 244.383214 
L 266.47814 244.383214 
L 266.824186 247.614461 
L 273.39907 247.614461 
L 273.745116 251.226688 
L 283.088372 251.226688 
L 283.434419 255.321892 
L 294.507907 255.321892 
L 294.853953 260.04946 
L 305.235349 260.04946 
L 305.581395 265.640985 
L 317.346977 265.640985 
L 317.693023 272.484458 
L 333.611163 272.484458 
L 333.957209 281.30723 
L 352.643721 281.30723 
L 352.989767 293.742229 
L 386.210233 293.742229 
L 386.556279 315 
L 518.053953 315 
L 518.053953 315 
" style="fill:none;stroke:#ff0000;stroke-linecap:round;stroke-width:3.0;"/>
   </g>
   <g id="line2d_32">
    <path clip-path="url(#pad8b7a2342)" d="M 75.460465 109.838672 
L 77.536744 109.947361 
L 79.613023 110.27417 
L 81.689302 110.821353 
L 83.765581 111.592748 
L 85.84186 112.593917 
L 87.91814 113.832342 
L 89.994419 115.317717 
L 92.070698 117.06235 
L 94.146977 119.081709 
L 96.223256 121.395198 
L 98.299535 124.02723 
L 100.375814 127.00877 
L 102.452093 130.379598 
L 104.528372 134.191724 
L 106.604651 138.51475 
L 108.68093 143.444666 
L 110.411163 148.11403 
L 112.141395 153.414109 
L 113.871628 159.514128 
L 115.255814 165.143166 
L 116.64 171.664678 
L 118.024186 179.429956 
L 119.062326 186.435288 
L 120.100465 194.981664 
L 121.138605 206.054136 
L 121.830698 215.91218 
L 122.522791 229.707927 
L 122.868837 239.528426 
L 123.214884 253.608315 
L 123.56093 279.341368 
L 123.906977 315 
L 154.013023 315 
L 154.705116 269.05672 
L 155.397209 247.232751 
L 156.089302 234.665469 
L 156.781395 225.840601 
L 157.819535 216.195691 
L 158.857674 209.023991 
L 159.895814 203.377881 
L 160.933953 198.778431 
L 162.31814 193.812892 
L 163.702326 189.837232 
L 165.086512 186.618873 
L 166.470698 184.009097 
L 167.854884 181.907786 
L 169.23907 180.245132 
L 170.623256 178.971405 
L 172.007442 178.050893 
L 173.391628 177.458187 
L 174.775814 177.175839 
L 176.16 177.19292 
L 177.544186 177.504168 
L 178.928372 178.109601 
L 180.312558 179.014523 
L 181.696744 180.229926 
L 183.08093 181.773351 
L 184.465116 183.670365 
L 185.849302 185.956939 
L 187.233488 188.683239 
L 188.617674 191.919807 
L 190.00186 195.768046 
L 191.386047 200.379008 
L 192.770233 205.989763 
L 193.808372 211.084977 
L 194.846512 217.245645 
L 195.884651 224.968127 
L 196.576744 231.434577 
L 197.268837 239.577641 
L 197.96093 250.572383 
L 198.653023 267.595819 
L 198.99907 281.620657 
L 199.345116 307.86651 
L 199.691163 315 
L 234.64186 315 
L 234.987907 348.027958 
L 235.333953 297.830133 
L 235.68 279.694063 
L 236.372093 260.11817 
L 237.064186 248.282776 
L 237.756279 239.799512 
L 238.794419 230.396801 
L 239.832558 223.326802 
L 240.870698 217.71586 
L 241.908837 213.115138 
L 243.293023 208.115647 
L 244.677209 204.085125 
L 246.061395 200.800831 
L 247.445581 198.120082 
L 248.829767 195.946937 
L 250.213953 194.214813 
L 251.59814 192.876736 
L 252.982326 191.899577 
L 254.366512 191.260541 
L 255.404651 190.994097 
L 256.442791 190.905904 
L 257.48093 190.994387 
L 258.51907 191.259911 
L 259.557209 191.704789 
L 260.941395 192.584842 
L 262.325581 193.808569 
L 263.709767 195.401453 
L 265.093953 197.400176 
L 266.47814 199.856669 
L 267.862326 202.844817 
L 269.246512 206.471956 
L 270.630698 210.899756 
L 271.668837 214.895088 
L 272.706977 219.651366 
L 273.745116 225.437726 
L 274.783256 232.719603 
L 275.475349 238.821517 
L 276.167442 246.485303 
L 276.859535 256.744849 
L 277.551628 272.246027 
L 277.897674 284.43424 
L 278.243721 304.881346 
L 278.46275 361 
M 278.733148 361 
L 278.935814 315 
L 314.924651 315 
L 315.127317 361 
M 315.397715 361 
L 315.616744 304.881346 
L 315.962791 284.43424 
L 316.654884 263.531535 
L 317.346977 251.187898 
L 318.03907 242.411796 
L 319.077209 232.719603 
L 320.115349 225.437726 
L 321.153488 219.651366 
L 322.191628 214.895088 
L 323.575814 209.705898 
L 324.96 205.497636 
L 326.344186 202.042789 
L 327.728372 199.19605 
L 329.112558 196.859919 
L 330.496744 194.96684 
L 331.88093 193.469192 
L 333.265116 192.333399 
L 334.649302 191.536342 
L 336.033488 191.063151 
L 337.071628 190.915789 
L 338.109767 190.945012 
L 339.147907 191.151743 
L 340.186047 191.538881 
L 341.224186 192.11143 
L 342.608372 193.176323 
L 343.992558 194.609338 
L 345.376744 196.446669 
L 346.76093 198.739534 
L 348.145116 201.560727 
L 349.529302 205.015821 
L 350.913488 209.263462 
L 351.951628 213.115138 
L 352.989767 217.71586 
L 354.027907 223.326802 
L 355.066047 230.396801 
L 355.75814 236.319114 
L 356.450233 243.742202 
L 357.142326 253.628256 
L 357.834419 268.369177 
L 358.180465 279.694063 
L 358.526512 297.830133 
L 358.872558 348.027958 
L 359.218605 315 
L 394.169302 315 
L 394.515349 307.86651 
L 394.861395 281.620657 
L 395.553488 257.94599 
L 396.245581 244.599542 
L 396.937674 235.244679 
L 397.975814 224.968127 
L 399.013953 217.245645 
L 400.052093 211.084977 
L 401.090233 205.989763 
L 402.474419 200.379008 
L 403.858605 195.768046 
L 405.242791 191.919807 
L 406.626977 188.683239 
L 408.011163 185.956939 
L 409.395349 183.670365 
L 410.779535 181.773351 
L 412.163721 180.229926 
L 413.547907 179.014523 
L 414.932093 178.109601 
L 416.316279 177.504168 
L 417.700465 177.19292 
L 419.084651 177.175839 
L 420.122791 177.359034 
L 421.16093 177.714821 
L 422.545116 178.468794 
L 423.929302 179.562161 
L 425.313488 181.02512 
L 426.697674 182.89981 
L 428.08186 185.245041 
L 429.466047 188.144121 
L 430.850233 191.718425 
L 431.888372 194.949744 
L 432.926512 198.778431 
L 433.964651 203.377881 
L 435.002791 209.023991 
L 436.04093 216.195691 
L 436.733023 222.255303 
L 437.425116 229.925943 
L 438.117209 240.299346 
L 438.809302 256.233382 
L 439.155349 269.05672 
L 439.847442 315 
L 469.953488 315 
L 470.645581 253.608315 
L 471.337674 229.707927 
L 472.029767 215.91218 
L 472.72186 206.054136 
L 473.76 194.981664 
L 474.79814 186.435288 
L 475.836279 179.429956 
L 477.220465 171.664678 
L 478.604651 165.143166 
L 480.334884 158.219292 
L 482.065116 152.296542 
L 483.795349 147.133985 
L 485.525581 142.575694 
L 487.60186 137.755104 
L 489.67814 133.523038 
L 491.754419 129.788734 
L 493.830698 126.486016 
L 495.906977 123.565217 
L 497.983256 120.988226 
L 500.059535 118.725303 
L 502.135814 116.752961 
L 504.212093 115.052519 
L 506.288372 113.60908 
L 508.364651 112.410807 
L 510.44093 111.448399 
L 512.517209 110.71471 
L 514.593488 110.204478 
L 516.669767 109.914137 
L 518.053953 109.84169 
L 518.053953 109.84169 
" style="fill:none;opacity:0.8;stroke:#4c72b0;stroke-linecap:round;stroke-width:2.0;"/>
   </g>
   <g id="line2d_33">
    <path clip-path="url(#pad8b7a2342)" d="M 103.490233 315 
L 103.490233 36 
" style="fill:none;stroke:#008000;stroke-linecap:round;stroke-width:2.0;"/>
   </g>
   <g id="patch_3">
    <path d="M 72 36 
L 518.4 36 
" style="fill:none;stroke:#262626;stroke-linecap:square;stroke-linejoin:miter;stroke-width:1.25;"/>
   </g>
   <g id="patch_4">
    <path d="M 518.4 315 
L 518.4 36 
" style="fill:none;stroke:#262626;stroke-linecap:square;stroke-linejoin:miter;stroke-width:1.25;"/>
   </g>
   <g id="patch_5">
    <path d="M 72 315 
L 518.4 315 
" style="fill:none;stroke:#262626;stroke-linecap:square;stroke-linejoin:miter;stroke-width:1.25;"/>
   </g>
   <g id="patch_6">
    <path d="M 72 315 
L 72 36 
" style="fill:none;stroke:#262626;stroke-linecap:square;stroke-linejoin:miter;stroke-width:1.25;"/>
   </g>
   <g id="text_18">
    <!-- B6 4wk naive Spleen 2: 81 barcodes -->
    <defs>
     <path d="M 16.15625 0 
L 0.296875 51.859375 
L 9.375 51.859375 
L 17.625 21.921875 
L 20.703125 10.796875 
Q 20.90625 11.625 23.390625 21.484375 
L 31.640625 51.859375 
L 40.671875 51.859375 
L 48.4375 21.78125 
L 51.03125 11.859375 
L 54 21.875 
L 62.890625 51.859375 
L 71.4375 51.859375 
L 55.21875 0 
L 46.09375 0 
L 37.84375 31.0625 
L 35.84375 39.890625 
L 25.34375 0 
z
" id="ArialMT-77"/>
     <path d="M 4.5 23 
L 13.421875 23.78125 
Q 14.0625 18.40625 16.375 14.96875 
Q 18.703125 11.53125 23.578125 9.40625 
Q 28.46875 7.28125 34.578125 7.28125 
Q 39.984375 7.28125 44.140625 8.890625 
Q 48.296875 10.5 50.3125 13.296875 
Q 52.34375 16.109375 52.34375 19.4375 
Q 52.34375 22.796875 50.390625 25.3125 
Q 48.4375 27.828125 43.953125 29.546875 
Q 41.0625 30.671875 31.203125 33.03125 
Q 21.34375 35.40625 17.390625 37.5 
Q 12.25 40.1875 9.734375 44.15625 
Q 7.234375 48.140625 7.234375 53.078125 
Q 7.234375 58.5 10.296875 63.203125 
Q 13.375 67.921875 19.28125 70.359375 
Q 25.203125 72.796875 32.421875 72.796875 
Q 40.375 72.796875 46.453125 70.234375 
Q 52.546875 67.671875 55.8125 62.6875 
Q 59.078125 57.71875 59.328125 51.421875 
L 50.25 50.734375 
Q 49.515625 57.515625 45.28125 60.984375 
Q 41.0625 64.453125 32.8125 64.453125 
Q 24.21875 64.453125 20.28125 61.296875 
Q 16.359375 58.15625 16.359375 53.71875 
Q 16.359375 49.859375 19.140625 47.359375 
Q 21.875 44.875 33.421875 42.265625 
Q 44.96875 39.65625 49.265625 37.703125 
Q 55.515625 34.8125 58.484375 30.390625 
Q 61.46875 25.984375 61.46875 20.21875 
Q 61.46875 14.5 58.203125 9.4375 
Q 54.9375 4.390625 48.796875 1.578125 
Q 42.671875 -1.21875 35.015625 -1.21875 
Q 25.296875 -1.21875 18.71875 1.609375 
Q 12.15625 4.4375 8.421875 10.125 
Q 4.6875 15.828125 4.5 23 
" id="ArialMT-53"/>
     <path d="M 6.640625 61.46875 
L 6.640625 71.578125 
L 15.4375 71.578125 
L 15.4375 61.46875 
z
M 6.640625 0 
L 6.640625 51.859375 
L 15.4375 51.859375 
L 15.4375 0 
z
" id="ArialMT-69"/>
     <path d="M 7.328125 0 
L 7.328125 71.578125 
L 34.1875 71.578125 
Q 42.390625 71.578125 47.34375 69.40625 
Q 52.296875 67.234375 55.09375 62.71875 
Q 57.90625 58.203125 57.90625 53.265625 
Q 57.90625 48.6875 55.421875 44.625 
Q 52.9375 40.578125 47.90625 38.09375 
Q 54.390625 36.1875 57.875 31.59375 
Q 61.375 27 61.375 20.75 
Q 61.375 15.71875 59.25 11.390625 
Q 57.125 7.078125 54 4.734375 
Q 50.875 2.390625 46.15625 1.1875 
Q 41.453125 0 34.625 0 
z
M 16.796875 41.5 
L 32.28125 41.5 
Q 38.578125 41.5 41.3125 42.328125 
Q 44.921875 43.40625 46.75 45.890625 
Q 48.578125 48.390625 48.578125 52.15625 
Q 48.578125 55.71875 46.875 58.421875 
Q 45.171875 61.140625 41.984375 62.140625 
Q 38.8125 63.140625 31.109375 63.140625 
L 16.796875 63.140625 
z
M 16.796875 8.453125 
L 34.625 8.453125 
Q 39.203125 8.453125 41.0625 8.796875 
Q 44.34375 9.375 46.53125 10.734375 
Q 48.734375 12.109375 50.140625 14.71875 
Q 51.5625 17.328125 51.5625 20.75 
Q 51.5625 24.75 49.515625 27.703125 
Q 47.46875 30.671875 43.828125 31.859375 
Q 40.1875 33.0625 33.34375 33.0625 
L 16.796875 33.0625 
z
" id="ArialMT-42"/>
     <path d="M 6.59375 -19.875 
L 6.59375 51.859375 
L 14.59375 51.859375 
L 14.59375 45.125 
Q 17.4375 49.078125 21 51.046875 
Q 24.5625 53.03125 29.640625 53.03125 
Q 36.28125 53.03125 41.359375 49.609375 
Q 46.4375 46.1875 49.015625 39.953125 
Q 51.609375 33.734375 51.609375 26.3125 
Q 51.609375 18.359375 48.75 11.984375 
Q 45.90625 5.609375 40.453125 2.21875 
Q 35.015625 -1.171875 29 -1.171875 
Q 24.609375 -1.171875 21.109375 0.6875 
Q 17.625 2.546875 15.375 5.375 
L 15.375 -19.875 
z
M 14.546875 25.640625 
Q 14.546875 15.625 18.59375 10.84375 
Q 22.65625 6.0625 28.421875 6.0625 
Q 34.28125 6.0625 38.453125 11.015625 
Q 42.625 15.96875 42.625 26.375 
Q 42.625 36.28125 38.546875 41.203125 
Q 34.46875 46.140625 28.8125 46.140625 
Q 23.1875 46.140625 18.859375 40.890625 
Q 14.546875 35.640625 14.546875 25.640625 
" id="ArialMT-70"/>
     <path d="M 9.03125 41.84375 
L 9.03125 51.859375 
L 19.046875 51.859375 
L 19.046875 41.84375 
z
M 9.03125 0 
L 9.03125 10.015625 
L 19.046875 10.015625 
L 19.046875 0 
z
" id="ArialMT-3a"/>
     <path d="M 21 0 
L 1.265625 51.859375 
L 10.546875 51.859375 
L 21.6875 20.796875 
Q 23.484375 15.765625 25 10.359375 
Q 26.171875 14.453125 28.265625 20.21875 
L 39.796875 51.859375 
L 48.828125 51.859375 
L 29.203125 0 
z
" id="ArialMT-76"/>
    </defs>
    <g style="fill:#262626;" transform="translate(197.80875 31.0)scale(0.12 -0.12)">
     <use xlink:href="#ArialMT-42"/>
     <use x="66.69921875" xlink:href="#ArialMT-36"/>
     <use x="122.314453125" xlink:href="#ArialMT-20"/>
     <use x="150.09765625" xlink:href="#ArialMT-34"/>
     <use x="205.712890625" xlink:href="#ArialMT-77"/>
     <use x="277.9296875" xlink:href="#ArialMT-6b"/>
     <use x="327.9296875" xlink:href="#ArialMT-20"/>
     <use x="355.712890625" xlink:href="#ArialMT-6e"/>
     <use x="411.328125" xlink:href="#ArialMT-61"/>
     <use x="466.943359375" xlink:href="#ArialMT-69"/>
     <use x="489.16015625" xlink:href="#ArialMT-76"/>
     <use x="539.16015625" xlink:href="#ArialMT-65"/>
     <use x="594.775390625" xlink:href="#ArialMT-20"/>
     <use x="622.55859375" xlink:href="#ArialMT-53"/>
     <use x="689.2578125" xlink:href="#ArialMT-70"/>
     <use x="744.873046875" xlink:href="#ArialMT-6c"/>
     <use x="767.08984375" xlink:href="#ArialMT-65"/>
     <use x="822.705078125" xlink:href="#ArialMT-65"/>
     <use x="878.3203125" xlink:href="#ArialMT-6e"/>
     <use x="933.935546875" xlink:href="#ArialMT-20"/>
     <use x="961.71875" xlink:href="#ArialMT-32"/>
     <use x="1017.33398438" xlink:href="#ArialMT-3a"/>
     <use x="1045.1171875" xlink:href="#ArialMT-20"/>
     <use x="1072.90039062" xlink:href="#ArialMT-38"/>
     <use x="1128.515625" xlink:href="#ArialMT-31"/>
     <use x="1184.13085938" xlink:href="#ArialMT-20"/>
     <use x="1211.9140625" xlink:href="#ArialMT-62"/>
     <use x="1267.52929688" xlink:href="#ArialMT-61"/>
     <use x="1323.14453125" xlink:href="#ArialMT-72"/>
     <use x="1356.4453125" xlink:href="#ArialMT-63"/>
     <use x="1406.4453125" xlink:href="#ArialMT-6f"/>
     <use x="1462.06054688" xlink:href="#ArialMT-64"/>
     <use x="1517.67578125" xlink:href="#ArialMT-65"/>
     <use x="1573.29101562" xlink:href="#ArialMT-73"/>
    </g>
   </g>
   <g id="legend_1">
    <g id="line2d_34">
     <path d="M 379.675 48.657813 
L 399.675 48.657813 
" style="fill:none;stroke:#ff0000;stroke-linecap:round;stroke-width:3.0;"/>
    </g>
    <g id="line2d_35"/>
    <g id="text_19">
     <!-- raw values -->
     <g style="fill:#262626;" transform="translate(407.675 52.1578125)scale(0.1 -0.1)">
      <use xlink:href="#ArialMT-72"/>
      <use x="33.30078125" xlink:href="#ArialMT-61"/>
      <use x="88.916015625" xlink:href="#ArialMT-77"/>
      <use x="161.1328125" xlink:href="#ArialMT-20"/>
      <use x="188.916015625" xlink:href="#ArialMT-76"/>
      <use x="238.916015625" xlink:href="#ArialMT-61"/>
      <use x="294.53125" xlink:href="#ArialMT-6c"/>
      <use x="316.748046875" xlink:href="#ArialMT-75"/>
      <use x="372.36328125" xlink:href="#ArialMT-65"/>
      <use x="427.978515625" xlink:href="#ArialMT-73"/>
     </g>
    </g>
    <g id="line2d_36">
     <path d="M 379.675 62.803125 
L 399.675 62.803125 
" style="fill:none;opacity:0.8;stroke:#4c72b0;stroke-linecap:round;stroke-width:2.0;"/>
    </g>
    <g id="line2d_37"/>
    <g id="text_20">
     <!-- inversed FFT -->
     <defs>
      <path d="M 25.921875 0 
L 25.921875 63.140625 
L 2.34375 63.140625 
L 2.34375 71.578125 
L 59.078125 71.578125 
L 59.078125 63.140625 
L 35.40625 63.140625 
L 35.40625 0 
z
" id="ArialMT-54"/>
      <path d="M 8.203125 0 
L 8.203125 71.578125 
L 56.5 71.578125 
L 56.5 63.140625 
L 17.671875 63.140625 
L 17.671875 40.96875 
L 51.265625 40.96875 
L 51.265625 32.515625 
L 17.671875 32.515625 
L 17.671875 0 
z
" id="ArialMT-46"/>
     </defs>
     <g style="fill:#262626;" transform="translate(407.675 66.303125)scale(0.1 -0.1)">
      <use xlink:href="#ArialMT-69"/>
      <use x="22.216796875" xlink:href="#ArialMT-6e"/>
      <use x="77.83203125" xlink:href="#ArialMT-76"/>
      <use x="127.83203125" xlink:href="#ArialMT-65"/>
      <use x="183.447265625" xlink:href="#ArialMT-72"/>
      <use x="216.748046875" xlink:href="#ArialMT-73"/>
      <use x="266.748046875" xlink:href="#ArialMT-65"/>
      <use x="322.36328125" xlink:href="#ArialMT-64"/>
      <use x="377.978515625" xlink:href="#ArialMT-20"/>
      <use x="405.76171875" xlink:href="#ArialMT-46"/>
      <use x="466.845703125" xlink:href="#ArialMT-46"/>
      <use x="527.9296875" xlink:href="#ArialMT-54"/>
     </g>
    </g>
    <g id="line2d_38">
     <path d="M 379.675 76.948438 
L 399.675 76.948438 
" style="fill:none;stroke:#008000;stroke-linecap:round;stroke-width:2.0;"/>
    </g>
    <g id="line2d_39"/>
    <g id="text_21">
     <!-- threshold: 81 barcodes -->
     <defs>
      <path d="M 25.78125 7.859375 
L 27.046875 0.09375 
Q 23.34375 -0.6875 20.40625 -0.6875 
Q 15.625 -0.6875 12.984375 0.828125 
Q 10.359375 2.34375 9.28125 4.8125 
Q 8.203125 7.28125 8.203125 15.1875 
L 8.203125 45.015625 
L 1.765625 45.015625 
L 1.765625 51.859375 
L 8.203125 51.859375 
L 8.203125 64.703125 
L 16.9375 69.96875 
L 16.9375 51.859375 
L 25.78125 51.859375 
L 25.78125 45.015625 
L 16.9375 45.015625 
L 16.9375 14.703125 
Q 16.9375 10.9375 17.40625 9.859375 
Q 17.875 8.796875 18.921875 8.15625 
Q 19.96875 7.515625 21.921875 7.515625 
Q 23.390625 7.515625 25.78125 7.859375 
" id="ArialMT-74"/>
      <path d="M 6.59375 0 
L 6.59375 71.578125 
L 15.375 71.578125 
L 15.375 45.90625 
Q 21.53125 53.03125 30.90625 53.03125 
Q 36.671875 53.03125 40.921875 50.75 
Q 45.171875 48.484375 47 44.484375 
Q 48.828125 40.484375 48.828125 32.859375 
L 48.828125 0 
L 40.046875 0 
L 40.046875 32.859375 
Q 40.046875 39.453125 37.1875 42.453125 
Q 34.328125 45.453125 29.109375 45.453125 
Q 25.203125 45.453125 21.75 43.421875 
Q 18.3125 41.40625 16.84375 37.9375 
Q 15.375 34.46875 15.375 28.375 
L 15.375 0 
z
" id="ArialMT-68"/>
     </defs>
     <g style="fill:#262626;" transform="translate(407.675 80.4484375)scale(0.1 -0.1)">
      <use xlink:href="#ArialMT-74"/>
      <use x="27.783203125" xlink:href="#ArialMT-68"/>
      <use x="83.3984375" xlink:href="#ArialMT-72"/>
      <use x="116.69921875" xlink:href="#ArialMT-65"/>
      <use x="172.314453125" xlink:href="#ArialMT-73"/>
      <use x="222.314453125" xlink:href="#ArialMT-68"/>
      <use x="277.9296875" xlink:href="#ArialMT-6f"/>
      <use x="333.544921875" xlink:href="#ArialMT-6c"/>
      <use x="355.76171875" xlink:href="#ArialMT-64"/>
      <use x="411.376953125" xlink:href="#ArialMT-3a"/>
      <use x="439.16015625" xlink:href="#ArialMT-20"/>
      <use x="466.943359375" xlink:href="#ArialMT-38"/>
      <use x="522.55859375" xlink:href="#ArialMT-31"/>
      <use x="578.173828125" xlink:href="#ArialMT-20"/>
      <use x="605.95703125" xlink:href="#ArialMT-62"/>
      <use x="661.572265625" xlink:href="#ArialMT-61"/>
      <use x="717.1875" xlink:href="#ArialMT-72"/>
      <use x="750.48828125" xlink:href="#ArialMT-63"/>
      <use x="800.48828125" xlink:href="#ArialMT-6f"/>
      <use x="856.103515625" xlink:href="#ArialMT-64"/>
      <use x="911.71875" xlink:href="#ArialMT-65"/>
      <use x="967.333984375" xlink:href="#ArialMT-73"/>
     </g>
    </g>
   </g>
  </g>
 </g>
 <defs>
  <clipPath id="pad8b7a2342">
   <rect height="279.0" width="446.4" x="72.0" y="36.0"/>
  </clipPath>
 </defs>
</svg>
