<?xml version="1.0" encoding="utf-8" standalone="no"?>
<!DOCTYPE svg PUBLIC "-//W3C//DTD SVG 1.1//EN"
  "http://www.w3.org/Graphics/SVG/1.1/DTD/svg11.dtd">
<!-- Created with matplotlib (http://matplotlib.org/) -->
<svg height="360pt" version="1.1" viewBox="0 0 576 360" width="576pt" xmlns="http://www.w3.org/2000/svg" xmlns:xlink="http://www.w3.org/1999/xlink">
 <defs>
  <style type="text/css">
*{stroke-linecap:butt;stroke-linejoin:round;stroke-miterlimit:100000;}
  </style>
 </defs>
 <g id="figure_1">
  <g id="patch_1">
   <path d="M 0 360 
L 576 360 
L 576 0 
L 0 0 
z
" style="fill:#ffffff;"/>
  </g>
  <g id="axes_1">
   <g id="patch_2">
    <path d="M 72 315 
L 518.4 315 
L 518.4 36 
L 72 36 
z
" style="fill:#ffffff;"/>
   </g>
   <g id="matplotlib.axis_1">
    <g id="xtick_1">
     <g id="line2d_1">
      <defs>
       <path d="M 0 0 
L 0 0 
" id="mf3de1fca44" style="stroke:#262626;"/>
      </defs>
      <g>
       <use style="fill:#262626;stroke:#262626;" x="74.5306122449" xlink:href="#mf3de1fca44" y="315.0"/>
      </g>
     </g>
     <g id="line2d_2">
      <g>
       <use style="fill:#262626;stroke:#262626;" x="74.5306122449" xlink:href="#mf3de1fca44" y="36.0"/>
      </g>
     </g>
     <g id="text_1">
      <!-- 0 -->
      <defs>
       <path d="M 4.15625 35.296875 
Q 4.15625 48 6.765625 55.734375 
Q 9.375 63.484375 14.515625 67.671875 
Q 19.671875 71.875 27.484375 71.875 
Q 33.25 71.875 37.59375 69.546875 
Q 41.9375 67.234375 44.765625 62.859375 
Q 47.609375 58.5 49.21875 52.21875 
Q 50.828125 45.953125 50.828125 35.296875 
Q 50.828125 22.703125 48.234375 14.96875 
Q 45.65625 7.234375 40.5 3 
Q 35.359375 -1.21875 27.484375 -1.21875 
Q 17.140625 -1.21875 11.234375 6.203125 
Q 4.15625 15.140625 4.15625 35.296875 
M 13.1875 35.296875 
Q 13.1875 17.671875 17.3125 11.828125 
Q 21.4375 6 27.484375 6 
Q 33.546875 6 37.671875 11.859375 
Q 41.796875 17.71875 41.796875 35.296875 
Q 41.796875 52.984375 37.671875 58.78125 
Q 33.546875 64.59375 27.390625 64.59375 
Q 21.34375 64.59375 17.71875 59.46875 
Q 13.1875 52.9375 13.1875 35.296875 
" id="ArialMT-30"/>
      </defs>
      <g style="fill:#262626;" transform="translate(71.7501434949 329.1578125)scale(0.1 -0.1)">
       <use xlink:href="#ArialMT-30"/>
      </g>
     </g>
    </g>
    <g id="xtick_2">
     <g id="line2d_3">
      <g>
       <use style="fill:#262626;stroke:#262626;" x="201.06122449" xlink:href="#mf3de1fca44" y="315.0"/>
      </g>
     </g>
     <g id="line2d_4">
      <g>
       <use style="fill:#262626;stroke:#262626;" x="201.06122449" xlink:href="#mf3de1fca44" y="36.0"/>
      </g>
     </g>
     <g id="text_2">
      <!-- 500 -->
      <defs>
       <path d="M 4.15625 18.75 
L 13.375 19.53125 
Q 14.40625 12.796875 18.140625 9.390625 
Q 21.875 6 27.15625 6 
Q 33.5 6 37.890625 10.78125 
Q 42.28125 15.578125 42.28125 23.484375 
Q 42.28125 31 38.0625 35.34375 
Q 33.84375 39.703125 27 39.703125 
Q 22.75 39.703125 19.328125 37.765625 
Q 15.921875 35.84375 13.96875 32.765625 
L 5.71875 33.84375 
L 12.640625 70.609375 
L 48.25 70.609375 
L 48.25 62.203125 
L 19.671875 62.203125 
L 15.828125 42.96875 
Q 22.265625 47.46875 29.34375 47.46875 
Q 38.71875 47.46875 45.15625 40.96875 
Q 51.609375 34.46875 51.609375 24.265625 
Q 51.609375 14.546875 45.953125 7.46875 
Q 39.0625 -1.21875 27.15625 -1.21875 
Q 17.390625 -1.21875 11.203125 4.25 
Q 5.03125 9.71875 4.15625 18.75 
" id="ArialMT-35"/>
      </defs>
      <g style="fill:#262626;" transform="translate(192.71981824 329.1578125)scale(0.1 -0.1)">
       <use xlink:href="#ArialMT-35"/>
       <use x="55.615234375" xlink:href="#ArialMT-30"/>
       <use x="111.23046875" xlink:href="#ArialMT-30"/>
      </g>
     </g>
    </g>
    <g id="xtick_3">
     <g id="line2d_5">
      <g>
       <use style="fill:#262626;stroke:#262626;" x="327.591836735" xlink:href="#mf3de1fca44" y="315.0"/>
      </g>
     </g>
     <g id="line2d_6">
      <g>
       <use style="fill:#262626;stroke:#262626;" x="327.591836735" xlink:href="#mf3de1fca44" y="36.0"/>
      </g>
     </g>
     <g id="text_3">
      <!-- 1000 -->
      <defs>
       <path d="M 37.25 0 
L 28.46875 0 
L 28.46875 56 
Q 25.296875 52.984375 20.140625 49.953125 
Q 14.984375 46.921875 10.890625 45.40625 
L 10.890625 53.90625 
Q 18.265625 57.375 23.78125 62.296875 
Q 29.296875 67.234375 31.59375 71.875 
L 37.25 71.875 
z
" id="ArialMT-31"/>
      </defs>
      <g style="fill:#262626;" transform="translate(316.469961735 329.1578125)scale(0.1 -0.1)">
       <use xlink:href="#ArialMT-31"/>
       <use x="55.615234375" xlink:href="#ArialMT-30"/>
       <use x="111.23046875" xlink:href="#ArialMT-30"/>
       <use x="166.845703125" xlink:href="#ArialMT-30"/>
      </g>
     </g>
    </g>
    <g id="xtick_4">
     <g id="line2d_7">
      <g>
       <use style="fill:#262626;stroke:#262626;" x="454.12244898" xlink:href="#mf3de1fca44" y="315.0"/>
      </g>
     </g>
     <g id="line2d_8">
      <g>
       <use style="fill:#262626;stroke:#262626;" x="454.12244898" xlink:href="#mf3de1fca44" y="36.0"/>
      </g>
     </g>
     <g id="text_4">
      <!-- 1500 -->
      <g style="fill:#262626;" transform="translate(443.00057398 329.1578125)scale(0.1 -0.1)">
       <use xlink:href="#ArialMT-31"/>
       <use x="55.615234375" xlink:href="#ArialMT-35"/>
       <use x="111.23046875" xlink:href="#ArialMT-30"/>
       <use x="166.845703125" xlink:href="#ArialMT-30"/>
      </g>
     </g>
    </g>
    <g id="text_5">
     <!-- barcode, rank-ordered -->
     <defs>
      <path d="M 40.4375 19 
L 49.078125 17.875 
Q 47.65625 8.9375 41.8125 3.875 
Q 35.984375 -1.171875 27.484375 -1.171875 
Q 16.84375 -1.171875 10.375 5.78125 
Q 3.90625 12.75 3.90625 25.734375 
Q 3.90625 34.125 6.6875 40.421875 
Q 9.46875 46.734375 15.15625 49.875 
Q 20.84375 53.03125 27.546875 53.03125 
Q 35.984375 53.03125 41.359375 48.75 
Q 46.734375 44.484375 48.25 36.625 
L 39.703125 35.296875 
Q 38.484375 40.53125 35.375 43.15625 
Q 32.28125 45.796875 27.875 45.796875 
Q 21.234375 45.796875 17.078125 41.03125 
Q 12.9375 36.28125 12.9375 25.984375 
Q 12.9375 15.53125 16.9375 10.796875 
Q 20.953125 6.0625 27.390625 6.0625 
Q 32.5625 6.0625 36.03125 9.234375 
Q 39.5 12.40625 40.4375 19 
" id="ArialMT-63"/>
      <path d="M 14.703125 0 
L 6.546875 0 
L 6.546875 71.578125 
L 15.328125 71.578125 
L 15.328125 46.046875 
Q 20.90625 53.03125 29.546875 53.03125 
Q 34.328125 53.03125 38.59375 51.09375 
Q 42.875 49.171875 45.625 45.671875 
Q 48.390625 42.1875 49.953125 37.25 
Q 51.515625 32.328125 51.515625 26.703125 
Q 51.515625 13.375 44.921875 6.09375 
Q 38.328125 -1.171875 29.109375 -1.171875 
Q 19.921875 -1.171875 14.703125 6.5 
z
M 14.59375 26.3125 
Q 14.59375 17 17.140625 12.84375 
Q 21.296875 6.0625 28.375 6.0625 
Q 34.125 6.0625 38.328125 11.0625 
Q 42.53125 16.0625 42.53125 25.984375 
Q 42.53125 36.140625 38.5 40.96875 
Q 34.46875 45.796875 28.765625 45.796875 
Q 23 45.796875 18.796875 40.796875 
Q 14.59375 35.796875 14.59375 26.3125 
" id="ArialMT-62"/>
      <path d="M 40.4375 6.390625 
Q 35.546875 2.25 31.03125 0.53125 
Q 26.515625 -1.171875 21.34375 -1.171875 
Q 12.796875 -1.171875 8.203125 3 
Q 3.609375 7.171875 3.609375 13.671875 
Q 3.609375 17.484375 5.34375 20.625 
Q 7.078125 23.78125 9.890625 25.6875 
Q 12.703125 27.59375 16.21875 28.5625 
Q 18.796875 29.25 24.03125 29.890625 
Q 34.671875 31.15625 39.703125 32.90625 
Q 39.75 34.71875 39.75 35.203125 
Q 39.75 40.578125 37.25 42.78125 
Q 33.890625 45.75 27.25 45.75 
Q 21.046875 45.75 18.09375 43.578125 
Q 15.140625 41.40625 13.71875 35.890625 
L 5.125 37.0625 
Q 6.296875 42.578125 8.984375 45.96875 
Q 11.671875 49.359375 16.75 51.1875 
Q 21.828125 53.03125 28.515625 53.03125 
Q 35.15625 53.03125 39.296875 51.46875 
Q 43.453125 49.90625 45.40625 47.53125 
Q 47.359375 45.171875 48.140625 41.546875 
Q 48.578125 39.3125 48.578125 33.453125 
L 48.578125 21.734375 
Q 48.578125 9.46875 49.140625 6.21875 
Q 49.703125 2.984375 51.375 0 
L 42.1875 0 
Q 40.828125 2.734375 40.4375 6.390625 
M 39.703125 26.03125 
Q 34.90625 24.078125 25.34375 22.703125 
Q 19.921875 21.921875 17.671875 20.9375 
Q 15.4375 19.96875 14.203125 18.09375 
Q 12.984375 16.21875 12.984375 13.921875 
Q 12.984375 10.40625 15.640625 8.0625 
Q 18.3125 5.71875 23.4375 5.71875 
Q 28.515625 5.71875 32.46875 7.9375 
Q 36.421875 10.15625 38.28125 14.015625 
Q 39.703125 17 39.703125 22.796875 
z
" id="ArialMT-61"/>
      <path d="M 42.09375 16.703125 
L 51.171875 15.578125 
Q 49.03125 7.625 43.21875 3.21875 
Q 37.40625 -1.171875 28.375 -1.171875 
Q 17 -1.171875 10.328125 5.828125 
Q 3.65625 12.84375 3.65625 25.484375 
Q 3.65625 38.578125 10.390625 45.796875 
Q 17.140625 53.03125 27.875 53.03125 
Q 38.28125 53.03125 44.875 45.953125 
Q 51.46875 38.875 51.46875 26.03125 
Q 51.46875 25.25 51.421875 23.6875 
L 12.75 23.6875 
Q 13.234375 15.140625 17.578125 10.59375 
Q 21.921875 6.0625 28.421875 6.0625 
Q 33.25 6.0625 36.671875 8.59375 
Q 40.09375 11.140625 42.09375 16.703125 
M 13.234375 30.90625 
L 42.1875 30.90625 
Q 41.609375 37.453125 38.875 40.71875 
Q 34.671875 45.796875 27.984375 45.796875 
Q 21.921875 45.796875 17.796875 41.75 
Q 13.671875 37.703125 13.234375 30.90625 
" id="ArialMT-65"/>
      <path d="M 40.234375 0 
L 40.234375 6.546875 
Q 35.296875 -1.171875 25.734375 -1.171875 
Q 19.53125 -1.171875 14.328125 2.25 
Q 9.125 5.671875 6.265625 11.796875 
Q 3.421875 17.921875 3.421875 25.875 
Q 3.421875 33.640625 6 39.96875 
Q 8.59375 46.296875 13.765625 49.65625 
Q 18.953125 53.03125 25.34375 53.03125 
Q 30.03125 53.03125 33.6875 51.046875 
Q 37.359375 49.078125 39.65625 45.90625 
L 39.65625 71.578125 
L 48.390625 71.578125 
L 48.390625 0 
z
M 12.453125 25.875 
Q 12.453125 15.921875 16.640625 10.984375 
Q 20.84375 6.0625 26.5625 6.0625 
Q 32.328125 6.0625 36.34375 10.765625 
Q 40.375 15.484375 40.375 25.140625 
Q 40.375 35.796875 36.265625 40.765625 
Q 32.171875 45.75 26.171875 45.75 
Q 20.3125 45.75 16.375 40.96875 
Q 12.453125 36.1875 12.453125 25.875 
" id="ArialMT-64"/>
      <path d="M 3.171875 21.484375 
L 3.171875 30.328125 
L 30.171875 30.328125 
L 30.171875 21.484375 
z
" id="ArialMT-2d"/>
      <path d="M 8.890625 0 
L 8.890625 10.015625 
L 18.890625 10.015625 
L 18.890625 0 
Q 18.890625 -5.515625 16.9375 -8.90625 
Q 14.984375 -12.3125 10.75 -14.15625 
L 8.296875 -10.40625 
Q 11.078125 -9.1875 12.390625 -6.8125 
Q 13.71875 -4.4375 13.875 0 
z
" id="ArialMT-2c"/>
      <path d="M 6.5 0 
L 6.5 51.859375 
L 14.40625 51.859375 
L 14.40625 44 
Q 17.4375 49.515625 20 51.265625 
Q 22.5625 53.03125 25.640625 53.03125 
Q 30.078125 53.03125 34.671875 50.203125 
L 31.640625 42.046875 
Q 28.421875 43.953125 25.203125 43.953125 
Q 22.3125 43.953125 20.015625 42.21875 
Q 17.71875 40.484375 16.75 37.40625 
Q 15.28125 32.71875 15.28125 27.15625 
L 15.28125 0 
z
" id="ArialMT-72"/>
      <path d="M 6.640625 0 
L 6.640625 71.578125 
L 15.4375 71.578125 
L 15.4375 30.765625 
L 36.234375 51.859375 
L 47.609375 51.859375 
L 27.78125 32.625 
L 49.609375 0 
L 38.765625 0 
L 21.625 26.515625 
L 15.4375 20.5625 
L 15.4375 0 
z
" id="ArialMT-6b"/>
      <path d="M 3.328125 25.921875 
Q 3.328125 40.328125 11.328125 47.265625 
Q 18.015625 53.03125 27.640625 53.03125 
Q 38.328125 53.03125 45.109375 46.015625 
Q 51.90625 39.015625 51.90625 26.65625 
Q 51.90625 16.65625 48.90625 10.90625 
Q 45.90625 5.171875 40.15625 2 
Q 34.421875 -1.171875 27.640625 -1.171875 
Q 16.75 -1.171875 10.03125 5.8125 
Q 3.328125 12.796875 3.328125 25.921875 
M 12.359375 25.921875 
Q 12.359375 15.96875 16.703125 11.015625 
Q 21.046875 6.0625 27.640625 6.0625 
Q 34.1875 6.0625 38.53125 11.03125 
Q 42.875 16.015625 42.875 26.21875 
Q 42.875 35.84375 38.5 40.796875 
Q 34.125 45.75 27.640625 45.75 
Q 21.046875 45.75 16.703125 40.8125 
Q 12.359375 35.890625 12.359375 25.921875 
" id="ArialMT-6f"/>
      <path d="M 6.59375 0 
L 6.59375 51.859375 
L 14.5 51.859375 
L 14.5 44.484375 
Q 20.21875 53.03125 31 53.03125 
Q 35.6875 53.03125 39.625 51.34375 
Q 43.5625 49.65625 45.515625 46.921875 
Q 47.46875 44.1875 48.25 40.4375 
Q 48.734375 37.984375 48.734375 31.890625 
L 48.734375 0 
L 39.9375 0 
L 39.9375 31.546875 
Q 39.9375 36.921875 38.90625 39.578125 
Q 37.890625 42.234375 35.28125 43.8125 
Q 32.671875 45.40625 29.15625 45.40625 
Q 23.53125 45.40625 19.453125 41.84375 
Q 15.375 38.28125 15.375 28.328125 
L 15.375 0 
z
" id="ArialMT-6e"/>
      <path id="ArialMT-20"/>
     </defs>
     <g style="fill:#262626;" transform="translate(240.785234375 344.01890625)scale(0.11 -0.11)">
      <use xlink:href="#ArialMT-62"/>
      <use x="55.615234375" xlink:href="#ArialMT-61"/>
      <use x="111.23046875" xlink:href="#ArialMT-72"/>
      <use x="144.53125" xlink:href="#ArialMT-63"/>
      <use x="194.53125" xlink:href="#ArialMT-6f"/>
      <use x="250.146484375" xlink:href="#ArialMT-64"/>
      <use x="305.76171875" xlink:href="#ArialMT-65"/>
      <use x="361.376953125" xlink:href="#ArialMT-2c"/>
      <use x="389.16015625" xlink:href="#ArialMT-20"/>
      <use x="416.943359375" xlink:href="#ArialMT-72"/>
      <use x="450.244140625" xlink:href="#ArialMT-61"/>
      <use x="505.859375" xlink:href="#ArialMT-6e"/>
      <use x="561.474609375" xlink:href="#ArialMT-6b"/>
      <use x="611.474609375" xlink:href="#ArialMT-2d"/>
      <use x="644.775390625" xlink:href="#ArialMT-6f"/>
      <use x="700.390625" xlink:href="#ArialMT-72"/>
      <use x="733.69140625" xlink:href="#ArialMT-64"/>
      <use x="789.306640625" xlink:href="#ArialMT-65"/>
      <use x="844.921875" xlink:href="#ArialMT-72"/>
      <use x="878.22265625" xlink:href="#ArialMT-65"/>
      <use x="933.837890625" xlink:href="#ArialMT-64"/>
     </g>
    </g>
   </g>
   <g id="matplotlib.axis_2">
    <g id="ytick_1">
     <g id="line2d_9">
      <g>
       <use style="fill:#262626;stroke:#262626;" x="72.0" xlink:href="#mf3de1fca44" y="315.0"/>
      </g>
     </g>
     <g id="line2d_10">
      <g>
       <use style="fill:#262626;stroke:#262626;" x="518.4" xlink:href="#mf3de1fca44" y="315.0"/>
      </g>
     </g>
     <g id="text_6">
      <!-- 0.0 -->
      <defs>
       <path d="M 9.078125 0 
L 9.078125 10.015625 
L 19.09375 10.015625 
L 19.09375 0 
z
" id="ArialMT-2e"/>
      </defs>
      <g style="fill:#262626;" transform="translate(51.1 317.58515625)scale(0.1 -0.1)">
       <use xlink:href="#ArialMT-30"/>
       <use x="55.615234375" xlink:href="#ArialMT-2e"/>
       <use x="83.3984375" xlink:href="#ArialMT-30"/>
      </g>
     </g>
    </g>
    <g id="ytick_2">
     <g id="line2d_11">
      <g>
       <use style="fill:#262626;stroke:#262626;" x="72.0" xlink:href="#mf3de1fca44" y="270.715534939"/>
      </g>
     </g>
     <g id="line2d_12">
      <g>
       <use style="fill:#262626;stroke:#262626;" x="518.4" xlink:href="#mf3de1fca44" y="270.715534939"/>
      </g>
     </g>
     <g id="text_7">
      <!-- 0.5 -->
      <g style="fill:#262626;" transform="translate(51.1 273.300691189)scale(0.1 -0.1)">
       <use xlink:href="#ArialMT-30"/>
       <use x="55.615234375" xlink:href="#ArialMT-2e"/>
       <use x="83.3984375" xlink:href="#ArialMT-35"/>
      </g>
     </g>
    </g>
    <g id="ytick_3">
     <g id="line2d_13">
      <g>
       <use style="fill:#262626;stroke:#262626;" x="72.0" xlink:href="#mf3de1fca44" y="226.431069878"/>
      </g>
     </g>
     <g id="line2d_14">
      <g>
       <use style="fill:#262626;stroke:#262626;" x="518.4" xlink:href="#mf3de1fca44" y="226.431069878"/>
      </g>
     </g>
     <g id="text_8">
      <!-- 1.0 -->
      <g style="fill:#262626;" transform="translate(51.1 229.016226128)scale(0.1 -0.1)">
       <use xlink:href="#ArialMT-31"/>
       <use x="55.615234375" xlink:href="#ArialMT-2e"/>
       <use x="83.3984375" xlink:href="#ArialMT-30"/>
      </g>
     </g>
    </g>
    <g id="ytick_4">
     <g id="line2d_15">
      <g>
       <use style="fill:#262626;stroke:#262626;" x="72.0" xlink:href="#mf3de1fca44" y="182.146604817"/>
      </g>
     </g>
     <g id="line2d_16">
      <g>
       <use style="fill:#262626;stroke:#262626;" x="518.4" xlink:href="#mf3de1fca44" y="182.146604817"/>
      </g>
     </g>
     <g id="text_9">
      <!-- 1.5 -->
      <g style="fill:#262626;" transform="translate(51.1 184.731761067)scale(0.1 -0.1)">
       <use xlink:href="#ArialMT-31"/>
       <use x="55.615234375" xlink:href="#ArialMT-2e"/>
       <use x="83.3984375" xlink:href="#ArialMT-35"/>
      </g>
     </g>
    </g>
    <g id="ytick_5">
     <g id="line2d_17">
      <g>
       <use style="fill:#262626;stroke:#262626;" x="72.0" xlink:href="#mf3de1fca44" y="137.862139756"/>
      </g>
     </g>
     <g id="line2d_18">
      <g>
       <use style="fill:#262626;stroke:#262626;" x="518.4" xlink:href="#mf3de1fca44" y="137.862139756"/>
      </g>
     </g>
     <g id="text_10">
      <!-- 2.0 -->
      <defs>
       <path d="M 50.34375 8.453125 
L 50.34375 0 
L 3.03125 0 
Q 2.9375 3.171875 4.046875 6.109375 
Q 5.859375 10.9375 9.828125 15.625 
Q 13.8125 20.3125 21.34375 26.46875 
Q 33.015625 36.03125 37.109375 41.625 
Q 41.21875 47.21875 41.21875 52.203125 
Q 41.21875 57.421875 37.46875 61 
Q 33.734375 64.59375 27.734375 64.59375 
Q 21.390625 64.59375 17.578125 60.78125 
Q 13.765625 56.984375 13.71875 50.25 
L 4.6875 51.171875 
Q 5.609375 61.28125 11.65625 66.578125 
Q 17.71875 71.875 27.9375 71.875 
Q 38.234375 71.875 44.234375 66.15625 
Q 50.25 60.453125 50.25 52 
Q 50.25 47.703125 48.484375 43.546875 
Q 46.734375 39.40625 42.65625 34.8125 
Q 38.578125 30.21875 29.109375 22.21875 
Q 21.1875 15.578125 18.9375 13.203125 
Q 16.703125 10.84375 15.234375 8.453125 
z
" id="ArialMT-32"/>
      </defs>
      <g style="fill:#262626;" transform="translate(51.1 140.447296006)scale(0.1 -0.1)">
       <use xlink:href="#ArialMT-32"/>
       <use x="55.615234375" xlink:href="#ArialMT-2e"/>
       <use x="83.3984375" xlink:href="#ArialMT-30"/>
      </g>
     </g>
    </g>
    <g id="ytick_6">
     <g id="line2d_19">
      <g>
       <use style="fill:#262626;stroke:#262626;" x="72.0" xlink:href="#mf3de1fca44" y="93.577674695"/>
      </g>
     </g>
     <g id="line2d_20">
      <g>
       <use style="fill:#262626;stroke:#262626;" x="518.4" xlink:href="#mf3de1fca44" y="93.577674695"/>
      </g>
     </g>
     <g id="text_11">
      <!-- 2.5 -->
      <g style="fill:#262626;" transform="translate(51.1 96.162830945)scale(0.1 -0.1)">
       <use xlink:href="#ArialMT-32"/>
       <use x="55.615234375" xlink:href="#ArialMT-2e"/>
       <use x="83.3984375" xlink:href="#ArialMT-35"/>
      </g>
     </g>
    </g>
    <g id="ytick_7">
     <g id="line2d_21">
      <g>
       <use style="fill:#262626;stroke:#262626;" x="72.0" xlink:href="#mf3de1fca44" y="49.293209634"/>
      </g>
     </g>
     <g id="line2d_22">
      <g>
       <use style="fill:#262626;stroke:#262626;" x="518.4" xlink:href="#mf3de1fca44" y="49.293209634"/>
      </g>
     </g>
     <g id="text_12">
      <!-- 3.0 -->
      <defs>
       <path d="M 4.203125 18.890625 
L 12.984375 20.0625 
Q 14.5 12.59375 18.140625 9.296875 
Q 21.78125 6 27 6 
Q 33.203125 6 37.46875 10.296875 
Q 41.75 14.59375 41.75 20.953125 
Q 41.75 27 37.796875 30.921875 
Q 33.84375 34.859375 27.734375 34.859375 
Q 25.25 34.859375 21.53125 33.890625 
L 22.515625 41.609375 
Q 23.390625 41.5 23.921875 41.5 
Q 29.546875 41.5 34.03125 44.421875 
Q 38.53125 47.359375 38.53125 53.46875 
Q 38.53125 58.296875 35.25 61.46875 
Q 31.984375 64.65625 26.8125 64.65625 
Q 21.6875 64.65625 18.265625 61.421875 
Q 14.84375 58.203125 13.875 51.765625 
L 5.078125 53.328125 
Q 6.6875 62.15625 12.390625 67.015625 
Q 18.109375 71.875 26.609375 71.875 
Q 32.46875 71.875 37.390625 69.359375 
Q 42.328125 66.84375 44.9375 62.5 
Q 47.5625 58.15625 47.5625 53.265625 
Q 47.5625 48.640625 45.0625 44.828125 
Q 42.578125 41.015625 37.703125 38.765625 
Q 44.046875 37.3125 47.5625 32.6875 
Q 51.078125 28.078125 51.078125 21.140625 
Q 51.078125 11.765625 44.234375 5.25 
Q 37.40625 -1.265625 26.953125 -1.265625 
Q 17.53125 -1.265625 11.296875 4.34375 
Q 5.078125 9.96875 4.203125 18.890625 
" id="ArialMT-33"/>
      </defs>
      <g style="fill:#262626;" transform="translate(51.1 51.878365884)scale(0.1 -0.1)">
       <use xlink:href="#ArialMT-33"/>
       <use x="55.615234375" xlink:href="#ArialMT-2e"/>
       <use x="83.3984375" xlink:href="#ArialMT-30"/>
      </g>
     </g>
    </g>
    <g id="text_13">
     <!-- log10 abundance (# molecules) -->
     <defs>
      <path d="M 4.984375 -4.296875 
L 13.53125 -5.5625 
Q 14.0625 -9.515625 16.5 -11.328125 
Q 19.78125 -13.765625 25.4375 -13.765625 
Q 31.546875 -13.765625 34.859375 -11.328125 
Q 38.1875 -8.890625 39.359375 -4.5 
Q 40.046875 -1.8125 39.984375 6.78125 
Q 34.234375 0 25.640625 0 
Q 14.9375 0 9.078125 7.71875 
Q 3.21875 15.4375 3.21875 26.21875 
Q 3.21875 33.640625 5.90625 39.90625 
Q 8.59375 46.1875 13.6875 49.609375 
Q 18.796875 53.03125 25.6875 53.03125 
Q 34.859375 53.03125 40.828125 45.609375 
L 40.828125 51.859375 
L 48.921875 51.859375 
L 48.921875 7.03125 
Q 48.921875 -5.078125 46.453125 -10.125 
Q 44 -15.1875 38.640625 -18.109375 
Q 33.296875 -21.046875 25.484375 -21.046875 
Q 16.21875 -21.046875 10.5 -16.875 
Q 4.78125 -12.703125 4.984375 -4.296875 
M 12.25 26.859375 
Q 12.25 16.65625 16.296875 11.96875 
Q 20.359375 7.28125 26.46875 7.28125 
Q 32.515625 7.28125 36.609375 11.9375 
Q 40.71875 16.609375 40.71875 26.5625 
Q 40.71875 36.078125 36.5 40.90625 
Q 32.28125 45.75 26.3125 45.75 
Q 20.453125 45.75 16.34375 40.984375 
Q 12.25 36.234375 12.25 26.859375 
" id="ArialMT-67"/>
      <path d="M 40.578125 0 
L 40.578125 7.625 
Q 34.515625 -1.171875 24.125 -1.171875 
Q 19.53125 -1.171875 15.546875 0.578125 
Q 11.578125 2.34375 9.640625 5 
Q 7.71875 7.671875 6.9375 11.53125 
Q 6.390625 14.109375 6.390625 19.734375 
L 6.390625 51.859375 
L 15.1875 51.859375 
L 15.1875 23.09375 
Q 15.1875 16.21875 15.71875 13.8125 
Q 16.546875 10.359375 19.234375 8.375 
Q 21.921875 6.390625 25.875 6.390625 
Q 29.828125 6.390625 33.296875 8.421875 
Q 36.765625 10.453125 38.203125 13.9375 
Q 39.65625 17.4375 39.65625 24.078125 
L 39.65625 51.859375 
L 48.4375 51.859375 
L 48.4375 0 
z
" id="ArialMT-75"/>
      <path d="M 23.390625 -21.046875 
Q 16.109375 -11.859375 11.078125 0.4375 
Q 6.0625 12.75 6.0625 25.921875 
Q 6.0625 37.546875 9.8125 48.1875 
Q 14.203125 60.546875 23.390625 72.796875 
L 29.6875 72.796875 
Q 23.78125 62.640625 21.875 58.296875 
Q 18.890625 51.5625 17.1875 44.234375 
Q 15.09375 35.109375 15.09375 25.875 
Q 15.09375 2.390625 29.6875 -21.046875 
z
" id="ArialMT-28"/>
      <path d="M 3.078125 15.484375 
L 11.765625 16.84375 
Q 12.5 11.625 15.84375 8.84375 
Q 19.1875 6.0625 25.203125 6.0625 
Q 31.25 6.0625 34.171875 8.515625 
Q 37.109375 10.984375 37.109375 14.3125 
Q 37.109375 17.28125 34.515625 19 
Q 32.71875 20.171875 25.53125 21.96875 
Q 15.875 24.421875 12.140625 26.203125 
Q 8.40625 27.984375 6.46875 31.125 
Q 4.546875 34.28125 4.546875 38.09375 
Q 4.546875 41.546875 6.125 44.5 
Q 7.71875 47.46875 10.453125 49.421875 
Q 12.5 50.921875 16.03125 51.96875 
Q 19.578125 53.03125 23.640625 53.03125 
Q 29.734375 53.03125 34.34375 51.265625 
Q 38.96875 49.515625 41.15625 46.5 
Q 43.359375 43.5 44.1875 38.484375 
L 35.59375 37.3125 
Q 35.015625 41.3125 32.203125 43.546875 
Q 29.390625 45.796875 24.265625 45.796875 
Q 18.21875 45.796875 15.625 43.796875 
Q 13.03125 41.796875 13.03125 39.109375 
Q 13.03125 37.40625 14.109375 36.03125 
Q 15.1875 34.625 17.484375 33.6875 
Q 18.796875 33.203125 25.25 31.453125 
Q 34.578125 28.953125 38.25 27.359375 
Q 41.9375 25.78125 44.03125 22.75 
Q 46.140625 19.734375 46.140625 15.234375 
Q 46.140625 10.84375 43.578125 6.953125 
Q 41.015625 3.078125 36.171875 0.953125 
Q 31.34375 -1.171875 25.25 -1.171875 
Q 15.140625 -1.171875 9.84375 3.03125 
Q 4.546875 7.234375 3.078125 15.484375 
" id="ArialMT-73"/>
      <path d="M 6.390625 0 
L 6.390625 71.578125 
L 15.1875 71.578125 
L 15.1875 0 
z
" id="ArialMT-6c"/>
      <path d="M 12.359375 -21.046875 
L 6.0625 -21.046875 
Q 20.65625 2.390625 20.65625 25.875 
Q 20.65625 35.0625 18.5625 44.09375 
Q 16.890625 51.421875 13.921875 58.15625 
Q 12.015625 62.546875 6.0625 72.796875 
L 12.359375 72.796875 
Q 21.53125 60.546875 25.921875 48.1875 
Q 29.6875 37.546875 29.6875 25.921875 
Q 29.6875 12.75 24.625 0.4375 
Q 19.578125 -11.859375 12.359375 -21.046875 
" id="ArialMT-29"/>
      <path d="M 6.59375 0 
L 6.59375 51.859375 
L 14.453125 51.859375 
L 14.453125 44.578125 
Q 16.890625 48.390625 20.9375 50.703125 
Q 25 53.03125 30.171875 53.03125 
Q 35.9375 53.03125 39.625 50.640625 
Q 43.3125 48.25 44.828125 43.953125 
Q 50.984375 53.03125 60.84375 53.03125 
Q 68.5625 53.03125 72.703125 48.75 
Q 76.859375 44.484375 76.859375 35.59375 
L 76.859375 0 
L 68.109375 0 
L 68.109375 32.671875 
Q 68.109375 37.9375 67.25 40.25 
Q 66.40625 42.578125 64.15625 43.984375 
Q 61.921875 45.40625 58.890625 45.40625 
Q 53.421875 45.40625 49.796875 41.765625 
Q 46.1875 38.140625 46.1875 30.125 
L 46.1875 0 
L 37.40625 0 
L 37.40625 33.6875 
Q 37.40625 39.546875 35.25 42.46875 
Q 33.109375 45.40625 28.21875 45.40625 
Q 24.515625 45.40625 21.359375 43.453125 
Q 18.21875 41.5 16.796875 37.734375 
Q 15.375 33.984375 15.375 26.90625 
L 15.375 0 
z
" id="ArialMT-6d"/>
      <path d="M 5.03125 -1.21875 
L 9.28125 19.578125 
L 1.03125 19.578125 
L 1.03125 26.859375 
L 10.75 26.859375 
L 14.359375 44.578125 
L 1.03125 44.578125 
L 1.03125 51.859375 
L 15.828125 51.859375 
L 20.0625 72.796875 
L 27.390625 72.796875 
L 23.140625 51.859375 
L 38.53125 51.859375 
L 42.78125 72.796875 
L 50.140625 72.796875 
L 45.90625 51.859375 
L 54.34375 51.859375 
L 54.34375 44.578125 
L 44.4375 44.578125 
L 40.765625 26.859375 
L 54.34375 26.859375 
L 54.34375 19.578125 
L 39.3125 19.578125 
L 35.0625 -1.21875 
L 27.734375 -1.21875 
L 31.9375 19.578125 
L 16.609375 19.578125 
L 12.359375 -1.21875 
z
M 18.0625 26.859375 
L 33.40625 26.859375 
L 37.0625 44.578125 
L 21.6875 44.578125 
z
" id="ArialMT-23"/>
     </defs>
     <g style="fill:#262626;" transform="translate(43.78484375 252.23875)rotate(-90.0)scale(0.11 -0.11)">
      <use xlink:href="#ArialMT-6c"/>
      <use x="22.216796875" xlink:href="#ArialMT-6f"/>
      <use x="77.83203125" xlink:href="#ArialMT-67"/>
      <use x="133.447265625" xlink:href="#ArialMT-31"/>
      <use x="189.0625" xlink:href="#ArialMT-30"/>
      <use x="244.677734375" xlink:href="#ArialMT-20"/>
      <use x="272.4609375" xlink:href="#ArialMT-61"/>
      <use x="328.076171875" xlink:href="#ArialMT-62"/>
      <use x="383.69140625" xlink:href="#ArialMT-75"/>
      <use x="439.306640625" xlink:href="#ArialMT-6e"/>
      <use x="494.921875" xlink:href="#ArialMT-64"/>
      <use x="550.537109375" xlink:href="#ArialMT-61"/>
      <use x="606.15234375" xlink:href="#ArialMT-6e"/>
      <use x="661.767578125" xlink:href="#ArialMT-63"/>
      <use x="711.767578125" xlink:href="#ArialMT-65"/>
      <use x="767.3828125" xlink:href="#ArialMT-20"/>
      <use x="795.166015625" xlink:href="#ArialMT-28"/>
      <use x="828.466796875" xlink:href="#ArialMT-23"/>
      <use x="884.08203125" xlink:href="#ArialMT-20"/>
      <use x="911.865234375" xlink:href="#ArialMT-6d"/>
      <use x="995.166015625" xlink:href="#ArialMT-6f"/>
      <use x="1050.78125" xlink:href="#ArialMT-6c"/>
      <use x="1072.99804688" xlink:href="#ArialMT-65"/>
      <use x="1128.61328125" xlink:href="#ArialMT-63"/>
      <use x="1178.61328125" xlink:href="#ArialMT-75"/>
      <use x="1234.22851562" xlink:href="#ArialMT-6c"/>
      <use x="1256.4453125" xlink:href="#ArialMT-65"/>
      <use x="1312.06054688" xlink:href="#ArialMT-73"/>
      <use x="1362.06054688" xlink:href="#ArialMT-29"/>
     </g>
    </g>
   </g>
   <g id="line2d_23">
    <path clip-path="url(#p72f941e060)" d="M 74.530612 42.248171 
L 74.783673 52.458696 
L 75.036735 53.132799 
L 75.289796 53.303186 
L 75.542857 54.035875 
L 75.795918 54.29784 
L 76.04898 54.385559 
L 76.302041 56.926625 
L 76.808163 58.506616 
L 77.061224 61.083699 
L 77.314286 61.083699 
L 77.567347 63.343832 
L 77.820408 64.01475 
L 78.073469 65.922496 
L 78.326531 66.219984 
L 78.579592 67.992315 
L 79.085714 68.432638 
L 79.338776 68.495955 
L 79.591837 69.719213 
L 80.35102 71.595927 
L 80.857143 72.149389 
L 81.616327 73.932146 
L 81.869388 74.005204 
L 82.122449 74.298831 
L 82.628571 74.520532 
L 83.134694 74.743518 
L 83.387755 75.572375 
L 83.640816 75.801561 
L 83.893878 75.878261 
L 84.146939 76.575531 
L 84.653061 76.810792 
L 84.906122 76.810792 
L 85.412245 77.0475 
L 85.665306 77.605551 
L 85.918367 79.078859 
L 86.171429 79.752224 
L 86.42449 80.872225 
L 86.930612 81.311829 
L 87.183673 81.311829 
L 87.436735 81.846074 
L 87.942857 83.494826 
L 88.195918 83.494826 
L 88.44898 83.682461 
L 88.702041 85.413678 
L 88.955102 85.413678 
L 89.208163 86.108548 
L 89.461224 86.30941 
L 89.714286 87.955223 
L 89.967347 88.165991 
L 90.473469 88.805313 
L 90.726531 89.129003 
L 90.979592 89.784672 
L 91.232653 91.130524 
L 91.485714 91.359483 
L 91.738776 92.054652 
L 91.991837 92.054652 
L 93.510204 95.604021 
L 93.763265 95.732452 
L 94.016327 96.120337 
L 94.522449 96.381118 
L 94.77551 96.775634 
L 95.281633 97.040911 
L 95.534694 97.577017 
L 95.787755 97.712219 
L 96.546939 98.533567 
L 96.8 99.372837 
L 97.053061 99.372837 
L 97.559184 99.79944 
L 98.065306 100.086494 
L 98.318367 100.813642 
L 98.571429 100.813642 
L 99.077551 101.108394 
L 99.330612 101.704763 
L 99.583673 102.006451 
L 99.836735 102.006451 
L 100.342857 103.081391 
L 100.84898 104.347843 
L 101.102041 104.67108 
L 101.861224 104.67108 
L 102.114286 105.161086 
L 102.620408 107.359685 
L 103.379592 108.239929 
L 103.885714 108.597745 
L 104.138776 108.597745 
L 104.391837 109.323522 
L 104.644898 109.323522 
L 105.404082 110.817496 
L 105.657143 110.817496 
L 105.910204 111.393043 
L 106.163265 111.586821 
L 106.922449 112.770453 
L 107.17551 113.376214 
L 107.428571 113.580272 
L 107.681633 113.580272 
L 107.934694 113.78542 
L 108.187755 114.617128 
L 108.440816 114.617128 
L 108.693878 115.039824 
L 108.946939 115.039824 
L 109.453061 115.467217 
L 109.706122 115.467217 
L 109.959184 118.367402 
L 110.212245 118.367402 
L 110.465306 118.599819 
L 110.718367 119.068911 
L 110.971429 119.068911 
L 111.22449 119.543793 
L 111.477551 120.267294 
L 111.730612 120.267294 
L 111.983673 120.757301 
L 112.236735 121.004665 
L 112.489796 121.004665 
L 112.742857 121.504217 
L 112.995918 121.504217 
L 114.008163 122.523217 
L 114.261224 123.569948 
L 114.514286 123.836143 
L 115.020408 123.836143 
L 115.273469 124.104193 
L 115.526531 124.104193 
L 115.779592 124.374124 
L 116.032653 124.919736 
L 116.285714 124.919736 
L 116.538776 125.752945 
L 116.791837 125.752945 
L 117.044898 126.318617 
L 117.297959 126.604604 
L 117.55102 126.604604 
L 117.804082 127.475547 
L 118.563265 127.475547 
L 118.816327 129.278924 
L 119.069388 129.89934 
L 119.57551 131.495627 
L 120.334694 131.495627 
L 120.840816 132.153165 
L 121.6 132.153165 
L 122.106122 132.822138 
L 122.359184 134.901833 
L 122.612245 134.901833 
L 122.865306 135.25965 
L 123.118367 135.985426 
L 123.371429 137.100432 
L 123.877551 140.242177 
L 124.130612 141.069413 
L 124.383673 141.069413 
L 124.636735 141.914832 
L 124.889796 141.914832 
L 125.142857 142.77925 
L 125.395918 142.77925 
L 125.64898 143.218855 
L 125.902041 144.11343 
L 126.408163 144.11343 
L 126.661224 146.445356 
L 126.914286 146.445356 
L 127.167347 147.419205 
L 127.420408 147.915535 
L 127.926531 147.915535 
L 128.179592 148.92783 
L 128.432653 148.92783 
L 128.685714 149.967488 
L 128.938776 150.498048 
L 129.191837 151.581641 
L 129.444898 153.84494 
L 129.95102 153.84494 
L 130.204082 155.028572 
L 130.457143 155.028572 
L 130.963265 156.249786 
L 131.216327 156.249786 
L 131.722449 157.511046 
L 132.481633 157.511046 
L 133.493878 160.164857 
L 133.746939 160.164857 
L 134 160.857939 
L 134.253061 162.282731 
L 134.506122 163.01542 
L 135.265306 163.01542 
L 135.518367 163.762336 
L 136.02449 163.762336 
L 136.530612 165.301141 
L 136.783673 165.301141 
L 137.289796 166.904082 
L 138.04898 166.904082 
L 138.808163 169.441155 
L 139.314286 169.441155 
L 139.567347 170.325447 
L 140.073469 170.325447 
L 140.579592 172.157459 
L 140.832653 172.157459 
L 141.085714 173.107261 
L 142.604082 173.107261 
L 142.857143 174.08111 
L 143.869388 174.08111 
L 144.122449 175.080257 
L 144.628571 175.080257 
L 144.881633 177.159953 
L 145.387755 177.159953 
L 145.640816 178.243545 
L 146.146939 178.243545 
L 146.4 179.358551 
L 147.159184 179.358551 
L 147.412245 180.506845 
L 148.171429 180.506845 
L 148.42449 181.690477 
L 149.689796 181.690477 
L 149.942857 182.91169 
L 151.967347 182.91169 
L 152.220408 184.172951 
L 153.485714 184.172951 
L 153.738776 185.476974 
L 156.016327 185.476974 
L 156.269388 186.826761 
L 157.534694 186.826761 
L 157.787755 188.225643 
L 158.8 188.225643 
L 159.053061 189.677324 
L 160.318367 189.677324 
L 160.571429 191.185949 
L 163.355102 191.185949 
L 163.608163 192.756167 
L 165.379592 192.756167 
L 165.632653 194.393222 
L 168.669388 194.393222 
L 168.922449 196.103059 
L 170.946939 196.103059 
L 171.2 197.892452 
L 173.983673 197.892452 
L 174.236735 199.769165 
L 177.273469 199.769165 
L 177.526531 201.742162 
L 182.081633 201.742162 
L 182.334694 203.821857 
L 188.155102 203.821857 
L 188.408163 206.020455 
L 191.95102 206.020455 
L 192.204082 208.352381 
L 198.783673 208.352381 
L 199.036735 210.834855 
L 207.387755 210.834855 
L 207.640816 213.488666 
L 213.208163 213.488666 
L 213.461224 216.339229 
L 222.318367 216.339229 
L 222.571429 219.418072 
L 233.2 219.418072 
L 233.453061 222.764964 
L 244.587755 222.764964 
L 244.840816 226.43107 
L 254.204082 226.43107 
L 254.457143 230.483762 
L 269.387755 230.483762 
L 269.640816 235.014286 
L 287.608163 235.014286 
L 287.861224 240.150571 
L 304.816327 240.150571 
L 305.069388 246.079976 
L 323.795918 246.079976 
L 324.04898 253.092975 
L 347.330612 253.092975 
L 347.583673 261.676191 
L 371.371429 261.676191 
L 371.62449 272.741881 
L 403.004082 272.741881 
L 403.257143 288.338095 
L 436.408163 288.338095 
L 436.661224 315 
L 518.146939 315 
L 518.146939 315 
" style="fill:none;stroke:#ff0000;stroke-linecap:round;stroke-width:3.0;"/>
   </g>
   <g id="line2d_24">
    <path clip-path="url(#p72f941e060)" d="M 74.530612 108.990399 
L 77.567347 109.103002 
L 80.604082 109.441434 
L 83.640816 110.007577 
L 86.677551 110.804624 
L 89.714286 111.837167 
L 92.75102 113.111326 
L 95.787755 114.634931 
L 98.82449 116.417768 
L 101.861224 118.471909 
L 104.897959 120.812144 
L 107.934694 123.456579 
L 110.718367 126.166755 
L 113.502041 129.172051 
L 116.285714 132.498009 
L 119.069388 136.176164 
L 121.853061 140.245966 
L 124.383673 144.327596 
L 126.914286 148.822399 
L 129.444898 153.792724 
L 131.722449 158.740353 
L 134 164.220543 
L 136.02449 169.627238 
L 138.04898 175.648681 
L 140.073469 182.437074 
L 141.844898 189.181444 
L 143.363265 195.738665 
L 144.881633 203.243635 
L 146.146939 210.470183 
L 147.412245 218.927409 
L 148.42449 226.947928 
L 149.436735 236.621763 
L 150.44898 248.916927 
L 151.208163 261.085569 
L 151.714286 271.674915 
L 152.220408 285.895574 
L 152.726531 307.916533 
L 152.979592 326.225174 
L 153.228321 361 
M 153.235941 361 
L 153.485714 315 
L 195.746939 315 
L 195.829253 361 
M 196.251789 361 
L 196.253061 360.517812 
L 196.759184 320.349522 
L 197.265306 301.068745 
L 198.02449 283.138223 
L 198.783673 270.918116 
L 199.795918 258.985538 
L 200.808163 249.890479 
L 201.820408 242.557029 
L 203.085714 235.045297 
L 204.35102 228.824653 
L 205.869388 222.580317 
L 207.387755 217.327029 
L 208.906122 212.834234 
L 210.42449 208.948481 
L 212.195918 205.041023 
L 213.967347 201.693953 
L 215.738776 198.82075 
L 217.510204 196.357691 
L 219.281633 194.256746 
L 221.053061 192.481097 
L 222.82449 191.002196 
L 224.595918 189.797787 
L 226.367347 188.850535 
L 228.138776 188.147063 
L 229.910204 187.677278 
L 231.681633 187.433894 
L 233.453061 187.412109 
L 235.22449 187.609397 
L 236.995918 188.02541 
L 238.767347 188.661954 
L 240.538776 189.52307 
L 242.310204 190.615198 
L 244.081633 191.947465 
L 245.853061 193.532095 
L 247.62449 195.38502 
L 249.395918 197.526733 
L 251.167347 199.983504 
L 252.938776 202.789131 
L 254.710204 205.987521 
L 256.481633 209.636578 
L 258.253061 213.814291 
L 260.02449 218.628673 
L 261.542857 223.377795 
L 263.061224 228.849041 
L 264.579592 235.252793 
L 265.844898 241.535468 
L 267.110204 249.001933 
L 268.122449 256.167531 
L 269.134694 264.881472 
L 270.146939 276.001721 
L 270.906122 286.971935 
L 271.665306 302.135275 
L 272.171429 316.875254 
L 272.677551 340.731993 
L 272.917637 361 
M 273.318764 361 
L 273.436735 315 
L 319.493878 315 
L 319.611848 361 
M 320.012976 361 
L 320.253061 340.731993 
L 320.506122 327.013906 
L 321.012245 308.82168 
L 321.771429 291.415058 
L 322.530612 279.33654 
L 323.542857 267.388112 
L 324.555102 258.176601 
L 325.820408 249.001933 
L 327.085714 241.535468 
L 328.35102 235.252793 
L 329.869388 228.849041 
L 331.387755 223.377795 
L 333.159184 217.896704 
L 334.930612 213.181424 
L 336.702041 209.085004 
L 338.473469 205.50455 
L 340.244898 202.365434 
L 342.269388 199.247613 
L 344.293878 196.57196 
L 346.318367 194.292274 
L 348.342857 192.373844 
L 350.367347 190.790571 
L 352.138776 189.664762 
L 353.910204 188.771098 
L 355.681633 188.102773 
L 357.453061 187.655418 
L 359.22449 187.426912 
L 360.995918 187.417298 
L 362.767347 187.628786 
L 364.538776 188.065842 
L 366.310204 188.735382 
L 368.081633 189.647072 
L 369.853061 190.813784 
L 371.62449 192.252236 
L 373.395918 193.983911 
L 375.167347 196.03635 
L 376.938776 198.445039 
L 378.710204 201.256175 
L 380.481633 204.530884 
L 382.253061 208.351849 
L 383.771429 212.147806 
L 385.289796 216.5303 
L 386.808163 221.643445 
L 388.073469 226.614162 
L 389.338776 232.425663 
L 390.604082 239.366566 
L 391.616327 246.045713 
L 392.628571 254.168433 
L 393.640816 264.493116 
L 394.4 274.58001 
L 395.159184 288.247113 
L 395.665306 301.068745 
L 396.171429 320.349522 
L 396.42449 335.433637 
L 396.678823 361 
M 397.101359 361 
L 397.183673 315 
L 439.444898 315 
L 439.694671 361 
M 439.702291 361 
L 439.95102 326.225174 
L 440.457143 295.421678 
L 440.963265 278.176602 
L 441.722449 261.085569 
L 442.481633 248.916927 
L 443.493878 236.621763 
L 444.506122 226.947928 
L 445.771429 217.115138 
L 447.036735 208.939422 
L 448.555102 200.618522 
L 450.073469 193.460555 
L 451.844898 186.185503 
L 453.616327 179.789271 
L 455.640816 173.310171 
L 457.665306 167.534223 
L 459.942857 161.712925 
L 462.220408 156.481012 
L 464.75102 151.243524 
L 467.281633 146.519844 
L 469.812245 142.238424 
L 472.595918 137.974796 
L 475.379592 134.124076 
L 478.163265 130.642361 
L 480.946939 127.4948 
L 483.983673 124.409358 
L 487.020408 121.658819 
L 490.057143 119.219379 
L 493.093878 117.071667 
L 496.130612 115.199861 
L 499.167347 113.591038 
L 502.204082 112.234691 
L 505.240816 111.12237 
L 508.277551 110.247407 
L 511.314286 109.604717 
L 514.35102 109.190654 
L 517.387755 109.002905 
L 518.146939 108.99118 
L 518.146939 108.99118 
" style="fill:none;opacity:0.8;stroke:#4c72b0;stroke-linecap:round;stroke-width:2.0;"/>
   </g>
   <g id="line2d_25">
    <path clip-path="url(#p72f941e060)" d="M 119.322449 315 
L 119.322449 36 
" style="fill:none;stroke:#008000;stroke-linecap:round;stroke-width:2.0;"/>
   </g>
   <g id="patch_3">
    <path d="M 72 36 
L 518.4 36 
" style="fill:none;stroke:#262626;stroke-linecap:square;stroke-linejoin:miter;stroke-width:1.25;"/>
   </g>
   <g id="patch_4">
    <path d="M 518.4 315 
L 518.4 36 
" style="fill:none;stroke:#262626;stroke-linecap:square;stroke-linejoin:miter;stroke-width:1.25;"/>
   </g>
   <g id="patch_5">
    <path d="M 72 315 
L 518.4 315 
" style="fill:none;stroke:#262626;stroke-linecap:square;stroke-linejoin:miter;stroke-width:1.25;"/>
   </g>
   <g id="patch_6">
    <path d="M 72 315 
L 72 36 
" style="fill:none;stroke:#262626;stroke-linecap:square;stroke-linejoin:miter;stroke-width:1.25;"/>
   </g>
   <g id="text_14">
    <!-- B6 14wk BCG Lung 1: 177 barcodes -->
    <defs>
     <path d="M 16.15625 0 
L 0.296875 51.859375 
L 9.375 51.859375 
L 17.625 21.921875 
L 20.703125 10.796875 
Q 20.90625 11.625 23.390625 21.484375 
L 31.640625 51.859375 
L 40.671875 51.859375 
L 48.4375 21.78125 
L 51.03125 11.859375 
L 54 21.875 
L 62.890625 51.859375 
L 71.4375 51.859375 
L 55.21875 0 
L 46.09375 0 
L 37.84375 31.0625 
L 35.84375 39.890625 
L 25.34375 0 
z
" id="ArialMT-77"/>
     <path d="M 9.03125 41.84375 
L 9.03125 51.859375 
L 19.046875 51.859375 
L 19.046875 41.84375 
z
M 9.03125 0 
L 9.03125 10.015625 
L 19.046875 10.015625 
L 19.046875 0 
z
" id="ArialMT-3a"/>
     <path d="M 58.796875 25.09375 
L 68.265625 22.703125 
Q 65.28125 11.03125 57.546875 4.90625 
Q 49.8125 -1.21875 38.625 -1.21875 
Q 27.046875 -1.21875 19.796875 3.484375 
Q 12.546875 8.203125 8.765625 17.140625 
Q 4.984375 26.078125 4.984375 36.328125 
Q 4.984375 47.515625 9.25 55.828125 
Q 13.53125 64.15625 21.40625 68.46875 
Q 29.296875 72.796875 38.765625 72.796875 
Q 49.515625 72.796875 56.828125 67.328125 
Q 64.15625 61.859375 67.046875 51.953125 
L 57.71875 49.75 
Q 55.21875 57.5625 50.484375 61.125 
Q 45.75 64.703125 38.578125 64.703125 
Q 30.328125 64.703125 24.78125 60.734375 
Q 19.234375 56.78125 16.984375 50.109375 
Q 14.75 43.453125 14.75 36.375 
Q 14.75 27.25 17.40625 20.4375 
Q 20.0625 13.625 25.671875 10.25 
Q 31.296875 6.890625 37.84375 6.890625 
Q 45.796875 6.890625 51.3125 11.46875 
Q 56.84375 16.0625 58.796875 25.09375 
" id="ArialMT-43"/>
     <path d="M 7.328125 0 
L 7.328125 71.578125 
L 34.1875 71.578125 
Q 42.390625 71.578125 47.34375 69.40625 
Q 52.296875 67.234375 55.09375 62.71875 
Q 57.90625 58.203125 57.90625 53.265625 
Q 57.90625 48.6875 55.421875 44.625 
Q 52.9375 40.578125 47.90625 38.09375 
Q 54.390625 36.1875 57.875 31.59375 
Q 61.375 27 61.375 20.75 
Q 61.375 15.71875 59.25 11.390625 
Q 57.125 7.078125 54 4.734375 
Q 50.875 2.390625 46.15625 1.1875 
Q 41.453125 0 34.625 0 
z
M 16.796875 41.5 
L 32.28125 41.5 
Q 38.578125 41.5 41.3125 42.328125 
Q 44.921875 43.40625 46.75 45.890625 
Q 48.578125 48.390625 48.578125 52.15625 
Q 48.578125 55.71875 46.875 58.421875 
Q 45.171875 61.140625 41.984375 62.140625 
Q 38.8125 63.140625 31.109375 63.140625 
L 16.796875 63.140625 
z
M 16.796875 8.453125 
L 34.625 8.453125 
Q 39.203125 8.453125 41.0625 8.796875 
Q 44.34375 9.375 46.53125 10.734375 
Q 48.734375 12.109375 50.140625 14.71875 
Q 51.5625 17.328125 51.5625 20.75 
Q 51.5625 24.75 49.515625 27.703125 
Q 47.46875 30.671875 43.828125 31.859375 
Q 40.1875 33.0625 33.34375 33.0625 
L 16.796875 33.0625 
z
" id="ArialMT-42"/>
     <path d="M 41.21875 28.078125 
L 41.21875 36.46875 
L 71.53125 36.53125 
L 71.53125 9.96875 
Q 64.546875 4.390625 57.125 1.578125 
Q 49.703125 -1.21875 41.890625 -1.21875 
Q 31.34375 -1.21875 22.71875 3.296875 
Q 14.109375 7.8125 9.71875 16.359375 
Q 5.328125 24.90625 5.328125 35.453125 
Q 5.328125 45.90625 9.6875 54.953125 
Q 14.0625 64.015625 22.265625 68.40625 
Q 30.46875 72.796875 41.15625 72.796875 
Q 48.921875 72.796875 55.1875 70.28125 
Q 61.46875 67.78125 65.03125 63.28125 
Q 68.609375 58.796875 70.453125 51.5625 
L 61.921875 49.21875 
Q 60.296875 54.6875 57.90625 57.8125 
Q 55.515625 60.9375 51.0625 62.8125 
Q 46.625 64.703125 41.21875 64.703125 
Q 34.71875 64.703125 29.984375 62.71875 
Q 25.25 60.75 22.34375 57.515625 
Q 19.4375 54.296875 17.828125 50.4375 
Q 15.09375 43.796875 15.09375 36.03125 
Q 15.09375 26.46875 18.390625 20.015625 
Q 21.6875 13.578125 27.984375 10.453125 
Q 34.28125 7.328125 41.359375 7.328125 
Q 47.515625 7.328125 53.375 9.6875 
Q 59.234375 12.0625 62.25 14.75 
L 62.25 28.078125 
z
" id="ArialMT-47"/>
     <path d="M 7.328125 0 
L 7.328125 71.578125 
L 16.796875 71.578125 
L 16.796875 8.453125 
L 52.046875 8.453125 
L 52.046875 0 
z
" id="ArialMT-4c"/>
     <path d="M 32.328125 0 
L 32.328125 17.140625 
L 1.265625 17.140625 
L 1.265625 25.203125 
L 33.9375 71.578125 
L 41.109375 71.578125 
L 41.109375 25.203125 
L 50.78125 25.203125 
L 50.78125 17.140625 
L 41.109375 17.140625 
L 41.109375 0 
z
M 32.328125 25.203125 
L 32.328125 57.46875 
L 9.90625 25.203125 
z
" id="ArialMT-34"/>
     <path d="M 49.75 54.046875 
L 41.015625 53.375 
Q 39.84375 58.546875 37.703125 60.890625 
Q 34.125 64.65625 28.90625 64.65625 
Q 24.703125 64.65625 21.53125 62.3125 
Q 17.390625 59.28125 14.984375 53.46875 
Q 12.59375 47.65625 12.5 36.921875 
Q 15.671875 41.75 20.265625 44.09375 
Q 24.859375 46.4375 29.890625 46.4375 
Q 38.671875 46.4375 44.84375 39.96875 
Q 51.03125 33.5 51.03125 23.25 
Q 51.03125 16.5 48.125 10.71875 
Q 45.21875 4.9375 40.140625 1.859375 
Q 35.0625 -1.21875 28.609375 -1.21875 
Q 17.625 -1.21875 10.6875 6.859375 
Q 3.765625 14.9375 3.765625 33.5 
Q 3.765625 54.25 11.421875 63.671875 
Q 18.109375 71.875 29.4375 71.875 
Q 37.890625 71.875 43.28125 67.140625 
Q 48.6875 62.40625 49.75 54.046875 
M 13.875 23.1875 
Q 13.875 18.65625 15.796875 14.5 
Q 17.71875 10.359375 21.1875 8.171875 
Q 24.65625 6 28.46875 6 
Q 34.03125 6 38.03125 10.484375 
Q 42.046875 14.984375 42.046875 22.703125 
Q 42.046875 30.125 38.078125 34.390625 
Q 34.125 38.671875 28.125 38.671875 
Q 22.171875 38.671875 18.015625 34.390625 
Q 13.875 30.125 13.875 23.1875 
" id="ArialMT-36"/>
     <path d="M 4.734375 62.203125 
L 4.734375 70.65625 
L 51.078125 70.65625 
L 51.078125 63.8125 
Q 44.234375 56.546875 37.515625 44.484375 
Q 30.8125 32.421875 27.15625 19.671875 
Q 24.515625 10.6875 23.78125 0 
L 14.75 0 
Q 14.890625 8.453125 18.0625 20.40625 
Q 21.234375 32.375 27.171875 43.484375 
Q 33.109375 54.59375 39.796875 62.203125 
z
" id="ArialMT-37"/>
    </defs>
    <g style="fill:#262626;" transform="translate(197.8115625 31.0)scale(0.12 -0.12)">
     <use xlink:href="#ArialMT-42"/>
     <use x="66.69921875" xlink:href="#ArialMT-36"/>
     <use x="122.314453125" xlink:href="#ArialMT-20"/>
     <use x="150.09765625" xlink:href="#ArialMT-31"/>
     <use x="205.712890625" xlink:href="#ArialMT-34"/>
     <use x="261.328125" xlink:href="#ArialMT-77"/>
     <use x="333.544921875" xlink:href="#ArialMT-6b"/>
     <use x="383.544921875" xlink:href="#ArialMT-20"/>
     <use x="411.328125" xlink:href="#ArialMT-42"/>
     <use x="478.02734375" xlink:href="#ArialMT-43"/>
     <use x="550.244140625" xlink:href="#ArialMT-47"/>
     <use x="628.02734375" xlink:href="#ArialMT-20"/>
     <use x="655.810546875" xlink:href="#ArialMT-4c"/>
     <use x="711.42578125" xlink:href="#ArialMT-75"/>
     <use x="767.041015625" xlink:href="#ArialMT-6e"/>
     <use x="822.65625" xlink:href="#ArialMT-67"/>
     <use x="878.271484375" xlink:href="#ArialMT-20"/>
     <use x="906.0546875" xlink:href="#ArialMT-31"/>
     <use x="961.669921875" xlink:href="#ArialMT-3a"/>
     <use x="989.453125" xlink:href="#ArialMT-20"/>
     <use x="1017.23632812" xlink:href="#ArialMT-31"/>
     <use x="1072.8515625" xlink:href="#ArialMT-37"/>
     <use x="1128.46679688" xlink:href="#ArialMT-37"/>
     <use x="1184.08203125" xlink:href="#ArialMT-20"/>
     <use x="1211.86523438" xlink:href="#ArialMT-62"/>
     <use x="1267.48046875" xlink:href="#ArialMT-61"/>
     <use x="1323.09570312" xlink:href="#ArialMT-72"/>
     <use x="1356.39648438" xlink:href="#ArialMT-63"/>
     <use x="1406.39648438" xlink:href="#ArialMT-6f"/>
     <use x="1462.01171875" xlink:href="#ArialMT-64"/>
     <use x="1517.62695312" xlink:href="#ArialMT-65"/>
     <use x="1573.2421875" xlink:href="#ArialMT-73"/>
    </g>
   </g>
   <g id="legend_1">
    <g id="line2d_26">
     <path d="M 374.114062 48.657813 
L 394.114062 48.657813 
" style="fill:none;stroke:#ff0000;stroke-linecap:round;stroke-width:3.0;"/>
    </g>
    <g id="line2d_27"/>
    <g id="text_15">
     <!-- raw values -->
     <defs>
      <path d="M 21 0 
L 1.265625 51.859375 
L 10.546875 51.859375 
L 21.6875 20.796875 
Q 23.484375 15.765625 25 10.359375 
Q 26.171875 14.453125 28.265625 20.21875 
L 39.796875 51.859375 
L 48.828125 51.859375 
L 29.203125 0 
z
" id="ArialMT-76"/>
     </defs>
     <g style="fill:#262626;" transform="translate(402.1140625 52.1578125)scale(0.1 -0.1)">
      <use xlink:href="#ArialMT-72"/>
      <use x="33.30078125" xlink:href="#ArialMT-61"/>
      <use x="88.916015625" xlink:href="#ArialMT-77"/>
      <use x="161.1328125" xlink:href="#ArialMT-20"/>
      <use x="188.916015625" xlink:href="#ArialMT-76"/>
      <use x="238.916015625" xlink:href="#ArialMT-61"/>
      <use x="294.53125" xlink:href="#ArialMT-6c"/>
      <use x="316.748046875" xlink:href="#ArialMT-75"/>
      <use x="372.36328125" xlink:href="#ArialMT-65"/>
      <use x="427.978515625" xlink:href="#ArialMT-73"/>
     </g>
    </g>
    <g id="line2d_28">
     <path d="M 374.114062 62.803125 
L 394.114062 62.803125 
" style="fill:none;opacity:0.8;stroke:#4c72b0;stroke-linecap:round;stroke-width:2.0;"/>
    </g>
    <g id="line2d_29"/>
    <g id="text_16">
     <!-- inversed FFT -->
     <defs>
      <path d="M 6.640625 61.46875 
L 6.640625 71.578125 
L 15.4375 71.578125 
L 15.4375 61.46875 
z
M 6.640625 0 
L 6.640625 51.859375 
L 15.4375 51.859375 
L 15.4375 0 
z
" id="ArialMT-69"/>
      <path d="M 25.921875 0 
L 25.921875 63.140625 
L 2.34375 63.140625 
L 2.34375 71.578125 
L 59.078125 71.578125 
L 59.078125 63.140625 
L 35.40625 63.140625 
L 35.40625 0 
z
" id="ArialMT-54"/>
      <path d="M 8.203125 0 
L 8.203125 71.578125 
L 56.5 71.578125 
L 56.5 63.140625 
L 17.671875 63.140625 
L 17.671875 40.96875 
L 51.265625 40.96875 
L 51.265625 32.515625 
L 17.671875 32.515625 
L 17.671875 0 
z
" id="ArialMT-46"/>
     </defs>
     <g style="fill:#262626;" transform="translate(402.1140625 66.303125)scale(0.1 -0.1)">
      <use xlink:href="#ArialMT-69"/>
      <use x="22.216796875" xlink:href="#ArialMT-6e"/>
      <use x="77.83203125" xlink:href="#ArialMT-76"/>
      <use x="127.83203125" xlink:href="#ArialMT-65"/>
      <use x="183.447265625" xlink:href="#ArialMT-72"/>
      <use x="216.748046875" xlink:href="#ArialMT-73"/>
      <use x="266.748046875" xlink:href="#ArialMT-65"/>
      <use x="322.36328125" xlink:href="#ArialMT-64"/>
      <use x="377.978515625" xlink:href="#ArialMT-20"/>
      <use x="405.76171875" xlink:href="#ArialMT-46"/>
      <use x="466.845703125" xlink:href="#ArialMT-46"/>
      <use x="527.9296875" xlink:href="#ArialMT-54"/>
     </g>
    </g>
    <g id="line2d_30">
     <path d="M 374.114062 76.948438 
L 394.114062 76.948438 
" style="fill:none;stroke:#008000;stroke-linecap:round;stroke-width:2.0;"/>
    </g>
    <g id="line2d_31"/>
    <g id="text_17">
     <!-- threshold: 177 barcodes -->
     <defs>
      <path d="M 25.78125 7.859375 
L 27.046875 0.09375 
Q 23.34375 -0.6875 20.40625 -0.6875 
Q 15.625 -0.6875 12.984375 0.828125 
Q 10.359375 2.34375 9.28125 4.8125 
Q 8.203125 7.28125 8.203125 15.1875 
L 8.203125 45.015625 
L 1.765625 45.015625 
L 1.765625 51.859375 
L 8.203125 51.859375 
L 8.203125 64.703125 
L 16.9375 69.96875 
L 16.9375 51.859375 
L 25.78125 51.859375 
L 25.78125 45.015625 
L 16.9375 45.015625 
L 16.9375 14.703125 
Q 16.9375 10.9375 17.40625 9.859375 
Q 17.875 8.796875 18.921875 8.15625 
Q 19.96875 7.515625 21.921875 7.515625 
Q 23.390625 7.515625 25.78125 7.859375 
" id="ArialMT-74"/>
      <path d="M 6.59375 0 
L 6.59375 71.578125 
L 15.375 71.578125 
L 15.375 45.90625 
Q 21.53125 53.03125 30.90625 53.03125 
Q 36.671875 53.03125 40.921875 50.75 
Q 45.171875 48.484375 47 44.484375 
Q 48.828125 40.484375 48.828125 32.859375 
L 48.828125 0 
L 40.046875 0 
L 40.046875 32.859375 
Q 40.046875 39.453125 37.1875 42.453125 
Q 34.328125 45.453125 29.109375 45.453125 
Q 25.203125 45.453125 21.75 43.421875 
Q 18.3125 41.40625 16.84375 37.9375 
Q 15.375 34.46875 15.375 28.375 
L 15.375 0 
z
" id="ArialMT-68"/>
     </defs>
     <g style="fill:#262626;" transform="translate(402.1140625 80.4484375)scale(0.1 -0.1)">
      <use xlink:href="#ArialMT-74"/>
      <use x="27.783203125" xlink:href="#ArialMT-68"/>
      <use x="83.3984375" xlink:href="#ArialMT-72"/>
      <use x="116.69921875" xlink:href="#ArialMT-65"/>
      <use x="172.314453125" xlink:href="#ArialMT-73"/>
      <use x="222.314453125" xlink:href="#ArialMT-68"/>
      <use x="277.9296875" xlink:href="#ArialMT-6f"/>
      <use x="333.544921875" xlink:href="#ArialMT-6c"/>
      <use x="355.76171875" xlink:href="#ArialMT-64"/>
      <use x="411.376953125" xlink:href="#ArialMT-3a"/>
      <use x="439.16015625" xlink:href="#ArialMT-20"/>
      <use x="466.943359375" xlink:href="#ArialMT-31"/>
      <use x="522.55859375" xlink:href="#ArialMT-37"/>
      <use x="578.173828125" xlink:href="#ArialMT-37"/>
      <use x="633.7890625" xlink:href="#ArialMT-20"/>
      <use x="661.572265625" xlink:href="#ArialMT-62"/>
      <use x="717.1875" xlink:href="#ArialMT-61"/>
      <use x="772.802734375" xlink:href="#ArialMT-72"/>
      <use x="806.103515625" xlink:href="#ArialMT-63"/>
      <use x="856.103515625" xlink:href="#ArialMT-6f"/>
      <use x="911.71875" xlink:href="#ArialMT-64"/>
      <use x="967.333984375" xlink:href="#ArialMT-65"/>
      <use x="1022.94921875" xlink:href="#ArialMT-73"/>
     </g>
    </g>
   </g>
  </g>
 </g>
 <defs>
  <clipPath id="p72f941e060">
   <rect height="279.0" width="446.4" x="72.0" y="36.0"/>
  </clipPath>
 </defs>
</svg>
